<svg xmlns="http://www.w3.org/2000/svg" xmlns:xlink="http://www.w3.org/1999/xlink" width="1920" height="1180" viewBox="0 0 1920 1180"><defs><linearGradient id="linear-gradient" x1="949" y1="819.56" x2="949" y2="651.83" gradientUnits="userSpaceOnUse"><stop offset="0"/><stop offset="0.11" stop-color="#050505"/><stop offset="0.23" stop-color="#131313"/><stop offset="0.36" stop-color="#2a2a2a"/><stop offset="0.5" stop-color="#4b4b4b"/><stop offset="0.64" stop-color="#757575"/><stop offset="0.79" stop-color="#a8a8a8"/><stop offset="0.94" stop-color="#e4e4e4"/><stop offset="1" stop-color="#fff"/></linearGradient><linearGradient id="linear-gradient-2" x1="823.07" y1="649.8" x2="823.07" y2="235.8" gradientTransform="matrix(-2.64, 0, 0, -0.49, 3127.3, 1008.04)" gradientUnits="userSpaceOnUse"><stop offset="0" stop-color="#ffe378"/><stop offset="0.05" stop-color="#ffc770"/><stop offset="0.12" stop-color="#ffa766"/><stop offset="0.19" stop-color="#ff8f60"/><stop offset="0.26" stop-color="#ff815b"/><stop offset="0.31" stop-color="#ff7c5a"/><stop offset="0.39" stop-color="#dc7560"/><stop offset="0.56" stop-color="#94676b"/><stop offset="0.71" stop-color="#5b5c74"/><stop offset="0.84" stop-color="#32547b"/><stop offset="0.94" stop-color="#184f7f"/><stop offset="1" stop-color="#0f4d80"/></linearGradient><mask id="mask" x="-117.5" y="643.35" width="2108.22" height="227.25" maskUnits="userSpaceOnUse"><rect x="-32" y="651.83" width="1962" height="167.74" fill="url(#linear-gradient)"/></mask></defs><title>header-5</title><g id="city1"><path d="M2008.7,543.38h-2.93v59.83H1979.1V505.35h-21.86v97.86h-10.05v-77H1907v77h-29.73V515.55H1774.51v87.66H1625v75.51h421.72C2035.69,633.25,2020.85,588.56,2008.7,543.38Z" fill="#292929"/><path d="M1948.22,687.72h42.49c-11-45.46-25.87-90.15-38-135.34h-2.93v59.83H1926.1v-44h-3V514.35h-21.86v97.86h-7.05V589.1h-3V535.22H1851v77h-26.73V578.43h-3V524.55H1718.51v87.66h-16.78V565.39h-47.93v36.14h-12.75v10.67h-22V584.39h-6.6v-19H1558.4v48.19h-8.79v-44h-47.93v44h-7.91v44.95h-14.95V604.78h-11.43v-3.24H1368v-32h-61.56v51.9h-26.38v37.07h-22.86V577.44h-29.9v21.31h-25.06v14.83h-26.82V560.76h-22v84.8h-54.52v-84.8h-40.45v97.77h-14.95v-89H940.2v39.85H924.82v19h-2.2V569.56h-33v32H829V609h-.91v49.49h-8.76v7.56H806.2V591.88h-6.56v-19H745.87v93.22h-8.74V577H689.48v36.18H579.31v52.87H556.58V577h-61.2v89H483.14V609H446.41V584.93H416.69v21.33H391.77v59.83H365.1V568.23H343.24v97.86H333.19v-77H293v77H263.24V578.43H160.51v87.66H126.33V645.56h-6.6V565.39H71.81v36.14H59.06v12h-22V584.39h-6.6v-19H-23.6v48.19H-32.4v-44H-80.32v44h-7.91v44.95h-14.95V604.78h-9.29q-2.53,64.59-5,129.19H11v7.63H881.39V734H1572v7.63h376.36C1948.14,723.64,1948.14,705.68,1948.22,687.72Z" fill="#292929"/></g><g id="water"><rect x="-33.9" y="691" width="1979.03" height="200.99" fill="url(#linear-gradient-2)"/><g opacity="0.27"><rect x="-33.4" y="691.5" width="1978.03" height="199.99"/><path d="M-32.83,691.28l1977,1.43-.14,199L-33,890.27l.14-199m-1-1-.15,201,1979,1.43.15-201-1979-1.43Z"/></g><g mask="url(#mask)"><path d="M1948.22,697.23h42.49c-11,45.46-25.87,90.15-38,135.34h-2.93V772.74H1926.1v44h-3V870.6h-21.86V772.74h-7.05v23.11h-3v53.88H1851v-77h-26.73v33.78h-3v53.88H1718.51V772.74h-16.78v46.82h-47.93V783.41h-12.75V772.74h-22v27.82h-6.6v19H1558.4V771.36h-8.79v44h-47.93v-44h-7.91V726.42h-14.95v53.75h-11.43v3.24H1368v32h-61.56v-51.9h-26.38V726.42h-22.86v81.09h-29.9V786.19h-25.06V771.36h-26.82v52.82h-22v-84.8h-54.52v84.8h-40.45V726.42h-14.95v89H940.2V775.53H924.82v-19h-2.2v58.85h-33v-32H829V775.9h-.91V726.42h-8.76v-7.56H806.2v74.21h-6.56v19H745.87V718.86h-8.74v89H689.48V771.73H579.31V718.86H556.58v89h-61.2v-89H483.14v57H446.41V800H416.69V778.69H391.77V718.86H365.1v97.86H343.24V718.86H333.19v77H293v-77H263.24v87.66H160.51V718.86H126.33v20.53h-6.6v80.16H71.81V783.41H59.06v-12h-22v29.19h-6.6v19H-23.6V771.36H-32.4v44H-80.32v-44h-7.91V726.42h-14.95v53.75h-9.29q-2.53-64.59-5-129.19H11v-7.63H881.39V651H1572v-7.63h376.36C1948.14,661.31,1948.14,679.27,1948.22,697.23Z" fill="#292929"/></g></g></svg>