<svg id="mountains1" xmlns="http://www.w3.org/2000/svg" width="1920" height="1180" viewBox="0 0 1920 1180"><title>header-3</title><path d="M2163.8,545.9c-20.5-8.2-44.7-4.2-66.2-5.7s-40.8-4.9-60-12.1-33.1-22.8-51.4-32.6c-15.1-8.1-29-20.3-44.9-26.5a201.5,201.5,0,0,1-21.1-9.6c-6.5-3.5-12.8-8.9-19.9-11.1-8.6-2.7-17.8-3-26.3-6.8-6.7-3-12.9-7.1-19.6-10.2-4.6-2.1-9-4.7-13.9-6.1s-7.8-1-11.2-2.5c-5.4-2.3-10.4-7.1-15.3-10.2a183.7,183.7,0,0,0-37-17.7c-7.9-2.8-15.2-5.4-21.7-10.7-4.5-3.6-8-5-13.5-6.6-8.9-2.6-25-9.2-34.4-6.2s-7.8,23.6-2.5,30.8c4.1,5.6,5.8,3,12.4,4.5,9.4,2.1,9.8,5,13.1,12.8s11.4,9,18.1,13.8c3.2,2.3,5.2,5.1,7.9,7.9,4.3,4.6,8.2,4.5,14.4,5,19.1,1.4,39.2,8.4,57.9,13.1,7.4,1.9,15,2.7,22.3,4.5s14.3,4.6,21.5,6.7c14.2,3.9,28.5,4.8,42.2,10.6,17.7,7.4,34.9,21.2,46.9,36.2,6,7.6,8.9,18.9,18.7,22.1,12.2,4,24.2,1.8,36.6,3.1,10.4,1.1,21.3,5.9,31.2,9.1,8.1,2.6,9.7,10.1,17.5,12.2s15.6,7,23.8,10.3c3.4,1.4,11.2,5.5,14.6,4.7s6-6.8,10-7.4c-3,.5-7.6,5.6-10,7.4,23.2-10.1,47.9-17.4,71.7-25.8C2171.7,550.5,2168.1,547.6,2163.8,545.9Z" fill="#80655d"/><path d="M459.5,567.3l.4-.3-.5.2Z" fill="#5f5a75" stroke="#000" stroke-miterlimit="10"/><path d="M326.5,526.3l-.5-.5C326.8,527,327.2,527.5,326.5,526.3Z" fill="#5f5a75" stroke="#000" stroke-miterlimit="10"/><path d="M556,535.4h0Z" fill="#5f5a75" stroke="#000" stroke-miterlimit="10"/><path d="M520.9,533.3c-11.3-4.6-23.8-5.3-36.4-5.1-37.3.4-76.9-3.8-108.5-20-13.2-6.8-22.2-16.8-33.6-25.1-5.3-3.8-12.1-6.2-17.8-9.8s-12.4-8.7-18.4-13.1c-1.7-1.2-3.9-2-5.7-3.1s-3.5-1.9-5-2.9a18.2,18.2,0,0,0-1.9-1.4c-3.2-1.6-7.2-1.7-10.4-3.3s-3.9-2.3-5.8-3.4l-4.9-2.8c-1.3-.8-2.8-1.2-4.1-2l-4.6-2.9a31.6,31.6,0,0,0-3.3-1.5c-2-.9-3.8-2.6-5.5-3.8s-2.2-2-3.4-2.8-2.6-.6-3.7-.8l-5.1-.7a133.3,133.3,0,0,1-20.5-5.8c-3.3-1.1-5.6-2.2-7.7-4.4s-4.2-2.7-6.8-3.8c-6.4-2.6-12.3-6-18.6-8.8a25,25,0,0,0-5.7-1.8c-1.9-.3-3.1.1-4.9-.7l-4.8-1.9c-3.2-1.2-6.5-2.5-9-4.9s-2.6-3.3-4.2-4.7-5-2.9-7.6-4.1a34.5,34.5,0,0,1-11.3-8.8c-1.8-2.1-21.7-7.6-24.9-7.7a5.6,5.6,0,0,1-3.7-1.2c-.6-.6-4.4-4-6-4.6a39,39,0,0,1-7.5-3.5c-2.4-1.5-4.4-3.5-6.9-4.9s-8.8-7.6-10.4-10.1c-3.4-5.5-29.4-2.5-35.8.8l-2.4,1.3a3.8,3.8,0,0,1-.1,1.2c-.2.5-.8.6-.9,1.1s0,2.6-.1,3.9a17.8,17.8,0,0,1-.8,3c-.5,2,0,4-.4,5.9s-.4,3.7-.7,5.5-1.5,4.5-2,6.8a11.2,11.2,0,0,1-1.4,3.4,14,14,0,0,0-.5,1.5l-.7,1.6c-.7,3.1,3,3.1,6.2,2.6,1.2-.2,1.1-.6,2.8-.6a16,16,0,0,0,3.1-.1,29.7,29.7,0,0,1,5.7-.6c3.6,0,10.5-.3,10.5-.5a9.2,9.2,0,0,0,2.5-.8c.1.9.9,1.3,1.2,2.1a50,50,0,0,1,1.2,5.8c.7,3.1,1.7,6.3,2.6,9.4s6.1,6.4,10.7,8.7,8.1,4.2,11.3,7.5a59.4,59.4,0,0,1,9.1,11.2c1.1,1.9,2.7,5.1,3,7.2a16,16,0,0,0,1.9,5.5c1.2,2.1,4.5,3,7.4,3.2s2.4.2,3.3,2.8,4,4.9,5.6,7.5c.3.6.7,1.5,1.4,1.7a1.9,1.9,0,0,0,1.5-.3,5.2,5.2,0,0,1,1.3-.4l.3-.2h.3l.6-.3a9.6,9.6,0,0,0,1.4-1.2l.3-.4.4-.3.9-1c.7-.8,1.2-1.7,1.9-2.5l.8-.9.9-.8a8.7,8.7,0,0,0,1.1-1.3,2.1,2.1,0,0,1,.7-.9l1.1-.5,1.2-.6.6-.5a10.5,10.5,0,0,1,2.1-1.9l1.1.9c1.5,1.1,1.5,2.4,2.3,3.8s2.9,3.1,4.2,4.7,3.4,4.8,5.5,7c3.8,4,7.3,8.1,11.2,12.1s4.8,6.6,7.9,9.5a19.7,19.7,0,0,1,2.2,2,11.4,11.4,0,0,0,.9,1.4,14.7,14.7,0,0,0,4.1,2,72.7,72.7,0,0,0,8,2.4c1.9.5,3.3.6,4.5,1.9,4.2,4.9,5.3,11.5,10,16.2a4.9,4.9,0,0,0,4,1.6c6.3.3,12.6-1,18.8-1.6s11.3-1.3,17.1-1.3,9.4-.5,13.7.2,7.8,3.9,11.5,6.2c6.1,3.8,12.8,7.9,20,10.2a40.4,40.4,0,0,0,9.9,1.5c1,.1,1.8-.3,2.5.4-.7-2.1,3.3,1.7,4.2-.1,1.7-3.4,5.7,4.1,7.6.7-.3,1.7,8.5,2.5,10.9,3.9-1.8-2.6-5.4-8.4-2.8-6.4s6.4,4.8,10.9,6.1a59.8,59.8,0,0,0,13.8,2.5c5.5.2,11,.1,16.5,0a38,38,0,0,1,15.6,2.9c8.4,3.3,16.8,5.5,25.5,8.2,5.1,1.6,5.9,7.7,9.5,10.7s4.6.8,7.8,1.4a12,12,0,0,1,2.6,1c5.2,2.9,10.3,5.8,15.8,8.3s12,4.5,18.1,6.7l.5-.2,5-3.9c1.3-1,3.7-3.7,5.4-4-1.7.3-4.1,3-5.4,4l-5,3.9,2.8-1.2c6.9-2.7,13.8-5.5,20.8-8.1,8.6-3.2,17.8-5.8,26.6-8.7a232,232,0,0,0,22-8.7l2.1-.8-.9-.5C528.4,537.8,525.3,535.1,520.9,533.3Z" fill="#80655d"/><path d="M1685.5,615.8l.4-.3-.5.3Z" fill="#80655d"/><path d="M1552.5,567.2l-.5-.5C1552.8,568.1,1553.2,568.6,1552.5,567.2Z" fill="#80655d"/><path d="M1782,577.9h0Z" fill="#80655d"/><path d="M1746.9,575.4c-18.2-8.8-39.5-5.5-59-6.5s-41.4-4.4-60.9-11.4-34.4-18.1-49.1-32.6a119.7,119.7,0,0,0-21.4-16.7c-9.4-5.9-16.9-13.9-25.8-20.4-6.7-5-13-7.8-20.4-11.2s-14.2-9.2-20.8-13.8-10.6-8.9-17.3-10.7c-9-2.5-19.2-3.8-27.3-8.9-6.6-4.1-12.4-8.7-19.4-12.6s-15.4-7-23.8-10.3-12.8-11-20.6-16c-6-3.9-10.1-9.1-15.7-13.1-8.9-6.3-21.1-5.5-29.5-12.1-5.8-4.5-12.2-7.7-17.8-12.6s-7.4-10.2-11.8-13.4c-7.3-5.3-26.6-2.5-33.9,2.1s-4.6,11.4-5.2,18a101.8,101.8,0,0,1-1.7,12.3c-.6,2.8-3.4,7.8-3.3,10.7.3,6.1,5.2,3.9,10.2,3.2s7.4-.6,11.1-.8c1.1-.1,8.7-1.8,9.2-1.5,3.7,1.9,3.5,17.9,5.5,21.8,4.3,8.2,15.3,11,21.5,17.8s9.2,15.8,12.8,25.2c1.8,4.7,2.9,4.5,7.1,6.7s2,.3,4.7,3.6,2.9,7.1,5.6,8.9,1.9.7,5,.8c7.3.2,12.6-1,19.8,1.1,16.4,4.9,19.1,27.2,33.5,35,3.9,2.1,9.3,1.9,12.5,5s4.2,8.7,6.1,12.5c5.7,11.5,13.5,8.4,24.9,6.8s24.2-4.5,34-1.2,16.2,12.2,24.8,16.6a46.7,46.7,0,0,0,19.2,4.6c1.4,0,10.1,1.2,10.2,1-.3,2.1,9.6,3.7,10.9,4.6-.3-.5-4.4-7.7-3.6-8s6.1,4.9,7.2,5.5a37.1,37.1,0,0,0,11.3,4.1c7.8,1.7,15.6.8,23.5,1s13.8,2.8,21,5.8,16.8,4.2,22.3,8.7,4.2,10.2,9.7,12.7c2,.9,5,.2,7.3,1.1s6.9,4.5,10,6.4c6.2,3.8,13.6,8.5,20.9,10.2s2.4,1.8,6.7-1c2.6-1.7,4.7-6.5,7.9-7-3.1.6-8.1,7.3-10.4,9.3,23.8-12.6,49.7-21.9,74.4-32.6C1755,581.3,1751.4,577.6,1746.9,575.4Z" fill="#80655d"/><path d="M649.4,613.4l.4-.3-.5.3Z" fill="#80655d"/><path d="M516.7,566.7l-.5-.5C517,567.5,517.4,568,516.7,566.7Z" fill="#80655d"/><path d="M745.8,577h0Z" fill="#80655d"/><path d="M711.8,573.4c-19.2-9-42.1-5.2-62.7-6.5s-41.2-4.8-60.5-12-33.9-19.7-49.6-33.9c-7.2-6.5-15.4-10.5-23.3-16s-17.5-13.8-26.7-20.2c-7.3-5-15.5-7.7-23.1-12.5s-14.2-7.3-20.9-11.1-12.1-7-20-9.4c-9.5-3-15.6-7.4-23.8-12.4s-16.3-9.7-24.4-12.5c-6.4-2.2-11.6-3.3-17.4-6.9-9.1-5.5-18.9-9.8-27.1-16.6s-17.7-11.3-28.2-15.6c-13.8-5.6-23.3-19.3-37.5-25.1-7.4-3-26.5-6.7-31.7,1.4-3.3,5.1-1.8,15.2-2.7,21.3-.4,2.7-6.3,15.9-4.5,18.6s14.8-.4,17.6-.6a83.5,83.5,0,0,1,9.8-.4c4.5.2,3.6-1.2,5.1,4.6,2.5,9.5,2.2,16.7,11,22.4S287.9,441,293.5,451c4.5,8,3.3,15.3,11.8,19.6,3.5,1.8,2.5.3,4.6,2.6s2.7,7.6,5.7,9.4c5.2,3.2,9.6-5.9,14.1-10.1,2-1.8,4-3.4,5.9-2.9s6.9,10.5,8.3,12.5c6.1,8.3,12.7,16.2,18.8,24.5,2.6,3.6,5.2,8.1,8.9,10.5s7.9,2.2,11.4,4c8.9,4.6,7.2,19.1,17.2,22.1,4.7,1.4,12.2-1,16.9-1.6,6.3-.8,12.6-1.5,19-1.7,12-.5,17.3,1.5,26.7,8.3s18.1,10.9,29.7,12.3c6.7.8,16.1.6,23.8,5.7-.3-.4-4.4-7.4-3.6-7.7s6.1,4.7,7.2,5.3a37.8,37.8,0,0,0,11.3,4c7.8,1.6,15.6.8,23.5.9s13.8,2.7,21,5.6,16.8,3.9,22.3,8.4,4.3,9.8,9.7,12.2c2,.9,5,.2,7.3,1s6.8,4.3,10,6.2c6.3,3.7,13.6,8.2,20.8,9.9s6.9-6.4,14.5-7.7c-3.1.6-8.1,7-10.4,9C673.6,601,699.4,592,724,581.7,719.9,579.1,716.3,575.5,711.8,573.4Z" fill="#80655d"/><path d="M482.1,633.4l-.4-.3.6.3Z" fill="#80655d"/><path d="M644,586.7l.6-.5C643.7,587.5,643.2,588,644,586.7Z" fill="#80655d"/><path d="M364.5,597h0Z" fill="#80655d"/><path d="M406,593.4c23.2-8.9,49.5-5.2,73.9-6.4s48.1-4.1,71.3-10.6a163.5,163.5,0,0,0,58.2-29.7c17.6-13.8,37.9-23.6,56.7-35.7,7.2-4.6,15.2-9.1,23.3-11.5,10.8-3.2,19.9-9.9,30.1-14.6,3.5-1.6,7.4-1.6,10.8-3s6.8-4.3,10.7-5.9c9.3-3.7,19.5-5.2,29.1-8.6s16.7-8.7,25.4-12.6c5.4-2.4,10.7-5.3,16.4-7.2s10.4-1.6,15.3-3.4c11.4-4.2,23.2-10.6,34-16.2s18.8-12.7,29.8-17.1c5.4-2.2,11.2-2.6,16.4-5.2,7.2-3.6,13.4-9,20.3-13.1,13.6-8,28.9-14,44.9-13.7,4.9.1,13.3,1.6,15.5,5.9,3.5,7,2.1,17.8,4.3,25.7,1.7,5.9,8,12.8-.2,14.4-6.6,1.3-16.9-1.6-23.8-1.9-.5,0-8.9-1.6-9.2-1.4-2.3,1.1-2.3,6.8-2.9,9-3.4,13.4-7.5,16-19.4,22.1a55.3,55.3,0,0,0-20.8,18.6c-2.8,4.2-3.4,8.3-5.4,12.8-2.7,6-5.3,4.7-10.5,6.7s-1,.4-4.6,4.4c-1.1,1.2-5.8,8.9-7.5,9.2-5.5.9-13.5-10.8-18.3-13.1s-2.9-3.1-7,1.6-8.2,9.8-12.4,14.5c-8,8.8-16.5,19.5-25.8,26.8s-19.2,4.6-25,13.9c-2.5,4.1-4.3,10.4-8.5,13.3s-12.7,1.7-18.3,1c-13.4-1.5-26.9-3.1-40.5-2.8s-20.1,7.7-30.5,13.1-20.3,7.8-29.7,7.6c-2.1,0-13.7,2.5-14.2,1.5.4,2.1-11.6,3.6-13.2,4.4.3-.4,5.2-7.5,4.4-7.7s-7.1,4.5-8.4,5.2a51,51,0,0,1-14.1,4.1c-9.5,1.6-19.1.8-28.7.9s-17.6,3-26.7,5.9-18.9,3.3-25.8,7.8c-4.9,3.2-5.8,10-11.4,12.3-2.6,1.1-6.1.1-8.8.9s-7.6,3.8-11,5.5a182.3,182.3,0,0,1-24.3,9.8c-6.1,2-6,2.8-11.2,0-3.1-1.7-5.9-6.2-9.6-6.8,3.8.6,9.6,6.8,12.6,9-29.4-12.3-60.5-21.1-90.6-31.4C396.1,599.1,400.6,595.5,406,593.4Z" fill="#80655d"/><path d="M2104.8,577.8h.1c-8.6-3.1-17-5.9-25.1-10.1-2.8-1.4-5.7-3.7-8.7-4.6s-6.4.1-9.6-2.5-2.7-4.7-4.6-6.6-7-3.5-10.9-4.7c-8.3-2.4-16.7-6.3-25.3-7.8-4.9-.9-6.9.2-10.2-3.5s-4-7.6-6.2-11c-4.5-7.1-10-14-16.7-19a162.6,162.6,0,0,0-44.4-23.2c-20.1-6.6-42-9.5-62.6-14.8s-39.9-10.7-59.8-16.2c-16.3-4.6-31.6-12.1-47.7-17.1-12.5-3.9-37-6.3-41.7-20-1-2.8-1-9.8-3.1-11.8s.2.3-3.1-.7c-5.1-1.6-9.2-.2-14-3.7a22.8,22.8,0,0,1-8.4-14.9c-.2-2.7.5-5.5,1.1-8s.6-3.1.9-4.7,2.8-1.2,2.8-2.1c-11.6,6.1-17.8,15-27.6,23.3-5.6,4.7-12,8-17.5,12.7s-8.9,10.9-14.8,14.8c-9.4,6.2-19.3,7.4-27.5,15.9-3.8,3.9-6,7.5-10.9,10.1s-11.3,2.5-16.3,5.2c-8.8,4.7-14.7,17.2-20.2,25.4-3.1,4.7-4.8,10.3-9.5,13.6a48.4,48.4,0,0,1-4.3,2.8h-1c-3.6,0-7.2,1-10.8.9s-5.9.4-8.9.4a27.1,27.1,0,0,1-9.8-2.2,81.4,81.4,0,0,0-20.3-5.5c-8.3-1-16.5-1.7-24.8-2.5-2-.2-3.9,0-5.8-.6s-3.5-1.4-5.2-2l-2.5-1.1c-1.1-.5-1.6-1.2-2.6-1.8-2.9-1.6-7.3-1.1-10.4-1.2a71.7,71.7,0,0,0-8.7.6,21.3,21.3,0,0,0-4.4,1.3c0,2.8-2,5.7-2.9,8.2a84.9,84.9,0,0,1-6.2,13.2,94,94,0,0,0-7.6,16,7.8,7.8,0,0,0-.8,3.9c.2,2.7.5,5.4.8,8.1s1.3,3.8,2.5,5.8l2.2,3.9a15.5,15.5,0,0,1-3.2-4.4c-3.5-6.6-4.1-12.9-11.2-16.2s-11.8-4.5-17.3-11.9-9.7-13.4-14.7-20c-2.8-3.6-5.2-7.4-7.8-11.1-1.2-1.8-5-9.6-6.5-10.2-10.2-3.7-14.6,28.2-24.6,7-.7-1.5-.8-4.5-1.9-5.4s-5.8-.4-8-2.1-3.2-7.6-4.3-11.4a48.1,48.1,0,0,0-6.5-12.6c-5.3-7.8-11.4-11.8-19.1-16.9s-8.6-13.5-11-23.2c-1.3-5.4-.6-4.3-4.3-4.9s-6.8.5-9.3.6-16.8,3.7-18.9.6,3.8-14.8,4.4-17.7c1.3-7.4,3-17.2,2.9-24.4-14.3,9-21.4,25.5-34.7,36.2-11.2,9.1-18,19.2-25.6,31.2-2.7,4.2-5.1,8.6-7.7,12.9-3.7,5.9-7.2,6.8-13.8,9.3a50.2,50.2,0,0,0-4.9,2.2c-7.1-2.8-15.4-5.3-22.5-3.7-4.6,1-8,3.9-11.3,7a117,117,0,0,1-15.2,12.4c-8,5.5-14.9,9.6-22.8,12.9-9.4-2.5-18.8-4.8-28.2-7.6s-11.8-6.2-17.5-13.8c-10.3-13.6-20.2-26.9-34.9-35.9-9.1-5.6-18.5-12.5-25.3-20.8-3.5-4.3-6.3-7.7-11-10.8-3-2-6.3-5.4-9.4-6.9-5.6-2.8-12.6-2.7-18.7-2.4-3.5.2-11.7-.2-14.7,2.8s-1.9,8.1-4,11.4-6.8,5.9-8.7,10.4-.6,10.6-4.1,15.7-8.2,7.3-12.1,10.6A129.7,129.7,0,0,0,912.2,440c-4.2,4.4-8,6.1-12.7,9.3s-6.8,6.1-13.8,7.3-10.9,2.2-16.4,3.6c-11.8,3-23.8,9.2-35.9,10.3s-26.4.4-39.3,4.4a92,92,0,0,1-25.6,3.7,64.8,64.8,0,0,0-7-4.3c-10.7-5.4-19.6-11.9-29.5-18.4-20.9-13.7-47.2-14-70.6-8.1-6.8,1.7-13.5,3-20,5.8s-10.1,5.5-15.7,6.7c-10,2.2-21.1,1.3-31.3,2.4-7.3.8-14.1.6-21.3.9-5.6.2-10.4,2.9-16,3-10.8.1-25.9-2.7-35.7-7.2a157.9,157.9,0,0,1-29-18c-7.2-5.6-14.3-6.9-23.1-4.1-18.5,6-34.6,17.7-53.5,23.5-11.4,3.5-21,9.1-31.1,15.2-6.1,3.7-10.1,6.3-14.9,11.8s-7,8.1-11.8,11l-.8.5c-3.2-3.9-6.2-7.9-9.5-11.7a40,40,0,0,1-2.7-3.7l-1.6-2.6a.9.9,0,0,1-.1-.6,2.1,2.1,0,0,0-.2-1.1l-.8-1.7a3,3,0,0,0-.4-.7l-.5-.5-.3-.3-.4-.2c-.2-.2-.1-.4-.1-.6a12.9,12.9,0,0,0-.1-1.7c-.1-1-.2-1.9-.3-2.9a28.5,28.5,0,0,0-1.2-5.9,17.3,17.3,0,0,0-2-4.6l-2.5-3.1a18.2,18.2,0,0,0-2.4-2.3,31.1,31.1,0,0,1-2.4-2.4c-1.5-1.7-3.2-3.1-4.8-4.7l-2.7-3-2.5-2.6c-1.8-2-4.1-3-6.3-4.5l-3.9-2.7a13,13,0,0,1-2.4-2.3c-1.9-2.1-3.5-4.4-5.2-6.6-3.2-4.1-6.6-8.1-9.6-12.3-1.3-1.8-3.1-3.2-4.6-4.8-3.2-3.6-7.4-6.4-9.9-10.6s-2.3-6.9-2.7-10.6a22.3,22.3,0,0,0-.7-5.1,19.1,19.1,0,0,0-2.1-4.1c-1.1-1.6-2.7-2.8-3.8-4.4a13.8,13.8,0,0,1-2.1-3.8c-.4-1.4-.4-2.9-.7-4.3a21.2,21.2,0,0,0-.8-3.7,4.1,4.1,0,0,0-2.1-2.3c-.8-.3-1.6-.3-2.4-.6a17.1,17.1,0,0,0-1.9-.8c-1-.2-2.1.2-3.1.2a13.2,13.2,0,0,1-3.3-.6c-4.1-.9-8.4.2-12.5,1.4a12.1,12.1,0,0,0-2.8,1A5.7,5.7,0,0,0,235,362c-.5.6-.7,1.3-1.1,1.9h-.1c-4.2,2.7-8.2,5.6-10.9,9.5s-4.5,7.9-8.1,11.2-8.8,9.7-14.3,13.4-12.6,9.9-16.7,16.6c-3,4.8-7.1,9.4-13.1,11.8-1.4.5-3.1.6-4.3,1.5s-1.5,2-1.4,4.3,2.2,7.2,1.5,9.9-2.4,3.2-4.7,4.4-6.8,2.4-10,3.6l-.2-.2c-1.3-1.6-3.2-3-4.2-4.7s-.8-2.7-2.3-3.8l-1.1-.9a10.5,10.5,0,0,0-2.1,1.9c-1,.9-1.5.9-2.6,1.6s-4.2,3.8-5.9,5.6a24.6,24.6,0,0,1-2.7,2.2c-.8.6-1.6,1.9-2.6,2.4s-2.2,0-3-1.4-4.7-4.6-5.6-7.5.7-2.6-3.3-2.8-6.2-1-7.4-3.2a16,16,0,0,1-1.9-5.5c-.3-2.1-1.9-5.3-3-7.2a59.4,59.4,0,0,0-9.1-11.2c-3.3-3.3-6.9-5.3-11.3-7.5s-9.4-4.4-10.7-8.7-1.9-6.3-2.6-9.4a50,50,0,0,0-1.2-5.8c-.3-.8-1.1-1.2-1.2-2.1a9.2,9.2,0,0,1-2.5.8c-.1.3-6.9.6-10.5.5a29.7,29.7,0,0,0-5.7.6,16,16,0,0,1-3.1.1c-1.8,0-1.7.4-2.8.6-3.2.5-6.9.6-6.2-2.6l.7-1.6a14,14,0,0,1,.5-1.5,11.2,11.2,0,0,0,1.4-3.4c.4-2.3,1.6-4.5,2-6.8s.3-3.6.7-5.5-.1-4,.4-5.9a17.8,17.8,0,0,0,.8-3c.1-1.3-.2-2.6.1-3.9s.8-.6.9-1.1a3.8,3.8,0,0,0,.1-1.2c-4.7,2.5-9.2,5.3-12.2,9.1s-4.5,6.9-8.1,9.8-8.9,8.5-14.3,11.7-12.6,8.7-16.8,14.6a26.5,26.5,0,0,1-13.1,10.3c-1.4.5-3.1.5-4.3,1.3s-1.5,1.7-1.4,3.8,2.2,6.3,1.6,8.7-2.4,2.8-4.7,3.8-7.5,2.2-11,3.5A167,167,0,0,1-62.5,431c-2.5.5-3.9,1.6-6.1,2.4s-3.3.5-4.7,1.3c-3.3,1.9-6.1,7.3-8.3,9.9s-4.3,6.4-6.4,10.1a43.5,43.5,0,0,1-2.8,4.3c-1.2,1.6-2.7,2.9-3.6,4.6s-1.6,3.9-2.6,5.7-3,5-5.5,6.5-6.2,2.6-8.9,4.8c-4.2,3.6-9.8,3.7-15.1,5.7a14.7,14.7,0,0,0-3.9,2.4c-2,1.4-4.2,2.2-6.3,3.4-6.8,3.7-12.8,8.6-20.3,11.6a78.9,78.9,0,0,1-16.6,4.9c-3.4.5-6.9.1-10.3.2s-4.2.8-6.8,1.2a37.2,37.2,0,0,1-5.5-.1l.8,1.5c4.6,8.5,12.5,15.9,20.5,22.7,13.9,11.6,31.6,20.5,49.5,27.9a425.1,425.1,0,0,0,53.6,16.1q24.4,6.2,49.5,10.4c23.8,4.4,47.8,7.9,71.9,10.8,5.2,2.9,10.5,5.5,15.9,8.1A385.5,385.5,0,0,0,119,625.6q24.4,7.1,49.4,11.9a1093.6,1093.6,0,0,0,109.3,16.9c32.8,3.5,65.7,4.8,98.7,5.4,23.6.4,47.2.3,70.8.8,19.1.4,38.1.2,57.3-.8q12.3-.6,24.6-1.7c4.8,1.9,9.5,4.1,14.4,5.7,25,8.2,50.5,11.7,76.6,13.7,57.8,4.3,115.7,2.9,173.6,2.5,112.6-.9,225.7-9.3,335.7-34.4,14.9-3.4,29.8-7.1,44.4-11.5,31.2,8,63.1,13.8,94.9,18.5,47.5,7.1,95.3,10.5,143.3,11.4,49.8.9,99.9,2.6,149.6-1.4,24.8-2,48.7-5,71.9-14.5l28.1-11.5c9.1-3.7,16.7-14.2,23.9-20.7h-.1c-7.2-3.2-14.5-5.9-21.3-9.8l-2-1.3c3-.6,6-1.2,9-2q19.5,2.9,39.1,5.1c45.8,5.4,91.7,7.7,137.8,8.3s90.5,1.8,135.7-1.1c23.1-1.5,46-3.5,68.2-10.6,9.2-2.9,17.8-7.2,27.1-9.5s17.9-10.9,26.2-17.1Zm-1245-83.2h-1.6l2.1-2.8C860.2,492.7,860,493.7,859.8,494.6Zm817,125.7-4.9,3.1c-1.3.7-11.7,5.6-11.8,3.4C1660.2,628.5,1669.6,624,1676.8,620.2ZM2092,583.8c-1.2.5-11.3,4.4-11.4,2.7.1,1.4,8.3-1.8,15.1-4.7Z" fill="#735b54"/></svg>