<svg id="front2" xmlns="http://www.w3.org/2000/svg" width="1920" height="1080" viewBox="0 0 1920 1080"><title>footer-5</title><path d="M180.69,799.76c.07.18.14.1-.2-.64v0l0,.14A5,5,0,0,0,180.69,799.76Z" fill="#1a0e0e"/><path d="M785.49,776.62l.59,0A1.2,1.2,0,0,1,785.49,776.62Z" fill="#1a0e0e"/><path d="M505.45,997l-9.26.07a29.85,29.85,0,0,0,5.42.78c1.44.08,3.6.79,5,.47A3.92,3.92,0,0,1,505.45,997Z" fill="#06070a"/><path d="M466.58,997.5a22.3,22.3,0,0,1,2.55.3,4.29,4.29,0,0,1,1.43.45c-.19-.25-.37-.54-.55-.82Z" fill="#06070a"/><path d="M382.66,1001.1l3.47-1.45-4.94.13A6.29,6.29,0,0,0,382.66,1001.1Z" fill="#06070a"/><path d="M405.69,999.7a10.8,10.8,0,0,0,2.69.16c.17,1,.25,2,.46,3,1.09.25,3.21-2.31,4.45-4l-8.88.25A3.9,3.9,0,0,0,405.69,999.7Z" fill="#06070a"/><path d="M397.52,999.34c.75.32,1.52.59,2.3.84,1,.33,2.5,1.25,3.58,1.28a4.91,4.91,0,0,1-.86-2.26Z" fill="#06070a"/><path d="M25.09,996c.13.2.28.39.43.58-.13-.22-.24-.44-.36-.65A.46.46,0,0,0,25.09,996Z" fill="#06070a"/><path d="M1965.48,814.42c-1.2-23.47-3.29-46.88-10.25-69.43-3-9.84-5.77-19.72-9.07-29.52-2-6-3.66-17.49-10.21-20.49-2.39-1.1-5.22-.85-7.77-.72-7.74.4-15.54.06-23.25.66-3.92.3-7.9,1.13-11.85,1.21-16.56.3-32.84,5.41-49.43,6-9,.31-18,1.17-27,1.57-14.32.63-27.83,5.56-41.86,7.88-13,2.15-26.09,3.44-39.11,5.92-17.72,3.36-36.06,5.26-54,6.75-31.19,2.6-61.78,6.81-92.55,12a71.8,71.8,0,0,0-2.8-9.43c-.51-1.45-1-2.83-1.37-4.12-.2-.65-.36-1.28-.51-1.89s-.27-1.33-.41-2a66.13,66.13,0,0,1-.57-17.11,167.27,167.27,0,0,1,2.67-18l.45-2.36.42-2.39.76-4.67.38-2.27.16-.92c0-.24.12-.53.21-.83.35-1.25.92-2.69,1.46-4.45l.75-2.56a38.75,38.75,0,0,1,2.66,4.07c1.51-.26,2.8-5.82,3.06-7.08s1.08-5.94-.78-6.51c1.27-.47,10-2.24,12-1.43-1.56-1.43-2.71-3.45-4.35-4.86-.91-.78-4.25-3.76-5.61-3,.6-.34,1.28-.37,1.93-.75a10.78,10.78,0,0,0,2.67-2.39l.15-.19a15.19,15.19,0,0,0,2.3.85,19.79,19.79,0,0,0,4.19.59,2.45,2.45,0,0,0,.92.66,16,16,0,0,0,7.54,1.53c2.29-.2,5.53-1.67,6.27-4.1.19,2.22,1.74,4.31,2,6.61a26.69,26.69,0,0,1-.6,8.41c1.35-.73,2.91-.52,4.22-1.5a12.42,12.42,0,0,0,2.6-2.81,19.33,19.33,0,0,0,1.93-3.92,12,12,0,0,0,.5-3.09c.14.12.27.23.38.31a30.45,30.45,0,0,1,3.34,3.43c1.92,2,5.26,5.23,5.47,8.2,1-2.51,2.33-4.89,2.24-7.66a13.53,13.53,0,0,0-.67-3.84,5.08,5.08,0,0,0-.6-.95c1.38,1.18,5.24,1.5,6.21,1.46,2.14-.08,5.68,0,7.57-1.15a3.39,3.39,0,0,0,1-.78,4.86,4.86,0,0,0,1.78-.82,13,13,0,0,0,2.67-3,20.3,20.3,0,0,0,1.95-4.15h0c.44-.25.86-.53,1.29-.8,0,.17,0,.33,0,.45a28.15,28.15,0,0,1-.64,4.38c-.36,2.51-.88,6.79-2.94,8.62,2.38-.7,4.89-1,6.88-2.67a12.51,12.51,0,0,0,2.44-2.65,4.72,4.72,0,0,0,.36-1c-.09,1.68,1.84,4.69,2.41,5.38,1.27,1.53,3.22,4.15,5.1,4.91,1.22.49,1.65.44,2.33-.6s1.32-2,1.95-3c1-1.59,2.51-3.64,2.39-5.65.71,2.1,4.11,4,5.72,4.6a21.14,21.14,0,0,0,4.48,1.15c1.09.17,2.67.87,3.74.73-1.47-1-3.23-8.89-1.14-9.19,1-.15,3.86,3.46,4.45,4.18,1.36,1.67,1.59,3.65,2.29,5.57,1.45.11,3.92-4.74,4.46-5.84s2.36-5.24.78-6.19c1.28-.14,9.73.23,11.46,1.45-1.12-1.68-1.71-3.81-2.9-5.49-.66-.93-3.06-4.46-4.5-4,.63-.18,1.27,0,2-.25a10.26,10.26,0,0,0,3-1.59c1.18-.88,3.15-2.77,2.55-4.42-.47-1.3-3.19-3-4.35-3.55a17.13,17.13,0,0,0-3.24-1.3,16.39,16.39,0,0,1-1.73-.3c-1-.74-.27-3.82-.45-5A25,25,0,0,0,1712,607c-.16-.35-.75-1.89-1.33-1.84-.28,0-1.55,1.78-1.74,2.06a15.11,15.11,0,0,0-1.93,5.59c-.86-.57-1.08-2.69-1.47-3.58a14.83,14.83,0,0,0-2.23-3.45,16,16,0,0,0-1.16-1.25A49.48,49.48,0,0,1,1707,606c1.08-1.26-1.69-6.79-2.33-8s-3.2-5.7-5.13-4.89c.74-1.26,6.77-8.74,9.06-9.5-2.29-.11-4.64-1-7-1.05-1.3,0-6.14-.21-6.72,1.4.26-.7.81-1.2,1.09-2a11.67,11.67,0,0,0,.58-3.83c0-1.67-.41-4.75-2.32-5.31-1.5-.44-4.86.92-6.19,1.58a19.47,19.47,0,0,0-3.38,2.08,18.63,18.63,0,0,1-1.44,1.38c-1.35.41-3.67-2.33-4.88-3l-1-.5c-.85-1.17-1.86-2.08-2.81-1.77.82-1.2,7.36-8.17,9.69-8.76-2.26-.28-4.53-1.34-6.85-1.56-1.28-.12-6.08-.66-6.77.89.31-.67.9-1.13,1.23-1.87a11.6,11.6,0,0,0,.86-3.76c.12-1.66-.06-4.74-1.91-5.44-1.36-.51-4.42.41-5.94,1a3,3,0,0,0-.11-2.68c-.88-1.28-4.31-2.34-5.74-2.67a19.31,19.31,0,0,0-3.9-.52,18.47,18.47,0,0,1-2,.15c-1.3-.53-1.35-4.09-1.89-5.34a28.24,28.24,0,0,0-3.75-6.43c-.27-.34-1.35-1.85-2-1.64a11.46,11.46,0,0,0-1.32,2.74,17,17,0,0,0-.55,6.64c-1.1-.38-1.93-2.64-2.6-3.51a16.72,16.72,0,0,0-3.4-3.15,13.46,13.46,0,0,0-8.8-2.89c3,3.14,4.92,9,3.64,13.31-2.65-1.43-5.59-2.14-8-4-1.17-.91-2-3.36-3.37-2.4-1.16.82-2,2.62-2.62,4.25-.88-1.55-2.26-3.45-3.49-3,.72-1.08,6.46-7.4,8.53-8-2-.22-4.06-1.14-6.13-1.3-1.15-.09-5.43-.5-6,.89.27-.6.78-1,1.07-1.68a10.36,10.36,0,0,0,.71-3.37c.08-1.48-.11-4.23-1.78-4.83-1.31-.47-4.35.56-5.57,1.08a17.29,17.29,0,0,0-3.1,1.67,16.52,16.52,0,0,1-1.35,1.15c-1.22.3-3.13-2.26-4.17-2.88a25.28,25.28,0,0,0-6.1-2.7c-.37-.1-1.95-.63-2.29-.16a10.25,10.25,0,0,0,.48,2.68,15.25,15.25,0,0,0,3.09,5.1c-1,.3-2.79-.9-3.73-1.17a15,15,0,0,0-4.12-.5,12.37,12.37,0,0,0-7.26,2.05c-.81-1-1.56-2.47-2.14-3a27.7,27.7,0,0,0-5.8-4.45c-.37-.21-1.91-1.18-2.4-.76a11.24,11.24,0,0,0-.18,3,16.71,16.71,0,0,0,2,6.23c-1.14.06-2.73-1.68-3.67-2.21a16.4,16.4,0,0,0-4.26-1.59,13.2,13.2,0,0,0-9.06.65c3.91,1.73,7.83,6.38,8.26,10.73-2.94-.31-5.87.14-8.76-.68-1.08-.3-2.32-1.5-3.23-1.41a12.15,12.15,0,0,0,1.23-3c.43-1.58.85-4.59-.81-5.62-1.31-.81-4.83-.4-6.25-.11a19.08,19.08,0,0,0-3.73,1.09,18.23,18.23,0,0,1-1.72.93c-1.39,0-2.86-3.16-3.84-4.07a27.89,27.89,0,0,0-6-4.31c-.38-.2-2-1.13-2.44-.69a11.33,11.33,0,0,0-.1,3,16.83,16.83,0,0,0,2.16,6.22c-1.15.09-2.8-1.61-3.76-2.12a16.52,16.52,0,0,0-4.33-1.48,13.3,13.3,0,0,0-9.1.91c4,1.63,8.06,6.2,8.62,10.57-2.6-.2-5.17.18-7.74-.22l0,0c-1.1-.82-.27-4.2-.47-5.51a27.58,27.58,0,0,0-2-7c-.17-.39-.82-2.08-1.46-2-.31,0-1.71,1.95-1.92,2.26a16.64,16.64,0,0,0-2.15,6.14c-.95-.63-1.18-3-1.6-4a16.33,16.33,0,0,0-2.44-3.81,13.15,13.15,0,0,0-7.6-4.89c2.08,3.71,2.43,9.76.17,13.48-2.16-2-4.76-3.4-6.57-5.78-.88-1.15-1.07-3.67-2.59-3.1-1.91.72-3.62,3.68-4.88,5.13a15.76,15.76,0,0,0-2.11,2.84c-.46.85-.72,2.46-1.4,3.13-.3-1.29.2-3,.12-4.33a22.09,22.09,0,0,0-.62-3.86c-.36-1.5-1.55-5.4-3.47-5.43-1.57,0-3.92,2.88-5,3.85a10.31,10.31,0,0,0-2.1,2.75,7.48,7.48,0,0,0-.37,1,1.21,1.21,0,0,0-.77,0c.69-1.16,6.3-8.05,8.42-8.74-2.12-.11-4.28-1-6.45-1-1.2,0-5.68-.22-6.22,1.26.25-.64.76-1.1,1-1.81a10.79,10.79,0,0,0,.55-3.54c0-1.54-.36-4.39-2.12-4.92-1.39-.42-4.5.83-5.73,1.43a18,18,0,0,0-3.13,1.91,17.22,17.22,0,0,1-1.34,1.27c-1.25.38-3.38-2.17-4.5-2.76a26.33,26.33,0,0,0-6.49-2.46c-.4-.09-2.06-.55-2.39,0a10.68,10.68,0,0,0,.65,2.76,15.88,15.88,0,0,0,3.5,5.14c-1,.37-2.95-.78-3.94-1a15.59,15.59,0,0,0-4.31-.29,12.55,12.55,0,0,0-8.07,3.07c4,.51,8.87,3.67,10.45,7.51-2.76.52-5.31,1.73-8.16,1.77-1.1,0-2.64-.8-3.42-.36,0-.07,0-.14,0-.21,0-.25-.42-1.85-.67-1.94-.52-.2-1.76.68-2.06.88a23.71,23.71,0,0,0-4.54,3.85c-.7.76-1.41,3.11-2.67,3.32-.21,0-1.43-.28-1.73-.31a23.83,23.83,0,0,0-3.58-.07,23.07,23.07,0,0,0-4.36.63l0,0c-1.46-.65-2.25,1.29-3.43,2.06-2.46,1.61-5.51,2.34-8.23,3.61-1.51-3.19.25-7.84,3.29-10.44a17.94,17.94,0,0,0-9.11,2.79,17,17,0,0,0-3.44,2.64c-.67.71-1.45,2.49-2.59,2.86a9.69,9.69,0,0,0-.84-5.06c-.15-.27-1.17-2-1.5-2-.66-.12-1.73,1.11-2,1.39a21.73,21.73,0,0,0-3.68,5.18c-.51,1-.42,3.72-1.76,4.21-.22.08-1.72,0-2.08,0a27.48,27.48,0,0,0-4.07.65c-1.49.34-5,1.38-5.91,2.42-1.11,1.33.7,3.23,1.85,4.14a11.51,11.51,0,0,0,3.09,1.79c.74.27,1.52.25,2.2.49-1.56-.57-5.21,2.11-6.21,2.81-1.8,1.27-3,3-4.72,4.29,2.31-.8,12.17.09,13.62.39-2.07.58-1,4.44-.64,5.41a24,24,0,0,0,1.26,3c-.34.09-.68.19-1,.3-1,.33-2.78,1.5-3.9,1.39a11.61,11.61,0,0,0,2.74-4.41c.06-.27.41-2,.2-2.17-.43-.33-2.07.28-2.47.41a32.41,32.41,0,0,0-6.29,2.89c-1.05.62-2.82,2.87-4.18,2.79-.22,0-1.31-.63-1.6-.74a22.61,22.61,0,0,0-3.56-.93c-1.37-.26-4.79-.69-6.16-.16-1.74.68-1.62,2.88-1.36,4a6.61,6.61,0,0,0,1.17,2.57c.39.49,1,.75,1.36,1.2-.81-1-5.41-.16-6.64,0-2.23.38-4.33,1.36-6.49,1.79,2.31.18,9.28,4.45,10.18,5.22-2-.27-3.72,3.26-4.11,4.17-.09.21-.25.6-.43,1.06a25.62,25.62,0,0,0-3.78,4.86c-.64,1.06-.78,4.05-2.28,4.53-.24.08-1.87-.1-2.26-.08a30.23,30.23,0,0,0-4.48.53c-1.65.31-5.6,1.28-6.64,2.38-1.31,1.4.49,3.56,1.66,4.61a11.93,11.93,0,0,0,3.21,2.1c.78.33,1.63.35,2.35.64-1.65-.69-5.85,2.07-7,2.79-2.06,1.3-3.53,3.15-5.5,4.47,2.58-.77,13.23.65,14.77,1-2.3.54-1.43,4.81-1.15,5.88.11.43.39,1.42.79,2.5l-.12.06a23.64,23.64,0,0,0-4.59,3.1c-.74.63-1.71,2.68-2.86,2.77-.19,0-1.22-.36-1.49-.41a20.73,20.73,0,0,0-3.16-.34c-1.2,0-4.13,0-5.15.6-1.29.76-.72,2.54-.24,3.45a6.41,6.41,0,0,0,1.54,2c.43.35,1,.5,1.39.82-.9-.74-4.53.5-5.51.82-1.77.58-3.29,1.62-5,2.22,2-.13,8.68,2.54,9.6,3.05-1.7,0-2.37,3.1-2.5,3.88s-.65,4.5.53,4.93c1.51-.89,2.68-2,4.57-2.48.82-.22,4.83-1.36,5.55-.93,1.47.89-3.84,4.88-5.49,5a17.75,17.75,0,0,0,3.26.85l1.22.33,0,.05c-.72,1-1.15,3.88-2.64,4.26-.24.06-1.78-.19-2.16-.2a29.29,29.29,0,0,0-4.36.27c-1.62.21-5.51.94-6.61,1.95-1.4,1.28.12,3.47,1.14,4.55a10.76,10.76,0,0,0,2.88,2.2c.72.36,1.53.42,2.2.75-1.51-.76-5.82,1.69-7,2.32-2.11,1.15-3.7,2.86-5.72,4,2.55-.61,12.64,1.33,14.09,1.8-2.26.4-1.85,4.58-1.69,5.63s1,6,2.79,6.3c1.64-1.5,2.74-3.17,5-4.27,1-.47,5.86-2.87,7-2.47,2.33.82-3,7.23-5.21,7.74,1.2.41,3.35.22,4.7.36a35.6,35.6,0,0,0,5.76.19c2.17-.12,6.94-.85,8.67-2.5-1,1.73-.07,3.93.43,5.59.32,1.05.68,2.09,1,3.13s.85,1.25,2.49,1.15c2.52-.16,5.93-1.93,8.06-2.93a21.12,21.12,0,0,0,3.33-2.13l1.47-.08a28.88,28.88,0,0,1-2.74,2.12,18.54,18.54,0,0,1,5,.17,13.66,13.66,0,0,0,4.28,2.79,8.78,8.78,0,0,0,.14,2.31c.16.81,1,4.42,2.28,4.61,1.16-1.14,1.93-2.4,3.6-3.25.72-.37,4.25-2.23,5.11-2,1.75.57-2,5.4-3.6,5.82a19.86,19.86,0,0,0,3.5.18,26.54,26.54,0,0,0,4.28,0c1.6-.13,5.12-.75,6.34-2-.68,1.3.08,2.91.5,4.13.27.77.58,1.53.87,2.3s.67.91,1.88.8c1.86-.17,4.33-1.54,5.88-2.31.7-.35,3.25-2,3.65-3.1a2.34,2.34,0,0,0,0,.7,7.34,7.34,0,0,0,1.4,2.17c1.29,1.42,3.4,2.08,5.31,3-1.3-1.56-.54-4.45-.15-6.17a14.81,14.81,0,0,1,.68-3,2.86,2.86,0,0,0,.11-.3,13.32,13.32,0,0,0,1.3,1c.69,1.23,2.22,3.69,3.39,3.67.42-.66.73-1.33,1.12-2a13.22,13.22,0,0,0,2.51.26,17.06,17.06,0,0,0,3.35-.8l.14,0a5.21,5.21,0,0,1-1.79,2.27,20.73,20.73,0,0,0,3.59-.38,27.2,27.2,0,0,0,4.33-.65c1.41-.34,4.24-1.32,5.45-2.55l.32-.06c0,1.27,1.06,2.57,1.78,3.61.5.72,1,1.42,1.57,2.14s.95.79,2.14.49c1.83-.46,3.92-2.22,5.25-3.23a10.92,10.92,0,0,0,1-1l2.78,41.76c-.08.44-.15.94-.21,1.51l0,.29,0,.35c0,.23,0,.45,0,.65,0,.41,0,.76.05,1a3.5,3.5,0,0,1,0,.93,0,0,0,0,1,0,0s0,.07,0,.07l-.13.74-.26,1.48-.25,1.36c-.08.41-.17.79-.27,1.14l-.15.51-.08.24,0,.06,0,.13-.07.26c-.19.68-.33,1.32-.45,1.91-.24,1.19-.38,2.21-.55,3.06a10.2,10.2,0,0,1-.53,2l-.07.16-.13.32-.28.72-.57,1.46c-.23.61-.46,1.24-.69,1.86-7.69.85-15.18,1.65-22.81,3-15.38,2.76-30.36,5.61-46,6.82-18.25,1.42-36.5,2.87-54.77,3.41a3.44,3.44,0,0,0-.21-.54,22.26,22.26,0,0,0-3.43-5c-.24-.26-1.21-1.41-1.72-1.2a9.32,9.32,0,0,0-1,2.29,13.16,13.16,0,0,0-.24,4.55h-.91c-.5-.63-.94-1.43-1.3-1.83a13.45,13.45,0,0,0-3-2.32,14.76,14.76,0,0,0-1.39-.74c1.57-.22,3.12,0,4.73-.1.6-1.4-3.44-5.36-4.36-6.24s-4.48-4-6-2.71c.29-1.31,3.53-9.54,5.35-10.87-2.07.58-4.42.49-6.52,1.15-1.16.36-5.53,1.63-5.59,3.19,0-.68.38-1.27.41-2a10.31,10.31,0,0,0-.58-3.48c-.48-1.44-1.72-4-3.59-3.9-1.47.06-4.06,2.22-5.06,3.19a18.37,18.37,0,0,0-2.41,2.8,17.26,17.26,0,0,1-.89,1.62c-1.09.76-3.93-.93-5.19-1.12l-1-.14c-1.09-.76-2.25-1.25-3-.7.39-1.28,4.22-9.23,6.12-10.42-2.09.43-4.42.17-6.54.67-1.18.28-5.6,1.23-5.77,2.77.09-.67.48-1.24.56-2a10.29,10.29,0,0,0-.31-3.5c-.37-1.46-1.4-4.08-3.26-4.13-1.36,0-3.82,1.66-5,2.61a2.62,2.62,0,0,0-.86-2.28c-1.15-.85-4.51-.76-5.88-.61a18.65,18.65,0,0,0-3.62.7,17.85,17.85,0,0,1-1.72.72c-1.31-.08-2.38-3.14-3.2-4.05a25.51,25.51,0,0,0-5.18-4.45c-.34-.21-1.73-1.2-2.22-.84a10.29,10.29,0,0,0-.4,2.75,15,15,0,0,0,1.41,5.9c-1.09,0-2.47-1.71-3.32-2.26a15.51,15.51,0,0,0-3.93-1.72,12.89,12.89,0,0,0-8.66.1c3.59,1.82,7,6.36,7,10.42-2.77-.46-5.59-.2-8.28-1.12-1.3-.44-2.75-2.31-3.68-1.08-.8,1-1,2.84-1.12,4.44-1.23-1.08-3-2.32-4-1.58.33-1.14,3.64-8.29,5.32-9.38-1.86.41-3.94.21-5.83.69-1,.26-5,1.17-5.12,2.55.07-.6.41-1.11.47-1.77a9.18,9.18,0,0,0-.33-3.12c-.35-1.3-1.31-3.62-3-3.65-1.3,0-3.72,1.77-4.65,2.57a16.39,16.39,0,0,0-2.28,2.36,15.39,15.39,0,0,1-.88,1.39c-1,.62-3.43-1-4.54-1.26a24.09,24.09,0,0,0-6.2-.53c-.36,0-1.92,0-2.09.54a9.07,9.07,0,0,0,1.19,2.17,13.8,13.8,0,0,0,4.21,3.5c-.81.55-2.74,0-3.66.08a14.46,14.46,0,0,0-3.81.79,11.87,11.87,0,0,0-5.88,3.91c-1-.64-2.09-1.67-2.78-2a25.9,25.9,0,0,0-6.43-2.13c-.39-.07-2-.45-2.35.05a9.92,9.92,0,0,0,.69,2.62,14.87,14.87,0,0,0,3.54,4.8c-1,.39-2.92-.64-3.9-.83a15.69,15.69,0,0,0-4.25-.12,12.74,12.74,0,0,0-7.88,3.23c4,.34,8.79,3.2,10.42,6.83-2.71.6-5.19,1.85-8,2-1,.05-2.49-.62-3.28-.27a10.86,10.86,0,0,0,.25-2.93c-.07-1.49-.56-4.22-2.33-4.62-1.39-.31-4.41,1.08-5.6,1.74a18.33,18.33,0,0,0-3,2,17.26,17.26,0,0,1-1.27,1.31c-1.22.44-3.45-1.88-4.58-2.38a26.16,26.16,0,0,0-6.54-2c-.4-.06-2.07-.4-2.37.12a9.33,9.33,0,0,0,.74,2.54l-.4.09a17.58,17.58,0,0,0-3.38,1.2c-.75.37-2.06,1.5-2.95,1.53a9.75,9.75,0,0,0,1.8-3.81c0-.22.16-1.64,0-1.75-.36-.22-1.6.45-1.9.59a26.71,26.71,0,0,0-4.7,3c-.77.61-2,2.59-3.05,2.68-.17,0-1.08-.36-1.32-.41a17.31,17.31,0,0,0-2.87-.35c-1.1-.05-3.82,0-4.84.55-1.31.73-1,2.46-.74,3.35a5.84,5.84,0,0,0,.26.64l-.57-.29a1.71,1.71,0,0,0-.09-.15.8.8,0,0,0-.78-.25l-.32-.13c0-.95-1.68-1.13-3.11-1.25a14.12,14.12,0,0,0-5.36.51,15.67,15.67,0,0,1,5.94-4.56,11.5,11.5,0,0,0-2.93-.4,7.5,7.5,0,0,1,1.2-.54c-1.15-1.39-7.54-.13-9.77,1.5-.08-.55,0-1.23-.1-1.56a5.3,5.3,0,0,0-1-2.15c-.64-.8-1.84-3.08-3.22-3.25-1.63-.2-3.71,2.18-4.53,3.24a19,19,0,0,0-4.46.74c-.6-1.21-1.23-3-2.53-3.69s-2.07,1.15-3.17,1.84c-.27.17-.54.33-.82.47,0-.6-.07-1.39-.23-1.47-.47-.24-1.92.65-2.27.85a29.87,29.87,0,0,0-4.23,2.89c-.53-2.81,1.47-6.62,4.2-8.82a16.54,16.54,0,0,0-8.06,2.5,17.73,17.73,0,0,0-3.24,2.35c-.66.63-1.54,2.22-2.55,2.55a8.7,8.7,0,0,0-.08-4.5c-.09-.24-.75-1.74-1-1.79-.54-.1-1.6,1-1.87,1.24a23.7,23.7,0,0,0-3.76,4.62c-.55.88-.82,3.32-2,3.76-.2.07-1.45,0-1.76,0a23.82,23.82,0,0,0-3.53.59,23.07,23.07,0,0,0-4.17,1.42l-.05,0c-1.56-.37-2,1.68-3,2.65-2.12,2-5,3.31-7.43,5.06-2.07-2.86-1.19-7.75,1.33-10.87a17.94,17.94,0,0,0-8.45,4.41,16.94,16.94,0,0,0-2.9,3.22c-.53.82-1,2.72-2,3.28a9.69,9.69,0,0,0-1.75-4.82c-.2-.24-1.51-1.71-1.84-1.7-.67,0-1.5,1.41-1.72,1.73a21.73,21.73,0,0,0-2.67,5.76c-.32,1.06.26,3.74-1,4.47-.2.12-1.69.3-2,.39a27.48,27.48,0,0,0-3.88,1.39c-1.4.61-4.71,2.28-5.37,3.46-.84,1.51,1.28,3,2.57,3.74a11.5,11.5,0,0,0,3.37,1.2c.78.13,1.54,0,2.26.08-1.64-.28-4.74,3-5.59,3.9a13.72,13.72,0,0,0-1.34,1.64c-7.56.22-15.15,0-22.79-.08-16.77-.09-33.21,1.45-49.83,2.38a12.06,12.06,0,0,0-.33-1.73c-.39-1.47-1.48-4.08-3.34-4.11-1.47,0-4.19,2-5.24,2.87a18.37,18.37,0,0,0-2.58,2.64c-.1.13-.31.51-.52.86l-3.49.12a13.63,13.63,0,0,0-2.09-.85l-1-.2c-1-.82-2.17-1.39-3-.88.47-1.25,4.77-9,6.74-10-2.12.3-4.42-.09-6.57.27-1.19.2-5.66.88-5.93,2.41.13-.67.55-1.21.68-1.93a10.29,10.29,0,0,0-.1-3.51c-.28-1.48-1.15-4.16-3-4.32-1.35-.12-3.91,1.42-5.16,2.3a2.62,2.62,0,0,0-.72-2.33c-1.09-.92-4.45-1-5.83-1a18.65,18.65,0,0,0-3.66.48,17.85,17.85,0,0,1-1.76.61c-1.3-.15-2.18-3.27-3-4.24a25.51,25.51,0,0,0-4.9-4.76c-.32-.23-1.65-1.3-2.17-1a10.29,10.29,0,0,0-.56,2.72,15,15,0,0,0,1,6c-1.09-.07-2.37-1.86-3.18-2.46a15.51,15.51,0,0,0-3.82-2,12.89,12.89,0,0,0-8.65-.43c3.47,2,6.57,6.77,6.4,10.83-2.74-.62-5.57-.54-8.2-1.62-1.27-.52-2.6-2.48-3.61-1.3-.86,1-1.16,2.77-1.38,4.37-1.16-1.15-2.85-2.49-3.87-1.82.4-1.12,4.13-8.05,5.88-9-1.89.29-3.95,0-5.86.33-1.06.2-5,.86-5.26,2.23.1-.6.47-1.08.58-1.74a9.18,9.18,0,0,0-.14-3.13c-.27-1.32-1.09-3.69-2.74-3.82-1.3-.1-3.82,1.54-4.8,2.28a16.39,16.39,0,0,0-2.42,2.22,15.4,15.4,0,0,1-1,1.33c-1,.55-3.36-1.23-4.45-1.53a24.09,24.09,0,0,0-6.16-.91c-.36,0-1.91-.09-2.11.41a9.07,9.07,0,0,0,1.06,2.24,13.8,13.8,0,0,0,4,3.75c-.84.5-2.74-.12-3.66-.14a14.46,14.46,0,0,0-3.85.55,11.87,11.87,0,0,0-6.1,3.55c-1-.7-2-1.79-2.65-2.16a25.91,25.91,0,0,0-6.29-2.52c-.39-.09-2-.58-2.35-.09a9.92,9.92,0,0,0,.53,2.66,14.87,14.87,0,0,0,3.24,5c-1,.33-2.87-.82-3.84-1.07a15.69,15.69,0,0,0-4.23-.38,12.74,12.74,0,0,0-8.06,2.75c3.94.58,8.58,3.73,10,7.45-2.74.43-5.29,1.53-8.1,1.5-1,0-2.45-.77-3.26-.46a10.86,10.86,0,0,0,.43-2.91c0-1.49-.3-4.24-2-4.75-1.37-.4-4.47.81-5.7,1.4a18.32,18.32,0,0,0-3.13,1.86,17.29,17.29,0,0,1-1.35,1.23c-1.25.37-3.33-2.09-4.43-2.65a26.16,26.16,0,0,0-6.41-2.36c-.39-.08-2-.52-2.37,0a10,10,0,0,0,.61,2.66,15,15,0,0,0,3.41,4.95c-1,.36-2.92-.75-3.9-1a15.82,15.82,0,0,0-4.27-.26,12.83,12.83,0,0,0-8,3,14.6,14.6,0,0,1,7.67,3.68q-3.2,0-6.39.11a24.12,24.12,0,0,0-3.24-5.32c-.25-.3-1.23-1.63-1.8-1.44a10.27,10.27,0,0,0-1.22,2.45,14,14,0,0,0-.61,4.49l-1.24,0c-.39-.64-.73-1.33-1-1.71a14.8,14.8,0,0,0-3.1-2.77,12.38,12.38,0,0,0-8-2.48,13.72,13.72,0,0,1,3.51,7.26l-8.21.35c-.75-.93-1.42-2.08-2.39-1.4a5,5,0,0,0-1.32,1.57l-8,.38c-.76-.8-1.63-1.39-2.45-1.18a3.47,3.47,0,0,0-1.63,1.38l-.43,0a8.62,8.62,0,0,1,2-2.45c-1.95.41-4.11.19-6.08.66-1,.24-4.46,1-5.2,2.22h-.06a8.21,8.21,0,0,0,.42-1.46,9.54,9.54,0,0,0-.32-3.25c-.36-1.36-1.34-3.78-3.07-3.82-1.36,0-3.88,1.81-4.86,2.63a17,17,0,0,0-2.4,2.43,16,16,0,0,1-.92,1.44c-1,.63-3.57-1.1-4.72-1.35a25.17,25.17,0,0,0-6.46-.61c-.38,0-2,0-2.18.54a9.47,9.47,0,0,0,1.23,2.27,11,11,0,0,0,1.92,2l-2,.06c-15.39.43-30.72-1.09-46.06-1.54,1.39-1.28,3.26-3.57,2.44-5.4-.7-1.57-4.22-3.4-5.71-4a21.05,21.05,0,0,0-4.14-1.34,21.56,21.56,0,0,1-2.18-.23c-1.3-.83-.66-4.71-1-6.17a31.45,31.45,0,0,0-2.8-7.74c-.23-.43-1.11-2.28-1.83-2.18-.35,0-1.76,2.35-2,2.71a19,19,0,0,0-1.92,7.11c-1.12-.63-1.57-3.25-2.13-4.33a18.48,18.48,0,0,0-3.08-4.09,14.86,14.86,0,0,0-9-4.88c2.65,4,3.55,10.8,1.32,15.19-2.6-2.09-5.66-3.44-7.91-6-1.08-1.22-1.51-4.06-3.18-3.28l0,0a17.83,17.83,0,0,0-4.45-1.33,18.25,18.25,0,0,0-3.77-.26c-.33,0-1.67.33-1.88.26-1.28-.43-1.54-3.84-2.13-5a27.13,27.13,0,0,0-4-5.94c-.28-.31-1.41-1.69-2-1.45a11.3,11.3,0,0,0-1.1,2.7,16.35,16.35,0,0,0-.12,6.39c-1.08-.3-2-2.41-2.71-3.2a16.26,16.26,0,0,0-3.45-2.8,12.92,12.92,0,0,0-8.6-2.24c2.92,2.67,5,7.75,4.42,11.82a25.75,25.75,0,0,0-4.49-3.41c-.37-.22-1.91-1.25-2.42-.84a6.42,6.42,0,0,0-.25,2.12c-.3-.17-.59-.34-.87-.54-1.18-.8-2.13-3.1-3.37-2.1s-2.09,3.82-2.73,5.64a14.63,14.63,0,0,0-4.76-.33c-.87-1.37-3.08-4.41-4.81-3.87-1.47.47-2.78,3.89-3.47,5.13a10.19,10.19,0,0,0-1.12,3.21c-.09.48,0,1.44-.12,2.23l-.26-.19a30.17,30.17,0,0,0-1.79-6.66h0a3.5,3.5,0,0,0,.14-.39l0-.11v0a3,3,0,0,0-.18.43c-.22-.52-.87-2.31-1.56-2.29-.35,0-2,2.15-2.25,2.5a17.53,17.53,0,0,0-2.19,4.95,5.16,5.16,0,0,0-1.34.38c-.33-1-.51-2.29-.78-3a18.5,18.5,0,0,0-2.64-4.39,14.78,14.78,0,0,0-8.44-5.78c2.24,4.26,2.43,11.11-.24,15.24-2.38-2.34-5.27-4-7.25-6.75-1-1.32-1.09-4.18-2.83-3.58l-.06,0a17.32,17.32,0,0,0-4.28-1.78,18.15,18.15,0,0,0-3.72-.66,16.17,16.17,0,0,1-1.9.08c-1.22-.56-1.14-4-1.6-5.2a27.09,27.09,0,0,0-3.35-6.31c-.24-.34-1.22-1.83-1.82-1.65a10.59,10.59,0,0,0-1.38,2.57,16.38,16.38,0,0,0-.78,6.35c-1-.42-1.75-2.61-2.36-3.47a16.16,16.16,0,0,0-3.14-3.15,12.9,12.9,0,0,0-8.32-3.11c2.61,2.95,4.18,8.23,3.17,12.21a26.22,26.22,0,0,0-4.11-3.86c-.35-.25-1.78-1.43-2.32-1.08a6.34,6.34,0,0,0-.47,2.08c-.28-.19-.55-.4-.82-.62-1.08-.92-1.79-3.31-3.13-2.44-1.5,1-2.47,3.59-3.3,5.33a14.91,14.91,0,0,0-4.7-.83c-.72-1.44-2.6-4.69-4.38-4.33-1.52.31-3.17,3.58-4,4.74a10.11,10.11,0,0,0-1.45,3.08c-.13.47-.17,1.43-.34,2.2-2.16-2.18-8.86-3.65-10.32-1.63a5.8,5.8,0,0,1,1.2.71,10.45,10.45,0,0,0-3.22.7,14.61,14.61,0,0,1,5.7,6.12,11.38,11.38,0,0,0-5.71-.45c-1.68.27-3.73.63-3.58,2.22a.93.93,0,0,0-1.22.29,7.17,7.17,0,0,0-1,3.45c-1-.21-1.9-.24-2.29.23.39-.46,1-.69,1.38-1.19A9.35,9.35,0,0,0,394.5,775c.46-1.27,1-3.73-.28-4.69-1-.76-3.95-.66-5.15-.53a16.15,16.15,0,0,0-3.15.64,16,16,0,0,1-1.48.65c-1.15-.06-2.14-2.8-2.88-3.62a23,23,0,0,0-4.62-4c-.3-.19-1.54-1.07-2-.74a9.08,9.08,0,0,0-.29,2.46,13.93,13.93,0,0,0,1.35,5.28c-.95,0-2.2-1.53-2.95-2a13.35,13.35,0,0,0-3.46-1.52,10.92,10.92,0,0,0-7.56.12c3.16,1.61,6.21,5.66,6.36,9.3-2.43-.4-4.88-.16-7.25-1-1.14-.4-2.45-2.06-3.24-1-1,1.39-.81,4.24-1,5.83a13.37,13.37,0,0,0-.16,3c.08.8.64,2,.48,2.83-.8-.76-1.25-2.18-1.92-3.07a18.68,18.68,0,0,0-2.22-2.4c-1-.87-3.58-3-4.93-2.17-1.1.72-1.39,3.82-1.68,5a8.52,8.52,0,0,0-.18,2.89c0,.41.3,1.18.4,1.85-2.38-1.06-8.15-.14-8.68,1.92a2.43,2.43,0,0,1,.38,0c-.54.22-1,.41-1.37.53a10.74,10.74,0,0,0-3.24,1.76c-.42.32-1.07,1.13-1.72,1.69-.47-3.28-5.37-8.87-8-8,1.65,2.72,1.4,8.36-.23,11.06-1.72-2.82-3-4.61-6.08-6.19-1.91-1-4.32-2.2-4.89.57a17.26,17.26,0,0,0,.23,8.33c.77,2.36,3.11,5.42,5.85,5.6-2.29.74-4.11,2.89-6.48,3.72a28.72,28.72,0,0,1-9,1.42c1.1,1.24,1.26,2.94,2.61,4.08a13.29,13.29,0,0,0,3.6,2.06,20.53,20.53,0,0,0,4.15,1l-1,0-8.11.34-3.89.14c-38.86,1.45-81.13,2.25-107.33,8.41-6.56,1.55-15.34,3.1-25.32,4.71a19,19,0,0,0,1.53-6.26c.2-2.81-2.45-2.3-4.55-1.87-3.38.7-5.11,2.08-7.53,4.33-.83-3,.44-8.54,2.76-10.72-2.26-1.48-8.49,2.58-9.83,5.61-.47-.71-.87-1.67-1.19-2.09a11.15,11.15,0,0,0-2.65-2.57c-.31-.21-.72-.52-1.18-.88l.38.07c0-2.12-5.26-4.56-7.85-4.19.28-.61.75-1.28.9-1.67a8.84,8.84,0,0,0,.6-2.83c0-1.21.6-4.27-.28-5.26-1.06-1.21-4.18.17-5.33.76a18,18,0,0,0-2.78,1.71c-.88.68-1.7,1.92-2.68,2.44.06-.81.93-1.85,1.22-2.6a13,13,0,0,0,.65-2.89c.24-1.59,1.18-4.28.6-5.89-.47-1.28-2.17,0-3.38,0-2.5.14-4.8-.75-7.25-1,1.13-3.46,5.16-6.54,8.64-7.24a11,11,0,0,0-7.24-2.16,13.59,13.59,0,0,0-3.75.53c-.86.27-2.46,1.4-3.38,1.15a14.05,14.05,0,0,0,2.72-4.72,9.66,9.66,0,0,0,.39-2.45c-.33-.43-1.75.08-2.09.18a23.14,23.14,0,0,0-5.52,2.58c-.93.58-2.63,2.95-3.75,2.7a14.12,14.12,0,0,1-1.25-1,16.1,16.1,0,0,0-2.86-1.47c-1.12-.45-3.91-1.33-5.1-.88-1.51.58-1.63,3.09-1.53,4.44a9.48,9.48,0,0,0,.71,3.06c.27.6.75,1,1,1.51-.25-.54-1.14-.77-2.14-.83a7.2,7.2,0,0,0,0-3.59.92.92,0,0,0-1.1-.61c.57-1.49-1.3-2.39-2.85-3.1a11.28,11.28,0,0,0-5.62-1.11,14.52,14.52,0,0,1,7.15-4.35,10.28,10.28,0,0,0-2.92-1.55,5.5,5.5,0,0,1,1.35-.35c-.86-2.35-7.71-2.74-10.38-1.22,0-.79.27-1.72.26-2.21a10.13,10.13,0,0,0-.56-3.36c-.47-1.34-1.17-4.93-2.55-5.63-1.62-.84-4.31,1.79-5.39,3a14.81,14.81,0,0,0-4.75-.48c-.33-1.9-.56-4.68-1.74-6s-2.38.91-3.67,1.5c-.32.15-.64.27-1,.39a6.4,6.4,0,0,0,.11-2.13c-.43-.49-2.12.26-2.52.41a26.87,26.87,0,0,0-5,2.61c.11-4.11,3-8.77,6.35-10.91a13,13,0,0,0-8.85.76,15.75,15.75,0,0,0-3.87,2.19c-.82.66-2.09,2.58-3.21,2.7a16.32,16.32,0,0,0,1-6.33,11,11,0,0,0-.63-2.85c-.54-.33-1.88.85-2.21,1.1A27.14,27.14,0,0,0,37.69,755c-.78,1-1.61,4.36-2.94,4.57a6.71,6.71,0,0,1-1.3-.41c0-.06,0-.12,0-.18a75.7,75.7,0,0,0-2.06-14.55c-1-4.27-.6-8.69-1.42-12.9a65.91,65.91,0,0,1-1.52-10.92,27.61,27.61,0,0,1,2.25-11.69c1.6-3.92,3.83-2.45,7.7-1.28a6.07,6.07,0,0,1-1.66-3.11c1.41-1,3.15-2,3.81-1.82,2.15.66-1.49,7.76-3.28,8.47,1.11.32,2.94-.05,4.14,0a26,26,0,0,0,5-.29c1.86-.31,5.88-1.47,7.11-3.32-.59,1.88.56,4.08,1.26,5.77.44,1.06.93,2.11,1.39,3.17s.93,1.23,2.34,1c2.16-.38,4.83-2.51,6.52-3.72.76-.55,3.49-3,3.78-4.65a4,4,0,0,0,.16,1A11.49,11.49,0,0,0,71,713c1.74,1.89,4.33,2.66,6.7,3.75-1.78-2.09-1.36-6.22-1.18-8.66,0-.08,0-.15,0-.23a5.46,5.46,0,0,0,1.86-1c-1.15,1.83-.59,4.39-.36,6.31.15,1.21.35,2.41.53,3.62s.61,1.49,2.14,1.55c2.34.09,5.71-1.53,7.81-2.42.94-.4,4.48-2.39,5.24-4a4.31,4.31,0,0,0-.12,1.06,11.58,11.58,0,0,0,1.22,3.52c1.25,2.37,3.71,3.75,5.85,5.43-1.23-2.58.39-6.81,1.28-9.31a27.06,27.06,0,0,1,1.54-4.37c.06-.12.14-.27.21-.43a11.2,11.2,0,0,0,2,2.37,20.18,20.18,0,0,0,3.74,2.42,14.2,14.2,0,0,0,3.85,1.19c1.72.23,3.12-.64,4.77-.63a24.28,24.28,0,0,1-4.64-6.78c-.86-2-.39-4.49-1.28-6.43,1.88,1.71,5.7,1.49,8,.64a17.44,17.44,0,0,0,6.48-4.65c1.75-2-.7-2.87-2.67-3.56-3.15-1.12-5.34-.94-8.58-.45,1-2.64,5.16-6.05,8.28-6.54-1-2.18-8.37-2.2-11.18-.62,0-.75.22-1.65.2-2.11a8.67,8.67,0,0,0-.6-2.86,19,19,0,0,0,3.33,1.12,13.41,13.41,0,0,0,3.67.29c1.57-.13,2.58-1.16,4-1.47a23.8,23.8,0,0,1-5.75-5c-1.27-1.61-1.45-3.82-2.72-5.33,2.07,1.12,5.37.18,7.16-1a14.39,14.39,0,0,0,4.53-5.29c1-2-1.33-2.35-3.22-2.57-.51-.06-1-.08-1.44-.09a7.77,7.77,0,0,1,0-1,18.78,18.78,0,0,0,7.6-1.64c1.16-.5,1.39-1.15,1.17-1.84,1-.1,1.77-.63,2.74-.71a17,17,0,0,1-3.68-4.26c-.64-1.12-.65-2.5-1.11-3.65.29,0,.58-.07.87-.09a5.85,5.85,0,0,0,2,.07l.53.11a1.26,1.26,0,0,0,0-.19,7.29,7.29,0,0,0,1.76-.57,11.4,11.4,0,0,0,4-3.54c1-1.43-.71-1.88-2.09-2.22a10.64,10.64,0,0,0-5.83.25,8.47,8.47,0,0,1,5.05-4.92c-.86-1.4-5.83-.94-7.59.3-.05-.51,0-1.12,0-1.43a5.88,5.88,0,0,0-.74-2.07c-.48-.8-1.35-3-2.41-3.32s-2.73,1.37-3.46,2.3a20.57,20.57,0,0,0-2.41.83l-.83.36-.18-.42c-.49-1.13-.92-3.24-2-4.06a.75.75,0,0,0-.45-.16,8.28,8.28,0,0,0,.42-3c.15-.4.29-.77.42-1.11a19.42,19.42,0,0,1,1.18-3.09c0-.08.1-.19.16-.31A7.93,7.93,0,0,0,118,622.8a14.27,14.27,0,0,0,2.62,1.78,10.07,10.07,0,0,0,2.72.91c1.22.19,2.24-.41,3.41-.38a17.19,17.19,0,0,1-3.18-4.9c-.58-1.47-.2-3.21-.8-4.61,1.31,1.25,4,1.14,5.68.57a12.53,12.53,0,0,0,4.7-3.23c1.28-1.38-.45-2.06-1.84-2.58a11.1,11.1,0,0,0-6.1-.44,9.31,9.31,0,0,1,6-4.54c-.68-1.57-5.92-1.68-8-.6,0-.54.19-1.17.18-1.5A6.09,6.09,0,0,0,123,601c-.37-.9-.94-3.31-2-3.76-1.29-.55-3.43,1.44-4.19,2.23a15.39,15.39,0,0,0-1.74,2.13,11.71,11.71,0,0,0-.73,1.51,7,7,0,0,1-.57-.7,3,3,0,0,0,0-.47,9.3,9.3,0,0,0-.43-2.32c-.34-1.24-.46-3.51-1.49-4.5-.37-.36-.78-.25-1.2,0a9.15,9.15,0,0,1-.57-2,3.92,3.92,0,0,0-.08-.39,11.8,11.8,0,0,0,2.72.84,20.12,20.12,0,0,0,4,.13,12.9,12.9,0,0,0,3.45-.78c1.38-.56,1.93-1.77,3.13-2.46a25.68,25.68,0,0,1-7-2.83c-1.73-1.08-2.7-3-4.41-4,2.29.42,5-1.35,6.16-2.93a12.3,12.3,0,0,0,2.21-6c.21-2.13-2.06-1.73-3.86-1.39A12.82,12.82,0,0,0,110,576.6c-.67-2.3.49-6.46,2.5-8.12-1.91-1.11-7.28,2-8.47,4.29-.4-.54-.73-1.26-1-1.58a8.66,8.66,0,0,0-2.22-1.93c-.26-.16-.61-.4-1-.66l.32.05c.07-1.61-4.43-3.43-6.65-3.14.25-.47.65-1,.79-1.27a6,6,0,0,0,.55-2.15c.05-.91.57-3.24-.16-4-.89-.91-3.58.15-4.57.6a16.75,16.75,0,0,0-2.4,1.31,20.07,20.07,0,0,1-2.32,1.86c.06-.61.82-1.4,1.08-2a9.17,9.17,0,0,0,.6-2.19c.22-1.21,1.07-3.25.59-4.46-.38-1-1.86,0-2.89.05-2.14.12-4.09-.54-6.18-.74,1-2.62,4.49-5,7.48-5.52a10.1,10.1,0,0,0-6.17-1.6,13.2,13.2,0,0,0-3.21.42c-.73.21-2.12,1.07-2.9.88a10.65,10.65,0,0,0,2.39-3.58,6.42,6.42,0,0,0,.36-1.86c-.27-.32-1.5.07-1.79.15a21.5,21.5,0,0,0-4.75,2c-.81.45-2.29,2.25-3.24,2.06a12.31,12.31,0,0,1-1.06-.77,13.84,13.84,0,0,0-2.43-1.1c-.95-.33-3.32-1-4.34-.64-1.3.44-1.44,2.35-1.37,3.37a6.37,6.37,0,0,0,.57,2.31c.22.45.63.73.84,1.14-.21-.41-1-.58-1.82-.62a4.86,4.86,0,0,0,0-2.71.8.8,0,0,0-.94-.46c.51-1.13-1.08-1.8-2.39-2.33a10.62,10.62,0,0,0-4.79-.81,13.18,13.18,0,0,1,6.17-3.33,9.25,9.25,0,0,0-2.47-1.16,5.74,5.74,0,0,1,1.16-.27c-.7-1.77-6.56-2-8.85-.87,0-.6.25-1.3.25-1.67a6.79,6.79,0,0,0-.43-2.54c-.39-1-.94-3.73-2.11-4.25-1.37-.62-3.7,1.37-4.65,2.29a14.12,14.12,0,0,0-4-.34c-.26-1.44-.42-3.54-1.4-4.55s-2.05.7-3.16,1.15c-.27.11-.54.21-.82.3a4.28,4.28,0,0,0,.12-1.61c-.36-.37-1.81.21-2.16.32a24.4,24.4,0,0,0-4.31,2c.15-3.11,2.71-6.65,5.58-8.28a12.43,12.43,0,0,0-7.58.61,14.69,14.69,0,0,0-3.34,1.67c-.71.5-1.82,2-2.78,2.06a11.22,11.22,0,0,0,.9-4.79,7.4,7.4,0,0,0-.5-2.15c-.45-.25-1.61.65-1.9.84a22.61,22.61,0,0,0-4.28,3.94c-.67.79-1.43,3.31-2.57,3.47-.19,0-1.27-.38-1.54-.43A17.71,17.71,0,0,0,1.06,525a17.27,17.27,0,0,0-3.94.45l0,0c-1.28-.78-2.09,1.28-3.19,2.06-2.29,1.61-5.07,2.25-7.58,3.48-1.18-3.55.64-8.51,3.51-11.18a14.06,14.06,0,0,0-8.32,2.54A15.7,15.7,0,0,0-21.74,525c-.64.73-1.43,2.63-2.48,3a12.6,12.6,0,0,0-.48-5.55,8.92,8.92,0,0,0-1.24-2.27c-.59-.16-1.61,1.11-1.87,1.4A23.82,23.82,0,0,0-31.38,527c-.51,1-.58,4-1.81,4.49-.2.08-1.54-.11-1.87-.1a20.64,20.64,0,0,0-3.69.49c-1.36.29-4.6,1.23-5.44,2.31-1.06,1.38.46,3.55,1.44,4.61a10.26,10.26,0,0,0,2.68,2.12c.65.34,1.35.36,1.95.66-1.37-.7-4.79,2-5.72,2.72-1.68,1.28-2.86,3.11-4.46,4.41,2.11-.75,10.92.76,12.2,1.16-1.89.52-1.11,4.78-.86,5.85A29.77,29.77,0,0,0-36,559c-.31.08-.62.17-.92.27-.91.31-2.58,1.48-3.58,1.3a13.11,13.11,0,0,0,2.7-4.65,8,8,0,0,0,.3-2.35c-.37-.39-1.87.19-2.23.31a26.67,26.67,0,0,0-5.8,2.8c-1,.62-2.68,3-3.9,2.81a15.81,15.81,0,0,1-1.4-.89A17.74,17.74,0,0,0-54,557.41c-1.22-.36-4.26-1-5.52-.51-1.59.64-1.61,3-1.43,4.31a8.08,8.08,0,0,0,.91,2.86c.32.55.85.87,1.15,1.37-.67-1.16-4.85-.47-6-.31-2,.3-4,1.25-5.92,1.59,2.06.32,8.09,5.35,8.86,6.23-1.76-.4-3.51,3.35-3.91,4.31-.09.23-.26.63-.44,1.13a27.46,27.46,0,0,0-3.65,5.08c-.63,1.11-.91,4.36-2.28,4.8-.22.07-1.67-.21-2-.21a22.55,22.55,0,0,0-4.05.33c-1.5.24-5.1,1.09-6.08,2.22-1.25,1.45.25,3.9,1.24,5.11a11,11,0,0,0,2.77,2.46c.69.4,1.44.47,2.08.83-1.44-.84-5.36,1.93-6.42,2.65-1.92,1.31-3.34,3.24-5.17,4.56,2.36-.7,11.83,1.43,13.2,1.94-2.09.47-1.54,5.15-1.35,6.33.08.47.27,1.57.57,2.76l-.11.06a21.16,21.16,0,0,0-4.29,3.12c-.7.64-1.68,2.82-2.71,2.86a14.15,14.15,0,0,1-1.32-.53,15.6,15.6,0,0,0-2.82-.55c-1.07-.12-3.71-.23-4.65.37-1.2.75-.78,2.72-.4,3.74a7.07,7.07,0,0,0,1.27,2.21c.37.41.86.59,1.2,1-.77-.85-4.09.3-5,.59-1.62.53-3,1.58-4.61,2.14,1.76,0,7.65,3.23,8.45,3.85-1.53-.08-2.29,3.24-2.45,4.09s-.83,4.86.21,5.39c1.4-.88,2.51-2,4.23-2.44.75-.2,4.41-1.22,5-.71,1.27,1-3.7,5.09-5.19,5.12a13.91,13.91,0,0,0,2.88,1.1c.36.15.72.29,1.08.42l0,.05c-.7,1-1.24,4.15-2.59,4.49-.22.05-1.59-.31-1.93-.34a21.75,21.75,0,0,0-3.93.06c-1.46.14-5,.72-6,1.76-1.33,1.32-.08,3.78.78,5a10.32,10.32,0,0,0,2.46,2.55c.63.43,1.35.54,1.93.93-1.32-.91-5.31,1.52-6.4,2.15-2,1.14-3.48,2.91-5.35,4.07,2.32-.52,11.27,2.14,12.54,2.72-2.05.32-1.9,4.88-1.82,6s.61,6.59,2.16,7c1.55-1.54,2.63-3.3,4.75-4.37.92-.46,5.41-2.81,6.41-2.31,2,1-3.12,7.69-5.09,8.14,1.06.51,3,.43,4.2.65a26.5,26.5,0,0,0,5.16.52c1.95,0,6.27-.54,7.91-2.24-1,1.83-.28,4.27.08,6.1.23,1.16.5,2.31.76,3.46s.69,1.41,2.17,1.38c2.27,0,5.42-1.78,7.39-2.75A18.58,18.58,0,0,0-58,692h1.32a26.85,26.85,0,0,1-2.57,2.16,13.81,13.81,0,0,1,4.5.45A12.55,12.55,0,0,0-51,697.87a11.56,11.56,0,0,0,0,2.53c.1.89.63,4.86,1.8,5.14,1.11-1.17,1.86-2.5,3.4-3.33.67-.36,3.93-2.19,4.69-1.85,1.54.71-2.1,5.76-3.55,6.13a14.82,14.82,0,0,0,3.13.39,19.72,19.72,0,0,0,3.84.27c1.44-.05,4.64-.54,5.8-1.83-.68,1.38-.09,3.16.23,4.52.2.85.44,1.7.66,2.55s.55,1,1.65,1c1.68-.08,4-1.44,5.4-2.2.64-.34,3-2,3.44-3.17a3.08,3.08,0,0,0,0,.77,8.47,8.47,0,0,0,1.14,2.43c1.08,1.61,2.94,2.45,4.6,3.51-1.08-1.77-.25-4.87.2-6.71a19,19,0,0,1,.77-3.2c0-.09.08-.2.12-.32a12.89,12.89,0,0,0,1.11,1.18c.55,1.37,1.8,4.14,2.85,4.18.41-.69.73-1.41,1.11-2.09a9.94,9.94,0,0,0,2.24.42c1.14.06,2-.52,3-.69l.13.06a5.51,5.51,0,0,1-1.72,2.37,15.46,15.46,0,0,0,3.24-.22,20.39,20.39,0,0,0,3.92-.47c1.28-.3,3.88-1.21,5-2.47l.29,0c-.09,1.38.82,2.86,1.41,4,.41.81.86,1.61,1.29,2.41s.81.91,1.9.65c1.67-.4,3.63-2.2,4.88-3.23a10.66,10.66,0,0,0,1-1l.26,45.57c-.09.47-.19,1-.27,1.63l0,.31,0,.38c0,.25,0,.49,0,.71,0,.44,0,.83,0,1.14a4.61,4.61,0,0,1,0,1s0,0,0,0,0,.07,0,.07l-.16.8-.31,1.59L17.05,764c-1.67.77-3.39,1.42-5,2.33-1.46-4.7.57-11.25,3.87-14.75a14.87,14.87,0,0,0-9.69,3.29,18.54,18.54,0,0,0-3.72,3.52c-.73,1-1.62,3.47-2.84,3.9A18.67,18.67,0,0,0-1,755c-.15-.4-1.16-2.9-1.49-3-.69-.22-1.87,1.46-2.16,1.84A30.87,30.87,0,0,0-8.74,761c-.58,1.38-.6,5.32-2,5.92a20,20,0,0,1-2.18-.15,21.75,21.75,0,0,0-4.31.62c-1.58.38-5.35,1.59-6.31,3-1.21,1.82.62,4.69,1.78,6.1a12.77,12.77,0,0,0,3.18,2.82c.72.42,1.48.47,2.15.81-1.69-.67-5.45,2.72-6.49,3.62-1.94,1.68-3.28,4.09-5.13,5.79,2.46-1,12.79,1.08,14.3,1.62-2.2.68-1.2,6.31-.89,7.72a45.34,45.34,0,0,0,1.21,4.41c-.36.1-.72.22-1.07.35-1,.4-3,1.95-4.16,1.69a17.44,17.44,0,0,0,3.06-6.12,11.86,11.86,0,0,0,.3-3.11c-.44-.52-2.19.24-2.61.39a29.24,29.24,0,0,0-6.73,3.65c-1.13.81-3.08,3.91-4.5,3.69a19,19,0,0,1-1.65-1.19A20.09,20.09,0,0,0-34.53,801c-1.43-.47-5-1.37-6.46-.71-1.86.84-1.82,4-1.59,5.69a11.94,11.94,0,0,0,1.13,3.79c.39.73,1,1.16,1.38,1.82-.82-1.53-5.68-.66-7-.45-2.35.37-4.6,1.62-6.89,2,2.42.44,9.57,7.13,10.49,8.3-2.06-.54-4,4.4-4.48,5.67-.11.3-.29.84-.5,1.49a35.52,35.52,0,0,0-4.16,6.69c-.71,1.47-1,5.76-2.57,6.32a20.84,20.84,0,0,1-2.37-.29,22.68,22.68,0,0,0-4.73.41c-1.75.31-5.94,1.39-7.07,2.89a3.59,3.59,0,0,0-.28,3.26,12.24,12.24,0,0,0,1.84,3.5,13.8,13.8,0,0,0,3.29,3.27c.75.5,1.55.61,2.26,1-1.81-.79-6.08,2.64-7.27,3.55-2.22,1.72-3.84,4.26-6,6,2.74-.91,13.88,2,15.49,2.66-2.44.6-1.69,6.8-1.44,8.36.1.63.35,2.07.72,3.65l-.13.08a24,24,0,0,0-4.95,4.09c-.5.52-1.11,1.83-1.8,2.76-.42.56-.86,1-1.31,1a14.69,14.69,0,0,1-1.55-.71,16.49,16.49,0,0,0-3.31-.74c-1.26-.17-4.35-.33-5.44.45-1.39,1-.85,3.59-.39,4.94A9.91,9.91,0,0,0-78,894.72c.43.54,1,.79,1.42,1.28-.91-1.13-4.78.37-5.82.75-1.88.69-3.52,2.07-5.34,2.8,2.06,0,9,4.33,10,5.14-1.79-.11-2.62,4.27-2.78,5.39s-.87,6.41.35,7.12c1.63-1.15,2.9-2.61,4.91-3.2.87-.25,5.13-1.57,5.86-.9,1.51,1.4-4.22,6.71-6,6.73.78.7,2.43,1,3.4,1.48.42.2.84.39,1.27.56,0,0,0,0,0,.08-.79,1.36-1.36,5.48-2.94,5.91A22.3,22.3,0,0,1-76,927.4a22.72,22.72,0,0,0-4.59.05c-1.7.17-5.82.92-7,2.28-1.53,1.73,0,5,1,6.63a13.6,13.6,0,0,0,2.94,3.39c.67.53,1.44.69,2.09,1.12-1.73-.84-6.05,2.12-7.25,2.91-2.27,1.49-4,3.83-6.18,5.35,2.71-.68,13.24,2.91,14.74,3.69-2.4.4-2.13,6.43-2,7.95s.85,8.72,2.68,9.28c1.78-2,3-4.34,5.47-5.73,1.06-.61,6.27-3.67,7.45-3,2.41,1.37-3.49,10.15-5.78,10.72,1.24.68,3.51.58,4.93.89a27.87,27.87,0,0,0,6,.73c2.28,0,7.33-.68,9.21-2.91a6.39,6.39,0,0,0-.52,2.48c50.79-4.55,102.88,3.12,153,9.44q36.86,4.65,73.78,7.86a21.59,21.59,0,0,0,5.67-5.16c2-2.58-.88-3.79-3.19-4.73-3.71-1.49-6.27-1.27-10.05-.65,1.15-3.48,5.91-8,9.55-8.58-1.23-2.88-9.85-3-13.09-.89,0-1,.22-2.18.19-2.79a13,13,0,0,0-.77-3.78,21.78,21.78,0,0,0,3.92,1.51,14.16,14.16,0,0,0,4.3.4c1.83-.16,3-1.51,4.68-1.92a31,31,0,0,1-6.43-6.08l100,5.38a38.29,38.29,0,0,1-5.37,4.4c1.86.5,3.11,2,5.15,2.27a15.74,15.74,0,0,0,4.79-.32,24.64,24.64,0,0,0,5.13-1.92,15.19,15.19,0,0,0,3.12-2.39c0,.23,0,.44.08.61a37.66,37.66,0,0,1,.09,6c.06,3.45.3,9.3-2.06,12.19,3-1.46,6.33-2.46,8.64-5.07a17.11,17.11,0,0,0,2.7-4.08,7.3,7.3,0,0,0,.27-1.38c.24,2.26,3.49,5.88,4.4,6.68,2,1.77,5.23,4.86,7.9,5.47,1.74.4,2.31.24,3-1.3s1.33-2.94,2-4.43c1-2.35,2.58-5.42,2-8.1a6.06,6.06,0,0,0,1.71,1.89c0,.1,0,.2-.07.29-.71,3.15-1.8,8.52-4.59,10.62,3.09-.65,6.3-.82,9-2.68a16.26,16.26,0,0,0,3.36-3.11,6.27,6.27,0,0,0,.55-1.2c-.28,2.12,1.86,6.13,2.51,7.06,1.45,2.06,3.66,5.57,6,6.72,1.5.75,2,.73,3-.51s1.87-2.37,2.77-3.58c1.42-1.92,3.55-4.35,3.59-6.92.69,2.73,4.8,5.44,6.78,6.41a27.26,27.26,0,0,0,5.56,1.91c1.36.33,3.29,1.37,4.66,1.3-1.75-1.46-3.19-11.58-.51-11.75.81-.05,2.39,1.83,3.61,3.49a8.64,8.64,0,0,1-3,3.43c1.73-.11,3.47-.05,5.16-.3a17.51,17.51,0,0,1,1.42,4.74l-3.9,6.06-.47.76q9.71-.17,19.43-.4l.65-2.16a13.81,13.81,0,0,0,.74,1.57l.32.55,10.73-.26a6.58,6.58,0,0,0,1.1-2.24l.3.14a7.24,7.24,0,0,0,1.41,2l1.69,0h0l9.36-.25h.48l6.72-.19,3.8-.11,8.06-.23h0l1.55,0h0l15.86-.45,6.21-.17,15.42-.4,6.93-.18c0-.08.1-.17.14-.25l0-.11.42.35h.35q9-.21,17.92-.36l1.86,0q7.2-.12,14.39-.21l8.07-.08h0l6.39,0h0l3.31,0q39.65-.14,79.31.6a5.62,5.62,0,0,0-.16-1.4,5.34,5.34,0,0,0,1.28,1.42q8,.15,16,.35c-1.81-3.22-3.29-8-1.5-8.63,1.28-.46,5.89,3.45,6.84,4.22a13.83,13.83,0,0,1,3.34,4.62l2.86.08a36.34,36.34,0,0,0,2.44-6.81c.39-1.48,1.67-7.37-.62-8.18a27.37,27.37,0,0,1,2.8-.57q39.88,1.17,79.77,2.12,60.92,1.42,121.84,2.82c0,.07,0,.13,0,.21,0,.48,0,1,0,1.47,0,.95.13,1.82.21,2.61.17,1.57.32,2.81.32,3.73s-.07,2.51.09,4.58l0,.4.06.48c0,.3.09.6.13.87.09.54.19,1,.27,1.4a8.61,8.61,0,0,1,.24,1.39.28.28,0,0,1,0,.08h0s0,0,0,0V1002l0,2.16c0,.75,0,1.39,0,2,0,.16,0,.31,0,.47q8.64.83,17.27,1.71c0-.16,0-.33,0-.49,0-.88-.06-1.73-.11-2.53s-.13-1.59-.18-2.27l-.18-2.11-.09-1.06-.07-.85c0-.34-.08-.67-.14-1a24.82,24.82,0,0,0-.67-2.79l-.2-.69-.05-.19,0-.05,0-.13c-.14-.76-.18-2.12-.34-4s-.52-3.51-.74-4.76c-.11-.62-.2-1.16-.26-1.64,83.37,2.05,166.72,4.52,250,8.47l5.34,5.57a15.87,15.87,0,0,0,2.44-1.84,13.56,13.56,0,0,0,1.66-1.84,12.14,12.14,0,0,0,.89-1.39q19.42.95,38.83,2c25.71,1.41,51.39,3.08,77.07,4.72,0,.14,0,.27,0,.41l0,1.15,0,1.19v1.44a3.92,3.92,0,0,1,.18-.53c0-.11.11-.27.18-.4l.25-.45a4.62,4.62,0,0,1,.33-.49,5.9,5.9,0,0,1,.44-.55l.25-.25.28-.27a5.56,5.56,0,0,1,.62-.49l11.41,15.54a13.09,13.09,0,0,0,2-1.75c.28-.31.56-.64.8-1s.44-.62.64-.94a9.84,9.84,0,0,0,.51-.92c.15-.29.3-.61.42-.89a14.39,14.39,0,0,0,.55-1.57,16.84,16.84,0,0,0,.61-4.53c0-.29,0-.57,0-.82l0-.72-.06-1,0-1v0c40.5,2.54,81,4.83,121.62,5.77,71,1.64,142,1.17,213,2.26,72.36,1.11,144.8,3.84,216.73,12.1,51.3,5.89,102.46,16.75,153.84,16.21.05-.8.13-1.6.27-2.39,1.73-10.31,2.26-20.8,3-31.26.86-12,2.76-23.83,3.83-35.79,1.3-14.56,1.24-29.22,2.05-43.81,1.21-21.77,5.78-42.86,6-64.73C1966.84,844.21,1966.25,829.32,1965.48,814.42Zm-272-208.81c.33-.61,2.31-.92,4.09-1.08a14.84,14.84,0,0,1,.28,5.13C1695.28,608.52,1692.84,606.81,1693.49,605.61Zm-37.22,26.92,0,.11-.74.44a4.56,4.56,0,0,0-.84-.74A4.35,4.35,0,0,0,1656.27,632.53ZM1615.11,552a6.63,6.63,0,0,1,.92.08,4.55,4.55,0,0,1-.4,1.85,6.46,6.46,0,0,1-.54-1.93Zm-4.42,82.28c.54-.14,1.77.8,2.84,1.76a11.26,11.26,0,0,0-3.05,2.56C1609.87,636.57,1609.69,634.54,1610.69,634.28ZM1322.11,653a2.11,2.11,0,0,1-.59.24,8.26,8.26,0,0,0,.26-1.16,4.38,4.38,0,0,0,1.1-.45A3.14,3.14,0,0,0,1322.11,653Zm12.06,3.48-.74.24s0-.07,0-.1a3.62,3.62,0,0,0,1-.78A3,3,0,0,0,1334.17,656.46Zm.58-29.1c-.31.65-.39,2.15-1.17,2.61a9.15,9.15,0,0,0-1.3-2.67c.16-.18.33-.35.5-.52.72,0,1.53,0,2.3,0A6.79,6.79,0,0,0,1334.76,627.36Zm0-3.43a16.16,16.16,0,0,0-5.77.54,17.06,17.06,0,0,0-3.46,1.26c-.75.39-2,1.55-2.94,1.59a9,9,0,0,0,.92-1.93,1.73,1.73,0,0,0,1,.59c1.54-1.63,2.5-3.42,4.77-4.67,1-.54,5.76-3.29,7-2.94C1337.86,618.82,1336.53,621.69,1334.78,623.93Zm5.26-35.25c-.79.74-1.79,2.66-3.06,3a10.74,10.74,0,0,0,.12-3l.56-.09c.44-.05,1.6-.21,2.85-.32C1340.34,588.42,1340.18,588.55,1340,588.68Zm9.17,100.65-1.52.11a5.35,5.35,0,0,0,1.57-1.77,3.15,3.15,0,0,0,0,.95c.05.17.12.35.2.52Zm26.15-118.11a16.24,16.24,0,0,0-.83,2.38q-.54.39-1.05.8h-.77a8.23,8.23,0,0,1-1.95-4.47,17.52,17.52,0,0,1,5.37-2.81,6.64,6.64,0,0,1-2.43,2.32,10.85,10.85,0,0,0,2.91,0C1376.14,570,1375.72,570.62,1375.34,571.22Zm1-4.52a15.15,15.15,0,0,0-5.28-1,8.85,8.85,0,0,1,.59-1.42c1.46-.9,4.63-2.81,5.6-2.58C1378.72,562.06,1377.78,564.61,1376.39,566.7ZM117,658.12l.34.19c.13.23.26.44.4.64a6.62,6.62,0,0,0,1.74,1.66,20.17,20.17,0,0,0-4.06,1.22A8.58,8.58,0,0,1,117,658.12Zm-3-54.25a2.66,2.66,0,0,1-.28.36,1.29,1.29,0,0,1-.06-.39ZM93.88,578.13a2.72,2.72,0,0,1-.74-.86h0l.67,0A3.22,3.22,0,0,1,93.88,578.13Zm-.31-7.91c0,.21-.09.41-.12.59L93,570.7A4.82,4.82,0,0,1,93.57,570.22ZM34.63,536a3,3,0,0,1-.34.42v0ZM-78.76,650.78a1.7,1.7,0,0,1-.55.23,10.57,10.57,0,0,0,.3-1.25,3.55,3.55,0,0,0,1-.43A3.62,3.62,0,0,0-78.76,650.78Zm10.64,4.45-.68.22s0-.08,0-.11a3.41,3.41,0,0,0,.91-.8A3.8,3.8,0,0,0-68.12,655.23ZM-66,623.61c-.32.69-.46,2.31-1.19,2.78a11.12,11.12,0,0,0-1-3c.15-.18.31-.36.48-.53a18.65,18.65,0,0,0,2.07.1C-65.82,623.18-65.94,623.39-66,623.61Zm.2-3.73a12.06,12.06,0,0,0-5.2.28,13.55,13.55,0,0,0-3.17,1.18c-.69.38-1.86,1.58-2.72,1.57a10.65,10.65,0,0,0,.93-2,1.54,1.54,0,0,0,.88.7c1.47-1.69,2.43-3.58,4.53-4.82.91-.54,5.35-3.26,6.42-2.82C-62.8,614.5-64.15,617.54-65.84,619.88Zm6.6-38c-.75.76-1.75,2.79-2.91,3.1a14.12,14.12,0,0,0,.27-3.25l.51-.07c.39,0,1.45-.14,2.57-.19C-58.95,581.57-59.1,581.7-59.24,581.84Zm2.85,110-1.37,0a5.56,5.56,0,0,0,1.5-1.84,4.14,4.14,0,0,0,0,1c0,.19.09.38.15.58Zm29.77-127a20.08,20.08,0,0,0-.87,2.54q-.5.39-1,.81l-.69,0a10.09,10.09,0,0,1-1.51-5,14.8,14.8,0,0,1,5-2.76,6.49,6.49,0,0,1-2.3,2.39,8.07,8.07,0,0,0,2.61.16C-25.84,563.51-26.25,564.14-26.62,564.77Zm1.18-4.86a11.63,11.63,0,0,0-4.69-1.35,10.77,10.77,0,0,1,.6-1.52c1.35-.9,4.3-2.8,5.16-2.5C-23.1,555-24.08,557.72-25.44,559.92ZM-5.68,704.65l.07-.05.29.49Zm1292.42,72.77c.12-.63,1.8-1.48,3.33-2.14a13.23,13.23,0,0,1,1.52,3.57l-3.59,0C1287.16,778.47,1286.63,778,1286.74,777.43ZM1116.4,761.37c-.7.3-1.87-.1-2.85-.42a11.33,11.33,0,0,1,1.13-1.32A14.2,14.2,0,0,0,1116.4,761.37Zm85.22-7.13a6.41,6.41,0,0,1,.84-.2,4,4,0,0,1,.17,1.71,5.74,5.74,0,0,1-1-1.5ZM1163.26,747a1.2,1.2,0,0,1-.6,0Zm-26.48,15.15c0,.1,0,.2,0,.31a1.17,1.17,0,0,0-.46.56A4.29,4.29,0,0,1,1136.78,762.14ZM823.94,786.23a6.41,6.41,0,0,1,.85-.15,4,4,0,0,1,.06,1.72,5.73,5.73,0,0,1-.94-1.56Zm-65.2,3.95c0,.1,0,.2,0,.31a1.17,1.17,0,0,0-.49.53A4.29,4.29,0,0,1,758.74,790.18Zm-413.93,3.9a6.3,6.3,0,0,1,.49.79h-.58C344.75,794.63,344.78,794.36,344.81,794.08Zm-3,8.85c.25.08.5.16.75.22h0a3.48,3.48,0,0,1-1.16.85A4.82,4.82,0,0,1,341.86,802.93ZM1578.71,531.18a1.26,1.26,0,0,1-.6-.22Zm-32.17,72.95a4.73,4.73,0,0,1,.78-1.16,12.61,12.61,0,0,0,3.28.81A20.37,20.37,0,0,0,1546.54,604.13Zm12.64-9.56c.22.26.45.51.66.72a2.7,2.7,0,0,1-1.63-.2A8.1,8.1,0,0,0,1559.18,594.57Zm-5.4,9.3c.05.11.11.23.15.34l-.31.06-.28-.07a13.92,13.92,0,0,0-1.57-.31c.57,0,1.09,0,1.5,0Zm-6.95-66c0,.11-.07.21-.1.32a1.24,1.24,0,0,0-.65.43A4.64,4.64,0,0,1,1546.83,537.85Zm-128-7q.09.43.2.86a2,2,0,0,1-.6.21A7.55,7.55,0,0,0,1418.85,530.87Zm-12.61,167.42.07-.05.35.44Zm47.57,63.43c.12-.78.19-1.51.23-2.16l.15-2.78q0-.57.09-1v-.16l0-.12.09-.49c.6-3.34-1.37-5.89-1.75-9.1a58.52,58.52,0,0,0-3.09-13.22c-1.39-3.86-1.14-7.93-2.28-11.75A50.91,50.91,0,0,1,1445,711a21.43,21.43,0,0,1,1.86-10.84c1.56-3.68,4.13-2.46,8.48-1.6a5.43,5.43,0,0,1-2-2.76c1.51-1,3.39-2,4.13-1.88,2.43.48-1.23,7.19-3.18,8,1.25.23,3.27-.21,4.59-.25a34.87,34.87,0,0,0,5.56-.54c2-.39,6.46-1.67,7.72-3.44-.55,1.76.85,3.71,1.72,5.22.55,1,1.14,1.88,1.72,2.82s1.11,1.07,2.65.77c2.38-.47,5.23-2.57,7-3.78.82-.54,3.71-3,3.94-4.47a3.11,3.11,0,0,0,.23.89,10.85,10.85,0,0,0,2.38,2.58c2,1.64,5,2.19,7.65,3.06-2.09-1.82-1.85-5.63-1.78-7.88,0-.07,0-.14,0-.21a6.46,6.46,0,0,0,2-1.05c-1.18,1.74-.42,4.06-.05,5.8.23,1.1.52,2.19.79,3.29s.76,1.33,2.46,1.3c2.61-.05,6.26-1.72,8.54-2.65,1-.42,4.85-2.44,5.6-4a3.28,3.28,0,0,0-.07,1,9.56,9.56,0,0,0,1.54,3.16c1.52,2.1,4.33,3.23,6.79,4.65-1.51-2.3.06-6.26.91-8.61a21.93,21.93,0,0,1,1.48-4.09,4.21,4.21,0,0,0,.21-.41,11.2,11.2,0,0,0,2.32,2.06,23.7,23.7,0,0,0,4.29,2,18.44,18.44,0,0,0,4.34.88c1.93.12,3.44-.76,5.26-.84a23,23,0,0,1-5.52-6c-1.07-1.83-.67-4.09-1.78-5.83,2.18,1.46,6.41,1,8.91.14a19.51,19.51,0,0,0,7-4.62c1.84-1.9-.94-2.59-3.16-3.12-3.56-.85-6-.56-9.55.07,1-2.47,5.4-5.84,8.84-6.45-.54-.84-2.38-1.24-4.54-1.3q-.44-1.14-.88-2.27h.11c1.73-.21,2.8-1.21,4.39-1.57a31.18,31.18,0,0,1-4.74-2.7,19.42,19.42,0,0,0,3.49-1.68,11.6,11.6,0,0,0,2.25-2c0,.18.06.34.1.47a29.54,29.54,0,0,1,.46,4.62c.27,2.65.83,7.15-.81,9.53,2.25-1.32,4.72-2.3,6.33-4.46a13.13,13.13,0,0,0,1.81-3.32,4.92,4.92,0,0,0,.12-1.08c.34,1.73,3.07,4.31,3.83,4.87,1.68,1.23,4.34,3.41,6.44,3.71,1.37.19,1.79,0,2.22-1.2s.84-2.35,1.23-3.53c.61-1.88,1.64-4.35,1-6.37,1.26,2,5.19,3,7,3.24l.37,0-.09.28c-.07.24-.15.56-.21.78l-.15.59-.56,2.33-1.08,4.56-.55,2.21-.59,2.22a178.11,178.11,0,0,0-4.17,19,78.57,78.57,0,0,0-.7,20.39c.12.88.21,1.74.35,2.64s.33,1.83.52,2.69c.38,1.74.82,3.37,1.24,4.91a58.73,58.73,0,0,1,1.77,7.76c-32.4,5.58-65,10.42-97.07,17.72C1469.68,758.2,1461.77,760.09,1453.81,761.72Z" fill="#06070a"/><path d="M1131.83,739.88a2.8,2.8,0,0,0,.14-.38l0-.1v0C1131.7,740,1131.78,740,1131.83,739.88Z" fill="#06070a"/><path d="M449.22,1028.11l.36-.31C449.38,1027.89,449.25,1028,449.22,1028.11Z" fill="#06070a"/><path d="M391.22,1019c.17-.13.33-.27.5-.41C391.44,1018.68,391.26,1018.82,391.22,1019Z" fill="#06070a"/></svg>