<svg xmlns="http://www.w3.org/2000/svg" xmlns:xlink="http://www.w3.org/1999/xlink" width="1920" height="1080" viewBox="0 0 1920 1080"><defs><linearGradient id="linear-gradient" x1="977" y1="680" x2="977" y2="405" gradientUnits="userSpaceOnUse"><stop offset="0" stop-color="#f1d157" stop-opacity="0.5"/><stop offset="1" stop-color="#b59e45" stop-opacity="0"/></linearGradient></defs><title>footer-3</title><g id="city3"><rect x="-19" y="405" width="1992" height="275" fill="url(#linear-gradient)"/><path d="M2014.84,561.52c-8.51-29.81-16.3-59.75-21.5-90.18h-11.81V511.2h-20V446h-16.39v65.2h-7.54v-51.3h-30.16v51.3h-22.29V452.8h-77V511.2h-18.36v-.84h-4.95V456.95h-35.94V481h-9.56v8h-16.48V469.61h-4.95V456.95h-40.55v32.11h-6.59V459.73h-35.94v29.33h-5.93V519h-11.21V483.19h-8.57V481h-74.51v-21.3H1488.4v34.58h-19.78V519h-17.14V465h-22.42v14.2h-18.79v9.88h-20.11v-35.2h-16.48v56.5h-40.88v-56.5h-30.33V519h-11.21V459.73h-77.48v26.55h-11.54v12.66h-1.65V459.73h-24.73V481h-45.5v5h-.68v33h-6.57v5h-9.82V474.6h-4.92V461.93H1068V524h-6.56V464.71h-35.73v24.1H943.15V524h-17V464.71H880.21V524H871V486H843.5V470H821.21v14.22H802.52V524h-20v-65.2H766.13V524h-7.54v-51.3H728.44V524H706.15V465.64h-77V524H604.75v-3.89H599.8V466.74H563.86v24.08H554.3v8H537.82V479.4h-4.95V466.74H492.32v32.11h-6.59V469.52H449.79v29.33h-5.93V528.8H432.65V493h-8.57v-2.16H349.56v-21.3H303.4V504.1H283.62v24.7H266.48v-54H244.06V489H225.27v9.88H205.15v-35.2H188.67v56.5H147.79v-56.5H117.46V528.8H106.25V469.52H28.77v26.55H17.23v12.66H15.58V469.52H-9.15v21.3h-45.5v5h-.68v33H-61.9v5h-9.82V484.39h-.09q-.64,2.84-1.3,5.67c-4.88,20.86-10.45,41.61-13.55,62.83q-2.29,15.64-4.12,31.26h75.44v-5.08H581V589H1937V561.52Z" fill="#1f2533"/></g><g id="city2"><path d="M2025.25,627.46c-11.82-40.36-24.23-80.58-32.56-121.57h-55.62v3h-10.49V558.2h-13.72V516.94h-7.27V476.53h-44v40.41h-8.07V472.71h-49.65v17.44h-6.05v26.8h-20.18V505.88h-11.7V472.71h-44v73.59h-6.05v25h-12.13V490.86h-94.31v80.47h-27.29V500.65h-36.92v70.67H1536V481.49h-20.07v89.83h-24.48V516.4h-22.87V496.82H1441.3V519h-33.71v52.37h-11.24V489.58h-56.18v46.48H1319.3V522.79H1218.17V489.58h-43.74v81.74h-8V485.75H1117v17.46h-6v68.12h-12v-6.94h-8V519h-.83v-6.89h-55.7V482.72h-30.27v54h-2V519.3H988V482.72H893.15v81.67H879.43V474.64H842.3v77.84h-50V474.64H772.07v48.49H747.45V509.52h-23V489.95H697v74.44H676v-34H651.79V482.72H595.28v29.35H504.06v3H493.57v49.34H479.85V523.13h-7.27V482.72h-44v40.41h-8.07V478.89H370.87v17.44h-6.05v26.8H344.63V512.07H332.93V478.89h-44v73.59h-6.05v13.65h-5.13V485.66H183.45v80.47H156.16V495.45H119.24v70.67H110V476.29H89.94v89.83H65.46V511.2H42.59V491.62H15.3v22.14H-18.41v52.37H-29.65V484.38h-41.3l-.16.68c-4.88,20.86-10.45,41.61-13.55,62.83-3.49,23.92-6.35,47.72-7.69,71.86q-.43,7.84-.75,15.69H415v-1.8h627v7h799V627.46Z" fill="#161924"/></g></svg>