<svg id="sky" xmlns="http://www.w3.org/2000/svg" xmlns:xlink="http://www.w3.org/1999/xlink" width="1920" height="1080" viewBox="0 0 1920 1080"><defs><linearGradient id="linear-gradient" x1="967" y1="550" x2="967" y2="-20" gradientUnits="userSpaceOnUse"><stop offset="0" stop-color="#3f6ab5"/><stop offset="0" stop-color="#3e69b4"/><stop offset="0.11" stop-color="#2f518b"/><stop offset="0.22" stop-color="#223c69"/><stop offset="0.34" stop-color="#172b4d"/><stop offset="0.46" stop-color="#0f1e37"/><stop offset="0.6" stop-color="#091428"/><stop offset="0.76" stop-color="#050f1f"/><stop offset="0.99" stop-color="#040d1c"/></linearGradient></defs><title>footer-0</title><rect x="-4" y="-20" width="1942" height="570" fill="url(#linear-gradient)"/><path d="M132.15,182a54.5,54.5,0,1,1-41.61-96.4A52.5,52.5,0,0,0,132.15,182Z" fill="#cacede"/><rect x="279.07" y="262.87" width="2.43" height="2.43" fill="none"/><circle cx="280.29" cy="264.09" r="1.22" fill="#ededed"/><rect x="336.89" y="278.77" width="2.09" height="2.09" fill="none"/><circle cx="337.94" cy="279.81" r="1.05" fill="#ededed"/><rect x="442.26" y="247.99" width="0.8" height="0.8" fill="none"/><circle cx="442.66" cy="248.39" r="0.4" fill="#ededed"/><rect x="464.72" y="321.08" width="1.19" height="1.19" fill="none"/><circle cx="465.31" cy="321.67" r="0.59" fill="#ededed"/><rect x="518.24" y="358.36" width="1.43" height="1.43" fill="none"/><circle cx="518.95" cy="359.07" r="0.71" fill="#ededed"/><rect x="587.41" y="328.79" width="0.74" height="0.74" fill="none"/><circle cx="587.78" cy="329.17" r="0.37" fill="#ededed"/><rect x="651.12" y="327.73" width="1.91" height="1.91" fill="none"/><circle cx="652.08" cy="328.69" r="0.95" fill="#ededed"/><rect x="622.73" y="333.7" width="2.38" height="2.38" fill="none"/><circle cx="623.92" cy="334.89" r="1.19" fill="#ededed"/><rect x="588.72" y="287.46" width="1.46" height="1.46" fill="none"/><circle cx="589.45" cy="288.19" r="0.73" fill="#ededed"/><rect x="541.1" y="278.56" width="2.3" height="2.3" fill="none"/><circle cx="542.25" cy="279.71" r="1.15" fill="#ededed"/><rect x="480.67" y="300.71" width="1.86" height="1.86" fill="none"/><circle cx="481.6" cy="301.64" r="0.93" fill="#ededed"/><rect x="402.02" y="195.17" width="1.15" height="1.15" fill="none"/><circle cx="402.59" cy="195.74" r="0.57" fill="#ededed"/><rect x="346.23" y="235.61" width="2.32" height="2.32" fill="none"/><circle cx="347.39" cy="236.76" r="1.16" fill="#ededed"/><rect x="317.02" y="328.08" width="1.45" height="1.45" fill="none"/><circle cx="317.75" cy="328.8" r="0.72" fill="#ededed"/><rect x="227.64" y="333.35" width="0.72" height="0.72" fill="none"/><circle cx="228" cy="333.71" r="0.36" fill="#ededed"/><rect x="298.69" y="345.65" width="0.8" height="0.8" fill="none"/><circle cx="299.09" cy="346.05" r="0.4" fill="#ededed"/><rect x="338.46" y="405.29" width="1.25" height="1.25" fill="none"/><circle cx="339.09" cy="405.91" r="0.62" fill="#ededed"/><rect x="402.77" y="376.67" width="0.97" height="0.97" fill="none"/><circle cx="403.25" cy="377.16" r="0.48" fill="#ededed"/><rect x="467.1" y="464.99" width="1.64" height="1.64" fill="none"/><circle cx="467.92" cy="465.81" r="0.82" fill="#ededed"/><rect x="532.01" y="427.38" width="2.37" height="2.37" fill="none"/><circle cx="533.19" cy="428.56" r="1.18" fill="#ededed"/><rect x="582.51" y="354.14" width="2.49" height="2.49" fill="none"/><circle cx="583.75" cy="355.38" r="1.24" fill="#ededed"/><rect x="659.08" y="404.33" width="1.61" height="1.61" fill="none"/><circle cx="659.89" cy="405.14" r="0.81" fill="#ededed"/><rect x="720.67" y="374.57" width="1.31" height="1.31" fill="none"/><circle cx="721.33" cy="375.22" r="0.66" fill="#ededed"/><rect x="754.84" y="320.56" width="1.2" height="1.2" fill="none"/><circle cx="755.44" cy="321.16" r="0.6" fill="#ededed"/><rect x="779.64" y="272.65" width="1.02" height="1.02" fill="none"/><circle cx="780.15" cy="273.16" r="0.51" fill="#ededed"/><rect x="893.88" y="238.9" width="2.04" height="2.04" fill="none"/><circle cx="894.9" cy="239.92" r="1.02" fill="#ededed"/><rect x="813.88" y="172.57" width="1.07" height="1.07" fill="none"/><circle cx="814.42" cy="173.11" r="0.54" fill="#ededed"/><rect x="841.23" y="87.52" width="1.51" height="1.51" fill="none"/><circle cx="841.99" cy="88.27" r="0.75" fill="#ededed"/><rect x="737.66" y="121.78" width="1.17" height="1.17" fill="none"/><circle cx="738.25" cy="122.37" r="0.58" fill="#ededed"/><rect x="556.61" y="106.27" width="0.91" height="0.91" fill="none"/><circle cx="557.06" cy="106.73" r="0.46" fill="#ededed"/><rect x="419.41" y="32.82" width="1.74" height="1.74" fill="none"/><circle cx="420.28" cy="33.7" r="0.87" fill="#ededed"/><rect x="343.64" y="12.37" width="2.5" height="2.5" fill="none"/><circle cx="344.89" cy="13.62" r="1.25" fill="#ededed"/><rect x="291.76" y="68.32" width="1.89" height="1.89" fill="none"/><circle cx="292.7" cy="69.27" r="0.94" fill="#ededed"/><rect x="238.5" y="120.68" width="2.37" height="2.37" fill="none"/><circle cx="239.68" cy="121.86" r="1.19" fill="#ededed"/><rect x="177.73" y="140.74" width="1.3" height="1.3" fill="none"/><circle cx="178.38" cy="141.39" r="0.65" fill="#ededed"/><rect x="117.01" y="163.3" width="1.52" height="1.52" fill="none"/><rect x="40.31" y="183.78" width="1.44" height="1.44" fill="none"/><circle cx="41.03" cy="184.5" r="0.72" fill="#ededed"/><rect x="88.51" y="300.72" width="0.88" height="0.88" fill="none"/><circle cx="88.95" cy="301.15" r="0.44" fill="#ededed"/><rect x="94.34" y="364.73" width="2.41" height="2.41" fill="none"/><circle cx="95.55" cy="365.93" r="1.2" fill="#ededed"/><rect x="107.13" y="442.96" width="1.68" height="1.68" fill="none"/><circle cx="107.97" cy="443.8" r="0.84" fill="#ededed"/><rect x="176.05" y="439.31" width="2.04" height="2.04" fill="none"/><circle cx="177.07" cy="440.33" r="1.02" fill="#ededed"/><rect x="239.89" y="436.08" width="0.78" height="0.78" fill="none"/><circle cx="240.28" cy="436.46" r="0.39" fill="#ededed"/><rect x="289.54" y="546.38" width="1.38" height="1.38" fill="none"/><circle cx="290.23" cy="547.07" r="0.69" fill="#ededed"/><rect x="358.4" y="506.28" width="1.9" height="1.9" fill="none"/><circle cx="359.35" cy="507.23" r="0.95" fill="#ededed"/><rect x="419.22" y="536.39" width="2.11" height="2.11" fill="none"/><circle cx="420.27" cy="537.44" r="1.06" fill="#ededed"/><rect x="493.21" y="570.27" width="2.02" height="2.02" fill="none"/><circle cx="494.22" cy="571.28" r="1.01" fill="#ededed"/><rect x="557.44" y="547.27" width="2.41" height="2.41" fill="none"/><circle cx="558.64" cy="548.47" r="1.21" fill="#ededed"/><rect x="626.44" y="514.99" width="1.49" height="1.49" fill="none"/><circle cx="627.19" cy="515.74" r="0.75" fill="#ededed"/><rect x="709.9" y="537.46" width="1.66" height="1.66" fill="none"/><circle cx="710.73" cy="538.29" r="0.83" fill="#ededed"/><rect x="731.97" y="421.32" width="2.25" height="2.25" fill="none"/><circle cx="733.1" cy="422.44" r="1.12" fill="#ededed"/><rect x="764.94" y="371.46" width="2.5" height="2.5" fill="none"/><circle cx="766.19" cy="372.7" r="1.25" fill="#ededed"/><rect x="880.46" y="326.35" width="0.86" height="0.86" fill="none"/><circle cx="880.89" cy="326.78" r="0.43" fill="#ededed"/><rect x="777.43" y="282.88" width="1.11" height="1.11" fill="none"/><circle cx="777.99" cy="283.43" r="0.55" fill="#ededed"/><rect x="777.88" y="191.81" width="2.41" height="2.41" fill="none"/><circle cx="779.08" cy="193.01" r="1.2" fill="#ededed"/><rect x="709.93" y="164.32" width="1.72" height="1.72" fill="none"/><circle cx="710.79" cy="165.18" r="0.86" fill="#ededed"/><rect x="628.77" y="186.66" width="1.4" height="1.4" fill="none"/><circle cx="629.46" cy="187.36" r="0.7" fill="#ededed"/><rect x="596.32" y="86.21" width="1.49" height="1.49" fill="none"/><circle cx="597.06" cy="86.95" r="0.74" fill="#ededed"/><rect x="508.91" y="125.76" width="2.41" height="2.41" fill="none"/><circle cx="510.12" cy="126.96" r="1.2" fill="#ededed"/><rect x="447.21" y="94.11" width="0.77" height="0.77" fill="none"/><circle cx="447.59" cy="94.49" r="0.38" fill="#ededed"/><rect x="379.36" y="82.49" width="1.51" height="1.51" fill="none"/><circle cx="380.11" cy="83.24" r="0.75" fill="#ededed"/><rect x="316.1" y="70.75" width="1.54" height="1.54" fill="none"/><circle cx="316.87" cy="71.51" r="0.77" fill="#ededed"/><rect x="246.77" y="122.42" width="2.36" height="2.36" fill="none"/><circle cx="247.95" cy="140.6" r="1.18" fill="#ededed"/><rect x="186.58" y="20.88" width="1.9" height="1.9" fill="none"/><circle cx="187.53" cy="21.83" r="0.95" fill="#ededed"/><rect x="111.86" y="8.1" width="2.02" height="2.02" fill="none"/><circle cx="112.87" cy="9.11" r="1.01" fill="#ededed"/><rect x="64.8" y="103.97" width="1.16" height="1.16" fill="none"/><circle cx="65.38" cy="104.55" r="0.58" fill="#ededed"/><rect x="1370.32" y="248.99" width="2.43" height="2.43" fill="none"/><circle cx="1371.53" cy="250.2" r="1.22" fill="#ededed"/><rect x="1312.84" y="233.43" width="2.09" height="2.09" fill="none"/><circle cx="1313.88" cy="234.47" r="1.05" fill="#ededed"/><rect x="1208.76" y="265.5" width="0.8" height="0.8" fill="none"/><circle cx="1209.16" cy="265.9" r="0.4" fill="#ededed"/><rect x="1185.92" y="192.02" width="1.19" height="1.19" fill="none"/><circle cx="1186.51" cy="192.62" r="0.59" fill="#ededed"/><rect x="1132.16" y="154.5" width="1.43" height="1.43" fill="none"/><circle cx="1132.87" cy="155.22" r="0.71" fill="#ededed"/><rect x="1063.67" y="184.75" width="0.74" height="0.74" fill="none"/><circle cx="1064.04" cy="185.12" r="0.37" fill="#ededed"/><rect x="998.79" y="184.65" width="1.91" height="1.91" fill="none"/><circle cx="999.74" cy="185.6" r="0.95" fill="#ededed"/><rect x="1026.71" y="178.21" width="2.38" height="2.38" fill="none"/><circle cx="1027.9" cy="179.4" r="1.19" fill="#ededed"/><rect x="1061.64" y="225.37" width="1.46" height="1.46" fill="none"/><circle cx="1062.37" cy="226.1" r="0.73" fill="#ededed"/><rect x="1108.42" y="233.43" width="2.3" height="2.3" fill="none"/><circle cx="1109.57" cy="234.58" r="1.15" fill="#ededed"/><rect x="1169.29" y="211.71" width="1.86" height="1.86" fill="none"/><circle cx="1170.22" cy="212.65" r="0.93" fill="#ededed"/><rect x="1248.65" y="317.97" width="1.15" height="1.15" fill="none"/><circle cx="1249.23" cy="318.55" r="0.57" fill="#ededed"/><rect x="1303.28" y="276.37" width="2.32" height="2.32" fill="none"/><circle cx="1304.43" cy="277.53" r="1.16" fill="#ededed"/><rect x="1333.35" y="184.76" width="1.45" height="1.45" fill="none"/><circle cx="1334.07" cy="185.48" r="0.72" fill="#ededed"/><rect x="1423.46" y="180.22" width="0.72" height="0.72" fill="none"/><circle cx="1423.82" cy="180.58" r="0.36" fill="#ededed"/><rect x="1352.33" y="167.84" width="0.8" height="0.8" fill="none"/><circle cx="1352.73" cy="168.24" r="0.4" fill="#ededed"/><rect x="1312.11" y="107.75" width="1.25" height="1.25" fill="none"/><circle cx="1312.73" cy="108.38" r="0.62" fill="#ededed"/><rect x="1248.08" y="136.65" width="0.97" height="0.97" fill="none"/><circle cx="1248.57" cy="137.13" r="0.48" fill="#ededed"/><rect x="1183.08" y="47.66" width="1.64" height="1.64" fill="none"/><circle cx="1183.9" cy="48.48" r="0.82" fill="#ededed"/><rect x="1117.45" y="84.54" width="2.37" height="2.37" fill="none"/><circle cx="1118.63" cy="85.72" r="1.18" fill="#ededed"/><rect x="1066.82" y="157.67" width="2.49" height="2.49" fill="none"/><circle cx="1068.07" cy="158.91" r="1.24" fill="#ededed"/><rect x="991.12" y="108.34" width="1.61" height="1.61" fill="none"/><circle cx="991.93" cy="109.15" r="0.81" fill="#ededed"/><rect x="929.83" y="138.41" width="1.31" height="1.31" fill="none"/><circle cx="930.49" cy="139.07" r="0.66" fill="#ededed"/><rect x="895.78" y="192.53" width="1.2" height="1.2" fill="none"/><circle cx="896.38" cy="193.13" r="0.6" fill="#ededed"/><rect x="871.17" y="240.62" width="1.02" height="1.02" fill="none"/><circle cx="871.67" cy="241.13" r="0.51" fill="#ededed"/><rect x="755.9" y="273.35" width="2.04" height="2.04" fill="none"/><circle cx="756.92" cy="274.37" r="1.02" fill="#ededed"/><rect x="836.86" y="340.64" width="1.07" height="1.07" fill="none"/><circle cx="837.4" cy="341.18" r="0.54" fill="#ededed"/><rect x="809.08" y="425.27" width="1.51" height="1.51" fill="none"/><circle cx="809.83" cy="426.02" r="0.75" fill="#ededed"/><rect x="912.99" y="391.34" width="1.17" height="1.17" fill="none"/><circle cx="913.57" cy="391.92" r="0.58" fill="#ededed"/><rect x="951.69" y="521.08" width="1.37" height="1.37" fill="none"/><circle cx="952.37" cy="521.76" r="0.68" fill="#ededed"/><rect x="1020.1" y="519.58" width="2.45" height="2.45" fill="none"/><circle cx="1021.33" cy="520.81" r="1.22" fill="#ededed"/><rect x="1094.3" y="407.1" width="0.91" height="0.91" fill="none"/><circle cx="1094.76" cy="407.56" r="0.46" fill="#ededed"/><rect x="1172" y="529.07" width="1.22" height="1.22" fill="none"/><circle cx="1172.62" cy="529.68" r="0.61" fill="#ededed"/><rect x="1230.67" y="479.72" width="1.74" height="1.74" fill="none"/><circle cx="1231.54" cy="480.59" r="0.87" fill="#ededed"/><rect x="1305.69" y="499.43" width="2.5" height="2.5" fill="none"/><circle cx="1306.93" cy="500.67" r="1.25" fill="#ededed"/><rect x="1358.17" y="444.08" width="1.89" height="1.89" fill="none"/><circle cx="1359.12" cy="445.02" r="0.94" fill="#ededed"/><rect x="1410.95" y="391.24" width="2.37" height="2.37" fill="none"/><circle cx="1412.14" cy="392.42" r="1.19" fill="#ededed"/><rect x="1472.78" y="372.25" width="1.3" height="1.3" fill="none"/><circle cx="1473.44" cy="372.9" r="0.65" fill="#ededed"/><rect x="1533.29" y="349.47" width="1.52" height="1.52" fill="none"/><circle cx="1534.05" cy="350.23" r="0.76" fill="#ededed"/><rect x="1610.08" y="329.07" width="1.44" height="1.44" fill="none"/><circle cx="1610.79" cy="329.79" r="0.72" fill="#ededed"/><rect x="1562.43" y="212.7" width="0.88" height="0.88" fill="none"/><circle cx="1562.87" cy="213.13" r="0.44" fill="#ededed"/><rect x="1673.03" y="151.63" width="0.89" height="0.89" fill="none"/><circle cx="1673.48" cy="152.08" r="0.45" fill="#ededed"/><rect x="1555.07" y="147.15" width="2.41" height="2.41" fill="none"/><circle cx="1556.27" cy="148.36" r="1.2" fill="#ededed"/><rect x="1543.01" y="69.65" width="1.68" height="1.68" fill="none"/><circle cx="1543.85" cy="70.49" r="0.84" fill="#ededed"/><rect x="1473.73" y="72.94" width="2.04" height="2.04" fill="none"/><circle cx="1474.75" cy="73.96" r="1.02" fill="#ededed"/><rect x="1411.15" y="77.44" width="0.78" height="0.78" fill="none"/><circle cx="1411.54" cy="77.82" r="0.39" fill="#ededed"/><rect x="1291.52" y="6.11" width="1.9" height="1.9" fill="none"/><circle cx="1292.47" cy="7.06" r="0.95" fill="#ededed"/><rect x="917.6" y="90.72" width="2.25" height="2.25" fill="none"/><circle cx="918.72" cy="91.85" r="1.12" fill="#ededed"/><rect x="884.38" y="140.34" width="2.5" height="2.5" fill="none"/><circle cx="885.63" cy="141.58" r="1.25" fill="#ededed"/><rect x="770.5" y="187.08" width="0.86" height="0.86" fill="none"/><circle cx="770.93" cy="187.51" r="0.43" fill="#ededed"/><rect x="873.28" y="230.3" width="1.11" height="1.11" fill="none"/><circle cx="873.83" cy="230.86" r="0.55" fill="#ededed"/><rect x="871.54" y="320.07" width="2.41" height="2.41" fill="none"/><circle cx="872.74" cy="321.28" r="1.2" fill="#ededed"/><rect x="940.17" y="348.25" width="1.72" height="1.72" fill="none"/><circle cx="941.03" cy="349.11" r="0.86" fill="#ededed"/><rect x="1021.66" y="326.23" width="1.4" height="1.4" fill="none"/><circle cx="1022.36" cy="326.93" r="0.7" fill="#ededed"/><rect x="1054.02" y="426.59" width="1.49" height="1.49" fill="none"/><circle cx="1054.76" cy="427.34" r="0.74" fill="#ededed"/><rect x="1140.5" y="386.12" width="2.41" height="2.41" fill="none"/><circle cx="1141.7" cy="387.32" r="1.2" fill="#ededed"/><rect x="1203.84" y="419.41" width="0.77" height="0.77" fill="none"/><circle cx="1204.23" cy="419.8" r="0.38" fill="#ededed"/><rect x="1270.95" y="430.29" width="1.51" height="1.51" fill="none"/><circle cx="1271.71" cy="431.05" r="0.75" fill="#ededed"/><rect x="1334.19" y="442" width="1.54" height="1.54" fill="none"/><circle cx="1334.95" cy="442.77" r="0.77" fill="#ededed"/><rect x="1402.69" y="389.51" width="2.36" height="2.36" fill="none"/><circle cx="1403.87" cy="373.69" r="1.18" fill="#ededed"/><rect x="1463.34" y="491.5" width="1.9" height="1.9" fill="none"/><circle cx="1464.29" cy="492.45" r="0.95" fill="#ededed"/><rect x="1537.94" y="504.17" width="2.02" height="2.02" fill="none"/><circle cx="1538.95" cy="505.18" r="1.01" fill="#ededed"/><rect x="1585.86" y="409.15" width="1.16" height="1.16" fill="none"/><circle cx="1586.44" cy="409.73" r="0.58" fill="#ededed"/><rect x="1866.48" y="280.58" width="2.43" height="2.43" transform="translate(-19.85 211.9) rotate(-6.46)" fill="none"/><circle cx="1867.7" cy="281.8" r="1.22" transform="translate(-19.85 211.9) rotate(-6.46)" fill="#ededed"/><rect x="1911.48" y="341.17" width="1.45" height="1.45" transform="translate(-26.32 217.29) rotate(-6.46)" fill="none"/><circle cx="1912.2" cy="341.89" r="0.72" transform="translate(-26.32 217.29) rotate(-6.46)" fill="#ededed"/><rect x="1823.21" y="356.5" width="0.72" height="0.72" transform="translate(-28.57 207.42) rotate(-6.46)" fill="none"/><circle cx="1823.58" cy="356.86" r="0.36" transform="translate(-28.57 207.42) rotate(-6.46)" fill="#ededed"/><rect x="1895.2" y="360.72" width="0.8" height="0.8" transform="translate(-28.59 215.55) rotate(-6.46)" fill="none"/><circle cx="1895.6" cy="361.12" r="0.4" transform="translate(-28.59 215.55) rotate(-6.46)" fill="#ededed"/><rect x="1902.46" y="24.4" width="2.5" height="2.5" transform="translate(9.2 214.33) rotate(-6.46)" fill="none"/><circle cx="1903.71" cy="25.65" r="1.25" transform="translate(9.2 214.33) rotate(-6.46)" fill="#ededed"/><rect x="1857.17" y="85.87" width="1.89" height="1.89" transform="translate(2.03 209.59) rotate(-6.46)" fill="none"/><circle cx="1858.12" cy="86.82" r="0.94" transform="translate(2.03 209.59) rotate(-6.46)" fill="#ededed"/><rect x="1810.17" y="143.86" width="2.37" height="2.37" transform="translate(-4.82 204.7) rotate(-6.46)" fill="none"/><circle cx="1811.36" cy="145.04" r="1.19" transform="translate(-4.82 204.7) rotate(-6.46)" fill="#ededed"/><rect x="1751.99" y="170.69" width="1.3" height="1.3" transform="translate(-8.15 198.26) rotate(-6.46)" fill="none"/><circle cx="1752.64" cy="171.34" r="0.65" transform="translate(-8.15 198.26) rotate(-6.46)" fill="#ededed"/><rect x="1694.21" y="199.93" width="1.52" height="1.52" transform="translate(-11.82 191.96) rotate(-6.46)" fill="none"/><circle cx="1694.97" cy="200.69" r="0.76" transform="matrix(0.99, -0.11, 0.11, 0.99, -11.82, 191.96)" fill="#ededed"/><rect x="1620.29" y="228.92" width="1.44" height="1.44" transform="translate(-15.54 183.82) rotate(-6.46)" fill="none"/><circle cx="1621" cy="229.63" r="0.72" transform="translate(-15.54 183.82) rotate(-6.46)" fill="#ededed"/><rect x="1681.31" y="339.72" width="0.88" height="0.88" transform="translate(-27.59 191.36) rotate(-6.46)" fill="none"/><circle cx="1681.75" cy="340.15" r="0.44" transform="translate(-27.59 191.36) rotate(-6.46)" fill="#ededed"/><rect x="1578.26" y="412.82" width="0.89" height="0.89" transform="translate(-36.47 180.23) rotate(-6.46)" fill="none"/><circle cx="1578.71" cy="413.27" r="0.45" transform="translate(-36.47 180.23) rotate(-6.46)" fill="#ededed"/><rect x="1694.39" y="402.58" width="2.41" height="2.41" transform="translate(-34.66 193.32) rotate(-6.46)" fill="none"/><circle cx="1695.59" cy="403.78" r="1.2" transform="translate(-34.66 193.32) rotate(-6.46)" fill="#ededed"/><rect x="1715.85" y="478.91" width="1.68" height="1.68" transform="translate(-43.07 196.17) rotate(-6.46)" fill="none"/><circle cx="1716.7" cy="479.75" r="0.84" transform="translate(-43.07 196.17) rotate(-6.46)" fill="#ededed"/><rect x="1783.95" y="467.51" width="2.04" height="2.04" transform="translate(-41.38 203.78) rotate(-6.46)" fill="none"/><circle cx="1784.96" cy="468.53" r="1.02" transform="translate(-41.38 203.78) rotate(-6.46)" fill="#ededed"/><rect x="1846.95" y="457.19" width="0.78" height="0.78" transform="translate(-39.75 210.73) rotate(-6.46)" fill="none"/><circle cx="1847.34" cy="457.58" r="0.39" transform="translate(-39.75 210.73) rotate(-6.46)" fill="#ededed"/><rect x="1908.72" y="561.17" width="1.38" height="1.38" transform="translate(-51.09 218.37) rotate(-6.46)" fill="none"/><circle cx="1909.41" cy="561.86" r="0.69" transform="translate(-51.09 218.37) rotate(-6.46)" fill="#ededed"/><rect x="1881.61" y="85.56" width="1.54" height="1.54" transform="translate(2.24 212.32) rotate(-6.46)" fill="none"/><circle cx="1882.38" cy="86.33" r="0.77" transform="translate(2.24 212.32) rotate(-6.46)" fill="#ededed"/><rect x="1818.58" y="144.66" width="2.36" height="2.36" transform="translate(-4.85 205.65) rotate(-6.46)" fill="none"/><circle cx="1821.67" cy="162.73" r="1.18" transform="translate(-6.74 205.97) rotate(-6.46)" fill="#ededed"/><rect x="1747.33" y="50.57" width="1.9" height="1.9" transform="translate(5.3 197.01) rotate(-6.46)" fill="none"/><circle cx="1748.28" cy="51.52" r="0.95" transform="translate(5.3 197.01) rotate(-6.46)" fill="#ededed"/><rect x="1671.65" y="46.26" width="2.02" height="2.02" transform="translate(5.3 188.47) rotate(-6.46)" fill="none"/><circle cx="1672.66" cy="47.27" r="1.01" transform="translate(5.3 188.47) rotate(-6.46)" fill="#ededed"/><rect x="1635.63" y="146.87" width="1.16" height="1.16" transform="translate(-6.2 185.01) rotate(-6.46)" fill="none"/><circle cx="1636.21" cy="147.45" r="0.58" transform="translate(-6.2 185.01) rotate(-6.46)" fill="#ededed"/></svg>