<svg id="front1" xmlns="http://www.w3.org/2000/svg" width="1920" height="1080" viewBox="0 0 1920 1080"><title>footer-6</title><path d="M334.27,518.62c-2.11-3.18-3.23-7.21-5.49-10.4-1.25-1.76-5.8-8.43-8.52-7.63,1.19-.34,2.41-.09,3.71-.48a19.42,19.42,0,0,0,5.71-3c2.23-1.66,6-5.24,4.82-8.36-.89-2.45-6-5.6-8.23-6.73a32.42,32.42,0,0,0-6.13-2.47,31,31,0,0,1-3.28-.57c-1.89-1.4-.5-7.22-.85-9.46a47.41,47.41,0,0,0-3.43-12c-.3-.66-1.43-3.57-2.53-3.49-.53,0-2.92,3.37-3.29,3.9a28.6,28.6,0,0,0-3.65,10.58c-1.63-1.08-2-5.1-2.78-6.78a28.07,28.07,0,0,0-4.23-6.53,30.3,30.3,0,0,0-2.2-2.37c3.14.58,6,2,9.12,2.9,2-2.38-3.19-12.84-4.41-15.17s-6.06-10.79-9.72-9.25c1.39-2.39,12.82-16.55,17.15-18-4.33-.21-8.78-1.91-13.21-2-2.45,0-11.62-.39-12.72,2.64.5-1.32,1.54-2.26,2.06-3.71a22.07,22.07,0,0,0,1.1-7.25c0-3.16-.77-9-4.39-10.05-2.85-.84-9.19,1.74-11.71,3a36.85,36.85,0,0,0-6.39,3.95,35.26,35.26,0,0,1-2.73,2.61c-2.56.78-6.94-4.41-9.23-5.61-.62-.32-1.25-.63-1.89-.94-1.61-2.21-3.52-3.95-5.31-3.34,1.56-2.27,13.93-15.47,18.33-16.58-4.28-.53-8.57-2.54-13-2.95-2.43-.22-11.5-1.24-12.82,1.69.59-1.27,1.69-2.13,2.32-3.53a22,22,0,0,0,1.62-7.11c.22-3.13-.1-9-3.62-10.3-2.57-1-8.37.77-11.24,1.87.63-1.8.77-3.64-.21-5.08-1.66-2.43-8.15-4.44-10.87-5.05a36.55,36.55,0,0,0-7.39-1,35,35,0,0,1-3.74.29c-2.46-1-2.56-7.75-3.57-10.1a53.44,53.44,0,0,0-7.1-12.18c-.51-.64-2.55-3.5-3.73-3.11-.57.19-2.26,4.49-2.5,5.18a32.24,32.24,0,0,0-1,12.57c-2.09-.73-3.66-5-4.93-6.64a31.65,31.65,0,0,0-6.44-6c-4.88-3.56-10.51-5.85-16.65-5.46,5.71,5.94,9.31,17.11,6.9,25.19-5-2.71-10.58-4.05-15.15-7.63-2.2-1.73-3.8-6.37-6.37-4.55-2.19,1.55-3.7,5-5,8-1.67-2.93-4.27-6.54-6.6-5.72,1.36-2,12.22-14,16.14-15-3.83-.41-7.68-2.15-11.61-2.46-2.17-.17-10.28-1-11.42,1.68.51-1.14,1.48-1.93,2-3.18a19.6,19.6,0,0,0,1.35-6.37c.15-2.8-.22-8-3.37-9.14-2.48-.89-8.24,1.06-10.53,2a32.72,32.72,0,0,0-5.87,3.16,31.3,31.3,0,0,1-2.56,2.17c-2.31.56-5.93-4.27-7.89-5.45a47.85,47.85,0,0,0-11.55-5.1c-.71-.19-3.69-1.2-4.34-.29-.32.44.72,4.44.9,5.07A28.87,28.87,0,0,0,86,311.25c-1.89.57-5.27-1.71-7.06-2.22a28.33,28.33,0,0,0-7.8-.94A23.4,23.4,0,0,0,57.44,312c-1.53-1.93-2.95-4.67-4.05-5.75a52.42,52.42,0,0,0-11-8.41c-.7-.39-3.62-2.23-4.54-1.43-.45.39-.38,4.92-.35,5.63a31.63,31.63,0,0,0,3.73,11.8c-2.16.12-5.18-3.18-6.94-4.19a31,31,0,0,0-8.06-3c-5.76-1.42-11.72-1.4-17.14,1.23,7.39,3.27,14.81,12.07,15.63,20.3-5.57-.59-11.11.26-16.59-1.29-2-.58-4.38-2.85-6.11-2.67a23,23,0,0,0,2.34-5.62c.81-3,1.61-8.69-1.54-10.64-2.47-1.53-9.14-.75-11.84-.22a36.11,36.11,0,0,0-7.06,2.07,34.52,34.52,0,0,1-3.26,1.76c-2.62.08-5.41-6-7.26-7.69a52.8,52.8,0,0,0-11.29-8.16c-.72-.37-3.71-2.14-4.61-1.31-.44.4-.24,5-.19,5.68a31.85,31.85,0,0,0,4.09,11.77c-2.18.18-5.3-3.05-7.11-4A31.26,31.26,0,0,0-53.9,305c-5.83-1.27-11.83-1.08-17.22,1.73,7.54,3.08,15.26,11.73,16.31,20-4.92-.39-9.79.34-14.66-.41l-.07,0c-2.08-1.55-.52-8-.89-10.42a52.2,52.2,0,0,0-3.72-13.26c-.33-.73-1.55-3.94-2.76-3.86-.59,0-3.24,3.69-3.64,4.28a31.49,31.49,0,0,0-4.07,11.63c-1.79-1.2-2.23-5.62-3-7.49a30.91,30.91,0,0,0-4.62-7.22c-3.74-4.57-8.5-8.12-14.39-9.26,3.94,7,4.59,18.47.32,25.51-4.08-3.8-9-6.43-12.44-10.94-1.66-2.17-2-7-4.9-5.86-3.62,1.37-6.84,7-9.23,9.72a29.84,29.84,0,0,0-4,5.37c-.87,1.61-1.37,4.65-2.65,5.93-.56-2.44.37-5.67.24-8.19a41.8,41.8,0,0,0-1.17-7.3c-.69-2.83-2.93-10.22-6.57-10.27-3,0-7.42,5.44-9.43,7.3a19.51,19.51,0,0,0-4,5.21,14.16,14.16,0,0,0-.71,1.82,2.29,2.29,0,0,0-1.46.07c1.3-2.2,11.93-15.24,15.94-16.55-4-.21-8.11-1.81-12.21-1.9-2.27-.05-10.75-.41-11.78,2.39.47-1.22,1.43-2.09,1.92-3.42a20.41,20.41,0,0,0,1-6.7c0-2.92-.67-8.32-4-9.32-2.63-.79-8.51,1.56-10.84,2.71a34.08,34.08,0,0,0-5.93,3.62,32.59,32.59,0,0,1-2.54,2.4c-2.37.71-6.4-4.11-8.51-5.23a49.83,49.83,0,0,0-12.29-4.66c-.75-.16-3.9-1-4.53-.06-.3.47,1,4.58,1.22,5.22a30.06,30.06,0,0,0,6.62,9.72c-1.94.7-5.58-1.48-7.46-1.92a29.5,29.5,0,0,0-8.16-.54c-5.63.28-11,1.93-15.27,5.8,7.62,1,16.79,6.94,19.77,14.21-5.23,1-10,3.27-15.45,3.36-2.61,0-6.49-2.39-7.28.44-1,3.55,1.47,9.2,2.23,12.59a28.48,28.48,0,0,0,1.86,6.11c.74,1.58,2.79,3.68,3,5.4-2.19-1-4.15-3.5-6.16-4.82a39.9,39.9,0,0,0-6.27-3.24c-2.57-1.08-9.51-3.54-11.61-.78-1.72,2.27,0,8.78.26,11.38a18.62,18.62,0,0,0,1.75,6c.38.82,1.5,2.18,2.19,3.46-5.62-.4-16.66,5.72-16.23,10.29,5.11-1.75,14.37.71,18.27,4.38-5.3,1.84-8.75,3.34-12.47,7.85-2.32,2.81-5.2,6.38-.81,8.32,4.12,1.82,9.41,3.09,13.89,2.63,4.2-.43,10.13-3.21,11.42-7.69.4,4.08,3.3,7.87,3.83,12.1a49.06,49.06,0,0,1-.9,15.46c2.46-1.37,5.34-1,7.72-2.85a22.83,22.83,0,0,0,4.71-5.22,35.53,35.53,0,0,0,3.44-7.24,22,22,0,0,0,.84-5.7c.26.22.5.42.7.57,2.37,1.72,4.16,4.16,6.22,6.22a75,75,0,0,1,6.54,7.08,42.91,42.91,0,0,0-4.36-1.31c-.8-.19-4.17-1.2-4.86-.17-.34.5,1,4.94,1.2,5.63A32.27,32.27,0,0,0-209,405.61c-2.1.71-6-1.71-8-2.23a31.68,31.68,0,0,0-8.75-.77c-6,.18-11.9,1.82-16.52,5.89,8.16,1.2,17.86,7.83,20.91,15.7-5.63.93-10.85,3.28-16.66,3.26-2.8,0-6.91-2.71-7.83.31-1.16,3.79,1.37,9.91,2.11,13.57a30.58,30.58,0,0,0,1.86,6.6c.76,1.71,2.92,4,3.15,5.86-2.33-1.07-4.37-3.85-6.5-5.31a42.83,42.83,0,0,0-6.66-3.62c-2.73-1.21-10.13-4-12.44-1.1-1.9,2.39-.22,9.42,0,12.22a20,20,0,0,0,1.74,6.48c.39.88,1.56,2.37,2.28,3.76-6-.55-18,5.76-17.65,10.68,5.53-1.76,15.41,1.08,19.51,5.11-5.73,1.85-9.47,3.39-13.57,8.15-2.55,3-5.72,6.74-1.06,8.91,4.38,2,10,3.53,14.86,3.13a18.17,18.17,0,0,0,9-3.41,6.18,6.18,0,0,0,2.7-1.19c-1.58,2.76-1.45,6.47-3,9.39a38.11,38.11,0,0,1-7.52,9.4c2.17.24,3.85,1.75,6.17,1.66a17.73,17.73,0,0,0,5.33-1.2,24.49,24.49,0,0,0,3.67-1.89,63.07,63.07,0,0,1-1.36,8.89c2.58-1.37,5.55-1,8.08-2.73.56,3.68.91,8.14-.73,10.93,3.17-2.17,6.7-3.86,8.84-7.2a19.32,19.32,0,0,0,2.32-5.06,7.29,7.29,0,0,0,.06-1.61c.67,2.51,4.95,6,6.11,6.76,2.59,1.64,6.71,4.56,9.83,4.78,2,.15,2.63-.14,3.14-2s1-3.53,1.44-5.31c.55-2.21,1.44-5,1.25-7.46q.15-.61.26-1.23c2.07,1.85,5.95,2.8,8.57,3.14q0,.42,0,.84a51.42,51.42,0,0,1-4.11,15.71c2.81-.9,5.7,0,8.52-1.35a23.93,23.93,0,0,0,5.91-4.4,37.24,37.24,0,0,0,5-6.74,23,23,0,0,0,2-5.68c.22.28.43.54.61.73s.41.46.6.7c.54,2.93.68,5.89-.29,8.15,1.18-1.05,2.42-2,3.62-3.07.38.64.77,1.28,1.19,1.89,2.94,4.4,8.11,11.76,7.46,17.45,2.71-4.42,6.13-8.44,6.94-13.72a26.07,26.07,0,0,0,.09-7.51,9.79,9.79,0,0,0-.8-2c2.21,2.72,9.4,4.69,11.24,5,4,.6,10.64,1.9,14.62.54-.57.9-1.15,1.79-1.74,2.64,2.69-.26,5.1,1.15,7.89.45a21.93,21.93,0,0,0,6.15-2.79,33.59,33.59,0,0,0,5.47-4.68,12.2,12.2,0,0,0,5.12-1.16c.58,1.57,1.05,3.2,1.66,4.74l0,0a18,18,0,0,1-.53,4.8,44.12,44.12,0,0,1-6.23,12.46c2.52-.26,4.78,1,7.39.38a16.86,16.86,0,0,0,2.75-1c0,.13-.07.27-.11.41l.66-.67a22.31,22.31,0,0,0,2.44-1.38c.58-.38,1.19-.84,1.8-1.34.26,2.78,1,5.82,1.22,7.46a20.62,20.62,0,0,0,2.07,6.61c.44.9,1.71,2.38,2.5,3.78-6.23-.32-18.32,6.7-17.74,11.75,5.62-2.05,15.92.46,20.33,4.45-5.83,2.15-9.61,3.89-13.64,9-2.51,3.16-5.62,7.18-.71,9.23,4.6,1.92,10.48,3.21,15.44,2.6,4.64-.57,11.15-3.78,12.47-8.77.53,4.51,3.82,8.64,4.51,13.31a54.33,54.33,0,0,1-.65,17.14c2.69-1.57,5.89-1.26,8.48-3.33a25.28,25.28,0,0,0,5.1-5.89,39.35,39.35,0,0,0,3.65-8.1,24.34,24.34,0,0,0,.81-6.33c.29.24.57.46.79.61,2.67,1.85,4.7,4.51,7,6.75,4,3.87,11.05,10.28,11.68,16.3,1.79-5.17,4.4-10.1,4-15.74a27.55,27.55,0,0,0-1.62-7.77,10.34,10.34,0,0,0-1.28-1.89c2.9,2.3,10.77,2.7,12.73,2.56,4.36-.31,11.56-.46,15.32-2.85,2.45-1.55,2.9-2.39,1.92-4.94s-1.85-4.89-2.85-7.31c-.73-1.76-1.49-3.85-2.46-5.81.7-.15,1.37-.32,2-.52a35.51,35.51,0,0,0,7.25-3.42,22,22,0,0,0,4.26-3.87c.06.34.12.65.18.88.75,2.83.58,5.85.87,8.75.51,5,1.57,13.53-1.53,18,4.26-2.5,8.94-4.36,12-8.45a24.85,24.85,0,0,0,3.43-6.28,9.33,9.33,0,0,0,.22-2c.64,3.28,5.81,8.16,7.24,9.21,3.17,2.34,8.21,6.45,12.18,7,2.59.37,3.39.06,4.21-2.27s1.59-4.44,2.32-6.69c1.15-3.55,3.1-8.22,1.89-12.05,2.38,3.71,9.83,5.68,13.25,6.13l.71.07c-.05.18-.11.34-.16.52-.14.45-.29,1.06-.39,1.48L60,576.71,59,581.12l-2,8.63-1,4.19-1.11,4.21A337.11,337.11,0,0,0,46.91,634c-1.87,12.37-2.78,25.3-1.32,38.59.22,1.67.41,3.3.67,5s.62,3.46,1,5.1C48,686,48.79,689.1,49.59,692A104,104,0,0,1,53,707.45c.68,5.82,1.33,11.47,1.49,16.56a58.1,58.1,0,0,1-.17,7.22c-.06.55-.1,1.12-.18,1.64s-.14,1.06-.24,1.56l-.16,1-.22,1.52c-.13,1-.23,1.9-.32,2.75a63.16,63.16,0,0,1-.91,7.39c-.38,1.74-1.16,4.14-2.08,7.24-.23.78-.47,1.6-.7,2.47s-.5,2-.7,3c-.4,1.93-.7,3.74-.94,5.36-.48,3.26-.84,5.82-1.3,7.68-.46,2-1.42,5-2.2,9.27l-.14.83-.14,1c-.08.63-.14,1.25-.19,1.82-.1,1.14-.15,2.13-.19,3a18.46,18.46,0,0,1-.26,2.92.61.61,0,0,1-.06.15h0s0,0,0,0l0,.14-.07.27-.53,2.18-1.06,4.37c-.37,1.51-.68,2.8-1,4.05s-.66,2.41-1,3.5q-.26.81-.53,1.57l-.27.75L38.43,810c-.62,1.88-1.14,3.69-1.58,5.37s-.83,3.3-1.19,4.78l-1,4.15a41.34,41.34,0,0,1-2,6.12l-3.37,7.87c-2.37,5.62-4.72,11.39-6.91,17.35l-.82,2.24-.82,2.33L20,862.4l-.22.59a8.15,8.15,0,0,1,.68-.93c.16-.19.38-.47.6-.68s.43-.42.75-.72a9.36,9.36,0,0,1,.95-.75,11.88,11.88,0,0,1,1.19-.79l.64-.34c.23-.12.47-.25.71-.36a11,11,0,0,1,1.49-.56l12,38.16a26,26,0,0,0,4.86-2.17c.73-.43,1.48-.9,2.14-1.37s1.23-.94,1.82-1.45a20.06,20.06,0,0,0,1.57-1.47c.47-.48,1-1,1.36-1.48a29.85,29.85,0,0,0,2-2.75,35.53,35.53,0,0,0,4-8.55c.19-.57.36-1.12.5-1.62l.41-1.44.52-2,.52-1.91.57-2c1.54-5.3,3.28-10.68,5.15-16.14l3-8.73a79.16,79.16,0,0,0,2.72-11l.79-4.57c.24-1.43.46-2.73.68-3.92s.45-2.27.68-3.23l.18-.73.39-1.38q.37-1.37.69-2.7c.42-1.77.78-3.5,1.09-5.15s.58-3.27.81-4.66l.74-4.34.37-2.17.3-1.75c.1-.7.18-1.4.24-2.05a53.25,53.25,0,0,0,.14-6l0-1.49v-.52l0-.27c.11-1.61.74-4.36,1.38-8.17.63-4,.8-7.33,1-10,.1-1.32.21-2.46.34-3.44.06-.51.13-.91.21-1.38l.38-1.84c.57-2.64,1.45-5.95,2-10.06a88.17,88.17,0,0,0,.63-10.33l.07-1.69,0-.69v-.16l0-.34.07-.72q.16-1.46.22-2.86c.07-1,.08-1.87.1-2.8a87.72,87.72,0,0,0-.5-10.57c-.71-6.75-1.89-12.84-3-18.74a128.39,128.39,0,0,0-5.56-19c-1-2.75-1.85-5.35-2.58-7.81-.37-1.23-.69-2.42-1-3.58s-.51-2.52-.78-3.78c-1.87-10.23-2-21.22-1.08-32.39a316.51,316.51,0,0,1,5-34.08l.85-4.47.79-4.52,1.44-8.83.72-4.3.31-1.75c.09-.46.23-1,.4-1.58.67-2.36,1.74-5.09,2.77-8.41.48-1.63,1-3.23,1.43-4.85,2,2.32,3.27,5.11,5,7.71,2.85-.49,5.29-11,5.8-13.4s2-11.25-1.47-12.31c2.4-.88,18.87-4.23,22.8-2.7-3-2.7-5.12-6.53-8.23-9.2-1.72-1.48-8-7.12-10.62-5.61,1.13-.65,2.43-.7,3.66-1.43a20.4,20.4,0,0,0,5.05-4.52l.28-.36a28.75,28.75,0,0,0,4.35,1.61,37.46,37.46,0,0,0,7.93,1.12,4.64,4.64,0,0,0,1.74,1.25c4.22,1.93,9.64,3.31,14.27,2.89,4.33-.39,10.47-3.17,11.86-7.76.35,4.2,3.29,8.15,3.78,12.51a50.51,50.51,0,0,1-1.14,15.91c2.55-1.37,5.51-1,8-2.83a23.5,23.5,0,0,0,4.92-5.31,36.58,36.58,0,0,0,3.65-7.41,22.63,22.63,0,0,0,.95-5.86c.26.23.51.44.72.59,2.42,1.8,4.23,4.34,6.32,6.49,3.63,3.72,10,9.89,10.35,15.51,1.83-4.75,4.41-9.25,4.23-14.5a25.61,25.61,0,0,0-1.27-7.27,9.61,9.61,0,0,0-1.14-1.79c2.62,2.23,9.92,2.84,11.75,2.77,4.06-.16,10.76-.07,14.32-2.17a6.4,6.4,0,0,0,1.9-1.48,9.2,9.2,0,0,0,3.37-1.55,24.69,24.69,0,0,0,5.06-5.68,38.42,38.42,0,0,0,3.69-7.85v0c.83-.47,1.63-1,2.44-1.51,0,.32,0,.62,0,.86,0,2.79-.81,5.54-1.21,8.28-.69,4.76-1.66,12.86-5.56,16.31,4.51-1.33,9.26-2,13-5a23.66,23.66,0,0,0,4.62-5,8.93,8.93,0,0,0,.68-1.85c-.17,3.17,3.49,8.88,4.57,10.18,2.4,2.89,6.1,7.85,9.64,9.29,2.31.94,3.12.84,4.41-1.13s2.49-3.74,3.68-5.65c1.88-3,4.75-6.89,4.52-10.7,1.35,4,7.77,7.51,10.83,8.71a40,40,0,0,0,8.48,2.18c2.06.33,5.05,1.64,7.08,1.38-2.78-2-6.11-16.82-2.16-17.39,1.93-.28,7.31,6.55,8.42,7.92,2.57,3.16,3,6.91,4.34,10.55,2.75.2,7.43-9,8.44-11s4.47-9.92,1.48-11.71C315,515.61,331,516.3,334.27,518.62ZM277.52,454.9c.62-1.16,4.38-1.74,7.74-2a28.09,28.09,0,0,1,.52,9.71C280.91,460.42,276.3,457.18,277.52,454.9Zm-157.1,62.44c-1.16-3.83-1.49-7.67.39-8.17,1-.27,3.34,1.52,5.38,3.32A21.31,21.31,0,0,0,120.42,517.34Zm-107-65.08c-5,.83-9.59,2.86-14.68,3a13.24,13.24,0,0,0-.95-7.32c3.05,3.3,10.87,4,14.39,3.8.32,0,.64-.05,1-.08C13.2,451.82,13.31,452,13.4,452.25Zm-123.16-59.79c.39.09.79.19,1.17.25l.42.06a10.21,10.21,0,0,1-1.78,3.48A12,12,0,0,1-109.76,392.47ZM-5.3,473.53a23,23,0,0,0-3,.76,39,39,0,0,0-6-3.25l-.81-.34c.17-.34.33-.67.47-1s.28-.69.42-1.08a18.29,18.29,0,0,0,7.24,1.86l.64,0A20.38,20.38,0,0,0-5.3,473.53Zm-23.87-14.38c0-.45-.09-1-.16-1.51a6.86,6.86,0,0,0,1,1.72h-.07ZM23.32,434c.43.5.85,1,1.24,1.35a5.11,5.11,0,0,1-3.09-.38A15.34,15.34,0,0,0,23.32,434ZM59.15,313.63q.57.19,1.13.42A2.38,2.38,0,0,1,59.15,313.63ZM-149.08,417.35c.3.93.67,1.9,1.08,2.85a38.37,38.37,0,0,1-3.64,2.31c-.24-.14-.46-.26-.66-.35s-.7-.28-1.05-.42C-152,420.23-150.5,418.71-149.08,417.35Zm56.72,111.12c.13.28.27.53.38.72s.28.49.4.74c-.49-.08-1-.14-1.45-.18Zm296.51-23a8.23,8.23,0,0,0,2.91.36l.09.21q-.7.43-1.41.83A8.64,8.64,0,0,0,204.16,505.49ZM130.91,353.6a8.6,8.6,0,0,1-.76,3.49,12.22,12.22,0,0,1-1-3.64h0A12.56,12.56,0,0,1,130.91,353.6ZM0,326.66c-.07.2-.13.4-.19.61a2.35,2.35,0,0,0-1.23.81A8.79,8.79,0,0,1,0,326.66ZM-126.15,377a10.45,10.45,0,0,0,2.92,4.09,15.9,15.9,0,0,0-3.1,3.8c-.39.65-.82,2.08-1.39,3.17a9.53,9.53,0,0,0-1.69-2.06C-127.67,383.21-126,380.08-126.15,377Zm-74.1,7.62a24.87,24.87,0,0,0-1.32-7,9.34,9.34,0,0,0-1.13-1.73c2.57,2.13,9.67,2.63,11.45,2.54,3.94-.2,10.45-.21,13.88-2.29,2.24-1.36,2.66-2.1,1.82-4.42s-1.59-4.45-2.45-6.65c-.16-.42-.33-.86-.5-1.32a41.64,41.64,0,0,0,4.89-1.18,23,23,0,0,0,5.33-2.83c0,.36,0,.69,0,.95,0,3.07-.92,6.09-1.37,9.12-.78,5.23-1.9,14.15-6.21,17.93,5-1.44,10.21-2.12,14.36-5.49a26.06,26.06,0,0,0,5.11-5.5,9.83,9.83,0,0,0,.76-2c-.2,3.49,3.79,9.79,5,11.23,1.36,1.66,3.11,3.93,5,6a20.47,20.47,0,0,0-2.74-.46c-3.07-.3-6.93-.63-6.21,3.36a24.79,24.79,0,0,0,4.72,11c2.29,2.74,7,5.58,10.78,4.37a11.46,11.46,0,0,0-1.79,1.92,42.59,42.59,0,0,0-4.45-2.28c-.73-.32-3.8-1.87-4.64-1a6.3,6.3,0,0,0-.11,2.52,31.45,31.45,0,0,0-5.72-.92c-2.43-.11-11.53-.68-12.7,2.3.53-1.3,1.59-2.21,2.14-3.63a21.92,21.92,0,0,0,1.27-7.17c.07-3.13-.53-8.94-4.1-10.09-2.8-.9-9.17,1.49-11.7,2.67a36.59,36.59,0,0,0-6.45,3.75,35,35,0,0,1-2.78,2.52c-2.56.71-6.78-4.56-9-5.8-.93-.52-1.9-1-2.88-1.5A21.44,21.44,0,0,0-200.25,384.58Zm71.62,133.81c-.33-2.18-.64-4.37-1-6.54a45.78,45.78,0,0,0-1.81-8.24,10,10,0,0,0,5.9-2.52l.32-.05a16.45,16.45,0,0,0-.53,3.89c-2.83,1.47-6,3.36-3.2,6.37a30.36,30.36,0,0,0,2.31,2.22A38.12,38.12,0,0,1-128.63,518.39Zm52.36,18.24c0-.24.06-.48.07-.71a8.44,8.44,0,0,0-.32-1.83,12.11,12.11,0,0,0,4.1,3.79,7,7,0,0,1,1.22,2.54C-73,539.7-74.64,538-76.28,536.64Z" fill="#030305"/><path d="M134.66,636.78c.08-.25.14-.54.22-.82-.14-.09-.28-.2-.43-.32l-.46.57s0,0,0,.06A5,5,0,0,0,134.66,636.78Z" fill="#0d0d0d"/><path d="M134,636.21l0,0,0,0S134,636.24,134,636.21Z" fill="#0d0d0d"/><path d="M134,636.21l0,0,0,0a5,5,0,0,0,.68.5c.08-.25.14-.54.22-.82-.14-.09-.28-.2-.43-.32Z" fill="#0d0d0d"/><path d="M2022.85,1123.05c-15.85,8.16-35.33,13-53.29,10.22-7-1.07-13.29-1.83-20.28-.12-11.41,2.79-22.59,7.43-33.86,10.84q-17.51,5.31-35.13,10.22-27.15,7.55-54.6,13.95c-62.68,14.5-126.34,23.82-190.21,31.13q-93,8.85-186.27,14-120.9,7.66-242,12.38-213.71,7.23-427.38,2.62c-127.8-2.68-256.32-6.1-383.92-14.48-70.66-4.64-144.13-8.27-213-26.59a95.32,95.32,0,0,1-23.88-7.95q-1.7-1.54-3.33-3.15c-5.53-3.65-14.48-6.5-20.26-9-11.34-4.87-23.08-8.75-34.34-13.78-17.1-7.63-32.76-18.72-48.91-28.17-4.47-2.61-9.09-4.85-13-8.34-1.11-1-2.16-2.59-3.37-3.44-1.62-1.15-3.93-1.38-5.72-2.18-3.58-1.6-6.84-3.61-10.61-5-5.4-1.92-11-3.72-16.49-5.32-4.35-1.27-9.3-1-13.42-2.88s-5.47-5.06-6-9.27c-.38-3-1.46-5.8-1.63-8.81-.14-2.6.36-5-.25-7.54-1.09-4.57-.78-9-1.5-13.76A101.5,101.5,0,0,1-20.86,1043c0-7.24,1.2-12.89,2.67-19.91,1.71-8.14,4.07-16.93,3.72-25.31-.11-2.6-1.37-5.1-4.15-5.7-3.82-.83-5.07,2.7-7.4,4.72-1.48-1.78-1.79-4.52-2-6.77a18,18,0,0,1,0-3.34c-.47-.34-.93-.69-1.38-1.06-1.06,2.74-2.26,5.49-3.56,8.25a88.94,88.94,0,0,1-5.12-13.44c-.32-1.15-.61-2.29-.85-3.42-2.6-12.18-12.32-15.68-14-28-.86-6.33,1.92-12.78,0-19-1.62-5.25-7.25-28.56-8-34-.4-2.92-3-6-6.57-9.14C-77,878.56-93,869.76-93,862c0-4.34,1.36-8.88,0-13l23.38-1.07L16,844c10.27-1.69,50.52.28,82.94,1.83,19.32.94,35.85,1.73,41.59,1.52,10.67-.39,21.37-.43,32.06-.39l8.53,0c12.08.07,23.61-2,35.79-2q14.25,0,28.5,0,20.22,0,40.43,0c2.4,0,5.13-.2,7.76-.16a22.39,22.39,0,0,1,5.3.61c.79.21,2.35,1.41,3.44,1.78,7.3,2.49,15.69,2.22,23.25,3.67,15.67,3,40.59,8.15,55.41,13.1,6.84,2.29,12,10.63,19,13,8.58,2.89,16.22.18,25,2,1.66.34,2.31-.34,4.16,0s4.26.13,6.25.45c4.75.78,16.05,1.22,20.59,2.55,16.16,4.74,21.27,6.07,38,9,9.89,1.73,19.72,3.77,29.54,5.7,4.46.89,8.92,1.75,13.38,2.55a284,284,0,0,0,35.67,4.54q5.14.27,10.34.21c7-.09,13.86,2,21,2h31c13,0,25.9-.44,38.65,1.56,6.56,1,13.22,0,19.85.34,7.75.43,14.86,2.09,22.75,2.1q14.79,0,29.6,0c5.76,0,12.47-1,18.1.31,8.23,1.9,16.56,4.19,24.84,6.08,9,2.07,23.53,4,31.46,9.61,4,2.81,7.88,5.91,11.85,8.94l.87.66.3.23c2,1.48,3.94,2.94,5.94,4.33,5.23,3.62,10.68,9.22,16.81,11.34,12.87,4.46,26.65,3.93,40.06,3.74,8.72-.13,17.79,1.7,26.39,1.1,4.93-.35,9.08.3,14,.81,4.34.44,9.06-.08,13.43-.08,5.29,0,10.58,0,15.86,0,6.74,0,13.1,1.55,19.83,1.49,7.67-.06,14.83.88,22.45,1.89,27,3.57,53.84,6.55,81,6.55h52.72c15.77,0,31.13.28,46.77-1.56,14.16-1.65,28.6.2,42.81-.34,6.84-.26,13.4-2.12,20.26-2.15a74.45,74.45,0,0,0,13.32-1c12-2.14,24.15,0,36.19-1.17,31.88-3.16,63.29-7.81,95.4-7.83,18.77,0,37.74-.84,56.43,1,30,3,61.05,1.09,91.17,1a828,828,0,0,1,91.26,4.57A183.78,183.78,0,0,0,1659,961c6.62-.14,12.72,1.86,19.35,2.1,18.74.68,37.69-.11,56.45-.1,8.73,0,17.81-.93,26.47.35,13.93,2,27.49,4.69,41.62,5.48,10.78.6,21.37,1.55,32.12,2.12,6,.32,12.2,2.46,18.26,3.56,11.39,2.06,22.5,3.57,33.79,6.49,9.31,2.41,18.09,6.38,27.17,9.47,9.32,3.16,14.39,6.88,21.44,13.66,2.55,2.46,4,4.65,7.31,6.11,2.61,1.13,5.42,1.66,8.08,2.61,10.41,3.71,21.19,6.46,31.56,10.24a241.07,241.07,0,0,1,44.06,21c8.33,5.14,16.64,10.35,23.06,17.87,8.13,9.52,8.47,20,4.31,31.53-3.4,9.44-12.32,17.12-20.11,22.77A86.11,86.11,0,0,1,2022.85,1123.05Z" fill="#030305"/><path d="M831.68,1022.94c.21.25.43.51.66.75A1.09,1.09,0,0,0,831.68,1022.94Z" fill="#0d0606"/><path d="M993.15,972.82c.19.29.38.59.6.86A1.15,1.15,0,0,0,993.15,972.82Z" fill="#0d0606"/><path d="M993.54,943.54a4.44,4.44,0,0,0-.16-.6c-.89-2.45-6-5.6-8.23-6.72-.49-.25-1-.49-1.48-.72l-.39-.18-.59-.26c-.28-.13-.56-.24-.84-.35l-.23-.09-.59-.22c-.34-.13-.68-.25-1-.35s-.66-.21-1-.3a30.33,30.33,0,0,1-3.28-.57,1.07,1.07,0,0,1-.16-.14,1.38,1.38,0,0,1-.19-.22,1.65,1.65,0,0,1-.16-.26,1.23,1.23,0,0,1-.12-.26.83.83,0,0,1-.08-.22,2.75,2.75,0,0,1-.08-.27,3.39,3.39,0,0,1-.08-.34,14.87,14.87,0,0,1-.1-3.45c.08-1.46.23-2.9.17-3.89,0-.15,0-.28,0-.41a47.05,47.05,0,0,0-3.44-12c-.3-.66-1.42-3.57-2.52-3.49-.54,0-2.93,3.37-3.29,3.91A28.67,28.67,0,0,0,962,922.68c-1.63-1.08-2-5.09-2.78-6.78a28.07,28.07,0,0,0-4.23-6.54c-3.41-4.13-7.75-7.33-13.11-8.34a21.14,21.14,0,0,1,1.69,3.89c-.29-.44-.59-.89-.92-1.34-.16-.23-.33-.45-.5-.68s-.34-.44-.52-.66l-.45-.54a1.72,1.72,0,0,0-.18-.2c-.15-.17-.3-.34-.46-.5s-.26-.27-.39-.39l-.36-.34c-.14-.13-.29-.25-.43-.36s-.27-.21-.4-.3a3.29,3.29,0,0,0-3.21-.7,107.69,107.69,0,0,1,11.68-13.8l.8-.77.78-.72c.51-.45,1-.87,1.47-1.23l.34-.26a11.09,11.09,0,0,1,1.59-1l.23-.1.26-.1c-4.33-.21-8.78-1.92-13.21-2a49.24,49.24,0,0,0-8.08.33c-.32.05-.63.1-.93.17s-.59.13-.87.21a4.27,4.27,0,0,0-2.73,1.69c.51-1.2,1.46-2.11,2-3.46a21.2,21.2,0,0,0,1.08-6.47c0-.27,0-.53,0-.79,0-3.15-.77-9-4.39-10-2.85-.84-9.19,1.74-11.71,3a37.09,37.09,0,0,0-6.39,3.94,34.1,34.1,0,0,1-2.73,2.62c-2.56.78-6.94-4.41-9.23-5.61a54.28,54.28,0,0,0-13.32-5c-.81-.17-4.22-1.1-4.89,0a7.46,7.46,0,0,0,.5,2.88c-1-.06-2-.09-3.11-.07h-.44a18.81,18.81,0,0,0-2.57.24c-1.63.27-2.92.81-3.36,1.78.59-1.27,1.69-2.13,2.32-3.53a22,22,0,0,0,1.62-7.11,20.94,20.94,0,0,0,0-3q0-.39-.06-.78c0-.2,0-.4-.08-.6,0,0,0,0,0,0h0c0-.21-.06-.41-.1-.62s-.06-.33-.1-.5a9.53,9.53,0,0,0-.29-1.08l-.06-.21c-.06-.18-.13-.35-.2-.52s-.14-.33-.21-.49-.15-.28-.23-.42l-.21-.34a5,5,0,0,0-.57-.72l-.15-.15a3.19,3.19,0,0,0-.34-.3,0,0,0,0,1,0,0,3.94,3.94,0,0,0-.48-.31,3.21,3.21,0,0,0-.53-.25c-2.76-1-9.25,1-11.83,2.11a36.24,36.24,0,0,0-6.63,3.44,32.19,32.19,0,0,1-2.91,2.39,1.82,1.82,0,0,1-.66,0h0a2.28,2.28,0,0,1-.49-.11,3.24,3.24,0,0,1-.53-.21l-.27-.14a4.72,4.72,0,0,1-.55-.33c-.18-.12-.37-.25-.56-.4a1.78,1.78,0,0,1-.28-.22c-.55-.44-1.12-.95-1.67-1.47l-.47-.46a25.29,25.29,0,0,0-3.25-2.93,53.84,53.84,0,0,0-12.85-5.91c-.79-.23-4.11-1.4-4.85-.4-.27.37.29,3.07.67,4.64.11.5.21.89.26,1.05a29.35,29.35,0,0,0,3.92,7.76,12.37,12.37,0,0,1-2.6.19l-.25-.13a.84.84,0,0,1-.21-.16.61.61,0,0,1-.19-.17,2.56,2.56,0,0,1-.21-.24,1.84,1.84,0,0,1-.19-.27,1.74,1.74,0,0,1-.18-.29c-.06-.11-.12-.22-.17-.33a1.48,1.48,0,0,1-.1-.22c-.07-.15-.13-.3-.19-.47s-.14-.38-.2-.58c-.19-.6-.34-1.26-.49-1.93,0-.22-.09-.44-.13-.67a.29.29,0,0,1,0-.09c0-.19-.08-.39-.11-.58a23,23,0,0,0-.93-4,53.41,53.41,0,0,0-7.11-12.18c-.51-.64-2.55-3.5-3.73-3.11-.57.19-2.25,4.49-2.5,5.18a11.61,11.61,0,0,0-.42,1.43c-.08.3-.16.62-.22.95-.11.59-.21,1.2-.29,1.83,0,0,0,.08,0,.12s0,.32,0,.48c-.07.6-.13,1.21-.16,1.81,0,.25,0,.5,0,.76a32,32,0,0,0,0,4.07c0,.4.06.77.11,1.12l-.17-.07a3.23,3.23,0,0,1-.36-.2s0,0,0,0a2.39,2.39,0,0,1-.33-.25,4.42,4.42,0,0,1-.39-.37,6.11,6.11,0,0,1-.51-.61,13.76,13.76,0,0,1-.81-1.19l-.38-.64-.37-.65a22.22,22.22,0,0,0-1.57-2.62,31.42,31.42,0,0,0-6.44-6c-4.88-3.57-10.51-5.85-16.64-5.47l.36.39.36.41a23.78,23.78,0,0,1,2.14,2.89c.3.45.58.92.85,1.41,2.83,5.07,4.44,11.43,3.81,17a17.86,17.86,0,0,1-.36,2.09c0,.16-.07.31-.11.46s-.1.39-.16.58c-5-2.71-10.58-4-15.14-7.62-2.21-1.73-3.8-6.37-6.38-4.55-3.23,2.29-5,8.67-6.63,12l-.38.77a20.57,20.57,0,0,0-2.67-.42c-.83-.06-2.53-.21-4.38-.23-.38-.8-.77-1.58-1.17-2.32a35.1,35.1,0,0,0-2.6-4.12c0-.41.08-.81.1-1.2.16-2.8-.21-8-3.37-9.14-2.48-.89-8.24,1.06-10.53,2a32.54,32.54,0,0,0-5.87,3.16,30,30,0,0,1-2.56,2.18c-2.31.56-5.93-4.27-7.89-5.45a47.49,47.49,0,0,0-11.55-5.1c-.71-.2-3.69-1.2-4.34-.3a.22.22,0,0,0,0,.13,3.34,3.34,0,0,0,.06,1c0,.11,0,.22,0,.33s.09.51.15.77.07.36.11.54c.12.55.25,1.09.36,1.51,0,.14.07.27.1.38s.1.34.12.42a28.81,28.81,0,0,0,5.85,9.66c-1.12.33-2.73-.31-4.25-1a0,0,0,0,1,0,0,26.27,26.27,0,0,0-2.8-1.21,28.49,28.49,0,0,0-7.8-.94c-5.41,0-10.69,1.27-14.94,4.78.45.08.9.18,1.36.3s.7.19,1,.3l.34.11c.24.07.47.16.71.25l.7.27c.46.18.91.38,1.36.59,5.58,2.63,10.84,7.47,12.71,12.82-.84.11-1.67.26-2.49.43-1.63.33-3.24.73-4.85,1.08l-.81.18c-.4.09-.81.17-1.22.24-.78.15-1.57.27-2.36.36-.45.06-.9.09-1.35.12a16,16,0,0,0-1.79-2.45,52.8,52.8,0,0,0-11-8.42c-.7-.39-3.62-2.22-4.54-1.43-.45.39-.38,4.91-.35,5.63,0,.23,0,.46.06.71v0A32.81,32.81,0,0,0,667,870.14a4.56,4.56,0,0,1-2.5-.9c-.2-.12-.4-.26-.61-.41a6.55,6.55,0,0,1-.53-.39l-.27-.2c-.57-.44-1.12-.89-1.63-1.3l-.7-.53a7,7,0,0,0-.7-.46,31,31,0,0,0-8.06-3c-5.75-1.42-11.71-1.4-17.14,1.23.34.15.67.31,1,.48s.67.35,1,.54.44.26.66.4c.66.41,1.32.86,2,1.34a7,7,0,0,1,.64.5h0c5.32,4.23,9.74,10.8,10.35,17-2.78-.3-5.56-.23-8.32-.28l-.78,0c-.27,0-.55,0-.82,0L639,884l-1-.1-1-.13-.51-.08-.69-.12c-.32-.06-.63-.12-.94-.2s-.63-.15-1-.24c-2.64-.74-5.81-4.36-7.47-1.76-1.91,3-1.42,8.65-1.52,12.39-1.06.12-2,.27-2.68.41a38.4,38.4,0,0,0-6.08,1.69c-.71-.58-1.76-1.38-3-2.17l-.59-.37-.4-.24q-.43-.27-.9-.51a14.94,14.94,0,0,0-2.09-1c-.19-.07-.38-.14-.57-.19a7.7,7.7,0,0,0-1.34-.29,4,4,0,0,0-.59,0,3.65,3.65,0,0,0-1.21.19,7.38,7.38,0,0,0-.86-1,52.67,52.67,0,0,0-11.28-8.16c-.72-.37-3.71-2.14-4.62-1.31-.44.39-.24,4.88-.19,5.65v0a31.75,31.75,0,0,0,4.1,11.77,5,5,0,0,1-2.72-.92l-.43-.28,0,0-.14-.1c-.32-.21-.63-.43-.94-.66l-.45-.34a21.64,21.64,0,0,0-2.39-1.69,31.3,31.3,0,0,0-8.2-2.8c-5.84-1.27-11.84-1.08-17.23,1.72a21.51,21.51,0,0,1,2.12,1,25.14,25.14,0,0,1,2.56,1.6,7.08,7.08,0,0,1,.65.47,31.35,31.35,0,0,1,7.16,7.5,22.1,22.1,0,0,1,3.82,9.42c-.48,0-1-.06-1.43-.07-1.17-.05-2.33,0-3.5,0-1.6,0-3.2,0-4.8,0h-.42c-.6,0-1.19,0-1.79-.06l-1-.07-1-.1-.65-.09-.64-.11-.74-.14c-.28-.05-.57-.12-.85-.19-2.68-.68-6-4.23-7.57-1.56-1,1.75-1.28,4.33-1.29,6.93-.28.37-.49.67-.58.8a31.31,31.31,0,0,0-3.94,10.72c-.55-.53-1.12-1.05-1.69-1.56-.62-1.74-1-3.86-1.47-5a31.24,31.24,0,0,0-4.62-7.22c-3.74-4.57-8.5-8.12-14.4-9.26a18.6,18.6,0,0,1,1.17,2.46c.12.29.23.58.34.88s.18.48.25.73.16.48.23.73.15.5.22.75a31.06,31.06,0,0,1,.94,10.46c0,.43-.08.87-.14,1.3s-.12.85-.2,1.27-.14.79-.23,1.18a.19.19,0,0,0,0,.08c-.08.33-.17.66-.26,1,0,.1,0,.19-.08.29-.12.42-.26.84-.41,1.24a.15.15,0,0,1,0,.07c-.09.24-.18.49-.29.74a.2.2,0,0,1,0,.08l-.17.39a9.73,9.73,0,0,1-.6,1.21c-.11.23-.24.45-.37.67-4.07-3.8-9-6.43-12.44-10.94-1.66-2.17-2-7-4.9-5.86-3.62,1.36-6.85,7-9.23,9.72a30,30,0,0,0-4,5.37,15.94,15.94,0,0,0-.83,2.09c0,.13-.09.26-.14.4s-.12.36-.19.55-.18.53-.29.79a7.29,7.29,0,0,1-.91,1.74,1.44,1.44,0,0,1-.22.27.27.27,0,0,1-.07.08,16.59,16.59,0,0,1,.06-5.11v0c0-.34.08-.67.11-1a14.25,14.25,0,0,0,.07-2,42.72,42.72,0,0,0-1.17-7.3c-.69-2.84-2.94-10.23-6.57-10.28-3,0-7.42,5.45-9.43,7.3a19.61,19.61,0,0,0-4,5.21c-.44.83-.9,2.61-1.55,4-3.16-5-15.19-10.49-18.76-7.28.2.14.4.29.59.45s.48.41.72.64l.17.17c.2.21.4.42.59.65a.87.87,0,0,1,.13.15c.19.22.38.44.55.68l.48.65c.16.22.31.45.46.68l0,.05c-1.2.46-2.26.93-3,1.28-.55.27-1.1.56-1.65.86q-.55.3-1.11.63c-.74.43-1.46.89-2.15,1.38q-.53.36-1,.75a31.92,31.92,0,0,1-2.54,2.4c-2.37.72-6.4-4.11-8.51-5.22a49.67,49.67,0,0,0-12.29-4.66c-.75-.16-3.9-1-4.53-.06a1.43,1.43,0,0,0,0,.73c0,.1,0,.2,0,.31s.08.39.13.61l.12.47c.16.65.36,1.33.53,1.9a.88.88,0,0,0,0,.15l.12.39c.1.31.18.54.22.66a30.14,30.14,0,0,0,6.62,9.72c-1.19.42-3-.23-4.69-.9-.73-.29-1.43-.58-2-.79a2.53,2.53,0,0,0-.36-.12,4,4,0,0,0-.39-.11,29.39,29.39,0,0,0-8.16-.54c-5.62.28-11.05,1.92-15.27,5.8q.84.11,1.71.3l.45.1.82.21c.52.14,1,.31,1.57.49.3.11.6.21.9.33,6.09,2.37,12,7.19,14.33,12.78-.9.17-1.78.37-2.66.61-1.36.35-2.7.76-4,1.13l-1,.27c-.64.19-1.27.36-1.91.51l-1,.22c-.54.12-1.08.23-1.63.31q-.41.08-.81.12l-.16,0c-.22,0-.44.06-.66.07-.55.06-1.1.09-1.66.1-2.61,0-6.49-2.39-7.29.44a8.75,8.75,0,0,0-.14,3.3c0,.24.06.49.1.73s.08.49.13.74c.55,2.79,1.67,5.73,2.14,7.83a28.4,28.4,0,0,0,1.87,6.11c.74,1.58,2.79,3.68,3,5.4a16.63,16.63,0,0,1-4-3.11,18.69,18.69,0,0,0-2.1-1.72,40.87,40.87,0,0,0-6.27-3.24c-2.57-1.07-9.51-3.54-11.61-.77a2.76,2.76,0,0,0-.35.63,4.27,4.27,0,0,0-.18.54,3.39,3.39,0,0,0-.1.48,6.57,6.57,0,0,0-.09.66,11.81,11.81,0,0,0,0,1.69q0,.47.06.93c0,.43.08.87.14,1.3.26,2,.67,4,.8,5.14a18.8,18.8,0,0,0,1.74,6c.39.81,1.5,2.18,2.2,3.46a10.45,10.45,0,0,0-2.76.22c-.36.07-.72.15-1.09.25l-.56.16c-.33.09-.67.2-1,.32l-.72.26-.28.11q-.43.16-.87.36l-.18.08q-.48.21-1,.45-.91.45-1.77,1c-.29.17-.58.34-.85.52a18.31,18.31,0,0,0-1.57,1.11q-.34.26-.66.54a8.46,8.46,0,0,0-.7.63l-.3.3a8.1,8.1,0,0,0-1.63,2.27,3.58,3.58,0,0,0-.25.74,3.08,3.08,0,0,0-.08,1,7,7,0,0,1,.85-.24,8.65,8.65,0,0,1,.91-.17,12.6,12.6,0,0,1,2-.17h0a25.11,25.11,0,0,1,8.65,1.6,17.77,17.77,0,0,1,5.87,3.36,49.44,49.44,0,0,0-5,2h0c-.4.19-.78.39-1.16.59h0c-.26.14-.52.28-.78.44s-.69.43-1,.65h0c-.4.27-.78.56-1.17.87l-.42.35c-.17.14-.35.3-.52.46l-.34.32c-.1.09-.21.19-.31.3l-.32.32c-.17.17-.33.34-.49.52s-.6.67-.9,1l-.57.69c-.26.33-.53.67-.78,1-.13.17-.26.35-.38.53l-.32.49a7.35,7.35,0,0,0-.55,1,3.09,3.09,0,0,0-.14.32.78.78,0,0,0-.07.16,3.39,3.39,0,0,0-.26,1.63,2.32,2.32,0,0,0,.05.28,1.52,1.52,0,0,0,.19.54,2.57,2.57,0,0,0,.57.75l.27.24a5.18,5.18,0,0,0,1.18.69c.43.19.87.38,1.33.55a28.4,28.4,0,0,0,12.56,2.08c4.2-.43,10.13-3.21,11.42-7.69.4,4.08,3.3,7.87,3.83,12.09a39.42,39.42,0,0,1,.2,7.14v0c0,.6-.08,1.21-.14,1.81a5.62,5.62,0,0,1-.06.59c-.12,1.17-.27,2.33-.46,3.47-.06.37-.12.74-.19,1.11s-.16.88-.25,1.31a8.13,8.13,0,0,1,.85-.4c2.26-.92,4.77-.84,6.87-2.46a22.74,22.74,0,0,0,4.71-5.22,35.62,35.62,0,0,0,3.44-7.24,21.78,21.78,0,0,0,.84-5.7c.26.22.51.42.71.56,2.37,1.72,4.16,4.17,6.22,6.22,3.58,3.57,9.79,9.48,10.25,14.93,1.37-3.7,3.19-7.25,3.75-11.13a.06.06,0,0,1,0,0,16.14,16.14,0,0,0,.17-3.05c0-.81-.13-1.7-.26-2.61a21.27,21.27,0,0,0-1.07-4.43,8.94,8.94,0,0,0-1.12-1.72c2.57,2.13,9.67,2.63,11.44,2.53,3.94-.2,10.45-.2,13.88-2.29a9.15,9.15,0,0,0,1.29-.89c1.08-.91,1.18-1.76.53-3.53l-1.35-3.73c-.35-1-.71-1.95-1.09-2.92-.63-1.62-1.29-3.53-2.14-5.33a12.28,12.28,0,0,0-4-5.2,7.5,7.5,0,0,0,2.42.33,15.51,15.51,0,0,0,3.71-.55c-.12.12-.25.26-.38.37,1.55-.45,3.12-.82,4.67-1.22,3.41-.89,6.75-1.92,9.59-4.18l.1-.08c.21-.17.41-.34.62-.53s.61-.53.91-.81a23.82,23.82,0,0,0,3.58-4.16,9.36,9.36,0,0,0,.76-2c-.2,3.49,3.8,9.79,5,11.23.69.84,1.47,1.84,2.33,2.88,2.41,2.93,5.36,6.22,8.24,7.4,2.53,1,3.43.94,4.86-1.22s2.76-4.1,4.08-6.2c1-1.54,2.18-3.28,3.17-5.13a21.88,21.88,0,0,0,3.63,6.79c2.29,2.74,7,5.58,10.78,4.37a22.08,22.08,0,0,0-3.9,5c-.26.4-.53.79-.8,1.17-.16.22-.32.43-.49.64s-.34.41-.52.61-.3.33-.46.49l-.49.46a41.49,41.49,0,0,1-11.26,6.68,7.61,7.61,0,0,1,1.44,1l.33.28c.73.64,1.4,1.33,2.19,1.9a6.2,6.2,0,0,0,1.69.9,19.17,19.17,0,0,0,5.88.82,29.9,29.9,0,0,0,6.7-1,18.87,18.87,0,0,0,4.39-2.1c0,.28-.06.55-.06.76a22.85,22.85,0,0,1-.83,4.75c-.21.85-.43,1.7-.59,2.54-.11.55-.22,1.15-.34,1.78a29.24,29.24,0,0,0-5.21,0,13.5,13.5,0,0,0-.6-2.05,5.27,5.27,0,0,0-3.1-3.41c-2-.64-5.74.37-8.66,1.43-1.22.44-2.29.89-3,1.24a35.8,35.8,0,0,0-6.45,3.75,33.38,33.38,0,0,1-2.78,2.52c-2.56.71-6.78-4.55-9-5.8a54,54,0,0,0-13.09-5.28c-.8-.19-4.17-1.2-4.86-.17a1.11,1.11,0,0,0,0,.6c0,.16,0,.35.07.55.08.42.19.91.31,1.42l.15.6c.13.51.27,1,.39,1.41s.26.89.31,1.06a32.44,32.44,0,0,0,6.89,10.58c-1.17.39-2.9-.19-4.54-.87a32.79,32.79,0,0,0-3.43-1.36,31.68,31.68,0,0,0-8.74-.77c-6,.18-11.91,1.82-16.52,5.89l.66.11c.45.08.9.18,1.35.29l.67.18a25.51,25.51,0,0,1,2.76.92c6.61,2.63,13.08,8,15.46,14.2-.85.14-1.69.32-2.53.52-1.57.36-3.11.79-4.66,1.19l-1,.27c-.78.2-1.57.39-2.36.56l-1.2.24-.45.08-.67.11c-.45.07-.91.13-1.37.17l-.68.06c-.57,0-1.14.06-1.72.06-2.8,0-6.91-2.71-7.83.31a11.4,11.4,0,0,0,0,5.08c.53,3,1.67,6.22,2.13,8.49l.24,1.17a22.94,22.94,0,0,1,4.26,7.81,14.77,14.77,0,0,1,.39,7.56c41,29.29,101,20.8,134-32.21,16.76,19.2,36.45,31.33,56.93,36.47,0,0,0,0,0,0a94.6,94.6,0,0,0,61.79-5.47,112.07,112.07,0,0,0,25.06-15.32c.16-.32.35-.62.52-.93,1.62-9.25,9.61-15.82,19.18-16.25,10.31-.46,19.36,9,19.49,19.08a71,71,0,0,0,7.73,6.17,80.37,80.37,0,0,0,18.74,9.5c.32-1.25.56-2.28.68-2.85a38.42,38.42,0,0,0,.6-3.92c0-.44.09-.89.11-1.34.14-2.31,0-4.75-.93-6.1a2.29,2.29,0,0,0-1.25-1,87.11,87.11,0,0,1,11.46-2.34h0c2.33-.34,4.67-.61,6.67-.7.71,0,1.38-.05,2,0h.4c.36,0,.7,0,1,.08a5.58,5.58,0,0,1,.66.12l.32.08a2.29,2.29,0,0,1,.28.09,24.6,24.6,0,0,1-1.87-1.94l-.72-.85-.25-.3c-.24-.3-.48-.61-.73-.91l0-.05-.94-1.17-.76-.93c-.25-.29-.49-.58-.74-.86l-.22-.24q-.41-.46-.84-.9c-.36-.37-.73-.72-1.12-1.05l-.73-.63-.22-.19c-1-.81-2.31-1.92-3.73-2.89-2.21-1.52-4.59-2.69-5.94-1.9,1.13-.65,2.43-.71,3.65-1.43a20.38,20.38,0,0,0,5.06-4.52,18.13,18.13,0,0,0,2.83-4.67q.17-.44.3-.87a2.13,2.13,0,0,0,.09-.34,7.72,7.72,0,0,0,.19-1,5.06,5.06,0,0,0,0-.55,4,4,0,0,0-.65-2.28,4.4,4.4,0,0,0-.28-.36,6.28,6.28,0,0,0-1.24-1l-.52-.33a15.12,15.12,0,0,0-2-1c-.31-.14-.62-.28-.94-.4l-1-.37c-.31-.12-.63-.23-.94-.33l-.51-.17c-.5-.16-1-.31-1.42-.43s-1-.26-1.32-.35a33.24,33.24,0,0,0-6.87-1c-.61,0-3.11.4-3.49.25a2.77,2.77,0,0,1-1.27-1.44c.3.1.59.19.85.25a38.33,38.33,0,0,0,8.26,1.15c1,0,2.32.31,3.59.49l.66.08c.21,0,.43.05.64.06l.33,0a5.68,5.68,0,0,0,1.1,0,4.34,4.34,0,0,0,.52-.09,2.78,2.78,0,0,1-.61-.49l-.22-.23a9.6,9.6,0,0,1-.88-1.23c-.12-.19-.24-.39-.35-.6s-.23-.43-.35-.66-.23-.46-.35-.7c-.27-.59-.54-1.23-.79-1.89-.09-.22-.17-.44-.25-.66s-.24-.69-.35-1-.22-.69-.32-1-.09-.37-.14-.55-.17-.67-.24-1l-.06-.26c-.61-3-.52-5.47,1-5.87,1.79-.47,7.62,5.4,8.82,6.57,2.78,2.71,3.59,6.21,5.25,9.5,1.86-.08,4.14-4.76,5.56-8.19l-.24,1.21c2.54-1.38,5.51-1,8-2.84a23.43,23.43,0,0,0,4.92-5.31,36.42,36.42,0,0,0,3.64-7.41c.09-.25.16-.5.23-.76a15.37,15.37,0,0,1,5.61,1,33.66,33.66,0,0,1-3.09-4.58c1.9,1.69,3.47,3.78,5.24,5.6,3.63,3.72,10,9.89,10.35,15.51,1.49-3.87,3.46-7.59,4.07-11.67v0c0-.18,0-.36.07-.54s0-.55.07-.83,0-.63,0-.94c0-.16,0-.33,0-.49,0-.54,0-1.12-.11-1.71,0-.38-.08-.77-.14-1.16a22.56,22.56,0,0,0-1-4.39,5.54,5.54,0,0,0-.71-1.2c-.13-.2-.28-.4-.42-.6a6.61,6.61,0,0,0,.87.6c3.1,1.74,9.23,2.23,10.88,2.17,4-.15,10.75-.07,14.32-2.17a9.7,9.7,0,0,0,1.43-1,3.22,3.22,0,0,0,.32-.32.53.53,0,0,0,.12-.14l.14-.18a1.81,1.81,0,0,0,.17-.34A3.62,3.62,0,0,0,874,1012c-.8-2.29-1.57-4.6-2.42-6.88-.48-1.28-1-2.75-1.57-4.2-.2-.49-.41-1-.63-1.45a12.37,12.37,0,0,0-4-5.27c4.3,1.46,11.56-1.74,14.61-3.57a34.67,34.67,0,0,0,3.22-2.22c1.27-.33,2.53-.67,3.76-1.1,2.25,2.81,4.08,5.89,4.35,8.85,1.76-4.85,4.26-9.47,4.18-14.74a18.93,18.93,0,0,0,1.56-2.06,8.56,8.56,0,0,0,.68-1.84c-.17,3.17,3.49,8.88,4.57,10.18,2.4,2.89,6.1,7.85,9.64,9.29,2.31.93,3.12.83,4.41-1.13s2.49-3.74,3.69-5.65c1.88-3,4.75-6.88,4.51-10.7,1.35,4,7.78,7.51,10.83,8.71a40,40,0,0,0,8.49,2.18c1.26.2,2.88.78,4.41,1.12l.42.1.41.07a6.08,6.08,0,0,0,1.83.09,2.59,2.59,0,0,1-.59-.6,4.16,4.16,0,0,1-.27-.38c-.14-.22-.28-.47-.43-.74a4.1,4.1,0,0,1-.2-.42,23.83,23.83,0,0,1-1.45-4.09c-.15-.54-.28-1.08-.39-1.63-.07-.3-.13-.61-.19-.91-.1-.52-.18-1-.24-1.54v0c-.48-3.6-.19-6.8,1.61-7.06s7.31,6.55,8.42,7.92c2.58,3.15,3,6.91,4.34,10.55,2.75.2,7.43-9,8.44-11a33.52,33.52,0,0,0,2.22-5.91c.07-.29.14-.57.19-.85.45-2.16.4-4.15-.93-4.95A89.78,89.78,0,0,1,990,971.65a9.66,9.66,0,0,1,3.14,1.17c-2.11-3.18-3.23-7.22-5.48-10.4-.52-.73-1.62-2.31-2.91-3.85-1.72-2.06-3.81-4-5.38-3.82,1.11-.26,2.25-.07,3.47-.43a19.66,19.66,0,0,0,5.71-3,15.94,15.94,0,0,0,4.19-4.45c.13-.22.24-.44.35-.67s.15-.36.21-.54a2.77,2.77,0,0,0,.12-.38,2.11,2.11,0,0,0,.06-.24,2.55,2.55,0,0,0,0-.27,1.24,1.24,0,0,0,0-.27A3.78,3.78,0,0,0,993.54,943.54Zm-532,39.3c-1.35-1.21-2-2.43-1.49-3.43a3.74,3.74,0,0,1,2.3-1.15C462.16,979.8,461.83,981.32,461.52,982.84ZM512,1052.09a36.42,36.42,0,0,0,2-3.3,17.26,17.26,0,0,0,.8-2.89c.58.53,1.14,1.09,1.68,1.67a8.25,8.25,0,0,1-1.68,1.88c.93-.23,1.87-.42,2.81-.62.34.41.66.81,1,1.23C515.75,1050.21,512.9,1050.7,512,1052.09ZM598,1040c.34-1.67.27-3.17-.76-3.85a12.44,12.44,0,0,1,1.32,0,16.48,16.48,0,0,1,.44,4C598.66,1040.14,598.32,1040.08,598,1040Zm51-22.57c-.08-.32-.18-.64-.29-.95a8.34,8.34,0,0,0-.42-1,6.7,6.7,0,0,0,1.13,1,11.05,11.05,0,0,0,2.19,1.16A10.85,10.85,0,0,0,649,1017.45Zm16.68,7.19-.56-.53a13.23,13.23,0,0,0-1.53-1.26,38.81,38.81,0,0,0-6-3.27c-.5-.23-1.19-.51-2-.8a32.83,32.83,0,0,0,7.11.55c1,0,1.92-.14,2.86-.26a19.45,19.45,0,0,0,1.1,3.28c.69,1.55,2.65,3.64,2.86,5.32A15.76,15.76,0,0,1,665.72,1024.64Zm4.42-20.88a6.31,6.31,0,0,1-.74-.06c-.58-1.73-.58-3.12.39-3.74,1.21-.76,5.42,1,8.51,2.49A31.41,31.41,0,0,1,670.14,1003.76Zm72.64,40.47c-1.06-.58-2.15-1.09-3.24-1.58a19.61,19.61,0,0,0,1.91-2.94l.85-.63a12.45,12.45,0,0,0,1.07,2.31A17.44,17.44,0,0,1,742.78,1044.23Zm139.5-169.08c.56-.57,1.13-1.13,1.72-1.7a26.82,26.82,0,0,0,2,2.14A6.15,6.15,0,0,1,882.28,875.15Zm60,49c-1.58-1.45-3.29-2.72-5-4a17.58,17.58,0,0,1,6.36,1A16.38,16.38,0,0,1,942.28,924.18Z" fill="#030305"/><path d="M729.76,1027.49c0,.26,0,.52,0,.79A1.65,1.65,0,0,1,729.76,1027.49Z" fill="#0d0606"/><path d="M531.51,1040.08l-.12-.07.13-.36C531.51,1039.79,531.51,1039.94,531.51,1040.08Z" fill="#0d0606"/><path d="M929,882.86c-.52,1.45-1.56,2.39-2.06,3.71,1.1-3,10.27-2.69,12.72-2.64a42.46,42.46,0,0,1,7.74,1.18c2.16-2.12,4.15-3.74,5.47-4.18-4.33-.21-8.78-1.91-13.21-2-1.7,0-6.65-.2-9.88.71A17.75,17.75,0,0,1,929,882.86Z" fill="#171e29"/><path d="M663.31,859.09a3,3,0,0,1,.29-1.38c.92-.79,3.84,1,4.54,1.43a52.42,52.42,0,0,1,11,8.41,15.92,15.92,0,0,1,1.79,2.45c4.46-.25,8.64-1.82,13.08-2.4A17.61,17.61,0,0,0,691.5,863c-3.54.71-7,1.77-10.59,2a15.92,15.92,0,0,0-1.79-2.45,52.42,52.42,0,0,0-11-8.41c-.7-.39-3.62-2.23-4.54-1.43-.45.39-.38,4.92-.35,5.63C663.26,858.58,663.28,858.83,663.31,859.09Z" fill="#171e29"/><path d="M703.14,836.91a47.85,47.85,0,0,1,11.55,5.1c2,1.18,5.58,6,7.89,5.45a31.3,31.3,0,0,0,2.56-2.17,32.72,32.72,0,0,1,5.87-3.16c2.29-1,8.05-2.93,10.53-2,3.16,1.13,3.52,6.34,3.37,9.14,0,.39-.06.79-.11,1.19a35.38,35.38,0,0,1,2.61,4.13c.4.74.79,1.52,1.16,2.31,1.85,0,3.55.17,4.38.24a20.69,20.69,0,0,1,2.67.41l.37-.77c1.65-3.34,3.41-9.72,6.64-12,2.57-1.82,4.17,2.82,6.37,4.55,4.57,3.58,10.13,4.91,15.15,7.63a21.16,21.16,0,0,0,.63-8.13,18,18,0,0,1-.63,3.13c-5-2.71-10.58-4.05-15.15-7.63-2.2-1.73-3.8-6.37-6.37-4.55-3.23,2.29-5,8.66-6.64,12l-.37.77a20.69,20.69,0,0,0-2.67-.41c-.83-.06-2.53-.22-4.38-.24-.38-.8-.77-1.58-1.16-2.31a35.38,35.38,0,0,0-2.61-4.13c0-.4.09-.81.11-1.19.15-2.8-.22-8-3.37-9.14-2.48-.89-8.24,1.06-10.53,2a32.72,32.72,0,0,0-5.87,3.16,31.3,31.3,0,0,1-2.56,2.17c-2.31.56-5.93-4.27-7.89-5.45a47.85,47.85,0,0,0-11.55-5.1c-.71-.19-3.69-1.2-4.34-.29-.27.38.47,3.43.79,4.65A11.59,11.59,0,0,1,703.14,836.91Z" fill="#171e29"/><path d="M871.83,862.54a17.79,17.79,0,0,1-1,3.25c-.62,1.4-1.73,2.26-2.32,3.53.94-2.1,5.87-2.17,9.48-2a7.61,7.61,0,0,1-.5-2.89c.67-1.06,4.09-.13,4.9,0a53.87,53.87,0,0,1,13.32,5c2.29,1.19,6.67,6.39,9.23,5.61a35.29,35.29,0,0,0,2.73-2.61,36.85,36.85,0,0,1,6.39-3.95c2.51-1.25,8.86-3.83,11.71-3s3.91,4.58,4.25,7.69c.09-.9.14-1.79.14-2.63,0-3.16-.77-9-4.39-10.05-2.85-.84-9.19,1.74-11.71,3a36.85,36.85,0,0,0-6.39,3.95,35.29,35.29,0,0,1-2.73,2.61c-2.56.78-6.94-4.41-9.23-5.61a53.87,53.87,0,0,0-13.32-5c-.81-.17-4.23-1.1-4.9,0a7.61,7.61,0,0,0,.5,2.89A29,29,0,0,0,871.83,862.54Z" fill="#171e29"/><path d="M793.91,837.18a31.64,31.64,0,0,1,6.44,6c1.27,1.64,2.84,5.91,4.93,6.64a30.13,30.13,0,0,1-.17-5.08c-2-.89-3.52-5-4.76-6.56a31.64,31.64,0,0,0-6.44-6c-4.88-3.56-10.51-5.85-16.65-5.46a25,25,0,0,1,3.7,5.09A27.12,27.12,0,0,1,793.91,837.18Z" fill="#171e29"/><path d="M825.83,844.17a53.59,53.59,0,0,1,12.84,5.91c2.18,1.35,6.15,6.83,8.74,6.24a35.06,35.06,0,0,0,2.9-2.39,36.65,36.65,0,0,1,6.63-3.44c2.58-1.06,9.07-3.15,11.83-2.11,2.26.85,3.2,3.56,3.52,6.23,0-.31.08-.63.1-.93.22-3.13-.1-9-3.62-10.3-2.76-1-9.25,1-11.83,2.11a36.65,36.65,0,0,0-6.63,3.44,35.06,35.06,0,0,1-2.9,2.39c-2.6.59-6.56-4.89-8.74-6.24a53.59,53.59,0,0,0-12.84-5.91c-.79-.23-4.11-1.4-4.85-.4-.27.37.29,3.07.67,4.65C822.89,843.18,825.19,844,825.83,844.17Z" fill="#171e29"/><path d="M806.32,837.2c.25-.69,1.93-5,2.5-5.18,1.18-.39,3.22,2.47,3.73,3.11a53.44,53.44,0,0,1,7.1,12.18c1,2.35,1.11,9.09,3.57,10.1a12.13,12.13,0,0,0,2.61-.19,36.68,36.68,0,0,1-2.86-5c-2.21-1.36-2.35-7.68-3.32-10a53.44,53.44,0,0,0-7.1-12.18c-.51-.64-2.55-3.5-3.73-3.11-.57.19-2.26,4.49-2.5,5.18a32.07,32.07,0,0,0-1.15,11.46A25.57,25.57,0,0,1,806.32,837.2Z" fill="#171e29"/><path d="M690.7,848.18a28.33,28.33,0,0,1,7.8.94c1.78.52,5.16,2.79,7.06,2.22a30.73,30.73,0,0,1-4.25-6,25.26,25.26,0,0,0-2.81-1.22,28.33,28.33,0,0,0-7.8-.94c-5.41,0-10.69,1.28-14.94,4.78a22.47,22.47,0,0,1,5.52,1.82A26,26,0,0,1,690.7,848.18Z" fill="#171e29"/><path d="M649,1022.45a11.2,11.2,0,0,1,2.61.21,9.17,9.17,0,0,1-3.32-2.12A8.51,8.51,0,0,1,649,1022.45Z" fill="#171e29"/><path d="M666.67,1027.35a18.37,18.37,0,0,1-.94-2.71l-.56-.53c-.81.1-1.62.18-2.45.22a33,33,0,0,1-7.11-.55c.79.29,1.48.57,2,.8a38.87,38.87,0,0,1,6,3.28c1.93,1.32,3.79,3.85,5.9,4.81C669.32,1031,667.36,1028.9,666.67,1027.35Z" fill="#171e29"/><path d="M669.4,1008.7a5.33,5.33,0,0,0,.74.06,31.44,31.44,0,0,0,8.17-1.31c-3.09-1.48-7.31-3.25-8.51-2.49C668.82,1005.58,668.82,1007,669.4,1008.7Z" fill="#171e29"/><path d="M598,1045l1,.2a16.87,16.87,0,0,0-.44-4c-.59,0-1.05,0-1.32,0C598.26,1041.85,598.33,1043.35,598,1045Z" fill="#171e29"/><path d="M652,867.93a31,31,0,0,1,8.06,3c1.77,1,4.78,4.31,6.94,4.19a31.9,31.9,0,0,1-2.51-5.9c-1.62-1-3.29-2.64-4.44-3.29a31,31,0,0,0-8.06-3c-5.76-1.42-11.72-1.4-17.14,1.23a24.5,24.5,0,0,1,5.26,3.26A27.66,27.66,0,0,1,652,867.93Z" fill="#171e29"/><path d="M942.28,929.18a16.27,16.27,0,0,0,1.38-3,17.59,17.59,0,0,0-6.36-1h0C939,926.46,940.7,927.73,942.28,929.18Z" fill="#171e29"/><path d="M975.74,938.18a31,31,0,0,0,3.28.57,32.42,32.42,0,0,1,6.13,2.46c1.88,1,5.92,3.42,7.6,5.64a4.63,4.63,0,0,0,.63-3.91c-.89-2.45-6-5.6-8.23-6.73a32.42,32.42,0,0,0-6.13-2.46,31,31,0,0,1-3.28-.57,2.67,2.67,0,0,1-.87-1.71C974.7,934,974.41,937.2,975.74,938.18Z" fill="#171e29"/><path d="M971.47,975.07a2.1,2.1,0,0,1,.75.8c.07-.28.13-.56.19-.84C972,975,971.68,975,971.47,975.07Z" fill="#171e29"/><path d="M943.56,904.91a20.32,20.32,0,0,0-4.61-5.32,49.32,49.32,0,0,0-3.21,4.3c2.57-1.08,5.75,2.83,7.82,6a21.14,21.14,0,0,0-1.69-3.89c5.36,1,9.7,4.21,13.11,8.35a28.07,28.07,0,0,1,4.23,6.53c.74,1.69,1.15,5.7,2.78,6.78a28.6,28.6,0,0,1,3.65-10.58c.36-.54,2.75-3.86,3.29-3.9,1.1-.08,2.22,2.83,2.53,3.49A46.77,46.77,0,0,1,974.77,928a27,27,0,0,0,.12-4.3,47.41,47.41,0,0,0-3.43-12c-.3-.66-1.43-3.57-2.53-3.49-.53,0-2.92,3.37-3.29,3.9A28.6,28.6,0,0,0,962,922.68c-1.63-1.08-2-5.1-2.78-6.78a28.07,28.07,0,0,0-4.23-6.53c-3.41-4.13-7.75-7.33-13.11-8.35A21.14,21.14,0,0,1,943.56,904.91Z" fill="#171e29"/><path d="M847.14,1022.7a23.31,23.31,0,0,1,1.1,5.1,16.07,16.07,0,0,0,.16-2.83,28.36,28.36,0,0,0-.25-2.88,7.59,7.59,0,0,1-2.15-1.18A9.62,9.62,0,0,1,847.14,1022.7Z" fill="#171e29"/><path d="M793.84,1045.4c-1.68-.92-4-6.07-4.9-10.33-.94,1.95.12,6.59,1.66,10.29A9,9,0,0,0,793.84,1045.4Z" fill="#171e29"/><path d="M886,880.59a25.44,25.44,0,0,1-2-2.14c-.58.57-1.16,1.14-1.72,1.7A6.11,6.11,0,0,0,886,880.59Z" fill="#171e29"/><path d="M799.62,1055.38l0,.08c.7-1.78.93-3.64,0-5.08-1.31-1.94-5.89-3.61-8.77-4.42,1,2.19,2.08,3.95,3,4.45-1.89.47-4.86-.45-6.84-.54a38.06,38.06,0,0,1-8.26-1.14l-.85-.25a2.73,2.73,0,0,0,1.28,1.43,32.57,32.57,0,0,0,3.48-.25,34,34,0,0,1,6.87,1C792,1051.2,798.09,1053.1,799.62,1055.38Z" fill="#171e29"/><path d="M742.78,1049.23a16.71,16.71,0,0,0,.59-2.84,13.36,13.36,0,0,1-1.07-2.31l-.85.63a19.7,19.7,0,0,1-1.91,2.94C740.63,1048.14,741.72,1048.65,742.78,1049.23Z" fill="#171e29"/><path d="M729.81,1033.28c0-.26,0-.53-.05-.79A1.71,1.71,0,0,0,729.81,1033.28Z" fill="#171e29"/><path d="M398.21,961.74c5.41-.09,10.22-2.38,15.45-3.36A18.15,18.15,0,0,0,411,954c-4.24,1.1-8.31,2.68-12.79,2.75-2.61,0-6.49-2.39-7.28.44A10.6,10.6,0,0,0,391,962C392,959.51,395.68,961.78,398.21,961.74Z" fill="#171e29"/><path d="M421.46,925.95a49.82,49.82,0,0,1,12.29,4.66c2.11,1.11,6.14,5.94,8.51,5.23a32.61,32.61,0,0,0,2.54-2.4,34.07,34.07,0,0,1,5.93-3.62c.72-.35,1.78-.83,3-1.28a15.6,15.6,0,0,0-3.13-3.64,33.78,33.78,0,0,0-5.79,3.54,32.61,32.61,0,0,1-2.54,2.4c-2.37.71-6.4-4.11-8.51-5.23a49.82,49.82,0,0,0-12.29-4.66c-.75-.16-3.9-1-4.53-.06-.25.39.58,3.2,1,4.56A13.46,13.46,0,0,1,421.46,925.95Z" fill="#171e29"/><path d="M409.15,938.37a29.51,29.51,0,0,1,8.16.54c1.88.44,5.53,2.62,7.46,1.92a31.91,31.91,0,0,1-4.69-5.9,23.18,23.18,0,0,0-2.78-1,29.51,29.51,0,0,0-8.16-.54c-5.63.28-11,1.93-15.27,5.8a23.12,23.12,0,0,1,5.44,1.43A27,27,0,0,1,409.15,938.37Z" fill="#171e29"/><path d="M491.21,940.94c1.29-1.28,1.79-4.32,2.65-5.93a29.84,29.84,0,0,1,4-5.37c2.39-2.75,5.61-8.35,9.23-9.72,2.88-1.09,3.24,3.69,4.9,5.86,3.44,4.5,8.36,7.14,12.44,10.94,2.4-4,3.25-9.32,2.82-14.49a21.89,21.89,0,0,1-2.82,9.49c-4.08-3.8-9-6.43-12.44-10.94-1.66-2.17-2-7-4.9-5.86-3.62,1.37-6.84,7-9.23,9.72a29.84,29.84,0,0,0-4,5.37c-.85,1.58-1.35,4.52-2.59,5.84A16.19,16.19,0,0,0,491.21,940.94Z" fill="#171e29"/><path d="M453.68,923.48c5,.28,12.65,4.39,15.07,8.21.65-1.38,1.1-3.17,1.55-4a19.51,19.51,0,0,1,4-5.21c2-1.85,6.45-7.33,9.43-7.3,3.63,0,5.88,7.44,6.57,10.27a46.47,46.47,0,0,1,1,5.41,19.85,19.85,0,0,0,.17-3.11,41.8,41.8,0,0,0-1.17-7.3c-.69-2.83-2.93-10.22-6.57-10.27-3,0-7.42,5.44-9.43,7.3a19.51,19.51,0,0,0-4,5.21c-.45.83-.9,2.62-1.55,4-3.16-5-15.19-10.49-18.77-7.28A14.47,14.47,0,0,1,453.68,923.48Z" fill="#171e29"/><path d="M518.56,1055.06c-.31-.42-.64-.83-1-1.23-.94.2-1.87.39-2.8.62a8.53,8.53,0,0,0,1.68-1.88q-.81-.86-1.68-1.67a17.27,17.27,0,0,1-.8,2.89c-.56,1.42-1.61,2.34-2.14,3.63C512.47,1055.78,515.54,1055.22,518.56,1055.06Z" fill="#171e29"/><path d="M531.51,1045.08a4.16,4.16,0,0,1,0-.43l-.13.36Z" fill="#171e29"/><path d="M588.72,885.87c.91-.83,3.89.94,4.61,1.31a52.8,52.8,0,0,1,11.29,8.16,8.09,8.09,0,0,1,.86,1c3.1-1.1,8.48,2.81,10.64,4.57a38.18,38.18,0,0,1,6.09-1.69c.68-.13,1.62-.28,2.67-.41.1-3.73-.39-9.38,1.52-12.38,1.66-2.61,4.83,1,7.47,1.76,5.48,1.55,11,.7,16.59,1.29a19,19,0,0,0-1.3-5.1c-5.13-.36-10.24.24-15.29-1.19-2.64-.75-5.81-4.37-7.47-1.76-1.91,3-1.42,8.65-1.52,12.38-1.06.12-2,.27-2.67.41a38.18,38.18,0,0,0-6.09,1.69c-2.16-1.76-7.54-5.67-10.64-4.57a8.09,8.09,0,0,0-.86-1,52.8,52.8,0,0,0-11.29-8.16c-.72-.37-3.71-2.14-4.61-1.31-.44.4-.24,4.89-.19,5.66A1.31,1.31,0,0,1,588.72,885.87Z" fill="#171e29"/><path d="M511.14,1036.53c2.12.68,3.19,3,3.7,5.46a29.16,29.16,0,0,1,5.21,0l.34-1.77c.47-2.42,1.34-4.82,1.42-7.3,0-.21,0-.48.07-.76l-.89.52c-.21.85-.42,1.7-.59,2.54L520,1037a29.16,29.16,0,0,0-5.21,0,13,13,0,0,0-.6-2.05,24.5,24.5,0,0,1-3.46.33,19.29,19.29,0,0,1-5.88-.83,7.11,7.11,0,0,1-2.42-1.47c-1.21.44-2.29.89-3,1.24a36.59,36.59,0,0,0-6.45,3.75,35,35,0,0,1-2.78,2.52c-2.56.71-6.78-4.56-9-5.8a53.5,53.5,0,0,0-13.09-5.28c-.8-.19-4.17-1.2-4.86-.17-.25.38.43,3,.88,4.57a13.08,13.08,0,0,1,4,.6,53.5,53.5,0,0,1,13.09,5.28c2.24,1.24,6.46,6.51,9,5.8a35,35,0,0,0,2.78-2.52,36.59,36.59,0,0,1,6.45-3.75C502,1038,508.34,1035.63,511.14,1036.53Z" fill="#171e29"/><path d="M984.76,958.57a14.54,14.54,0,0,1-1.91.75c-1.3.39-2.51.14-3.71.48,2.72-.81,7.27,5.87,8.52,7.63a27,27,0,0,1,2.35,4.23,9.85,9.85,0,0,1,3.14,1.17c-2.11-3.18-3.23-7.21-5.49-10.4C987.15,961.69,986.05,960.11,984.76,958.57Z" fill="#171e29"/><path d="M374,977.45c2.1-2.76,9-.3,11.61.78a39.88,39.88,0,0,1,6.27,3.24c2,1.32,4,3.87,6.16,4.82-.25-1.72-2.3-3.82-3-5.4a18.93,18.93,0,0,1-1-2.71,17.48,17.48,0,0,0-2.1-1.72,39.88,39.88,0,0,0-6.27-3.24c-2.57-1.08-9.51-3.54-11.61-.78-.95,1.25-.86,3.78-.54,6.23A3.4,3.4,0,0,1,374,977.45Z" fill="#171e29"/><path d="M365.72,1003c3.63-2.78,9.08-5,12.51-4.72-.7-1.28-1.81-2.64-2.19-3.46-.21-.44-.39-.88-.57-1.32-5.85,1.14-13.84,6.16-13.47,10.07A12.24,12.24,0,0,1,365.72,1003Z" fill="#171e29"/><path d="M396.33,1038.29a58.71,58.71,0,0,1-1.09,8.32,7.64,7.64,0,0,1,.85-.4A45.83,45.83,0,0,0,396.33,1038.29Z" fill="#171e29"/><path d="M433,1033.17c0-.82-.12-1.71-.25-2.61a7.52,7.52,0,0,1-2.2-1.16,9.34,9.34,0,0,1,1.13,1.73,22.85,22.85,0,0,1,1.16,5.09A15.74,15.74,0,0,0,433,1033.17Z" fill="#171e29"/><path d="M380.27,1013a16.69,16.69,0,0,0-5-3,20.53,20.53,0,0,0-7.46,5.88c-2.07,2.5-4.56,5.6-2,7.62a28.94,28.94,0,0,1,2-2.62C371.52,1016.29,375,1014.79,380.27,1013Z" fill="#171e29"/><path d="M577.32,896.49a31.26,31.26,0,0,1,8.2,2.81c1.81,1,4.93,4.2,7.11,4a32.22,32.22,0,0,1-2.71-5.93c-1.61-1-3.26-2.49-4.4-3.09a31.26,31.26,0,0,0-8.2-2.81c-5.83-1.27-11.83-1.08-17.22,1.73a24.62,24.62,0,0,1,5.32,3.08A27.91,27.91,0,0,1,577.32,896.49Z" fill="#171e29"/><path d="M538.51,920.48a30.91,30.91,0,0,1,4.62,7.22c.49,1.15.85,3.27,1.47,5,.58.51,1.15,1,1.69,1.56a31.4,31.4,0,0,1,3.94-10.72l.58-.81c0-2.6.25-5.18,1.29-6.92,1.6-2.67,4.89.88,7.57,1.56,5.56,1.4,11.11.39,16.73.83a19.12,19.12,0,0,0-1.44-5.07c-5.13-.2-10.21.53-15.3-.76-2.68-.68-6-4.23-7.57-1.56-1,1.75-1.28,4.33-1.29,6.92l-.58.81a31.4,31.4,0,0,0-3.94,10.72c-.55-.53-1.11-1.05-1.69-1.56-.62-1.74-1-3.87-1.47-5a30.91,30.91,0,0,0-4.62-7.22c-3.74-4.57-8.5-8.12-14.39-9.26a24.27,24.27,0,0,1,2.2,5.55A25.83,25.83,0,0,1,538.51,920.48Z" fill="#171e29"/><path d="M455.3,1018.58c.67,1.72,1.29,3.45,1.91,5.18,1.07-.91,1.17-1.76.53-3.53-.81-2.22-1.59-4.45-2.45-6.65-.63-1.62-1.29-3.53-2.14-5.33a9.2,9.2,0,0,1-4-.2C452.48,1010.25,453.94,1015.1,455.3,1018.58Z" fill="#171e29"/><path d="M517.17,1015.31a7.08,7.08,0,0,1-3.9,0,16.46,16.46,0,0,1-2.76,3.37,41.45,41.45,0,0,1-11.26,6.68c1.55.79,2.58,2.17,4,3.16a36.59,36.59,0,0,0,7.3-4.84C513.22,1021.33,514.5,1017.51,517.17,1015.31Z" fill="#171e29"/><path d="M434.52,1067.6a11.32,11.32,0,0,0,0,5.08l0-.08c.92-3,5-.32,7.83-.31,5.81,0,11-2.32,16.66-3.26a19.25,19.25,0,0,0-2.53-4.49c-4.7,1.08-9.2,2.77-14.13,2.74C439.55,1067.28,435.44,1064.58,434.52,1067.6Z" fill="#171e29"/><path d="M471.34,1050.44a33.66,33.66,0,0,1-4.55-5.87,32.71,32.71,0,0,0-3.42-1.36,31.67,31.67,0,0,0-8.75-.77c-6,.18-11.9,1.82-16.52,5.89a24.53,24.53,0,0,1,5.42,1.51,28.71,28.71,0,0,1,11.1-2.4,31.67,31.67,0,0,1,8.75.77C465.39,1048.72,469.25,1051.14,471.34,1050.44Z" fill="#171e29"/><path d="M461.52,987.84c.31-1.52.64-3,.81-4.57a3.76,3.76,0,0,0-2.3,1.15C459.48,985.41,460.17,986.63,461.52,987.84Z" fill="#171e29"/><path d="M952.89,880.92c.4,0,.8,0,1.19,0A1.3,1.3,0,0,0,952.89,880.92Z" fill="#0d0606"/><path d="M145,319.46c.35,0,.7.08,1.05.09A1.16,1.16,0,0,0,145,319.46Z" fill="#0d0d0d"/><path d="M115.15,543.2c.27.25.54.5.83.73C115.9,543.61,115.6,543.38,115.15,543.2Z" fill="#0d0d0d"/><path d="M19.56,863.58c.06-.13.13-.28.21-.49l0-.1,0,0C19.15,864.09,19.34,864.12,19.56,863.58Z" fill="#0d0d0d"/><path d="M334.27,518.62c.19.29.38.59.6.86A1.15,1.15,0,0,0,334.27,518.62Z" fill="#0d0d0d"/><path d="M55.91,598.94l1-4.19,2-8.62L60,581.71l.28-1.11c.11-.42.26-1,.39-1.48.05-.18.11-.35.16-.52l-.71-.07-.54-.08L59,581.12l-2,8.63-1,4.19-1.11,4.21A337.11,337.11,0,0,0,46.91,634a163.43,163.43,0,0,0-2,27.53,171.54,171.54,0,0,1,2-22.53,337.11,337.11,0,0,1,7.89-35.89Z" fill="#171e29"/><path d="M46.93,572.4c0,.13.07.25.1.38l0-.2Z" fill="#171e29"/><path d="M-1.29,460.21c5.1-.1,9.71-2.13,14.68-3-.08-.22-.19-.43-.29-.65-.32,0-.64.06-1,.08a29.75,29.75,0,0,1-11-1.67,22.27,22.27,0,0,1-2.4.19c0-.48.07-1,.09-1.43a6.83,6.83,0,0,1-1-.89A13.24,13.24,0,0,1-1.29,460.21Z" fill="#171e29"/><path d="M59.15,318.63a2.38,2.38,0,0,0,1.13.42Q59.71,318.82,59.15,318.63Z" fill="#171e29"/><path d="M24.56,440.37c-.4-.39-.82-.86-1.24-1.35a15.34,15.34,0,0,1-1.85,1A5.11,5.11,0,0,0,24.56,440.37Z" fill="#171e29"/><path d="M5.49,581.79a14.54,14.54,0,0,1-2,7.17c.64-.38,1.29-.74,1.94-1.09A37.5,37.5,0,0,0,5.49,581.79Z" fill="#171e29"/><path d="M2,329.17c1.73-.18,4.08,2.09,6.11,2.67,5.48,1.55,11,.7,16.59,1.29a19,19,0,0,0-1.3-5.1c-5.13-.36-10.24.24-15.29-1.19A28.16,28.16,0,0,1,4,324.7,22.27,22.27,0,0,1,2,329.17Z" fill="#171e29"/><path d="M-42.49,299.35c.91-.83,3.89.94,4.61,1.31a52.8,52.8,0,0,1,11.29,8.16c1.85,1.72,4.64,7.77,7.26,7.69a34.52,34.52,0,0,0,3.26-1.76A36.11,36.11,0,0,1-9,312.69c2.7-.53,9.36-1.31,11.84.22a4.83,4.83,0,0,1,2,3.26c.46-3,.39-6.75-2-8.26s-9.14-.75-11.84-.22a36.11,36.11,0,0,0-7.06,2.07,34.52,34.52,0,0,1-3.26,1.76c-2.62.08-5.41-6-7.26-7.69a52.8,52.8,0,0,0-11.29-8.16c-.72-.37-3.71-2.14-4.61-1.31-.44.4-.24,4.89-.19,5.66A1.31,1.31,0,0,1-42.49,299.35Z" fill="#171e29"/><path d="M26.26,311.6a31,31,0,0,1,8.06,3c1.77,1,4.78,4.31,6.94,4.19a31.9,31.9,0,0,1-2.51-5.9c-1.62-1-3.29-2.64-4.44-3.29a31,31,0,0,0-8.06-3c-5.76-1.42-11.72-1.4-17.14,1.23a24.5,24.5,0,0,1,5.26,3.26A27.66,27.66,0,0,1,26.26,311.6Z" fill="#171e29"/><path d="M32.69,835.38a41.34,41.34,0,0,0,2-6.12l1-4.15c.35-1.48.74-3.08,1.19-4.78s1-3.49,1.58-5.37l.47-1.39.27-.75q.27-.76.53-1.57c.35-1.09.68-2.25,1-3.5s.64-2.54,1-4.05l1.06-4.37.53-2.18.07-.27,0-.14s0,0,0,0h0a.61.61,0,0,0,.06-.15,18.46,18.46,0,0,0,.26-2.92c0-.82.09-1.82.19-3,0-.57.11-1.19.19-1.82l.14-1,.14-.83c.77-4.26,1.73-7.24,2.2-9.27.46-1.85.82-4.42,1.3-7.68.25-1.63.54-3.43.94-5.36.2-1,.45-2,.7-3s.47-1.69.7-2.47c.93-3.1,1.7-5.5,2.08-7.24a63.16,63.16,0,0,0,.91-7.39c.08-.84.19-1.78.32-2.75l.22-1.52.16-1q.15-.75.24-1.56c.08-.52.13-1.08.18-1.64a58.1,58.1,0,0,0,.17-7.22c0-.08,0-.18,0-.26,0,.85-.08,1.68-.16,2.48-.06.55-.1,1.12-.18,1.64s-.14,1.06-.24,1.56l-.16,1-.22,1.52c-.13,1-.23,1.9-.32,2.75a63.16,63.16,0,0,1-.91,7.39c-.38,1.74-1.16,4.14-2.08,7.24-.23.78-.47,1.6-.7,2.47s-.5,2-.7,3c-.4,1.93-.7,3.74-.94,5.36-.48,3.26-.84,5.82-1.3,7.68-.46,2-1.42,5-2.2,9.27l-.14.83-.14,1c-.08.63-.14,1.25-.19,1.82-.1,1.14-.15,2.13-.19,3a18.46,18.46,0,0,1-.26,2.92.61.61,0,0,1-.06.15h0s0,0,0,0l0,.14-.07.27-.53,2.18-1.06,4.37c-.37,1.51-.68,2.8-1,4.05s-.66,2.41-1,3.5q-.26.81-.53,1.57l-.27.75L38.43,810c-.62,1.88-1.14,3.69-1.58,5.37s-.83,3.3-1.19,4.78l-1,4.15a41.34,41.34,0,0,1-2,6.12l-3.37,7.87c-2.37,5.62-4.72,11.39-6.91,17.35l-.82,2.24-.82,2.33L20,862.4l-.22.59a8.15,8.15,0,0,1,.68-.93c.16-.19.38-.47.6-.68s.43-.42.75-.72a9.33,9.33,0,0,1,.78-.61c2.14-5.77,4.4-11.35,6.7-16.8Z" fill="#171e29"/><path d="M227.29,515.6c0-.24,0-.54,0-.86l-.53.34c-.24,1.27-.52,2.54-.7,3.8-.69,4.76-1.66,12.86-5.56,16.31,1.14-.34,2.3-.63,3.46-.93a61,61,0,0,0,2.1-10.38C226.49,521.14,227.34,518.39,227.29,515.6Z" fill="#171e29"/><path d="M205.75,511.89q.71-.4,1.41-.83l-.09-.21a8.23,8.23,0,0,1-2.91-.36A8.64,8.64,0,0,1,205.75,511.89Z" fill="#171e29"/><path d="M236.49,376.21c-.62,1.4-1.73,2.26-2.32,3.53,1.31-2.93,10.39-1.91,12.82-1.69a40.15,40.15,0,0,1,7.28,1.65c2.27-1.92,4.34-3.36,5.68-3.7-4.28-.53-8.57-2.54-13-2.95a40.87,40.87,0,0,0-9.45-.09A17.78,17.78,0,0,1,236.49,376.21Z" fill="#171e29"/><path d="M282.17,415.22c-.52,1.45-1.56,2.39-2.06,3.71,1.1-3,10.27-2.69,12.72-2.64a42.48,42.48,0,0,1,7.74,1.18c2.16-2.12,4.15-3.74,5.47-4.18-4.33-.21-8.78-1.91-13.21-2-1.7,0-6.65-.2-9.88.71A17.75,17.75,0,0,1,282.17,415.22Z" fill="#171e29"/><path d="M285.78,467.57a27.39,27.39,0,0,0,.09-5.85c0,.28-.05.57-.09.85a27.73,27.73,0,0,1-6.39-3.76,3.2,3.2,0,0,0-1.88,1.09C276.3,462.18,280.91,465.42,285.78,467.57Z" fill="#171e29"/><path d="M258,402.47c-2.56.78-6.94-4.41-9.23-5.61-.62-.32-1.25-.63-1.89-.94a13.89,13.89,0,0,0-2-2.22,47.45,47.45,0,0,0-3.36,3.88c1.8-.6,3.71,1.13,5.31,3.34.64.31,1.27.62,1.89.94,2.29,1.19,6.67,6.39,9.23,5.61a35.26,35.26,0,0,0,2.73-2.61,36.85,36.85,0,0,1,6.39-3.95c2.51-1.25,8.86-3.83,11.71-3s3.91,4.58,4.25,7.69c.09-.9.14-1.79.14-2.63,0-3.16-.77-9-4.39-10.05-2.85-.84-9.19,1.74-11.71,3a36.85,36.85,0,0,0-6.39,3.95A35.26,35.26,0,0,1,258,402.47Z" fill="#171e29"/><path d="M300.32,461.7a21,21,0,0,0-1.24-2.36,32.26,32.26,0,0,0-5.18-1.55,30.3,30.3,0,0,1,2.2,2.37,28.07,28.07,0,0,1,4.23,6.53c.74,1.69,1.15,5.7,2.78,6.78a28.6,28.6,0,0,1,3.65-10.58c.36-.54,2.75-3.86,3.29-3.9,1.1-.08,2.22,2.83,2.53,3.49a46.76,46.76,0,0,1,3.32,11.33,27,27,0,0,0,.12-4.3,47.41,47.41,0,0,0-3.43-12c-.3-.66-1.43-3.57-2.53-3.49-.53,0-2.92,3.37-3.29,3.9a28.6,28.6,0,0,0-3.65,10.58C301.47,467.4,301.06,463.39,300.32,461.7Z" fill="#171e29"/><path d="M316.86,484a31,31,0,0,0,3.28.57,32.42,32.42,0,0,1,6.13,2.47c1.88,1,5.92,3.42,7.6,5.64a4.63,4.63,0,0,0,.63-3.91c-.89-2.45-6-5.6-8.23-6.73a32.42,32.42,0,0,0-6.13-2.47,31,31,0,0,1-3.28-.57,2.67,2.67,0,0,1-.87-1.71C315.81,479.84,315.53,483,316.86,484Z" fill="#171e29"/><path d="M298.61,445.52a63.72,63.72,0,0,1,4.28,10.13l.13,0c2-2.38-3.19-12.84-4.41-15.17-.84-1.6-3.64-6.54-6.51-8.56a49.35,49.35,0,0,0-3.21,4.31C292.56,434.73,297.46,443.3,298.61,445.52Z" fill="#171e29"/><path d="M312.58,520.87a2.1,2.1,0,0,1,.75.8c.07-.28.13-.56.19-.84C313.11,520.83,312.79,520.85,312.58,520.87Z" fill="#171e29"/><path d="M184.14,329.64c.25-.69,1.93-5,2.5-5.18,1.18-.39,3.22,2.47,3.73,3.11a53.44,53.44,0,0,1,7.1,12.18c1,2.35,1.11,9.09,3.57,10.1a35,35,0,0,0,3.74-.29,36.55,36.55,0,0,1,7.39,1c2.71.62,9.21,2.62,10.87,5.05,1,1.44.84,3.28.21,5.08,2.87-1.1,8.67-2.84,11.24-1.87,2.26.85,3.2,3.56,3.52,6.23,0-.31.08-.63.1-.93.22-3.13-.1-9-3.62-10.3-2.57-1-8.37.77-11.24,1.87.63-1.8.77-3.64-.21-5.08-1.66-2.43-8.15-4.44-10.87-5.05a36.55,36.55,0,0,0-7.39-1,35,35,0,0,1-3.74.29c-2.46-1-2.56-7.75-3.57-10.1a53.44,53.44,0,0,0-7.1-12.18c-.51-.64-2.55-3.5-3.73-3.11-.57.19-2.26,4.49-2.5,5.18A32.07,32.07,0,0,0,183,336.1,25.57,25.57,0,0,1,184.14,329.64Z" fill="#171e29"/><path d="M124,320.5c-.54,1.26-1.51,2-2,3.18,1.13-2.63,9.25-1.85,11.42-1.68a33.36,33.36,0,0,1,6.11,1.26c2.19-1.95,4.22-3.46,5.5-3.8-3.83-.41-7.68-2.15-11.61-2.46a36.7,36.7,0,0,0-8.4,0A16.52,16.52,0,0,1,124,320.5Z" fill="#171e29"/><path d="M83.62,301.82a47.85,47.85,0,0,1,11.55,5.1c2,1.18,5.58,6,7.89,5.45a31.3,31.3,0,0,0,2.56-2.17,32.72,32.72,0,0,1,5.87-3.16c2.29-1,8.05-2.93,10.53-2,2.05.74,2.92,3.2,3.24,5.6.06-.5.1-1,.13-1.46.15-2.8-.22-8-3.37-9.14-2.48-.89-8.24,1.06-10.53,2a32.72,32.72,0,0,0-5.87,3.16,31.3,31.3,0,0,1-2.56,2.17c-2.31.56-5.93-4.27-7.89-5.45a47.85,47.85,0,0,0-11.55-5.1c-.71-.19-3.69-1.2-4.34-.29-.27.38.47,3.43.79,4.65A11.6,11.6,0,0,1,83.62,301.82Z" fill="#171e29"/><path d="M77.16,792l0,.27v1.13c0-.68,0-1.31,0-1.88C77.19,791.66,77.17,791.83,77.16,792Z" fill="#171e29"/><path d="M37.58,302.76a3,3,0,0,1,.29-1.38c.92-.79,3.84,1,4.54,1.43a52.42,52.42,0,0,1,11,8.41c1.1,1.09,2.52,3.82,4.05,5.75a23.4,23.4,0,0,1,13.74-3.89A28.33,28.33,0,0,1,79,314c1.78.52,5.16,2.79,7.06,2.22a30.73,30.73,0,0,1-4.25-6A25.27,25.27,0,0,0,79,309a28.33,28.33,0,0,0-7.8-.94A23.4,23.4,0,0,0,57.44,312c-1.53-1.93-2.95-4.67-4.05-5.75a52.42,52.42,0,0,0-11-8.41c-.7-.39-3.62-2.23-4.54-1.43-.45.39-.38,4.92-.35,5.63C37.54,302.25,37.56,302.5,37.58,302.76ZM60.28,314a2.38,2.38,0,0,1-1.13-.42Q59.71,313.82,60.28,314Z" fill="#171e29"/><path d="M140.46,332.17c-2.19,1.55-3.7,5-5,8a19.88,19.88,0,0,0-3.36-4.56,46,46,0,0,0-3.24,3.84c2.33-.82,4.93,2.78,6.6,5.72,1.26-3.09,2.77-6.5,5-8,2.57-1.82,4.17,2.82,6.37,4.55,4.57,3.58,10.13,4.91,15.15,7.63a21.16,21.16,0,0,0,.63-8.13,18,18,0,0,1-.63,3.13c-5-2.71-10.58-4.05-15.15-7.63C144.63,335,143,330.35,140.46,332.17Z" fill="#171e29"/><path d="M171.73,329.62a31.65,31.65,0,0,1,6.44,6c1.27,1.64,2.84,5.91,4.93,6.64a30.13,30.13,0,0,1-.17-5.08c-2-.89-3.52-5-4.76-6.56a31.65,31.65,0,0,0-6.44-6c-4.88-3.56-10.51-5.85-16.65-5.46a25,25,0,0,1,3.7,5.09A27.12,27.12,0,0,1,171.73,329.62Z" fill="#171e29"/><path d="M149.36,540.41a59.64,59.64,0,0,1-1.28,9.2,8,8,0,0,1,.93-.42A46.66,46.66,0,0,0,149.36,540.41Z" fill="#171e29"/><path d="M120.42,522.34a21.31,21.31,0,0,1,5.77-4.85,27.23,27.23,0,0,0-3.35-2.61,24.71,24.71,0,0,0-2.42,2.46c-.23-.77-.43-1.55-.59-2.3C119.13,516.48,119.53,519.41,120.42,522.34Z" fill="#171e29"/><path d="M130.15,362.09a8.6,8.6,0,0,0,.76-3.49,12.56,12.56,0,0,0-1.74-.15h0A12.22,12.22,0,0,0,130.15,362.09Z" fill="#171e29"/><path d="M186.95,533.41a7.59,7.59,0,0,1-2.15-1.18,9.61,9.61,0,0,1,1.14,1.79,23.31,23.31,0,0,1,1.1,5.1,16.07,16.07,0,0,0,.16-2.83A28.35,28.35,0,0,0,186.95,533.41Z" fill="#171e29"/><path d="M288.29,527.22c-.54,2.46.07,6.66,1.1,10.07a7.9,7.9,0,0,0,2.67.25C290.54,536.48,288.86,531.56,288.29,527.22Z" fill="#171e29"/><path d="M106.92,534a54.4,54.4,0,0,0-4.68-3.71A16.08,16.08,0,0,1,100,532c-1.22.72-2.52.78-3.66,1.43,2.57-1.51,8.9,4.13,10.62,5.61a29,29,0,0,1,3.57,3.84,13.07,13.07,0,0,1,4.66.36C112.19,540.5,110,536.67,106.92,534Z" fill="#171e29"/><path d="M325.88,504.37a14.54,14.54,0,0,1-1.91.75c-1.3.39-2.51.14-3.71.48,2.72-.81,7.27,5.87,8.52,7.63a27,27,0,0,1,2.35,4.23,9.85,9.85,0,0,1,3.14,1.17c-2.11-3.18-3.23-7.21-5.49-10.4C328.26,507.49,327.17,505.91,325.88,504.37Z" fill="#171e29"/><path d="M92.35,550.9c1.22.37,1.82,1.71,2.08,3.39a24,24,0,0,0,.11-4C93.51,550.55,92.74,550.76,92.35,550.9Z" fill="#171e29"/><path d="M80.22,703.21a128.39,128.39,0,0,0-5.56-19c-1-2.75-1.85-5.35-2.58-7.81-.37-1.23-.69-2.42-1-3.58s-.51-2.52-.78-3.78a105.22,105.22,0,0,1-1.6-16.93,111.33,111.33,0,0,0,1.6,21.93c.26,1.26.5,2.56.78,3.78s.59,2.35,1,3.58c.73,2.46,1.62,5.05,2.58,7.81a128.39,128.39,0,0,1,5.56,19c1.11,5.9,2.29,12,3,18.74.23,2.25.4,4.57.47,7,0-.47,0-.93,0-1.4a87.72,87.72,0,0,0-.5-10.57C82.5,715.2,81.32,709.11,80.22,703.21Z" fill="#171e29"/><path d="M306,413.28c.4,0,.8,0,1.19,0A1.3,1.3,0,0,0,306,413.28Z" fill="#0d0d0d"/><path d="M259.94,376c.39,0,.79.1,1.18.12A1.3,1.3,0,0,0,259.94,376Z" fill="#0d0d0d"/><polygon points="123 345 146 372 115 364 123 345" fill="#05060a"/><polygon points="213 498 213 515 194 516 194 498 213 498" fill="#05060a"/><polygon points="29 428 38 447 9 440 29 428" fill="#05060a"/><polygon points="133 512 126 525 112 519 112 503 133 512" fill="#05060a"/><polygon points="447 891 610 911 739 1015 625 1073 314 1068 290 920 447 891" fill="#030305"/><path d="M23,845c1,0,17,3,17,3L21,873,10,851Z" fill="#05060a"/><polygon points="68 982 74 1029 -10 1029 -7 974 68 982" fill="#05060a"/><path d="M899,1016.5v49.75c-22.51,33.81-74.7,46.54-114,32.5a80.37,80.37,0,0,1-18.74-9.5,67.76,67.76,0,0,1-24.72-30.75q-3.6,4.61-7.39,8.76c-12.1,13.24-25.64,23-39.87,29.24a94.65,94.65,0,0,1-61.81,5.47c-20.48-5.14-40.17-17.27-56.93-36.47-33,53.09-93.14,61.53-134.15,32.09A92.45,92.45,0,0,1,426,1083.7a99.29,99.29,0,0,1-10.48-14.2c-35,62-107,52-138-3-16,52-102,54-136-5-21.24,28.32-46.94,41.27-71.1,39.89a61.89,61.89,0,0,1-22.54-5.69c-11.05-5.11-20.48-13.26-28-22.75a117.86,117.86,0,0,1-9.78-14.64c-.65-1.13-.18-2.38-.47-3.62-.58-2.5-3.15-3.36-5.24-4.32a24.8,24.8,0,0,1-4.58-2.11,20.48,20.48,0,0,1-3-3.25c-.74-.85-1.54-1.64-2.29-2.49a19.66,19.66,0,0,1-2-3.16c-1-1.77-2.39-3.45-2.59-5.55a9.58,9.58,0,0,1,.33-4.32c.74-1.85,2.93-3.76,4.64-4.77a22.93,22.93,0,0,1,3.7-1.4c1-.38,2-.84,2.94-1.28,1.52-.69,3.16-1,4.7-1.62,1.07-.44,1.3-1,1.89-1.9a3.84,3.84,0,0,1,3.71-2H899Z" fill="#030305"/><polygon points="-13 433 -47 472 0 503 59 464 15 425 -13 433" fill="#030305"/><path d="M2081.36,710.94c-3.93-2.62-7.17-6.76-11.26-9.32-2.26-1.41-10.64-6.87-13.29-4.53,1.17-1,2.65-1.34,3.91-2.46a24.64,24.64,0,0,0,4.91-6.45c1.68-3.08,4.09-9.18,1.28-12.24-2.21-2.4-9.51-3.44-12.52-3.62a38,38,0,0,0-8.08.27c-.7.11-3.49,1.13-3.95,1-2.81-.66-4.12-8.17-5.61-10.61l-.08-.13c.74-.36,1.47-.74,2.2-1.14,1.66-.92,4.54-1.63,5.86-3-3.07.1-13.55-9.19-11-11.86,1.24-1.3,8.83.79,10.38,1.18,3.57.92,5.92,3.49,8.86,5.48,2.09-1.41.49-11,.09-13.09s-2.16-10-5.3-9.65c1.6-1.57,13.52-10.11,17.14-10.22-3.25-1.19-6.25-3.6-9.61-4.71-1.86-.62-8.76-3.06-10.29-.91.68-.93,1.69-1.43,2.41-2.46a18.66,18.66,0,0,0,2.48-5.5c.71-2.51,1.45-7.32-1.06-9-2-1.34-7.4-.8-9.59-.4a28.33,28.33,0,0,0-5.76,1.62,27.59,27.59,0,0,1-2.67,1.43c-2.13,0-4.29-5.15-5.76-6.64a43,43,0,0,0-9-7.1l-.24-.14c.55-2.92.88-5.59,1-6.75.32-2.88,1.16-14.31-3.17-15.22,2.78-1.39,22.14-7.55,27-6.11-3.86-3-6.89-7.56-10.92-10.52-2.23-1.64-10.46-7.94-13.37-5.75,1.28-.94,2.83-1.17,4.22-2.22a25.25,25.25,0,0,0,5.54-6.25c2-3,4.9-9.14,2.23-12.52-2.1-2.66-9.55-4.32-12.65-4.75a39.33,39.33,0,0,0-8.35-.37c-.73.06-3.68.88-4.15.73-2.85-.91-3.64-8.76-5-11.4a65.26,65.26,0,0,0-7.82-11.93c-.41-1.19-.77-2.16-1-2.7-.89-2.29-4.72-11.19-8.31-10,1.53-2.22,13.61-15.05,17.83-16-4.07-.62-8.1-2.72-12.28-3.23-2.31-.28-10.93-1.49-12.24,1.38.59-1.25,1.66-2.08,2.29-3.46a22.58,22.58,0,0,0,1.7-7c.28-3.11.1-8.92-3.22-10.31-2.61-1.1-8.83.83-11.32,1.82a34.35,34.35,0,0,0-6.39,3.27,33.64,33.64,0,0,1-2.82,2.31c-2.49.53-6.14-5-8.19-6.4a50.2,50.2,0,0,0-12.1-6.17c-.75-.25-3.89-1.49-4.61-.51-.35.48.59,5,.75,5.68a32.54,32.54,0,0,0,5.84,11c-2,.55-5.55-2.12-7.44-2.77-.63-.22-1.27-.4-1.92-.56.94-3.36,1.58-6.86,1.8-8.18.44-2.62,1.78-13-2.14-14.09,2.61-1.12,20.62-5.7,25-4.11-3.38-3-5.92-7.28-9.46-10.21-2-1.62-9.17-7.83-11.94-6,1.22-.79,2.65-.92,4-1.8a23,23,0,0,0,5.38-5.41c1.94-2.67,4.94-8.09,2.67-11.33-1.79-2.55-8.52-4.47-11.33-5a36.05,36.05,0,0,0-7.62-.8,34.49,34.49,0,0,1-3.83.44c-2.56-1-2.89-8.21-4-10.69a57.67,57.67,0,0,0-7.7-12.79c-.55-.67-2.74-3.66-3.94-3.2-.58.22-2.17,4.89-2.4,5.63-1.1,3.55-1.25,9.8-.65,13.5-2.17-.7-3.92-5.22-5.28-6.93a32.94,32.94,0,0,0-6.81-6.16c-5.13-3.65-11-5.9-17.28-5.27,6.06,6.16,10.13,18,7.92,26.74-5.25-2.73-11-4-15.81-7.64-2.32-1.77-4.11-6.68-6.69-4.65l-.08.07a30.17,30.17,0,0,0-8.14-.67,31.36,31.36,0,0,0-6.58,1,30.37,30.37,0,0,1-3.14,1.21c-2.35-.28-4.08-6.29-5.51-8.14a48.64,48.64,0,0,0-9.05-9.11c-.6-.44-3-2.49-4-1.84-.45.32-.85,4.59-.89,5.27a31.13,31.13,0,0,0,2.16,11.52c-2-.12-4.35-3.55-5.84-4.7a27.81,27.81,0,0,0-7-3.71c-5.06-2-10.44-2.58-15.62-.68,6,3.66,11.49,12,12,19.49a45.63,45.63,0,0,0-9-4.38c-.72-.25-3.75-1.49-4.47-.56-.23.31.07,2.36.35,3.9-.57-.18-1.14-.39-1.7-.63-2.31-1-4.8-4.74-6.57-2.46-2,2.54-2.16,7.66-2.61,11.17a25,25,0,0,0-8.31,1.25c-2-2.12-6.92-6.71-9.71-5.06-2.37,1.4-3.33,8-4.07,10.54a19.34,19.34,0,0,0-.73,6.19c0,.9.49,2.59.62,4-4.8-2.58-16.81-1.31-18.15,3.05a10.14,10.14,0,0,1,2.41.53,18.51,18.51,0,0,0-5,3.08,25.32,25.32,0,0,1,12.89,7.42,19.21,19.21,0,0,0-9.8,2.48c-2.67,1.43-5.89,3.22-4.77,5.91a1.63,1.63,0,0,0-1.9,1.2c-.58,1.79-.28,4.21.21,6.58-1.76.2-3.3.68-3.7,1.71.41-1,1.22-1.73,1.65-2.86a18,18,0,0,0,1-5.66c.08-2.48-.33-7.08-3-8-2.12-.74-7,1.1-8.89,2a27.49,27.49,0,0,0-4.92,2.92,27,27,0,0,1-2.13,2c-1.95.54-5.11-3.66-6.8-4.66a39.67,39.67,0,0,0-9.89-4.28c-.6-.16-3.15-1-3.68-.17-.26.4.7,3.91.86,4.47a25.7,25.7,0,0,0,5.14,8.43c-1.6.54-4.51-1.4-6-1.83a23.08,23.08,0,0,0-6.63-.68,18.85,18.85,0,0,0-12.58,4.53c6.18,1,13.49,6.34,15.74,12.59-4.28.69-8.26,2.51-12.67,2.44-2.13,0-5.22-2.2-5.94.18-.91,3,1,7.85,1.49,10.76a25,25,0,0,0,1.36,5.24c.57,1.36,2.18,3.2,2.34,4.66-1.76-.87-3.29-3.08-4.89-4.26a32.13,32.13,0,0,0-5-2.92c-2.06-1-7.66-3.26-9.43-1-1.46,1.88-.24,7.46-.08,9.67a16.37,16.37,0,0,0,1.27,5.14c.29.7,1.16,1.89,1.7,3-4.57-.48-13.71,4.42-13.47,8.31.21-.07.43-.12.66-.17-.79.69-1.48,1.31-2,1.72a19.81,19.81,0,0,0-4.45,4.91c-.53.8-1.16,2.59-1.94,3.93-2.59-5.46-13.84-12.41-17.7-9.51,4.24,3.81,6.89,13.78,5.65,19.43-4.42-3.94-7.57-6.33-13.56-7.34-3.73-.63-8.43-1.36-7.86,3.79.54,4.84,2.17,10.46,4.93,14.39,2.59,3.68,8.18,7.69,12.86,6.44-3.44,2.6-5.31,7.38-8.81,10.18a50.11,50.11,0,0,1-14.3,7.61c2.51,1.54,3.72,4.42,6.59,5.63a22.81,22.81,0,0,0,7.14,1.53,35.35,35.35,0,0,0,8.28-.75,22.26,22.26,0,0,0,5.54-2.33c-.07.36-.11.7-.14,1a25.75,25.75,0,0,1-1.05,4.91c-.89-.58-1.73-.78-2.47.12-2.05,2.51-2.16,8-2.78,11.06a26.48,26.48,0,0,0-.74,5.66,8.59,8.59,0,0,0,.11,1.14,17.27,17.27,0,0,1-1.14,1.77,30,30,0,0,0-1.6-3.6,35.49,35.49,0,0,0-3.72-5c-1.61-1.83-6.14-6.43-8.76-5-2.15,1.2-3.17,7.12-3.88,9.34a17.31,17.31,0,0,0-.79,5.53c0,.81.38,2.33.47,3.63-4.24-2.42-15-1.58-16.32,2.29,4.61.49,10.93,5.94,12.65,10.39-4.79-.49-8-.56-12.52,1.72-2.81,1.42-6.34,3.24-3.61,6.45a25.18,25.18,0,0,0,9.87,7.32c3.43,1.22,9,1.18,11.65-2-1.15,3.46-.25,7.62-1.35,11.25a44.52,44.52,0,0,1-6.24,12.22c2.4-.19,4.53,1.16,7,.56a19.15,19.15,0,0,0,5.54-2.48,30.8,30.8,0,0,0,5.28-4.59,19.76,19.76,0,0,0,2.7-4.31c.12.28.24.53.34.72,1.23,2.28,1.75,4.93,2.62,7.38.28.79.6,1.68.93,2.64a23.22,23.22,0,0,0,1,7.13,1.44,1.44,0,0,0-.91.44c-2.23,2.1-3,7.28-3.91,10.06l-.35,1c-.58-.28-1.16-.54-1.73-.79a37.23,37.23,0,0,0-5-1.76c-1.56-2.18-4.85-6.16-7.25-5.21-2.17.85-3.82,6.3-4.75,8.3a16.33,16.33,0,0,0-1.39,5.1c-.09.76.09,2.24,0,3.47-3.7-2.82-14-3.41-15.63.08,4.28,1,9.6,7,10.7,11.4-4.45-1.07-7.48-1.55-12,0-2.82,1-6.35,2.24-4.16,5.61a24.29,24.29,0,0,0,8.44,8.16,13.13,13.13,0,0,0,3.65,1.19,3.6,3.6,0,0,0,0,.47,10.43,10.43,0,0,1,1.09-.32,10.29,10.29,0,0,0,4.12-.38c.58,0,1.18.06,1.79.12-.87,2.85-.8,6.18-2,9a41.68,41.68,0,0,1-7.31,10.71c2,.11,3.66,1.31,5.67,1.44-.4,1.69.12,3.24,2.53,4.34,4.67,2.13,10.62,3.62,15.74,3.17a22.22,22.22,0,0,1,.06,2.52,25.85,25.85,0,0,0-2.95.38c-3.88.74-8.75,1.73-6.47,6.58,2.14,4.56,5.62,9.5,9.65,12.36,3.77,2.68,10.61,4.59,14.8,1.66-2.51,3.8-2.76,9.18-5.26,13.21a54.44,54.44,0,0,1-11.52,12.68c3,.61,5.13,3,8.37,3.15a23.73,23.73,0,0,0,7.53-1.08,36.16,36.16,0,0,0,6.78-3.08,24.62,24.62,0,0,0-1.06,7c0,1.13.47,3.28.55,5.1-5.87-3.54-21-2.71-22.95,2.68,6.45.84,15.15,8.69,17.43,15-6.7-.84-11.21-1-17.61,2-4,1.89-9,4.34-5.26,8.93,3.5,4.31,8.53,8.65,13.63,10.59,4.77,1.82,12.64,1.95,16.39-2.4-1.72,4.81-.58,10.68-2.23,15.74a62.29,62.29,0,0,1-9.12,16.93c3.38-.19,6.31,1.77,9.84,1a26.81,26.81,0,0,0,7.84-3.3,43.08,43.08,0,0,0,7.54-6.27,27.64,27.64,0,0,0,3.91-6c.16.39.32.75.46,1,1.66,3.24,2.3,7,3.45,10.43,2,6,5.59,16.06,3.21,22.45,4.29-4.29,9.26-7.91,11.69-13.78a32.24,32.24,0,0,0,2.28-8.66,12.18,12.18,0,0,0-.31-2.56c1.66,3.82,9.06,8.28,11,9.15,4.36,1.93,11.39,5.5,16.21,5,3.13-.3,4-.91,4.3-4s.63-5.88.86-8.84c.37-4.67,1.35-10.93-1.13-15.26a10.55,10.55,0,0,0,3.9,2.31c0,.18,0,.37,0,.55.52,5.89,1.64,15.88-1.88,21.13,4.81-2.9,10.09-5,13.55-9.8a29.54,29.54,0,0,0,3.92-7.34,11.39,11.39,0,0,0,.27-2.4c.69,3.85,6.46,9.62,8.06,10.87,3.55,2.77,9.17,7.64,13.64,8.34,2.91.46,3.81.1,4.75-2.62s1.83-5.2,2.67-7.82c1.33-4.16,3.56-9.62,2.23-14.12,2.65,4.37,11,6.75,14.84,7.31a45.3,45.3,0,0,0,10.34.17c2.45-.2,6.25.51,8.51-.39-3.73-1.55-11.66-18.38-7.28-20.2,1.34-.56,5,1.83,8,4-.58,3-1.53,5.86-3.21,7.72,7.87-3.26,12.38-7.05,15.91,2.28a76.57,76.57,0,0,1,5.36,28.1c0,9.48-1.18,17.45-2.45,26.65-1.43,10.31-.24,21-2.11,31.44a216.47,216.47,0,0,0-3.33,35.5c-.12,8.54-3.29,15.68-1.6,24.35l.26,1.26.07.32,0,.14,0,.28q.18,1.1.35,2.6l.77,7.29a23.8,23.8,0,0,0,1.93,7.67c1,2.34,1.32,5,2.49,7.24a6.18,6.18,0,0,1,.47,3.27,19.32,19.32,0,0,0,.39,3.28,41.69,41.69,0,0,1,.11,5.59,15.53,15.53,0,0,0,1,6.47c2.15,5.21,7.19,9.51,11.84,12.48,5.89,3.76,13.45,4.63,20.16,6,3.48.69,7.79,1.42,10.88-.89,4.38-3.27,4.86-9.52,4.6-14.54-.13-2.38-1.08-4.52-1-7,0-2.13-2.18-3.8-3.37-5.51a20,20,0,0,1-2.38-3.5c-.53-1.26-.79-2.68-1.21-4-1.19-3.76-2.45-7.5-3.75-11.22l-1.31-3.72-.65-1.84-.29-.82-.16-.39a35.1,35.1,0,0,1-1.33-5.05c-.46-2.2-.91-4.84-1.56-7.92-.32-1.53-.69-3.18-1.17-4.93l-.18-.66-.09-.33,0-.15-.19-.61-.36-1.3c-.24-.9-.47-1.89-.69-2.95l-.7-3.52-.74-3.82-.37-1.91s0-.22,0-.17,0,.07-.06.07a13.1,13.1,0,0,1-.15-2.44c0-.75,0-1.68-.09-2.75,0-.52-.07-1.12-.12-1.72l-.09-.91-.09-.75c-.21-1.49-.44-2.8-.66-3.93l-2.31-110.54a23.41,23.41,0,0,0,2.1,2.32c2.63,2.37,6.78,6.51,10.24,7.32,2.25.52,3,.3,3.86-1.78s1.71-4,2.5-6c1.14-2.88,2.91-6.56,2.64-9.9l.59.08c2.44,2.95,7.84,4.88,10.49,5.46a35.61,35.61,0,0,0,8.09.72c1.93,0,4.87.76,6.69.18-1.08-.54-2.52-2.86-3.7-5.58a2.82,2.82,0,0,0,.26-.16c2.14.32,4,1.61,6.31,1.35a18,18,0,0,0,4.58-1.25c.83,1.62,1.52,3.32,2.41,5,2.16-.21,4.54-7,5.59-10.43a31,31,0,0,0,2.2-3c.09.29.18.56.26.77,1,2.43,1.19,5.14,1.78,7.69,1,4.41,2.94,11.86.82,16.26,3.35-2.76,7.13-5,9.25-9a23,23,0,0,0,2.19-6,8.8,8.8,0,0,0-.05-1.86c.93,2.84,5.93,6.56,7.27,7.32,3,1.69,7.78,4.74,11.24,4.75,2.26,0,2.91-.36,3.33-2.54s.83-4.16,1.19-6.25c.57-3.31,1.68-7.71.19-11,2.48,3,9.07,3.85,12,3.83a34.84,34.84,0,0,0,7.87-1.07c1.84-.44,4.8-.33,6.42-1.28-3-.75-10.81-12.6-7.67-14.5,1.53-.92,8.36,3.18,9.75,4,3.23,1.86,4.86,5,7.2,7.73,2.38-.79,3.22-10.48,3.38-12.66a33,33,0,0,0-.15-6.12,28.84,28.84,0,0,0,7.39-8.31c3.8-1.14,7.59-2,9.22-1.58a56.44,56.44,0,0,1-5.42-5l2.72-.13a37.19,37.19,0,0,0,6.52,4.84c4.1,2.14,10.69,6,15.36,5.89,3-.09,3.9-.63,4.38-3.58s.95-5.64,1.34-8.48c.62-4.49,1.93-10.48-.21-14.81,3.47,3.95,12.4,4.77,16.41,4.6a47.07,47.07,0,0,0,10.57-1.81c2.46-.68,6.46-.67,8.6-2-4.07-.87-15.12-16.49-11-19.19,2-1.32,11.41,3.89,13.33,4.92,4.44,2.36,6.77,6.52,10,10.09,3.17-1.18,3.9-14.28,4-17.23s.12-13.88-4.11-14.43C2058.31,717.33,2076.54,709.92,2081.36,710.94Zm-59.55-42.51a3.14,3.14,0,0,1-1.14-.49,9.13,9.13,0,0,0-1.66-3.44,6.57,6.57,0,0,0,2.1.94A29.07,29.07,0,0,0,2021.8,668.43ZM1905.92,454.21a28.51,28.51,0,0,1,10.39,6.17,28.2,28.2,0,0,1-2.8,12.21c-.47.07-.94.13-1.42.19q-1-1-2.08-1.85a53.69,53.69,0,0,0-2-6.06c-.79-1.48-1.67-3-2.61-4.45a14.26,14.26,0,0,0,5.35-.66C1909.5,459.29,1907.63,457,1905.92,454.21Zm94.56,226.1c-.47-.17-.94-.31-1.41-.46a10.25,10.25,0,0,0-.49-1.65,7.27,7.27,0,0,0,1.92,1.84C2000.48,680.13,2000.48,680.22,2000.47,680.31Zm-4.14-78.88c.35.4.69.82,1,1.25a31,31,0,0,0-1.92,7.33c-1.53-1.05-1.93-5-2.63-6.61-.22-.52-.47-1-.73-1.52A32.79,32.79,0,0,0,1996.33,601.43Zm-81.44-152a21.82,21.82,0,0,0-9.56,3.78c-2.94-5.18-5.12-11.69-2.55-12.91,1.75-.83,7.92,3.47,10.77,5.51A28.35,28.35,0,0,1,1914.89,449.43ZM1781,402.5a7.05,7.05,0,0,1-.72-1c.25.29.5.58.74.88C1781,402.43,1781,402.47,1781,402.5ZM1661.07,510a9.2,9.2,0,0,1,0-2.11c.47,0,.93,0,1.38,0h.06A6.64,6.64,0,0,1,1661.07,510Zm1.4-18.13-1,.33c-.08-.45-.17-.93-.28-1.42A10,10,0,0,1,1662.47,491.89ZM1873.61,806.2l.14.12c-.23.37-.47.74-.71,1.1C1873.24,807,1873.43,806.61,1873.61,806.2Zm128.15-220c4.4,2.79,6.5,7.27,9.61,11.22a3.43,3.43,0,0,0,1.76-1.79,27.55,27.55,0,0,0,2,4.86c-1.77.11-4.25-2.68-5.69-3.53a24.69,24.69,0,0,0-6.6-2.52,21.13,21.13,0,0,0-10.72-.12c-3.62-5.5-6.58-12.74-3.78-14.27C1990.56,578.9,1999.86,585,2001.76,586.25Zm-21.17-84.19c.36,0,.7.07,1,.12a40,40,0,0,0,.75,7.84c-2.41-.63-4.59-5.44-6.17-7.22-.29-.33-.61-.62-.92-.93C1977.6,501.88,1979.78,502,1980.59,502.05Zm-358.51,72.41a3.69,3.69,0,0,1-.11,1,6.24,6.24,0,0,1-.59-.85Zm-8.5,138.27a15.47,15.47,0,0,0,3.48-4.2c.26-.49.52-1,.77-1.59l.69-.49a22.38,22.38,0,0,1,3.49,8.82A36.12,36.12,0,0,0,1613.58,712.74Zm363.65,57-.51-.44c.11-.48.21-1,.28-1.42a11.81,11.81,0,0,0-.15-2.5,12.87,12.87,0,0,0,3.21,4.31Z" fill="#030305"/><path d="M1905.92,459.21c.25.41.5.81.76,1.19.69,0,1.36,0,2-.12A23.18,23.18,0,0,0,1905.92,459.21Z" fill="#171e29"/><path d="M1905.33,458.21a20.64,20.64,0,0,1,2.32-1.43c-.58-.77-1.16-1.64-1.73-2.57a24.12,24.12,0,0,1,3.85,1.6,23.23,23.23,0,0,1,5.13-1.37,28.34,28.34,0,0,0-1.33-3.62l-1.21-.86a21.21,21.21,0,0,0-7,3.26,34.55,34.55,0,0,1-3.18-7.36C1900.68,447.87,1902.7,453.57,1905.33,458.21Z" fill="#171e29"/><path d="M1893.09,829.75l.94-.75c0-.67-.07-1.35-.14-2A9.55,9.55,0,0,1,1893.09,829.75Z" fill="#171e29"/><path d="M1912.09,472.78q-1-1-2.08-1.85c-.66-2-1.17-4.26-1.74-5.61-.91.08-1.88.09-2.83.09.94,1.47,1.82,3,2.61,4.45a53.7,53.7,0,0,1,2,6.06q1.06.9,2.08,1.85c.47-.06.95-.12,1.42-.19a28.21,28.21,0,0,0,2.8-12.21l-.41-.36a25.18,25.18,0,0,1-2.38,7.57C1913,472.66,1912.56,472.72,1912.09,472.78Z" fill="#171e29"/><path d="M1873.75,811.32l-.14-.12c-.18.41-.37.82-.57,1.23C1873.28,812.06,1873.52,811.7,1873.75,811.32Z" fill="#171e29"/><path d="M1869.12,818.39a2.82,2.82,0,0,1-.26.16c.1.23.21.46.31.68a10.8,10.8,0,0,0,2.88,0A17.55,17.55,0,0,0,1869.12,818.39Z" fill="#171e29"/><path d="M1785.39,814.68a11.38,11.38,0,0,1-2.06,3.55c1-.42,2-.85,2.89-1.26.12-.48.22-1,.32-1.45Z" fill="#171e29"/><path d="M1781,407.5s0-.07,0-.11c-.24-.3-.48-.59-.74-.88A7.05,7.05,0,0,0,1781,407.5Z" fill="#171e29"/><path d="M1802,1006.22c0,.23,0,.45,0,.68C1802,1006.67,1802,1006.44,1802,1006.22Z" fill="#171e29"/><path d="M1820.4,359.51c.92-.65,3.36,1.4,4,1.84a48.64,48.64,0,0,1,9.05,9.11c1.43,1.85,3.16,7.86,5.51,8.14a30.38,30.38,0,0,0,3.14-1.21,31.36,31.36,0,0,1,6.58-1,30.17,30.17,0,0,1,8.14.67l.08-.07c2.58-2,4.37,2.88,6.69,4.65,4.81,3.67,10.56,4.91,15.81,7.64a23,23,0,0,0,.47-7.77,19.68,19.68,0,0,1-.47,2.77c-5.25-2.73-11-4-15.81-7.64-2.32-1.77-4.11-6.68-6.69-4.65l-.08.07a30.17,30.17,0,0,0-8.14-.67,31.36,31.36,0,0,0-6.58,1,30.38,30.38,0,0,1-3.14,1.21c-2.35-.28-4.08-6.29-5.51-8.14a48.64,48.64,0,0,0-9.05-9.11c-.6-.44-3-2.49-4-1.84-.45.32-.85,4.59-.89,5.27a19.18,19.18,0,0,0,.15,3.41C1819.82,361.7,1820.1,359.72,1820.4,359.51Z" fill="#171e29"/><path d="M1759.14,400.48c.73-2.49,1.7-9.14,4.07-10.54,2.79-1.65,7.71,2.94,9.71,5.06a25,25,0,0,1,8.31-1.25c.44-3.51.63-8.63,2.61-11.17,1.77-2.28,4.26,1.47,6.57,2.46.56.24,1.13.45,1.7.63-.27-1.53-.58-3.59-.35-3.9.72-.94,3.75.31,4.47.56a45.63,45.63,0,0,1,9,4.38A21.19,21.19,0,0,0,1804,381a44,44,0,0,0-7.74-3.64c-.72-.25-3.75-1.49-4.47-.56-.23.31.07,2.36.35,3.9-.57-.18-1.14-.39-1.7-.63-2.31-1-4.8-4.74-6.57-2.46-2,2.54-2.16,7.66-2.61,11.17a25,25,0,0,0-8.31,1.25c-2-2.12-6.92-6.71-9.71-5.06-2.37,1.4-3.33,8-4.07,10.54a19.34,19.34,0,0,0-.73,6.19,10.23,10.23,0,0,0,.19,1.37A17.88,17.88,0,0,1,1759.14,400.48Z" fill="#171e29"/><path d="M1888.72,367.82a32.94,32.94,0,0,1,6.81,6.16c1.36,1.71,3.12,6.23,5.28,6.93a33.07,33.07,0,0,1-.35-5.15c-2-1-3.65-5.17-4.93-6.78a32.94,32.94,0,0,0-6.81-6.16c-5.13-3.65-11-5.9-17.28-5.27a26.32,26.32,0,0,1,3.75,5A27.15,27.15,0,0,1,1888.72,367.82Z" fill="#171e29"/><path d="M1901.46,367.41c.23-.74,1.82-5.41,2.4-5.63,1.2-.46,3.39,2.53,3.94,3.2a57.66,57.66,0,0,1,7.7,12.79c1.11,2.48,1.44,9.7,4,10.69a34.49,34.49,0,0,0,3.83-.44,36.05,36.05,0,0,1,7.62.8c2.81.56,9.54,2.49,11.33,5a4.18,4.18,0,0,1,.34.58c.63-2,.75-4-.34-5.58-1.79-2.55-8.52-4.47-11.33-5a36.05,36.05,0,0,0-7.62-.8,34.49,34.49,0,0,1-3.83.44c-2.56-1-2.89-8.21-4-10.69a57.66,57.66,0,0,0-7.7-12.79c-.55-.67-2.74-3.66-3.94-3.2-.58.22-2.17,4.89-2.4,5.63a34.7,34.7,0,0,0-.92,10.91A26.37,26.37,0,0,1,1901.46,367.41Z" fill="#171e29"/><path d="M1797.94,366.16a24.09,24.09,0,0,1,10.91,1.74,27.81,27.81,0,0,1,7,3.71c1.49,1.14,3.87,4.57,5.84,4.7a31.05,31.05,0,0,1-1.63-5.7c-1.54-1.09-3.11-3.16-4.21-4a27.81,27.81,0,0,0-7-3.71c-5.06-2-10.44-2.58-15.62-.68A22.75,22.75,0,0,1,1797.94,366.16Z" fill="#171e29"/><path d="M1661.07,515a6.64,6.64,0,0,0,1.47-2.15h-.06c-.45,0-.91,0-1.38,0A9.2,9.2,0,0,0,1661.07,515Z" fill="#171e29"/><path d="M1604.9,546.63a45.94,45.94,0,0,0,10.57-6.15c3.5-2.81,5.37-7.59,8.81-10.18a8.08,8.08,0,0,1-4.28-.13,25.82,25.82,0,0,1-4.53,5.32,50.11,50.11,0,0,1-14.3,7.61A20.54,20.54,0,0,1,1604.9,546.63Z" fill="#171e29"/><path d="M1596.54,660.12c.08-1.23-.1-2.71,0-3.47a16.33,16.33,0,0,1,1.39-5.1c.93-2,2.58-7.44,4.75-8.3,2.4-.95,5.7,3,7.25,5.21a37.22,37.22,0,0,1,5,1.76c.57.25,1.14.51,1.73.79l.35-1c.94-2.78,1.68-8,3.91-10.06a1.44,1.44,0,0,1,.91-.44,33.2,33.2,0,0,1-.94-4.53c-2.2,2.12-2.95,7.26-3.88,10l-.35,1c-.58-.28-1.16-.54-1.73-.79a37.22,37.22,0,0,0-5-1.76c-1.56-2.18-4.85-6.16-7.25-5.21-2.17.85-3.82,6.3-4.75,8.3a16.33,16.33,0,0,0-1.39,5.1c-.09.76.09,2.24,0,3.47-3.7-2.82-14-3.41-15.63.08a12.25,12.25,0,0,1,4.73,2.7C1589.38,657.47,1594.23,658.36,1596.54,660.12Z" fill="#171e29"/><path d="M1606.84,506.83c1.15-2.18,4.62-1.65,7.51-1.16,6,1,9.13,3.4,13.56,7.34a18.23,18.23,0,0,0,.14-5.82c0,.28-.08.56-.14.82-4.42-3.94-7.57-6.33-13.56-7.34-3.73-.63-8.43-1.36-7.86,3.79C1606.57,505.23,1606.7,506,1606.84,506.83Z" fill="#171e29"/><path d="M1582.84,599a17.92,17.92,0,0,1,3.2-1.91c4.52-2.27,7.74-2.21,12.52-1.72a16.29,16.29,0,0,0-3.7-5.26,17.17,17.17,0,0,0-8.82,2c-2.81,1.42-6.34,3.24-3.61,6.45Z" fill="#171e29"/><path d="M1687.89,434.31a23.08,23.08,0,0,1,6.63.68c1.52.42,4.43,2.37,6,1.83a27.59,27.59,0,0,1-4.15-6,14.39,14.39,0,0,0-1.88-.78,23.08,23.08,0,0,0-6.63-.68,18.85,18.85,0,0,0-12.58,4.53,19,19,0,0,1,5.32,1.8A21.74,21.74,0,0,1,1687.89,434.31Z" fill="#171e29"/><path d="M1678.38,453.87c4.41.07,8.38-1.75,12.67-2.44a16.1,16.1,0,0,0-2.54-4.47c-3.35.82-6.6,2-10.13,1.91-2.13,0-5.22-2.2-5.94.18a10.53,10.53,0,0,0,.08,4.8C1673.36,451.82,1676.32,453.84,1678.38,453.87Z" fill="#171e29"/><path d="M1658.29,466.57c1.78-2.29,7.37,0,9.43,1a32.14,32.14,0,0,1,5,2.92c1.6,1.17,3.13,3.39,4.89,4.26-.16-1.46-1.78-3.3-2.34-4.66a18.19,18.19,0,0,1-.94-3.14,14,14,0,0,0-1.6-1.45,32.14,32.14,0,0,0-5-2.92c-2.06-1-7.66-3.26-9.43-1-.92,1.18-.78,3.82-.51,6.17A3.1,3.1,0,0,1,1658.29,466.57Z" fill="#171e29"/><path d="M1639.95,503.08c.78-1.35,1.41-3.13,1.94-3.93a19.81,19.81,0,0,1,4.45-4.91c.53-.41,1.22-1,2-1.72-.22,0-.45.1-.66.17-.24-3.89,8.9-8.79,13.47-8.31-.53-1.11-1.4-2.29-1.7-3a18.64,18.64,0,0,1-.65-1.86c-4.78.85-11.33,4.87-11.13,8.17.21-.07.43-.12.66-.17-.79.69-1.48,1.31-2,1.72a19.81,19.81,0,0,0-4.45,4.91c-.53.8-1.16,2.59-1.94,3.93-2.59-5.46-13.84-12.41-17.7-9.51a14.63,14.63,0,0,1,3.1,4.36C1630.28,493.41,1637.88,498.72,1639.95,503.08Z" fill="#171e29"/><path d="M1602.23,582.75c-.08-1.3-.46-2.82-.47-3.63,0-.53,0-1.05.05-1.57-4.48-2.16-14.65-1.27-15.9,2.49a12.23,12.23,0,0,1,4.87,1.88C1594.6,581,1599.64,581.27,1602.23,582.75Z" fill="#171e29"/><path d="M1576.1,673.17a15,15,0,0,1,3.51-1.56c4.52-1.56,7.55-1.09,12,0a16,16,0,0,0-3.05-5.66,16.37,16.37,0,0,0-8.94.67c-2.82,1-6.35,2.24-4.16,5.61C1575.66,672.54,1575.88,672.85,1576.1,673.17Z" fill="#171e29"/><path d="M1701,825.5a13.23,13.23,0,0,1,1.53,5.42,35.64,35.64,0,0,0,.05-4.2A8.34,8.34,0,0,1,1701,825.5Z" fill="#171e29"/><path d="M1777.72,812.29c-1.48,2.6,1.24,10,4.2,14.87a10.6,10.6,0,0,0,3.94-.46C1783.39,825.67,1779.08,817.93,1777.72,812.29Z" fill="#171e29"/><path d="M1606.65,773.24a14.42,14.42,0,0,1,4.44,1.47c5.47-2,14.33-1.67,18.5.85-.08-1.83-.56-4-.55-5.1,0-.07,0-.13,0-.2C1622.86,767.08,1608.52,768,1606.65,773.24Z" fill="#171e29"/><path d="M1656.11,859.39l.76-.75c0-.61-.07-1.22-.13-1.84A12.16,12.16,0,0,1,1656.11,859.39Z" fill="#171e29"/><path d="M1631.22,812.33a8.42,8.42,0,0,1-1,1c-.21,3.27-.19,6.65-1.19,9.74a62.29,62.29,0,0,1-9.12,16.93,11.74,11.74,0,0,1,3.17.33,56.09,56.09,0,0,0,5.94-12.26C1630.64,823,1629.5,817.14,1631.22,812.33Z" fill="#171e29"/><path d="M1606.47,795.21c6.4-3,10.91-2.84,17.61-2a19.92,19.92,0,0,0-3.16-5.35,25,25,0,0,0-14.45,2.35c-3.86,1.83-8.64,4.19-5.56,8.5C1602.18,797.27,1604.45,796.17,1606.47,795.21Z" fill="#171e29"/><path d="M1695.47,423.58a11.15,11.15,0,0,1,2.75.51,39.68,39.68,0,0,1,9.89,4.28c1.69,1,4.85,5.21,6.8,4.66a27,27,0,0,0,2.13-2,27.49,27.49,0,0,1,4.92-2.92c1.93-.91,6.77-2.75,8.89-2,1.78.62,2.56,2.84,2.87,5,.08-.67.14-1.33.16-2,.08-2.48-.33-7.08-3-8-2.12-.74-7,1.1-8.89,2a27.49,27.49,0,0,0-4.92,2.92,27,27,0,0,1-2.13,2c-1.95.54-5.11-3.66-6.8-4.66a39.68,39.68,0,0,0-9.89-4.28c-.6-.16-3.15-1-3.68-.17-.26.4.7,3.91.86,4.47Z" fill="#171e29"/><path d="M1752.18,824.61c.07.23.12.46.17.69,0-.12,0-.25.06-.37S1752.24,824.72,1752.18,824.61Z" fill="#171e29"/><path d="M1606.23,718a25.86,25.86,0,0,1,2.95-.38,22.22,22.22,0,0,0-.06-2.52,27.34,27.34,0,0,1-8-.61c-1.7.93-2.6,2.43-1.35,5.09.1.22.22.44.33.65C1601.43,718.93,1604,718.41,1606.23,718Z" fill="#171e29"/><path d="M1734.91,441a19.07,19.07,0,0,1-.5-4.93l-.69.12a15.84,15.84,0,0,1-.85,3.66c-.43,1.12-1.24,1.84-1.65,2.86C1731.61,441.64,1733.15,441.17,1734.91,441Z" fill="#171e29"/><path d="M1741.14,413.18c2.18-3.88,13.32-4.93,17.89-2.47-.13-1.45-.59-3.13-.62-4,0-.42,0-.84,0-1.26-5.14-2.17-16.25-.84-17.53,3.35a10.14,10.14,0,0,1,2.41.53,18.51,18.51,0,0,0-5,3.08A18.85,18.85,0,0,1,1741.14,413.18Z" fill="#171e29"/><path d="M1661.49,497.22l1-.33a10,10,0,0,0-1.26-1.09C1661.31,496.3,1661.41,496.77,1661.49,497.22Z" fill="#171e29"/><path d="M1734.7,434.39a1.63,1.63,0,0,1,1.9-1.2c-1.12-2.69,2.1-4.48,4.77-5.91a19.21,19.21,0,0,1,9.8-2.48,27.25,27.25,0,0,0-5.35-4.33,20.89,20.89,0,0,0-4.45,1.81c-2.67,1.43-5.89,3.22-4.77,5.91a1.63,1.63,0,0,0-1.9,1.2,11.5,11.5,0,0,0,0,5.19C1734.67,434.51,1734.68,434.45,1734.7,434.39Z" fill="#171e29"/><path d="M1603.95,608.93a6,6,0,0,1-.7.7,21.33,21.33,0,0,1-.65,5.55,44.51,44.51,0,0,1-6.24,12.22,10.09,10.09,0,0,1,2.94.32,38.41,38.41,0,0,0,3.3-7.54C1603.7,616.56,1602.8,612.39,1603.95,608.93Z" fill="#171e29"/><path d="M1602.56,573.59c.71-2.21,1.73-8.14,3.88-9.34,2.62-1.46,7.15,3.14,8.76,5a35.49,35.49,0,0,1,3.72,5,30,30,0,0,1,1.6,3.6,17.27,17.27,0,0,0,1.14-1.77,8.56,8.56,0,0,1-.11-1.14s0-.05,0-.08l-.16-.25.17,0a28.09,28.09,0,0,1,.73-5.31c.62-3,.72-8.55,2.78-11.06.74-.9,1.58-.7,2.47-.12a25.74,25.74,0,0,0,1.05-4.91c0-.27.07-.6.14-1l-1.11.57-.09.3-.23-.14a20.65,20.65,0,0,1-2.87,1.25c-1.44,2.77-1.59,7.38-2.14,10.07a26.49,26.49,0,0,0-.74,5.66,8.56,8.56,0,0,0,.11,1.14,17.27,17.27,0,0,1-1.14,1.77,30,30,0,0,0-1.6-3.6,35.49,35.49,0,0,0-3.72-5c-1.61-1.83-6.14-6.43-8.76-5-2.15,1.2-3.17,7.12-3.88,9.34a17.31,17.31,0,0,0-.79,5.53A14.57,14.57,0,0,0,1602,576,16,16,0,0,1,1602.56,573.59Z" fill="#171e29"/><path d="M1705.5,835.36c-.18,3.46-.83,6.78-2.41,9.13.7-.42,1.41-.83,2.13-1.23A42.81,42.81,0,0,0,1705.5,835.36Z" fill="#171e29"/><path d="M1622,720.28a18.65,18.65,0,0,0-1.76-5.68c-1.1-.42-2.16-.77-3.18-1.07h0a15.47,15.47,0,0,1-3.48,4.2A36.12,36.12,0,0,1,1622,720.28Z" fill="#171e29"/><path d="M1594.54,686.46c-.32,0-.64,0-1-.07a16.68,16.68,0,0,1-1.09,4,41.69,41.69,0,0,1-7.31,10.71,12.3,12.3,0,0,1,3.37.9,35.92,35.92,0,0,0,3.94-6.61C1593.74,692.64,1593.68,689.31,1594.54,686.46Z" fill="#171e29"/><path d="M1622,580.42a3.69,3.69,0,0,0,.11-1l-.7.1A6.23,6.23,0,0,0,1622,580.42Z" fill="#171e29"/><path d="M1629.26,767.53a23.63,23.63,0,0,1,.85-4.07l-1,.54c0,.48-.06,1-.07,1.45A15.49,15.49,0,0,0,1629.26,767.53Z" fill="#171e29"/><path d="M1607.44,759.48a14.22,14.22,0,0,1,3.81,1.6,49,49,0,0,0,7.71-9.27c2.5-4,2.75-9.41,5.26-13.21a7.82,7.82,0,0,1-2.52,1.14,28.84,28.84,0,0,1-2.74,7.07A54.44,54.44,0,0,1,1607.44,759.48Z" fill="#171e29"/><polygon points="1880 435 1902 493 1965 473 1902 413 1880 435" fill="#05060a"/></svg>