<svg xmlns="http://www.w3.org/2000/svg" width="1920" height="1180" viewBox="0 0 1920 1180"><title>header-4</title><g id="city3"><polygon points="629.11 569.04 629.11 510.64 706.14 510.64 706.14 569.04 728.44 569.04 728.44 517.74 758.59 517.74 758.59 569.04 766.13 569.04 766.13 503.84 782.52 503.84 782.52 569.04 802.52 569.04 802.52 529.18 821.21 529.18 821.21 514.96 843.5 514.96 843.5 531.03 871.03 531.03 871.03 569.04 880.21 569.04 880.21 509.71 926.1 509.71 926.1 569.04 943.15 569.04 943.15 533.81 1025.76 533.81 1025.76 509.71 1061.49 509.71 1061.49 569.04 1068.05 569.04 1068.05 506.93 1108.37 506.93 1108.37 519.6 1113.28 519.6 1113.28 569.04 1123.1 569.04 1123.1 564 1129.67 564 1129.67 531.03 1130.35 531.03 1130.35 526.03 1175.85 526.03 1175.85 504.73 1200.58 504.73 1200.58 543.94 1202.23 543.94 1202.23 531.28 1213.77 531.28 1213.77 504.73 1291.25 504.73 1291.25 564 1302.46 564 1302.46 498.86 1332.79 498.86 1332.79 555.36 1373.67 555.36 1373.67 498.86 1390.15 498.86 1390.15 534.06 1410.27 534.06 1410.27 524.18 1429.06 524.18 1429.06 509.98 1451.48 509.98 1451.48 564 1468.62 564 1468.62 539.31 1488.4 539.31 1488.4 504.73 1534.56 504.73 1534.56 526.03 1609.07 526.03 1609.07 528.19 1617.64 528.19 1617.64 564 1628.86 564 1628.86 534.06 1634.79 534.06 1634.79 504.73 1670.73 504.73 1670.73 534.06 1677.32 534.06 1677.32 501.95 1717.87 501.95 1717.87 514.61 1722.82 514.61 1722.82 534.06 1739.3 534.06 1739.3 526.03 1748.86 526.03 1748.86 501.95 1784.8 501.95 1784.8 555.36 1789.75 555.36 1789.75 592.97 1797 592.97 1797 595.85 1789.75 595.85 1789.75 601.3 1779.53 601.3 1779.53 614.27 1169.66 614.27 1169.66 619.36 517 619.36 517 569.04 629.11 569.04" fill="#404040"/><path d="M604.75,602.77V565.16H599.8V511.74H563.86v24.08H554.3v8H537.82V524.4h-4.95V511.74H492.32v32.11h-6.59V514.52H449.79v29.33h-5.93V573.8H432.65V538h-8.57v-2.16H349.56v-21.3H303.4V549.1H283.62v24.7H266.48v-54H244.06V534H225.27v9.88H205.15v-35.2H188.67v56.5H147.79v-56.5H117.46V573.8H106.25V514.52H28.77v26.55H17.23v12.66H15.58V514.52H-9.15v21.3h-45.5v5h-.68v33H-61.9v5h-9.82V529.39h-.09q-.64,2.84-1.3,5.67c-4.88,20.86-10.45,41.61-13.55,62.83q-2.29,15.64-4.12,31.26h75.44v-5.08H594.53v-13h10.22v-5.46H612v-2.88Z" fill="#404040"/><path d="M1993.33,521.34h-11.81V561.2h-20V496h-16.39v65.2h-7.54v-51.3h-30.16v51.3h-22.29V502.8h-77V561.2H1696v50.31h318.84C2006.33,581.71,1998.53,551.77,1993.33,521.34Z" fill="#404040"/><polygon points="629.11 569.04 629.11 510.64 706.14 510.64 706.14 569.04 728.44 569.04 728.44 517.74 758.59 517.74 758.59 569.04 766.13 569.04 766.13 503.84 782.52 503.84 782.52 569.04 802.52 569.04 802.52 529.18 821.21 529.18 821.21 514.96 843.5 514.96 843.5 531.03 871.03 531.03 871.03 569.04 880.21 569.04 880.21 509.71 926.1 509.71 926.1 569.04 943.15 569.04 943.15 533.81 1025.76 533.81 1025.76 509.71 1061.49 509.71 1061.49 569.04 1068.05 569.04 1068.05 506.93 1108.37 506.93 1108.37 519.6 1113.28 519.6 1113.28 569.04 1123.1 569.04 1123.1 564 1129.67 564 1129.67 531.03 1130.35 531.03 1130.35 526.03 1175.85 526.03 1175.85 504.73 1200.58 504.73 1200.58 543.94 1202.23 543.94 1202.23 531.28 1213.77 531.28 1213.77 504.73 1291.25 504.73 1291.25 564 1302.46 564 1302.46 498.86 1332.79 498.86 1332.79 555.36 1373.67 555.36 1373.67 498.86 1390.15 498.86 1390.15 534.06 1410.27 534.06 1410.27 524.18 1429.06 524.18 1429.06 509.98 1451.48 509.98 1451.48 564 1468.62 564 1468.62 539.31 1488.4 539.31 1488.4 504.73 1534.56 504.73 1534.56 526.03 1609.07 526.03 1609.07 528.19 1617.64 528.19 1617.64 564 1628.86 564 1628.86 534.06 1634.79 534.06 1634.79 504.73 1670.73 504.73 1670.73 534.06 1677.32 534.06 1677.32 501.95 1717.87 501.95 1717.87 514.61 1722.82 514.61 1722.82 534.06 1739.3 534.06 1739.3 526.03 1748.86 526.03 1748.86 501.95 1784.8 501.95 1784.8 555.36 1789.75 555.36 1789.75 592.97 1797 592.97 1797 595.85 1789.75 595.85 1789.75 601.3 1779.53 601.3 1779.53 614.27 1169.66 614.27 1169.66 619.36 517 619.36 517 569.04 629.11 569.04" fill="#404040"/><path d="M604.75,602.77V565.16H599.8V511.74H563.86v24.08H554.3v8H537.82V524.4h-4.95V511.74H492.32v32.11h-6.59V514.52H449.79v29.33h-5.93V573.8H432.65V538h-8.57v-2.16H349.56v-21.3H303.4V549.1H283.62v24.7H266.48v-54H244.06V534H225.27v9.88H205.15v-35.2H188.67v56.5H147.79v-56.5H117.46V573.8H106.25V514.52H28.77v26.55H17.23v12.66H15.58V514.52H-9.15v21.3h-45.5v5h-.68v33H-61.9v5h-9.82V529.39h-.09q-.64,2.84-1.3,5.67c-4.88,20.86-10.45,41.61-13.55,62.83q-2.29,15.64-4.12,31.26h75.44v-5.08H594.53v-13h10.22v-5.46H612v-2.88Z" fill="#404040"/></g><g id="city2"><polygon points="1703.75 606.33 1703.75 525.86 1609.44 525.86 1609.44 606.33 1582.16 606.33 1582.16 535.65 1545.24 535.65 1545.24 606.33 1536.01 606.33 1536.01 516.49 1515.94 516.49 1515.94 606.33 1491.46 606.33 1491.46 551.4 1468.59 551.4 1468.59 531.82 1441.3 531.82 1441.3 553.96 1407.59 553.96 1407.59 606.33 1396.35 606.33 1396.35 524.58 1340.17 524.58 1340.17 571.06 1319.3 571.06 1319.3 557.79 1218.17 557.79 1218.17 524.58 1174.43 524.58 1174.43 606.33 1166.4 606.33 1166.4 520.75 1117.04 520.75 1117.04 538.21 1111.02 538.21 1111.02 606.33 1099 606.33 1099 599.39 1090.95 599.39 1090.95 553.96 1090.12 553.96 1090.12 547.07 1034.42 547.07 1034.42 517.72 1004.15 517.72 1004.15 571.74 1002.13 571.74 1002.13 554.3 988 554.3 988 517.72 893.15 517.72 893.15 599.39 879.43 599.39 879.43 509.64 842.3 509.64 842.3 587.48 792.25 587.48 792.25 509.64 772.07 509.64 772.07 558.13 747.45 558.13 747.45 544.51 724.44 544.51 724.44 524.95 696.99 524.95 696.99 599.39 676.01 599.39 676.01 565.36 651.79 565.36 651.79 517.72 595.28 517.72 595.28 547.07 504.06 547.07 504.06 550.04 493.57 550.04 493.57 599.39 479.85 599.39 479.85 558.13 472.58 558.13 472.58 517.72 428.59 517.72 428.59 558.13 420.51 558.13 420.51 513.89 370.87 513.89 370.87 531.33 364.81 531.33 364.81 558.13 344.63 558.13 344.63 547.07 332.93 547.07 332.93 513.89 288.93 513.89 288.93 587.48 282.88 587.48 282.88 639.29 274 639.29 274 643.25 282.88 643.25 282.88 650.77 295.39 650.77 295.39 668.64 1041.99 668.64 1041.99 675.64 1841 675.64 1841 606.33 1703.75 606.33" fill="#333"/><path d="M2025.25,677.46c-11.82-40.36-24.23-80.58-32.56-121.57h-55.62v3h-10.49V608.2h-13.72V566.94h-7.27V526.53h-44v40.41h-8.07V522.71h-49.65v17.44h-6.05v26.8h-20.18V555.88h-11.7V522.71h-44v73.59h-6.05v51.81H1707v4h8.88v7.52h12.51v17.87Z" fill="#333"/><path d="M277.75,616.12V535.66H183.45v80.47H156.16V545.45H119.24v70.67H110V526.29H89.94v89.83H65.46V561.2H42.59V541.62H15.3v22.14H-18.41v52.37H-29.65V534.38h-41.3l-.16.68c-4.88,20.86-10.45,41.61-13.55,62.83-3.49,23.92-6.35,47.72-7.69,71.86q-.43,7.84-.75,15.69H415V616.12Z" fill="#333"/><polygon points="1703.75 606.33 1703.75 525.86 1609.44 525.86 1609.44 606.33 1582.16 606.33 1582.16 535.65 1545.24 535.65 1545.24 606.33 1536.01 606.33 1536.01 516.49 1515.94 516.49 1515.94 606.33 1491.46 606.33 1491.46 551.4 1468.59 551.4 1468.59 531.82 1441.3 531.82 1441.3 553.96 1407.59 553.96 1407.59 606.33 1396.35 606.33 1396.35 524.58 1340.17 524.58 1340.17 571.06 1319.3 571.06 1319.3 557.79 1218.17 557.79 1218.17 524.58 1174.43 524.58 1174.43 606.33 1166.4 606.33 1166.4 520.75 1117.04 520.75 1117.04 538.21 1111.02 538.21 1111.02 606.33 1099 606.33 1099 599.39 1090.95 599.39 1090.95 553.96 1090.12 553.96 1090.12 547.07 1034.42 547.07 1034.42 517.72 1004.15 517.72 1004.15 571.74 1002.13 571.74 1002.13 554.3 988 554.3 988 517.72 893.15 517.72 893.15 599.39 879.43 599.39 879.43 509.64 842.3 509.64 842.3 587.48 792.25 587.48 792.25 509.64 772.07 509.64 772.07 558.13 747.45 558.13 747.45 544.51 724.44 544.51 724.44 524.95 696.99 524.95 696.99 599.39 676.01 599.39 676.01 565.36 651.79 565.36 651.79 517.72 595.28 517.72 595.28 547.07 504.06 547.07 504.06 550.04 493.57 550.04 493.57 599.39 479.85 599.39 479.85 558.13 472.58 558.13 472.58 517.72 428.59 517.72 428.59 558.13 420.51 558.13 420.51 513.89 370.87 513.89 370.87 531.33 364.81 531.33 364.81 558.13 344.63 558.13 344.63 547.07 332.93 547.07 332.93 513.89 288.93 513.89 288.93 587.48 282.88 587.48 282.88 639.29 274 639.29 274 643.25 282.88 643.25 282.88 650.77 295.39 650.77 295.39 668.64 1041.99 668.64 1041.99 675.64 1841 675.64 1841 606.33 1703.75 606.33" fill="#333"/></g></svg>