<svg xmlns="http://www.w3.org/2000/svg" xmlns:xlink="http://www.w3.org/1999/xlink" width="1920" height="1180" viewBox="0 0 1920 1180"><defs><linearGradient id="linear-gradient" x1="949" y1="819.56" x2="949" y2="651.83" gradientUnits="userSpaceOnUse"><stop offset="0"/><stop offset="0.11" stop-color="#050505"/><stop offset="0.23" stop-color="#131313"/><stop offset="0.36" stop-color="#2a2a2a"/><stop offset="0.5" stop-color="#4b4b4b"/><stop offset="0.64" stop-color="#757575"/><stop offset="0.79" stop-color="#a8a8a8"/><stop offset="0.94" stop-color="#e4e4e4"/><stop offset="1" stop-color="#fff"/></linearGradient><linearGradient id="linear-gradient-2" x1="823.07" y1="649.8" x2="823.07" y2="235.8" gradientTransform="matrix(-2.64, 0, 0, -0.49, 3127.3, 1008.04)" gradientUnits="userSpaceOnUse"><stop offset="0" stop-color="#ffe378"/><stop offset="0.05" stop-color="#ffc770"/><stop offset="0.12" stop-color="#ffa766"/><stop offset="0.19" stop-color="#ff8f60"/><stop offset="0.26" stop-color="#ff815b"/><stop offset="0.31" stop-color="#ff7c5a"/><stop offset="0.39" stop-color="#dc7560"/><stop offset="0.56" stop-color="#94676b"/><stop offset="0.71" stop-color="#5b5c74"/><stop offset="0.84" stop-color="#32547b"/><stop offset="0.94" stop-color="#184f7f"/><stop offset="1" stop-color="#0f4d80"/></linearGradient><mask id="mask" x="-61.5" y="651.83" width="2065.85" height="177.17" maskUnits="userSpaceOnUse"><rect x="-32" y="651.83" width="1962" height="167.74" fill="url(#linear-gradient)"/></mask></defs><title>header-5</title><g id="city1"><polygon points="216.51 657.09 216.51 569.43 319.24 569.43 319.24 657.09 348.97 657.09 348.97 580.1 389.19 580.1 389.19 657.09 399.24 657.09 399.24 559.23 421.1 559.23 421.1 657.09 447.77 657.09 447.77 597.26 472.69 597.26 472.69 575.93 502.41 575.93 502.41 600.04 539.13 600.04 539.13 657.09 551.38 657.09 551.38 568.04 612.58 568.04 612.58 657.09 635.31 657.09 635.31 604.22 745.48 604.22 745.48 568.04 793.13 568.04 793.13 657.09 801.87 657.09 801.87 563.87 855.64 563.87 855.64 582.88 862.2 582.88 862.2 657.09 875.29 657.09 875.29 649.53 884.06 649.53 884.06 600.04 884.97 600.04 884.97 592.54 945.64 592.54 945.64 560.56 978.62 560.56 978.62 619.41 980.82 619.41 980.82 600.41 996.21 600.41 996.21 560.56 1099.53 560.56 1099.53 649.53 1114.48 649.53 1114.48 551.76 1154.93 551.76 1154.93 636.56 1209.45 636.56 1209.45 551.76 1231.43 551.76 1231.43 604.58 1258.25 604.58 1258.25 589.76 1283.32 589.76 1283.32 568.44 1313.21 568.44 1313.21 649.53 1336.08 649.53 1336.08 612.46 1362.46 612.46 1362.46 560.56 1424.01 560.56 1424.01 592.54 1523.38 592.54 1523.38 595.78 1534.81 595.78 1534.81 649.53 1549.76 649.53 1549.76 604.58 1557.68 604.58 1557.68 560.56 1605.6 560.56 1605.6 604.58 1614.4 604.58 1614.4 556.39 1668.48 556.39 1668.48 575.39 1675.07 575.39 1675.07 604.58 1697.06 604.58 1697.06 592.54 1709.81 592.54 1709.81 556.39 1757.73 556.39 1757.73 636.56 1764.33 636.56 1764.33 693 1774 693 1774 697.32 1764.33 697.32 1764.33 705.51 1750.7 705.51 1750.7 724.97 937.39 724.97 937.39 732.6 67 732.6 67 657.09 216.51 657.09" fill="#292929"/><path d="M2004.36,732.6c-.3-25.17-.19-50.34,0-75.51H1982.1V559.23h-21.86v97.86h-10.05v-77H1910v77h-29.73V569.43H1777.51v87.66h-13.18V636.56h-6.6V556.39h-47.93v36.14h-12.75v12h-22V575.39h-6.6v-19H1614.4v48.19h-8.79v-44h-47.93v44h-7.91v44.95h-14.95V595.78h-11.43v-3.24H1424v-32h-61.56v51.9h-26.38v37.07h-22.86V568.44h-29.9v21.31h-25.06v14.83h-26.82V551.76h-22v84.8h-54.52v-84.8h-40.45v97.77h-14.95v-89H996.2v39.85H980.82v19h-2.2V560.56h-33v32H885V600h-.91v49.49h-8.76v7.56H862.2V582.88h-6.56v-19H801.87v93.22h-8.74V568H745.48v36.18H635.31v52.87H612.58V568h-61.2v89H539.14V600H502.41V575.93H472.69v21.33H447.77v59.83H421.1V559.23H399.24v97.86H389.19v-77H349v77H319.24V569.43H216.51v87.66H182.33V636.56h-6.6V556.39H127.81v36.14H115.06v12h-22V575.39h-6.6v-19H32.4v48.19H23.6v-44H-24.32v44h-7.91v44.95H-47.19V595.78h-9.29Q-59,660.37-61.5,725H67v7.63H937.39V725H1628v7.63Z" fill="#292929"/><path d="M2008.7,543.38h-2.93v59.83H1979.1V505.35h-21.86v97.86h-10.05v-77H1907v77h-29.73V515.55H1774.51v87.66H1625v75.51h421.72C2035.69,633.25,2020.85,588.56,2008.7,543.38Z" fill="#292929"/></g><g id="water"><rect x="-33.9" y="691" width="1979.03" height="200.99" fill="url(#linear-gradient-2)"/><g opacity="0.27"><rect x="-33.4" y="691.5" width="1978.03" height="199.99"/><path d="M-32.83,691.28l1977,1.43-.14,199L-33,890.27l.14-199m-1-1-.15,201,1979,1.43.15-201-1979-1.43Z"/></g><g mask="url(#mask)"><path d="M2004.36,655.6c-.3,24.13-.19,48.27,0,72.4H1982.1v93.84h-21.86V728h-10.05v73.82H1910V728h-29.73v84.05H1777.51V728h-13.18v19.69h-6.6v76.87h-47.93V789.9h-12.75V778.35h-22v28h-6.6v18.22H1614.4V778.35h-8.79v42.21h-47.93V778.35h-7.91v-43.1h-14.95v51.54h-11.43v3.11H1424v30.66h-61.56V770.79h-26.38V735.25h-22.86V813h-29.9V792.57h-25.06V778.35h-26.82V829h-22V747.69h-54.52V829h-40.45V735.25h-14.95v85.31H996.2V782.35H980.82V764.13h-2.2v56.43h-33V789.9H885v-7.2h-.91V735.25h-8.76V728H862.2v71.15h-6.56v18.23H801.87V728h-8.74v85.39H745.48V778.7H635.31V728H612.58v85.39h-61.2V728H539.14v54.7H502.41v23.13H472.69V785.37H447.77V728H421.1v93.84H399.24V728H389.19v73.82H349V728H319.24v84.05H216.51V728H182.33v19.69h-6.6v76.87H127.81V789.9H115.06V778.35h-22v28h-6.6v18.22H32.4V778.35H23.6v42.21H-24.32V778.35h-7.91v-43.1H-47.19v51.54h-9.29q-2.53-61.94-5-123.88H67V655.6H937.39v7.31H1628V655.6Z" fill="#292929"/></g></g></svg>