<svg xmlns="http://www.w3.org/2000/svg" xmlns:xlink="http://www.w3.org/1999/xlink" width="1920" height="1180" viewBox="0 0 1920 1180"><defs><linearGradient id="linear-gradient" x1="961.5" y1="465" x2="961.5" gradientUnits="userSpaceOnUse"><stop offset="0" stop-color="#ffe378"/><stop offset="0.11" stop-color="#ffbe6d"/><stop offset="0.25" stop-color="#ff9a63"/><stop offset="0.35" stop-color="#ff845c"/><stop offset="0.42" stop-color="#ff7c5a"/><stop offset="0.57" stop-color="#ca736b"/><stop offset="0.91" stop-color="#465d97"/><stop offset="1" stop-color="#2157a3"/></linearGradient></defs><title>header-0</title><g id="sky"><rect x="-15" width="1953" height="465" fill="url(#linear-gradient)"/></g><g id="haze"><path d="M1915.5,3.7q-38.6,0-77.3.4l-73,.8-73,.7L1546.1,6.7,1400.1,8,1254,9.6l-73,.8-73,.9v1.6l73,.9,73,.8L1400.1,16l146.1,1.3,146.1,1.1,73,.7,73,.8q38.6.4,77.3.4,34.4,0,68.8-.3l73-.9,36.5-.7,18.3-.3,18.3-.4c48.7-1.1,97.4-2.5,146.1-4.8V11.2c-48.7-2.3-97.4-3.7-146.1-4.8L2112.1,6l-18.3-.3L2057.4,5l-73-.9q-34.4-.3-68.8-.3" fill="#fff" opacity="0.02"/><path d="M-302.5,97.3q-21.8,0-43.6.3c-30.9.5-61.8,1.2-92.6,2.4s-61.8,2.5-92.6,4.8v1.6c30.9,2.3,61.8,3.7,92.6,4.8s61.8,1.9,92.6,2.4q21.8.3,43.6.3,24.5,0,49-.4c30.9-.5,61.8-1.2,92.6-1.5l92.6-1.1,92.6-1.3,92.6-1.5,46.3-.8,46.3-.9v-1.6l-46.3-.9-46.3-.8-92.6-1.5-92.6-1.3-92.6-1.1c-30.9-.3-61.8-1-92.6-1.5q-24.5-.4-49-.4" fill="#fff" opacity="0.02"/><path d="M211.5,295q-33.6,0-67.3.4l-63.6.8-63.6.7L-110.1,298l-127.2,1.3-127.2,1.5-63.6.8-63.6.9v1.6l63.6.9,63.6.8,127.2,1.5,127.2,1.3,127.2,1.1,63.6.7,63.6.8q33.6.4,67.3.4,29.9,0,59.9-.3l63.6-.9,31.8-.7,15.9-.3,15.9-.4c42.4-1.1,84.8-2.5,127.2-4.8v-1.6c-42.4-2.3-84.8-3.7-127.2-4.8l-15.9-.4-15.9-.3-31.8-.7-63.6-.9q-29.9-.3-59.9-.3" fill="#fff" opacity="0.02"/><path d="M1182.8,116.8q-41.5,0-83,.4l-78.4.8-78.4.7-156.8,1.1-156.8,1.3-156.8,1.5-156.8,1.7v1.6l156.8,1.7,156.8,1.5,156.8,1.3L943,131.5l78.4.7,78.4.8q41.5.4,83,.4,36.9,0,73.8-.3l78.4-.9,39.2-.7,19.6-.3,19.6-.4c52.3-1.1,104.6-2.5,156.8-4.8v-1.6c-52.3-2.3-104.6-3.7-156.8-4.8l-19.6-.4-19.6-.3-39.2-.7-78.4-.9q-36.9-.3-73.9-.3" fill="#fff" opacity="0.02"/><path d="M485.5,450.7q-31.2,0-62.4.3l-66.3.9-33.1.7-16.6.3-16.6.4c-44.2,1.1-88.3,2.5-132.5,4.8v1.6c44.2,2.3,88.3,3.7,132.5,4.8l16.6.4,16.6.3,33.1.7,66.3.9q31.2.3,62.4.3,35,0,70.1-.4l66.3-.8,66.3-.7,132.5-1.1L953.2,463l132.5-1.5,66.3-.8,66.3-.9v-1.6l-66.3-.9-66.3-.8L953.2,455l-132.5-1.3-132.5-1.1-66.3-.7-66.3-.8q-35.1-.4-70.1-.4" fill="#fff" opacity="0.02"/><path d="M1485.6,173.7q-27.3,0-54.5.3l-57.9.9-29,.7-14.5.3-14.5.4c-38.6,1.1-77.2,2.5-115.8,4.8v1.6c38.6,2.3,77.2,3.7,115.8,4.8l14.5.4,14.5.3,29,.7,57.9.9q27.3.3,54.5.3,30.6,0,61.3-.4l57.9-.8,57.9-.7,115.8-1.1,115.8-1.3,115.8-1.5,57.9-.8,57.9-.9v-1.6l-57.9-.9-57.9-.8L1894.4,178l-115.8-1.3-115.8-1.1-57.9-.7-57.9-.8q-30.6-.4-61.3-.4" fill="#fff" opacity="0.02"/><path d="M1796.3,356.3q-28.6,0-57.1.4l-54,.8-54,.7-108,1.1-108,1.3-108,1.5-54,.8-54,.9v1.6l54,.9,54,.8,108,1.5,108,1.3,108,1.1,54,.7,54,.8q28.6.4,57.1.4,25.4,0,50.9-.3l54-.9,27-.7,13.5-.3,13.5-.4c36-1.1,72-2.5,108-4.8v-1.6c-36-2.3-72-3.7-108-4.8l-13.5-.4-13.5-.3-27-.7-54-.9q-25.4-.3-50.8-.3" fill="#fff" opacity="0.02"/><path d="M56.9,182.7q-38.6,0-77.2.3l-81.9.9-41,.7-20.5.3-20.5.4c-54.6,1.1-109.3,2.5-163.9,4.8v1.6c54.6,2.3,109.3,3.7,163.9,4.8l20.5.4,20.5.3,41,.7,81.9.9q38.6.3,77.2.3,43.4,0,86.7-.4l81.9-.8,81.9-.7,163.9-1.1L635.3,195l163.9-1.5L963,191.8v-1.6l-163.9-1.7L635.3,187l-163.9-1.3-163.9-1.1-81.9-.7-81.9-.8q-43.4-.4-86.7-.4" fill="#fff" opacity="0.02"/><path d="M605.6,372.8q-36.8,0-73.7.4l-69.7.8-69.7.7-139.3,1.1L114,377.1l-139.3,1.5-69.7.8-69.7.9v1.6l69.7.9,69.7.8L114,385.1l139.3,1.3,139.3,1.1,69.7.7,69.7.8q36.9.4,73.7.4,32.8,0,65.6-.3l69.7-.9,34.8-.7,17.4-.3,17.4-.4c46.4-1.1,92.9-2.5,139.3-4.8v-1.6c-46.4-2.3-92.9-3.7-139.3-4.8l-17.4-.4-17.4-.3-34.8-.7-69.7-.9q-32.8-.3-65.6-.3" fill="#fff" opacity="0.02"/><path d="M975.8,257.5q-26.9,0-53.8.4l-50.8.8-50.8.7-101.6,1.1-101.6,1.3-101.6,1.5-50.8.8-50.8.9v1.6l50.8.9,50.8.8,101.6,1.5,101.6,1.3,101.6,1.1,50.8.7,50.8.8q26.9.4,53.8.4,23.9,0,47.9-.3,50.8-.7,101.6-2.4c33.9-1.1,67.8-2.5,101.6-4.8V265c-33.9-2.3-67.8-3.7-101.6-4.8s-67.8-1.9-101.6-2.4q-23.9-.3-47.9-.3" fill="#fff" opacity="0.02"/><path d="M-387.3,456.7q-18.8,0-37.7.3c-26.7.5-53.3,1.2-80,2.4s-53.3,2.5-80,4.8v1.6c26.7,2.3,53.3,3.7,80,4.8s53.3,1.9,80,2.4q18.8.3,37.7.3,21.2,0,42.3-.4c26.7-.5,53.3-1.2,80-1.5l80-1.1,80-1.3,80-1.5,40-.8,40-.9v-1.6l-40-.9-40-.8-80-1.5-80-1.3-80-1.1c-26.7-.3-53.3-1-80-1.5q-21.2-.4-42.3-.4" fill="#fff" opacity="0.02"/><path d="M2250.9,239.6q-26.1,0-52.2.4l-49.4.8-49.4.7-98.7,1.1-98.7,1.3-98.7,1.5-49.4.8-49.4.9v1.6l49.4.9,49.4.8,98.7,1.5,98.7,1.3,98.7,1.1,49.4.7,49.4.8q26.1.4,52.2.4,23.2,0,46.5-.3,49.4-.7,98.7-2.4c32.9-1.1,65.8-2.5,98.7-4.8v-1.6c-32.9-2.3-65.8-3.7-98.7-4.8s-65.8-1.9-98.7-2.4q-23.2-.3-46.5-.3" fill="#fff" opacity="0.02"/><path d="M1786.4,456.7q-16.3,0-32.7.4c-20.6.5-41.2,1.2-61.8,1.5l-61.8,1.1-61.8,1.3-61.8,1.5-30.9.8-30.9.9v1.6l30.9.9,30.9.8,61.8,1.5,61.8,1.3,61.8,1.1c20.6.3,41.2,1,61.8,1.5q16.3.4,32.7.4,14.5,0,29.1-.3,30.9-.7,61.8-2.3c20.6-1.2,41.2-2.5,61.8-4.9v-1.6c-20.6-2.3-41.2-3.7-61.8-4.9s-41.2-1.9-61.8-2.3q-14.5-.3-29.1-.3" fill="#fff" opacity="0.02"/><path d="M2052.4,292q-27.7,0-55.4.4l-52.4.8-52.4.7L1787.4,295l-104.8,1.3-104.8,1.5-52.4.8-52.4.9v1.6l52.4.9,52.4.8,104.8,1.5,104.8,1.3,104.8,1.1,52.4.7,52.4.8q27.7.4,55.4.4,24.7,0,49.4-.3,52.4-.7,104.8-2.4c34.9-1.1,69.9-2.5,104.8-4.8v-1.6c-34.9-2.3-69.9-3.7-104.8-4.8s-69.9-1.9-104.8-2.4q-24.7-.3-49.4-.3" fill="#fff" opacity="0.02"/><path d="M1761,67.4q-20.9,0-41.8.4c-26.3.5-52.7,1.2-79,1.5l-79,1.1-79,1.3-79,1.5-39.5.8-39.5.9v1.6l39.5.9,39.5.8,79,1.5,79,1.3,79,1.1c26.3.3,52.7,1,79,1.5q20.9.4,41.8.4,18.6,0,37.2-.3c26.3-.5,52.7-1.2,79-2.4s52.7-2.5,79-4.8V74.9c-26.3-2.3-52.7-3.7-79-4.8s-52.7-1.9-79-2.4q-18.6-.3-37.2-.3" fill="#fff" opacity="0.02"/><path d="M775.1,22.4q-20.9,0-41.8.4c-26.3.5-52.7,1.2-79,1.5l-79,1.1-79,1.3-79,1.5-39.5.8-39.5.9v1.6l39.5.9,39.5.8,79,1.5,79,1.3,79,1.1c26.3.3,52.7,1,79,1.5q20.9.4,41.8.4,18.6,0,37.2-.3c26.3-.5,52.7-1.2,79-2.4s52.7-2.5,79-4.8V30c-26.3-2.3-52.7-3.7-79-4.8s-52.7-1.9-79-2.4q-18.6-.3-37.2-.3" fill="#fff" opacity="0.02"/></g></svg>