<svg id="front2" xmlns="http://www.w3.org/2000/svg" width="1920" height="1180" viewBox="0 0 1920 1180"><title>header-6</title><path d="M505.45,1047l-9.26.07a29.85,29.85,0,0,0,5.42.78c1.44.08,3.6.79,5,.47A3.92,3.92,0,0,1,505.45,1047Z" fill="#1a0e0e"/><path d="M466.58,1047.5a22.3,22.3,0,0,1,2.55.3,4.29,4.29,0,0,1,1.43.45c-.19-.25-.37-.54-.55-.82Z" fill="#1a0e0e"/><path d="M265.79,1001.06c2.26,1.78,6.49,3.24,9.25,1.65-1.74,2.19-2.12,5.43-3.87,7.76a33.35,33.35,0,0,1-7.79,7.15c1.86.5,3.11,2,5.15,2.27a15.74,15.74,0,0,0,4.79-.32,24.64,24.64,0,0,0,5.13-1.92,15.19,15.19,0,0,0,3.12-2.39c0,.23,0,.44.08.61a37.66,37.66,0,0,1,.09,6c.06,3.45.3,9.3-2.06,12.19,3-1.46,6.33-2.46,8.64-5.07a17.11,17.11,0,0,0,2.7-4.08,7.3,7.3,0,0,0,.27-1.38c.24,2.26,3.49,5.88,4.4,6.68,2,1.77,5.23,4.86,7.9,5.47,1.74.4,2.31.24,3-1.3s1.33-2.94,2-4.43c1-2.35,2.58-5.42,2-8.1a6.06,6.06,0,0,0,1.71,1.89c0,.1,0,.2-.07.29-.71,3.15-1.8,8.52-4.59,10.62,3.09-.65,6.3-.82,9-2.68a16.26,16.26,0,0,0,3.36-3.11,6.27,6.27,0,0,0,.55-1.2c-.28,2.12,1.86,6.13,2.51,7.06,1.45,2.06,3.66,5.57,6,6.72,1.5.75,2,.73,3-.51s1.87-2.37,2.77-3.58c1.42-1.92,3.55-4.35,3.59-6.92.69,2.73,4.8,5.44,6.78,6.41a27.26,27.26,0,0,0,5.56,1.91c1.36.33,3.29,1.37,4.66,1.3-1.75-1.46-3.19-11.58-.51-11.75.81-.05,2.39,1.83,3.61,3.49a8.64,8.64,0,0,1-3,3.43c1.73-.11,3.47-.05,5.16-.3a17.51,17.51,0,0,1,1.42,4.74l-3.9,6.06-.47.76q9.71-.17,19.43-.4l.65-2.16a13.81,13.81,0,0,0,.74,1.57l.32.55,10.73-.26a6.58,6.58,0,0,0,1.1-2.24l.3.14a7.24,7.24,0,0,0,1.41,2c25.37-.67,50.73-1.49,76.1-2.08,0-.08.1-.17.14-.25a5.89,5.89,0,0,0,.35-1.32,4.76,4.76,0,0,0,.4,1.55q9.14-.21,18.28-.37a5.78,5.78,0,0,0,0-1.64,5.42,5.42,0,0,0,1.21,1.62q7.5-.13,15-.22c-1-3-1.3-6.23.19-6.59,1.31-.33,5.5,4,6.36,4.9a9.08,9.08,0,0,1,1.27,1.61l6.39,0c.54-1.21,1-2.29,1.14-2.79.54-1.43,2.42-7.16.22-8.2,1.66-.34,12.76-1,15.19.42-1.68-2.05-2.73-4.76-4.51-6.81-.94-1.09-4.3-5.1-6.19-4.76a21.57,21.57,0,0,0,2.31-.52,13.29,13.29,0,0,0,3.74-2.47c1.43-1.3,3.77-4,2.77-6.11-.79-1.63-4.56-3.46-6.16-4.09a22.4,22.4,0,0,0-4.4-1.28c-.4-.07-2.08,0-2.31-.17-1.4-.84-.84-5-1.23-6.49l0-.08c.46-.06.92-.12,1.38-.2,1.06-.18,2.73,0,3.67-.51-1.67-.49-5.76-7.15-3.94-8.08.89-.46,4.64,2,5.41,2.44,1.78,1.11,2.61,2.86,3.86,4.41,1.37-.36,2.12-5.59,2.26-6.77s.53-5.56-1.22-5.93c1.13-.53,9-2.85,11-2.27-1.56-1.19-2.77-3-4.4-4.14-.87-.62-4-2.94-5.26-2.37.49-.3,1.06-.39,1.58-.76a10,10,0,0,0,2.27-2.41c.81-1.18,2-3.54,1-4.87-.85-1-3.86-1.72-5.12-1.9a16.69,16.69,0,0,0-3.39-.18l-.38.06a6.51,6.51,0,0,1-1.3.21c-1.15-.37-1.45-3.42-2-4.45a24.11,24.11,0,0,0-3.66-5.27l-.11-.12c.79-1.41,1.42-2.74,1.69-3.31.47-1,1.8-4.2,1.76-6.41a2.2,2.2,0,0,0-.9-2c1.73-.23,13.24,0,15.63,1.61-1.57-2.25-2.44-5.13-4.12-7.38-.9-1.2-4.1-5.67-6.07-5.38.79-.2,1.62-.08,2.48-.36a14.15,14.15,0,0,0,4-2.26c1.57-1.23,4.19-3.87,3.32-6.09-.68-1.75-4.43-3.93-6-4.7a23.64,23.64,0,0,0-4.45-1.67,22.67,22.67,0,0,1-2.37-.35c-1.38-1-.48-5.18-.77-6.79a35.86,35.86,0,0,0-2.2-7.56c0-.69,0-1.25-.08-1.57-.09-1.34-.65-6.63-2.79-6.66,1.2-.88,9.9-5.39,12.35-5.17-2.1-1-3.92-2.84-6.09-3.83-1.2-.56-5.65-2.71-6.85-1.45.53-.54,1.25-.78,1.82-1.39a11.66,11.66,0,0,0,2.11-3.34c.68-1.56,1.56-4.6,0-5.9-1.23-1-4.91-1.13-6.42-1.06a20.82,20.82,0,0,0-4,.56,18.4,18.4,0,0,1-1.91.7c-1.43-.16-2.47-3.67-3.34-4.76a29.48,29.48,0,0,0-5.49-5.33c-.37-.26-1.85-1.46-2.41-1.08-.27.18-.52,2.68-.55,3.07a17.55,17.55,0,0,0,1.29,6.73c-1.2-.07-2.64-2.08-3.55-2.75-.3-.22-.61-.43-.94-.63a42.16,42.16,0,0,0,2.36-3.92c.68-1.27,3.16-6.42,1.23-7.67,1.59-.12,12.1.69,14.2,2.29-1.32-2.13-2-4.82-3.38-7-.78-1.18-3.62-5.67-5.43-5.2.79-.2,1.58,0,2.45-.24a12.75,12.75,0,0,0,3.82-1.85c1.28-.88,3.3-2.67,3.46-4.44a2.36,2.36,0,0,0-.1-1c-.54-1.64-3.85-3.82-5.27-4.61a20.78,20.78,0,0,0-4-1.76,19.46,19.46,0,0,1-2.14-.45c-1.22-1-.17-4.76-.35-6.24a31.41,31.41,0,0,0-2-8c-.19-.44-.87-2.37-1.59-2.35-.35,0-2,2.15-2.25,2.5a18.83,18.83,0,0,0-2.63,6.87c-1-.74-1.24-3.39-1.68-4.52a18.5,18.5,0,0,0-2.64-4.39,14.78,14.78,0,0,0-8.44-5.78c2.24,4.26,2.43,11.11-.24,15.24-2.38-2.34-5.27-4-7.25-6.75-1-1.32-1.09-4.18-2.83-3.58l-.06,0a17.32,17.32,0,0,0-4.28-1.78,18.15,18.15,0,0,0-3.72-.66,16.17,16.17,0,0,1-1.9.08c-1.22-.56-1.14-4-1.6-5.2a27.09,27.09,0,0,0-3.35-6.31c-.24-.34-1.22-1.83-1.82-1.65a10.59,10.59,0,0,0-1.38,2.57,16.38,16.38,0,0,0-.78,6.35c-1-.42-1.75-2.61-2.36-3.47a16.16,16.16,0,0,0-3.14-3.15,12.9,12.9,0,0,0-8.32-3.11c2.61,2.95,4.18,8.23,3.17,12.21a26.22,26.22,0,0,0-4.11-3.86c-.35-.25-1.78-1.43-2.32-1.08a6.34,6.34,0,0,0-.47,2.08c-.28-.19-.55-.4-.82-.62-1.08-.92-1.79-3.31-3.13-2.44-1.5,1-2.47,3.59-3.3,5.33a14.91,14.91,0,0,0-4.7-.83c-.72-1.44-2.6-4.69-4.38-4.33-1.52.31-3.17,3.58-4,4.74a10.11,10.11,0,0,0-1.45,3.08c-.13.47-.17,1.43-.34,2.2-2.16-2.18-8.86-3.65-10.32-1.63a5.8,5.8,0,0,1,1.2.71,10.45,10.45,0,0,0-3.22.7,14.61,14.61,0,0,1,5.7,6.12,11.38,11.38,0,0,0-5.71-.45c-1.68.27-3.73.63-3.58,2.22a.93.93,0,0,0-1.22.29,7.17,7.17,0,0,0-1,3.45c-1-.21-1.9-.24-2.29.23.39-.46,1-.69,1.38-1.19A9.35,9.35,0,0,0,394.5,825c.46-1.27,1-3.73-.28-4.69-1-.76-3.95-.66-5.15-.53a16.15,16.15,0,0,0-3.15.64,16,16,0,0,1-1.48.65c-1.15-.06-2.14-2.8-2.88-3.62a23,23,0,0,0-4.62-4c-.3-.19-1.54-1.07-2-.74a9.08,9.08,0,0,0-.29,2.46,13.93,13.93,0,0,0,1.35,5.28c-.95,0-2.2-1.53-2.95-2a13.35,13.35,0,0,0-3.46-1.52,10.92,10.92,0,0,0-7.56.12c3.16,1.61,6.21,5.66,6.36,9.3-2.43-.4-4.88-.16-7.25-1-1.14-.4-2.45-2.06-3.24-1-1,1.39-.81,4.24-1,5.83a13.37,13.37,0,0,0-.16,3c.08.8.64,2,.48,2.83-.8-.76-1.25-2.18-1.92-3.07a18.68,18.68,0,0,0-2.22-2.4c-1-.87-3.58-3-4.93-2.17-1.1.72-1.39,3.82-1.68,5a8.52,8.52,0,0,0-.18,2.89c0,.41.3,1.18.4,1.85-2.38-1.06-8.15-.14-8.68,1.92a2.43,2.43,0,0,1,.38,0c-.54.22-1,.41-1.37.53a10.74,10.74,0,0,0-3.24,1.76c-.42.32-1.07,1.13-1.72,1.69-.47-3.28-5.37-8.87-8-8,1.65,2.72,1.4,8.36-.23,11.06-1.72-2.82-3-4.61-6.08-6.19-1.91-1-4.32-2.2-4.89.57a17.26,17.26,0,0,0,.23,8.33c.77,2.36,3.11,5.42,5.85,5.6-2.29.74-4.11,2.89-6.48,3.72a28.72,28.72,0,0,1-9,1.42c1.1,1.24,1.26,2.94,2.61,4.08a13.29,13.29,0,0,0,3.6,2.06,21,21,0,0,0,4.59,1.07,13.24,13.24,0,0,0,3.39-.22c-.1.17-.18.34-.24.47a13.71,13.71,0,0,1-1.4,2.36c-.38-.46-.8-.72-1.35-.38a3.46,3.46,0,0,0-.84.75,28.3,28.3,0,0,0-2.54,4.49A13.89,13.89,0,0,0,310,878a4.25,4.25,0,0,0-.14.61,8.6,8.6,0,0,1-.91.71,16.78,16.78,0,0,0-.25-2.14,20.53,20.53,0,0,0-1.17-3.24,13.53,13.53,0,0,0-1.75-2.89c-.64-.78-1.39-1.36-2.14-1.23a3.48,3.48,0,0,0-1.75,1.37c-.78,1-1.49,2.19-1.93,2.78a9.13,9.13,0,0,0-1.36,2.72c-.13.42-.19,1.28-.36,2-1.88-2-7.85-3.48-9.2-1.7,2.41,1.07,4.9,5,5.08,7.61-2.51-1.1-4.24-1.7-7.06-1.32-1.76.23-4,.56-3,2.7a14.25,14.25,0,0,0,4.09,5.54c1.64,1.24,4.68,2.21,6.63,1a8.85,8.85,0,0,0-1.14,2.28,14.17,14.17,0,0,1-1.5,3.31,23.91,23.91,0,0,1-5.44,5.23c1.33.32,2.25,1.4,3.7,1.53a10.86,10.86,0,0,0,3.41-.31,17.16,17.16,0,0,0,3.63-1.44,11,11,0,0,0,2.19-1.76c0,.16,0,.32.06.43a27.9,27.9,0,0,1,.17,4.29q0,.69.06,1.53a12.2,12.2,0,0,0-.65,3.87.85.85,0,0,0-.57.07c-1.56.69-2.83,3.24-3.81,4.52l-.37.48c-.27-.25-.53-.49-.8-.71a21.15,21.15,0,0,0-2.4-1.8c-.48-1.4-1.58-4-3-4s-3.13,2.59-4,3.46a8.67,8.67,0,0,0-1.62,2.4c-.17.38-.33,1.17-.58,1.8-1.52-2.12-7-4.23-8.45-2.72,2.13,1.3,4,5.31,3.85,7.79-2.23-1.34-3.78-2.12-6.49-2.11-1.68,0-3.8,0-3.19,2.17a13.57,13.57,0,0,0,3.17,5.72,7.92,7.92,0,0,0,1.78,1.26,2.26,2.26,0,0,0-.08.24l.64,0a6.07,6.07,0,0,0,2.29.53c.31.11.63.24.95.38-1,1.32-1.48,3.06-2.63,4.28a22.71,22.71,0,0,1-5.76,4.26c1.06.41,1.76,1.32,2.82,1.75-.5.8-.49,1.69.63,2.69a19.57,19.57,0,0,0,8,4.42,9,9,0,0,1-.39,1.31c-.52-.12-1.06-.24-1.66-.32-2.21-.3-5-.65-4.6,2.27a18,18,0,0,0,3.12,8.1c1.58,2.06,4.95,4.26,7.71,3.48-2,1.52-3,4.27-5.08,5.91a29.91,29.91,0,0,1-8.37,4.53c1.51.84,2.27,2.46,4,3.11a14.29,14.29,0,0,0,4.25.77,21,21,0,0,0,4.18-.4,12.92,12.92,0,0,0-1.75,3.43c-.2.59-.3,1.78-.57,2.74-2.57-2.87-10.89-5.11-12.85-2.66,3.34,1.57,6.71,7.17,6.88,10.83-3.47-1.62-5.88-2.52-9.85-2.08-2.47.28-5.58.66-4.35,3.7A20.08,20.08,0,0,0,265.79,1001.06Zm243.72-1.28a1.63,1.63,0,0,1-.53-.46,4.77,4.77,0,0,0-.32-2.07,4.14,4.14,0,0,0,1,.86A15.06,15.06,0,0,0,509.51,999.78Zm5.9-93.45.54.25a20.55,20.55,0,0,0-.92,4.2c-1.2-.75-1.56-3.63-2.12-4.83-.1-.22-.22-.43-.33-.65C513.82,905.71,515,906.17,515.41,906.33Zm-9,41.8c1.38-.24,5.36,4.58,6.18,5.55,1.91,2.22,2.28,4.91,3.3,7.51a1.94,1.94,0,0,0,1.25-.62,15,15,0,0,0,.28,2.88c-1-.26-1.84-2.14-2.48-2.84a14.75,14.75,0,0,0-3.14-2.47,12.49,12.49,0,0,0-5.77-2C505,952.7,504.63,948.43,506.41,948.13Zm.68,12.45c.12.27.24.54.34.82a16.57,16.57,0,0,0-2.28,3.46c-.65-.81-.2-2.91-.29-3.89,0-.3-.08-.61-.14-.91A19,19,0,0,0,507.09,960.58Zm-11.78,40.15A3.92,3.92,0,0,0,496,1002c0,.05,0,.1-.05.14l-.69-.48A4.8,4.8,0,0,0,495.31,1000.73ZM483.84,860.61c1.08-.12,3.69,3.2,4.88,4.76a16.1,16.1,0,0,1,.11,2.11,12.53,12.53,0,0,0-5.8.27C482.32,864.55,482.24,860.79,483.84,860.61Zm1,11.49c-.62-.47-1.25-2-1.7-3.74a16.47,16.47,0,0,1,4.57,5,14.85,14.85,0,0,1-3.58,5.83c-.27,0-.53-.09-.8-.15-.26-.45-.52-.89-.8-1.32a29.46,29.46,0,0,0,0-3.49c-.17-.91-.39-1.84-.65-2.77A8.31,8.31,0,0,0,484.87,872.1Zm-140.06-28a6.3,6.3,0,0,1,.49.79h-.58C344.75,844.63,344.78,844.36,344.81,844.08Zm-3,8.85c.25.08.5.16.75.22h0a3.48,3.48,0,0,1-1.16.85A4.82,4.82,0,0,1,341.86,852.93ZM309.52,880.5a2.12,2.12,0,0,1-.22.48,3.21,3.21,0,0,1-.18-.55Zm-28,70.11a8.53,8.53,0,0,0,2.59-1.56c.22-.21.45-.44.68-.69l.46-.13a11.88,11.88,0,0,1,.39,5.19A21.27,21.27,0,0,0,281.53,950.61Z" fill="#1a0e0e"/><path d="M386.13,1049.65l-4.94.13a6.29,6.29,0,0,0,1.47,1.32" fill="#1a0e0e"/><path d="M404.41,1049.15a3.9,3.9,0,0,0,1.28.55,10.8,10.8,0,0,0,2.69.16c.17,1,.25,2,.46,3,1.09.25,3.21-2.31,4.45-4Z" fill="#1a0e0e"/><path d="M397.52,1049.34c.75.32,1.52.59,2.3.84,1,.33,2.5,1.25,3.58,1.28a4.91,4.91,0,0,1-.86-2.26Z" fill="#1a0e0e"/><path d="M424.49,819.47l0,.05a4,4,0,0,1-.22-.64C424.33,819.08,424.41,819.27,424.49,819.47Z" fill="#1a0e0e"/><path d="M-80.27,1002.82c-2.4.4-2.13,6.43-2,7.95s.85,8.72,2.68,9.28c1.78-2,3-4.34,5.47-5.73,1.06-.61,6.27-3.67,7.45-3,2.41,1.37-3.49,10.15-5.78,10.72,1.24.68,3.51.58,4.93.89a27.87,27.87,0,0,0,6,.73c2.28,0,7.33-.68,9.21-2.91a6.39,6.39,0,0,0-.52,2.48c50.79-4.55,102.88,3.12,153,9.44q36.86,4.65,73.78,7.86a21.59,21.59,0,0,0,5.67-5.16c2-2.58-.88-3.79-3.19-4.73-3.71-1.49-6.27-1.27-10.05-.65,1.15-3.48,5.91-8,9.55-8.58-1.23-2.88-9.85-3-13.09-.89,0-1,.22-2.18.19-2.79a13,13,0,0,0-.77-3.78,21.78,21.78,0,0,0,3.92,1.51,14.16,14.16,0,0,0,4.3.4c1.83-.16,3-1.51,4.68-1.92a30.05,30.05,0,0,1-6.84-6.62c-1.51-2.13-1.78-5-3.29-7.06,2.44,1.49,6.28.28,8.36-1.27a18,18,0,0,0,5.19-7c1.18-2.7-1.61-3.12-3.83-3.43-.6-.08-1.15-.11-1.68-.13a10.36,10.36,0,0,1,0-1.37,19.65,19.65,0,0,0,8.86-2.11c1.34-.66,1.6-1.52,1.33-2.43,1.14-.12,2-.81,3.19-.92a22.75,22.75,0,0,1-4.4-5.65c-.77-1.49-.82-3.3-1.38-4.83.35,0,.68-.09,1-.11a6.1,6.1,0,0,0,2.34.1,5.8,5.8,0,0,1,.63.15,1.15,1.15,0,0,0,0-.26,7.72,7.72,0,0,0,2.05-.73,13.65,13.65,0,0,0,4.6-4.65c1.16-1.89-.87-2.49-2.49-2.95-2.61-.74-4.31-.41-6.82.28.53-2.42,3.4-5.79,5.81-6.46-1-1.86-6.84-1.29-8.88.34-.07-.67,0-1.48-.07-1.89a8.65,8.65,0,0,0-.91-2.75c-.58-1.06-1.64-4-2.89-4.4s-3.16,1.79-4,3a24.62,24.62,0,0,0-2.8,1.08c-.31.15-.64.31-1,.48l-.22-.57c-.6-1.49-1.14-4.29-2.46-5.38a.82.82,0,0,0-.53-.21,12.12,12.12,0,0,0,.43-3.91c.16-.53.32-1,.47-1.46a26.21,26.21,0,0,1,1.31-4.08,4.1,4.1,0,0,0,.18-.4,10.43,10.43,0,0,0,1.63,2.28,17.21,17.21,0,0,0,3.1,2.37,10.91,10.91,0,0,0,3.2,1.22c1.44.26,2.61-.53,4-.48a24.2,24.2,0,0,1-3.83-6.5c-.71-1.95-.29-4.24-1-6.09,1.56,1.65,4.74,1.54,6.66.79a14.3,14.3,0,0,0,5.44-4.23c1.47-1.81-.57-2.72-2.21-3.42-2.61-1.13-4.44-1-7.15-.63.88-2.46,4.34-5.58,6.94-6-.82-2.08-7-2.27-9.31-.85,0-.71.19-1.54.18-2a9.23,9.23,0,0,0-.58-3c-.46-1.19-1.17-4.39-2.42-5-1.52-.73-4,1.88-4.86,2.92a19,19,0,0,0-2,2.8,15.26,15.26,0,0,0-.83,2,8.25,8.25,0,0,1-.68-.93,4.5,4.5,0,0,0,0-.62,13.29,13.29,0,0,0-.55-3.06c-.42-1.64-.61-4.64-1.84-6-.44-.47-.91-.34-1.4,0a13.06,13.06,0,0,1-.71-2.64,5.06,5.06,0,0,0-.11-.53,12.57,12.57,0,0,0,3.2,1.13,20.78,20.78,0,0,0,4.72.21,13.35,13.35,0,0,0,4-1,8.27,8.27,0,0,0,2.51-2.26,5.67,5.67,0,0,1,1.1-1,28.89,28.89,0,0,1-8.3-3.79c-2-1.45-3.22-4-5.24-5.33,1.86.39,3.92-.61,5.46-1.94a9.77,9.77,0,0,0,1.7-1.88,17.36,17.36,0,0,0,2.46-8c.2-2.81-2.45-2.3-4.55-1.87-3.38.7-5.11,2.08-7.53,4.33-.83-3,.44-8.54,2.76-10.72-2.26-1.48-8.49,2.58-9.83,5.61-.47-.71-.87-1.67-1.19-2.09a11.15,11.15,0,0,0-2.65-2.57c-.31-.21-.72-.52-1.18-.88l.38.07c0-2.12-5.26-4.56-7.85-4.19.28-.61.75-1.28.9-1.67a8.84,8.84,0,0,0,.6-2.83c0-1.21.6-4.27-.28-5.26-1.06-1.21-4.18.17-5.33.76a18,18,0,0,0-2.78,1.71c-.88.68-1.7,1.92-2.68,2.44.06-.81.93-1.85,1.22-2.6a13,13,0,0,0,.65-2.89c.24-1.59,1.18-4.28.6-5.89-.47-1.28-2.17,0-3.38,0-2.5.14-4.8-.75-7.25-1,1.13-3.46,5.16-6.54,8.64-7.24a11,11,0,0,0-7.24-2.16,13.59,13.59,0,0,0-3.75.53c-.86.27-2.46,1.4-3.38,1.15a14.05,14.05,0,0,0,2.72-4.72,9.66,9.66,0,0,0,.39-2.45c-.33-.43-1.75.08-2.09.18a23.14,23.14,0,0,0-5.52,2.58c-.93.58-2.63,2.95-3.75,2.7a14.12,14.12,0,0,1-1.25-1,16.1,16.1,0,0,0-2.86-1.47c-1.12-.45-3.91-1.33-5.1-.88-1.51.58-1.63,3.09-1.53,4.44a9.48,9.48,0,0,0,.71,3.06c.27.6.75,1,1,1.51-.25-.54-1.14-.77-2.14-.83a7.2,7.2,0,0,0,0-3.59.92.92,0,0,0-1.1-.61c.57-1.49-1.3-2.39-2.85-3.1a11.28,11.28,0,0,0-5.62-1.11,14.52,14.52,0,0,1,7.15-4.35,10.28,10.28,0,0,0-2.92-1.55,5.5,5.5,0,0,1,1.35-.35c-.86-2.35-7.71-2.74-10.38-1.22,0-.79.27-1.72.26-2.21a10.13,10.13,0,0,0-.56-3.36c-.47-1.34-1.17-4.93-2.55-5.63-1.62-.84-4.31,1.79-5.39,3a14.81,14.81,0,0,0-4.75-.48c-.33-1.9-.56-4.68-1.74-6s-2.38.91-3.67,1.5c-.32.15-.64.27-1,.39a6.4,6.4,0,0,0,.11-2.13c-.43-.49-2.12.26-2.52.41a26.87,26.87,0,0,0-5,2.61c.11-4.11,3-8.77,6.35-10.91a13,13,0,0,0-8.85.76,15.75,15.75,0,0,0-3.87,2.19c-.82.66-2.09,2.58-3.21,2.7a16.32,16.32,0,0,0,1-6.33,11,11,0,0,0-.63-2.85c-.54-.33-1.88.85-2.21,1.1A27.14,27.14,0,0,0,37.69,805c-.78,1-1.61,4.36-2.94,4.57a18.58,18.58,0,0,1-1.81-.58,19,19,0,0,0-3.76-.38,17.93,17.93,0,0,0-4.61.57l0,0c-1.51-1.05-2.41,1.67-3.69,2.69-2.64,2.12-5.88,2.93-8.79,4.55-1.46-4.7.57-11.25,3.87-14.75a14.87,14.87,0,0,0-9.69,3.29,18.54,18.54,0,0,0-3.72,3.52c-.73,1-1.62,3.47-2.84,3.9A18.67,18.67,0,0,0-1,805c-.15-.4-1.16-2.9-1.49-3-.69-.22-1.87,1.46-2.16,1.84A30.87,30.87,0,0,0-8.74,811c-.58,1.38-.6,5.32-2,5.92a20,20,0,0,1-2.18-.15,21.75,21.75,0,0,0-4.31.62c-1.58.38-5.35,1.59-6.31,3-1.21,1.82.62,4.69,1.78,6.1a12.77,12.77,0,0,0,3.18,2.82c.72.42,1.48.47,2.15.81-1.69-.67-5.45,2.72-6.49,3.62-1.94,1.68-3.28,4.09-5.13,5.79,2.46-1,12.79,1.08,14.3,1.62-2.2.68-1.2,6.31-.89,7.72a45.34,45.34,0,0,0,1.21,4.41c-.36.1-.72.22-1.07.35-1,.4-3,1.95-4.16,1.69a17.44,17.44,0,0,0,3.06-6.12,11.86,11.86,0,0,0,.3-3.11c-.44-.52-2.19.24-2.61.39a29.24,29.24,0,0,0-6.73,3.65c-1.13.81-3.08,3.91-4.5,3.69a19,19,0,0,1-1.65-1.19A20.09,20.09,0,0,0-34.53,851c-1.43-.47-5-1.37-6.46-.71-1.86.84-1.82,4-1.59,5.69a11.94,11.94,0,0,0,1.13,3.79c.39.73,1,1.16,1.38,1.82-.82-1.53-5.68-.66-7-.45-2.35.37-4.6,1.62-6.89,2,2.42.44,9.57,7.13,10.49,8.3-2.06-.54-4,4.4-4.48,5.67-.11.3-.29.84-.5,1.49a35.52,35.52,0,0,0-4.16,6.69c-.71,1.47-1,5.76-2.57,6.32a20.84,20.84,0,0,1-2.37-.29,22.68,22.68,0,0,0-4.73.41c-1.75.31-5.94,1.39-7.07,2.89a3.59,3.59,0,0,0-.28,3.26,12.24,12.24,0,0,0,1.84,3.5,13.8,13.8,0,0,0,3.29,3.27c.75.5,1.55.61,2.26,1-1.81-.79-6.08,2.64-7.27,3.55-2.22,1.72-3.84,4.26-6,6,2.74-.91,13.88,2,15.49,2.66-2.44.6-1.69,6.8-1.44,8.36.1.63.35,2.07.72,3.65l-.13.08a24,24,0,0,0-4.95,4.09c-.5.52-1.11,1.83-1.8,2.76-.42.56-.86,1-1.31,1a14.69,14.69,0,0,1-1.55-.71,16.49,16.49,0,0,0-3.31-.74c-1.26-.17-4.35-.33-5.44.45-1.39,1-.85,3.59-.39,4.94A9.91,9.91,0,0,0-78,944.72c.43.54,1,.79,1.42,1.28-.91-1.13-4.78.37-5.82.75-1.88.69-3.52,2.07-5.34,2.8,2.06,0,9,4.33,10,5.14-1.79-.11-2.62,4.27-2.78,5.39s-.87,6.41.35,7.12c1.63-1.15,2.9-2.61,4.91-3.2.87-.25,5.13-1.57,5.86-.9,1.51,1.4-4.22,6.71-6,6.73.78.7,2.43,1,3.4,1.48.42.2.84.39,1.27.56,0,0,0,0,0,.08-.79,1.36-1.36,5.48-2.94,5.91A22.3,22.3,0,0,1-76,977.4a22.72,22.72,0,0,0-4.59.05c-1.7.17-5.82.92-7,2.28-1.53,1.73,0,5,1,6.63a13.6,13.6,0,0,0,2.94,3.39c.67.53,1.44.69,2.09,1.12-1.73-.84-6.05,2.12-7.25,2.91-2.27,1.49-4,3.83-6.18,5.35C-92.3,998.45-81.77,1002-80.27,1002.82Z" fill="#1a0e0e"/><path d="M68.69,823.32a3.85,3.85,0,0,1-.39.55.13.13,0,0,0,0-.06C68.42,823.65,68.55,823.48,68.69,823.32Z" fill="#1a0e0e"/><path d="M25.09,1046a.46.46,0,0,1,.07-.07c.12.21.23.43.36.65C25.37,1046.35,25.22,1046.16,25.09,1046Z" fill="#1a0e0e"/><path d="M277,1013.67q218.25,11.73,436.58,17c145.57,3.39,291.19,6.18,436.6,14.17,72.64,4,145.08,10,217.84,11.7,71,1.64,142,1.17,213,2.26,72.36,1.11,144.8,3.84,216.73,12.1,51.3,5.89,102.46,16.75,153.84,16.21.05-.8.13-1.6.27-2.39,1.73-10.31,2.26-20.8,3-31.26.86-12,2.76-23.83,3.83-35.79,1.3-14.56,1.24-29.22,2.05-43.81,1.21-21.77,5.78-42.86,6-64.73.12-14.93-.47-29.82-1.24-44.72-1.2-23.47-3.29-46.88-10.25-69.43-3-9.84-5.77-19.72-9.07-29.52-2-6-3.66-17.49-10.21-20.49-2.39-1.1-5.22-.85-7.77-.72-7.74.4-15.54.06-23.25.66-3.92.3-7.9,1.13-11.85,1.21-16.56.3-32.84,5.41-49.43,6-9,.31-18,1.17-27,1.57-14.32.63-27.83,5.56-41.86,7.88-13,2.15-26.09,3.44-39.11,5.92-17.72,3.36-36.06,5.26-54,6.75-34.9,2.91-69,7.83-103.53,13.83-33.49,5.83-67.21,10.74-100.38,18.29-15.14,3.44-29.69,7.08-45.14,8.82-8.32.93-16.37,1.74-24.59,3.22-15.38,2.76-30.36,5.61-46,6.82-32.21,2.5-64.42,5.11-96.76,2.65-31.34-2.38-62.9-6.14-94.35-5.26-20,.56-39.9,3.65-59.93,4.51-22.88,1-45.91,1.56-68.75,3.25a324.63,324.63,0,0,0-45.41,6.52C982.67,840,968.43,839.13,954,839c-19.56-.11-38.68,2-58.16,2.79-18.14.72-36.25.59-54.39,1.41-33.84,1.54-68,.4-101.92.3-30-.08-60,2.31-90,3.15-24.57.69-49-3.61-73.54-.55-8.45,1-16.59,3.46-25,4.64-10.32,1.46-20.66,2.24-31,3.92-5.39.88-10.79.7-16.21,1.17-4.47.38-9,1.67-13.44,2.37-10.79,1.7-21.79,1.92-32.68,1.87-7.76,0-15.56-.22-23.32-.09-8.7.15-17.25,1.67-26,1.61-8.1-.05-16.35-.75-24.32.7a58.53,58.53,0,0,1-11.23.74c-3.73,0-7.46,0-11.18,0-3.44,0-6.2-.57-9.32.77-.31.14-.65,1-1.29,1.34-2.86,1.38-8.45.81-11.62,1-8.83.68-17.66,1.13-26.51,1.51l-8.11.34-3.89.14c-38.86,1.45-81.13,2.25-107.33,8.41-7.34,1.73-17.47,3.47-29,5.29-20.58,3.25-45.53,6.76-66.67,10.9-14.09,2.77-26.49,5.81-34.76,9.24-16.9,7,46.2,31.93,32.6,44-7.6,6.77-114,13.73-114.87,22.85-.82,8.78-2.64,18.82-4.26,28.57Z" fill="#1a0e0e"/><path d="M373.27,1013.2c-2.44.53-5.49,1.23-4,4.13a20.24,20.24,0,0,0,6.35,7.28c2.44,1.54,6.8,2.55,9.38.68-1.51,2.36-1.55,5.62-3,8.12a33.43,33.43,0,0,1-7,7.92c1.9.3,3.31,1.7,5.35,1.73a15.67,15.67,0,0,0,4.73-.82,24.61,24.61,0,0,0,4.9-2.44,15.16,15.16,0,0,0,2.85-2.7c0,.22.1.44.14.6a38.38,38.38,0,0,1,.71,6c.07.6.16,1.28.24,2l9.36-.25c0-.31,0-.7.06-1.09a4.37,4.37,0,0,0,.42,1.08l18.58-.53a8,8,0,0,0,0-4.19,6,6,0,0,0,1.9,1.7l0,.3c-.08.64-.16,1.37-.27,2.15q21.05-.61,42.1-1.14c.17-.64.49-1.07,1-1.16s1.16.4,1.94,1.09c17.43-.4,34.86-.7,52.3-.76q39.65-.14,79.31.6a5.62,5.62,0,0,0-.16-1.4,5.34,5.34,0,0,0,1.28,1.42q8,.15,16,.35c-1.81-3.22-3.29-8-1.5-8.63,1.28-.46,5.89,3.45,6.84,4.22a13.83,13.83,0,0,1,3.34,4.62l2.86.08a36.34,36.34,0,0,0,2.44-6.81c.39-1.48,1.67-7.37-.62-8.18,1.61-.51,12.59-2.27,15.15-1.15-1.88-1.87-3.21-4.46-5.19-6.31-1.09-1-5.11-4.94-6.85-4,.76-.4,1.62-.4,2.45-.85A13.19,13.19,0,0,0,640,1014c1.29-1.44,3.33-4.4,2.12-6.36-1-1.54-4.89-3-6.54-3.43a22,22,0,0,0-4.52-.83,21.53,21.53,0,0,1-2.31.07c-1.49-.69-1.36-4.84-1.9-6.32,0,0,0-.06,0-.08.45-.11.91-.21,1.36-.35,1-.29,2.71-.32,3.59-.87-1.71-.32-6.46-6.52-4.75-7.64.6-.39,2.83.55,4.33,1.25l0,0,1.25.61c1.88.91,2.89,2.57,4.3,4,.87-.33,1.26-2.76,1.43-4.7.08-1,.12-1.86.13-2.26a18.35,18.35,0,0,0-.17-2.85c-.22-1.42-.68-2.82-1.66-2.92,1.07-.65,8.68-3.76,10.7-3.39-1.67-1-3.06-2.67-4.8-3.66a18.48,18.48,0,0,0-3.71-1.77,3.65,3.65,0,0,0-1.16-.19,1.28,1.28,0,0,0-.59.14,3.74,3.74,0,0,1,.53-.33,4.41,4.41,0,0,0,.94-.58c.15-.13.3-.27.44-.43h0a10.6,10.6,0,0,0,1.57-2.2c.68-1.25,1.64-3.72.45-4.94-.95-.95-4-1.31-5.28-1.36a17,17,0,0,0-3.4.18,15.74,15.74,0,0,1-1.64.44c-1.18-.25-1.79-3.26-2.43-4.23a24.14,24.14,0,0,0-4.2-4.86L624,954c.63-1.49,1.13-2.87,1.33-3.48.5-1.5,2.28-7.48,0-8.48,1.71-.4,13.17-1.37,15.72,0-1.8-2.07-3-4.86-4.86-6.92-1-1.1-4.61-5.17-6.55-4.74a23.75,23.75,0,0,0,2.38-.6,14.16,14.16,0,0,0,3.8-2.66c1.44-1.38,3.77-4.28,2.68-6.4-.86-1.66-4.82-3.44-6.48-4.05a23.49,23.49,0,0,0-4.59-1.2,21,21,0,0,1-2.39-.1c-1.48-.83-1-5.1-1.47-6.67a35.47,35.47,0,0,0-3-7.29c-.1-.69-.19-1.25-.24-1.56-.22-1.32-1.33-6.53-3.46-6.34,1.11-1,9.29-6.38,11.75-6.4-2.19-.83-4.19-2.42-6.46-3.19-1.2-.41-5.57-2-6.83-.87a19.93,19.93,0,0,0,1.54-1.42,12.11,12.11,0,0,0,1.76-3.55,9.93,9.93,0,0,0,.5-3.58,2.89,2.89,0,0,0-1.1-2.3c-1.32-.89-5-.61-6.5-.39a20.31,20.31,0,0,0-3.92,1c-.08,0-.19.09-.34.16a9.39,9.39,0,0,1-1.49.74c-.54,0-1.08-.49-1.58-1.14-.85-1.09-1.61-2.64-2.22-3.26a29.25,29.25,0,0,0-6-4.74c-.39-.22-2-1.25-2.5-.82-.26.21-.25,2.72-.24,3.11a15.86,15.86,0,0,0,1,4.42,16.11,16.11,0,0,0,1,2.14c-1.2.05-2.84-1.79-3.81-2.37a2.64,2.64,0,0,0-.35-.18c-.21-.13-.43-.24-.65-.35.91-1.67,1.66-3.47,1.94-4.14.54-1.34,2.48-6.71.43-7.76,1.58-.28,12.11-.55,14.37.81-1.54-2-2.46-4.58-4.08-6.57-.91-1.1-4.2-5.27-5.95-4.62.78-.27,1.58-.17,2.42-.47a13.14,13.14,0,0,0,3.6-2.24c1.39-1.19,3.68-3.72,2.79-5.72-.7-1.57-4.22-3.4-5.71-4a21.05,21.05,0,0,0-4.14-1.34,21.56,21.56,0,0,1-2.18-.23c-1.3-.83-.66-4.71-1-6.17a31.45,31.45,0,0,0-2.8-7.74c-.23-.43-1.11-2.28-1.83-2.18-.35,0-1.76,2.35-2,2.71a19,19,0,0,0-1.92,7.11c-1.12-.63-1.57-3.25-2.13-4.33a18.48,18.48,0,0,0-3.08-4.09,14.86,14.86,0,0,0-9-4.88c2.65,4,3.55,10.8,1.32,15.19-2.6-2.09-5.66-3.44-7.91-6-1.08-1.22-1.51-4.06-3.18-3.28l0,0a17.83,17.83,0,0,0-4.45-1.33,18.25,18.25,0,0,0-3.77-.26c-.33,0-1.67.33-1.88.26-1.28-.43-1.54-3.84-2.13-5a27.13,27.13,0,0,0-4-5.94c-.28-.31-1.41-1.69-2-1.45a11.3,11.3,0,0,0-1.1,2.7,16.35,16.35,0,0,0-.12,6.39c-1.08-.3-2-2.41-2.71-3.2a16.26,16.26,0,0,0-3.45-2.8,12.92,12.92,0,0,0-8.6-2.24c2.92,2.67,5,7.75,4.42,11.82a25.75,25.75,0,0,0-4.49-3.41c-.37-.22-1.91-1.25-2.42-.84a6.42,6.42,0,0,0-.25,2.12c-.3-.17-.59-.34-.87-.54-1.18-.8-2.13-3.1-3.37-2.1s-2.09,3.82-2.73,5.64a14.63,14.63,0,0,0-4.76-.33c-.87-1.37-3.08-4.41-4.81-3.87-1.47.47-2.78,3.89-3.47,5.13a10.19,10.19,0,0,0-1.12,3.21c-.09.48,0,1.44-.12,2.23-2.37-2-9.18-2.72-10.43-.55a5.89,5.89,0,0,1,1.28.58,10.28,10.28,0,0,0-3.13,1,14.52,14.52,0,0,1,6.3,5.49,11.27,11.27,0,0,0-5.72.15c-1.64.44-3.64,1-3.33,2.58a.93.93,0,0,0-1.2.41,7.23,7.23,0,0,0-.64,3.52c-1-.11-1.91,0-2.24.46.34-.49.88-.77,1.24-1.32a9.6,9.6,0,0,0,1.22-2.9c.33-1.31.63-3.81-.76-4.64-1.1-.65-4-.24-5.17,0a15.79,15.79,0,0,0-3.08,1,13.91,13.91,0,0,1-1.4.8c-1.15.06-2.42-2.56-3.24-3.3a23.45,23.45,0,0,0-5-3.47c-.31-.15-1.64-.9-2-.53a9.07,9.07,0,0,0,0,2.48,13.79,13.79,0,0,0,1.88,5.1c-.94.1-2.34-1.29-3.14-1.69a13.23,13.23,0,0,0-3.61-1.16,11,11,0,0,0-7.51.9c3.32,1.29,6.77,5,7.3,8.6-2.46-.15-4.88.34-7.32-.22-1.18-.27-2.65-1.8-3.32-.61-.85,1.48-.38,4.3-.41,5.91a14,14,0,0,0,.15,3,24.5,24.5,0,0,1,.77,2.48,1.57,1.57,0,0,1,0,.29,2.82,2.82,0,0,1-.37-.35c-.68-.72-1.21-1.81-1.85-2.5a18.6,18.6,0,0,0-2.45-2.17c-1-.77-3.88-2.65-5.13-1.64-.93.75-1,3.36-1.11,4.74,0,.15,0,.28,0,.4a8.46,8.46,0,0,0,.11,2.89c.08.41.42,1.15.6,1.8-2.48-.81-8.13.71-8.45,2.81a2.34,2.34,0,0,1,.39,0c-.52.27-1,.51-1.32.66a11.11,11.11,0,0,0-3,2.09c-.39.36-.94,1.24-1.53,1.86-.81-3.22-6.26-8.27-8.74-7.18,1.92,2.54,2.24,8.17.91,11-2-2.63-3.48-4.28-6.69-5.54-2-.79-4.52-1.74-4.8,1.08a17.34,17.34,0,0,0,1.08,8.25c1,2.27,3.66,5.08,6.4,5-2.21,1-3.79,3.3-6.06,4.36a28.74,28.74,0,0,1-8.81,2.34c1.22,1.13,1.56,2.81,3,3.79a13.11,13.11,0,0,0,3.79,1.68,20.71,20.71,0,0,0,4.68.59,12.87,12.87,0,0,0,3.34-.58c-.07.19-.14.36-.18.5a13.73,13.73,0,0,1-1.16,2.48c-.42-.41-.87-.62-1.38-.23-1.43,1.09-2.12,4-2.81,5.56a14,14,0,0,0-1.06,2.93,5.16,5.16,0,0,0-.07.62,9.41,9.41,0,0,1-.83.8,17.92,17.92,0,0,0-.47-2.11,19.75,19.75,0,0,0-1.5-3.09c-.68-1.17-2.66-4.16-4.29-3.69-1.33.37-2.58,3.41-3.23,4.5a9,9,0,0,0-1.07,2.85c-.09.43-.06,1.29-.16,2-2.07-1.8-8.16-2.65-9.33-.74,2.5.81,5.39,4.48,5.84,7.05-2.6-.84-4.38-1.26-7.16-.59-1.72.42-3.89,1-2.75,3a14.32,14.32,0,0,0,4.65,5.09c1.75,1.06,4.88,1.71,6.69.34-1,1.71-1,4-2,5.83a23.86,23.86,0,0,1-4.87,5.76c1.36.19,2.39,1.17,3.84,1.15a11.24,11.24,0,0,0,3.36-.66A17.93,17.93,0,0,0,397,924a10.6,10.6,0,0,0,2-2c0,.16.07.31.11.43a26.77,26.77,0,0,1,.6,4.24c.07.46.15,1,.22,1.52a12,12,0,0,0-.24,3.92.8.8,0,0,0-.55.13c-1.49.85-2.49,3.52-3.33,4.89l-.32.51c-.29-.22-.58-.43-.87-.63a21.31,21.31,0,0,0-2.58-1.54c-.62-1.34-2-3.86-3.43-3.65s-2.85,2.9-3.59,3.85a8.74,8.74,0,0,0-1.37,2.56c-.14.39-.2,1.2-.38,1.85-1.73-1.95-7.36-3.49-8.7-1.84,2.26,1.08,4.53,4.88,4.63,7.36-2.35-1.11-4-1.72-6.67-1.44-1.68.19-3.78.44-3,2.5a13.53,13.53,0,0,0,3.75,5.36,7.28,7.28,0,0,0,1.89,1.07,2.29,2.29,0,0,0,0,.26,5.07,5.07,0,0,1,.64,0,6.09,6.09,0,0,0,2.33.3c.32.08.65.17,1,.27-.81,1.42-1.15,3.2-2.17,4.53l-.52.65a21.44,21.44,0,0,1-3.15,3c-.52.43-1.07.82-1.61,1.19,1.09.3,1.88,1.14,3,1.45-.41.85-.31,1.73.91,2.62a19.65,19.65,0,0,0,8.37,3.57,10.51,10.51,0,0,1-.25,1.35A15.21,15.21,0,0,0,382,972a12.13,12.13,0,0,0-2.86.14c-1.14.27-1.91.94-1.5,2.59a18.11,18.11,0,0,0,3.95,7.74c1.79,1.88,5.36,3.71,8,2.66-1.83,1.73-2.59,4.56-4.44,6.41a30.19,30.19,0,0,1-7.85,5.37c1.58.68,2.5,2.22,4.29,2.68a13.74,13.74,0,0,0,4.3.33,20.23,20.23,0,0,0,4.12-.83,12.63,12.63,0,0,0-1.39,3.6c-.14.6-.12,1.81-.28,2.78-2.85-2.59-11.37-4-13.06-1.32,3.49,1.21,7.41,6.44,8,10.07C379.65,1013,377.17,1012.35,373.27,1013.2Zm236.78-49.34a.13.13,0,0,0,0,.06,1.57,1.57,0,0,1-.34-.61,22.83,22.83,0,0,1-.36-3.23c-.07-.3-.15-.59-.23-.89a18.52,18.52,0,0,0,2.41.27c.15.26.3.52.42.79A16.54,16.54,0,0,0,610.05,963.85Zm7.33,33.94a4.87,4.87,0,0,0-.53-2,3.94,3.94,0,0,0,1.07.75,13.44,13.44,0,0,0,0,1.68A1.78,1.78,0,0,1,617.38,997.79Zm-3.2-93.16a5.8,5.8,0,0,1,.57.2,20.54,20.54,0,0,0-.48,4.27c-1.27-.63-1.93-3.45-2.6-4.58-.13-.21-.27-.41-.41-.61C612.55,904.19,613.74,904.52,614.18,904.63Zm-4.64,42.5c1.35-.37,5.81,4,6.72,4.88,2.13,2,2.78,4.65,4.06,7.13a1.9,1.9,0,0,0,1.18-.75,15.08,15.08,0,0,0,.58,2.84c-1-.16-2.05-1.94-2.75-2.57a14.34,14.34,0,0,0-3.38-2.13,12.55,12.55,0,0,0-5.94-1.35C608.63,951.83,607.81,947.62,609.54,947.14Zm-4.76,54.68a.76.76,0,0,0,0,.14l-.73-.42a6.1,6.1,0,0,0-.09-.94A4,4,0,0,0,604.79,1001.81ZM580.32,880.89c-.27,0-.54,0-.81-.07-.31-.43-.62-.83-.94-1.24a30.88,30.88,0,0,0-.39-3.46c-.28-.88-.59-1.79-.95-2.68a8.41,8.41,0,0,0,3,.29c-.66-.4-1.44-1.82-2.07-3.53a16.4,16.4,0,0,1,5.07,4.54A15,15,0,0,1,580.32,880.89Zm-2.25-18.48c1.06-.23,4,2.8,5.35,4.23a14.38,14.38,0,0,1,.32,2.09,12.86,12.86,0,0,0-4.72.5,10,10,0,0,0-1,.36c-.06-.17-.11-.34-.15-.51C576.92,866.08,576.59,862.73,578.07,862.41Zm-140-2.1a5.46,5.46,0,0,1,.57.74l-.59.06C438.08,860.85,438.08,860.59,438.08,860.31Zm-2,9.1a6.88,6.88,0,0,0,.78.15h0a3.45,3.45,0,0,1-1.07,1A5.57,5.57,0,0,1,436.05,869.41Zm-29.32,30.77a2.64,2.64,0,0,1-.17.49,2.29,2.29,0,0,1-.23-.52Zm-17.4,74.24a17.06,17.06,0,0,0-3.22-1.62,8.77,8.77,0,0,0,2.43-1.82c.19-.23.4-.49.61-.76a3.76,3.76,0,0,0,.44-.17,12.42,12.42,0,0,1,1,4.63,4.37,4.37,0,0,1,0,.49C390.11,974.9,389.71,974.64,389.33,974.41Z" fill="#1a0e0e"/><path d="M514.8,827.61a.13.13,0,0,0,0,.06,3.66,3.66,0,0,1-.29-.62Z" fill="#1a0e0e"/><path d="M389,665.71l-.43.15A.55.55,0,0,1,389,665.71Z" fill="#1a0e0e"/><path d="M400,639.7c-.17.12-.34.25-.51.36C399.51,639.9,399.7,639.78,400,639.7Z" fill="#1a0e0e"/><path d="M500.13,819.9c-.06.14-.13.08.17-.49v0l0,.11A3.44,3.44,0,0,1,500.13,819.9Z" fill="#1a0e0e"/><path d="M441.49,582.18c-.15.12-.29.24-.45.35C441.09,582.38,441.25,582.26,441.49,582.18Z" fill="#1a0e0e"/><path d="M419.06,600.21l-.54.09A.67.67,0,0,1,419.06,600.21Z" fill="#1a0e0e"/><path d="M430.6,727.64l-.38.24A.52.52,0,0,1,430.6,727.64Z" fill="#1a0e0e"/><path d="M382.11,703.26c-.17.11-.34.22-.52.31A.7.7,0,0,1,382.11,703.26Z" fill="#1a0e0e"/><path d="M-95.14,722.5c-2.05.32-1.9,4.88-1.82,6s.61,6.59,2.16,7c1.55-1.54,2.63-3.3,4.75-4.37.92-.46,5.41-2.81,6.41-2.31,2,1-3.12,7.69-5.09,8.14,1.06.51,3,.43,4.2.65a26.5,26.5,0,0,0,5.16.52c1.95,0,6.27-.54,7.91-2.24-1,1.83-.28,4.27.08,6.1.23,1.16.5,2.31.76,3.46s.69,1.41,2.17,1.38c2.27,0,5.42-1.78,7.39-2.75A18.59,18.59,0,0,0-58,742h1.32a26.84,26.84,0,0,1-2.57,2.16,13.81,13.81,0,0,1,4.5.46A12.55,12.55,0,0,0-51,747.87a11.56,11.56,0,0,0,0,2.53c.1.89.63,4.86,1.8,5.14,1.11-1.17,1.86-2.5,3.4-3.33.67-.36,3.93-2.19,4.69-1.85,1.54.71-2.1,5.76-3.55,6.13a14.82,14.82,0,0,0,3.13.39,19.72,19.72,0,0,0,3.84.27c1.44-.05,4.64-.54,5.8-1.83-.68,1.38-.09,3.16.23,4.52.2.85.44,1.7.66,2.55s.55,1,1.65,1c1.68-.08,4-1.44,5.4-2.2.64-.34,3-2,3.44-3.17a3.08,3.08,0,0,0,0,.77,8.47,8.47,0,0,0,1.14,2.43c1.08,1.61,2.94,2.45,4.6,3.51-1.08-1.77-.25-4.87.2-6.71a19,19,0,0,1,.77-3.2c0-.09.08-.2.12-.32a12.9,12.9,0,0,0,1.11,1.18c.55,1.37,1.8,4.14,2.85,4.18.41-.69.73-1.41,1.11-2.09a9.94,9.94,0,0,0,2.24.42c1.14.06,2-.52,3-.69l.13.06a5.51,5.51,0,0,1-1.72,2.37,15.46,15.46,0,0,0,3.24-.22,20.39,20.39,0,0,0,3.92-.47c1.28-.3,3.88-1.21,5-2.47l.29,0c-.09,1.38.82,2.86,1.41,4,.41.81.86,1.61,1.29,2.41s.81.91,1.9.65c1.67-.4,3.63-2.2,4.88-3.23a10.66,10.66,0,0,0,1-1l.26,45.57c-.09.47-.19,1-.27,1.63l0,.31,0,.38c0,.25,0,.49,0,.71,0,.44,0,.83,0,1.14a4.61,4.61,0,0,1,0,1s0,0,0,0,0,.07,0,.07l-.16.8-.31,1.59-.3,1.47c-.1.44-.19.85-.3,1.23l-.16.54-.08.25,0,.06,0,.14-.08.27c-.21.73-.37,1.42-.5,2.06-.28,1.28-.46,2.38-.66,3.29a12.89,12.89,0,0,1-.58,2.11l-.07.17-.13.34-.29.77L13.51,827c-.78,2.09-1.55,4.24-2.26,6.47l-.52,1.68-.22.77a5.83,5.83,0,0,1,1-1.34,7.9,7.9,0,0,1,1.18-1,8.88,8.88,0,0,1,1.75-.93l8,16.89A13.27,13.27,0,0,0,25,848.21a12.58,12.58,0,0,0,1.84-1.53,12.29,12.29,0,0,0,2-2.69,14.23,14.23,0,0,0,1.37-3.5c.11-.44.19-.83.26-1.15s.11-.59.12-.68l.29-1.43c.4-1.92.89-3.88,1.42-5.88l.89-3.31a28.9,28.9,0,0,0,.7-4.16l.28-3q.06-.62.14-1.08l0-.12v-.06l0-.13.11-.53c.71-3.6-.92-6.48-1.08-10a75.71,75.71,0,0,0-2.06-14.55c-1-4.27-.6-8.69-1.42-12.9a65.9,65.9,0,0,1-1.52-10.92,27.61,27.61,0,0,1,2.25-11.69c1.6-3.92,3.83-2.45,7.7-1.28a6.07,6.07,0,0,1-1.66-3.11c1.41-1,3.15-2,3.81-1.82,2.15.66-1.49,7.76-3.28,8.47,1.11.32,2.94-.05,4.14,0a26,26,0,0,0,5-.29c1.86-.31,5.88-1.47,7.11-3.32-.59,1.88.56,4.08,1.26,5.77.44,1.06.93,2.11,1.39,3.17s.93,1.23,2.34,1c2.16-.38,4.83-2.51,6.52-3.72.76-.55,3.49-3,3.78-4.65a4,4,0,0,0,.16,1A11.49,11.49,0,0,0,71,763c1.74,1.89,4.33,2.66,6.7,3.75-1.78-2.09-1.36-6.22-1.18-8.66,0-.08,0-.15,0-.23a5.46,5.46,0,0,0,1.86-1c-1.15,1.83-.59,4.39-.36,6.31.15,1.21.35,2.41.53,3.62s.61,1.49,2.14,1.55c2.34.09,5.71-1.53,7.81-2.42.94-.4,4.48-2.39,5.24-4a4.31,4.31,0,0,0-.12,1.06,11.58,11.58,0,0,0,1.22,3.52c1.25,2.37,3.71,3.75,5.85,5.43-1.23-2.58.39-6.81,1.28-9.31a27.06,27.06,0,0,1,1.54-4.37c.06-.12.14-.27.21-.43a11.2,11.2,0,0,0,2,2.37,20.18,20.18,0,0,0,3.74,2.42,14.2,14.2,0,0,0,3.85,1.19c1.72.24,3.12-.64,4.77-.63a24.28,24.28,0,0,1-4.64-6.78c-.86-2-.39-4.49-1.28-6.43,1.88,1.71,5.7,1.49,8,.64a17.44,17.44,0,0,0,6.48-4.65c1.75-2-.7-2.87-2.67-3.56-3.15-1.12-5.34-.94-8.58-.45,1-2.64,5.16-6.05,8.28-6.54-1-2.18-8.37-2.2-11.18-.62,0-.75.22-1.65.2-2.11a8.67,8.67,0,0,0-.6-2.86,19,19,0,0,0,3.33,1.12,13.41,13.41,0,0,0,3.67.29c1.57-.13,2.58-1.16,4-1.47a23.81,23.81,0,0,1-5.75-5c-1.27-1.61-1.45-3.82-2.72-5.33,2.07,1.12,5.37.18,7.16-1a14.39,14.39,0,0,0,4.53-5.29c1-2-1.33-2.35-3.22-2.57-.51-.06-1-.08-1.44-.09a7.77,7.77,0,0,1,0-1,18.78,18.78,0,0,0,7.6-1.64c1.16-.5,1.39-1.15,1.17-1.84,1-.1,1.77-.63,2.74-.71a17,17,0,0,1-3.68-4.26c-.64-1.12-.65-2.5-1.11-3.65.29,0,.58-.07.87-.09a5.85,5.85,0,0,0,2,.07l.53.11a1.26,1.26,0,0,0,0-.19,7.29,7.29,0,0,0,1.76-.57,11.4,11.4,0,0,0,4-3.54c1-1.43-.71-1.88-2.09-2.22a10.64,10.64,0,0,0-5.83.25,8.47,8.47,0,0,1,5.05-4.92c-.86-1.4-5.83-.94-7.59.3-.05-.51,0-1.12,0-1.43a5.88,5.88,0,0,0-.74-2.07c-.48-.8-1.35-3-2.41-3.32s-2.73,1.37-3.46,2.3a20.57,20.57,0,0,0-2.41.83l-.83.36-.18-.42c-.49-1.13-.92-3.24-2-4.06a.75.75,0,0,0-.45-.16,8.28,8.28,0,0,0,.42-3c.15-.4.29-.77.42-1.11a19.42,19.42,0,0,1,1.18-3.09c0-.08.1-.19.16-.31A7.93,7.93,0,0,0,118,672.8a14.27,14.27,0,0,0,2.62,1.78,10.07,10.07,0,0,0,2.72.91c1.22.19,2.24-.41,3.41-.38a17.19,17.19,0,0,1-3.18-4.9c-.58-1.47-.2-3.21-.8-4.61,1.31,1.25,4,1.14,5.68.57a12.53,12.53,0,0,0,4.7-3.23c1.28-1.38-.45-2.06-1.84-2.58a11.1,11.1,0,0,0-6.1-.44,9.31,9.31,0,0,1,6-4.54c-.68-1.57-5.93-1.69-8-.6,0-.54.19-1.17.18-1.5A6.09,6.09,0,0,0,123,651c-.37-.9-.94-3.31-2-3.76-1.29-.55-3.43,1.44-4.19,2.23a15.39,15.39,0,0,0-1.74,2.13,11.71,11.71,0,0,0-.73,1.51,7,7,0,0,1-.57-.7,3,3,0,0,0,0-.47,9.29,9.29,0,0,0-.43-2.31c-.34-1.24-.46-3.51-1.49-4.5-.37-.36-.78-.25-1.2,0a9.15,9.15,0,0,1-.57-2,3.92,3.92,0,0,0-.08-.4,11.8,11.8,0,0,0,2.72.84,20.12,20.12,0,0,0,4,.13,12.9,12.9,0,0,0,3.45-.78c1.38-.56,1.93-1.77,3.13-2.46a25.68,25.68,0,0,1-7-2.83c-1.73-1.08-2.7-3-4.41-4,2.29.42,5-1.35,6.16-2.93a12.3,12.3,0,0,0,2.21-6c.21-2.13-2.06-1.73-3.87-1.39A12.82,12.82,0,0,0,110,626.6c-.67-2.3.49-6.46,2.5-8.12-1.91-1.11-7.28,2-8.47,4.29-.4-.54-.73-1.26-1-1.58a8.66,8.66,0,0,0-2.22-1.93c-.26-.16-.61-.4-1-.66l.32.06c.07-1.61-4.43-3.43-6.65-3.14.25-.47.65-1,.79-1.27a6,6,0,0,0,.55-2.15c.05-.91.57-3.24-.16-4-.89-.91-3.58.15-4.57.6a16.75,16.75,0,0,0-2.4,1.31,20.07,20.07,0,0,1-2.32,1.86c.06-.61.82-1.4,1.08-2a9.17,9.17,0,0,0,.59-2.19c.22-1.21,1.07-3.25.59-4.46-.38-1-1.86,0-2.89.05-2.14.12-4.09-.54-6.18-.74,1-2.62,4.49-5,7.48-5.52a10.1,10.1,0,0,0-6.17-1.6,13.2,13.2,0,0,0-3.21.42c-.73.21-2.12,1.07-2.9.88a10.65,10.65,0,0,0,2.39-3.58,6.42,6.42,0,0,0,.36-1.86c-.27-.32-1.5.07-1.79.15a21.5,21.5,0,0,0-4.75,2c-.81.45-2.29,2.25-3.24,2.06a12.31,12.31,0,0,1-1.06-.77,13.84,13.84,0,0,0-2.43-1.1c-.95-.33-3.32-1-4.34-.64-1.3.44-1.44,2.35-1.37,3.37a6.37,6.37,0,0,0,.57,2.31c.22.45.63.73.84,1.14-.21-.41-1-.58-1.82-.62a4.86,4.86,0,0,0,0-2.71.8.8,0,0,0-.94-.46c.51-1.13-1.08-1.8-2.39-2.33a10.61,10.61,0,0,0-4.79-.81,13.18,13.18,0,0,1,6.17-3.33,9.25,9.25,0,0,0-2.47-1.16,5.74,5.74,0,0,1,1.16-.27c-.7-1.77-6.56-2-8.85-.87,0-.6.25-1.3.25-1.67a6.79,6.79,0,0,0-.43-2.54c-.39-1-.94-3.73-2.11-4.25-1.37-.62-3.7,1.37-4.65,2.29a14.12,14.12,0,0,0-4-.34c-.26-1.44-.42-3.54-1.41-4.55s-2.05.7-3.16,1.15c-.27.11-.54.21-.82.3a4.28,4.28,0,0,0,.12-1.61c-.36-.37-1.81.21-2.16.32a24.4,24.4,0,0,0-4.31,2c.15-3.11,2.71-6.65,5.58-8.28a12.43,12.43,0,0,0-7.58.61,14.69,14.69,0,0,0-3.34,1.67c-.71.5-1.82,2-2.78,2.06a11.22,11.22,0,0,0,.9-4.79,7.4,7.4,0,0,0-.5-2.15c-.45-.25-1.61.65-1.9.84a22.61,22.61,0,0,0-4.28,3.94c-.67.79-1.43,3.31-2.57,3.47-.19,0-1.27-.38-1.54-.43A17.71,17.71,0,0,0,1.06,575a17.28,17.28,0,0,0-3.94.45l0,0c-1.28-.78-2.09,1.28-3.19,2.06-2.29,1.61-5.07,2.25-7.58,3.48-1.18-3.55.64-8.51,3.51-11.18a14.06,14.06,0,0,0-8.32,2.54A15.71,15.71,0,0,0-21.74,575c-.64.73-1.43,2.63-2.48,3a12.6,12.6,0,0,0-.48-5.55,8.92,8.92,0,0,0-1.24-2.27c-.59-.16-1.61,1.11-1.87,1.4A23.82,23.82,0,0,0-31.38,577c-.51,1-.58,4-1.81,4.49-.2.08-1.54-.11-1.87-.1a20.64,20.64,0,0,0-3.69.49c-1.36.29-4.6,1.23-5.44,2.31-1.06,1.38.46,3.55,1.44,4.61a10.26,10.26,0,0,0,2.68,2.12c.65.34,1.35.36,1.95.66-1.37-.7-4.79,2-5.72,2.72-1.68,1.28-2.86,3.11-4.46,4.41,2.11-.75,10.92.76,12.2,1.16-1.89.52-1.11,4.78-.86,5.85A29.76,29.76,0,0,0-36,609c-.31.08-.62.17-.92.27-.91.31-2.58,1.48-3.58,1.3a13.11,13.11,0,0,0,2.7-4.65,8,8,0,0,0,.3-2.35c-.37-.39-1.87.19-2.23.31a26.67,26.67,0,0,0-5.8,2.8c-1,.62-2.68,3-3.9,2.81a15.82,15.82,0,0,1-1.4-.89A17.73,17.73,0,0,0-54,607.41c-1.22-.36-4.26-1-5.52-.51-1.59.64-1.61,3-1.43,4.31a8.08,8.08,0,0,0,.91,2.86c.32.55.85.87,1.15,1.37-.68-1.16-4.85-.47-6-.31-2,.3-4,1.25-5.92,1.59,2.06.32,8.09,5.35,8.86,6.23-1.76-.4-3.51,3.35-3.91,4.31-.09.23-.26.63-.44,1.13a27.46,27.46,0,0,0-3.65,5.08c-.63,1.11-.91,4.36-2.28,4.8-.22.07-1.67-.21-2-.21a22.55,22.55,0,0,0-4.05.33c-1.5.24-5.1,1.09-6.08,2.22-1.25,1.45.25,3.9,1.24,5.11a11,11,0,0,0,2.77,2.46c.69.4,1.44.47,2.08.83-1.44-.84-5.36,1.93-6.42,2.65-1.92,1.31-3.34,3.24-5.17,4.56,2.36-.7,11.83,1.43,13.2,1.94-2.09.47-1.54,5.15-1.35,6.33.08.47.27,1.57.57,2.76l-.11.06a21.16,21.16,0,0,0-4.29,3.12c-.7.64-1.68,2.82-2.71,2.86a14.15,14.15,0,0,1-1.32-.53,15.6,15.6,0,0,0-2.82-.55c-1.07-.12-3.71-.23-4.65.37-1.2.75-.78,2.72-.4,3.74a7.07,7.07,0,0,0,1.27,2.21c.37.41.86.59,1.2,1-.77-.85-4.09.3-5,.59-1.62.53-3,1.58-4.61,2.14,1.76,0,7.65,3.24,8.45,3.85-1.53-.08-2.29,3.24-2.45,4.09s-.83,4.86.21,5.39c1.4-.88,2.51-2,4.23-2.44.75-.2,4.41-1.22,5-.71,1.27,1-3.7,5.09-5.19,5.12a13.91,13.91,0,0,0,2.88,1.1c.36.15.72.29,1.08.42l0,.05c-.7,1-1.24,4.15-2.59,4.49-.22.05-1.59-.31-1.93-.34a21.75,21.75,0,0,0-3.93.06c-1.46.14-5,.72-6,1.76-1.33,1.32-.08,3.78.78,5a10.32,10.32,0,0,0,2.46,2.55c.63.43,1.35.54,1.93.93-1.32-.91-5.31,1.52-6.4,2.15-2,1.14-3.48,2.91-5.35,4.07C-105.36,719.25-96.41,721.92-95.14,722.5ZM-79,699.76a3.55,3.55,0,0,0,1-.43,3.62,3.62,0,0,0-.76,1.45,1.7,1.7,0,0,1-.55.23A10.57,10.57,0,0,0-79,699.76Zm51-87a8.07,8.07,0,0,0,2.61.16c-.44.63-.85,1.26-1.21,1.89a20.08,20.08,0,0,0-.87,2.54q-.5.39-1,.81l-.69,0a10.09,10.09,0,0,1-1.51-5,14.79,14.79,0,0,1,5-2.76A6.49,6.49,0,0,1-28,612.73Zm-40.8,92.61a3.41,3.41,0,0,0,.91-.8,3.8,3.8,0,0,0-.22.69l-.68.22S-68.8,705.37-68.81,705.33ZM-65.7,673c-.12.21-.23.42-.33.64-.32.69-.46,2.31-1.19,2.78a11.12,11.12,0,0,0-1-3c.15-.18.31-.36.48-.53A18.64,18.64,0,0,0-65.7,673ZM-29.53,607c1.35-.9,4.3-2.8,5.16-2.5,1.27.45.29,3.18-1.07,5.37a11.63,11.63,0,0,0-4.69-1.35A10.77,10.77,0,0,1-29.53,607Zm63.81-20.69.35-.38a3,3,0,0,1-.34.42Zm58.86,40.92h0l.67,0a3.22,3.22,0,0,1,0,.87A2.72,2.72,0,0,1,93.14,627.28Zm.43-7.06c0,.21-.09.41-.12.59L93,620.7A4.8,4.8,0,0,1,93.57,620.22ZM-5.32,755.09l-.36-.44.07-.05Zm-58.86-91.17c1.38.57,0,3.62-1.66,6a12.06,12.06,0,0,0-5.2.28,13.54,13.54,0,0,0-3.17,1.18c-.69.38-1.86,1.58-2.72,1.57a10.66,10.66,0,0,0,.93-2,1.54,1.54,0,0,0,.88.7c1.47-1.69,2.43-3.58,4.53-4.82C-69.69,666.2-65.25,663.48-64.18,663.93Zm5.38-32.49c-.15.13-.3.26-.43.4-.75.76-1.75,2.79-2.91,3.1a14.12,14.12,0,0,0,.27-3.25l.51-.07C-61,631.59-59.93,631.49-58.8,631.43ZM114,653.87a2.67,2.67,0,0,1-.28.36,1.29,1.29,0,0,1-.06-.39Zm1.45,58a8.58,8.58,0,0,1,1.58-3.71l.34.19c.13.23.26.44.4.64a6.62,6.62,0,0,0,1.74,1.66A20.17,20.17,0,0,0,115.42,711.83Zm-173.18,30a5.56,5.56,0,0,0,1.5-1.84,4.15,4.15,0,0,0,0,1c0,.19.09.38.15.58l-.24.19Z" fill="#1a0e0e"/><path d="M300,639.61l.49.17A.55.55,0,0,0,300,639.61Z" fill="#1a0e0e"/><path d="M286.79,605.88c.19.15.38.31.59.44A.79.79,0,0,0,286.79,605.88Z" fill="#1a0e0e"/><path d="M180.69,849.76c.07.18.14.1-.2-.64v0l0,.14A5,5,0,0,0,180.69,849.76Z" fill="#1a0e0e"/><path d="M264,554.79c.2,0,.41.07.61.08A.65.65,0,0,0,264,554.79Z" fill="#1a0e0e"/><path d="M255.46,723.84c.14.1.28.21.43.3A.57.57,0,0,0,255.46,723.84Z" fill="#1a0e0e"/><path d="M309,688.83c.2.13.39.27.59.38A.76.76,0,0,0,309,688.83Z" fill="#1a0e0e"/><path d="M999.9,654.73l-.47.16A.69.69,0,0,1,999.9,654.73Z" fill="#1a0e0e"/><path d="M1010.69,630.27c-.18.12-.36.24-.55.36C1010.2,630.48,1010.4,630.36,1010.69,630.27Z" fill="#1a0e0e"/><path d="M1131.83,789.88c-.05.13-.13.08.16-.46v0l0,.1A2.79,2.79,0,0,1,1131.83,789.88Z" fill="#1a0e0e"/><path d="M1053.7,575.22c-.16.12-.31.24-.48.35C1053.26,575.42,1053.43,575.31,1053.7,575.22Z" fill="#1a0e0e"/><path d="M1029.75,593l-.6.11A.87.87,0,0,1,1029.75,593Z" fill="#1a0e0e"/><path d="M1049.53,709.18l-.41.24C1049.17,709.32,1049.32,709.24,1049.53,709.18Z" fill="#1a0e0e"/><path d="M994.32,689.53c-.19.11-.37.22-.56.31C993.83,689.71,994,689.6,994.32,689.53Z" fill="#1a0e0e"/><path d="M1305.09,723.8c-2.26.4-1.85,4.58-1.69,5.63s1,6,2.79,6.3c1.64-1.5,2.74-3.17,5-4.27,1-.47,5.86-2.87,7-2.47,2.33.82-3,7.23-5.21,7.74,1.2.41,3.35.22,4.7.36a35.59,35.59,0,0,0,5.76.19c2.17-.12,6.94-.85,8.67-2.5-1,1.73-.07,3.93.43,5.59.32,1.05.68,2.09,1,3.13s.85,1.25,2.49,1.15c2.52-.16,5.93-1.93,8.06-2.93a21.12,21.12,0,0,0,3.33-2.13l1.47-.08a28.88,28.88,0,0,1-2.74,2.12,18.54,18.54,0,0,1,5,.17,13.65,13.65,0,0,0,4.28,2.79,8.78,8.78,0,0,0,.14,2.31c.16.81,1,4.42,2.28,4.61,1.16-1.14,1.93-2.4,3.6-3.25.72-.37,4.25-2.23,5.11-2,1.75.57-2,5.4-3.6,5.82a19.87,19.87,0,0,0,3.5.18,26.53,26.53,0,0,0,4.28,0c1.6-.13,5.12-.75,6.34-2-.68,1.3.08,2.91.5,4.13.27.77.58,1.53.87,2.3s.67.91,1.88.8c1.86-.17,4.33-1.54,5.88-2.31.7-.35,3.25-2,3.65-3.1a2.34,2.34,0,0,0,0,.7,7.34,7.34,0,0,0,1.4,2.17c1.29,1.42,3.4,2.08,5.31,3-1.3-1.56-.54-4.45-.15-6.17a14.81,14.81,0,0,1,.68-3,2.83,2.83,0,0,0,.11-.3,13.33,13.33,0,0,0,1.3,1c.69,1.23,2.22,3.69,3.39,3.67.42-.66.73-1.33,1.12-2a13.22,13.22,0,0,0,2.51.26,17.05,17.05,0,0,0,3.35-.8l.14,0a5.21,5.21,0,0,1-1.79,2.27,20.74,20.74,0,0,0,3.59-.38,27.21,27.21,0,0,0,4.33-.65c1.41-.34,4.24-1.32,5.45-2.55l.32-.06c0,1.27,1.06,2.57,1.78,3.61.5.72,1,1.42,1.57,2.14s.95.79,2.14.49c1.83-.46,3.92-2.22,5.25-3.23a10.92,10.92,0,0,0,1-1l2.78,41.76c-.08.44-.15.94-.21,1.51l0,.29,0,.35c0,.23,0,.45,0,.65,0,.41,0,.76.05,1a3.5,3.5,0,0,1,0,.93,0,0,0,0,1,0,0s0,.07,0,.07l-.13.74-.26,1.48-.25,1.36c-.08.41-.17.79-.27,1.14l-.15.51-.08.24,0,.06,0,.13-.07.26c-.19.68-.33,1.32-.45,1.91-.24,1.19-.38,2.21-.55,3.06a10.2,10.2,0,0,1-.53,2l-.07.16-.13.32-.28.72-.57,1.46c-.75,2-1.49,4-2.16,6.05l-.49,1.57-.2.72a5.48,5.48,0,0,1,1.05-1.29,8.51,8.51,0,0,1,1.26-1,10.61,10.61,0,0,1,1.89-.95l9.85,15a15.87,15.87,0,0,0,2.74-1.36,13.57,13.57,0,0,0,2-1.5,11.45,11.45,0,0,0,3.43-5.86c.1-.41.17-.77.22-1.07s.09-.55.09-.63l.24-1.32c.34-1.78.78-3.6,1.25-5.47l.81-3.08a22.22,22.22,0,0,0,.56-3.85l.15-2.78q0-.57.09-1v-.16l0-.12.09-.49c.6-3.34-1.37-5.89-1.75-9.1a58.53,58.53,0,0,0-3.09-13.22c-1.39-3.86-1.14-7.93-2.28-11.75A50.91,50.91,0,0,1,1445,761a21.43,21.43,0,0,1,1.86-10.84c1.56-3.68,4.13-2.46,8.48-1.6a5.43,5.43,0,0,1-2-2.76c1.51-1,3.39-2,4.13-1.88,2.42.48-1.23,7.19-3.18,8,1.25.23,3.27-.21,4.59-.25a34.87,34.87,0,0,0,5.56-.54c2-.39,6.46-1.67,7.72-3.44-.55,1.76.85,3.71,1.72,5.22.55,1,1.14,1.88,1.72,2.82s1.11,1.07,2.65.77c2.38-.47,5.23-2.57,7-3.78.82-.54,3.71-3,3.94-4.47a3.11,3.11,0,0,0,.23.89,10.86,10.86,0,0,0,2.38,2.58c2,1.64,5,2.19,7.65,3.06-2.09-1.82-1.85-5.63-1.78-7.88,0-.07,0-.14,0-.21a6.46,6.46,0,0,0,2-1.05c-1.18,1.74-.42,4.06-.05,5.8.23,1.1.52,2.19.79,3.29s.76,1.33,2.46,1.3c2.61-.05,6.26-1.72,8.54-2.65,1-.42,4.85-2.44,5.6-4a3.29,3.29,0,0,0-.07,1,9.55,9.55,0,0,0,1.54,3.16c1.52,2.1,4.33,3.23,6.79,4.65-1.51-2.3.06-6.26.91-8.61a21.93,21.93,0,0,1,1.48-4.09,4.24,4.24,0,0,0,.21-.41,11.2,11.2,0,0,0,2.32,2.06,23.7,23.7,0,0,0,4.29,2,18.44,18.44,0,0,0,4.34.88c1.93.12,3.44-.76,5.26-.84a23,23,0,0,1-5.52-6c-1.07-1.83-.67-4.09-1.78-5.83,2.18,1.46,6.41,1,8.91.14a19.51,19.51,0,0,0,7-4.62c1.84-1.9-.94-2.59-3.16-3.12-3.56-.85-6-.56-9.55.07,1-2.47,5.4-5.84,8.84-6.45-1.24-1.94-9.42-1.55-12.45.06,0-.69.16-1.52.11-1.95a6.83,6.83,0,0,0-.82-2.59,24.52,24.52,0,0,0,3.76.84,18,18,0,0,0,4.09.06c1.73-.21,2.8-1.21,4.39-1.57a26.06,26.06,0,0,1-6.66-4.24c-1.49-1.4-1.82-3.42-3.31-4.73,2.36.91,6-.13,7.91-1.32a14.1,14.1,0,0,0,4.75-5.11c1.05-1.94-1.61-2.08-3.72-2.18-.57,0-1.09,0-1.6,0a5.9,5.9,0,0,1-.06-1,24.58,24.58,0,0,0,8.36-1.93c1.26-.53,1.48-1.14,1.2-1.75,1.08-.14,1.93-.67,3-.81a17.21,17.21,0,0,1-4.33-3.7c-.77-1-.86-2.25-1.43-3.28l1-.13a7.86,7.86,0,0,0,2.23,0l.6.07a1,1,0,0,0,0-.18,9.3,9.3,0,0,0,1.92-.62,12.06,12.06,0,0,0,4.25-3.47c1.06-1.37-.89-1.69-2.44-1.92a14.23,14.23,0,0,0-6.46.55c.43-1.71,3.08-4.2,5.34-4.79-1-1.23-6.53-.54-8.42.7-.09-.46,0-1-.12-1.31a4.88,4.88,0,0,0-.94-1.86c-.57-.71-1.66-2.68-2.86-2.91s-3,1.41-3.72,2.3a26.1,26.1,0,0,0-2.63.9l-.9.38-.23-.38c-.61-1-1.2-2.92-2.47-3.61a1,1,0,0,0-.51-.12,6.35,6.35,0,0,0,.3-2.74c.14-.38.28-.73.41-1a15.89,15.89,0,0,1,1.14-2.9,3.08,3.08,0,0,0,.16-.29,7.82,7.82,0,0,0,1.61,1.5,16.59,16.59,0,0,0,3,1.49,13,13,0,0,0,3.07.68c1.37.11,2.46-.5,3.76-.54a16.06,16.06,0,0,1-3.81-4.31c-.72-1.32-.39-2.93-1.14-4.18,1.52,1.07,4.54.82,6.34.2a14.16,14.16,0,0,0,5-3.22c1.35-1.34-.61-1.86-2.18-2.26a14.85,14.85,0,0,0-6.81-.06c.77-1.75,4-4.1,6.43-4.5-.84-1.4-6.68-1.21-8.87-.1,0-.49.14-1.08.12-1.39a4.79,4.79,0,0,0-.63-2c-.46-.8-1.23-3-2.43-3.34-1.47-.43-3.73,1.51-4.53,2.28a14.9,14.9,0,0,0-1.82,2,10,10,0,0,0-.73,1.43,6.93,6.93,0,0,1-.68-.61,2.3,2.3,0,0,0,0-.43,7.27,7.27,0,0,0-.6-2.1c-.45-1.12-.7-3.19-1.9-4a1.16,1.16,0,0,0-1.33.07,7.38,7.38,0,0,1-.75-1.8,3.08,3.08,0,0,0-.11-.36,15.33,15.33,0,0,0,3.07.62,27.1,27.1,0,0,0,4.49-.1,16.88,16.88,0,0,0,3.79-.91c1.5-.59,2-1.73,3.35-2.43a32.55,32.55,0,0,1-8-2.2c-2-.9-3.17-2.61-5.11-3.43,2.57.25,5.43-1.52,6.69-3a10.06,10.06,0,0,0,2.13-5.65c.12-2-2.39-1.47-4.37-1.06a15.36,15.36,0,0,0-7,3.4c-.87-2.07.19-6,2.34-7.59-2.18-.92-8,2.23-9.18,4.41-.47-.47-.88-1.11-1.19-1.39a9.47,9.47,0,0,0-2.58-1.64c-.3-.13-.7-.33-1.15-.55l.36,0c0-1.48-5.11-2.9-7.56-2.5.25-.44.67-.93.8-1.21a4.71,4.71,0,0,0,.5-2c0-.84.46-3-.4-3.64-1-.78-4,.34-5,.8a19.94,19.94,0,0,0-2.6,1.33,21.87,21.87,0,0,1-2.48,1.83c0-.56.84-1.33,1.09-1.87a7.24,7.24,0,0,0,.54-2c.18-1.12,1-3,.41-4.12-.48-.86-2.06.1-3.21.21-2.37.23-4.58-.27-6.91-.33,1-2.46,4.72-4.81,8-5.48a13.18,13.18,0,0,0-6.94-1.12,17.58,17.58,0,0,0-3.55.56c-.8.23-2.3,1.1-3.18,1a9.75,9.75,0,0,0,2.46-3.42c.07-.22.46-1.59.3-1.72-.32-.28-1.66.15-2,.24a26.71,26.71,0,0,0-5.17,2.07c-.87.46-2.42,2.19-3.49,2.07-.17,0-1-.55-1.22-.65a17.3,17.3,0,0,0-2.76-.87c-1.07-.25-3.75-.72-4.86-.35-1.42.48-1.47,2.23-1.34,3.16a5.08,5.08,0,0,0,.76,2.09c.27.4.74.63,1,1-.25-.37-1.1-.48-2.05-.47a3.72,3.72,0,0,0-.13-2.49,1,1,0,0,0-1.07-.37c.51-1.07-1.29-1.59-2.78-2a14.12,14.12,0,0,0-5.37-.48,15.67,15.67,0,0,1,6.67-3.4,11.5,11.5,0,0,0-2.81-.93,7.5,7.5,0,0,1,1.28-.31c-.88-1.58-7.39-1.5-9.88-.31,0-.55.2-1.21.19-1.55a5.3,5.3,0,0,0-.62-2.3c-.49-.91-1.25-3.36-2.57-3.78-1.56-.49-4,1.47-5,2.36a19,19,0,0,0-4.52-.08c-.37-1.3-.66-3.22-1.81-4.09s-2.24.75-3.45,1.23c-.29.12-.59.22-.89.32.09-.59.18-1.38,0-1.48-.42-.32-2,.29-2.38.42a29.86,29.86,0,0,0-4.68,2.07c0-2.86,2.65-6.25,5.74-7.9a16.54,16.54,0,0,0-8.38,1,17.73,17.73,0,0,0-3.62,1.72c-.76.5-1.92,1.9-3,2a8.7,8.7,0,0,0,.74-4.44c0-.25-.42-1.85-.67-1.94-.52-.2-1.76.68-2.06.88a23.71,23.71,0,0,0-4.54,3.85c-.7.76-1.41,3.11-2.67,3.32-.21,0-1.43-.28-1.73-.31a23.82,23.82,0,0,0-3.58-.07,23.07,23.07,0,0,0-4.36.63l0,0c-1.46-.65-2.25,1.29-3.43,2.06-2.46,1.61-5.51,2.34-8.23,3.61-1.51-3.19.25-7.84,3.29-10.44a17.94,17.94,0,0,0-9.11,2.79,16.94,16.94,0,0,0-3.44,2.64c-.67.71-1.45,2.49-2.59,2.86a9.69,9.69,0,0,0-.84-5.06c-.15-.27-1.17-2-1.5-2-.66-.12-1.73,1.11-2,1.39a21.73,21.73,0,0,0-3.68,5.18c-.51,1-.42,3.72-1.76,4.21-.22.08-1.72,0-2.08,0a27.48,27.48,0,0,0-4.07.65c-1.49.34-5,1.38-5.91,2.42-1.11,1.33.7,3.23,1.85,4.14a11.5,11.5,0,0,0,3.09,1.79c.74.27,1.52.25,2.2.49-1.56-.57-5.21,2.11-6.21,2.81-1.8,1.27-3,3-4.72,4.29,2.31-.8,12.17.09,13.62.39-2.07.58-1,4.44-.64,5.41a24,24,0,0,0,1.26,3c-.34.09-.68.19-1,.3-1,.33-2.78,1.5-3.9,1.39a11.61,11.61,0,0,0,2.74-4.41c.06-.27.41-2,.2-2.17-.43-.33-2.07.28-2.47.41a32.42,32.42,0,0,0-6.29,2.89c-1.05.62-2.82,2.87-4.18,2.79-.22,0-1.31-.63-1.6-.74a22.61,22.61,0,0,0-3.56-.93c-1.37-.26-4.79-.69-6.16-.16-1.74.68-1.62,2.88-1.36,4a6.61,6.61,0,0,0,1.17,2.57c.39.49,1,.75,1.36,1.2-.81-1-5.41-.16-6.64,0-2.23.38-4.33,1.36-6.49,1.79,2.31.18,9.28,4.45,10.18,5.22-2-.27-3.72,3.26-4.11,4.17-.09.21-.25.6-.43,1.06a25.62,25.62,0,0,0-3.78,4.86c-.64,1.06-.78,4.05-2.28,4.53-.24.08-1.87-.1-2.26-.08a30.22,30.22,0,0,0-4.48.53c-1.65.31-5.6,1.28-6.64,2.38-1.31,1.4.49,3.56,1.66,4.61a11.93,11.93,0,0,0,3.21,2.1c.78.33,1.63.35,2.35.64-1.65-.69-5.85,2.07-7,2.79-2.06,1.3-3.53,3.15-5.5,4.47,2.58-.77,13.23.65,14.77,1-2.3.54-1.43,4.81-1.15,5.88.11.43.39,1.42.79,2.5l-.12.06a23.63,23.63,0,0,0-4.59,3.1c-.74.63-1.71,2.68-2.86,2.77-.19,0-1.22-.36-1.49-.41a20.74,20.74,0,0,0-3.16-.34c-1.2,0-4.13,0-5.15.6-1.29.76-.72,2.54-.24,3.45a6.41,6.41,0,0,0,1.54,2c.43.35,1,.5,1.39.82-.9-.74-4.53.5-5.51.82-1.77.58-3.29,1.62-5,2.22,2-.13,8.68,2.54,9.6,3.05-1.7,0-2.37,3.1-2.5,3.88s-.65,4.5.53,4.93c1.51-.89,2.68-2,4.57-2.48.82-.22,4.83-1.36,5.55-.93,1.47.89-3.84,4.88-5.49,5a17.74,17.74,0,0,0,3.26.85l1.22.33,0,.05c-.72,1-1.15,3.88-2.64,4.26-.24.06-1.78-.19-2.16-.2a29.28,29.28,0,0,0-4.36.27c-1.62.21-5.51.94-6.61,1.95-1.4,1.28.12,3.47,1.14,4.55a10.76,10.76,0,0,0,2.88,2.2c.72.36,1.53.42,2.2.75-1.51-.76-5.82,1.69-7,2.32-2.11,1.15-3.7,2.86-5.72,4C1293.55,721.4,1303.64,723.34,1305.09,723.8Zm16.69-21.75a4.38,4.38,0,0,0,1.1-.45,3.14,3.14,0,0,0-.77,1.37,2.11,2.11,0,0,1-.59.24A8.26,8.26,0,0,0,1321.78,702.06Zm51.9-82.64a10.85,10.85,0,0,0,2.91,0c-.45.6-.87,1.2-1.24,1.8a16.23,16.23,0,0,0-.83,2.38q-.54.39-1.05.8h-.77a8.23,8.23,0,0,1-1.95-4.47,17.52,17.52,0,0,1,5.37-2.81A6.64,6.64,0,0,1,1373.68,619.42Zm-40.27,87.18a3.62,3.62,0,0,0,1-.78,3,3,0,0,0-.21.65l-.74.24S1333.42,706.63,1333.41,706.6Zm1.68-29.84a6.8,6.8,0,0,0-.34.6c-.31.65-.39,2.15-1.17,2.61a9.15,9.15,0,0,0-1.3-2.67c.16-.18.33-.35.5-.52C1333.51,676.82,1334.32,676.79,1335.09,676.76Zm36.6-62.46c1.46-.9,4.63-2.81,5.6-2.58,1.43.34.49,2.9-.9,5a15.15,15.15,0,0,0-5.28-1A8.86,8.86,0,0,1,1371.69,614.3Zm69.77-22.53.36-.36a2.93,2.93,0,0,1-.35.41ZM1509.09,626h0l.74-.05a2.45,2.45,0,0,1,.1.79A2.76,2.76,0,0,1,1509.09,626Zm.1-6.49c0,.19-.07.38-.1.55l-.54-.08A5.24,5.24,0,0,1,1509.19,619.51ZM1406.67,748.67l-.42-.38.07-.05Zm-70.37-80.3c1.56.45.23,3.31-1.52,5.55a16.16,16.16,0,0,0-5.77.54,17.05,17.05,0,0,0-3.46,1.26c-.75.39-2,1.55-2.94,1.59a9,9,0,0,0,.92-1.93,1.73,1.73,0,0,0,1,.59c1.54-1.63,2.5-3.42,4.77-4.67C1330.29,670.77,1335.07,668,1336.29,668.38Zm4.2-30.09c-.15.13-.32.26-.46.39-.79.74-1.79,2.66-3.06,3a10.74,10.74,0,0,0,.12-3l.56-.09C1338.08,638.55,1339.25,638.4,1340.49,638.29Zm193.19,10.93a2.53,2.53,0,0,1-.29.35,1,1,0,0,1-.09-.35Zm4.78,53.05a7.14,7.14,0,0,1,1.56-3.49l.39.15c.16.2.31.39.47.56a7.06,7.06,0,0,0,2,1.42A25.93,25.93,0,0,0,1538.46,702.27Zm-190.78,37.17a5.35,5.35,0,0,0,1.57-1.77,3.15,3.15,0,0,0,0,.95c.05.17.12.35.2.52l-.26.19Z" fill="#1a0e0e"/><path d="M390.84,1033.32l-.44.24A.69.69,0,0,1,390.84,1033.32Z" fill="#1a0e0e"/><path d="M397,1007.3c-.16.15-.31.31-.47.45C396.54,1007.59,396.71,1007.45,397,1007.3Z" fill="#1a0e0e"/><path d="M545.23,1142.12c0,.14-.12.11.07-.48v.09A2.79,2.79,0,0,1,545.23,1142.12Z" fill="#1a0e0e"/><path d="M429.22,945.33c-.13.14-.26.29-.41.43C428.83,945.61,429,945.46,429.22,945.33Z" fill="#1a0e0e"/><path d="M408.92,967.18l-.57.22A.87.87,0,0,1,408.92,967.18Z" fill="#1a0e0e"/><path d="M449.58,1077.8l-.36.31C449.25,1078,449.38,1077.89,449.58,1077.8Z" fill="#1a0e0e"/><path d="M391.71,1068.56c-.16.14-.32.28-.5.41C391.26,1068.82,391.44,1068.68,391.71,1068.56Z" fill="#1a0e0e"/><path d="M951,965c-2.15.81-1,4.84-.63,5.84s2.11,5.72,3.89,5.69c1.34-1.77,2.12-3.62,4.18-5.12.89-.65,5.24-3.9,6.43-3.71,2.44.39-1.68,7.66-3.71,8.56,1.26.18,3.34-.39,4.69-.5a35.59,35.59,0,0,0,5.69-.86c2.11-.52,6.67-2.1,8.06-4-.66,1.88.64,3.88,1.44,5.42.5,1,1.05,1.93,1.59,2.89s1.06,1.08,2.66.67c2.45-.62,5.47-3,7.39-4.35a21.12,21.12,0,0,0,2.89-2.7l1.43-.34a28.88,28.88,0,0,1-2.3,2.59,18.54,18.54,0,0,1,5-.75,13.65,13.65,0,0,0,4.72,2,8.78,8.78,0,0,0,.56,2.25c.31.77,1.76,4.17,3.08,4.12.94-1.33,1.46-2.71,2.94-3.85.64-.49,3.77-3,4.66-2.85,1.83.24-1,5.68-2.48,6.38a19.87,19.87,0,0,0,3.48-.46,26.53,26.53,0,0,0,4.21-.74c1.55-.42,4.9-1.68,5.87-3.13-.43,1.4.61,2.84,1.25,4,.41.71.85,1.4,1.28,2.1s.83.77,2,.44c1.8-.5,4-2.3,5.36-3.35.62-.47,2.84-2.54,3-3.71a2.34,2.34,0,0,0,.17.68,7.34,7.34,0,0,0,1.77,1.88c1.52,1.16,3.73,1.42,5.76,1.94-1.56-1.3-1.34-4.28-1.27-6a14.81,14.81,0,0,1,.12-3.05,2.83,2.83,0,0,0,.06-.32,13.33,13.33,0,0,0,1.46.77c.9,1.08,2.86,3.22,4,3,.29-.73.47-1.44.74-2.15a13.22,13.22,0,0,0,2.52-.2,17.05,17.05,0,0,0,3.15-1.4l.15,0a5.21,5.21,0,0,1-1.34,2.56,20.74,20.74,0,0,0,3.46-1,27.21,27.21,0,0,0,4.14-1.43c1.32-.6,3.93-2.07,4.89-3.5l.3-.11c.21,1.26,1.52,2.34,2.41,3.22.63.62,1.28,1.21,1.93,1.81s1.08.61,2.2.09c1.72-.79,3.45-2.89,4.57-4.14a10.92,10.92,0,0,0,.85-1.14L1092,1009.4c0,.44,0,1,.07,1.53l0,.29,0,.34c0,.23.08.45.12.64.08.4.17.74.24,1a3.5,3.5,0,0,1,.18.91,0,0,0,0,1,0,0s0,.07,0,.07v.75l0,1.5v1.38c0,.42,0,.81-.05,1.17l-.05.52,0,.25v.19l0,.26c-.06.71-.09,1.36-.09,2,0,1.22,0,2.24,0,3.11a10.2,10.2,0,0,1-.17,2l0,.17-.07.34-.15.76-.29,1.54c-.38,2.07-.74,4.18-1,6.35l-.19,1.64-.07.74a5.48,5.48,0,0,1,.8-1.46,8.51,8.51,0,0,1,1.06-1.18,10.61,10.61,0,0,1,1.69-1.28l12.43,13a15.87,15.87,0,0,0,2.44-1.84,13.57,13.57,0,0,0,1.66-1.84,11.45,11.45,0,0,0,2.3-6.39c0-.42,0-.79,0-1.09s0-.55,0-.64v-1.34c0-1.81.11-3.68.23-5.61l.23-3.18a22.22,22.22,0,0,0-.16-3.89l-.36-2.76q-.07-.57-.09-1v-.78c0-3.39-2.43-5.54-3.38-8.63a58.53,58.53,0,0,0-5.45-12.44c-2.07-3.54-2.56-7.59-4.39-11.14a50.91,50.91,0,0,1-4.06-9.34,21.43,21.43,0,0,1-.15-11c.86-3.9,3.61-3.17,8-3.12a5.43,5.43,0,0,1-2.48-2.35c1.31-1.22,3-2.62,3.72-2.61,2.47,0,.1,7.3-1.68,8.4,1.27,0,3.17-.81,4.47-1.08a34.87,34.87,0,0,0,5.37-1.55c1.94-.76,6-2.82,7-4.8-.22,1.83,1.51,3.49,2.64,4.81.71.83,1.47,1.64,2.21,2.46s1.28.85,2.75.27c2.25-.9,4.67-3.48,6.23-5,.7-.68,3.1-3.61,3.06-5.11a3.11,3.11,0,0,0,.39.83,10.86,10.86,0,0,0,2.81,2.1c2.3,1.24,5.27,1.25,8.08,1.61-2.38-1.4-2.84-5.2-3.19-7.42l0-.21a6.46,6.46,0,0,0,1.79-1.4c-.84,1.93.33,4.07,1,5.71.43,1,.91,2.06,1.37,3.09s1,1.17,2.65.83c2.55-.53,5.84-2.84,7.91-4.17.93-.6,4.32-3.29,4.79-4.92a3.29,3.29,0,0,0,.11,1,9.55,9.55,0,0,0,2.09,2.82c1.88,1.79,4.84,2.39,7.53,3.33-1.91-2-1.08-6.17-.68-8.63a21.93,21.93,0,0,1,.7-4.29,4.24,4.24,0,0,0,.13-.44,11.2,11.2,0,0,0,2.66,1.6,23.7,23.7,0,0,0,4.58,1.2,18.44,18.44,0,0,0,4.43.07c1.91-.23,3.24-1.37,5-1.79a23,23,0,0,1-6.52-4.85c-1.39-1.6-1.41-3.9-2.81-5.4,2.41,1,6.49-.14,8.79-1.49a19.51,19.51,0,0,0,6-5.82c1.46-2.21-1.4-2.38-3.67-2.49-3.65-.18-6,.54-9.38,1.81.53-2.62,4.24-6.73,7.51-8-1.57-1.68-9.55.2-12.23,2.33-.15-.68-.12-1.53-.25-1.93a6.83,6.83,0,0,0-1.28-2.39,24.52,24.52,0,0,0,3.85.14,18,18,0,0,0,4-.69c1.67-.52,2.54-1.7,4-2.35a26.06,26.06,0,0,1-7.33-3c-1.73-1.11-2.42-3-4.12-4,2.49.46,5.85-1.22,7.53-2.74a14.1,14.1,0,0,0,3.73-5.89c.68-2.09-2-1.75-4.06-1.46-.57.08-1.08.18-1.58.29a5.9,5.9,0,0,1-.23-.92,24.58,24.58,0,0,0,7.87-3.42c1.14-.75,1.25-1.39.86-1.94,1-.34,1.77-1,2.8-1.34a17.21,17.21,0,0,1-4.93-2.84c-.94-.84-1.25-2.06-2-3,.31-.11.61-.21.92-.3a7.86,7.86,0,0,0,2.19-.45l.6,0a1,1,0,0,0,0-.17,9.3,9.3,0,0,0,1.78-1,12.06,12.06,0,0,0,3.54-4.18c.79-1.54-1.18-1.49-2.75-1.44a14.23,14.23,0,0,0-6.25,1.72c.11-1.76,2.26-4.69,4.38-5.69-1.24-1-6.52.66-8.15,2.22-.17-.44-.23-1-.36-1.27a4.88,4.88,0,0,0-1.26-1.66c-.69-.59-2.12-2.34-3.34-2.34s-2.65,1.92-3.23,2.94a26.1,26.1,0,0,0-2.42,1.36l-.82.53-.29-.33c-.78-.88-1.71-2.65-3.09-3.1a1,1,0,0,0-.52,0,6.35,6.35,0,0,0-.2-2.74c.07-.4.15-.77.21-1.09a15.89,15.89,0,0,1,.59-3.06,3.08,3.08,0,0,0,.1-.31,7.82,7.82,0,0,0,1.86,1.18,16.59,16.59,0,0,0,3.23.91,13,13,0,0,0,3.14.11c1.36-.14,2.33-.94,3.6-1.22a16.06,16.06,0,0,1-4.53-3.55c-1-1.16-.92-2.81-1.88-3.9,1.69.77,4.62,0,6.27-1a14.16,14.16,0,0,0,4.38-4.09c1.08-1.56-.94-1.72-2.56-1.83a14.85,14.85,0,0,0-6.7,1.18c.43-1.86,3.16-4.76,5.5-5.6-1.08-1.22-6.78,0-8.74,1.52-.09-.48-.06-1.09-.14-1.39a4.79,4.79,0,0,0-1-1.9c-.6-.7-1.75-2.71-3-2.84-1.52-.15-3.39,2.17-4,3.07a14.9,14.9,0,0,0-1.42,2.34,10,10,0,0,0-.46,1.54,6.93,6.93,0,0,1-.78-.48,2.3,2.3,0,0,0-.06-.43,7.27,7.27,0,0,0-1-2c-.64-1-1.27-3-2.6-3.62a1.16,1.16,0,0,0-1.3.31,7.38,7.38,0,0,1-1.06-1.63,3.08,3.08,0,0,0-.17-.33,15.33,15.33,0,0,0,3.13,0,27.1,27.1,0,0,0,4.39-.92,16.88,16.88,0,0,0,3.56-1.59c1.37-.86,1.7-2.08,2.85-3a32.55,32.55,0,0,1-8.24-.71c-2.12-.52-3.59-2-5.65-2.44,2.57-.22,5.06-2.48,6-4.2a10.06,10.06,0,0,0,1.06-5.95c-.24-2-2.61-1-4.49-.25a15.36,15.36,0,0,0-6.29,4.62c-1.24-1.88-.9-5.89.91-7.88-2.31-.5-7.44,3.65-8.22,6-.55-.38-1.06-.94-1.42-1.15a9.47,9.47,0,0,0-2.83-1.14c-.32-.07-.75-.2-1.23-.33l.36,0c-.28-1.45-5.56-1.92-7.89-1.08.16-.48.49-1,.57-1.33a4.71,4.71,0,0,0,.12-2.05c-.15-.83-.1-3-1.05-3.51-1.17-.58-3.84,1.06-4.81,1.71a19.94,19.94,0,0,0-2.31,1.78,21.87,21.87,0,0,1-2.1,2.25c-.07-.56.58-1.46.73-2a7.24,7.24,0,0,0,.16-2.1c0-1.13.44-3.17-.35-4.13-.62-.76-2,.47-3.11.79-2.29.66-4.55.57-6.85.94.52-2.6,3.76-5.59,6.88-6.85a13.18,13.18,0,0,0-7,.17,17.58,17.58,0,0,0-3.38,1.2c-.75.37-2.06,1.5-2.95,1.53a9.75,9.75,0,0,0,1.8-3.81c0-.22.16-1.64,0-1.75-.36-.22-1.6.45-1.9.59a26.71,26.71,0,0,0-4.7,3c-.77.61-2,2.59-3.05,2.68-.17,0-1.08-.36-1.32-.41a17.3,17.3,0,0,0-2.87-.35c-1.1-.05-3.82,0-4.84.55-1.31.73-1,2.46-.74,3.35a5.08,5.08,0,0,0,1.13,1.91c.34.35.84.49,1.16.8-.31-.32-1.17-.27-2.1-.09a3.72,3.72,0,0,0-.58-2.42,1,1,0,0,0-1.11-.16c.3-1.14-1.56-1.33-3.1-1.47a14.12,14.12,0,0,0-5.36.51,15.67,15.67,0,0,1,5.94-4.56,11.5,11.5,0,0,0-2.93-.4,7.5,7.5,0,0,1,1.2-.54c-1.15-1.39-7.54-.13-9.77,1.5-.08-.55,0-1.23-.1-1.56a5.3,5.3,0,0,0-1-2.15c-.64-.8-1.84-3.08-3.22-3.25-1.63-.2-3.71,2.18-4.53,3.24a19,19,0,0,0-4.46.74c-.6-1.21-1.23-3-2.53-3.69s-2.07,1.15-3.17,1.84c-.27.17-.54.32-.82.47,0-.6-.07-1.39-.23-1.47-.47-.24-1.92.65-2.27.85a29.86,29.86,0,0,0-4.23,2.89c-.53-2.81,1.47-6.62,4.2-8.82a16.54,16.54,0,0,0-8.06,2.5,17.73,17.73,0,0,0-3.24,2.35c-.66.63-1.54,2.22-2.55,2.55a8.7,8.7,0,0,0-.08-4.5c-.09-.24-.75-1.74-1-1.79-.55-.1-1.6,1-1.87,1.24a23.71,23.71,0,0,0-3.76,4.62c-.55.88-.82,3.32-2,3.76-.2.07-1.45,0-1.76,0a23.82,23.82,0,0,0-3.53.59,23.07,23.07,0,0,0-4.17,1.42l-.05,0c-1.56-.37-2,1.68-3,2.65-2.12,2-5,3.31-7.43,5.06-2.06-2.86-1.19-7.75,1.33-10.87a17.94,17.94,0,0,0-8.45,4.41,16.94,16.94,0,0,0-2.9,3.22c-.53.82-1,2.72-2,3.28a9.69,9.69,0,0,0-1.75-4.82c-.2-.24-1.51-1.71-1.84-1.7-.67,0-1.5,1.41-1.72,1.73a21.73,21.73,0,0,0-2.67,5.76c-.32,1.06.26,3.74-1,4.47-.2.12-1.69.3-2,.39a27.48,27.48,0,0,0-3.88,1.39c-1.4.61-4.71,2.28-5.37,3.46-.84,1.51,1.28,3,2.57,3.74a11.5,11.5,0,0,0,3.37,1.2c.78.13,1.54,0,2.26.08-1.64-.28-4.74,3-5.59,3.9-1.54,1.58-2.41,3.51-3.86,5.08,2.12-1.21,12-2.14,13.46-2.11-1.93,1-.14,4.54.36,5.43a24,24,0,0,0,1.79,2.72c-.32.15-.63.31-.94.48-.91.51-2.46,2-3.58,2.08a11.61,11.61,0,0,0,1.89-4.84c0-.28,0-2.05-.2-2.17-.48-.25-2,.65-2.35.85a32.42,32.42,0,0,0-5.66,4c-.92.8-2.25,3.34-3.6,3.51-.22,0-1.4-.38-1.71-.43a22.61,22.61,0,0,0-3.67-.27c-1.4,0-4.84.19-6.08,1-1.58,1-1.07,3.13-.6,4.22a6.61,6.61,0,0,0,1.62,2.31c.47.41,1.11.56,1.55.93-1-.86-5.35.83-6.52,1.26-2.12.78-4,2.13-6.06,2.94,2.3-.24,9.93,2.69,11,3.27-2,.1-3.06,3.89-3.28,4.85-.05.23-.14.63-.23,1.12a25.62,25.62,0,0,0-2.82,5.47c-.43,1.16,0,4.12-1.41,4.87-.23.12-1.85.25-2.24.33a30.22,30.22,0,0,0-4.31,1.34c-1.57.6-5.28,2.28-6.09,3.55-1,1.62,1.13,3.41,2.47,4.23a11.93,11.93,0,0,0,3.54,1.48c.83.18,1.66,0,2.43.2-1.74-.38-5.37,3.1-6.36,4-1.79,1.66-2.89,3.75-4.59,5.4,2.39-1.23,13.12-1.78,14.72-1.67-2.16,1-.53,5-.06,6,.19.4.64,1.33,1.23,2.31l-.11.08a23.63,23.63,0,0,0-4,3.88c-.61.75-1.19,2.94-2.3,3.24-.18,0-1.27-.13-1.54-.13a20.74,20.74,0,0,0-3.17.24c-1.19.17-4.07.75-5,1.53-1.13,1-.24,2.63.39,3.44a6.41,6.41,0,0,0,1.87,1.64c.49.27,1.06.31,1.51.55-1-.56-4.36,1.32-5.26,1.81-1.63.89-2.94,2.2-4.51,3.1,1.9-.48,9,.91,10,1.25-1.67.32-1.77,3.48-1.75,4.27s.18,4.54,1.42,4.75c1.32-1.15,2.28-2.42,4-3.27.76-.37,4.5-2.22,5.28-1.93,1.6.61-2.88,5.49-4.49,5.9a17.74,17.74,0,0,0,3.36.24l1.26.1,0,.06c-.52,1.1-.42,4-1.81,4.67-.23.11-1.79.14-2.16.2a29.28,29.28,0,0,0-4.24,1.06c-1.55.5-5.24,1.93-6.14,3.12-1.14,1.52.75,3.39,1.95,4.27a10.76,10.76,0,0,0,3.23,1.64c.77.23,1.58.14,2.3.33-1.62-.47-5.42,2.72-6.45,3.56-1.86,1.52-3.12,3.49-4.89,5C939.19,964.73,949.46,964.79,951,965Zm12.44-24.43a4.38,4.38,0,0,0,1-.64,3.14,3.14,0,0,0-.5,1.49,2.11,2.11,0,0,1-.54.34A8.26,8.26,0,0,0,963.41,940.56Zm35.95-90.72a10.85,10.85,0,0,0,2.86-.53c-.34.67-.64,1.34-.89,2a16.23,16.23,0,0,0-.39,2.49q-.46.48-.89,1l-.76.13a8.23,8.23,0,0,1-2.73-4,17.52,17.52,0,0,1,4.77-3.74A6.64,6.64,0,0,1,999.35,849.83ZM975.67,942.9a3.62,3.62,0,0,0,.81-.94,3,3,0,0,0-.08.67l-.69.37Zm-3.79-29.65a6.8,6.8,0,0,0-.22.66c-.19.7,0,2.18-.68,2.78a9.15,9.15,0,0,0-1.76-2.39c.13-.2.26-.4.4-.6C970.33,913.61,971.13,913.42,971.88,913.25Zm24.58-68.09c1.27-1.15,4-3.61,5-3.56,1.47.07,1,2.76,0,5.06a15.15,15.15,0,0,0-5.37,0A8.86,8.86,0,0,1,996.46,845.16Zm137.23-13.58h0l.72-.19a2.45,2.45,0,0,1,.24.76A2.76,2.76,0,0,1,1133.69,831.58Zm-1.09-6.4c0,.2,0,.38,0,.56l-.54,0A5.24,5.24,0,0,1,1132.6,825.18ZM971.53,904.79c1.62.15.83,3.21-.48,5.74a16.16,16.16,0,0,0-5.57,1.59,17.05,17.05,0,0,0-3.17,1.87c-.67.52-1.66,1.89-2.6,2.1a9,9,0,0,0,.55-2.06,1.73,1.73,0,0,0,1.1.4c1.21-1.88,1.84-3.82,3.83-5.47C966.07,908.24,970.27,904.67,971.53,904.79Zm-1.36-30.35c-.13.16-.26.31-.38.47-.64.87-1.27,2.94-2.46,3.52a10.74,10.74,0,0,0-.43-3l.53-.19C967.84,875.14,969,874.78,970.17,874.45Zm191.94-24.52a2.53,2.53,0,0,1-.22.39,1,1,0,0,1-.15-.33Zm14.39,51.29a7.14,7.14,0,0,1,.89-3.71l.41.08c.19.17.38.33.57.47a7.06,7.06,0,0,0,2.25,1A25.93,25.93,0,0,0,1176.49,901.21ZM995.7,972.59a5.35,5.35,0,0,0,1.22-2,3.15,3.15,0,0,0,.18.93c.08.16.19.32.29.48l-.22.23Z" fill="#1a0e0e"/><path d="M1060.94,810.27l.29-.43a2.93,2.93,0,0,1-.27.46Z" fill="#1a0e0e"/><path d="M1055.38,970.89l-.49-.3.06-.06Z" fill="#1a0e0e"/><path d="M1323.06,847.66c-1.47-1.12-2.61-2.79-4.15-3.89-.85-.61-4-2.94-5.16-2.15.51-.34,1.12-.42,1.67-.8a9.73,9.73,0,0,0,2.23-2.26c.8-1.1,2-3.32,1-4.57-.79-1-3.68-1.62-4.89-1.79a16.36,16.36,0,0,0-3.26-.17,15.81,15.81,0,0,1-1.63.25c-1.1-.35-1.33-3.22-1.83-4.18a22.26,22.26,0,0,0-3.43-5c-.24-.26-1.21-1.41-1.72-1.2a9.32,9.32,0,0,0-1,2.29,13.47,13.47,0,0,0-.12,5.39c-.93-.24-1.73-2-2.33-2.66a13.45,13.45,0,0,0-3-2.32,14.75,14.75,0,0,0-1.39-.74c1.57-.22,3.12,0,4.73-.1.6-1.4-3.44-5.36-4.36-6.24s-4.48-4-6-2.71c.29-1.31,3.53-9.54,5.35-10.87-2.07.58-4.42.49-6.52,1.15-1.16.36-5.53,1.63-5.59,3.19,0-.68.38-1.27.41-2a10.31,10.31,0,0,0-.58-3.48c-.48-1.44-1.72-4-3.59-3.9-1.47.06-4.06,2.22-5.06,3.19a18.37,18.37,0,0,0-2.41,2.8,17.26,17.26,0,0,1-.89,1.62c-1.09.76-3.93-.93-5.19-1.12l-1-.14c-1.09-.76-2.25-1.25-3-.7.39-1.28,4.22-9.23,6.12-10.42-2.09.43-4.42.17-6.54.67-1.18.28-5.6,1.23-5.78,2.77.09-.67.48-1.24.56-2a10.29,10.29,0,0,0-.31-3.5c-.37-1.46-1.4-4.08-3.26-4.13-1.36,0-3.82,1.66-5,2.61a2.62,2.62,0,0,0-.86-2.28c-1.15-.85-4.51-.76-5.88-.61a18.65,18.65,0,0,0-3.62.7,17.85,17.85,0,0,1-1.72.72c-1.31-.08-2.38-3.14-3.2-4.05a25.51,25.51,0,0,0-5.18-4.45c-.34-.21-1.73-1.2-2.23-.84a10.29,10.29,0,0,0-.4,2.75,15,15,0,0,0,1.41,5.9c-1.09,0-2.47-1.71-3.32-2.26a15.51,15.51,0,0,0-3.93-1.72,12.89,12.89,0,0,0-8.66.1c3.59,1.82,7,6.36,7,10.42-2.77-.46-5.59-.2-8.28-1.12-1.3-.44-2.75-2.31-3.68-1.08-.8,1-1,2.84-1.12,4.44-1.23-1.08-3-2.32-4-1.58.33-1.14,3.64-8.29,5.32-9.38-1.86.41-3.94.21-5.83.69-1,.26-5,1.17-5.12,2.55.07-.6.41-1.11.47-1.77a9.18,9.18,0,0,0-.33-3.12c-.35-1.3-1.31-3.62-3-3.65-1.3,0-3.72,1.77-4.65,2.57a16.39,16.39,0,0,0-2.28,2.36,15.4,15.4,0,0,1-.88,1.39c-1,.62-3.43-1-4.54-1.26a24.09,24.09,0,0,0-6.2-.53c-.36,0-1.92,0-2.09.54a9.07,9.07,0,0,0,1.19,2.17,13.8,13.8,0,0,0,4.21,3.5c-.81.55-2.74,0-3.66.08a14.46,14.46,0,0,0-3.81.79,11.87,11.87,0,0,0-5.88,3.91c-1-.64-2.09-1.67-2.78-2a25.91,25.91,0,0,0-6.43-2.13c-.39-.07-2-.45-2.35.05a9.92,9.92,0,0,0,.69,2.62,14.87,14.87,0,0,0,3.54,4.8c-1,.39-2.92-.64-3.9-.83a15.69,15.69,0,0,0-4.25-.12,12.74,12.74,0,0,0-7.88,3.23c4,.34,8.79,3.2,10.42,6.83-2.71.6-5.19,1.85-8,2-1,.05-2.49-.62-3.28-.27a10.86,10.86,0,0,0,.25-2.93c-.07-1.49-.56-4.22-2.33-4.62-1.39-.31-4.41,1.08-5.6,1.74a18.32,18.32,0,0,0-3,2,17.29,17.29,0,0,1-1.27,1.31c-1.22.44-3.45-1.88-4.58-2.38a26.16,26.16,0,0,0-6.54-2c-.4-.06-2.07-.4-2.37.12a10,10,0,0,0,.77,2.62,15,15,0,0,0,3.7,4.73c-1,.42-3-.57-4-.73a15.82,15.82,0,0,0-4.28,0,12.83,12.83,0,0,0-7.84,3.47c4,.23,9,3,10.69,6.58-2.37.59-4.55,1.68-7,2.1h0c-1.21-.39-1.44-3.55-2-4.62a24.5,24.5,0,0,0-3.75-5.47c-.26-.28-1.33-1.55-1.88-1.33a10.27,10.27,0,0,0-1.07,2.52,14.84,14.84,0,0,0-.16,5.94c-1-.27-1.9-2.22-2.55-2.94a14.81,14.81,0,0,0-3.26-2.57,12.38,12.38,0,0,0-8.17-2c2.91,2.59,4.95,7.71,4,11.59-2.49-1.1-5.21-1.53-7.51-3.05-1.11-.73-2-2.86-3.19-1.91-1.5,1.19-2.17,4.24-2.88,5.87a14.38,14.38,0,0,0-1.07,3.07c-.17.87.06,2.33-.35,3.12-.63-1-.68-2.65-1.13-3.77a19.53,19.53,0,0,0-1.65-3.15c-.75-1.19-2.92-4.21-4.64-3.66-1.41.45-2.67,3.64-3.34,4.8a9.41,9.41,0,0,0-1.08,3,6.69,6.69,0,0,0-.06.94,1.17,1.17,0,0,0-.68.26c.28-1.21,3.31-8.81,5-10-1.92.53-4.09.44-6,1-1.07.33-5.12,1.49-5.18,2.92,0-.63.36-1.18.39-1.86a9.54,9.54,0,0,0-.52-3.22c-.44-1.33-1.57-3.69-3.3-3.63-1.36.05-3.77,2-4.69,2.92a17,17,0,0,0-2.24,2.57,16,16,0,0,1-.83,1.49c-1,.69-3.63-.88-4.79-1.06a25.17,25.17,0,0,0-6.49-.21c-.38,0-2,.13-2.14.68a9.47,9.47,0,0,0,1.36,2.19,14.44,14.44,0,0,0,4.58,3.4c-.81.62-2.85.19-3.8.29a15.07,15.07,0,0,0-3.92,1,12,12,0,0,0-6.31,5c3.73-.75,8.95.55,11.45,3.4-2.31,1.26-4.23,3.06-6.76,3.94-1.22.43-3.41-.08-3.36,1.34.07,1.78,2.08,4,3,5.4a13.38,13.38,0,0,0,1.8,2.5c.59.61,1.87,1.24,2.25,2-1.18-.09-2.48-1-3.62-1.24a20,20,0,0,0-3.44-.5c-1.37-.09-5-.13-5.58,1.45-.47,1.3,1.31,4,1.84,5.15a8.75,8.75,0,0,0,1.73,2.47c.3.31,1,.76,1.55,1.24-2.71.69-7,5.2-6.08,7.22,2.14-1.6,6.87-1.91,9.26-.85-2.22,1.66-3.61,2.89-4.68,5.53-.67,1.64-1.48,3.72.87,3.92a14.94,14.94,0,0,0,6.93-1c1.91-.85,4.28-3,4.21-5.29.8,1.8,2.74,3.08,3.63,4.92a22.88,22.88,0,0,1,1.91,7.2c1-1,2.36-1.3,3.2-2.5a11.1,11.1,0,0,0,1.43-3.12,16.85,16.85,0,0,0,.53-3.84,10.27,10.27,0,0,0-.46-2.73l.42.15a27.33,27.33,0,0,1,3.87,1.87,36.5,36.5,0,0,1,4.15,2.21,21.77,21.77,0,0,0-2.25.08c-.4,0-2.14.1-2.31.68a10.16,10.16,0,0,0,1.41,2.38,15.47,15.47,0,0,0,4.84,3.75c-.88.65-3.06.15-4.09.23a16.17,16.17,0,0,0-4.23,1,12.88,12.88,0,0,0-6.88,5.26c4-.72,9.59.79,12.21,3.91-2.51,1.3-4.61,3.19-7.35,4.08-1.32.43-3.66-.16-3.64,1.36,0,1.91,2.14,4.31,3,5.86a14.35,14.35,0,0,0,1.87,2.72c.62.66,2,1.38,2.37,2.18-1.26-.12-2.64-1.08-3.86-1.41a21.44,21.44,0,0,0-3.68-.61c-1.47-.13-5.37-.25-6,1.44-.53,1.39,1.32,4.33,1.86,5.57a9.38,9.38,0,0,0,1.8,2.69c.32.34,1.09.84,1.64,1.36-2.92.69-7.61,5.44-6.69,7.62,2.33-1.67,7.41-1.91,10-.71-2.42,1.74-3.94,3-5.15,5.83-.75,1.75-1.68,4,.85,4.23a16,16,0,0,0,7.46-.88,9.18,9.18,0,0,0,3.7-3,3.11,3.11,0,0,0,1.09-1c-.33,1.51.3,3.18,0,4.75a18.43,18.43,0,0,1-2.12,5.46c1.06-.23,2.07.2,3.15-.21a9,9,0,0,0,2.33-1.38,12.28,12.28,0,0,0,1.44-1.43,29.46,29.46,0,0,1,.7,4.27c1-1,2.46-1.34,3.39-2.5.82,1.59,1.66,3.57,1.31,5.1,1.16-1.48,2.57-2.81,3.07-4.66a9.16,9.16,0,0,0,.33-2.67,3.4,3.4,0,0,0-.21-.74c.69,1,3.24,2,3.9,2.13,1.47.35,3.85,1,5.35.65,1-.25,1.22-.47,1.18-1.4s-.07-1.77-.13-2.65a11.55,11.55,0,0,0-.54-3.6c0-.2,0-.4-.06-.6a8.91,8.91,0,0,0,4.51.1q.06.19.11.39a24.12,24.12,0,0,1,.44,7.81c1.19-.85,2.69-.87,3.8-1.94a11.84,11.84,0,0,0,2.12-2.93,18,18,0,0,0,1.35-3.86,10.86,10.86,0,0,0,.1-2.91l.4.24.39.23a6.86,6.86,0,0,1,1.09,3.76c.4-.66.83-1.31,1.24-2,.28.23.56.46.84.68,2,1.55,5.59,4.1,6.15,6.8.61-2.44,1.61-4.8,1.19-7.34a12.15,12.15,0,0,0-1.09-3.44,4.62,4.62,0,0,0-.68-.79c1.45.9,5.13.68,6,.51,2-.36,5.29-.79,7-2-.13.5-.27,1-.42,1.47,1.23-.54,2.57-.27,3.78-1a11,11,0,0,0,2.47-2.23,16.52,16.52,0,0,0,1.86-3,6.2,6.2,0,0,0,2.23-1.33c.51.63,1,1.29,1.5,1.9l0,0a8.42,8.42,0,0,1,.47,2.27,21,21,0,0,1-1.05,6.65c1.15-.51,2.41-.27,3.53-1a8.53,8.53,0,0,0,1.14-.89c0,.07,0,.14,0,.2l.21-.41a11.15,11.15,0,0,0,.94-1c.22-.27.43-.57.64-.89.54,1.23,1.35,2.5,1.7,3.22a9.69,9.69,0,0,0,2,2.69c.34.34,1.16.82,1.75,1.33-3,.83-7.61,5.91-6.57,8.12,2.34-1.81,7.56-2.27,10.24-1.14-2.42,1.89-3.93,3.27-5.06,6.22-.7,1.83-1.56,4.15,1.06,4.32a16.55,16.55,0,0,0,7.66-1.22c2.1-1,4.67-3.46,4.54-5.94.93,2,3.1,3.35,4.13,5.37a25.33,25.33,0,0,1,2.28,7.92c1-1.14,2.58-1.49,3.49-2.84a12.27,12.27,0,0,0,1.51-3.48,18.64,18.64,0,0,0,.5-4.26,11.36,11.36,0,0,0-.58-3l.46.16a30.32,30.32,0,0,1,4.33,2c2.48,1.14,6.75,3,8,5.62.06-2.64.55-5.3-.48-7.81a12.89,12.89,0,0,0-1.94-3.29,5,5,0,0,0-.89-.66c1.71.6,5.47-.45,6.38-.82,2-.82,5.37-2,6.78-3.68.92-1.09,1-1.54.16-2.55s-1.61-1.94-2.45-2.89c-.61-.69-1.28-1.52-2-2.27.3-.18.6-.36.86-.55a17.85,17.85,0,0,0,2.89-2.69,10.77,10.77,0,0,0,1.42-2.43c.08.14.15.28.22.37a26.09,26.09,0,0,1,1.73,3.86c1,2.21,2.78,5.93,2,8.46,1.63-1.81,3.55-3.38,4.36-5.72a11.84,11.84,0,0,0,.67-3.4,4.36,4.36,0,0,0-.2-1c.8,1.4,4,2.82,4.8,3.07,1.85.57,4.84,1.67,6.79,1.3,1.27-.24,1.6-.5,1.64-1.69s.08-2.27.08-3.41c0-1.8.22-4.23-.93-5.79,1.68,1.32,5.48,1.06,7.16.73l.34-.08c0,.09,0,.17,0,.26s0,.53,0,.74l0,.55L1203,919l.35,4.25.14,2.07.11,2.09a157.81,157.81,0,0,0,1.71,17.6,69.33,69.33,0,0,0,5.21,17.81c.36.73.69,1.44,1.07,2.18s.81,1.48,1.23,2.17c.84,1.39,1.7,2.67,2.51,3.87a48.69,48.69,0,0,1,4,6.5c1.2,2.55,2.36,5,3.2,7.32a27.08,27.08,0,0,1,1,3.32c.06.26.12.52.16.78s.09.51.12.75l.07.47.12.73c.09.46.18.9.27,1.3a29.48,29.48,0,0,1,.69,3.51c.08.85.08,2.07.11,3.63,0,.39,0,.8,0,1.24s.07,1,.12,1.46c.1.94.24,1.81.37,2.59.27,1.56.49,2.79.55,3.71s.09,2.51.37,4.57l.06.4.08.47c.06.3.12.59.19.86.13.54.25,1,.36,1.38a8.61,8.61,0,0,1,.32,1.37.29.29,0,0,1,0,.08h0s0,0,0,0v.2l.08,1.08.16,2.16c.06.75.11,1.38.14,2s.05,1.2.06,1.75q0,.41,0,.8l0,.38v.71c0,1,0,1.86.07,2.7s.11,1.64.16,2.36l.15,2a19.44,19.44,0,0,1,0,3.1l-.4,4.12c-.27,2.93-.5,5.93-.63,9l0,1.15,0,1.19v1.44a3.92,3.92,0,0,1,.18-.53c0-.11.11-.27.18-.4l.25-.45a4.62,4.62,0,0,1,.33-.49,5.9,5.9,0,0,1,.44-.55l.25-.25.28-.27a5.55,5.55,0,0,1,.62-.49l11.41,15.54a13.09,13.09,0,0,0,2-1.75c.28-.31.56-.64.8-1s.44-.62.64-.94a9.82,9.82,0,0,0,.51-.92c.15-.29.3-.61.42-.89a14.39,14.39,0,0,0,.55-1.57,16.84,16.84,0,0,0,.61-4.53c0-.29,0-.57,0-.82l0-.72-.06-1,0-1,0-1c-.08-2.66-.07-5.38,0-8.16l.11-4.46a37.09,37.09,0,0,0-.39-5.46l-.32-2.21c-.1-.69-.2-1.32-.27-1.9s-.13-1.11-.17-1.58l0-.36,0-.69q0-.68-.08-1.34c-.07-.88-.16-1.72-.27-2.52s-.22-1.58-.32-2.25l-.31-2.1-.15-1-.13-.84c-.06-.34-.12-.67-.2-1a24.82,24.82,0,0,0-.84-2.74l-.24-.68-.06-.18,0-.05,0-.13c-.19-.75-.31-2.1-.59-3.94s-.73-3.47-1-4.7c-.15-.62-.27-1.15-.36-1.62,0-.24-.08-.44-.11-.66l-.1-.9c-.13-1.29-.21-2.94-.56-4.91a41.1,41.1,0,0,0-1.26-4.81l-.22-.78-.08-.32,0-.08,0-.16-.08-.34q-.15-.69-.33-1.34c-.11-.45-.25-.87-.38-1.29a40.89,40.89,0,0,0-1.83-4.74c-1.35-3-2.83-5.56-4.24-8.08a60.3,60.3,0,0,0-5.48-7.79c-.87-1.11-1.68-2.15-2.39-3.16-.36-.51-.69-1-1-1.48s-.62-1.07-.94-1.6a58.34,58.34,0,0,1-5.4-14.61,147.81,147.81,0,0,1-2.77-16.33l-.28-2.17-.31-2.18-.66-4.25-.31-2.07-.12-.85c0-.22,0-.49-.05-.78,0-1.18,0-2.59,0-4.27,0-.82,0-1.62-.06-2.43a35.16,35.16,0,0,1,3.53,2.73c1.27-.67.82-5.85.7-7s-.74-5.45-2.55-5.39c1-.78,8.24-4.87,10.32-4.78-1.8-.77-3.4-2.18-5.26-2.92-1-.41-4.86-2-5.84-.91.43-.47,1-.7,1.5-1.22a10,10,0,0,0,1.69-2.85l.08-.21a14.54,14.54,0,0,0,2.29.06,19.11,19.11,0,0,0,3.9-.72,2.3,2.3,0,0,0,1,.3,15.37,15.37,0,0,0,7.15-.9c2-.85,4.45-3.08,4.41-5.39.8,1.86,2.78,3.21,3.67,5.12a23.56,23.56,0,0,1,1.87,7.44c1-1,2.45-1.31,3.33-2.54a11.44,11.44,0,0,0,1.51-3.19,17.37,17.37,0,0,0,.6-3.95,10.58,10.58,0,0,0-.44-2.82l.43.16a28.11,28.11,0,0,1,4,2c2.27,1.13,6.18,3,7.21,5.46.14-2.45.68-4.91-.2-7.28a12,12,0,0,0-1.69-3.12,4.6,4.6,0,0,0-.81-.64c1.57.61,5.1-.25,5.95-.57,1.89-.7,5.05-1.71,6.41-3.22a3.16,3.16,0,0,0,.67-1,4.63,4.63,0,0,0,1.35-1.23,12,12,0,0,0,1.52-3.38,18.22,18.22,0,0,0,.55-4.16h0c.32-.34.62-.71.92-1.07,0,.15.08.29.11.4a24.87,24.87,0,0,1,.68,4c.39,2.28,1.16,6.13-.15,8.31,1.92-1.31,4.06-2.34,5.36-4.33a11.51,11.51,0,0,0,1.42-3,4.21,4.21,0,0,0,0-.95c.4,1.47,3,3.51,3.69,3.93,1.56.95,4.06,2.63,5.94,2.74,1.23.07,1.59-.1,1.9-1.2s.61-2.09.88-3.15c.43-1.67,1.2-3.88.51-5.59,1.24,1.6,4.79,2.21,6.41,2.29a20.33,20.33,0,0,0,4.32-.33c1-.17,2.62,0,3.54-.47-1.6-.46-5.41-6.72-3.64-7.6.86-.43,4.43,1.85,5.16,2.3,1.69,1,2.46,2.68,3.63,4.14,1.32-.34,2.14-5.25,2.3-6.35s.61-5.23-1.07-5.57C1313.54,849.29,1321.17,847.11,1323.06,847.66Zm-36.32-20.23c.12-.63,1.8-1.48,3.33-2.14a13.1,13.1,0,0,1,1.71,4.35C1289.17,829.42,1286.51,828.66,1286.74,827.43Zm-64.49,53c-1.12-1.57-1.86-3.27-1-3.79.44-.28,1.8.17,3,.68A10.49,10.49,0,0,0,1222.25,880.38Zm-60.18-13c-2.21,1.15-4.08,2.8-6.46,3.64a6.19,6.19,0,0,0-1.55-3.19c1.93,1,5.71.11,7.34-.51l.44-.18Zm-67-8.1.59-.07.21,0a4.86,4.86,0,0,1-.31,1.87A5.57,5.57,0,0,1,1095.1,859.26ZM1156.49,880a11.7,11.7,0,0,0-1.28.81,19.52,19.52,0,0,0-3.31-.55l-.43,0c0-.18.05-.36.07-.53s0-.36,0-.56a9.29,9.29,0,0,0,3.69-.28l.29-.12A9.58,9.58,0,0,0,1156.49,880Zm-13.4-2.84c-.08-.2-.19-.43-.3-.67a3.28,3.28,0,0,0,.75.62l0,0Zm20.9-19.64c.28.16.54.31.79.42a2.61,2.61,0,0,1-1.51.31A7.69,7.69,0,0,0,1164,857.48Zm-1.32-60.5h.6A1.2,1.2,0,0,1,1162.66,797Zm-82.31,79.75c.28.38.6.76.94,1.13a19.11,19.11,0,0,1-1.36,1.62l-.37-.06-.56,0C1079.43,878.49,1079.89,877.57,1080.35,876.73Zm43.47,41.87.29.27.3.27-.71.14Zm136-56.66a4.2,4.2,0,0,0,1.42-.29l.07.08-.54.6A4.24,4.24,0,0,0,1259.86,861.93Zm-57.4-57.9a4,4,0,0,1,.17,1.71,5.74,5.74,0,0,1-1-1.5h0A6.41,6.41,0,0,1,1202.46,804Zm-65.68,8.11c0,.1,0,.2,0,.31a1.17,1.17,0,0,0-.46.56A4.29,4.29,0,0,1,1136.78,812.14ZM1085,854.74a5,5,0,0,0,2,1.41,7.69,7.69,0,0,0-.89,2.22c-.08.36-.07,1.08-.17,1.66a4.61,4.61,0,0,0-1.11-.68A7.65,7.65,0,0,0,1085,854.74Zm-33.71,15a11.63,11.63,0,0,0-1.69-3,4.48,4.48,0,0,0-.79-.61c1.53.57,4.95-.31,5.77-.62,1.82-.71,4.88-1.72,6.19-3.21.85-1,.94-1.37.19-2.3s-1.42-1.78-2.15-2.65l-.43-.52a21.17,21.17,0,0,0,2.12-1.3,11.54,11.54,0,0,0,2.08-2.12c0,.17.08.32.12.44a27.39,27.39,0,0,1,.73,4.37c.42,2.51,1.24,6.75-.21,9.15,2.12-1.43,4.48-2.56,5.93-4.74a12.69,12.69,0,0,0,1.58-3.3,4.64,4.64,0,0,0,0-1c.43,1.63,3.26,3.88,4,4.35s2.06,1.31,3.26,1.94a10.44,10.44,0,0,0-1.36.22c-1.49.34-3.35.79-2.41,2.5a11.73,11.73,0,0,0,3.88,4.27c1.49.89,4.15,1.45,5.73.31a5.58,5.58,0,0,0-.55,1.15,21.36,21.36,0,0,0-2.44-.35c-.39,0-2.07-.26-2.33.27a2.94,2.94,0,0,0,.33,1.17,16,16,0,0,0-2.83.47c-1.16.33-5.53,1.48-5.63,3,.05-.67.41-1.25.46-2a10.25,10.25,0,0,0-.48-3.47c-.44-1.44-1.6-4-3.45-4-1.46,0-4.09,2.11-5.1,3a18.28,18.28,0,0,0-2.47,2.72,17.17,17.17,0,0,1-.93,1.58c-1.1.72-3.88-1-5.12-1.24-.52-.09-1-.17-1.58-.24A10,10,0,0,0,1051.33,869.75Zm53.9,49.9c-.48-.94-1-1.89-1.47-2.82a21.43,21.43,0,0,0-2.1-3.48,5,5,0,0,0,2.4-2.07l.14-.08a7.68,7.68,0,0,0,.34,1.86c-1.11,1.11-2.32,2.47-.55,3.4a14.85,14.85,0,0,0,1.42.65A18,18,0,0,1,1105.23,919.65Zm27.39.17c0-.11,0-.23-.07-.33a4,4,0,0,0-.43-.79,5.93,5.93,0,0,0,2.5,1.09,3.32,3.32,0,0,1,1,1A10.67,10.67,0,0,1,1132.62,919.82Z" fill="#1a0e0e"/><path d="M632.27,887.75c2.23-1.46,7-1.49,9.29-.28-2.32,1.53-3.78,2.66-5,5.23-.77,1.6-1.71,3.63.63,4a14.94,14.94,0,0,0,7-.54c2-.73,4.46-2.78,4.52-5,.69,1.84,2.55,3.24,3.32,5.13a22.88,22.88,0,0,1,1.47,7.3c1-.95,2.43-1.16,3.35-2.31a11.09,11.09,0,0,0,1.61-3,16.85,16.85,0,0,0,.76-3.8,10.27,10.27,0,0,0-.3-2.75l.41.17a27.33,27.33,0,0,1,3.75,2.1,36.51,36.51,0,0,1,4,2.46,21.78,21.78,0,0,0-2.25-.06c-.41,0-2.14,0-2.35.54a10.16,10.16,0,0,0,1.27,2.46,15.47,15.47,0,0,0,4.6,4c-.92.59-3.06,0-4.09,0a16.18,16.18,0,0,0-4.29.75,12.88,12.88,0,0,0-7.19,4.83c4.06-.48,9.52,1.37,11.95,4.64-2.58,1.15-4.8,2.9-7.58,3.63-1.34.35-3.64-.38-3.71,1.14-.09,1.91,1.88,4.43,2.68,6a14.35,14.35,0,0,0,1.7,2.83c.58.7,1.89,1.5,2.23,2.32-1.25-.2-2.57-1.24-3.77-1.64a21.45,21.45,0,0,0-3.63-.84c-1.46-.22-5.35-.58-6.1,1.07-.61,1.35,1.05,4.41,1.51,5.67a9.38,9.38,0,0,0,1.63,2.79c.3.36,1,.9,1.55,1.46-3,.51-7.92,5-7.14,7.2,2.43-1.52,7.51-1.45,10-.1-2.52,1.59-4.12,2.78-5.5,5.51-.86,1.7-1.91,3.86.59,4.27a16,16,0,0,0,7.5-.43,9.18,9.18,0,0,0,3.88-2.72,3.11,3.11,0,0,0,1.15-.89c-.42,1.48.1,3.19-.29,4.74a18.43,18.43,0,0,1-2.44,5.32c1.07-.17,2.06.32,3.16,0a9,9,0,0,0,2.41-1.23,12.28,12.28,0,0,0,1.53-1.34,29.46,29.46,0,0,1,.44,4.3c1.07-1,2.53-1.18,3.54-2.29.72,1.64,1.44,3.67,1,5.17,1.25-1.41,2.73-2.64,3.35-4.47a9.15,9.15,0,0,0,.49-2.64,3.39,3.39,0,0,0-.17-.75c.63,1.08,3.11,2.17,3.76,2.36,1.44.43,3.78,1.27,5.3,1,1-.19,1.24-.4,1.26-1.32s0-1.77,0-2.65a11.55,11.55,0,0,0-.32-3.62c0-.2,0-.4,0-.61a8.91,8.91,0,0,0,4.49.37q.05.19.09.39a24.12,24.12,0,0,1,0,7.82c1.23-.77,2.74-.7,3.91-1.71a11.84,11.84,0,0,0,2.29-2.79,18,18,0,0,0,1.58-3.77,10.86,10.86,0,0,0,.28-2.9l.38.26.37.25a6.87,6.87,0,0,1,.86,3.82c.44-.64.91-1.26,1.36-1.88.26.25.53.5.8.73,2,1.67,5.33,4.43,5.72,7.16.76-2.4,1.9-4.7,1.64-7.26a12.15,12.15,0,0,0-.88-3.5,4.62,4.62,0,0,0-.63-.83c1.39,1,5.08,1,6,.88,2-.24,5.33-.47,7.07-1.6-.16.49-.33,1-.51,1.45,1.26-.46,2.58-.11,3.84-.79a11,11,0,0,0,2.6-2.08,16.52,16.52,0,0,0,2-2.87,6.2,6.2,0,0,0,2.31-1.19c.47.66.9,1.35,1.38,2l0,0a8.42,8.42,0,0,1,.34,2.3,21,21,0,0,1-1.45,6.58c1.17-.44,2.42-.12,3.59-.76a8.53,8.53,0,0,0,1.19-.82c0,.07,0,.14,0,.2l.24-.39a11.17,11.17,0,0,0,1-.95c.23-.25.47-.54.7-.85.47,1.26,1.2,2.58,1.5,3.31a9.69,9.69,0,0,0,1.8,2.81c.32.36,1.11.89,1.66,1.44-3,.64-8,5.44-7.05,7.71,2.44-1.67,7.69-1.8,10.29-.51-2.53,1.74-4.13,3-5.43,5.9-.81,1.79-1.81,4,.79,4.38a16.55,16.55,0,0,0,7.72-.75c2.15-.85,4.88-3.17,4.9-5.66.81,2,2.9,3.53,3.8,5.61a25.34,25.34,0,0,1,1.8,8c1.1-1.07,2.67-1.33,3.65-2.62a12.27,12.27,0,0,0,1.72-3.38,18.64,18.64,0,0,0,.75-4.22,11.36,11.36,0,0,0-.39-3l.45.18a30.32,30.32,0,0,1,4.2,2.24c2.41,1.29,6.56,3.37,7.6,6.09.22-2.63.87-5.25,0-7.82a12.9,12.9,0,0,0-1.73-3.4,5,5,0,0,0-.85-.71c1.67.7,5.49-.11,6.41-.43,2-.7,5.48-1.68,7-3.27,1-1,1.1-1.48.31-2.54s-1.49-2-2.27-3c-.57-.73-1.19-1.6-1.9-2.39.31-.16.62-.32.89-.49a17.85,17.85,0,0,0,3.05-2.51,10.77,10.77,0,0,0,1.56-2.34c.07.15.14.28.2.39a26.08,26.08,0,0,1,1.5,4c.86,2.27,2.42,6.09,1.49,8.57,1.73-1.7,3.75-3.16,4.7-5.44a11.84,11.84,0,0,0,.87-3.35,4.35,4.35,0,0,0-.15-1c.71,1.44,3.79,3.05,4.6,3.36,1.81.68,4.73,2,6.7,1.71,1.29-.16,1.63-.4,1.74-1.59s.22-2.27.29-3.4c.12-1.8.47-4.21-.58-5.84,1.6,1.42,5.41,1.39,7.1,1.17l.35-.06c0,.09,0,.17,0,.26s0,.53,0,.74v.55l0,2.19.09,4.27,0,2.08,0,2.1A157.79,157.79,0,0,0,819,977a69.33,69.33,0,0,0,4.11,18.1c.31.75.6,1.48.93,2.24s.72,1.53,1.1,2.24c.75,1.44,1.53,2.76,2.27,4a48.69,48.69,0,0,1,3.55,6.73c1,2.62,2,5.16,2.75,7.51a27.08,27.08,0,0,1,.81,3.37c0,.26.09.53.11.78s.06.51.08.76l0,.47.08.73c.06.47.12.91.19,1.32a29.48,29.48,0,0,1,.47,3.55c0,.86,0,2.07-.11,3.63,0,.39,0,.8,0,1.24s0,1,0,1.47c0,.95.13,1.82.21,2.61.17,1.57.32,2.81.32,3.73s-.07,2.51.09,4.58l0,.4.06.48c0,.3.09.6.13.87.09.54.19,1,.27,1.4a8.61,8.61,0,0,1,.24,1.39.28.28,0,0,1,0,.08h0s0,0,0,0V1052l0,2.16c0,.75,0,1.39,0,2,0,.16,0,.31,0,.47q8.64.83,17.27,1.71c0-.16,0-.33,0-.49,0-.88-.06-1.73-.11-2.53s-.13-1.59-.18-2.27l-.18-2.11-.09-1.06-.07-.85c0-.34-.08-.67-.14-1a24.82,24.82,0,0,0-.67-2.79l-.2-.69-.05-.19,0-.05,0-.13c-.14-.76-.18-2.12-.34-4s-.52-3.51-.74-4.76c-.11-.63-.2-1.17-.26-1.64,0-.24-.05-.44-.07-.67l0-.91c-.05-1.3,0-2.95-.26-4.93a41.1,41.1,0,0,0-1-4.88l-.18-.79-.06-.33v-.08l0-.16-.05-.35q-.1-.7-.25-1.36c-.09-.45-.19-.88-.3-1.31a40.88,40.88,0,0,0-1.54-4.85c-1.17-3-2.48-5.73-3.74-8.33a60.29,60.29,0,0,0-5-8.11c-.8-1.16-1.55-2.25-2.2-3.3-.33-.53-.63-1-.9-1.54s-.55-1.1-.84-1.66a58.35,58.35,0,0,1-4.5-14.91A147.83,147.83,0,0,1,828.3,959l-.14-2.19-.18-2.2-.4-4.28-.19-2.09-.07-.85c0-.22,0-.5,0-.78,0-1.18.21-2.58.29-4.26,0-.82.06-1.62.09-2.43a35.16,35.16,0,0,1,3.36,2.94c1.31-.59,1.18-5.79,1.13-7s-.41-5.49-2.22-5.53c1-.71,8.52-4.36,10.59-4.15-1.75-.88-3.26-2.38-5.08-3.23-1-.47-4.73-2.29-5.78-1.26.46-.44,1.08-.64,1.58-1.13a10,10,0,0,0,1.86-2.74l.09-.2a14.55,14.55,0,0,0,2.28.19,19.11,19.11,0,0,0,3.94-.49,2.3,2.3,0,0,0,1,.36,15.37,15.37,0,0,0,7.19-.47c2-.73,4.63-2.8,4.73-5.11.69,1.91,2.58,3.37,3.35,5.33a23.56,23.56,0,0,1,1.41,7.53c1.05-1,2.52-1.16,3.48-2.33a11.44,11.44,0,0,0,1.7-3.09,17.37,17.37,0,0,0,.83-3.91,10.57,10.57,0,0,0-.27-2.84l.42.19a28.1,28.1,0,0,1,3.83,2.21c2.2,1.27,6,3.33,6.87,5.89.29-2.44,1-4.86.24-7.27a12,12,0,0,0-1.5-3.22,4.6,4.6,0,0,0-.76-.69c1.53.7,5.1.06,6-.2,1.93-.59,5.14-1.4,6.6-2.83a3.16,3.16,0,0,0,.73-.93,4.63,4.63,0,0,0,1.42-1.15,12,12,0,0,0,1.73-3.28,18.22,18.22,0,0,0,.8-4.12h0c.34-.32.66-.67,1-1,0,.15.06.29.09.4a24.86,24.86,0,0,1,.44,4c.26,2.3.79,6.19-.66,8.28,2-1.19,4.2-2.09,5.61-4a11.51,11.51,0,0,0,1.6-2.92,4.21,4.21,0,0,0,.1-.94c.31,1.5,2.76,3.68,3.44,4.15,1.5,1,3.89,2.87,5.76,3.09,1.22.14,1.6,0,2-1.08s.73-2.05,1.07-3.09c.53-1.64,1.43-3.8.85-5.54,1.14,1.68,4.65,2.5,6.26,2.67a20.33,20.33,0,0,0,4.33-.06c1-.11,2.62.12,3.56-.26-1.57-.56-5-7-3.17-7.81.89-.37,4.31,2.12,5,2.61,1.62,1.14,2.29,2.83,3.38,4.35,1.34-.26,2.45-5.11,2.68-6.2s.92-5.18-.73-5.63c1.13-.43,8.87-2.14,10.73-1.47-1.4-1.21-2.44-2.94-3.91-4.13-.82-.66-3.81-3.18-5-2.46.53-.31,1.14-.35,1.72-.69a9.73,9.73,0,0,0,2.36-2.12c.86-1.05,2.21-3.19,1.28-4.5-.73-1-3.58-1.84-4.77-2.08a16.36,16.36,0,0,0-3.24-.37,15.82,15.82,0,0,1-1.64.15c-1.08-.41-1.13-3.29-1.57-4.29a22.26,22.26,0,0,0-3.13-5.15c-.23-.27-1.12-1.48-1.64-1.3a9.32,9.32,0,0,0-1.09,2.23,13.47,13.47,0,0,0-.45,5.38c-.92-.3-1.61-2.11-2.17-2.8a13.45,13.45,0,0,0-2.83-2.5,14.74,14.74,0,0,0-1.35-.82c1.58-.13,3.12.16,4.73.19.68-1.36-3.11-5.56-4-6.49s-4.23-4.24-5.79-3.07c.37-1.29,4.1-9.31,6-10.53-2.1.45-4.44.22-6.57.75-1.18.29-5.62,1.29-5.77,2.84.08-.68.46-1.25.53-2a10.31,10.31,0,0,0-.37-3.51c-.39-1.47-1.48-4.08-3.34-4.11-1.47,0-4.19,2-5.24,2.87a18.37,18.37,0,0,0-2.58,2.64,17.27,17.27,0,0,1-1,1.56c-1.13.69-3.87-1.17-5.11-1.43l-1-.2c-1-.82-2.17-1.39-3-.88.47-1.25,4.77-9,6.74-10-2.12.3-4.42-.09-6.57.27-1.19.2-5.66.88-5.93,2.41.13-.67.55-1.21.68-1.93a10.29,10.29,0,0,0-.1-3.51c-.28-1.48-1.15-4.16-3-4.32-1.35-.12-3.91,1.42-5.16,2.3a2.62,2.62,0,0,0-.72-2.33c-1.09-.92-4.45-1-5.83-1a18.65,18.65,0,0,0-3.66.48,17.85,17.85,0,0,1-1.76.61c-1.3-.15-2.18-3.27-3-4.24a25.51,25.51,0,0,0-4.9-4.76c-.32-.23-1.65-1.3-2.17-1a10.29,10.29,0,0,0-.56,2.72,15,15,0,0,0,1,6c-1.09-.07-2.37-1.86-3.18-2.46a15.51,15.51,0,0,0-3.82-2,12.89,12.89,0,0,0-8.65-.43c3.47,2,6.57,6.77,6.4,10.83-2.74-.62-5.57-.54-8.2-1.62-1.27-.52-2.6-2.48-3.61-1.3-.86,1-1.16,2.77-1.38,4.37-1.16-1.15-2.85-2.49-3.87-1.82.4-1.12,4.13-8.05,5.88-9-1.89.29-3.95,0-5.86.33-1.06.2-5,.86-5.26,2.23.1-.6.47-1.08.58-1.74a9.18,9.18,0,0,0-.14-3.13c-.27-1.32-1.09-3.69-2.74-3.82-1.3-.1-3.82,1.54-4.8,2.28a16.39,16.39,0,0,0-2.42,2.22,15.4,15.4,0,0,1-1,1.33c-1,.55-3.36-1.23-4.45-1.53a24.09,24.09,0,0,0-6.16-.91c-.36,0-1.91-.09-2.11.41a9.07,9.07,0,0,0,1.06,2.24,13.8,13.8,0,0,0,4,3.75c-.84.5-2.74-.12-3.66-.14a14.46,14.46,0,0,0-3.85.55,11.87,11.87,0,0,0-6.1,3.55c-1-.7-2-1.79-2.65-2.16a25.91,25.91,0,0,0-6.29-2.52c-.39-.09-2-.58-2.35-.09a9.92,9.92,0,0,0,.53,2.66,14.87,14.87,0,0,0,3.24,5c-1,.33-2.87-.82-3.84-1.07a15.69,15.69,0,0,0-4.23-.38,12.74,12.74,0,0,0-8.06,2.75c3.94.58,8.58,3.73,10,7.45-2.74.43-5.29,1.53-8.1,1.5-1,0-2.45-.77-3.26-.46a10.86,10.86,0,0,0,.43-2.91c0-1.49-.3-4.24-2-4.75-1.37-.4-4.47.81-5.7,1.4a18.32,18.32,0,0,0-3.13,1.86,17.29,17.29,0,0,1-1.35,1.23c-1.25.37-3.33-2.09-4.43-2.65a26.16,26.16,0,0,0-6.41-2.36c-.39-.08-2-.52-2.37,0a10,10,0,0,0,.61,2.66,15,15,0,0,0,3.41,4.95c-1,.36-2.92-.75-3.9-1a15.82,15.82,0,0,0-4.27-.26,12.83,12.83,0,0,0-8,3c4,.48,8.75,3.52,10.27,7.22-2.4.45-4.65,1.4-7.07,1.67h0c-1.19-.46-1.23-3.63-1.71-4.73a24.5,24.5,0,0,0-3.41-5.69c-.25-.3-1.23-1.63-1.8-1.44a10.27,10.27,0,0,0-1.22,2.45,14.84,14.84,0,0,0-.52,5.92c-1-.33-1.76-2.33-2.37-3.09a14.8,14.8,0,0,0-3.1-2.77,12.38,12.38,0,0,0-8-2.48c2.75,2.76,4.47,8,3.29,11.81-2.42-1.25-5.11-1.85-7.31-3.5-1.06-.8-1.82-3-3.07-2.1-1.57,1.09-2.42,4.1-3.23,5.68a14.38,14.38,0,0,0-1.25,3c-.22.86-.08,2.33-.54,3.09-.57-1.06-.52-2.68-.89-3.83a19.53,19.53,0,0,0-1.46-3.24c-.68-1.23-2.66-4.38-4.41-3.94-1.43.36-2.88,3.47-3.62,4.59a9.41,9.41,0,0,0-1.26,2.92,6.69,6.69,0,0,0-.12.94,1.17,1.17,0,0,0-.69.22c.35-1.19,3.84-8.59,5.6-9.71-1.95.41-4.11.19-6.08.66-1.09.26-5.2,1.17-5.35,2.6.07-.62.43-1.15.5-1.83a9.54,9.54,0,0,0-.32-3.25c-.36-1.36-1.34-3.78-3.07-3.82-1.36,0-3.88,1.81-4.86,2.63a17,17,0,0,0-2.4,2.43,16,16,0,0,1-.92,1.44c-1,.63-3.57-1.1-4.72-1.35a25.17,25.17,0,0,0-6.46-.61c-.38,0-2,0-2.18.54a9.47,9.47,0,0,0,1.23,2.27,14.44,14.44,0,0,0,4.37,3.68c-.84.57-2.86,0-3.81.06a15.07,15.07,0,0,0-4,.78,12,12,0,0,0-6.6,4.63c3.77-.52,8.9,1.1,11.22,4.09-2.38,1.12-4.41,2.79-7,3.52-1.25.35-3.4-.29-3.43,1.13,0,1.78,1.84,4.09,2.62,5.57a13.38,13.38,0,0,0,1.64,2.6c.55.64,1.79,1.36,2.12,2.12-1.17-.16-2.42-1.1-3.54-1.46a20,20,0,0,0-3.4-.71c-1.36-.17-5-.44-5.66,1.11-.54,1.27,1.07,4.08,1.52,5.25a8.75,8.75,0,0,0,1.58,2.57c.28.33,1,.82,1.48,1.33C636,881.44,631.49,885.69,632.27,887.75Zm275.22-23.21c.16-.62,1.88-1.36,3.46-1.93a13.1,13.1,0,0,1,1.45,4.44C909.79,866.68,907.19,865.76,907.49,864.54ZM880,897.15l.07.09-.57.56a.74.74,0,1,1,.5-.65Zm-40.92,12.48c.46-.25,1.79.28,3,.86a10.49,10.49,0,0,0-2.17,3C838.88,911.85,838.25,910.11,839.09,909.64Zm-15.15-73.41a6.41,6.41,0,0,1,.85-.15,4,4,0,0,1,.06,1.72,5.73,5.73,0,0,1-.94-1.56Zm-40.8,50.86c.27.18.52.34.76.47a2.61,2.61,0,0,1-1.53.21A7.68,7.68,0,0,0,783.14,887.09ZM780,896.72l.45-.16.22.26c-2.28,1-4.24,2.55-6.67,3.24a6.19,6.19,0,0,0-1.36-3.28C774.47,897.92,778.3,897.24,780,896.72Zm-10.6,11.76c0-.17.05-.36.07-.56a9.29,9.29,0,0,0,3.7-.06l.3-.1a9.58,9.58,0,0,0,.86,1.31,11.69,11.69,0,0,0-1.33.73,19.52,19.52,0,0,0-3.28-.75l-.43-.06C769.29,908.83,769.33,908.65,769.36,908.48Zm-7.83-3.07h-.45c-.06-.21-.16-.44-.26-.68A3.28,3.28,0,0,0,761.53,905.41Zm-2.79-65.23c0,.1,0,.2,0,.31a1.17,1.17,0,0,0-.49.53A4.29,4.29,0,0,1,758.74,840.18ZM750,947.5a3.32,3.32,0,0,1,.9,1A10.67,10.67,0,0,1,748,947.4c0-.11,0-.23-.05-.34a3.94,3.94,0,0,0-.38-.81A5.93,5.93,0,0,0,750,947.5Zm-10.71-1.85.27.29.28.29-.72.1Zm-19.28-8.5.15-.07a7.68,7.68,0,0,0,.22,1.87c-1.17,1-2.46,2.32-.75,3.36a14.86,14.86,0,0,0,1.38.74,18,18,0,0,1-.34,2.52c-.43-1-.84-1.95-1.3-2.91a21.43,21.43,0,0,0-1.88-3.6A5,5,0,0,0,720.06,937.14Zm-5.2-52.5.21,0a4.85,4.85,0,0,1-.42,1.84,5.57,5.57,0,0,1-.38-1.78Zm-17,19.3-.36-.08-.55-.06c.48-.88,1-1.77,1.51-2.58.26.39.55.8.87,1.19A19.12,19.12,0,0,1,697.9,903.94Zm6.6-24.39a5,5,0,0,0,1.9,1.53,7.69,7.69,0,0,0-1,2.16c-.11.35-.14,1.07-.27,1.65a4.61,4.61,0,0,0-1.06-.74A7.65,7.65,0,0,0,704.51,879.55Zm-31,8.91c1.86-.59,5-1.42,6.37-2.83.9-.91,1-1.32.33-2.29s-1.31-1.87-2-2.78l-.4-.55a21.17,21.17,0,0,0,2.19-1.17,11.54,11.54,0,0,0,2.2-2c0,.17.06.32.1.44a27.39,27.39,0,0,1,.46,4.41c.27,2.53.83,6.82-.77,9.12,2.21-1.3,4.63-2.28,6.2-4.37a12.68,12.68,0,0,0,1.77-3.2,4.64,4.64,0,0,0,.11-1c.33,1.65,3,4.07,3.77,4.59s2,1.43,3.14,2.13a10.44,10.44,0,0,0-1.37.14c-1.51.25-3.4.59-2.56,2.35a11.73,11.73,0,0,0,3.61,4.5c1.43,1,4.06,1.7,5.7.66a5.58,5.58,0,0,0-.62,1.12,21.36,21.36,0,0,0-2.41-.5c-.39-.06-2-.39-2.35.13a2.94,2.94,0,0,0,.26,1.19,16,16,0,0,0-2.85.3c-1.18.26-5.61,1.14-5.8,2.68.09-.67.49-1.23.58-2a10.25,10.25,0,0,0-.27-3.49c-.35-1.46-1.36-4.09-3.21-4.17-1.45-.06-4.21,1.85-5.28,2.72a18.28,18.28,0,0,0-2.63,2.56,17.18,17.18,0,0,1-1,1.53c-1.14.66-3.81-1.26-5-1.55-.51-.12-1-.23-1.57-.33a10,10,0,0,0-.22-4.3,11.63,11.63,0,0,0-1.5-3.1,4.48,4.48,0,0,0-.75-.66C669.19,889.39,672.65,888.72,673.49,888.46Z" fill="#1a0e0e"/><path d="M785.49,826.62l.59,0A1.2,1.2,0,0,1,785.49,826.62Z" fill="#1a0e0e"/><path d="M1723.48,689.27c-1.12-1.68-1.71-3.81-2.9-5.49-.66-.93-3.06-4.46-4.5-4,.63-.18,1.27,0,2-.25a10.26,10.26,0,0,0,3-1.59c1.18-.88,3.15-2.77,2.55-4.42-.47-1.3-3.19-3-4.35-3.55a17.13,17.13,0,0,0-3.24-1.3,16.39,16.39,0,0,1-1.73-.3c-1-.74-.27-3.82-.45-5A25,25,0,0,0,1712,657c-.16-.35-.75-1.89-1.33-1.84-.28,0-1.55,1.78-1.74,2.06a15.11,15.11,0,0,0-1.93,5.59c-.86-.57-1.08-2.69-1.47-3.58a14.83,14.83,0,0,0-2.23-3.45,16,16,0,0,0-1.16-1.25A49.47,49.47,0,0,1,1707,656c1.08-1.26-1.69-6.79-2.33-8s-3.2-5.7-5.13-4.89c.74-1.26,6.77-8.74,9.06-9.5-2.29-.11-4.64-1-7-1.05-1.3,0-6.14-.21-6.72,1.4.26-.7.81-1.2,1.09-2a11.66,11.66,0,0,0,.58-3.83c0-1.67-.41-4.75-2.32-5.31-1.5-.44-4.86.92-6.19,1.58a19.47,19.47,0,0,0-3.38,2.08,18.63,18.63,0,0,1-1.44,1.38c-1.35.41-3.67-2.33-4.88-3l-1-.5c-.85-1.17-1.86-2.08-2.81-1.77.82-1.2,7.36-8.17,9.69-8.76-2.26-.28-4.53-1.34-6.85-1.56-1.28-.12-6.08-.66-6.77.89.31-.67.9-1.13,1.23-1.87a11.6,11.6,0,0,0,.86-3.76c.12-1.66-.06-4.74-1.91-5.44-1.36-.51-4.42.41-5.94,1a3,3,0,0,0-.11-2.68c-.88-1.28-4.31-2.34-5.74-2.67a19.31,19.31,0,0,0-3.9-.52,18.47,18.47,0,0,1-2,.15c-1.3-.53-1.35-4.09-1.89-5.34a28.24,28.24,0,0,0-3.75-6.43c-.27-.34-1.35-1.85-2-1.64a11.46,11.46,0,0,0-1.32,2.74,17,17,0,0,0-.55,6.64c-1.1-.38-1.93-2.64-2.6-3.51a16.72,16.72,0,0,0-3.4-3.15,13.46,13.46,0,0,0-8.8-2.89c3,3.14,4.92,9,3.64,13.31-2.65-1.43-5.59-2.14-8-4-1.17-.91-2-3.36-3.37-2.4-1.16.82-2,2.62-2.62,4.25-.88-1.55-2.26-3.45-3.49-3,.72-1.08,6.46-7.4,8.53-8-2-.22-4.06-1.14-6.13-1.3-1.15-.09-5.43-.5-6,.89.27-.6.78-1,1.07-1.68a10.36,10.36,0,0,0,.71-3.37c.08-1.48-.11-4.23-1.78-4.83-1.31-.47-4.35.56-5.57,1.08a17.29,17.29,0,0,0-3.1,1.67,16.54,16.54,0,0,1-1.35,1.15c-1.22.3-3.13-2.26-4.17-2.88a25.28,25.28,0,0,0-6.1-2.7c-.37-.1-1.95-.63-2.29-.16a10.26,10.26,0,0,0,.48,2.68,15.25,15.25,0,0,0,3.09,5.1c-1,.3-2.79-.9-3.73-1.17a15,15,0,0,0-4.12-.5,12.37,12.37,0,0,0-7.26,2.05c-.81-1-1.56-2.47-2.14-3a27.7,27.7,0,0,0-5.8-4.45c-.37-.21-1.91-1.18-2.4-.76a11.24,11.24,0,0,0-.18,3,16.71,16.71,0,0,0,2,6.23c-1.14.06-2.73-1.68-3.67-2.21a16.4,16.4,0,0,0-4.26-1.59,13.2,13.2,0,0,0-9.06.65c3.91,1.73,7.83,6.38,8.26,10.73-2.94-.31-5.87.14-8.76-.68-1.08-.3-2.32-1.5-3.23-1.41a12.14,12.14,0,0,0,1.23-3c.43-1.58.85-4.59-.81-5.62-1.31-.81-4.83-.4-6.25-.11a19.08,19.08,0,0,0-3.73,1.09,18.24,18.24,0,0,1-1.72.93c-1.39,0-2.86-3.16-3.84-4.07a27.9,27.9,0,0,0-6-4.31c-.38-.2-2-1.13-2.44-.69a11.32,11.32,0,0,0-.1,3,16.83,16.83,0,0,0,2.16,6.22c-1.15.09-2.8-1.61-3.76-2.12a16.52,16.52,0,0,0-4.33-1.48,13.3,13.3,0,0,0-9.1.91c4,1.63,8.06,6.2,8.62,10.57-2.6-.2-5.17.18-7.74-.22l0,0c-1.1-.82-.27-4.2-.47-5.51a27.58,27.58,0,0,0-2-7c-.17-.39-.82-2.08-1.46-2-.31,0-1.71,1.95-1.92,2.26a16.64,16.64,0,0,0-2.15,6.14c-.95-.63-1.18-3-1.6-4a16.33,16.33,0,0,0-2.44-3.81,13.15,13.15,0,0,0-7.6-4.89c2.08,3.71,2.43,9.76.17,13.48-2.16-2-4.76-3.4-6.57-5.78-.88-1.15-1.07-3.67-2.59-3.1-1.91.72-3.62,3.68-4.88,5.13a15.77,15.77,0,0,0-2.11,2.84c-.46.85-.72,2.46-1.4,3.13-.3-1.29.2-3,.12-4.33a22.09,22.09,0,0,0-.62-3.86c-.36-1.5-1.55-5.4-3.47-5.43-1.57,0-3.92,2.88-5,3.85a10.31,10.31,0,0,0-2.1,2.75,7.48,7.48,0,0,0-.37,1,1.21,1.21,0,0,0-.77,0c.69-1.16,6.3-8.05,8.42-8.74-2.12-.11-4.28-1-6.45-1-1.2,0-5.68-.22-6.22,1.26.25-.64.76-1.1,1-1.81a10.79,10.79,0,0,0,.55-3.54c0-1.54-.36-4.39-2.12-4.92-1.39-.42-4.5.83-5.73,1.43a18,18,0,0,0-3.13,1.91,17.22,17.22,0,0,1-1.34,1.27c-1.25.38-3.38-2.17-4.5-2.76a26.33,26.33,0,0,0-6.49-2.46c-.39-.09-2.06-.55-2.39,0a10.68,10.68,0,0,0,.65,2.76,15.88,15.88,0,0,0,3.5,5.14c-1,.37-2.95-.78-3.94-1a15.59,15.59,0,0,0-4.31-.29,12.55,12.55,0,0,0-8.07,3.07c4,.51,8.87,3.67,10.45,7.51-2.76.52-5.31,1.73-8.16,1.77-1.38,0-3.43-1.26-3.85.23-.53,1.88.78,4.86,1.18,6.65a15,15,0,0,0,1,3.23c.39.84,1.48,1.95,1.61,2.85-1.16-.5-2.19-1.85-3.25-2.55a21.08,21.08,0,0,0-3.31-1.71c-1.36-.57-5-1.87-6.13-.41-.91,1.2,0,4.64.14,6a9.84,9.84,0,0,0,.92,3.17c.2.43.79,1.15,1.16,1.83-3-.21-8.81,3-8.57,5.43,2.7-.92,7.59.37,9.65,2.32-2.8,1-4.62,1.76-6.59,4.15-1.23,1.49-2.75,3.37-.43,4.39a15.5,15.5,0,0,0,7.34,1.39c2.22-.23,5.35-1.7,6-4.06.21,2.15,1.74,4.16,2,6.39a25.92,25.92,0,0,1-.47,8.17c1.3-.72,2.82-.54,4.08-1.51a12.06,12.06,0,0,0,2.49-2.76,18.77,18.77,0,0,0,1.82-3.83,11.62,11.62,0,0,0,.45-3l.37.3a29.57,29.57,0,0,1,3.29,3.29,39.63,39.63,0,0,1,3.46,3.74,22.67,22.67,0,0,0-2.3-.69c-.42-.1-2.2-.64-2.57-.09a11.47,11.47,0,0,0,.63,3,17.05,17.05,0,0,0,3.64,5.59c-1.11.37-3.15-.9-4.21-1.18a16.74,16.74,0,0,0-4.62-.4,13.47,13.47,0,0,0-8.73,3.11c4.31.63,9.44,4.14,11,8.3-3,.49-5.74,1.74-8.8,1.72-1.48,0-3.65-1.43-4.14.16-.61,2,.72,5.24,1.12,7.17a16.16,16.16,0,0,0,1,3.49c.4.91,1.54,2.12,1.66,3.1-1.23-.57-2.31-2-3.43-2.81a22.63,22.63,0,0,0-3.52-1.91c-1.44-.64-5.35-2.12-6.58-.58-1,1.27-.12,5,0,6.46a10.56,10.56,0,0,0,.92,3.43c.21.47.82,1.25,1.2,2-3.18-.29-9.52,3-9.32,5.64,2.92-.93,8.14.57,10.31,2.7-3,1-5,1.79-7.17,4.31-1.35,1.57-3,3.56-.56,4.71a16.64,16.64,0,0,0,7.85,1.66,9.6,9.6,0,0,0,4.74-1.8,3.27,3.27,0,0,0,1.43-.63c-.83,1.46-.76,3.42-1.59,5a20.14,20.14,0,0,1-4,5c1.15.13,2,.92,3.26.88a9.37,9.37,0,0,0,2.82-.63,12.94,12.94,0,0,0,1.94-1,33.33,33.33,0,0,1-.72,4.7c1.36-.72,2.93-.55,4.27-1.44.29,1.94.48,4.3-.39,5.77,1.67-1.15,3.54-2,4.67-3.8a10.21,10.21,0,0,0,1.23-2.67,3.85,3.85,0,0,0,0-.85c.35,1.33,2.61,3.18,3.23,3.57,1.37.87,3.55,2.41,5.19,2.53,1.07.08,1.39-.07,1.66-1s.52-1.87.76-2.81a13.06,13.06,0,0,0,.66-3.94q.08-.32.14-.65a9.32,9.32,0,0,0,4.53,1.66q0,.22,0,.44a27.17,27.17,0,0,1-2.17,8.3c1.48-.48,3,0,4.5-.71a12.64,12.64,0,0,0,3.12-2.33,19.68,19.68,0,0,0,2.66-3.56,12.17,12.17,0,0,0,1.08-3c.11.15.23.28.32.38l.32.37a7.77,7.77,0,0,1-.15,4.3c.62-.56,1.28-1.08,1.91-1.62.2.34.41.68.63,1,1.55,2.33,4.29,6.21,3.94,9.22,1.43-2.33,3.24-4.46,3.67-7.25a13.77,13.77,0,0,0,0-4,5.17,5.17,0,0,0-.42-1.06c1.17,1.44,5,2.48,5.94,2.62,2.14.31,5.62,1,7.72.28-.3.48-.61.94-.92,1.39,1.42-.14,2.69.61,4.17.24a11.59,11.59,0,0,0,3.25-1.47,17.75,17.75,0,0,0,2.89-2.47,6.44,6.44,0,0,0,2.7-.61c.31.83.56,1.69.88,2.5v0a9.53,9.53,0,0,1-.28,2.54,23.31,23.31,0,0,1-3.29,6.58c1.33-.14,2.53.55,3.9.2a8.91,8.91,0,0,0,1.45-.53c0,.07,0,.14-.06.21l.35-.35a11.79,11.79,0,0,0,1.29-.73c.31-.2.63-.45.95-.71.14,1.47.53,3.08.64,3.94a10.9,10.9,0,0,0,1.09,3.49c.23.47.9,1.26,1.32,2-3.29-.17-9.68,3.54-9.37,6.21,3-1.08,8.41.25,10.74,2.35-3.08,1.14-5.08,2.06-7.21,4.74-1.32,1.67-3,3.8-.38,4.88a17.17,17.17,0,0,0,8.16,1.37c2.45-.3,5.89-2,6.59-4.63.28,2.38,2,4.57,2.38,7a28.71,28.71,0,0,1-.34,9.06c1.42-.83,3.11-.67,4.48-1.76a13.36,13.36,0,0,0,2.69-3.11,20.79,20.79,0,0,0,1.93-4.28,12.86,12.86,0,0,0,.43-3.34c.15.13.3.24.42.32a32.74,32.74,0,0,1,3.71,3.57c2.13,2,5.84,5.43,6.17,8.61.95-2.73,2.33-5.34,2.13-8.32a14.55,14.55,0,0,0-.86-4.1,5.47,5.47,0,0,0-.68-1c1.53,1.22,5.69,1.43,6.73,1.35,2.3-.17,6.11-.24,8.1-1.5,1.29-.82,1.53-1.26,1-2.61s-1-2.58-1.51-3.86c-.39-.93-.79-2-1.3-3.07.37-.08.73-.17,1.05-.27a18.76,18.76,0,0,0,3.83-1.81,11.61,11.61,0,0,0,2.25-2c0,.18.06.34.1.47a29.55,29.55,0,0,1,.46,4.62c.27,2.65.83,7.15-.81,9.53,2.25-1.32,4.72-2.3,6.33-4.46a13.13,13.13,0,0,0,1.81-3.32,4.93,4.93,0,0,0,.12-1.08c.34,1.73,3.07,4.31,3.83,4.87,1.68,1.23,4.34,3.41,6.44,3.71,1.37.19,1.79,0,2.22-1.2s.84-2.35,1.23-3.53c.61-1.88,1.64-4.35,1-6.37,1.26,2,5.19,3,7,3.24l.37,0-.09.28c-.07.24-.15.56-.21.78l-.15.59-.56,2.33-1.08,4.56-.55,2.21-.59,2.22a178.12,178.12,0,0,0-4.17,19,78.57,78.57,0,0,0-.7,20.39c.12.88.21,1.74.35,2.64s.33,1.83.52,2.69c.38,1.74.82,3.37,1.24,4.91a55,55,0,0,1,1.83,8.15c.36,3.08.7,6.06.79,8.75a30.7,30.7,0,0,1-.09,3.81c0,.29-.05.59-.1.87s-.08.56-.13.82l-.09.52-.12.8c-.07.51-.12,1-.17,1.45a33.37,33.37,0,0,1-.48,3.91c-.2.92-.61,2.19-1.1,3.83-.12.41-.25.84-.37,1.31s-.27,1.07-.37,1.57c-.21,1-.37,2-.5,2.83-.25,1.72-.44,3.08-.69,4.06s-.75,2.65-1.16,4.9l-.07.44-.07.52c0,.33-.08.66-.1,1-.05.6-.08,1.13-.1,1.56a9.75,9.75,0,0,1-.13,1.54.32.32,0,0,1,0,.08h0l0,.07,0,.14-.28,1.15-.56,2.31c-.19.8-.36,1.48-.53,2.14s-.35,1.27-.53,1.85q-.14.43-.28.83l-.15.39-.25.74c-.33,1-.6,2-.83,2.84s-.44,1.74-.63,2.52l-.54,2.19a21.85,21.85,0,0,1-1,3.24l-1.78,4.16c-1.25,3-2.49,6-3.65,9.17l-.43,1.19-.43,1.23-.39,1.18-.12.31a4.3,4.3,0,0,1,.36-.49c.08-.1.2-.25.31-.36l.4-.38a5,5,0,0,1,.5-.4,6.28,6.28,0,0,1,.63-.42l.34-.18.37-.19a5.8,5.8,0,0,1,.79-.3l6.34,20.16a13.74,13.74,0,0,0,2.57-1.15c.39-.23.78-.47,1.13-.73s.65-.5,1-.76a10.6,10.6,0,0,0,.83-.78c.25-.25.51-.53.72-.78a15.77,15.77,0,0,0,1.08-1.45,18.77,18.77,0,0,0,2.14-4.52c.1-.3.19-.59.27-.85l.21-.76.28-1.08.28-1,.3-1c.81-2.8,1.74-5.64,2.72-8.53l1.6-4.61a41.83,41.83,0,0,0,1.44-5.83l.41-2.41c.13-.75.24-1.44.36-2.07s.24-1.2.36-1.71l.1-.39.21-.73q.2-.72.37-1.43c.22-.94.41-1.85.57-2.72s.3-1.73.43-2.46l.39-2.3.2-1.15.16-.92c.05-.37.1-.74.13-1.08a28.14,28.14,0,0,0,.07-3.15l0-.79v-.42c.06-.85.39-2.3.73-4.31s.42-3.87.54-5.26c.05-.7.11-1.3.18-1.82,0-.27.07-.48.11-.73l.2-1c.3-1.39.77-3.14,1.08-5.32a46.58,46.58,0,0,0,.33-5.46l0-.89,0-.36v-.09l0-.18,0-.38q.08-.77.12-1.51c0-.5,0-1,.05-1.48a46.35,46.35,0,0,0-.26-5.58c-.37-3.56-1-6.78-1.58-9.9a67.84,67.84,0,0,0-2.94-10c-.51-1.45-1-2.83-1.37-4.12-.2-.65-.36-1.28-.51-1.89s-.27-1.33-.41-2a66.12,66.12,0,0,1-.57-17.11,167.24,167.24,0,0,1,2.67-18l.45-2.36.42-2.39.76-4.67.38-2.27.16-.92c0-.24.12-.53.21-.83.35-1.25.92-2.69,1.46-4.45l.75-2.56a38.75,38.75,0,0,1,2.66,4.07c1.51-.26,2.8-5.82,3.06-7.08s1.08-5.94-.78-6.51c1.27-.47,10-2.24,12-1.43-1.56-1.43-2.71-3.45-4.35-4.86-.91-.78-4.25-3.76-5.61-3,.6-.34,1.28-.37,1.93-.75a10.78,10.78,0,0,0,2.67-2.39l.15-.19a15.19,15.19,0,0,0,2.3.85,19.79,19.79,0,0,0,4.19.59,2.45,2.45,0,0,0,.92.66,16,16,0,0,0,7.54,1.53c2.29-.2,5.53-1.67,6.27-4.1.19,2.22,1.74,4.31,2,6.61a26.69,26.69,0,0,1-.6,8.41c1.35-.73,2.91-.52,4.22-1.5a12.42,12.42,0,0,0,2.6-2.81,19.33,19.33,0,0,0,1.93-3.92,12,12,0,0,0,.5-3.09l.38.31a30.44,30.44,0,0,1,3.34,3.43c1.92,2,5.26,5.23,5.47,8.2,1-2.51,2.33-4.89,2.24-7.66a13.53,13.53,0,0,0-.67-3.84,5.08,5.08,0,0,0-.6-.95c1.38,1.18,5.24,1.5,6.21,1.46,2.14-.08,5.68,0,7.57-1.15a3.38,3.38,0,0,0,1-.78,4.86,4.86,0,0,0,1.78-.82,13,13,0,0,0,2.67-3,20.3,20.3,0,0,0,1.95-4.15h0c.44-.25.86-.53,1.29-.8,0,.17,0,.33,0,.45a28.14,28.14,0,0,1-.64,4.38c-.36,2.51-.88,6.79-2.94,8.62,2.38-.7,4.89-1,6.88-2.67a12.5,12.5,0,0,0,2.44-2.65,4.72,4.72,0,0,0,.36-1c-.09,1.68,1.84,4.69,2.41,5.38,1.27,1.53,3.22,4.15,5.1,4.91,1.22.49,1.65.44,2.33-.6s1.32-2,1.95-3c1-1.59,2.51-3.64,2.39-5.65.71,2.1,4.11,4,5.72,4.6a21.14,21.14,0,0,0,4.48,1.15c1.09.17,2.67.87,3.74.73-1.47-1-3.23-8.89-1.14-9.19,1-.15,3.86,3.46,4.45,4.18,1.36,1.67,1.59,3.65,2.29,5.57,1.45.11,3.92-4.74,4.46-5.84s2.36-5.24.78-6.19C1713.29,687.68,1721.74,688,1723.48,689.27Zm-30-33.67c.33-.61,2.31-.92,4.09-1.08a14.84,14.84,0,0,1,.28,5.13C1695.28,658.52,1692.84,656.81,1693.49,655.61Zm-83,33c-.61-2-.79-4.05.21-4.32.54-.14,1.77.8,2.84,1.76A11.26,11.26,0,0,0,1610.48,688.6Zm-56.55-34.39c-2.63.44-5.07,1.51-7.76,1.56a7,7,0,0,0-.5-3.87c1.61,1.74,5.75,2.09,7.6,2l.51,0C1553.83,654,1553.89,654.09,1553.93,654.21Zm-65.07-31.59c.21,0,.41.1.62.13l.22,0a5.39,5.39,0,0,1-.94,1.84A6.31,6.31,0,0,1,1488.86,622.62Zm55.19,42.83a12.16,12.16,0,0,0-1.57.4,20.6,20.6,0,0,0-3.17-1.72l-.43-.18c.09-.18.18-.36.25-.53s.15-.36.22-.57a9.67,9.67,0,0,0,3.82,1l.34,0A10.77,10.77,0,0,0,1544.05,665.45Zm-12.61-7.6c0-.24,0-.52-.08-.8a3.62,3.62,0,0,0,.55.91h0Zm27.74-13.28c.23.26.45.51.66.72a2.7,2.7,0,0,1-1.63-.2A8.1,8.1,0,0,0,1559.18,644.57ZM1578.11,581l.6.22A1.26,1.26,0,0,1,1578.11,581Zm-110,54.8c.16.49.35,1,.57,1.51a20.28,20.28,0,0,1-1.92,1.22l-.35-.19c-.18-.08-.37-.15-.56-.22C1466.56,637.29,1467.34,636.48,1468.09,635.76Zm30,58.71c.07.15.14.28.2.38s.15.26.21.39c-.26,0-.51-.08-.76-.1Zm156.67-12.14a4.35,4.35,0,0,0,1.54.19l0,.11-.74.44A4.56,4.56,0,0,0,1654.73,682.34ZM1616,602.08a4.55,4.55,0,0,1-.4,1.85,6.45,6.45,0,0,1-.54-1.93h0A6.63,6.63,0,0,1,1616,602.08Zm-69.19-14.23c0,.11-.07.21-.1.32a1.24,1.24,0,0,0-.65.43A4.64,4.64,0,0,1,1546.83,587.85Zm-66.64,26.58a5.52,5.52,0,0,0,1.54,2.16,8.4,8.4,0,0,0-1.64,2c-.21.35-.43,1.1-.73,1.67a5,5,0,0,0-.89-1.09A8.57,8.57,0,0,0,1480.2,614.43Zm-39.15,4a13.14,13.14,0,0,0-.7-3.72,4.94,4.94,0,0,0-.59-.91c1.36,1.13,5.11,1.39,6,1.34,2.08-.11,5.52-.11,7.34-1.21,1.18-.72,1.41-1.11,1-2.34s-.84-2.35-1.29-3.51l-.26-.7a22,22,0,0,0,2.58-.63,12.17,12.17,0,0,0,2.82-1.5c0,.19,0,.36,0,.5a31,31,0,0,1-.72,4.82c-.41,2.76-1,7.48-3.28,9.47,2.63-.76,5.39-1.12,7.59-2.9a13.77,13.77,0,0,0,2.7-2.9,5.19,5.19,0,0,0,.4-1.07c-.11,1.85,2,5.18,2.63,5.94s1.64,2.08,2.65,3.15a10.82,10.82,0,0,0-1.45-.24c-1.62-.16-3.66-.33-3.28,1.78a13.1,13.1,0,0,0,2.5,5.8c1.21,1.45,3.72,2.95,5.7,2.31a6.05,6.05,0,0,0-.95,1,22.5,22.5,0,0,0-2.35-1.21c-.39-.17-2-1-2.45-.53a3.33,3.33,0,0,0-.06,1.33,16.62,16.62,0,0,0-3-.49c-1.29-.06-6.09-.36-6.71,1.21.28-.68.84-1.17,1.13-1.92a11.58,11.58,0,0,0,.67-3.79c0-1.66-.28-4.72-2.17-5.33-1.48-.48-4.85.79-6.18,1.41a19.33,19.33,0,0,0-3.41,2,18.49,18.49,0,0,1-1.47,1.33c-1.35.38-3.58-2.41-4.76-3.07-.49-.27-1-.54-1.52-.79A11.33,11.33,0,0,0,1441,618.45Zm37.84,70.7c-.17-1.15-.34-2.31-.54-3.46a24.19,24.19,0,0,0-1-4.35,5.26,5.26,0,0,0,3.12-1.33l.17,0a8.69,8.69,0,0,0-.28,2.05c-1.49.78-3.17,1.78-1.69,3.36a16,16,0,0,0,1.22,1.17A20.14,20.14,0,0,1,1478.89,689.16Zm27.66,9.64c0-.12,0-.25,0-.37a4.46,4.46,0,0,0-.17-1,6.4,6.4,0,0,0,2.16,2,3.7,3.7,0,0,1,.64,1.34A11.39,11.39,0,0,1,1506.55,698.79Z" fill="#1a0e0e"/></svg>