<svg xmlns="http://www.w3.org/2000/svg" xmlns:xlink="http://www.w3.org/1999/xlink" width="1920" height="1180" viewBox="0 0 1920 1180"><defs><linearGradient id="linear-gradient" x1="961.5" y1="465" x2="961.5" gradientUnits="userSpaceOnUse"><stop offset="0.04" stop-color="#ffe378"/><stop offset="0.15" stop-color="#ffc770"/><stop offset="0.4" stop-color="#ff7f5b"/><stop offset="0.41" stop-color="#ff7c5a"/><stop offset="0.99" stop-color="#143d85"/></linearGradient></defs><title>header-0</title><g id="sky"><rect x="-15" width="1953" height="465" fill="url(#linear-gradient)"/></g><g id="haze"><g opacity="0.03"><path d="M1048,98.7l46.29-.9,46.29-.77,92.58-1.53,92.58-1.32,92.58-1.08c30.86-.34,61.72-1,92.58-1.52s61.72-.54,92.58-.08,61.72,1.21,92.58,2.37,61.72,2.53,92.58,4.83v1.6c-30.86,2.29-61.72,3.71-92.58,4.83s-61.72,1.89-92.58,2.37-61.72.43-92.58-.08-61.72-1.18-92.58-1.52l-92.58-1.08-92.58-1.32L1140.57,102l-46.29-.77-46.29-.9Z" fill="#fff"/></g><g opacity="0.03"><path d="M478.71,162.8l-29.36.9-29.36.77L361.28,166l-58.72,1.32-58.72,1.08c-19.57.34-39.14,1-58.72,1.52s-39.14.54-58.72.08-39.14-1.23-58.72-2.35S28.55,165.1,9,162.8v-1.6c19.57-2.3,39.14-3.69,58.72-4.85s39.14-1.88,58.72-2.35,39.14-.43,58.72.08,39.14,1.18,58.72,1.52l58.72,1.08L361.28,158,420,159.53l29.36.77,29.36.9Z" fill="#fff"/></g><g opacity="0.03"><path d="M34.18,293.2l40.3-.9,40.3-.77,80.6-1.53,80.6-1.32,80.6-1.08c26.87-.34,53.73-1,80.6-1.52s53.73-.54,80.6-.08,53.73,1.21,80.6,2.37,53.73,2.53,80.6,4.83v1.6c-26.87,2.29-53.73,3.71-80.6,4.83s-53.73,1.89-80.6,2.37-53.73.43-80.6-.08-53.73-1.18-80.6-1.52L276,299.32,195.38,298l-80.6-1.53-40.3-.77-40.3-.9Z" fill="#fff"/></g><g opacity="0.03"><path d="M545.85,174.2l49.7-.9,49.7-.77,99.4-1.53,99.4-1.32,99.4-1.08,49.7-.69,49.7-.83q49.7-.76,99.4-.08t99.4,2.37c33.13,1.11,66.27,2.53,99.4,4.83v1.6c-33.13,2.29-66.27,3.71-99.4,4.83s-66.27,1.92-99.4,2.37-66.27.43-99.4-.08l-49.7-.83-49.7-.69-99.4-1.08L744.66,179l-99.4-1.53-49.7-.77-49.7-.9Z" fill="#fff"/></g><g opacity="0.03"><path d="M1117.9,398.8l-42,.9-42,.77-84,1.53-84,1.32-84,1.08c-28,.34-56,1-84,1.52s-56,.54-84,.08-56-1.21-84-2.37-56-2.53-84-4.83v-1.6c28-2.29,56-3.71,84-4.83s56-1.89,84-2.37,56-.43,84,.08,56,1.18,84,1.52l84,1.08,84,1.32,84,1.53,42,.77,42,.9Z" fill="#fff"/></g><g opacity="0.03"><path d="M1693.32,213.8l-36.71.9-36.71.77L1546.49,217l-73.42,1.32-73.41,1.08c-24.47.34-48.94,1-73.42,1.52s-48.94.54-73.41.08-48.94-1.21-73.42-2.37-48.94-2.53-73.41-4.83v-1.6c24.47-2.29,48.94-3.71,73.41-4.83s48.94-1.89,73.42-2.37,48.94-.43,73.41.08,48.94,1.18,73.42,1.52l73.41,1.08,73.42,1.32,73.41,1.53,36.71.77,36.71.9Z" fill="#fff"/></g><g opacity="0.03"><path d="M1106,334.2l34.21-.9,34.21-.77,68.43-1.53,68.43-1.32,68.43-1.08c22.81-.34,45.62-1,68.43-1.52s45.62-.54,68.43-.08,45.62,1.23,68.43,2.35,45.62,2.55,68.43,4.85v1.6c-22.81,2.3-45.62,3.69-68.43,4.85s-45.62,1.88-68.43,2.35-45.62.43-68.43-.08-45.62-1.18-68.43-1.52l-68.43-1.08L1242.81,339l-68.43-1.53-34.21-.77-34.21-.9Z" fill="#fff"/></g><g opacity="0.03"><path d="M956.14,219.8l-51.94.9-51.94.77L748.4,223l-103.87,1.32L540.65,225.4l-51.94.69-51.94.83q-51.94.76-103.87.08T229,224.63c-34.62-1.11-69.25-2.53-103.87-4.83v-1.6c34.62-2.29,69.25-3.71,103.87-4.83s69.25-1.92,103.87-2.37,69.25-.43,103.87.08l51.94.83,51.94.69,103.87,1.08L748.4,215l103.87,1.53,51.94.77,51.94.9Z" fill="#fff"/></g><g opacity="0.03"><path d="M1092,36.2l41.84-.9,41.84-.77L1259.33,33,1343,31.68l83.68-1.08c27.89-.34,55.79-1,83.68-1.52s55.79-.54,83.68-.08,55.79,1.21,83.68,2.37,55.79,2.53,83.68,4.83v1.6c-27.89,2.29-55.79,3.71-83.68,4.83S1622,44.52,1594.06,45s-55.79.43-83.68-.08-55.79-1.18-83.68-1.52L1343,42.32,1259.33,41l-83.68-1.53-41.84-.77L1092,37.8Z" fill="#fff"/></g><g opacity="0.03"><path d="M241.38,345.2l44.15-.9,44.15-.77L418,342l88.31-1.32,88.31-1.08c29.44-.34,58.87-1,88.31-1.52s58.87-.54,88.31-.08,58.87,1.21,88.31,2.37,58.87,2.53,88.31,4.83v1.6c-29.44,2.29-58.87,3.71-88.31,4.83s-58.87,1.89-88.31,2.37-58.87.43-88.31-.08S624,352.74,594.6,352.4l-88.31-1.08L418,350l-88.31-1.53-44.15-.77-44.15-.9Z" fill="#fff"/></g><g opacity="0.03"><path d="M608.08,268.2l32.21-.9,32.21-.77L736.92,265l64.42-1.32,64.42-1.08c21.47-.34,42.95-1,64.42-1.52s42.95-.54,64.42-.08,42.95,1.23,64.42,2.35,42.95,2.55,64.42,4.85v1.6c-21.47,2.3-42.95,3.69-64.42,4.85s-42.95,1.88-64.42,2.35-42.95.43-64.42-.08-42.95-1.18-64.42-1.52l-64.42-1.08L736.92,273l-64.42-1.53-32.21-.77-32.21-.9Z" fill="#fff"/></g><g opacity="0.03"><path d="M380.62,402.8l-25.35.9-25.35.77L279.22,406l-50.7,1.32-50.7,1.08c-16.9.34-33.8,1-50.7,1.52s-33.8.56-50.7.08-33.8-1.23-50.7-2.35S-8.1,405.09-25,402.8v-1.6c16.9-2.29,33.8-3.71,50.7-4.85s33.8-1.88,50.7-2.35,33.8-.43,50.7.08,33.8,1.18,50.7,1.52l50.7,1.08,50.7,1.32,50.7,1.53,25.35.77,25.35.9Z" fill="#fff"/></g><g opacity="0.03"><path d="M1761.4,163.2c28-1.26,56.1-2.22,84.15-3.2l42.07-1.32,42.07-1.08c14-.34,28-1,42.07-1.52s28-.56,42.07-.08,28,1.23,42.07,2.35,28,2.56,42.07,4.85v1.6c-14,2.29-28,3.71-42.07,4.85s-28,1.88-42.07,2.35-28,.44-42.07-.08-28-1.18-42.07-1.52l-42.07-1.08L1845.54,168c-28-1-56.1-1.94-84.15-3.2Z" fill="#fff"/></g><g opacity="0.03"><path d="M1426.47,256.2l31.28-.9,31.28-.77,62.57-1.53,62.57-1.32,62.57-1.08c20.86-.34,41.71-1,62.57-1.52s41.71-.54,62.57-.08,41.71,1.23,62.57,2.35,41.71,2.55,62.57,4.85v1.6c-20.86,2.3-41.71,3.69-62.57,4.85s-41.71,1.88-62.57,2.35-41.71.43-62.57-.08-41.71-1.18-62.57-1.52l-62.57-1.08L1551.61,261,1489,259.47l-31.28-.77-31.28-.9Z" fill="#fff"/></g><g opacity="0.03"><path d="M1050.83,36.8l-23.19.9-23.19.77L958.05,40l-46.39,1.32L865.28,42.4c-15.46.34-30.93,1-46.39,1.52S788,44.48,772.5,44s-30.93-1.23-46.39-2.35-30.93-2.56-46.39-4.85V35.2c15.46-2.29,30.93-3.71,46.39-4.85S757,28.47,772.5,28s30.93-.43,46.39.08,30.93,1.18,46.39,1.52l46.39,1.08L958.05,32l46.39,1.53,23.19.77,23.19.9Z" fill="#fff"/></g><g opacity="0.03"><path d="M-209.48,17.2l27.36-.9,27.36-.77L-100.05,14l54.71-1.32L9.37,11.6c18.24-.34,36.47-1,54.71-1.52s36.47-.56,54.71-.08,36.47,1.23,54.71,2.35S210,14.91,228.21,17.2v1.6c-18.24,2.29-36.47,3.71-54.71,4.85S137,25.53,118.79,26s-36.47.43-54.71-.08S27.6,24.74,9.37,24.4l-54.71-1.08L-100.05,22l-54.71-1.53-27.36-.77-27.36-.9Z" fill="#fff"/></g><g opacity="0.03"><path d="M-23,75.34l37.87-.9,37.87-.77,75.75-1.53,75.75-1.32L280,69.74c25.25-.34,50.5-1,75.75-1.52s50.5-.54,75.75-.08,50.5,1.21,75.75,2.37S557.75,73,583,75.34v1.6c-25.25,2.29-50.5,3.71-75.75,4.83s-50.5,1.89-75.75,2.37-50.5.43-75.75-.08-50.5-1.18-75.75-1.52l-75.75-1.08-75.75-1.32L52.78,78.6,14.9,77.83-23,76.94Z" fill="#fff"/></g><g opacity="0.03"><path d="M1261.59,401.2c26.1-1.26,52.19-2.22,78.29-3.2l39.14-1.32,39.14-1.08c13-.34,26.1-1,39.14-1.52s26.1-.56,39.14-.08,26.1,1.23,39.14,2.35,26.1,2.56,39.14,4.85v1.6c-13,2.29-26.1,3.71-39.14,4.85s-26.1,1.88-39.14,2.35-26.1.44-39.14-.08-26.1-1.18-39.14-1.52L1379,407.32,1339.88,406c-26.1-1-52.19-1.94-78.29-3.2Z" fill="#fff"/></g><g opacity="0.03"><path d="M1279.39,291.2l33.21-.9,33.21-.77,66.42-1.53,66.42-1.32,66.42-1.08c22.14-.34,44.28-1,66.42-1.52s44.28-.54,66.42-.08,44.28,1.23,66.42,2.35,44.28,2.55,66.42,4.85v1.6c-22.14,2.3-44.28,3.69-66.42,4.85s-44.28,1.88-66.42,2.35-44.28.43-66.42-.08-44.28-1.18-66.42-1.52l-66.42-1.08L1412.23,296l-66.42-1.53-33.21-.77-33.21-.9Z" fill="#fff"/></g><g opacity="0.03"><path d="M1185,141.2l25-.9,25-.77,50.09-1.53,50.09-1.32,50.09-1.08c16.7-.34,33.39-1,50.09-1.52s33.39-.56,50.09-.08,33.39,1.23,50.09,2.35,33.39,2.56,50.09,4.85v1.6c-16.7,2.29-33.39,3.71-50.09,4.85s-33.39,1.88-50.09,2.35-33.39.43-50.09-.08-33.39-1.18-50.09-1.52l-50.09-1.08L1285.15,146l-50.09-1.53-25-.77-25-.9Z" fill="#fff"/></g><g opacity="0.03"><path d="M560.08,111.2l25-.9,25-.77L660.25,108l50.09-1.32,50.09-1.08c16.7-.34,33.39-1,50.09-1.52s33.39-.56,50.09-.08,33.39,1.23,50.09,2.35,33.39,2.56,50.09,4.85v1.6c-16.7,2.29-33.39,3.71-50.09,4.85s-33.39,1.88-50.09,2.35-33.39.43-50.09-.08-33.39-1.18-50.09-1.52l-50.09-1.08L660.25,116l-50.09-1.53-25-.77-25-.9Z" fill="#fff"/></g></g></svg>