<svg id="clouds" xmlns="http://www.w3.org/2000/svg" width="1920" height="1180" viewBox="0 0 1920 1180"><title>header-1</title><path d="M1163.86,120.13l.39-.1c5.35-1.38,6.74-3.27,14.06-4.46a177.33,177.33,0,0,1,27.18-1.84c6.45,0,12.58.27,18,.75l1.48.14c4.54-2.26,12.85-3.77,22.37-3.77a81.47,81.47,0,0,1,11.21.75c6-4.25,20.22-7.24,36.78-7.24a107.87,107.87,0,0,1,26.42,3,13.47,13.47,0,0,1,1.72-1.44c7.39-5.27,25-9,45.47-9a150.26,150.26,0,0,1,23,1.69l1.27.22c10.13-6.38,32-10.8,57.46-10.8,27,0,50,5,59.2,12l1.59-.1c4-.24,8.16-.36,12.42-.36,31.25,0,56.78,6.69,58.47,15.1a4.66,4.66,0,0,1,.09.89c0,14.12-49.16,16.19-85.83,16.57-56,.59-112,.56-168.05.56-72.64,0-144.2-2.3-216.58-2.56-13.87-.05-27.76,0-41.63,0-12.38,0-30,.85-41.12-.22,10.88-1.08,67.8-3.3,83.21-4.33C1126.76,124.6,1152.4,123,1163.86,120.13Z" fill="#615277"/><path d="M1220.92,129.71l.4,0c5.44.54,7,1.45,14.34,1.83,8.24.42,18,.38,27.25.1,6.44-.2,12.53-.52,17.95-.93l1.47-.12c4.69,1,13.09,1.52,22.59,1.23,4-.12,7.78-.38,11.13-.72,6.3,2,20.69,3,37.21,2.54a203.93,203.93,0,0,0,26.16-2.31,17.09,17.09,0,0,0,1.82.68c7.75,2.44,25.55,3.78,46,3.16,8.3-.25,16.07-.8,22.84-1.56l1.25-.15c10.56,2.92,32.74,4.49,58.1,3.71,26.93-.82,49.58-4.05,58.23-7.89h1.59c4,0,8.17-.07,12.42-.2,31.18-1,56.19-5.12,57.29-9.43a1.21,1.21,0,0,0,0-.45c-1-7.15-50.19-6.7-86.81-5.77-55.92,1.41-111.83,3.14-167.73,4.85-72.48,2.22-143.73,5.57-215.94,7.91-13.84.45-27.7.85-41.54,1.27-12.36.38-30,.48-41,1.37,10.93.21,67.89-.4,83.33-.35C1183.59,128.58,1209.29,128.62,1220.92,129.71Z" fill="#615277"/><path d="M2137.07,387.13l-.47-.1c-6.31-1.38-7.95-3.27-16.56-4.46a245.57,245.57,0,0,0-32-1.84c-7.6,0-14.82.27-21.25.75l-1.74.14c-5.35-2.26-15.14-3.77-26.36-3.77a112.83,112.83,0,0,0-13.21.75c-7.09-4.25-23.82-7.24-43.33-7.24a148.75,148.75,0,0,0-31.13,3,15.54,15.54,0,0,0-2-1.44c-8.71-5.27-29.42-9-53.57-9a208,208,0,0,0-27.11,1.69l-1.5.22c-11.94-6.38-37.76-10.8-67.7-10.8-31.8,0-59,5-69.74,12l-1.87-.1c-4.71-.24-9.61-.36-14.63-.36-36.82,0-66.9,6.69-68.89,15.1a4,4,0,0,0-.11.89c0,14.12,57.92,16.19,101.12,16.57,66,.59,132,.56,198,.56,85.58,0,169.89-2.3,255.16-2.56,16.34-.05,32.7,0,49,0,14.59,0,35.29.85,48.45-.22-12.82-1.08-79.88-3.3-98-4.33C2180.77,391.6,2150.57,390,2137.07,387.13Z" fill="#ff9361"/><path d="M1218.79,150.55c-7.29-1-20.37-2.58-26.21-5.42l-.2-.1c-2.73-1.38-3.44-3.27-7.17-4.46a47.27,47.27,0,0,0-13.87-1.84,55.15,55.15,0,0,0-9.2.75l-.75.14c-2.32-2.26-6.56-3.77-11.42-3.77a21.69,21.69,0,0,0-5.72.75c-3.07-4.25-10.32-7.24-18.77-7.24a30,30,0,0,0-13.48,3,11.23,11.23,0,0,0-.88-1.44c-3.77-5.27-12.74-9-23.2-9a40.2,40.2,0,0,0-11.74,1.69l-.65.22c-.59-.72-26,13.2-38.51,13.2a50.06,50.06,0,0,1-8-.66,52.67,52.67,0,0,1-33.06,12,50,50,0,0,1-15.48-2.46c5.59,9.33,26.3,10.9,42.34,11.23,28.57.59,57.16.56,85.75.56,37.06,0,73.58-2.3,110.51-2.56,7.08-.05,14.16,0,21.24,0,6.32,0,15.28.85,21-.22C1255.7,153.81,1226.65,151.58,1218.79,150.55Z" fill="#c46c65"/><path d="M977.34,145.13l.2-.1c2.73-1.38,3.44-3.27,7.17-4.46a47.27,47.27,0,0,1,13.87-1.84,55.15,55.15,0,0,1,9.2.75l.75.14c2.32-2.26,6.56-3.77,11.42-3.77a21.69,21.69,0,0,1,5.72.75c3.07-4.25,10.32-7.24,18.77-7.24a30,30,0,0,1,13.48,3,11.23,11.23,0,0,1,.88-1.44c3.77-5.27,12.74-9,23.2-9a40.2,40.2,0,0,1,11.74,1.69l.65.22c5.17-6.38,16.35-10.8,29.32-10.8,13.77,0,25.53,5,30.21,12l.81-.1a55.4,55.4,0,0,1,6.34-.36c15.95,0,29,6.69,29.84,15.1,0,.29,0,.59,0,.89,0,14.12-25.08,16.19-43.8,16.57-28.57.59-57.16.56-85.75.56-37.06,0-73.58-2.3-110.51-2.56-7.08-.05-14.16,0-21.24,0-6.32,0-15.28.85-21-.22,5.55-1.08,34.59-3.3,42.46-4.33C958.42,149.6,971.5,148,977.34,145.13Z" fill="#c46c65"/><path d="M1990.15,172.13l-.21-.1c-2.8-1.38-3.53-3.27-7.36-4.46a49.65,49.65,0,0,0-14.22-1.84,58,58,0,0,0-9.44.75l-.77.14c-2.37-2.26-6.72-3.77-11.71-3.77a22.78,22.78,0,0,0-5.87.75c-3.15-4.25-10.58-7.24-19.25-7.24a31.38,31.38,0,0,0-13.83,3,11.18,11.18,0,0,0-.9-1.44c-3.87-5.27-13.07-9-23.79-9a42.21,42.21,0,0,0-12,1.69l-.67.22c-5.3-6.38-16.77-10.8-30.07-10.8-14.12,0-26.18,5-31,12l-.83-.1a58.26,58.26,0,0,0-6.5-.36c-16.35,0-29.71,6.69-30.6,15.1a8.79,8.79,0,0,0,0,.89c0,14.12,25.73,16.19,44.92,16.57,29.3.59,58.63.56,87.94.56,38,0,75.46-2.3,113.34-2.56,7.26-.05,14.53,0,21.79,0,6.48,0,15.68.85,21.52-.22-5.69-1.08-35.48-3.3-43.54-4.33C2009.56,176.6,1996.14,175,1990.15,172.13Z" fill="#bf6b66"/><path d="M572.5,115.13l.2-.1c2.72-1.38,3.43-3.27,7.16-4.46a47.05,47.05,0,0,1,13.83-1.84,54.88,54.88,0,0,1,9.18.75l.75.14c2.31-2.26,6.54-3.77,11.39-3.77a21.59,21.59,0,0,1,5.71.75c3.06-4.25,10.29-7.24,18.72-7.24a29.82,29.82,0,0,1,13.45,3,11.23,11.23,0,0,1,.88-1.44c3.76-5.27,12.71-9,23.14-9a40,40,0,0,1,11.71,1.69l.65.22c5.16-6.38,16.31-10.8,29.25-10.8,13.74,0,25.47,5,30.13,12l.81-.1a55.14,55.14,0,0,1,6.32-.36c15.91,0,28.9,6.69,29.76,15.1,0,.29,0,.59,0,.89,0,14.12-25,16.19-43.69,16.57-28.5.59-57,.56-85.54.56-37,0-73.4-2.3-110.24-2.56-7.06-.05-14.13,0-21.19,0-6.3,0-15.25.85-20.93-.22,5.54-1.08,34.51-3.3,42.35-4.33C553.62,119.6,566.67,118,572.5,115.13Z" fill="#534e79"/><path d="M1241.5,376.13l.2-.1c2.72-1.38,3.43-3.27,7.16-4.46a47.05,47.05,0,0,1,13.83-1.84,54.88,54.88,0,0,1,9.18.75l.75.14c2.31-2.26,6.54-3.77,11.39-3.77a21.59,21.59,0,0,1,5.71.75c3.06-4.25,10.29-7.24,18.72-7.24a29.82,29.82,0,0,1,13.45,3,11.23,11.23,0,0,1,.88-1.44c3.76-5.27,12.71-9,23.14-9a40,40,0,0,1,11.71,1.69l.65.22c5.16-6.38,16.31-10.8,29.25-10.8,13.74,0,25.47,5,30.13,12l.81-.1a55.14,55.14,0,0,1,6.32-.36c15.91,0,28.9,6.69,29.76,15.1,0,.29,0,.59,0,.89,0,14.12-25,16.19-43.69,16.57-28.5.59-57,.56-85.54.56-37,0-73.4-2.3-110.24-2.56-7.06-.05-14.13,0-21.19,0-6.3,0-15.25.85-20.93-.22,5.54-1.08,34.51-3.3,42.35-4.33C1222.62,380.6,1235.67,379,1241.5,376.13Z" fill="#ff9b63"/><path d="M435.55,132.13l-.39-.1c-5.35-1.38-6.74-3.27-14.06-4.46a177.33,177.33,0,0,0-27.18-1.84c-6.45,0-12.58.27-18,.75l-1.48.14c-4.54-2.26-12.85-3.77-22.37-3.77a81.47,81.47,0,0,0-11.21.75c-6-4.25-20.22-7.24-36.78-7.24a107.87,107.87,0,0,0-26.42,3,13.47,13.47,0,0,0-1.72-1.44c-7.39-5.27-25-9-45.47-9a150.26,150.26,0,0,0-23,1.69l-1.27.22c-10.13-6.38-32-10.8-57.46-10.8-27,0-50,5-59.2,12l-1.59-.1c-4-.24-8.16-.36-12.42-.36-31.25,0-56.78,6.69-58.47,15.1a4.66,4.66,0,0,0-.09.89c0,14.12,49.16,16.19,85.83,16.57,56,.59,112,.56,168.05.56,72.64,0,144.2-2.3,216.58-2.56,13.87-.05,27.76,0,41.63,0,12.38,0,30,.85,41.12-.22-10.88-1.08-67.8-3.3-83.21-4.33C472.65,136.6,447,135,435.55,132.13Z" fill="#7c5972"/><path d="M378.49,141.71l-.4,0c-5.44.54-7,1.45-14.34,1.83-8.24.42-18,.38-27.25.1-6.44-.2-12.53-.52-17.95-.93l-1.47-.12c-4.69,1-13.09,1.52-22.59,1.23-4-.12-7.78-.38-11.13-.72-6.3,2-20.69,3-37.21,2.54A203.93,203.93,0,0,1,220,143.38a17.09,17.09,0,0,1-1.82.68c-7.75,2.44-25.55,3.78-46,3.16-8.3-.25-16.07-.8-22.84-1.56l-1.25-.15c-10.56,2.92-32.74,4.49-58.1,3.71-26.93-.82-49.58-4.05-58.23-7.89H30.16c-4,0-8.17-.07-12.42-.2-31.18-1-56.19-5.12-57.29-9.43a1.21,1.21,0,0,1,0-.45c1-7.15,50.19-6.7,86.81-5.77,55.92,1.41,111.83,3.14,167.73,4.85,72.48,2.22,143.73,5.57,215.94,7.91,13.84.45,27.7.85,41.54,1.27,12.36.38,30,.48,41,1.37-10.93.21-67.89-.4-83.33-.35C415.82,140.58,390.12,140.62,378.49,141.71Z" fill="#7c5972"/><path d="M1606.83,293.13l.27-.1c3.68-1.38,4.63-3.27,9.66-4.46a84.49,84.49,0,0,1,18.67-1.84,99.44,99.44,0,0,1,12.39.75l1,.14c3.12-2.26,8.83-3.77,15.37-3.77a38.79,38.79,0,0,1,7.7.75c4.14-4.25,13.89-7.24,25.27-7.24a52.25,52.25,0,0,1,18.15,3,11.24,11.24,0,0,1,1.18-1.44c5.08-5.27,17.16-9,31.24-9a71.69,71.69,0,0,1,15.81,1.69l.87.22c7-6.38,22-10.8,39.48-10.8,18.54,0,34.37,5,40.67,12l1.09-.1c2.75-.24,5.6-.36,8.53-.36,21.47,0,39,6.69,40.17,15.1a6.72,6.72,0,0,1,.06.89c0,14.12-33.77,16.19-59,16.57-38.47.59-77,.56-115.45.56-49.9,0-99.06-2.3-148.79-2.56-9.53-.05-19.07,0-28.6,0-8.51,0-20.58.85-28.25-.22,7.48-1.08,46.58-3.3,57.16-4.33C1581.35,297.6,1599,296,1606.83,293.13Z" fill="#ffa165"/><path d="M1646,302.71l.28,0c3.74.54,4.78,1.45,9.85,1.83a165,165,0,0,0,18.72.1c4.42-.2,8.61-.52,12.33-.93l1-.12c3.22,1,9,1.52,15.52,1.23a74.68,74.68,0,0,0,7.65-.72c4.33,2,14.21,3,25.56,2.54a97.66,97.66,0,0,0,18-2.31,9.78,9.78,0,0,0,1.25.68c5.32,2.44,17.55,3.78,31.6,3.16a137.52,137.52,0,0,0,15.69-1.56l.86-.15c7.25,2.92,22.49,4.49,39.91,3.71,18.5-.82,34.06-4.05,40-7.89h1.09c2.75,0,5.61-.07,8.53-.2,21.42-1,38.61-5.12,39.36-9.43a1.75,1.75,0,0,0,0-.45c-.68-7.15-34.48-6.7-59.64-5.77-38.41,1.41-76.83,3.14-115.23,4.85-49.8,2.22-98.74,5.57-148.35,7.91-9.51.45-19,.85-28.54,1.27-8.49.38-20.58.48-28.18,1.37,7.51.21,46.64-.4,57.25-.35C1620.39,301.58,1638,301.62,1646,302.71Z" fill="#ffa165"/><path d="M1597.69,234.13l-.31-.1c-4.16-1.38-5.25-3.27-10.94-4.46a107.92,107.92,0,0,0-21.14-1.84,127.34,127.34,0,0,0-14,.75l-1.15.14c-3.53-2.26-10-3.77-17.4-3.77a49.56,49.56,0,0,0-8.72.75c-4.68-4.25-15.73-7.24-28.62-7.24a66.29,66.29,0,0,0-20.56,3,11.66,11.66,0,0,0-1.34-1.44c-5.75-5.27-19.43-9-35.37-9a91.52,91.52,0,0,0-17.9,1.69l-1,.22c-7.88-6.38-24.93-10.8-44.7-10.8-21,0-38.93,5-46.06,12l-1.23-.1c-3.11-.24-6.35-.36-9.66-.36-24.31,0-44.18,6.69-45.49,15.1a6,6,0,0,0-.07.89c0,14.12,38.24,16.19,66.78,16.57,43.56.59,87.16.56,130.74.56,56.51,0,112.18-2.3,168.49-2.56,10.79-.05,21.59,0,32.39,0,9.63,0,23.3.85,32-.22-8.47-1.08-52.75-3.3-64.73-4.33C1626.55,238.6,1606.6,237,1597.69,234.13Z" fill="#d97261"/><path d="M890,361.55c-13.1-1-36.63-2.58-47.14-5.42l-.36-.1c-4.91-1.38-6.19-3.27-12.9-4.46a149.51,149.51,0,0,0-24.93-1.84c-5.92,0-11.54.27-16.55.75l-1.36.14c-4.16-2.26-11.79-3.77-20.53-3.77a68.68,68.68,0,0,0-10.28.75c-5.52-4.25-18.55-7.24-33.75-7.24a91.21,91.21,0,0,0-24.24,3,12.68,12.68,0,0,0-1.58-1.44c-6.78-5.27-22.91-9-41.72-9a126.73,126.73,0,0,0-21.11,1.69l-1.17.22c-1.06-.72-46.81,13.2-69.25,13.2-4.94,0-9.76-.23-14.46-.66-15.79,7.45-38.12,12-59.44,12a156.86,156.86,0,0,1-27.84-2.46c10.06,9.33,47.29,10.9,76.13,11.23,51.37.59,102.79.56,154.19.56,66.65,0,132.3-2.3,198.71-2.56,12.73-.05,25.47,0,38.2,0,11.36,0,27.48.85,37.73-.22C956.33,364.81,904.11,362.58,890,361.55Z" fill="#ffbe6d"/><path d="M455.81,356.13l.36-.1c4.91-1.38,6.19-3.27,12.9-4.46A149.52,149.52,0,0,1,494,349.73c5.92,0,11.54.27,16.55.75l1.36.14c4.16-2.26,11.79-3.77,20.53-3.77a68.68,68.68,0,0,1,10.28.75c5.52-4.25,18.55-7.24,33.75-7.24a91.21,91.21,0,0,1,24.24,3,12.68,12.68,0,0,1,1.58-1.44c6.78-5.27,22.91-9,41.72-9a126.72,126.72,0,0,1,21.11,1.69l1.17.22c9.3-6.38,29.4-10.8,52.72-10.8,24.76,0,45.91,5,54.31,12l1.46-.1c3.67-.24,7.49-.36,11.4-.36,28.67,0,52.1,6.69,53.65,15.1a5.07,5.07,0,0,1,.08.89c0,14.12-45.1,16.19-78.75,16.57-51.37.59-102.79.56-154.19.56-66.65,0-132.3-2.3-198.71-2.56-12.73-.05-25.47,0-38.2,0-11.36,0-27.48.85-37.73-.22,10-1.08,62.2-3.3,76.34-4.33C421.78,360.6,445.3,359,455.81,356.13Z" fill="#ffbe6d"/><path d="M140.23,231.13l.24-.1c3.27-1.38,4.12-3.27,8.59-4.46a67.14,67.14,0,0,1,16.61-1.84,78.8,78.8,0,0,1,11,.75l.9.14c2.77-2.26,7.85-3.77,13.67-3.77a30.82,30.82,0,0,1,6.85.75c3.68-4.25,12.36-7.24,22.47-7.24a41.86,41.86,0,0,1,16.14,3,11.08,11.08,0,0,1,1.05-1.44c4.52-5.27,15.26-9,27.78-9a57,57,0,0,1,14.06,1.69l.78.22c6.19-6.38,19.58-10.8,35.11-10.8,16.49,0,30.57,5,36.17,12l1-.1c2.45-.24,5-.36,7.59-.36,19.09,0,34.69,6.69,35.73,15.1a7.55,7.55,0,0,1,.05.89c0,14.12-30,16.19-52.44,16.57-34.21.59-68.45.56-102.68.56-44.38,0-88.1-2.3-132.33-2.56-8.48-.05-17,0-25.44,0-7.56,0-18.3.85-25.13-.22,6.65-1.08,41.42-3.3,50.84-4.33C117.56,235.6,133.23,234,140.23,231.13Z" fill="#dd7360"/><path d="M607.75,242.13l-.27-.1c-3.68-1.38-4.63-3.27-9.66-4.46a84.49,84.49,0,0,0-18.67-1.84,99.44,99.44,0,0,0-12.39.75l-1,.14c-3.12-2.26-8.83-3.77-15.37-3.77a38.79,38.79,0,0,0-7.7.75c-4.14-4.25-13.89-7.24-25.27-7.24a52.25,52.25,0,0,0-18.15,3,11.24,11.24,0,0,0-1.18-1.44c-5.08-5.27-17.16-9-31.24-9A71.69,71.69,0,0,0,451,220.58l-.87.22c-7-6.38-22-10.8-39.48-10.8-18.54,0-34.37,5-40.67,12l-1.09-.1c-2.75-.24-5.6-.36-8.53-.36-21.47,0-39,6.69-40.17,15.1a6.72,6.72,0,0,0-.06.89c0,14.12,33.77,16.19,59,16.57,38.47.59,77,.56,115.45.56,49.9,0,99.06-2.3,148.79-2.56,9.53-.05,19.07,0,28.6,0,8.51,0,20.58.85,28.25-.22-7.48-1.08-46.58-3.3-57.16-4.33C633.23,246.6,615.62,245,607.75,242.13Z" fill="#ff855d"/><path d="M568.55,251.71l-.28,0c-3.74.54-4.78,1.45-9.85,1.83a165,165,0,0,1-18.72.1c-4.42-.2-8.61-.52-12.33-.93l-1-.12c-3.22,1-9,1.52-15.52,1.23a74.68,74.68,0,0,1-7.65-.72c-4.33,2-14.21,3-25.56,2.54a97.66,97.66,0,0,1-18-2.31,9.78,9.78,0,0,1-1.25.68c-5.32,2.44-17.55,3.78-31.6,3.16a137.52,137.52,0,0,1-15.69-1.56l-.86-.15c-7.25,2.92-22.49,4.49-39.91,3.71-18.5-.82-34.06-4.05-40-7.89h-1.09c-2.75,0-5.61-.07-8.53-.2-21.42-1-38.61-5.12-39.36-9.43a1.75,1.75,0,0,1,0-.45c.68-7.15,34.48-6.7,59.64-5.77,38.41,1.41,76.83,3.14,115.23,4.85,49.8,2.22,98.74,5.57,148.35,7.91,9.51.45,19,.85,28.54,1.27,8.49.38,20.58.48,28.18,1.37-7.51.21-46.64-.4-57.25-.35C594.19,250.58,576.54,250.62,568.55,251.71Z" fill="#ff855d"/><path d="M838.88,269.13l.38-.1c5.12-1.38,6.45-3.27,13.44-4.46a162.19,162.19,0,0,1,26-1.84c6.17,0,12,.27,17.24.75l1.41.14c4.34-2.26,12.28-3.77,21.39-3.77a74.51,74.51,0,0,1,10.72.75c5.75-4.25,19.33-7.24,35.16-7.24a98.8,98.8,0,0,1,25.26,3,13,13,0,0,1,1.65-1.44c7.07-5.27,23.87-9,43.47-9a137.45,137.45,0,0,1,22,1.69l1.22.22c9.69-6.38,30.64-10.8,54.93-10.8,25.8,0,47.83,5,56.59,12l1.52-.1c3.83-.24,7.8-.36,11.87-.36,29.87,0,54.28,6.69,55.9,15.1a4.87,4.87,0,0,1,.09.89c0,14.12-47,16.19-82.05,16.57-53.53.59-107.1.56-160.65.56-69.44,0-137.85-2.3-207-2.56-13.26-.05-26.53,0-39.8,0-11.84,0-28.64.85-39.31-.22,10.4-1.08,64.81-3.3,79.54-4.33C803.41,273.6,827.92,272,838.88,269.13Z" fill="#f77a5b"/></svg>