<svg id="Layer_5" data-name="Layer 5" xmlns="http://www.w3.org/2000/svg" xmlns:xlink="http://www.w3.org/1999/xlink" width="394" height="359" viewBox="0 0 394 359"><defs><linearGradient id="linear-gradient" x1="203.58" y1="231.41" x2="328.67" y2="356.52" gradientTransform="matrix(1, 0, 0, -1, 0, 402)" gradientUnits="userSpaceOnUse"><stop offset="0" stop-opacity="0"/><stop offset="1" stop-opacity="0.25"/></linearGradient><linearGradient id="linear-gradient-2" x1="81.87" y1="125.71" x2="249.34" y2="293.18" xlink:href="#linear-gradient"/></defs><title>headphones</title><g id="Layer_3" data-name="Layer 3"><path d="M388.68,153.14c0,4.08-.82,6.87-2.51,7.9a1.46,1.46,0,0,1,0,.36l-3.35,3.35-92.54,92.54-66.92-66.92L151.95,119l-2.52-2.52L132.25,99.26c.15-1,.31-2,.49-2.92a3.08,3.08,0,0,1,.1-.51,113.6,113.6,0,0,1,24-51.33c1.35-1.64,2.76-3.24,4.21-4.82L167,33.74c1.25-1.17,2.51-2.3,3.82-3.42l1.08-.9c.46-.39.94-.78,1.41-1.16.72-.59,1.47-1.17,2.21-1.74A114,114,0,0,1,301.12,18L328,44.88l4.77,4.77.14.15-.25.19,6.71,8.78h.08a3.49,3.49,0,0,1,2.71.27h0l1.52,1.42.35.34,3.29,3.3,2.11,2.1,12.25,12.31h0l4.92,4.91.35.35h0A187.59,187.59,0,0,1,378,106c5.59,13.21,9.28,25.6,10.67,34.76C389.54,146.19,389.56,150.47,388.68,153.14Z" fill="url(#linear-gradient)"/></g><g id="Layer_4" data-name="Layer 4"><path d="M270.48,236.76a7.9,7.9,0,0,1-.85,1.53l-6.75,9.66a8.27,8.27,0,0,1-1.47,1.6,3.75,3.75,0,0,1,0,4.1l-1.11,1.58L251,264.55,160.58,355,3.17,197.59,170.64,30.12l.2.2,13.41,13.41,6.91,6.91a107.91,107.91,0,0,0-34.6,48.42,92.9,92.9,0,0,0-5.15,26.47,78.73,78.73,0,0,0,12.07,46.4,2.52,2.52,0,0,1,1.37.91l1.13,1.48a2.55,2.55,0,0,1,.49,1.93c.09.14.19.26.28.39l-.57.43h0a2.72,2.72,0,0,1-.65.75L164,179l5.19,6.78,2-2.91a3.39,3.39,0,0,1,4.68-.73,8.36,8.36,0,0,1,.93-1.72l6.75-9.66c2.88-4.1,8.7-4.7,13-1.31L267,224.75a10.91,10.91,0,0,1,4.09,7.12A9.4,9.4,0,0,1,270.48,236.76Z" fill="url(#linear-gradient-2)"/></g><g id="Layer_2" data-name="Layer 2"><path d="M314.79,71l-1.55.55c-4.72,1.7-6.81,7.17-4.67,12.21l35,82.48c2.14,5,7.69,7.74,12.41,6l1-.34C344.59,161.65,312.11,84.91,314.79,71Z" fill="#212121"/><path d="M371.71,156l-35-82.48c-2.14-5-7.69-7.74-12.41-6L314.79,71c-2.7,14,29.78,90.69,42.12,100.93L367,168.23C371.8,166.54,373.82,161.06,371.71,156Z" fill="#242424"/><path d="M383.22,164.6l-.41.15-9.87,3.56a3.73,3.73,0,0,1-4-1.08,4.19,4.19,0,0,1-.82-1.26L326.37,67.46a2.44,2.44,0,0,1-.13-.38,3.38,3.38,0,0,1,1.93-4.33l3.33-1.2,7.79-2.82h.08v.07a7.37,7.37,0,0,0-.51,1.1c-6.93,17.63,20,93.33,44.19,104.61Z" fill="#1a1a1a"/><path d="M386.17,161a1.46,1.46,0,0,1,0,.36,3.33,3.33,0,0,1-.36,1.37h0a3.13,3.13,0,0,1-1.73,1.51l-.83.3-.17-.09c-24.14-11.3-51.12-87-44.19-104.61a7.37,7.37,0,0,1,.51-1.1v-.07a3.49,3.49,0,0,1,2.71.27h0a4.13,4.13,0,0,1,1.59,1.45c.08.12.15.24.22.36l.12.27,1.78,4.17,1.78,4.1h0l35,82.48,1.76,4.16,1.5,3.51a4,4,0,0,1,.25.81A3.35,3.35,0,0,1,386.17,161Z" fill="#242424"/><path d="M180.29,175.45l-3.46,4.95a8.36,8.36,0,0,0-.93,1.72A10.43,10.43,0,0,0,179.42,194l12.92,10.17h0l44.32,34.79,13.21,10.36c3.67,2.88,8.42,2.89,11.53.29a8.27,8.27,0,0,0,1.47-1.6l4.27-6.12C249.44,236.18,194.94,192.51,180.29,175.45Z" fill="#212121"/><path d="M270.48,236.76a9.4,9.4,0,0,0,.65-4.91,10.91,10.91,0,0,0-4.09-7.12l-70.41-55.32c-4.3-3.39-10.13-2.8-13,1.31l-3.29,4.71c14.64,17.1,69.15,60.73,86.84,66.39l2.47-3.54A7.9,7.9,0,0,0,270.48,236.76Z" fill="#242424"/><path d="M164.65,192.24l-.2.29h0a3.85,3.85,0,0,0,.5,4.68h0a3.25,3.25,0,0,0,.5.48l3.55,2.8h0l3.55,2.79h0l70.5,55.32h0l3.53,2.78h0l3,2.35a3.89,3.89,0,0,0,1.31.68h0a3.28,3.28,0,0,0,3.64-1.22l.46-.65C252.69,244.36,191.68,190.25,164.65,192.24Z" fill="#1a1a1a"/><path d="M261.4,249.55a4.17,4.17,0,0,0-1-1.12l-84.17-66.08a1.8,1.8,0,0,0-.33-.23,3.39,3.39,0,0,0-4.68.73l-2,2.91-4.55,6.48c27-2,88,52.1,90.44,70.41l5.21-7.44,1.11-1.58A3.75,3.75,0,0,0,261.4,249.55Z" fill="#242424"/><polygon points="171.11 188.25 164.8 193.07 164.42 192.58 157.71 183.8 157.58 183.64 156.27 181.93 162.58 177.11 163.89 178.82 164.01 178.98 169.2 185.76 171.11 188.25" fill="#1a1a1a"/><path d="M215.52,220c23.76,18.65,39.8,38.37,35.83,44.06s-26.45-4.84-50.21-23.5-39.8-38.37-35.83-44.06S191.76,201.36,215.52,220Z" fill="#121212"/><path d="M213.58,222.79c21.7,17,36.21,35.2,32.47,40.59s-24.41-4-46.11-21.12-36.21-35.2-32.47-40.59S191.88,205.75,213.58,222.79Z" fill="#696969"/><path d="M169.55,203.62c-.11.1-.72.73-.81.85-3.26,4.66,10.75,21.5,31.3,37.63,20.28,15.92,39.84,24.64,43.46,20.42-7.31-.43-23.66-9.4-40.94-22.94C184.22,225.29,170.9,210.51,169.55,203.62Z" fill="#121212"/><path d="M211.88,225.25c-20-15.7-38.81-24.92-42.8-21.12,1.36,6.84,14.73,21.63,33,36C219.37,253.63,235.72,262.6,243,263c0-.05.1-.1.14-.16C246.39,258.26,232.38,241.41,211.88,225.25Z" fill="#1c1c1c"/><polygon points="339.72 59.22 338.86 59.88 333.41 64.05 331.5 61.56 326.31 54.78 326.19 54.62 324.88 52.91 331.2 48.08 332.5 49.78 332.51 49.78 332.63 49.94 339.34 58.72 339.38 58.78 339.72 59.22" fill="#1a1a1a"/><path d="M388.68,153.14c0,4.08-.82,6.87-2.51,7.9a.44.44,0,0,1-.16.1,2.23,2.23,0,0,1-.38.18c-4.29,1.55-12.18-6.86-20.45-20.71h0a213.13,213.13,0,0,1-12.68-25.36,208.21,208.21,0,0,1-9.31-26.51h0c-4.13-15.38-4.54-26.52-.23-28.07a2.52,2.52,0,0,1,.67-.15h.13c2-.15,4.54,1.38,7.45,4.26h0c.6.6,1.22,1.26,1.84,2h0a90.6,90.6,0,0,1,8.6,11.83h0a205.43,205.43,0,0,1,14.41,28.16c6.33,14.93,10.49,28.89,12,39,.26,1.73.44,3.35.53,4.83h0C388.65,151.46,388.68,152.33,388.68,153.14Z" fill="#121212"/><path d="M388.68,153.14a4.41,4.41,0,0,1-2,2.71l-.36.17a3.49,3.49,0,0,1-2,.07c-6.81-1.51-19-19.11-28.71-42s-13.7-43.45-9.81-48.82a3,3,0,0,1,1.39-1.15h.11a4.68,4.68,0,0,1,3.83.65h0c4.25,2.32,9.94,9.28,15.73,19.11h0a187.59,187.59,0,0,1,11.06,22.2c5.59,13.21,9.28,25.6,10.67,34.76C389.54,146.19,389.56,150.47,388.68,153.14Z" fill="#696969"/><path d="M358.51,113c10.2,24,22.8,42,28.16,40s1.41-23-8.78-47-22.8-42-28.16-40S348.32,89,358.51,113Z" fill="#1c1c1c"/><path d="M159.45,72.73A81,81,0,0,0,150,98.19a64.31,64.31,0,0,0-1,8.76c0,1.15-.07,2.27,0,3.4a4.68,4.68,0,0,0,0,.53V112a.5.5,0,0,0,0,.21v.91a1.24,1.24,0,0,0,0,.2,3.27,3.27,0,0,0,.06.76c.06.25.06.78.1,1.17s.07.61.11.93q.18,1.53.45,3a3.94,3.94,0,0,0,.14.76c.05.25.16.78.25,1.17s.13.6.2.9c.28,1.19.61,2.35,1,3.51a92.9,92.9,0,0,1,5.25-26.47,62.51,62.51,0,0,1,11.8-19.88C163.93,79.19,160.9,76.75,159.45,72.73Z" fill="#242424"/><path d="M187,41.52c-.94.71-1.86,1.45-2.77,2.2a104,104,0,0,0-24.79,29c1.45,4,4.48,6.46,8.9,6.45,7.44-8.78,17-16.6,26.84-24.52.72-.59,1.45-1.17,2.19-1.73,25.15-19.24,51.39-30.11,78-25.09C252.17,14.37,216.38,19.05,187,41.52Z" fill="#242424"/><path d="M134.53,88.34c-.64,2.5-1.22,5-1.7,7.56a3.08,3.08,0,0,1-.1.51c-.18,1-.34,1.94-.49,2.92-.43,2.7-.75,5.42-1,8.16a113.57,113.57,0,0,0,19.62,73.95c.94,1.37,1.9,2.7,2.92,4,.16.23.33.45.5.67l.85-.65,2.42-1.86,1.35-1C138.45,155.44,129.08,121.33,134.53,88.34Z" fill="#242424"/><path d="M335.05,47.61q-1.9-2.49-3.92-4.84A113.85,113.85,0,0,0,175.54,26.52q-2.41,1.84-4.7,3.79c-1.31,1.12-2.57,2.25-3.82,3.42-2.07,1.91-4,3.9-5.94,5.94-1.46,1.58-2.87,3.18-4.21,4.82a113.42,113.42,0,0,0-22.33,43.84c-5.45,33,3.92,67.1,24.41,94.26l5-3.79,2.26-1.73h0l.57-.43c-.09-.13-.19-.25-.28-.39q-1.59-2.11-3-4.32a78.73,78.73,0,0,1-12.07-46.4c-.37-1.16-.7-2.32-1-3.51-.07-.29-.14-.59-.2-.9s-.17-.77-.25-1.17-.09-.5-.14-.76q-.27-1.49-.45-3a7.26,7.26,0,0,0-.11-.93c0-.31-.08-.77-.1-1.17a3.77,3.77,0,0,0-.06-.76,1.24,1.24,0,0,1,0-.2v-.91a.5.5,0,0,1,0-.21v-1.12a4.68,4.68,0,0,1,0-.53V107a64.31,64.31,0,0,1,1-8.76c3.44-19.11,15.38-39.08,34.26-54.47.91-.75,1.83-1.49,2.77-2.2,29.37-22.48,65.16-27.16,88.35-13.68,16.92,3.19,32.35,11.18,44,23.84,1.47,1.57,2.86,3.22,4.18,4.93l2.61-2,6.31-4.84h0l.23-.18L334.93,48h0l.27-.21Z" fill="#1f1f1f"/><path d="M335.05,47.61a2.74,2.74,0,0,1-.16.35h0a2.41,2.41,0,0,1-.65.74l-1.35,1-.25.19-6.32,4.84-2,1.55a2.51,2.51,0,0,1-3.53-.47h0l-1.13-1.47a2.5,2.5,0,0,1-.23-2.71,2.58,2.58,0,0,1,.69-.82l7.88-6L330,43.19a2.68,2.68,0,0,1,1.09-.47,2.5,2.5,0,0,1,2.44.95l1.13,1.54A2.47,2.47,0,0,1,335.05,47.61Z" fill="#121212"/><path d="M166.45,176.24a2.7,2.7,0,0,1-.29.82h0a2.72,2.72,0,0,1-.65.75L164,179l-6.3,4.82L156.05,185a2.52,2.52,0,0,1-3.52-.47l-1.14-1.48a2.49,2.49,0,0,1,.49-3.52l9.43-7.22a2.49,2.49,0,0,1,2.16-.44,2.52,2.52,0,0,1,1.37.91l1.13,1.48A2.55,2.55,0,0,1,166.45,176.24Z" fill="#121212"/></g></svg>