<svg id="front2" xmlns="http://www.w3.org/2000/svg" width="1920" height="1180" viewBox="0 0 1920 1180"><title>header-6</title><path d="M1966.7,909.1c.4-44.9-3.5-88-16.6-131-2.4-7.9-4.3-16.4-7.4-24-3.9-9.6-9.7-9.9-19.2-9.7a470.7,470.7,0,0,0-61.9,5.7c-20.5,3.2-41.5,1.7-61.9,5.9s-42.6,7.7-64.1,11.4c-43.7,7.6-88.2,9.5-132,16.3-3,.5-6.7,1.6-9.7,1.6-5.5,0-3.1,1.4-5.7-2.6s-3-8.4-3.8-12c-2.5-10.6-1-21.9.8-32.6a223,223,0,0,1,5.4-25,38.8,38.8,0,0,1,2.7,4.1c2.4-.4,5.3-12.7,2.3-13.6,3-1.1,9-2.6,12-1.4-1.3-1.2-7-9.5-10-7.8,5.6-3.2,4.8-3.3,11.7-1.6,4,1,12.3,4.3,14.3-2.2.5,5.6,2.7,9,1.4,15,5.2-2.8,8.7-4.7,9.2-11.3,3.1,2.8,8.9,7.5,9.2,11.9,1.5-3.8,3.7-8.6,1-12.5,3.3,2.8,11.1,1.6,14.3-.1s4.7-6.9,8.2-9.2c-.3,3.4-.6,10.8-3.6,13.4,3.6-1.1,8.4-2.1,9.7-6.3-.5,9.8,15,14.7,14.2,1.1,1.4,4.1,10.2,7,13.9,6.5-1.1-.8-3.6-8.8-1.1-9.2s6.1,7.9,6.7,9.8c2.4.2,7.6-10.6,5.2-12,3-.3,8.9-.3,11.5,1.5-.9-1.4-4.3-10.4-7.4-9.5,2.8-.8,8.1-2.1,7.5-6.3s-6.6-3.3-8-4.9-2.6-13.6-4.9-13.4-3.5,6.4-3.7,7.7c-2.1-1.4-2.8-6.3-4.9-8.3l4.8,1.5c1.7-2-4.3-14.2-7.5-12.9,1.7-2.9,5.7-8.4,9.1-9.5-1.9-.1-12.5-3.1-13.7.3,3.9-10.3,0-11.4-8.5-8.5-3.8,1.3-1.7,2.5-5.6,1.3-1.7-.5-4.4-4.7-6.2-4.1,1.9-2.8,6.3-7.9,9.7-8.8-1.9-.2-12.1-4-13.6-.7,2.8-6.1,3.4-13.6-5.8-10.1,2.4-6.9-9.5-4.1-11.7-5.7s-3.4-14.8-7.6-13.4c-2.2.7-2.1,7.9-1.9,9.4-6.1-2.1-5.6-10.1-14.8-9.5,3.1,3.3,5,8.9,3.6,13.3-5.5-3-10.9-9.6-14-2.2a4.3,4.3,0,0,0-3.5-3c1.7-2.5,5.5-7.1,8.5-8-1.7-.2-10.9-3.4-12.2-.4,1.2-2.7,3.6-7.6,0-9.9s-6.8,3-9,3.1-12.2-6.8-13.6-4.9,2.7,6.8,3.6,7.8c-1,.3-7.4-1.7-7.8-1.7-2.9,0-5.9,1.9-7.8,1.2s-7.3-9.5-9.8-7.4,1.1,8,1.8,9.2c-6,.3-9.5-6.8-17-3.2,4.1,1.8,7.8,6.2,8.3,10.7-3.1-.3-9.1-2.4-12-2.1,6.8-11.4-5-6.8-10-7.4-2.1-.2-11.6-10.1-13.5-8.4s1.3,8,2.1,9.2c-6,.5-9.8-6.5-17.2-2.7,4.1,1.7,8,6,8.6,10.6-7.9-.6-5.5.8-8.3-3.9-.9-1.5-.3-11.1-3.4-10.9s-3.9,7-4.1,8.4c-5.3-3.5-2.8-10.9-11.6-12.7,2.2,3.9,2.5,9.6.2,13.5-1.7-1.6-7.5-8.9-9.2-8.9-4,0-6.2,8.9-8.4,11.1-.7-3.2,1.2-12.9-4-13.6-3.5-.5-5.9,6.6-8.2,7.6,1.6-2.7,5.3-7.7,8.4-8.7-1.8-.1-11.5-2.9-12.7.3,1.1-2.9,3.3-8.1-.6-10.3s-6.9,3.5-9.2,3.7-13.1-6.4-14.4-4.3,3.2,7,4.1,7.9c-5.4,1.9-10.5-3.6-16.3,1.8,4.2.5,8.8,3.5,10.4,7.5-3.5.7-6.4,1.7-10,1.4,7,.6-7.7-.5-1.9-1.3-3,.4-4.9,4-8.1,5.7s-7.1.5-11.2,1.7-8,3.9-11.7,5.7c-1.7-3.6.6-8.1,3.3-10.4-7.4.1-9.5,6.5-15.1,8.3,2.1-16-8.3,2.7-9.8,3.7s-6.9-.3-9.3,1.6c-5,3.9-1.1,5.9,4.4,7.9-3.5-1.3-8.7,5.5-10.9,7.1,3.7-1.3,9.8-.4,13.6.4-2.9.8-.2,6.8.6,8.4-1.5.4-3.4,1.8-4.9,1.7.5-.5,4.4-5.5,2.9-6.6s-12.1,5.1-14.5,5.3c-5,.5-16.7-3.2-8.5,6.7-1.9-2.4-11.1,1.4-13.1,1.8,3.1.2,7.8,3.2,10.2,5.2-3.9-.5-8.9,13-11.7,14.6s-8.1-.6-10.5,1.8c-4.3,4.3,1.2,6.7,5.4,8.4-3.7-1.6-10,5.6-12.5,7.3,3.9-1.2,10.8,0,14.8,1-3.7.9.2,7-.4,8.4a55.3,55.3,0,0,1-7.5,5.9c-3.7,1.1-16.7-1.5-7.1,6.1-2.1-1.7-8.6,2.4-10.5,3,2.8-.2,7.1,1.7,9.6,3.1-2.5,0-4,8.1-2,8.8,1.8-1,7.7-4.9,10.1-3.4s-4.5,4.9-5.5,5c1.2.7,3.2.9,4.5,1.2-4.2,5.8-2.9,2.7-10.3,4.6s-6.4,5.8.7,9.3c-3.5-1.7-10.2,4.9-12.7,6.4,3.8-.9,10.4.6,14.1,1.8-3.4.6-1.7,11.5,1.1,11.9,1.4-1.3,8.6-8.2,11.3-6.7s-1.9,7-4.5,7.7c4.5,1.5,15.4,1.6,19.1-1.9-3.3,5.7,2.2,9.6,6.7,9.3s6.9-3.6,10.1-4.5c-4.9,3.9,2,.9,5.4,4.5,1,1,1.6,7.3,3.6,7.5,1.5-1.5,6-6.1,8.7-5.2s-2.6,5.6-3.6,5.8c3.1,1,11.4,1,14.1-1.8-4.4,8.4,10.4,8.5,12.8,1.8-.1,3.3,4.4,4.8,6.7,5.8-1.8-2.2-.1-7.2.6-9.4,1,.9,3.3,4.7,4.7,4.7,1.9-3,10.5-2.5,5.3-.2,5.3.7,9.1-2.8,13.7-3.6-.2,8.7,8.1,5.8,11.8,2,1.1,17,4.8,35.3,1.4,52.1-.5,2.5-.7,7.7-2.7,10-3.6,4.1-15.2,3.5-21.2,4.5l-22.9,4c-16.7,2.7-33.4,3.9-50.3,5.1-7.8.5-17.1,2.5-24.9,1.4-17.9-2.5,3.3,2.7-6.7-3-.7-.4-2.4-4.1-3.6-3.6s-1.3,5.8-1.2,6.8c-1.9,0-4.4-3.9-6.6-4.9,13.5-1.9-5.4-9.2-5.6-9,.7-3.1,2.7-9,5.4-10.9-1.7.5-12,1-12.1,4.3.6-10.9-3.7-9-10-4.8-3.6,2.4.3,2.1-4.6,2.8-1.6.2-5.2-2.9-6.7-1.7.9-3,3.4-8.7,6.1-10.4-1.8.4-11.9.1-12.3,3.4.8-6.1-1.1-12.5-8-7,.2-6.1-9.7-1.1-11.7-1.6s-8.4-11.1-11-9.2.4,7.5,1,8.6c-5.9,0-8.3-6.9-15.9-3.9,3.7,1.9,7,6.2,7,10.4-5.6-.9-12.5-5.1-13.1,2.2a4,4,0,0,0-4-1.6c.7-2.6,2.9-7.8,5.3-9.4-1.6.3-10.7.2-11,3.2.3-2.8,1-7.5-2.8-8.5s-5.3,4.5-7.2,5.3-12.7-2.5-13.5-.2,4.4,5.1,5.4,5.7c-1.5,1-3.9-.5-5.6.5s-8.4,4.3-7.8,4.3c-1.7.1-9.6-7.2-11.6-4.1s3.3,6.6,4.2,7.4c-5.2,2-10.5-3-16,2.3,4.1.3,8.7,3,10.4,6.8-2.9.6-8.8.6-11.3,1.7,3.1-13-7.4-3.7-11.3-3.1-2.2.3-12.6-6.3-14.1-3.6a9.3,9.3,0,0,0,.7,2.5c-1.8.4-4.8,2.8-6.7,2.8.4-.5,3-4.8,1.8-5.6s-8.7,5.6-10.3,6-12-2.7-8.8,4c-3.4-1.8-6.1-2.7-10.2-1.6a15.7,15.7,0,0,1,5.9-4.6c-2.5-.7-6.4-3.1-11.5.6-.3-1.8-.8-4.4-2.5-5.6-4.7-3.3-2.4,1.7-6.4,1.9-6.4.2-5.2-3.8-11-.6-.1-3.4-5.6,1.3-6.7,2.3-.6-3.1,1.9-7,4.2-8.8-6.7.1-8.9,5.8-13.9,7.4,3.7-14-8,2.6-9.2,3.3s-6.5.6-9.1,2-7.2,5.3-10.5,7.7c-2.3-3.2-.9-8.1,1.3-10.9-7.3,1.5-8.2,8.1-13.4,10.9-.8-16.1-7.7,4.2-8.9,5.4s-6.8,1-8.9,3.3c-4.2,4.8,0,6,5.8,6.9-3.2-.5-4.7,4.6-6.9,5.5-4.5,1.8-13.3,0-18.2,0-12.9-.1-25.7.5-38.6,1.3-4.5.3-12.9,2.1-16,.1s-.7-5.5-6.3-3.9c-3.2.9-4.1,4.7-7.3,5.3s-6.5-2.7-7.8-1.9c1.1-3,3.9-8.5,6.7-10-1.8.3-11.9-.6-12.5,2.7,1.2-6.1-.4-12.6-7.6-7.5.6-6.7-9.7-1.4-12-2.2s-6.5-12.2-10-10c-1.8,1.2,0,7.5.5,8.7-5.9-.4-7.9-7.4-15.6-4.8,3.6,2.1,6.6,6.6,6.4,10.8-5.5-1.3-12.2-5.8-13.2,1.4a4,4,0,0,0-3.9-1.8c.9-2.5,3.4-7.6,5.9-9-1.6.2-10.7-.4-11.1,2.6.5-2.7,1.5-7.5-2.3-8.7s-5.6,4.1-7.5,4.9-12.6-3.2-13.4-1,4.1,5.4,5,6c-1.5.9-3.9-.7-5.6.1s-8.7,3.8-8,3.8c-1.7,0-9.2-7.7-11.3-4.8s2.9,6.8,3.8,7.7c-5.4,1.7-10.3-3.6-16.1,1.3,4,.6,8.5,3.5,10,7.4-3,.5-8.8.1-11.4,1,3.9-12.8-7.2-4.1-11.1-3.7-2.3.2-12.2-7-13.9-4.5s3.1,6.7,4,7.6c-5.4,1.9-10.4-3.4-16.2,1.8a14.7,14.7,0,0,1,7.7,3.7c-6.1.1-3.7-.1-7.8-2.7-.8-.5-2.2-4.5-3.6-4s-1.8,5.8-1.8,6.9c-4.1.1-7.2-7.4-13.4-6.9a13.7,13.7,0,0,1,3.5,7.3c-2.6.1-6.9-.4-8.8-.3l-3.2.8-12.5.6c4.3-6.9-6.7.3-9.4.4.8-2.7.5-7.6-3-8.5s-5.5,4.7-7.5,5.5-13.3-2.5-14-.4,3.1,4.2,3.2,4.3c-16.1.5-32-1-48.1-1.5,9-8.3-6.4-8-9.1-10.9s-2.2-16.7-6.1-16.2-3.8,8.1-3.9,9.8c-1.8-1-2.9-5.7-4.4-7.4a15.4,15.4,0,0,0-9.8-5.9c2.7,4.1,3.6,10.7,1.3,15.2-7.1-5.7-9.5-8.1-17.5-10.7-4.4-1.4-2,.2-5.4-3.2-1.3-1.2-3.7-10.2-6.5-9.1s-1.5,7.7-1.2,9.1c-5.7-1.6-6.7-9.3-14.8-8.2a14.3,14.3,0,0,1,4.4,11.8c-.7-.6-5.6-5.3-6.9-4.2a6.4,6.4,0,0,0-.2,2.1,6.8,6.8,0,0,1-2.5-2.3q-2.7-1.4-3.4,2.2l-1.1,3.1q-4.4,1.5-6-2.1c-4-1-1-2.9-5-.9-2.3,1.2-3,7.2-3.3,9.3-1.2-1-1.7-6.1-1.9-7.4-.7,1.3-.5-1.9-1.8-1.8s-3.7,6.9-5.8,7.8c-1.9-5.9-5.2-11.7-11.9-13.1,2.3,4.3,2.5,11-.2,15.2-6.4-6.3-8.6-9.1-16.3-12.4-4.2-1.8-2,0-5-3.7-1.1-1.3-2.7-10.6-5.5-9.7s-2.3,7.6-2.2,8.9c-5.5-2.2-5.7-9.9-13.8-9.7A14.3,14.3,0,0,1,441,813c-.6-.7-5-5.9-6.4-4.9a6.3,6.3,0,0,0-.5,2.1,6.5,6.5,0,0,1-2.3-2.5q-2.6-1.7-3.6,1.8l-1.4,3q-4.6,1.1-5.8-2.7c-3.8-1.4-.7-3-4.8-1.4-2.4,1-3.8,6.9-4.2,8.9-5.1-5.1-9.9-1.2-12.3-.2a14.7,14.7,0,0,1,5.7,6.1c-3.4-1.1-6-.4-8.7,1a1.6,1.6,0,0,1-1.8,1.1q.5,4.4-3.3,3.7c1.7-2.1,5.2-5.7,2.6-8.6s-6.7.7-8.7.3-8.8-9.2-10.6-7.8.5,6.7,1.1,7.7c-5.1,0-7.3-6.2-14-3.4,3.3,1.7,6.2,5.5,6.4,9.3-3.7-.6-9-2.5-10.9-.5s.3,7.5-.3,10.2c-1.8-1.7-4.6-8.6-8.2-7.6s-2.7,7.2-2.3,9.7c-3.3-1.5-7.8,2-8.3,2a21.3,21.3,0,0,0-6.3,4c-.4-2.5-4.6-9.1-8-8,1.8,3,1.5,8.1-.2,11.1-11.5-18.9-15.5,7.6-4.9,8.3-5.8,1.9-9,5.1-15.5,5.1,3.4,3.9,4.4,6.3,10.4,7.1-25.9,1.1-51.9,1.5-77.8,3.4-23,1.6-45.1,6.6-67.8,10.3,5-11-4.8-9.2-10.5-3.8-.9-3.3.2-8.3,2.8-10.7-2.9-1.9-8.8,3.2-9.8,5.6a21.4,21.4,0,0,0-5-5.5c-.9-.1-3.7-4.7-7.5-4.1,1.1-2.5,3.3-8.4.4-10s-8.1,4.1-10,5.1c.2-2.9,4.1-6.9,2.5-9.9s-6.7-2-10.6-2.4c1.2-3.6,5-6.5,8.6-7.2-5.4-4.3-9.8.8-14.4-.5.8-.9,4.2-5.6,3.1-7.2s-10.6,4.9-12.3,4.7-5.8-4.3-8.3-2.6-1,6.6.2,9q-3.8-.3-2.2-4.4a1.6,1.6,0,0,1-1.4-1.5c-2.3-2.1-4.6-3.4-8.2-3.3a14.6,14.6,0,0,1,7.1-4.3c-2.1-1.6-5.7-6.7-12-3.1.1-2.1.4-8.2-1.7-9.7s-1.7-.3-5,0a2.7,2.7,0,0,1-3.9,1.3q-3.8.8-2.9-3.5t-2.9-2.7a6.9,6.9,0,0,1-2.9,1.8,6.4,6.4,0,0,0,.1-2.1c-1.1-1.3-6.8,2.5-7.5,3a14.3,14.3,0,0,1,6.3-10.9c-7.8-2.3-10.3,5.1-15.9,5.7.5-1.3,2.2-7.9.3-9.2-3.6-2.2-7.6,9.8-9.5,10.3s-3.5-11.7-4-14.6c-1.3-8.4-9-41.7,7-36.8-5.6-4.9,3-5,2.8-3.9s-1.5,6.4-3.9,7.4c3.9,1.1,13.9,0,16.3-3.6-4,12.7,13.6,11,15.3,1.5.4,4.4,5.5,6.1,8.9,7.7a7.1,7.1,0,0,1,.7-9.9c-7.8,12.4,11,14.4,15.4,5.1-.8,4.7,3.9,7.6,6.9,10-1.9-3.9,1.5-10.5,3-14.1,3.9,5.5,8.3,5.3,14.3,5.4-4.2-4.5-3.6-8.2-5.9-13.2,7.3,6.7,24.9-11.3,3.2-8a11.9,11.9,0,0,1,8.3-6.5c-1.4-2.9-9-1.8-11.2-.6a8.4,8.4,0,0,0-.4-5c4.5,2,6.7.9,11-.1-4.7-3-5.3-6.5-8.5-10.3,5.8,3.1,17.8-8.7,7-9,0,.2,10-5.1,11.5-5.2-3-2.6-3.3-4.2-4.8-7.9,7.3-1,13.3-9.2,1.2-6.2a8.3,8.3,0,0,1,5.1-4.9c-1.2-2-6.2-.7-7.6.3-1.2-11.4-5.2-1.7-9.9-3.3s-1.6-9.7-.5-12.1c2.8,4.1,5.8,3.9,10.1,4-2.9-3.3-2.4-5.9-4-9.5,5.2,5,17.9-7.7,2.4-5.7a9.1,9.1,0,0,1,6-4.5c-1-2.2-6.4-1.4-8-.6.4-8.3-5.6-9.1-8.9-1.7-1.4-1.5-3.9-8.7-4.3-10.4,5.8,2.2,8.8.3,13.3-2.3-5.2-1.3-7.2-4.3-11.4-6.8,8.7,1.6,11.9-18.4-2-7a9.2,9.2,0,0,1,2.5-8.1c-2.5-1.5-7.4,2.2-8.5,4.3-2.2-3-6.3-7.8-10.5-7.3,5.3-10.1-2.7-6.2-8.1-3.6.9-9.1,4.3-8.3-6.8-9.3,1.1-2.8,4.7-5,7.5-5.5-4.6-3.2-8.3.7-12.3-.3.6-.5,3.7-4.3,2.8-5.4s-9.6,3.4-10.8,3.4c-4.3.1-11.3-3.8-6.7,5.1-1.7-3.4-4.3-7.2-9.9-6.9a13.2,13.2,0,0,1,6.2-3.3c-2-1.3-4.9-5-10.2-2.3.1-1.8.4-5-.9-6.5-4.1-4.7-1.9,1.4-6,.3l-4-.3a9.3,9.3,0,0,0-1.4-4.5c-1.2-.7-2.9,1.1-4,1.4.7-3.9-5.3.1-6.4.7.2-3.2,2.9-6.7,5.6-8.3-6.3-1.7-8.9,3.9-13.7,4.3.4-.9,2-6.1.4-6.9s-8.7,7.3-10.3,7.8-5-.4-7.2.2-7.5,3.9-10.8,5.5c-1.3-3.8.7-8.6,3.5-11.2-7.3-.3-8.7,6.5-14,8.2.2-1.2.3-7.3-1.7-7.8s-7.6,10.3-9.1,11.2-8.2.1-9.1,2.8,3.4,6.1,6.1,7.4c-3-1.5-8.5,5.8-10.2,7.1,3.2-1.1,9.1.2,12.2,1.2-4.8,1.3,4.5,12.4-4.4,10.7.7-.7,4.3-5.7,3-7s-11.1,5.2-13,5.3c-5.6.3-14.9-4.3-8.4,6.6-1.5-2.6-10.1,1-11.9,1.3,2.8.4,7,4.1,8.9,6.2-3.6-.8-8.3,13.9-10.8,15.3s-7.4-1-10,1.4c-4.3,3.9.5,7.2,4.4,9.4-3.2-1.8-9.7,5.8-11.6,7.2,3.6-1.1,9.8.7,13.2,1.9-3.4.8-.4,6-1.1,7.7s-3.8,6.1-6.1,6.8c-4,1.3-15.8-2.2-7.5,6.8-1.7-1.9-8.1,2.2-9.6,2.7,2.5,0,6.5,2.3,8.5,3.8-2.4-.1-3.9,8.6-2.2,9.5,1.4-.9,7.2-4.8,9.3-3.2s-4.1,5.1-5.2,5.1l4,1.5c-4.1,6.1-1.5,2.9-8.5,4.3s-7.7,5.6-.9,10.3c-2.9-2-9.8,5-11.7,6.2,3.5-.8,9.4,1.3,12.5,2.7-3,.5-2.3,12.3.3,13,1.2-1.2,8.7-8.8,11.2-6.7s-3.3,7.7-5.1,8.1c3.8,1.9,14.2,2.2,17.3-1.1-2.8,5.2.4,10.7,5.5,10.4,3.2-.2,6.4-3.5,9.3-4.4-4.4,3.8,1.5,1.2,4.6,5.1.9,1.1.9,7.9,2.8,8.4,1.1-1.2,5.7-6.3,8.1-5.2s-2.5,5.9-3.5,6.1c2.7,1.2,10.3,1.5,12.8-1.2-4.4,8.9,8.9,9.9,11.4,2.7-.2,3.4,3.4,5.2,5.7,6.7-1.6-2.6.3-7.7,1.1-10.2.8.9,2.7,5.3,4,5.4,1.9-3.2,9.7-2.3,4.8.1,5,1.1,8.4-2.6,12.5-3.2-.6,8.6,6.3,7.5,10.5,2.9l.2,39.3c0,8.2,1.1,13.5-6.2,17.5-1.5-4.8.5-11.1,3.9-14.7a15.4,15.4,0,0,0-10.7,4.1c-1.7,1.5-3.6,5.9-5.6,6.6.2-1.6.3-9.5-2.2-10.3s-5.5,8.4-6.5,10c-2.2,3.8-.7,3.1-4,4.8s-9.1.2-10.6,3.6,4.1,8.2,7.1,9.7c-3.8-1.5-10,7.9-11.6,9.4,3.4-1.4,10.9.4,14.3,1.6-5.3,1.6,5.3,16.4-4.9,14.2.9-1.2,4.9-7.4,3.4-9.2s-8.4,4-10,4.7c-3.6,1.6-2,2.1-5.5,1.8s-7.3-4.3-10.2-2.3-.6,8.6.9,11.3c-1.8-3.3-12.3,1.3-13.9,1.6,3.6.6,8.3,5.6,10.5,8.3-4.2-1.1-9.7,18.6-12.3,20.1s-9.7-1.3-12.6,2.4,2.2,9.5,6.1,11.7c-4.1-1.8-11,7.7-13.2,9.6,3.8-1.3,11.9,1.1,15.5,2.7-3,.7-1.1,6.5-1.4,8.4s1,2.7.6,3.7-4.1,2.3-4.9,4.1-.5,8.6-.6,11.3L-68,976l60.8,1.6,163.4,4.2,239.3,6.1,289.7,7.4,311,8,306.6,7.9,275.4,7.1,217.5,5.6,133.3,3.4c6.1.2,20.4,3.3,26.1.7,3-1.4,1.9-.1,2.5-5.8,2.2-22,3.6-44.1,5.4-66.1ZM1693.5,655.6a7.2,7.2,0,0,1,4.1-1.1,14.8,14.8,0,0,1,.3,5.1A5.3,5.3,0,0,1,1693.5,655.6Zm-37.2,26.9c.5,1.2-2-.5-1.5-.2ZM1615.1,602q2-.3.5,1.9Q1614.1,602,1615.1,602Zm-4.4,82.3c5.2-1.4-.7,4.9-.2,4.3A3.8,3.8,0,0,1,1610.7,684.3ZM1322.1,703c-1.5.9.5-1.2.8-1.4Zm12.1,3.5C1332.4,707,1334.3,705.1,1334.2,706.5Zm.6-29.1a5.5,5.5,0,0,1-1.2,2.6C1331.9,673.3,1333.8,679.3,1334.8,677.4Zm0-3.4c-4.8-.5-8.1,3.2-12.2,3.4C1324.5,674.5,1342.8,663.7,1334.8,673.9Zm5.3-35.2a10,10,0,0,1-3.1,3C1338.2,635.9,1337.8,640.8,1340,638.7Zm9.2,100.6q-3.2.8,0-1.7C1349.2,738.2,1349.6,739,1349.2,739.3Zm26.1-118.1c-4,6.4-6.2-1.9.8-4.1C1370.7,624.6,1379,615.4,1375.3,621.2Zm1-4.5a15.1,15.1,0,0,0-5.3-1C1372.3,611.9,1381.3,609.3,1376.4,616.7Zm29.9,131.6C1406.3,748.2,1407.3,749.3,1406.2,748.3Zm12.2-166.3C1419.5,579.8,1419,581.9,1418.5,581.9ZM117,708.1c3.8,2.2,2.3,2.2-1.6,3.7Zm-3-54.2C113.5,654.5,113.5,653.8,114,653.9ZM93.9,628.1C92.2,627.1,94,626.8,93.9,628.1Zm-.3-7.9C93.4,621.1,92.6,620.9,93.6,620.2ZM34.6,586C34.3,586.5,34.1,586.5,34.6,586ZM-78.8,700.8c-1.4.8.5-1.3.8-1.5Zm10.6,4.4C-69.8,705.7-67.9,703.7-68.1,705.2Zm2.1-31.6a6.6,6.6,0,0,1-1.2,2.8C-68.3,669.3-66.8,675.3-66,673.6Zm.2-3.7c-4.6-.9-7.5,3.1-11.1,3,.7-1.2,8.9-10.6,12.8-9C-62.2,664.7-65.6,669.6-65.8,669.9Zm6.6-38a10,10,0,0,1-2.9,3.1C-60.7,628.3-61.5,634.1-59.2,631.8Zm2.8,110q-3,.6.1-1.8C-56.3,740.4-56,741.5-56.4,741.8Zm29.8-127c-4.1,6.9-5.4-2.5.9-4.4C-30.6,617.7-23.2,609-26.6,614.8Zm1.2-4.9a11.6,11.6,0,0,0-4.7-1.4c.5-1.6,3.8-4.7,5.8-4A4.6,4.6,0,0,1-25.4,609.9ZM-5.7,754.7C-5.6,754.6-4.8,755.8-5.7,754.7ZM341.5,854C341.8,852.2,343.7,853.2,341.5,854Zm3.2-9.1C344.9,843.8,345.1,844.4,344.7,844.9Zm414-4.4C757.5,841.3,758.7,840.1,758.7,840.5Zm66.1-2.7-.9-1.6.9-.2Zm288.7-26.9q1.3-2.9,2.9.4Zm22.8,2.1C1137.1,810.7,1136.4,812.9,1136.3,813Zm66.3-7.3-1-1.5.9-.2Zm85.4,23.1c-1.9-.8,1.6-7.6,3.6,0Zm290.7-247.6-.6-.2Zm-19.5,63.4C1560.2,645.8,1557.5,645.6,1559.2,644.6Zm-5.9,9.3Zm-2.7-.1-4.1.4Q1547.6,651.4,1550.6,653.8Zm-3.8-65.9C1546.7,588.4,1545.1,589.3,1546.8,587.8Zm32.1,130.7c-2.2,7.1-3.8,14.8-5.4,22s-3.3,17.1-2.9,25.8,3.2,14.6,4.2,22.2c-40.6,7-80.7,14.8-121,23.1,1.4-9.2-1.2-17.9-3.5-26.9s-13-39.9,5.1-36.3c-6.6-4.2,3-4.7,2.9-3.7s-1.5,6.1-4,7c4.2.8,15.2-.5,17.9-4.2-3.7,11.8,15.7,9.4,17.1.6.8,4.3,6.9,5.5,10.3,6.5-3.5-3-2.2-7.1.2-9.1-7.9,11.7,13.1,12.3,17.3,3.8-.7,4.5,5.2,7,8.3,8.8-2.1-3.2,1.2-10,2.6-13.1,5.1,5.3,9.8,4.4,16.2,4.1-4.8-3.8-4.4-7.3-7.3-11.8,3.2,2.2,16.5-.3,16.1-5.3s-10.3-2.7-13-2.3c1.3-3.2,5.6-5.9,8.8-6.5-1.9-3-3.8.5-5.4-3.6,1.6-.2,3-1.2,4.5-1.6a31.2,31.2,0,0,1-4.7-2.7,12,12,0,0,0,5.7-3.7c.6,3.6,2.1,11.2-.2,14.6,3.4-2,8-4.2,8.3-8.9,1.9,10,19.1,11.4,14.7-2.5C1572.6,716.5,1579,718.5,1578.9,718.6Z" fill="#1a0e0e"/></svg>