<svg id="mountains2" xmlns="http://www.w3.org/2000/svg" width="1920" height="1180" viewBox="0 0 1920 1180"><title>header-2</title><path d="M1975.5,474.7c-11.9-21.3-16.6-14.5-45.1-15.1-77.3-1.9-140.3-33-212.1-53.1-40.7-11.4-74,14.4-114.9,15.9-34.8,1.3-78.7-3.6-110-20.7-41.1-22.5-38.2-38.3-87.6-25.9-36.7,9.2-69.7,21.6-103.2,39.5s-59.8,34.8-100.3,28.1c-38.8-6.4-69.3-33-106.2-43-29.3-8-58.7-1.4-88,4.6-35.5,7.4-55.6,3.5-92.6-3.6-40.9-7.9-73.2-5.1-112.4,9.6-18.8,7-38.4,23.8-57.7,25.7-38,3.7-96.1-26.3-131.8-37.1-54.1-16.3-91.1-13.6-141.8,11.1-14.5,7.1-32.4,19.1-49.5,19.2-30,.2-33.4-22.2-58.1-34.6-31.8-16-45.2,2.2-72.6,18.5-38,22.6-43.8,16.6-83.6,1.4-62.2-23.8-122,15.7-177.9,43.3-30.3,15-41.8,15.7-43.9,49.9-2.7,43.8,21.9,82.3,57,105.6,77.7,51.7,198.4,60.2,288.4,73,98.1,13.9,197.3,22.7,296.4,15.5,88.5-6.4,166.3-13.4,220.1-88.3l1.7-2.3c95.6-3.4,200.3,9.2,294.4,15.2,126.1,8.1,250.9,23.1,377.5,25,117.7,1.8,232.4-12.5,348.3-31.8,52.3-8.7,92.5-18.2,105.6-75.8C1979,528.7,1983.6,489.2,1975.5,474.7Z" fill="#9e7862"/></svg>