<svg id="mountains2" xmlns="http://www.w3.org/2000/svg" width="1920" height="1180" viewBox="0 0 1920 1180"><title>header2</title><path d="M890.28,416.65c15.88,26.89,33.6,65.08,29,97.56-5.87,41.33-48.35,68-71.23,99.88C794.26,689,716.37,695.95,627.92,702.37c-99.05,7.2-198.27-1.58-296.4-15.46-89.92-12.72-210.7-21.24-288.36-73-35-23.33-59.7-61.75-57-105.59,2.14-34.22,13.61-34.91,43.93-49.89C86,430.89,145.8,391.45,208,415.22c39.78,15.2,45.63,21.23,83.62-1.4,27.32-16.27,40.78-34.49,72.56-18.5,24.72,12.44,28.12,34.8,58.15,34.6,17.09-.11,35-12.14,49.45-19.21,50.65-24.74,87.67-27.45,141.76-11.11,35.78,10.8,93.83,40.75,131.84,37.07,19.29-1.87,38.88-18.66,57.7-25.69,39.19-14.64,71.53-17.5,112.38-9.57,37,7.18,57.12,11,92.58,3.63,29.34-6.09,58.75-12.61,88-4.65,36.92,10.05,67.36,36.59,106.2,43,40.43,6.68,66.31-10,100.26-28.15,33.54-18,66.53-30.33,103.22-39.52,49.36-12.37,46.53,3.39,87.61,25.9,31.25,17.13,75.15,22,110,20.71,40.89-1.51,74.21-27.31,114.88-15.93C1790,426.5,1853,457.67,1930.31,459.52c28.53.68,33.23-6.19,45.15,15.13,8.11,14.52,3.57,54,0,69.71-13.05,57.56-53.29,67.06-105.59,75.78-115.93,19.33-230.61,33.61-348.3,31.85-126.54-1.9-251.39-16.88-377.45-25-102.39-6.56-217.23-20.85-319.31-13.94" fill="#4f587d"/></svg>