<svg xmlns="http://www.w3.org/2000/svg" xmlns:xlink="http://www.w3.org/1999/xlink" width="286" height="295" viewBox="0 0 286 295"><defs><linearGradient id="linear-gradient" x1="32.56" y1="216.5" x2="32.56" y2="282.5" gradientTransform="translate(55.16 -78.05) scale(0.99 1.14)" gradientUnits="userSpaceOnUse"><stop offset="0"/><stop offset="0" stop-color="#282425" stop-opacity="0.98"/><stop offset="1" stop-opacity="0"/></linearGradient></defs><title>laptop</title><g id="Layer_5" data-name="Layer 5"><rect x="2.21" y="169.37" width="170.41" height="75.43" transform="translate(172.03 -1.16) rotate(45)" opacity="0.35" fill="url(#linear-gradient)"/></g><g id="Layer_2" data-name="Layer 2"><path d="M105.23,84.89l103.91,95.05a5.26,5.26,0,0,1,.78,6.87L174.8,239.37a5.26,5.26,0,0,1-7.87.89l-118-108a5.26,5.26,0,0,1,.19-7.92L98.32,84.72A5.26,5.26,0,0,1,105.23,84.89Z" fill="#0a0a0a" stroke="#e6e6e6" stroke-miterlimit="10"/><path d="M104.71,77.18,169.06,6.84a7.33,7.33,0,0,1,10.36-.46l101.34,92.7a7.33,7.33,0,0,1,.46,10.36l-64.35,70.35a7.33,7.33,0,0,1-10.36.46l-2-1.8,3.37-3.69-97.4-89.09-3.37,3.69-2-1.8A7.33,7.33,0,0,1,104.71,77.18Z" fill="#e6e6e6"/><rect x="186.16" y="50.32" width="57.46" height="38" rx="1.56" ry="1.56" transform="translate(326.67 265.52) rotate(-137.55)" fill="#e6e6e6" stroke="#b3b3b3" stroke-miterlimit="10" stroke-width="0.5"/><rect x="115.45" y="79.14" width="132" height="52" rx="1.56" ry="1.56" transform="translate(244.38 305.2) rotate(-137.55)" fill="#e6e6e6" stroke="#b3b3b3" stroke-miterlimit="10" stroke-width="0.5"/><line x1="107.14" y1="89.34" x2="204.54" y2="178.43" fill="none"/><rect x="90.51" y="130.15" width="132" height="6" transform="translate(182.13 337.04) rotate(-137.55)" fill="#1a1a1a"/><polygon points="101.01 90.51 203.92 184.65 169.59 235.91 53 129.27 101.01 90.51" fill="#1a1a1a"/><rect x="171.74" y="88.72" width="53" height="8" rx="0.46" ry="0.46" transform="translate(281.94 294.93) rotate(-137.55)" fill="#1a1a1a"/><rect x="221.17" y="130.12" width="18" height="8" rx="0.46" ry="0.46" transform="translate(309.48 388.43) rotate(-137.55)" fill="#1a1a1a"/><rect x="139" y="55.87" width="20" height="8" rx="0.46" ry="0.46" transform="translate(218.54 204.62) rotate(-137.55)" fill="#1a1a1a"/><rect x="215.84" y="120.67" width="8" height="8" rx="0.46" ry="0.46" transform="translate(297.91 365.03) rotate(-137.55)" fill="#1a1a1a"/><rect x="209.2" y="114.59" width="8" height="8" rx="0.46" ry="0.46" transform="translate(290.47 349.99) rotate(-137.55)" fill="#1a1a1a"/><rect x="202.56" y="108.52" width="8" height="8" rx="0.46" ry="0.46" transform="translate(283.03 334.96) rotate(-137.55)" fill="#1a1a1a"/><rect x="195.92" y="102.44" width="8" height="8" rx="0.46" ry="0.46" transform="translate(275.59 319.92) rotate(-137.55)" fill="#1a1a1a"/><rect x="189.28" y="96.37" width="8" height="8" rx="0.46" ry="0.46" transform="translate(268.14 304.88) rotate(-137.55)" fill="#1a1a1a"/><rect x="182.63" y="90.3" width="8" height="8" rx="0.46" ry="0.46" transform="translate(260.7 289.84) rotate(-137.55)" fill="#1a1a1a"/><rect x="175.99" y="84.22" width="8" height="8" rx="0.46" ry="0.46" transform="translate(253.26 274.8) rotate(-137.55)" fill="#1a1a1a"/><rect x="169.35" y="78.15" width="8" height="8" rx="0.46" ry="0.46" transform="translate(245.82 259.76) rotate(-137.55)" fill="#1a1a1a"/><rect x="162.71" y="72.07" width="8" height="8" rx="0.46" ry="0.46" transform="translate(238.38 244.72) rotate(-137.55)" fill="#1a1a1a"/><rect x="156.07" y="66" width="8" height="8" rx="0.46" ry="0.46" transform="translate(230.94 229.68) rotate(-137.55)" fill="#1a1a1a"/><rect x="219.44" y="138.44" width="13" height="8" rx="0.46" ry="0.46" transform="translate(296.51 400.05) rotate(-137.55)" fill="#1a1a1a"/><rect x="133.45" y="61.16" width="16" height="8" rx="0.46" ry="0.46" transform="translate(201.84 208.72) rotate(-137.55)" fill="#1a1a1a"/><rect x="213.45" y="130.68" width="8" height="8" rx="0.46" ry="0.46" transform="translate(287 380.83) rotate(-137.55)" fill="#1a1a1a"/><rect x="206.81" y="124.61" width="8" height="8" rx="0.46" ry="0.46" transform="translate(279.56 365.79) rotate(-137.55)" fill="#1a1a1a"/><rect x="200.17" y="118.53" width="8" height="8" rx="0.46" ry="0.46" transform="translate(272.12 350.75) rotate(-137.55)" fill="#1a1a1a"/><rect x="193.53" y="112.46" width="8" height="8" rx="0.46" ry="0.46" transform="translate(264.68 335.71) rotate(-137.55)" fill="#1a1a1a"/><rect x="186.89" y="106.39" width="8" height="8" rx="0.46" ry="0.46" transform="translate(257.24 320.67) rotate(-137.55)" fill="#1a1a1a"/><rect x="180.25" y="100.31" width="8" height="8" rx="0.46" ry="0.46" transform="translate(249.8 305.64) rotate(-137.55)" fill="#1a1a1a"/><rect x="173.61" y="94.24" width="8" height="8" rx="0.46" ry="0.46" transform="translate(242.36 290.6) rotate(-137.55)" fill="#1a1a1a"/><rect x="166.97" y="88.16" width="8" height="8" rx="0.46" ry="0.46" transform="translate(234.92 275.56) rotate(-137.55)" fill="#1a1a1a"/><rect x="160.33" y="82.09" width="8" height="8" rx="0.46" ry="0.46" transform="translate(227.47 260.52) rotate(-137.55)" fill="#1a1a1a"/><rect x="153.69" y="76.01" width="8" height="8" rx="0.46" ry="0.46" transform="translate(220.03 245.48) rotate(-137.55)" fill="#1a1a1a"/><rect x="147.04" y="69.94" width="8" height="8" rx="0.46" ry="0.46" transform="translate(212.59 230.44) rotate(-137.55)" fill="#1a1a1a"/><rect x="214.23" y="145.42" width="12" height="8" rx="0.46" ry="0.46" transform="translate(281.89 408.32) rotate(-137.55)" fill="#1a1a1a"/><rect x="121.83" y="73.1" width="12" height="8" rx="0.46" ry="0.46" transform="translate(170.11 220.26) rotate(-137.55)" fill="#1a1a1a"/><rect x="208.12" y="138" width="8" height="8" rx="0.46" ry="0.46" transform="translate(272.79 389.94) rotate(-137.55)" fill="#1a1a1a"/><rect x="201.48" y="131.92" width="8" height="8" rx="0.46" ry="0.46" transform="translate(265.35 374.9) rotate(-137.55)" fill="#1a1a1a"/><rect x="194.84" y="125.85" width="8" height="8" rx="0.46" ry="0.46" transform="translate(257.91 359.86) rotate(-137.55)" fill="#1a1a1a"/><rect x="188.19" y="119.78" width="8" height="8" rx="0.46" ry="0.46" transform="translate(250.47 344.83) rotate(-137.55)" fill="#1a1a1a"/><rect x="181.55" y="113.7" width="8" height="8" rx="0.46" ry="0.46" transform="translate(243.03 329.79) rotate(-137.55)" fill="#1a1a1a"/><rect x="174.91" y="107.63" width="8" height="8" rx="0.46" ry="0.46" transform="translate(235.59 314.75) rotate(-137.55)" fill="#1a1a1a"/><rect x="168.27" y="101.55" width="8" height="8" rx="0.46" ry="0.46" transform="translate(228.15 299.71) rotate(-137.55)" fill="#1a1a1a"/><rect x="161.63" y="95.48" width="8" height="8" rx="0.46" ry="0.46" transform="translate(220.7 284.67) rotate(-137.55)" fill="#1a1a1a"/><rect x="154.99" y="89.4" width="8" height="8" rx="0.46" ry="0.46" transform="translate(213.26 269.63) rotate(-137.55)" fill="#1a1a1a"/><rect x="148.35" y="83.33" width="8" height="8" rx="0.46" ry="0.46" transform="translate(205.82 254.59) rotate(-137.55)" fill="#1a1a1a"/><rect x="141.71" y="77.25" width="8" height="8" rx="0.46" ry="0.46" transform="translate(198.38 239.55) rotate(-137.55)" fill="#1a1a1a"/><rect x="135.07" y="71.18" width="8" height="8" rx="0.46" ry="0.46" transform="translate(190.94 224.51) rotate(-137.55)" fill="#1a1a1a"/><rect x="128.43" y="65.11" width="8" height="8" rx="0.46" ry="0.46" transform="translate(183.5 209.48) rotate(-137.55)" fill="#1a1a1a"/><rect x="211.63" y="153.41" width="8" height="8" rx="0.46" ry="0.46" transform="translate(268.5 419.11) rotate(-137.55)" fill="#1a1a1a"/><rect x="204.99" y="147.34" width="8" height="8" rx="0.46" ry="0.46" transform="translate(261.06 404.07) rotate(-137.55)" fill="#1a1a1a"/><rect x="198.35" y="141.26" width="8" height="8" rx="0.46" ry="0.46" transform="translate(253.62 389.03) rotate(-137.55)" fill="#1a1a1a"/><rect x="191.71" y="135.19" width="8" height="8" rx="0.46" ry="0.46" transform="translate(246.18 373.99) rotate(-137.55)" fill="#1a1a1a"/><rect x="185.07" y="129.12" width="8" height="8" rx="0.46" ry="0.46" transform="translate(238.74 358.95) rotate(-137.55)" fill="#1a1a1a"/><rect x="178.43" y="123.04" width="8" height="8" rx="0.46" ry="0.46" transform="translate(231.3 343.91) rotate(-137.55)" fill="#1a1a1a"/><rect x="171.79" y="116.97" width="8" height="8" rx="0.46" ry="0.46" transform="translate(223.85 328.87) rotate(-137.55)" fill="#1a1a1a"/><rect x="165.15" y="110.89" width="8" height="8" rx="0.46" ry="0.46" transform="translate(216.41 313.83) rotate(-137.55)" fill="#1a1a1a"/><rect x="158.51" y="104.82" width="8" height="8" rx="0.46" ry="0.46" transform="translate(208.97 298.8) rotate(-137.55)" fill="#1a1a1a"/><rect x="151.87" y="98.74" width="8" height="8" rx="0.46" ry="0.46" transform="translate(201.53 283.76) rotate(-137.55)" fill="#1a1a1a"/><rect x="145.23" y="92.67" width="8" height="8" rx="0.46" ry="0.46" transform="translate(194.09 268.72) rotate(-137.55)" fill="#1a1a1a"/><rect x="138.59" y="86.59" width="8" height="8" rx="0.46" ry="0.46" transform="translate(186.65 253.68) rotate(-137.55)" fill="#1a1a1a"/><rect x="131.94" y="80.52" width="8" height="8" rx="0.46" ry="0.46" transform="translate(179.21 238.64) rotate(-137.55)" fill="#1a1a1a"/><rect x="170.13" y="67.12" width="9" height="8" rx="0.46" ry="0.46" transform="translate(255.49 241.46) rotate(-137.55)" fill="#1a1a1a"/><rect x="217.35" y="110.31" width="9" height="8" rx="0.46" ry="0.46" transform="translate(308.4 348.4) rotate(-137.55)" fill="#1a1a1a"/><rect x="164.49" y="61.04" width="7" height="8" rx="0.46" ry="0.46" transform="translate(248.04 226.42) rotate(-137.55)" fill="#1a1a1a"/><rect x="225" y="116.39" width="7" height="8" rx="0.46" ry="0.46" transform="translate(315.84 363.44) rotate(-137.55)" fill="#1a1a1a"/><rect x="230.9" y="121.79" width="7" height="8" rx="0.46" ry="0.46" transform="translate(322.46 376.81) rotate(-137.55)" fill="#1a1a1a"/><rect x="236.8" y="127.19" width="7" height="8" rx="0.46" ry="0.46" transform="translate(329.07 390.18) rotate(-137.55)" fill="#1a1a1a"/><rect x="152.68" y="50.24" width="7" height="8" rx="0.46" ry="0.46" transform="translate(234.82 199.69) rotate(-137.55)" fill="#1a1a1a"/><rect x="159.94" y="56.17" width="7" height="4" rx="0.46" ry="0.46" transform="translate(244.77 211.4) rotate(-137.55)" fill="#1a1a1a"/><rect x="206.69" y="160.49" width="8.26" height="4" rx="0.46" ry="0.46" transform="translate(256.7 424.68) rotate(-137.55)" fill="#1a1a1a"/><rect x="199.83" y="154.22" width="8.26" height="4" rx="0.46" ry="0.46" transform="translate(249.02 409.16) rotate(-137.55)" fill="#1a1a1a"/><rect x="192.98" y="147.95" width="8.26" height="4" rx="0.46" ry="0.46" transform="translate(241.34 393.64) rotate(-137.55)" fill="#1a1a1a"/><rect x="186.13" y="141.69" width="8.26" height="4" rx="0.46" ry="0.46" transform="translate(233.66 378.12) rotate(-137.55)" fill="#1a1a1a"/><rect x="179.27" y="135.42" width="8.26" height="4" rx="0.46" ry="0.46" transform="translate(225.98 362.6) rotate(-137.55)" fill="#1a1a1a"/><rect x="172.42" y="129.15" width="8.26" height="4" rx="0.46" ry="0.46" transform="translate(218.3 347.08) rotate(-137.55)" fill="#1a1a1a"/><rect x="165.57" y="122.88" width="8.26" height="4" rx="0.46" ry="0.46" transform="translate(210.62 331.56) rotate(-137.55)" fill="#1a1a1a"/><rect x="158.71" y="116.61" width="8.26" height="4" rx="0.46" ry="0.46" transform="translate(202.94 316.04) rotate(-137.55)" fill="#1a1a1a"/><rect x="151.86" y="110.34" width="8.26" height="4" rx="0.46" ry="0.46" transform="translate(195.26 300.52) rotate(-137.55)" fill="#1a1a1a"/><rect x="145.01" y="104.07" width="8.26" height="4" rx="0.46" ry="0.46" transform="translate(187.59 285) rotate(-137.55)" fill="#1a1a1a"/><rect x="138.15" y="97.8" width="8.26" height="4" rx="0.46" ry="0.46" transform="translate(179.91 269.48) rotate(-137.55)" fill="#1a1a1a"/><rect x="131.3" y="91.54" width="8.26" height="4" rx="0.46" ry="0.46" transform="translate(172.23 253.96) rotate(-137.55)" fill="#1a1a1a"/><rect x="124.45" y="85.27" width="8.26" height="4" rx="0.46" ry="0.46" transform="translate(164.55 238.44) rotate(-137.55)" fill="#1a1a1a"/><rect x="117.59" y="79" width="8.26" height="4" rx="0.46" ry="0.46" transform="translate(156.87 222.92) rotate(-137.55)" fill="#1a1a1a"/><rect x="148.13" y="45.37" width="7" height="4" rx="0.46" ry="0.46" transform="translate(231.54 184.66) rotate(-137.55)" fill="#1a1a1a"/><line x1="158.77" y1="56.61" x2="153.6" y2="51.88" fill="#e6e6e6" stroke="#e6e6e6" stroke-miterlimit="10" stroke-width="0.25"/></g></svg>