<svg xmlns="http://www.w3.org/2000/svg" xmlns:xlink="http://www.w3.org/1999/xlink" width="323.11" height="297.02" viewBox="0 0 323.11 297.02"><defs><linearGradient id="linear-gradient" x1="105" y1="208" x2="245.05" y2="67.95" gradientUnits="userSpaceOnUse"><stop offset="0" stop-opacity="0"/><stop offset="1" stop-opacity="0.1"/></linearGradient></defs><title>notebook</title><g id="Layer_5" data-name="Layer 5"><path d="M329.69,179.31,203,306,80.73,183.73l-1.52-1.52L7,110,61.63,55.37,71,53.76l-1.14-6.63,2.37-2.37a.57.57,0,0,1,0,.14l1.44,8.39,2.71-.47L75,44.43a1.37,1.37,0,0,1,1.12-1.59l.23,0A1.39,1.39,0,0,1,77.7,44l1.44,8.39,11.51-2L89.2,42a1.39,1.39,0,0,1,1.13-1.59l.23,0a1.39,1.39,0,0,1,1.35,1.14l1.45,8.39,2.71-.46L94.62,41a1.37,1.37,0,0,1,1.12-1.59l.24,0a1.38,1.38,0,0,1,1.35,1.14L98.77,49l11.51-2-1.44-8.39A1.37,1.37,0,0,1,110,37l.24,0a1.38,1.38,0,0,1,1.35,1.14L113,46.52,115.7,46l-1.44-8.39a1.37,1.37,0,0,1,1.12-1.59l.22,0A1.38,1.38,0,0,1,117,37.2l1.45,8.39,11.51-2-1.45-8.39a1.38,1.38,0,0,1,1.12-1.59l.23,0a1.39,1.39,0,0,1,1.36,1.14l1.45,8.4,2.7-.47-1.44-8.39A1.37,1.37,0,0,1,135,32.69l.24,0a1.38,1.38,0,0,1,1.35,1.14L138,42.2l11.51-2-1.44-8.39a1.37,1.37,0,0,1,1.12-1.59l.24,0a1.38,1.38,0,0,1,1.35,1.14l1.44,8.39,2.71-.46-1.45-8.4a1.37,1.37,0,0,1,1.12-1.58l.24,0a1.38,1.38,0,0,1,1.35,1.14l1.45,8.39,11.51-2-1.45-8.39a1.37,1.37,0,0,1,1.12-1.59l.22,0A1.38,1.38,0,0,1,170.45,28l1.44,8.39,2.71-.47-1.44-8.39a1.37,1.37,0,0,1,1.12-1.59l.24,0A1.38,1.38,0,0,1,175.87,27l1.44,8.39,11.51-2-1.44-8.39a1.37,1.37,0,0,1,1.12-1.59l.23,0a1.38,1.38,0,0,1,1.35,1.14L191.53,33l2.71-.46-1.45-8.4a1.37,1.37,0,0,1,1.12-1.58l.24,0a1.38,1.38,0,0,1,1.35,1.14L196.94,32l10.42-1.79,1.07,1.07.29.29.78.78L212.09,35l2.76,2.76L261,83.88l0,0L324.13,147Z" transform="translate(-7 -8.98)" fill="url(#linear-gradient)"/></g><g id="Layer_1" data-name="Layer 1"><polygon points="323.11 172.74 319.69 173.33 108.68 209.7 79.37 214.75 72.21 173.23 51.29 51.85 52.52 51.64 53.73 51.43 54.95 51.22 64.83 49.52 67.54 49.05 70.25 48.58 72.96 48.12 72.96 48.11 84.47 46.13 87.18 45.66 89.89 45.2 92.59 44.73 104.1 42.75 106.81 42.28 109.52 41.81 112.22 41.35 112.23 41.35 123.73 39.36 123.74 39.36 126.45 38.9 129.15 38.43 131.86 37.96 143.37 35.98 146.08 35.51 148.79 35.05 151.49 34.58 151.5 34.58 163 32.6 163.01 32.59 165.71 32.13 168.42 31.66 171.13 31.19 182.64 29.21 185.35 28.74 188.06 28.28 190.76 27.81 202.27 25.83 204.52 25.44 204.98 25.36 207.69 24.89 210.39 24.43 210.4 24.43 221.9 22.44 221.91 22.44 224.62 21.98 227.32 21.51 230.03 21.04 241.54 19.06 244.25 18.59 246.96 18.13 249.66 17.66 249.67 17.66 261.17 15.68 261.18 15.67 263.88 15.21 266.59 14.74 269.3 14.27 290.16 10.68 291.37 10.47 292.59 10.26 295.03 9.84 317.13 138.05 322.69 170.33 323.11 172.74" fill="#99713d"/><rect x="71.44" y="36.64" width="241.15" height="165.71" transform="translate(-24.51 25.37) rotate(-9.78)" fill="#a39c83"/><rect x="73.67" y="35" width="241.15" height="165.71" transform="translate(-24.2 25.73) rotate(-9.78)" fill="#d4caaa"/><polygon points="318.7 169.03 317.49 169.24 104.87 205.89 82.28 209.79 81.06 210 75.25 176.27 53.73 51.43 53.33 49.13 53.12 47.9 52.91 46.69 54.63 46.39 64.01 44.78 66.72 44.31 69.43 43.84 72.14 43.37 83.65 41.39 86.36 40.92 89.07 40.46 91.77 39.99 103.28 38.01 105.99 37.54 108.7 37.07 111.41 36.61 122.92 34.62 125.63 34.16 128.33 33.69 131.04 33.22 142.55 31.24 145.26 30.77 147.97 30.31 150.68 29.84 162.19 27.85 164.89 27.39 167.6 26.92 170.31 26.45 181.82 24.47 184.53 24 187.24 23.54 189.94 23.07 200.36 21.28 201.45 21.09 204.16 20.62 206.87 20.15 209.58 19.69 221.09 17.7 223.8 17.24 226.5 16.77 229.21 16.3 240.72 14.32 243.43 13.85 246.14 13.38 248.85 12.92 260.36 10.93 263.06 10.47 265.77 10 268.48 9.53 290.55 5.73 290.76 6.95 291.37 10.47 312.57 133.49 318.7 169.03" fill="#fffae8"/><path d="M117.74,96.66l-2.26.39-1.21-4.69a8.38,8.38,0,0,0-3.82-1.88,13.28,13.28,0,0,0-5.19,0,10.49,10.49,0,0,0-6.17,2.91,5.55,5.55,0,0,0-1.55,4.88,5.33,5.33,0,0,0,2.82,3.88q2.38,1.34,7.75,1.75a21.31,21.31,0,0,1,8.9,2.32,7.8,7.8,0,0,1,3.9,5.73,7.62,7.62,0,0,1-2.18,7,14.13,14.13,0,0,1-8,3.82,17.65,17.65,0,0,1-6.91-.12,13,13,0,0,1-5.67-2.76l-1-5.89,2.26-.39,1.24,4.85a9.78,9.78,0,0,0,4.36,2,14.7,14.7,0,0,0,5.33,0,11,11,0,0,0,6.13-2.86,5.52,5.52,0,0,0,1.66-5.07,5.7,5.7,0,0,0-2.83-4.14q-2.36-1.39-7.69-1.85a23,23,0,0,1-9-2.17,7.3,7.3,0,0,1-3.87-5.49A7.62,7.62,0,0,1,96.93,92a13.73,13.73,0,0,1,7.92-3.86,16.29,16.29,0,0,1,6.77.15,11.51,11.51,0,0,1,5.13,2.66Z" transform="translate(-7 -8.98)" fill="#2e2e2e"/><path d="M137.94,118a10.19,10.19,0,0,1-8.4-2.11,12.86,12.86,0,0,1-4.61-8.26l-.22-1.27A13.23,13.23,0,0,1,126.27,97a9.69,9.69,0,0,1,6.84-4.81,9.4,9.4,0,0,1,7.73,1.67,11.29,11.29,0,0,1,4,7.31l.41,2.36-17.65,3,.12.67a11.2,11.2,0,0,0,3.46,6.67,7.27,7.27,0,0,0,6.39,1.84,12.19,12.19,0,0,0,4.27-1.47,8.8,8.8,0,0,0,2.77-2.59l1.5,1.69a10.17,10.17,0,0,1-3.15,3A13.93,13.93,0,0,1,137.94,118Zm-4.42-23.52a6.72,6.72,0,0,0-4.74,3.23,10.19,10.19,0,0,0-1.43,6.3l.07.11,14.64-2.52-.12-.69a8.1,8.1,0,0,0-2.85-5.12A6.65,6.65,0,0,0,133.51,94.52Z" transform="translate(-7 -8.98)" fill="#2e2e2e"/><path d="M145.9,81.19l-.35-2.06L152.06,78l5.79,33.7,3.82-.35.35,2-10.28,1.77-.35-2,3.71-.95-5.39-31.35Z" transform="translate(-7 -8.98)" fill="#2e2e2e"/><path d="M177.48,111.25a10.18,10.18,0,0,1-8.4-2.11,12.86,12.86,0,0,1-4.61-8.26l-.22-1.27a13.22,13.22,0,0,1,1.56-9.42,9.69,9.69,0,0,1,6.84-4.81A9.39,9.39,0,0,1,180.38,87a11.29,11.29,0,0,1,4,7.31l.4,2.36-17.65,3,.12.67a11.2,11.2,0,0,0,3.46,6.67,7.27,7.27,0,0,0,6.39,1.84,12.19,12.19,0,0,0,4.27-1.47,8.81,8.81,0,0,0,2.77-2.59l1.5,1.69a10.15,10.15,0,0,1-3.15,3A13.89,13.89,0,0,1,177.48,111.25Zm-4.42-23.52A6.72,6.72,0,0,0,168.32,91a10.19,10.19,0,0,0-1.43,6.3l.07.11,14.64-2.52-.12-.69A8.1,8.1,0,0,0,178.63,89,6.64,6.64,0,0,0,173.06,87.72Z" transform="translate(-7 -8.98)" fill="#2e2e2e"/><path d="M202.19,104.6a8,8,0,0,0,4.58-2.4,5.22,5.22,0,0,0,1.35-4.73l2.45-.42.07.13a7,7,0,0,1-1.76,6.27,10.45,10.45,0,0,1-6.29,3.48,9.65,9.65,0,0,1-8.48-2.15,14.18,14.18,0,0,1-4.34-8.52l-.17-1a14.14,14.14,0,0,1,1.25-9.44A9.61,9.61,0,0,1,198.11,81a12.88,12.88,0,0,1,5.48.18A10.53,10.53,0,0,1,208,83.46l1.05,5.43-2.36.41-1.2-4.36a8,8,0,0,0-3.1-1.5,9.35,9.35,0,0,0-3.88-.08,6.76,6.76,0,0,0-5.45,3.9,12.91,12.91,0,0,0-.68,7.57l.17,1a13.05,13.05,0,0,0,3.17,7A6.79,6.79,0,0,0,202.19,104.6Z" transform="translate(-7 -8.98)" fill="#2e2e2e"/><path d="M218.06,71.45l1.1,6.4,5.5-.94.39,2.26-5.5.94,2.8,16.29a5.4,5.4,0,0,0,1.49,3.32,3,3,0,0,0,2.54.62q.67-.11,1.29-.28t1.43-.45l.77,2a7.19,7.19,0,0,1-1.61.75,12.53,12.53,0,0,1-2,.5,5.26,5.26,0,0,1-4.39-1q-1.75-1.41-2.37-5l-2.8-16.29-4.3.74-.39-2.26,4.3-.74-1.1-6.4Z" transform="translate(-7 -8.98)" fill="#2e2e2e"/><path d="M245.14,99.62a10.18,10.18,0,0,1-8.4-2.11,12.86,12.86,0,0,1-4.61-8.26L231.91,88a13.23,13.23,0,0,1,1.56-9.42,9.69,9.69,0,0,1,6.84-4.81A9.4,9.4,0,0,1,248,75.41a11.3,11.3,0,0,1,4,7.31l.4,2.36-17.65,3,.11.67a11.2,11.2,0,0,0,3.46,6.67,7.27,7.27,0,0,0,6.39,1.84A12.18,12.18,0,0,0,249,95.82a8.81,8.81,0,0,0,2.76-2.59l1.5,1.69a10.13,10.13,0,0,1-3.15,3A13.89,13.89,0,0,1,245.14,99.62ZM240.72,76.1A6.72,6.72,0,0,0,236,79.33a10.19,10.19,0,0,0-1.43,6.3l.07.11,14.64-2.52-.12-.69a8.11,8.11,0,0,0-2.85-5.12A6.64,6.64,0,0,0,240.72,76.1Z" transform="translate(-7 -8.98)" fill="#2e2e2e"/><path d="M276.24,90.07a8.76,8.76,0,0,1-2.69,3.58,9.71,9.71,0,0,1-4.44,1.86,8.41,8.41,0,0,1-7.58-2.15q-3.11-2.92-4.07-8.5l-.08-.48q-1-6,.88-10a8.26,8.26,0,0,1,6.44-4.8,8.7,8.7,0,0,1,8.44,2.9L271,60l-3.82.35-.35-2.06,3.77-.65,2.77-.48,5.79,33.7,3.82-.35.35,2-6.24,1.07Zm-16-5.7a12.86,12.86,0,0,0,3.05,6.9A6.25,6.25,0,0,0,269.23,93a7.92,7.92,0,0,0,4.24-2,8.11,8.11,0,0,0,2.22-3.78l-2-11.83a8.74,8.74,0,0,0-3.26-3,7.31,7.31,0,0,0-4.75-.56,6.11,6.11,0,0,0-5,3.93,14.91,14.91,0,0,0-.5,8.09Z" transform="translate(-7 -8.98)" fill="#2e2e2e"/><path d="M134.75,144l-3.37.84,9.06,20.89,1.9,5,.14,0,.37-5.34L146.09,140l2.61-.45,11.51,22.85,2.12,5,.13,0,.2-5.36,1.5-22.71-3.46.33-.35-2.06,8.78-1.51.35,2.06-2.49.62-2.44,32.74-2.61.45L149.68,147.4,148.19,144l-.14,0-.22,3.68-3.47,27.16-2.61.45-13.22-30-2.55.25-.35-2.06L134.4,142Z" transform="translate(-7 -8.98)" fill="#2e2e2e"/><path d="M174.47,156.46a13.63,13.63,0,0,1,1.47-9.58A11,11,0,0,1,192,144.13a13.63,13.63,0,0,1,4.58,8.54l.13.76a13.65,13.65,0,0,1-1.46,9.58,11.08,11.08,0,0,1-16.06,2.76,13.62,13.62,0,0,1-4.58-8.55Zm2.9.29a12.08,12.08,0,0,0,3.45,6.92A7.86,7.86,0,0,0,193,161.58a12.08,12.08,0,0,0,.94-7.68l-.13-.76a12,12,0,0,0-3.45-6.87,7.81,7.81,0,0,0-12.16,2.09,12.06,12.06,0,0,0-.95,7.63Z" transform="translate(-7 -8.98)" fill="#2e2e2e"/><path d="M205,138.73l1.06,4.1.05.3a9,9,0,0,1,2.28-4.11A7.43,7.43,0,0,1,212.5,137a6.52,6.52,0,0,1,1-.1,7.31,7.31,0,0,1,.85,0l.08,2.65-2.08.21a6.36,6.36,0,0,0-4,2.2,8.21,8.21,0,0,0-1.7,4.44l2.56,14.92L213,161l.35,2-10.28,1.77-.35-2,3.71-.95L203,141.5l-3.82.35-.35-2.06,3.77-.65Z" transform="translate(-7 -8.98)" fill="#2e2e2e"/><path d="M215.19,127.73l-.35-2.06,6.51-1.12L225,146l2.93-.5,6.21-9.41-.07-.11-2.31.23-.35-2.06,8.8-1.51.35,2.06-2.86.78-7,10.55,11.67,9.62,2.82-.22.35,2L236.8,159l-.35-2,2.61-.61-10.4-8.49-3.21.55,1.69,9.84,3.82-.35.35,2L221,161.71l-.35-2,3.71-.95L219,127.38Z" transform="translate(-7 -8.98)" fill="#2e2e2e"/><path d="M264.58,136.44l-2.26.39-.93-3.48a7.12,7.12,0,0,0-2.91-1.24,10.36,10.36,0,0,0-3.74,0,6.89,6.89,0,0,0-4.31,2.08,4,4,0,0,0-1,3.32,3.68,3.68,0,0,0,1.8,2.64q1.5.91,5.55,1.09a17.27,17.27,0,0,1,7.14,1.57,5.69,5.69,0,0,1,3,4.3,6.14,6.14,0,0,1-1.66,5.48,10.9,10.9,0,0,1-6.36,3.08,15.85,15.85,0,0,1-5.18.09,12.16,12.16,0,0,1-4.31-1.51l-.87-5,2.24-.38,1,3.49a6.54,6.54,0,0,0,3.08,1.12,12.77,12.77,0,0,0,3.63-.11,7.77,7.77,0,0,0,4.51-2.13,4,4,0,0,0,1.18-3.49,4.1,4.1,0,0,0-2-2.82,11.9,11.9,0,0,0-5.58-1.25,17.83,17.83,0,0,1-7.06-1.44,5.36,5.36,0,0,1-2.93-4.12,6.11,6.11,0,0,1,1.59-5.26,10,10,0,0,1,6.06-3.07,14.57,14.57,0,0,1,5.17,0,10.28,10.28,0,0,1,4.1,1.64Z" transform="translate(-7 -8.98)" fill="#2e2e2e"/></g><g id="Layer_3" data-name="Layer 3"><rect x="72.02" y="56.82" width="8.24" height="4.81" transform="translate(-15.95 4.82) rotate(-9.78)" fill="#616161"/><path d="M73.86,62h0A1.36,1.36,0,0,1,72.27,61s0,0,0,0a0,0,0,0,1,0,0l-.42-2.44-.16-1-.24-1.35L71.22,55,71,53.76l-1.14-6.63-.3-1.77a1.37,1.37,0,0,1,1.12-1.58l.24,0a1.36,1.36,0,0,1,1.31,1,.57.57,0,0,1,0,.14l1.44,8.39.21,1.22.21,1.22.24,1.35.16,1L75,60.47A1.36,1.36,0,0,1,73.86,62Z" transform="translate(-7 -8.98)" fill="#616161"/><path d="M79.26,61.12A1.37,1.37,0,0,1,77.67,60l-.42-2.44-.16-.94-.24-1.36L76.64,54l-.21-1.22L75,44.43a1.37,1.37,0,0,1,1.12-1.59l.23,0A1.39,1.39,0,0,1,77.7,44l1.44,8.39.21,1.23.21,1.22.24,1.35.16.94h0l.42,2.44h0A1.36,1.36,0,0,1,79.26,61.12Z" transform="translate(-7 -8.98)" fill="#616161"/><rect x="91.65" y="53.43" width="8.24" height="4.81" transform="translate(-15.09 8.1) rotate(-9.78)" fill="#616161"/><path d="M93.48,58.67a1.37,1.37,0,0,1-1.59-1.12l-.42-2.44-.16-.94-.24-1.36-.21-1.22-.21-1.22L89.2,42a1.39,1.39,0,0,1,1.13-1.59l.23,0a1.39,1.39,0,0,1,1.35,1.14l1.45,8.39.21,1.22.21,1.23L94,53.7l.16.94.42,2.45A1.38,1.38,0,0,1,93.48,58.67Z" transform="translate(-7 -8.98)" fill="#616161"/><path d="M98.89,57.74a1.36,1.36,0,0,1-1.58-1.12l-.42-2.44-.16-.94-.24-1.36-.21-1.22-.21-1.22L94.62,41a1.37,1.37,0,0,1,1.12-1.59l.24,0a1.38,1.38,0,0,1,1.35,1.14L98.77,49,99,50.19l.21,1.22.24,1.36.16.94.42,2.44A1.37,1.37,0,0,1,98.89,57.74Z" transform="translate(-7 -8.98)" fill="#616161"/><rect x="111.29" y="50.05" width="8.24" height="4.81" transform="translate(-14.23 11.39) rotate(-9.78)" fill="#616161"/><path d="M113.13,55.28h0a1.36,1.36,0,0,1-1.54-1.07s0,0,0,0l-.42-2.44-.16-1-.24-1.35-.21-1.22L110.28,47l-1.44-8.39A1.37,1.37,0,0,1,110,37l.24,0a1.38,1.38,0,0,1,1.35,1.14L113,46.52l.21,1.22.21,1.22.24,1.35.16,1,.42,2.44A1.36,1.36,0,0,1,113.13,55.28Z" transform="translate(-7 -8.98)" fill="#616161"/><path d="M118.53,54.35a1.37,1.37,0,0,1-1.59-1.12l-.42-2.44-.16-.94-.24-1.36-.21-1.22L115.7,46l-1.44-8.39a1.37,1.37,0,0,1,1.12-1.59l.22,0A1.38,1.38,0,0,1,117,37.2l1.45,8.39.21,1.22.21,1.22.23,1.35.17.95.42,2.44v0A1.36,1.36,0,0,1,118.53,54.35Z" transform="translate(-7 -8.98)" fill="#616161"/><rect x="130.92" y="46.66" width="8.24" height="4.81" transform="translate(-13.37 14.67) rotate(-9.78)" fill="#616161"/><path d="M132.74,51.9a1.37,1.37,0,0,1-1.58-1.12l-.42-2.44-.16-.94L130.34,46l-.21-1.22-.21-1.22-1.45-8.39a1.38,1.38,0,0,1,1.12-1.59l.23,0a1.39,1.39,0,0,1,1.36,1.14l1.45,8.4.21,1.22.21,1.22.24,1.35.16,1,.42,2.44A1.38,1.38,0,0,1,132.74,51.9Z" transform="translate(-7 -8.98)" fill="#616161"/><path d="M138.16,51a1.37,1.37,0,0,1-1.59-1.12l-.42-2.44-.16-.94-.24-1.36-.21-1.22-.21-1.22-1.44-8.39A1.37,1.37,0,0,1,135,32.69l.24,0a1.38,1.38,0,0,1,1.35,1.14L138,42.2l.21,1.22.21,1.22L138.7,46l.16.94.42,2.44A1.37,1.37,0,0,1,138.16,51Z" transform="translate(-7 -8.98)" fill="#616161"/><rect x="150.56" y="43.28" width="8.24" height="4.81" transform="translate(-12.51 17.96) rotate(-9.78)" fill="#616161"/><path d="M152.42,48.51h-.09a1.36,1.36,0,0,1-1.54-1.12L150.37,45l-.16-.95L150,42.66l-.21-1.22-.21-1.22-1.44-8.39a1.37,1.37,0,0,1,1.12-1.59l.24,0a1.38,1.38,0,0,1,1.35,1.14l1.44,8.39.21,1.22.21,1.22.24,1.35.16,1,.42,2.44A1.37,1.37,0,0,1,152.42,48.51Z" transform="translate(-7 -8.98)" fill="#616161"/><path d="M158.92,46v0a1.37,1.37,0,0,1-1.06,1.53l-.06,0h-.09a1.38,1.38,0,0,1-1.5-1.13L155.79,44l-.17-1-.23-1.35-.21-1.22L155,39.29l-1.45-8.4a1.37,1.37,0,0,1,1.12-1.58l.24,0a1.38,1.38,0,0,1,1.35,1.14l1.45,8.39.21,1.22.21,1.22.23,1.35.17,1Z" transform="translate(-7 -8.98)" fill="#616161"/><rect x="170.19" y="39.89" width="8.24" height="4.81" transform="translate(-11.65 21.25) rotate(-9.78)" fill="#616161"/><path d="M172,45.13A1.36,1.36,0,0,1,170.43,44L170,41.57l-.16-.94-.24-1.35L169.4,38l-.21-1.22-1.45-8.39a1.37,1.37,0,0,1,1.12-1.59l.22,0A1.38,1.38,0,0,1,170.45,28l1.44,8.39.21,1.22.21,1.22.24,1.35.16,1,.42,2.44A1.36,1.36,0,0,1,172,45.13Z" transform="translate(-7 -8.98)" fill="#616161"/><path d="M177.43,44.2a1.37,1.37,0,0,1-1.59-1.12l-.42-2.44-.16-.94L175,38.34l-.21-1.22-.21-1.22-1.44-8.39a1.37,1.37,0,0,1,1.12-1.59l.24,0A1.38,1.38,0,0,1,175.87,27l1.44,8.39.21,1.22.22,1.23.23,1.35.16.94.42,2.44v0A1.36,1.36,0,0,1,177.43,44.2Z" transform="translate(-7 -8.98)" fill="#616161"/><rect x="189.82" y="36.51" width="8.24" height="4.81" transform="translate(-10.79 24.53) rotate(-9.78)" fill="#616161"/><path d="M191.69,41.74h-.09a1.36,1.36,0,0,1-1.54-1.12l-.42-2.44-.16-1-.24-1.35L189,34.67l-.21-1.22-1.44-8.39a1.37,1.37,0,0,1,1.12-1.59l.23,0a1.38,1.38,0,0,1,1.35,1.14L191.53,33l.21,1.22.21,1.22.23,1.35.17,1,.42,2.44A1.37,1.37,0,0,1,191.69,41.74Z" transform="translate(-7 -8.98)" fill="#616161"/><path d="M197.11,40.81H197a1.37,1.37,0,0,1-1.51-1.13l-.42-2.44-.17-1L194.66,35l-.21-1.22-.21-1.22-1.45-8.4a1.37,1.37,0,0,1,1.12-1.58l.24,0a1.38,1.38,0,0,1,1.35,1.14L196.94,32l.21,1.22.21,1.22.24,1.35.16,1,.42,2.44A1.37,1.37,0,0,1,197.11,40.81Z" transform="translate(-7 -8.98)" fill="#616161"/><rect x="209.46" y="33.13" width="8.24" height="4.81" transform="translate(-9.93 27.82) rotate(-9.78)" fill="#616161"/><rect x="208.33" y="19.95" width="2.75" height="18.55" rx="1.37" ry="1.37" transform="matrix(0.99, -0.17, 0.17, 0.99, -8.92, 27.07)" fill="#616161"/><rect x="213.75" y="19.02" width="2.75" height="18.55" rx="1.37" ry="1.37" transform="translate(-8.68 27.97) rotate(-9.78)" fill="#616161"/><rect x="229.09" y="29.74" width="8.24" height="4.81" transform="translate(-9.07 31.1) rotate(-9.78)" fill="#616161"/><rect x="227.97" y="16.57" width="2.75" height="18.55" rx="1.37" ry="1.37" transform="translate(-8.06 30.35) rotate(-9.78)" fill="#616161"/><rect x="233.38" y="15.63" width="2.75" height="18.55" rx="1.37" ry="1.37" transform="translate(-7.82 31.26) rotate(-9.78)" fill="#616161"/><rect x="248.73" y="26.36" width="8.24" height="4.81" transform="translate(-8.21 34.39) rotate(-9.78)" fill="#616161"/><rect x="247.6" y="13.18" width="2.75" height="18.55" rx="1.37" ry="1.37" transform="translate(-7.2 33.64) rotate(-9.78)" fill="#616161"/><rect x="253.02" y="12.25" width="2.75" height="18.55" rx="1.37" ry="1.37" transform="translate(-6.96 34.55) rotate(-9.78)" fill="#616161"/><rect x="268.36" y="22.97" width="8.24" height="4.81" transform="translate(-7.35 37.68) rotate(-9.78)" fill="#616161"/><rect x="267.23" y="9.8" width="2.75" height="18.55" rx="1.37" ry="1.37" transform="matrix(0.99, -0.17, 0.17, 0.99, -6.34, 36.93)" fill="#616161"/><rect x="272.65" y="8.86" width="2.75" height="18.55" rx="1.37" ry="1.37" transform="translate(-6.1 37.83) rotate(-9.78)" fill="#616161"/></g></svg>