<svg xmlns="http://www.w3.org/2000/svg" xmlns:xlink="http://www.w3.org/1999/xlink" viewBox="0 0 337 311"><defs><style>.cls-1{fill:url(#linear-gradient);}.cls-2{fill:#99713d;}.cls-3{fill:#a39c83;}.cls-4{fill:#d4caaa;}.cls-5{fill:#fffae8;}.cls-6{fill:#aba489;}.cls-7{fill:#d9d0ae;}.cls-8{fill:#383838;}.cls-9{fill:#616161;}</style><linearGradient id="linear-gradient" x1="105" y1="208" x2="245.05" y2="67.95" gradientUnits="userSpaceOnUse"><stop offset="0" stop-opacity="0"/><stop offset="1" stop-opacity="0.1"/></linearGradient></defs><title>notebook</title><g id="Layer_5" data-name="Layer 5"><path class="cls-1" d="M329.69,179.31,203,306,80.73,183.73l-1.52-1.52L7,110,61.63,55.37,71,53.76l-1.14-6.63,2.37-2.37a.57.57,0,0,1,0,.14l1.44,8.39,2.71-.47L75,44.43a1.37,1.37,0,0,1,1.12-1.59l.23,0A1.39,1.39,0,0,1,77.7,44l1.44,8.39,11.51-2L89.2,42a1.39,1.39,0,0,1,1.13-1.59l.23,0a1.39,1.39,0,0,1,1.35,1.14l1.45,8.39,2.71-.46L94.62,41a1.37,1.37,0,0,1,1.12-1.59l.24,0a1.38,1.38,0,0,1,1.35,1.14L98.77,49l11.51-2-1.44-8.39A1.37,1.37,0,0,1,110,37l.24,0a1.38,1.38,0,0,1,1.35,1.14L113,46.52,115.7,46l-1.44-8.39a1.37,1.37,0,0,1,1.12-1.59l.22,0A1.38,1.38,0,0,1,117,37.2l1.45,8.39,11.51-2-1.45-8.39a1.38,1.38,0,0,1,1.12-1.59l.23,0a1.39,1.39,0,0,1,1.36,1.14l1.45,8.4,2.7-.47-1.44-8.39A1.37,1.37,0,0,1,135,32.69l.24,0a1.38,1.38,0,0,1,1.35,1.14L138,42.2l11.51-2-1.44-8.39a1.37,1.37,0,0,1,1.12-1.59l.24,0a1.38,1.38,0,0,1,1.35,1.14l1.44,8.39,2.71-.46-1.45-8.4a1.37,1.37,0,0,1,1.12-1.58l.24,0a1.38,1.38,0,0,1,1.35,1.14l1.45,8.39,11.51-2-1.45-8.39a1.37,1.37,0,0,1,1.12-1.59l.22,0A1.38,1.38,0,0,1,170.45,28l1.44,8.39,2.71-.47-1.44-8.39a1.37,1.37,0,0,1,1.12-1.59l.24,0A1.38,1.38,0,0,1,175.87,27l1.44,8.39,11.51-2-1.44-8.39a1.37,1.37,0,0,1,1.12-1.59l.23,0a1.38,1.38,0,0,1,1.35,1.14L191.53,33l2.71-.46-1.45-8.4a1.37,1.37,0,0,1,1.12-1.58l.24,0a1.38,1.38,0,0,1,1.35,1.14L196.94,32l10.42-1.79,1.07,1.07.29.29.78.78L212.09,35l2.76,2.76L261,83.88l0,0L324.13,147Z"/></g><g id="Layer_1" data-name="Layer 1"><polygon class="cls-2" points="330.11 181.72 326.69 182.31 115.68 218.68 86.37 223.73 79.21 182.21 58.29 60.83 59.52 60.62 60.73 60.41 61.95 60.2 71.83 58.5 74.54 58.03 77.25 57.56 79.96 57.1 79.96 57.09 91.47 55.11 94.18 54.64 96.89 54.18 99.59 53.71 111.1 51.73 113.81 51.26 116.52 50.79 119.22 50.33 119.23 50.33 130.73 48.34 130.74 48.34 133.45 47.88 136.15 47.41 138.86 46.94 150.37 44.96 153.08 44.49 155.79 44.03 158.49 43.56 158.5 43.56 170 41.58 170.01 41.57 172.71 41.11 175.42 40.64 178.13 40.17 189.64 38.19 192.35 37.72 195.06 37.26 197.76 36.79 209.27 34.81 211.52 34.42 211.98 34.34 214.69 33.87 217.39 33.41 217.4 33.41 228.9 31.42 228.91 31.42 231.62 30.96 234.32 30.49 237.03 30.02 248.54 28.04 251.25 27.57 253.96 27.11 256.66 26.64 256.67 26.64 268.17 24.66 268.18 24.65 270.88 24.19 273.59 23.72 276.3 23.25 297.16 19.66 298.37 19.45 299.59 19.24 302.03 18.82 324.13 147.03 329.69 179.31 330.11 181.72"/><rect class="cls-3" x="71.44" y="36.64" width="241.15" height="165.71" transform="translate(-17.51 34.35) rotate(-9.78)"/><rect class="cls-4" x="73.67" y="35" width="241.15" height="165.71" transform="translate(-17.2 34.71) rotate(-9.78)"/><polygon class="cls-5" points="325.7 178.01 324.49 178.22 111.87 214.87 89.28 218.77 88.06 218.98 82.25 185.25 60.73 60.41 60.33 58.11 60.12 56.88 59.91 55.67 61.63 55.37 71.01 53.76 73.72 53.29 76.43 52.82 79.14 52.35 90.65 50.37 93.36 49.9 96.07 49.44 98.77 48.97 110.28 46.99 112.99 46.52 115.7 46.05 118.41 45.59 129.92 43.6 132.63 43.14 135.33 42.67 138.04 42.2 149.55 40.22 152.26 39.75 154.97 39.29 157.68 38.82 169.19 36.83 171.89 36.37 174.6 35.9 177.31 35.43 188.82 33.45 191.53 32.98 194.24 32.52 196.94 32.05 207.36 30.26 208.45 30.07 211.16 29.6 213.87 29.13 216.58 28.67 228.09 26.68 230.8 26.22 233.5 25.75 236.21 25.28 247.72 23.3 250.43 22.83 253.14 22.36 255.85 21.9 267.36 19.91 270.06 19.45 272.77 18.98 275.48 18.51 297.55 14.71 297.76 15.93 298.37 19.45 319.57 142.47 325.7 178.01"/></g><g id="Layer_2" data-name="Layer 2"><polygon class="cls-6" points="318.55 158.61 302.53 181.22 302.51 181.25 297.87 163.92 300.02 163.26 307.18 161.07 318.55 158.61"/><polygon class="cls-7" points="322.67 157.72 302.69 182.37 302.53 181.22 300.02 163.26 299.93 162.64 307.18 161.07 318.55 158.61 322.67 157.72"/><path class="cls-8" d="M126.88,104c-1.07-7.21-6.77-13.1-13.07-16.22-1.77-.88-3.64-1.63-5.47-2.4a12.28,12.28,0,0,1-2.52-1c-1.65-1.24-1.35,0-.6-2,.55-1.48,8.78-7.71,8.87-7.47a.7.7,0,0,0,1.37-.18v-.6a.79.79,0,0,0-.4-.69c-3.81-1.88-8.69,3.67-10.94,6-3.31,3.5-3.15,5.81,1.38,7.73,8.78,3.72,18.69,8.44,18.63,19.6,0,5.46-2.15,11.25-7.63,13.27-5,1.84-9.54.42-14.5-.46a.89.89,0,0,0-.47,1.72c6.45,2.24,13.77,4.27,19.84-.53C126.07,117.1,127.73,109.73,126.88,104Z"/><path class="cls-8" d="M145.63,111.62c-2.72,1.63-7.07,4.67-9,.43-1.1-2.38-.84-5.7-.54-8.22l0-.12a10.65,10.65,0,0,0,4.85-3.66c1.08-1.73,2.18-4,.61-5.87-1.26-1.49-3-1.06-4.42.13-1.94,1.66-3,4.32-3.56,7.23a2.57,2.57,0,0,1-.4-.74c-.25-.71-1.41-.65-1.38.19.06,1.65.64,2.53,1.49,2.88a25.52,25.52,0,0,0,.87,8.85c2.09,6.86,8.65,3.3,12.35,0C147.14,112.21,146.33,111.2,145.63,111.62Zm-5.8-15.35c.42.22-1.13,2.86-1.28,3.08a10.26,10.26,0,0,1-2,2C137.05,98.8,138.13,95.35,139.83,96.27Z"/><path class="cls-8" d="M159.2,111.44c-.64-4.37-1.49-8.75-2.27-13.11-1.82-10.19-2.91-20.56-5.05-30.68-.16-.76-1.32-.49-1.28.17h0c-.55,4.39.42,9.2,1,13.58.6,4.54,1.39,9.09,2.19,13.6.71,4,1.11,8,1.92,12,.72,3.51,2,7.66,1.91,11.28a.89.89,0,0,0,1.51.62C160.75,117.3,159.47,113.27,159.2,111.44Z"/><path class="cls-8" d="M181.4,106.9c-3,2.51-8.91,4.74-11.4.18a13.24,13.24,0,0,1-1.14-7.63,12.92,12.92,0,0,0,3.82-1.81c2.28-1.6,5.27-4.35,4.9-7.49a4.08,4.08,0,0,0-4.81-3.3c-3.32.64-5.13,5.2-6,8-.18.61-.34,1.22-.48,1.84-.81.07-1.42.07-1.32-.1a.61.61,0,0,0-.83-.83c-1.35.9-1.29,1.87-.21,2.94a3.66,3.66,0,0,0,1.87,1,17,17,0,0,0,.92,7.52c3,8.1,11.58,6.46,16,.77C183.36,107.11,182.08,106.34,181.4,106.9ZM170.92,92.47C171.37,91.86,173,90,174,90c1.84.9,1,2,0,3a17.17,17.17,0,0,1-4.38,3.16l-.12,0A15.49,15.49,0,0,1,170.92,92.47Z"/><path class="cls-8" d="M200.75,97.29c-.53,2.66-1.05,6.7-3.33,8.5-4.39,3.47-9.33-2.6-9.92-6.3a15,15,0,0,1,2-10.06c.62-1,2-3.53,3.28-3.4l.23,0c1.27.13,1.29-1.92,0-2-3.72-.26-6.36,4-7.43,7.09-1.6,4.61-2,10.55,1.38,14.49,2.51,2.93,7.12,5.37,10.88,3.5,4.07-2,4.48-7.68,4.47-11.64C202.28,96.65,200.93,96.41,200.75,97.29Z"/><path class="cls-8" d="M217.82,79.76c-1,.55-2.49.61-3.6,1.06l-1.25.52c-.2-3.16-.39-6.36-.81-9.48A65.19,65.19,0,0,0,211,65.16c-.36-1.47,0-2.16-1.37-4.91-.27-.52-.83-.82-1.11-.3-1.35,2.54-.09,6.33.29,9,.55,3.81.84,7.61,1.12,11.44.05.72.11,1.44.17,2.15l-.68.25a14.3,14.3,0,0,1-4.7.82c-1.07,0-1.77-.27-2.71.25a1.11,1.11,0,0,0-.55,1c0,.67.2.89.76,1.25a.61.61,0,0,0,.57,0,1.57,1.57,0,0,0,.7.15l.86.13a11.29,11.29,0,0,0,2.44,0,15.39,15.39,0,0,0,3.56-.81c.56,6.83,1.2,13.63,1.87,20.45a.84.84,0,0,0,1.63.22c1.35-3.57.42-8.1.12-11.84-.27-3.31-.51-6.59-.74-9.9,2.11-.77,5.09-1.82,5.89-3.76C219.38,80,218.41,79.45,217.82,79.76Z"/><path class="cls-8" d="M244.91,93.16c-2.5,2.27-4.57,5.06-7.67,6.62-5.18,2.61-9.34-.58-9.81-6.06a15.55,15.55,0,0,1,0-1.85c2.57-1.63,4.85-3.86,5.54-5.31,2.4-5.07-4.49-7.11-6.87-2.59a16.39,16.39,0,0,0-1.64,5.75c-1.89.71-3.62,1.39-3.82,2.45a.63.63,0,0,0-1-.6l-.33.3a.78.78,0,0,0,0,1.09c1.19,1.26,3.1,1.19,5.13.45.29,3.76,1.7,7.35,4.57,9.18,7.09,4.53,13.23-3.39,17.17-8.23A.84.84,0,0,0,244.91,93.16ZM229,85c1.78-.61,2-1,1,1-1,1-1.3,1.71-2.21,2.25C227.87,87.54,228.81,85.69,229,85Z"/><path class="cls-8" d="M261.25,85.58c-.37-3.06-.67-6.13-.84-9.16-.21-3.74-.55-7.47-.76-11.21-.2-3.46-1.11-7.9-.26-11.28.18-.71-.88-1.22-1.22-.51-3.09,6.29-.81,15.61-.52,22.35q.06,1.46.16,2.95c-.18-.21-.35-.43-.54-.63-3.73-3.92-7.3-3.06-9.77,1.29-2.62,4.62-1.07,12.4,1.85,16.66,2.63,3.83,7.62,6.82,11.41,3a.68.68,0,0,0,.2-.65,1.25,1.25,0,0,0,2-.95A47.56,47.56,0,0,0,261.25,85.58Zm-1.2,12.21c-4.15.74-7.67-.75-9.52-4.78-1.35-2.95-2.77-9.79-1.07-12.49,3.76-6,7.52.18,8.87,4.08a108.23,108.23,0,0,0,2.23,13.16,1.07,1.07,0,0,0,.07.16A.8.8,0,0,0,260.05,97.79Z"/><path class="cls-8" d="M182.19,134.3c.51-1-.88-2.34-1.72-1.33-4,4.85-5.69,11.27-7.12,17.31a63.68,63.68,0,0,0-1.67,21.1c0,.34.09.68.15,1-.71-1.36-1.59-2.76-2.12-3.85a131.7,131.7,0,0,1-7.93-20.84,1.37,1.37,0,0,0-2.67.36,140.32,140.32,0,0,1-3.07,19.39c-.71,3.18-1.64,6.49-2.34,9.78-2.51-6.73-5.08-13.36-8.22-19.91a124,124,0,0,0-7-12.63c-1.68-2.66-3.78-6.49-6.53-8.12a.82.82,0,0,0-1.19.91c.33,1-.61.8.24,1.52.16.13.83,1,1,1,2.17,2.49,3.53,5.38,5,8,2.26,4,4.07,7.79,6,12,3.37,7.36,7.1,15.14,9.92,22.67a1.33,1.33,0,0,0,2.61-.35c.56-5.52,2.55-11.33,3.81-16.75a100.51,100.51,0,0,0,1.85-10.83c1.36,3.93,2.89,7.77,4.62,11.66,1.6,3.6,3.15,9.4,6.36,12a1.35,1.35,0,0,0,1.59.21c1.38-1,1.17-2.59,1.05-4.17a89.59,89.59,0,0,1-.59-10.59A73.09,73.09,0,0,1,182.19,134.3Z"/><path class="cls-8" d="M198.65,151.51c-1.11-1.89-3.5-4.18-5.81-4.44s-2.95,1.59-4,3.31c-.42.71.6,1.55,1.17.9,1.19-1.36,1.24-2.43,3.74-1.21a7.13,7.13,0,0,1,3.47,4.71,8.87,8.87,0,0,1-3.18,8.77c-4.07,3.33-6.74-1.38-7.77-4.79a15.58,15.58,0,0,1-.61-4.56c0,.1.67-4.5,1.06-4.24s.94-.3.75-.75l-.24-.56a.72.72,0,0,0-.82-.33c-4.11,1.52-2.8,9.79-1.63,12.83,1.7,4.41,5.53,8.11,10.25,4.71C199.46,162.7,201.51,156.36,198.65,151.51Z"/><path class="cls-8" d="M212.09,144.84c-2.6,3.48-3.33,7.85-4,12.13-.37-1.42-.83-2.82-1.14-4.25-.45-2.06-.9-4.13-2.39-5.71-.52-.55-1.63,0-1.33.77l.24.61s0,0,.05.06c1.07,2.45,1.36,5.33,2,7.88.59,2.26.46,4.89,1.66,6.93a1.17,1.17,0,0,0,2.12-.28c.8-3.14.88-6.42,1.84-9.54.27-.88,3.54-9.11,4.84-6.45.25.51,1.91.58,2,0C218.56,143.48,214.13,142.11,212.09,144.84Z"/><path class="cls-8" d="M242,155.44c-2.62-4.07-7.16-5.71-10.26-9.11a1.31,1.31,0,0,0-.53-.33,60.12,60.12,0,0,1,3.38-5.39c1.41-2.15,2.29-4.73,3.74-6.8h0c.41-.73-.43-1.88-1.25-1.27-2,1.5-3.27,4.69-4.68,6.78a48.75,48.75,0,0,0-4.17,6.63c-.19-.86-.35-1.67-.48-2.4-1.14-6.71-2.15-13.58-4.82-19.9-.27-.64-1.36-.31-1.3.35.5,6.12,2.4,12.14,3.26,18.25.82,5.75,2.66,12.17,2.64,18,0,.75,1.13,1.14,1.48.4,1.44-3,.71-7.62-.15-11.76l.22,0a4,4,0,0,0,1.22,0,44.61,44.61,0,0,0,3.77,2.77c2.19,1.72,4.07,3.78,6.45,5.25A1.12,1.12,0,0,0,242,155.44Z"/><path class="cls-8" d="M255.94,148.94c-1.59-2.32-5.94-2.6-7.12-4.6-1.72-2.92,3.5-7.22,5.27-9.5a.84.84,0,0,0-1-1.31c-3.09,1.69-8.56,6.48-7.78,10.62.34,1.78,1.72,2.58,3.17,3.47,3.14,1.92,8.24,2.36,3.48,8.69-.79,1.05-2.37,1.88-3.33,2.82a.88.88,0,0,0,1.07,1.38C254.07,158.27,259.83,154.62,255.94,148.94Z"/></g><g id="Layer_3" data-name="Layer 3"><rect class="cls-9" x="72.02" y="56.82" width="8.24" height="4.81" transform="translate(-8.95 13.79) rotate(-9.78)"/><path class="cls-9" d="M73.86,62h0A1.36,1.36,0,0,1,72.27,61s0,0,0,0a0,0,0,0,1,0,0l-.42-2.44-.16-1-.24-1.35L71.22,55,71,53.76l-1.14-6.63-.3-1.77a1.37,1.37,0,0,1,1.12-1.58l.24,0a1.36,1.36,0,0,1,1.31,1,.57.57,0,0,1,0,.14l1.44,8.39.21,1.22.21,1.22.24,1.35.16,1L75,60.47A1.36,1.36,0,0,1,73.86,62Z"/><path class="cls-9" d="M79.26,61.12A1.37,1.37,0,0,1,77.67,60l-.42-2.44-.16-.94-.24-1.36L76.64,54l-.21-1.22L75,44.43a1.37,1.37,0,0,1,1.12-1.59l.23,0A1.39,1.39,0,0,1,77.7,44l1.44,8.39.21,1.23.21,1.22.24,1.35.16.94h0l.42,2.44h0A1.36,1.36,0,0,1,79.26,61.12Z"/><rect class="cls-9" x="91.65" y="53.43" width="8.24" height="4.81" transform="translate(-8.09 17.08) rotate(-9.78)"/><path class="cls-9" d="M93.48,58.67a1.37,1.37,0,0,1-1.59-1.12l-.42-2.44-.16-.94-.24-1.36-.21-1.22-.21-1.22L89.2,42a1.39,1.39,0,0,1,1.13-1.59l.23,0a1.39,1.39,0,0,1,1.35,1.14l1.45,8.39.21,1.22.21,1.23L94,53.7l.16.94.42,2.45A1.38,1.38,0,0,1,93.48,58.67Z"/><path class="cls-9" d="M98.89,57.74a1.36,1.36,0,0,1-1.58-1.12l-.42-2.44-.16-.94-.24-1.36-.21-1.22-.21-1.22L94.62,41a1.37,1.37,0,0,1,1.12-1.59l.24,0a1.38,1.38,0,0,1,1.35,1.14L98.77,49,99,50.19l.21,1.22.24,1.36.16.94.42,2.44A1.37,1.37,0,0,1,98.89,57.74Z"/><rect class="cls-9" x="111.29" y="50.05" width="8.24" height="4.81" transform="translate(-7.23 20.37) rotate(-9.78)"/><path class="cls-9" d="M113.13,55.28h0a1.36,1.36,0,0,1-1.54-1.07s0,0,0,0l-.42-2.44-.16-1-.24-1.35-.21-1.22L110.28,47l-1.44-8.39A1.37,1.37,0,0,1,110,37l.24,0a1.38,1.38,0,0,1,1.35,1.14L113,46.52l.21,1.22.21,1.22.24,1.35.16,1,.42,2.44A1.36,1.36,0,0,1,113.13,55.28Z"/><path class="cls-9" d="M118.53,54.35a1.37,1.37,0,0,1-1.59-1.12l-.42-2.44-.16-.94-.24-1.36-.21-1.22L115.7,46l-1.44-8.39a1.37,1.37,0,0,1,1.12-1.59l.22,0A1.38,1.38,0,0,1,117,37.2l1.45,8.39.21,1.22.21,1.22.23,1.35.17.95.42,2.44v0A1.36,1.36,0,0,1,118.53,54.35Z"/><rect class="cls-9" x="130.92" y="46.66" width="8.24" height="4.81" transform="translate(-6.37 23.65) rotate(-9.78)"/><path class="cls-9" d="M132.74,51.9a1.37,1.37,0,0,1-1.58-1.12l-.42-2.44-.16-.94L130.34,46l-.21-1.22-.21-1.22-1.45-8.39a1.38,1.38,0,0,1,1.12-1.59l.23,0a1.39,1.39,0,0,1,1.36,1.14l1.45,8.4.21,1.22.21,1.22.24,1.35.16,1,.42,2.44A1.38,1.38,0,0,1,132.74,51.9Z"/><path class="cls-9" d="M138.16,51a1.37,1.37,0,0,1-1.59-1.12l-.42-2.44-.16-.94-.24-1.36-.21-1.22-.21-1.22-1.44-8.39A1.37,1.37,0,0,1,135,32.69l.24,0a1.38,1.38,0,0,1,1.35,1.14L138,42.2l.21,1.22.21,1.22L138.7,46l.16.94.42,2.44A1.37,1.37,0,0,1,138.16,51Z"/><rect class="cls-9" x="150.56" y="43.28" width="8.24" height="4.81" transform="translate(-5.51 26.94) rotate(-9.78)"/><path class="cls-9" d="M152.42,48.51h-.09a1.36,1.36,0,0,1-1.54-1.12L150.37,45l-.16-.95L150,42.66l-.21-1.22-.21-1.22-1.44-8.39a1.37,1.37,0,0,1,1.12-1.59l.24,0a1.38,1.38,0,0,1,1.35,1.14l1.44,8.39.21,1.22.21,1.22.24,1.35.16,1,.42,2.44A1.37,1.37,0,0,1,152.42,48.51Z"/><path class="cls-9" d="M158.92,46v0a1.37,1.37,0,0,1-1.06,1.53l-.06,0h-.09a1.38,1.38,0,0,1-1.5-1.13L155.79,44l-.17-1-.23-1.35-.21-1.22L155,39.29l-1.45-8.4a1.37,1.37,0,0,1,1.12-1.58l.24,0a1.38,1.38,0,0,1,1.35,1.14l1.45,8.39.21,1.22.21,1.22.23,1.35.17,1Z"/><rect class="cls-9" x="170.19" y="39.89" width="8.24" height="4.81" transform="translate(-4.65 30.23) rotate(-9.78)"/><path class="cls-9" d="M172,45.13A1.36,1.36,0,0,1,170.43,44L170,41.57l-.16-.94-.24-1.35L169.4,38l-.21-1.22-1.45-8.39a1.37,1.37,0,0,1,1.12-1.59l.22,0A1.38,1.38,0,0,1,170.45,28l1.44,8.39.21,1.22.21,1.22.24,1.35.16,1,.42,2.44A1.36,1.36,0,0,1,172,45.13Z"/><path class="cls-9" d="M177.43,44.2a1.37,1.37,0,0,1-1.59-1.12l-.42-2.44-.16-.94L175,38.34l-.21-1.22-.21-1.22-1.44-8.39a1.37,1.37,0,0,1,1.12-1.59l.24,0A1.38,1.38,0,0,1,175.87,27l1.44,8.39.21,1.22.22,1.23.23,1.35.16.94.42,2.44v0A1.36,1.36,0,0,1,177.43,44.2Z"/><rect class="cls-9" x="189.82" y="36.51" width="8.24" height="4.81" transform="translate(-3.79 33.51) rotate(-9.78)"/><path class="cls-9" d="M191.69,41.74h-.09a1.36,1.36,0,0,1-1.54-1.12l-.42-2.44-.16-1-.24-1.35L189,34.67l-.21-1.22-1.44-8.39a1.37,1.37,0,0,1,1.12-1.59l.23,0a1.38,1.38,0,0,1,1.35,1.14L191.53,33l.21,1.22.21,1.22.23,1.35.17,1,.42,2.44A1.37,1.37,0,0,1,191.69,41.74Z"/><path class="cls-9" d="M197.11,40.81H197a1.37,1.37,0,0,1-1.51-1.13l-.42-2.44-.17-1L194.66,35l-.21-1.22-.21-1.22-1.45-8.4a1.37,1.37,0,0,1,1.12-1.58l.24,0a1.38,1.38,0,0,1,1.35,1.14L196.94,32l.21,1.22.21,1.22.24,1.35.16,1,.42,2.44A1.37,1.37,0,0,1,197.11,40.81Z"/><rect class="cls-9" x="209.46" y="33.13" width="8.24" height="4.81" transform="translate(-2.93 36.8) rotate(-9.78)"/><rect class="cls-9" x="208.33" y="19.95" width="2.75" height="18.55" rx="1.37" ry="1.37" transform="matrix(0.99, -0.17, 0.17, 0.99, -1.92, 36.05)"/><rect class="cls-9" x="213.75" y="19.02" width="2.75" height="18.55" rx="1.37" ry="1.37" transform="translate(-1.68 36.95) rotate(-9.78)"/><rect class="cls-9" x="229.09" y="29.74" width="8.24" height="4.81" transform="translate(-2.07 40.08) rotate(-9.78)"/><rect class="cls-9" x="227.97" y="16.57" width="2.75" height="18.55" rx="1.37" ry="1.37" transform="translate(-1.06 39.33) rotate(-9.78)"/><rect class="cls-9" x="233.38" y="15.63" width="2.75" height="18.55" rx="1.37" ry="1.37" transform="translate(-0.82 40.24) rotate(-9.78)"/><rect class="cls-9" x="248.73" y="26.36" width="8.24" height="4.81" transform="translate(-1.21 43.37) rotate(-9.78)"/><rect class="cls-9" x="247.6" y="13.18" width="2.75" height="18.55" rx="1.37" ry="1.37" transform="translate(-0.2 42.62) rotate(-9.78)"/><rect class="cls-9" x="253.02" y="12.25" width="2.75" height="18.55" rx="1.37" ry="1.37" transform="translate(0.04 43.53) rotate(-9.78)"/><rect class="cls-9" x="268.36" y="22.97" width="8.24" height="4.81" transform="translate(-0.35 46.66) rotate(-9.78)"/><rect class="cls-9" x="267.23" y="9.8" width="2.75" height="18.55" rx="1.37" ry="1.37" transform="matrix(0.99, -0.17, 0.17, 0.99, 0.66, 45.91)"/><rect class="cls-9" x="272.65" y="8.86" width="2.75" height="18.55" rx="1.37" ry="1.37" transform="translate(0.9 46.81) rotate(-9.78)"/></g></svg>