<svg id="Layer_1" data-name="Layer 1" xmlns="http://www.w3.org/2000/svg" xmlns:xlink="http://www.w3.org/1999/xlink" viewBox="0 0 282 400"><defs><style>.cls-1{fill:url(#linear-gradient);}.cls-2{fill:#a6d750;}.cls-3{fill:#8ab342;}.cls-4{fill:#bdf25e;}.cls-5,.cls-6{fill:none;}.cls-5{stroke:#ababab;stroke-miterlimit:10;}.cls-7{fill:#b3b3b3;}.cls-8{fill:#bababa;}.cls-9{fill:#ed8190;}.cls-10{fill:#ff8c9c;}.cls-11{fill:#e6c686;}.cls-12{fill:#ffdc96;}.cls-13{fill:#303030;}</style><linearGradient id="linear-gradient" x1="74.45" y1="341.45" x2="343.46" y2="72.43" gradientUnits="userSpaceOnUse"><stop offset="0" stop-opacity="0"/><stop offset="0.59" stop-color="#231f20" stop-opacity="0.05"/><stop offset="1" stop-opacity="0.1"/></linearGradient></defs><title>pencil</title><polygon class="cls-1" points="278.41 7.38 277.3 19.27 277.16 19.23 273.95 50.37 186.13 334.09 184.73 338.62 183.2 343.56 181.67 348.5 180.14 353.44 178.74 357.97 174.58 371.42 168.1 377.91 139.5 406.5 9.4 276.4 275.65 10.14 275.8 9.99 278.41 7.38"/><rect class="cls-2" x="72.94" y="186.14" width="297" height="6.86" transform="translate(-25.13 345.05) rotate(-72.8)"/><rect class="cls-3" x="67.21" y="184.79" width="297" height="6" transform="translate(-27.47 338.33) rotate(-72.8)"/><polygon class="cls-4" points="273.95 50.37 186.13 334.09 180.81 332.44 180.4 332.31 268.22 48.6 268.22 48.59 268.63 48.72 273.95 50.37"/><line class="cls-5" x1="167.53" y1="333.29" x2="184.73" y2="338.62"/><line class="cls-5" x1="166" y1="338.24" x2="183.2" y2="343.56"/><line class="cls-5" x1="164.47" y1="343.18" x2="181.67" y2="348.5"/><line class="cls-5" x1="162.94" y1="348.12" x2="180.14" y2="353.44"/><path class="cls-6" d="M175,329c-.9,2.49-17.1,48.18-13,49"/><path class="cls-7" d="M174.52,330.49l-.26-.08-5.33-1.65-1.4,4.53-1.53,5-1.53,4.94-1.53,4.94-1.4,4.53,5.49,1.7C170.1,344.34,173.33,334.21,174.52,330.49Z"/><path class="cls-8" d="M180.81,332.44l-.41-.13-5.73-1.77-.15,0c-1.19,3.71-4.42,13.85-7.49,23.85L178.74,358l1.4-4.53,1.53-4.94,1.53-4.94,1.53-4.94,1.4-4.53Z"/><line class="cls-5" x1="167.53" y1="333.29" x2="184.73" y2="338.62"/><line class="cls-5" x1="166" y1="338.24" x2="183.2" y2="343.56"/><line class="cls-5" x1="164.47" y1="343.18" x2="181.67" y2="348.5"/><line class="cls-5" x1="162.94" y1="348.12" x2="180.14" y2="353.44"/><path class="cls-9" d="M162.12,370.84c1.26-4.49,3.06-10.47,4.91-16.49l-5.49-1.7L157,367.25a7.72,7.72,0,0,0,5.08,9.65l1,.3A9.63,9.63,0,0,1,162.12,370.84Z"/><path class="cls-10" d="M162.12,370.84a9.63,9.63,0,0,0,1,6.36l1.48.46a7.7,7.7,0,0,0,9.65-5.08l.36-1.16L178.74,358,167,354.35C165.17,360.38,163.38,366.35,162.12,370.84Z"/><path class="cls-6" d="M175,329s-9,28-12.88,41.84c-.57,4.22-1.08,7-.12,7.16"/><path class="cls-6" d="M175,329l-12.88,41.84S160,377,164,378"/><polygon class="cls-11" points="271.7 17.53 256.76 45.05 262.08 46.69 262.08 46.7 262.45 46.81 273.36 18.05 271.7 17.53"/><polygon class="cls-12" points="262.45 46.81 262.49 46.82 268.22 48.6 268.63 48.72 273.95 50.37 277.16 19.23 273.36 18.05 262.45 46.81"/><polygon class="cls-13" points="277.85 6.21 277.89 6.1 275.65 10.14 271.57 17.49 271.7 17.53 275.8 9.99 277.85 6.21"/><polygon class="cls-13" points="278.66 4.72 277.89 6.1 277.85 6.21 278.66 4.72"/><polygon class="cls-13" points="278.38 7.41 277.16 19.23 277.3 19.27 278.41 7.38 278.66 4.72 278.38 7.41"/><polygon class="cls-13" points="278.66 4.72 277.85 6.21 273.36 18.05 277.16 19.23 278.38 7.41 278.66 4.72"/><polygon class="cls-13" points="277.85 6.21 275.8 9.99 271.7 17.53 273.36 18.05 277.85 6.21"/></svg>