<svg xmlns="http://www.w3.org/2000/svg" xmlns:xlink="http://www.w3.org/1999/xlink" width="400" height="400" viewBox="0 0 400 400"><defs><linearGradient id="linear-gradient" x1="147.25" y1="305.25" x2="348.25" y2="104.25" gradientUnits="userSpaceOnUse"><stop offset="0" stop-opacity="0"/><stop offset="1" stop-opacity="0.3"/></linearGradient><linearGradient id="linear-gradient-2" x1="198.41" y1="269.36" x2="380.29" y2="87.48" gradientTransform="translate(-6.56 -8.87)" gradientUnits="userSpaceOnUse"><stop offset="0" stop-color="#37435b"/><stop offset="1" stop-color="#4b717c"/></linearGradient></defs><title>phone</title><g id="Layer_4" data-name="Layer 4"><path d="M372,128,326.58,308.18a21.5,21.5,0,0,1-1.2,3.44l-10.46,10.46L239.5,397.5,55,213,240,28l11.26-11.26a20.57,20.57,0,0,1,8-1.61Z" fill="url(#linear-gradient)"/></g><g id="Layer_1" data-name="Layer 1"><path d="M387.07,68.26,372,128,326.58,308.18a21.5,21.5,0,0,1-1.2,3.44,20.2,20.2,0,0,1-2.51,4.21,20.83,20.83,0,0,1-21.6,7.46L193.61,296.15a20.84,20.84,0,0,1-15.1-25.3L239,30.93A19.58,19.58,0,0,1,240,28a20.24,20.24,0,0,1,3.69-5.88,21,21,0,0,1,15.52-7,21.14,21.14,0,0,1,5.13.64L372,43A20.84,20.84,0,0,1,387.07,68.26Z" fill="#171717"/><rect x="170" y="100.45" width="225.57" height="138.2" transform="translate(49.24 402.31) rotate(-75.85)" fill="#fff"/><path d="M260.14,300.19a10.72,10.72,0,1,1-10.09-16.89,10.33,10.33,0,1,0,10.09,16.89Z" fill="#424242"/><rect x="294.49" y="44.75" width="38.92" height="2.38" rx="1.19" ry="1.19" transform="translate(20.76 -75.36) rotate(14.15)" fill="#404040"/><circle cx="283.82" cy="38.76" r="2.38" transform="translate(176.85 304.49) rotate(-75.85)" fill="#424242"/></g><g id="Layer_3" data-name="Layer 3"><rect x="213.69" y="56.77" width="138.2" height="225.57" transform="translate(50.03 -63.99) rotate(14.15)" fill="url(#linear-gradient-2)"/><text transform="translate(249 61.51) rotate(14.15)" font-size="8.74" fill="#d1d1d1" font-family="MyriadPro-Regular, Myriad Pro"><tspan letter-spacing="0.01em">I</tspan><tspan x="2.18" y="0">n</tspan><tspan x="7.02" y="0" letter-spacing="-0.01em">c</tspan><tspan x="10.89" y="0">oming call</tspan></text><text transform="translate(246.63 132.18) rotate(14.15)" font-size="16.68" fill="#f2f2f2" font-family="DroidSans-Bold, Droid Sans" font-weight="700">New Client</text><circle cx="222.44" cy="241.58" r="12.31" transform="translate(-66.18 398.21) rotate(-75.85)" fill="#f23838"/><path d="M216.82,242.89a7.85,7.85,0,0,1,2.28-.91.67.67,0,0,0,.51-.5l.23-1.71a10.42,10.42,0,0,1,6.46,1.6l-.56,1.66a.7.7,0,0,0,.22.69,7.66,7.66,0,0,1,1.57,1.88.69.69,0,0,0,.93.23l2-1.22a.71.71,0,0,0,.35-1,11.77,11.77,0,0,0-16-4,.72.72,0,0,0-.17,1l1.21,2A.69.69,0,0,0,216.82,242.89Z" fill="#e6e6e6"/><circle cx="299.46" cy="260.99" r="12.31" transform="translate(-26.83 487.56) rotate(-75.85)" fill="#25c25e"/><path d="M304.65,265.17a8.08,8.08,0,0,1-2.32-1,.69.69,0,0,0-.73,0l-1.41,1.08a10.72,10.72,0,0,1-3.54-5.86l1.62-.8a.72.72,0,0,0,.34-.66,7.87,7.87,0,0,1,.23-2.51.71.71,0,0,0-.51-.85L296,254a.73.73,0,0,0-1,.47A12.11,12.11,0,0,0,303.68,269a.74.74,0,0,0,.88-.64l.6-2.36A.71.71,0,0,0,304.65,265.17Z" fill="#e6e6e6"/></g><g id="black-screen"><rect x="213.69" y="56.77" width="138.2" height="225.57" transform="translate(50.03 -63.99) rotate(14.15)" fill="#242424"/></g></svg>