<svg id="Layer_2" data-name="Layer 2" xmlns="http://www.w3.org/2000/svg" width="500" height="500" viewBox="0 0 500 500"><title>wood-grain</title><path d="M-34,35.3c8.4-.1,16.8-1.1,25.2-1.2s17.3,3,26.2,5.4a177.3,177.3,0,0,0,53.8,5.6c19.6-.8,39-3.8,58.6-5.3a309.7,309.7,0,0,1,59.2,1.5c19.8,2.3,39.5,5,59.5,5.9a553.1,553.1,0,0,0,60.9-.8c39.6-2.6,78.7-8.7,118-14.2,11.4-1.6,23-3.1,34.5-3s20.7,2.3,30.9,4.5c19.5,4.1,39.5,1.6,59.3,1.6,2.9,0,2.9-4.5,0-4.5-9,0-17.9,0-26.9.5s-18.4.7-27.7-1.2-16.4-3.6-24.8-4.7-19.6-.6-29.3.4c-19.5,1.9-38.8,5.3-58.1,8s-40.7,5.3-61.1,7a580.3,580.3,0,0,1-120.5-2.2c-19.7-2.4-39.4-4.8-59.3-4.1S105,38,85.4,39.6c-21.2,1.8-42.5,1.6-63.3-3.6-9.3-2.3-18-6.1-27.7-6.4s-18.9,1-28.4,1.1c-2.9,0-2.9,4.5,0,4.5Z"/><path d="M-33,83.3H-9.1c7.6,0,14.8-1,22.3-1.6,15.4-1.3,30.9,5.7,45.9,8.4a212.7,212.7,0,0,0,45.4,3.4c15.4-.5,30.4-3.3,45.5-5.8s32.4-3.6,48.9-.9,30.1,6.8,45.1,10.2c29.7,6.8,59.1,6.7,89.1,2.1s61.1-12.9,92-18.1c13.8-2.3,29.4-5.7,43.2-1.8,6.5,1.8,14,5,17.6,11.1s.2,11.7-3.5,16.7-7.5,9-11.3,13.5-7.7,9.6-12.3,13.6-12.4,7.1-19.7,8.9a167.5,167.5,0,0,1-24.9,4.3c-12.2,1.1-27.3,2.5-38.3-4.5-5.6-3.5-8.6-9.7-6.8-16.3s8.1-11.5,13.9-14.6,14.5-5.5,21.8-7.4a112.5,112.5,0,0,1,22.7-3.7c8.5-.5,18.4-1.8,26.6,1,11.2,3.9-6.6,13-10.7,15.1a87.2,87.2,0,0,1-28.6,8.7c-6.1.7-12.7.8-18.2-2-2.6-1.3-4.9,2.6-2.3,3.9,11,5.6,25.5,2.7,36.7-.8,9-2.8,18.5-6.9,25.8-12.8,5.8-4.6,8.4-12.1.2-15.8s-19.9-2.4-29.2-1.9a119,119,0,0,0-23.3,3.6c-7.7,2-15.9,4.1-23.1,7.7-10.4,5.2-20.7,16.3-16.3,28.7,3.7,10.8,16.1,14.6,26.3,15.8,16.6,1.8,34.6-1.1,50.7-5.3,6.9-1.8,13.1-4.1,18.7-8.7s9.5-9.8,13.9-15.1c6.3-7.6,18.9-18.2,17.3-29.3S474.3,75,463.5,73.4c-15.3-2.2-31.9,1.7-46.9,4.4-35.6,6.5-70.8,16.5-107,19.4a200.7,200.7,0,0,1-53.5-2.4c-17.6-3.3-34.7-8.7-52.4-11.9a149.3,149.3,0,0,0-50.3-.5c-18.2,2.8-36.1,6.4-54.6,6.6A213,213,0,0,1,44,82c-8.1-2.1-16.3-4.5-24.7-5S2.9,78.7-5.3,78.8H-33c-2.9,0-2.9,4.5,0,4.5Z"/><path d="M-34,61.3c9.4.1,18.8.9,28.2.2a117.4,117.4,0,0,1,28.2.9c18.5,3.1,36,7,54.9,6.4s38.7-4.1,58-5.9,39.3-1.2,58.9,1.1,38.6,5.6,58.1,7.6A482.5,482.5,0,0,0,311,74a488.6,488.6,0,0,0,57.2-4.5c19.1-2.7,37.9-6.9,56.7-11,10.7-2.3,21.5-4.4,32.5-5,9.1-.5,20.7-1.2,29,3.2,2.5,1.4,5,2.9,7.8,3.6s8,.6,12,.7l31.8.3c2.9,0,2.9-4.5,0-4.5-9.5,0-18.9.1-28.4-.2-3.9-.1-8,.2-11.9-.2s-6.1-1.9-9-3.6c-6.3-3.4-14.1-3.8-21.1-4a142.1,142.1,0,0,0-26.4,2c-18.9,3-37.3,8.2-56.1,11.5A478.6,478.6,0,0,1,325.4,69a483.6,483.6,0,0,1-57.8-.6c-20.2-1.4-40.2-4.5-60.2-7.3s-38.5-4.7-57.8-3.9-38.7,4.3-58.1,6a196.8,196.8,0,0,1-32.2.6c-10.9-.8-21.5-3.4-32.2-5.3s-19.4-2.9-29.3-2-21.2.2-31.8.1c-2.9,0-2.9,4.5,0,4.5Z"/><path d="M-34,130.3c9.9,0,19.7.2,29.6-.7s17.9,3,27.4,5.4a245.3,245.3,0,0,0,57.1,7.7c20,.3,39.4-3.2,59.3-4.8s40,2.2,59.8,6.4,37.7,6.9,57.2,6.5,40.3-2.8,60.4-.6c36.6,4,70.9,26,108.5,20.6a82.1,82.1,0,0,0,25.2-7.6c8.6-4.3,15-10.6,21.1-17.8s13.8-14.3,24.9-15.4c8.8-.9,17.7.2,26.5.3,2.9,0,2.9-4.5,0-4.5-14.3-.1-31.2-3.5-43.7,5.4-6.8,4.8-11.3,12.1-17,18a56.3,56.3,0,0,1-23,13.8c-37.7,12.3-72.9-7.8-109.2-15.2-19.3-4-38.8-3-58.4-2.1s-40.3.5-60.5-3.5-37.5-8.7-56.8-9.3S114.9,137.1,95,138a242.8,242.8,0,0,1-67.3-6.4c-9.5-2.3-18.7-7.1-28.6-6.8-5.1.2-10.2.9-15.3.9H-34c-2.9,0-2.9,4.5,0,4.5Z"/><path d="M-28,163.3c10.7,0,21.5-.3,32.2.4s19.5,2.8,29,5.1,18.6,4.4,28.3,4.8A155.1,155.1,0,0,0,89.3,172c19.2-2.5,38.2-7.2,57.6-8.3a106.3,106.3,0,0,1,29.6,2.1c10.2,2.3,20,6.1,30.3,8.4,20.3,4.4,40.9,1,61.2-1.4a208.2,208.2,0,0,1,62.4,2c20,3.6,39.7,9,59.8,12.6,18.4,3.3,38,6,56.5,1.7,21.6-5,37.3-23.5,59.8-25.6,11.2-1.1,22.6-.1,33.8-.1H578c2.9,0,2.9-4.5,0-4.5-21.2,0-42.5-.5-63.7-.3-9.4.1-18.4,1.4-26.9,5.4s-16,9.4-24.2,13.8c-18.5,10.1-39,10-59.4,7.3s-40.9-8.2-61.4-12.5-39.3-7-59.2-5.7-41.8,6.3-62.9,4.8-38.6-11.2-58.9-12.4c-18.8-1.1-37.4,2.6-55.8,5.7-11.2,1.9-22.5,3.7-33.9,4.2s-22-1.1-33-3.7-20.5-4.9-31-5.9-23.9-.7-35.8-.7c-2.9,0-2.9,4.5,0,4.5Z"/><path d="M-34,208.3c19.5,0,39.1,1.4,58.6.3s36.1-5.5,53.8-11.1,34.8-11.5,53-14,37.3.5,55.8,6.6,33.9,9.8,52.4,9.1,37.5-4.3,56.3-5.5,37.6,2.4,56.3,7.7a316.2,316.2,0,0,0,55.1,10.7c21.5,2.1,42.9,1.4,64.4-.9s44-2.9,66.3-2.9c2.9,0,2.9-4.5,0-4.5-19.7,0-39.1.1-58.7,2.1s-38.4,3.7-57.8,2.8a285.4,285.4,0,0,1-58.3-8.8c-17.8-4.6-35.2-10.4-53.7-10.8s-37,3-55.4,4.8-37.7,1.1-56.4-4.9-33.6-11.4-51.9-11-35.3,4.9-52.2,10.1c-20.3,6.2-40.2,13.6-61.4,15.6s-44.1.3-66.1.3c-2.9,0-2.9,4.5,0,4.5Z"/><path d="M-42,236.3c18.1,0,36.3.6,54.3-1.7,8.3-1.1,16.4-2.5,24.6-4.3s15.9-3,22.7-7.2c2.5-1.5.2-5.4-2.3-3.9-6.7,4.2-14.9,5.4-22.5,7s-17.4,3.4-26.1,4.4c-16.8,1.9-33.7,1.2-50.6,1.2-2.9,0-2.9,4.5,0,4.5Z"/><path d="M-42,310.3c11.5,0,22.9-.4,34.4-1.1s21.8-2,32.7-1.5c20.3,1,39.7,8.1,59.3,12.7s38,5.3,57.2.6,38.7-13.8,57.7-21.5,40.4-14.4,61.7-13c10.7.7,21.1,3.9,31.8,5.2a320.2,320.2,0,0,1,34.3,5.6c21.8,5,43.4,10.4,65.5,13.7a499.2,499.2,0,0,0,64.8,5.5c11.8.2,23.4-.2,34.9-3.3,5.3-1.4,10.4-2.8,15.9-2.9s13.1,0,19.6,0H605c2.9,0,2.9-4.5,0-4.5H535.7c-10.7,0-21.9-1-32.5.3s-19.2,5-29.3,5.7c-22,1.4-44.6-.6-66.4-3.2s-44.7-7.4-66.9-12.7c-11-2.6-22.1-5.4-33.3-7s-21.1-2.2-31.5-4.6c-20.2-4.7-40.4-1.8-60,4.4s-38.2,15.7-57.7,22.6-40.5,10.6-61.7,7-42.7-12-64.7-14.5c-11.6-1.3-23.1,0-34.6.6-13.1.8-26.1,1.3-39.2,1.3-2.9,0-2.9,4.5,0,4.5Z"/><path d="M-42,285.3c10.3,0,20.5-.1,30.8,0,8.3.1,16.7.6,24.9-1.1,10.2-2.1,20.3-4.5,30.7-4.4s21.8,3,32.4,5.5,20.5,4.8,31.1,5.4a134.2,134.2,0,0,0,30.5-2.1c21-3.6,40.9-11.3,61.4-17.2,40.2-11.5,84.7-14,124.6-.2,9.8,3.4,19.6,6.9,29.8,8.8a209.1,209.1,0,0,0,31.7,3.3c22.2.8,44.4.7,66.5.9,50.8.6,101.7,1,152.5,1,2.9,0,2.9-4.5,0-4.5q-67.8,0-135.7-.8l-68.2-.8c-21.9-.3-43.4-1.5-64.4-8.4-9.7-3.2-19.3-7-29.3-9.4s-20-3.1-30.1-3.5c-20.4-.8-40.5.3-60.5,4.6s-40.7,12.2-61.3,17.6-43.4,8.1-65.6,3.5c-11.6-2.4-23-5.8-34.8-7.5s-20.8-.6-31.1,1.3c-5.7,1.1-11.3,2.7-17.1,3.2a140.9,140.9,0,0,1-14.5.2c-11.4-.2-22.9-.1-34.4-.1-2.9,0-2.9,4.5,0,4.5Z"/><path d="M-28,258.3q17.3,0,34.7-1c10.5-.6,21.6-.5,31.8-3.2,4.9-1.3,9.6-2.9,14.6-3.4a73,73,0,0,1,18.6.9c10.7,1.7,21.1,4.8,31.8,6.3a70.4,70.4,0,0,0,30.3-1.9c9.5-2.8,17.8-7.7,26.3-12.6,10.7-6.2,21.2-6.9,33.3-6.3a318.7,318.7,0,0,1,35.5,3.7c7.6,1.2,14.6,2.4,22.3,2.1s15.1-1,22.6-2,12.3-1.7,18.4-2.7a57.2,57.2,0,0,1,24.4,1.7c10.6,2.9,20.9,7.1,31.6,9.8a274,274,0,0,0,32,6.2c22.6,3.1,45.4,3.7,68.1,3.5,25.7-.2,51.3-1.3,77-1.3H605c2.9,0,2.9-4.5,0-4.5-46.5,0-92.9,0-139.4,1s-91.8-.2-135.7-15.2c-9.8-3.3-19.9-6.9-30.4-6.6-5,.1-9.9,1.2-14.8,1.9-14.3,2.2-29.3,4.7-43.8,3.3-10.1-1-20.1-3.3-30.3-4.3s-22.5-2.4-33.5-1.2-18,6.3-26.8,11.2-19.7,9.3-30.5,10.2C95.3,256.1,72,242,47.5,247.1c-5.5,1.1-10.8,3.2-16.3,4s-13.1,1.1-19.6,1.5q-19.7,1.2-39.5,1.2c-2.9,0-2.9,4.5,0,4.5Z"/><path d="M-28,359.3c43.1.1,85.8,6.9,128.7,10.5,20.6,1.7,41.6,3.5,62.2,1.1s36.5-9.2,53.7-17.3,36.5-17.1,56.6-21.1a146,146,0,0,1,62.6,1c20.3,4.9,39.9,12.4,60.3,16.9a428.1,428.1,0,0,0,60.5,8.3c46.7,3.3,93.6.7,140.3.7,2.9,0,2.9-4.5,0-4.5-41.7,0-83.5,2.1-125.2.2a467.5,467.5,0,0,1-63.2-6.8c-20.7-3.8-40.4-10.3-60.6-16.2s-38.9-8.3-59.1-6.4-37.7,7.2-55.4,15-35.5,18-54.8,22.9-41.8,4.2-62.7,2.9C68,363.2,20.3,354.9-28,354.8c-2.9,0-2.9,4.5,0,4.5Z"/><path d="M-19,393.3c11,0,22.1-.5,33.1-.4s23.1,2.3,34.6,4.1a272.8,272.8,0,0,0,119.5-8c19.5-5.8,37.5-14.3,55.8-23.1s39.4-15.8,61.2-17,42.6,1.4,63.3,5.9c42.5,9.3,82.7,26.7,125.3,36a128.8,128.8,0,0,0,33.7,2.8c12.2-.5,24.5-.2,36.7-.2H619c2.9,0,2.9-4.5,0-4.5H519.5c-10.5,0-21.3,1.3-31.8.1-22-2.7-44-10.3-65-17s-40.8-13.4-61.6-18.7c-38.9-9.8-81.2-14.3-119.6.1-19.7,7.4-37.8,18.4-57.6,25.7a269.4,269.4,0,0,1-60.3,14.7,266.6,266.6,0,0,1-69.2-.4c-11.8-1.6-23.6-4-35.5-4.7-6.1-.3-12.1.2-18.2.3s-13.1-.1-19.6-.1c-2.9,0-2.9,4.5,0,4.5Z"/><path d="M-19,336.3c40.3.1,79.9,8.5,119.9,12.3,19.3,1.8,38.8,2.4,58.1.3a187.3,187.3,0,0,0,52.7-14.2c17.9-7.6,35.4-15.8,54.8-18.9a188,188,0,0,1,62.4.7c19.6,3.6,38.3,11.3,57.8,15.5s38.6,7,58.1,9.2c10.7,1.2,21.6,1.8,32.4.4s19.9-5.6,30.6-5.8c23.4-.3,46.9.4,70.3.4,2.9,0,2.9-4.5,0-4.5-20.6,0-41.3.4-61.8-.3-9.4-.3-18.1.1-27.1,2.8a91.9,91.9,0,0,1-29.1,3.6c-20.2-.6-40.8-4.4-60.7-8s-38.5-10.2-57.9-15.3A178.5,178.5,0,0,0,228,322.7c-17.5,7.4-34.6,15.3-53.4,19.2s-39.3,4.4-59,3.3C70.6,342.6,26.3,331.9-19,331.8c-2.9,0-2.9,4.5,0,4.5Z"/><path d="M-19,101.3c6,0,12.1-.4,18.1-.2s13.4,2,20,4.1c11.9,3.7,23.5,8.3,35.7,10.7,23.2,4.5,46.9,1.5,70.1-1.3s48-5.4,71.5.9c12,3.2,23.4,8.1,35.3,11.5a172.1,172.1,0,0,0,36.1,5.9,317.2,317.2,0,0,0,42.5-.2c11.8-.8,23.6-3,33.8-9.4,2.4-1.5.2-5.4-2.3-3.9-10,6.3-21.5,8.2-33.1,8.9a339.5,339.5,0,0,1-37.1.3,171.6,171.6,0,0,1-37.8-5.7c-11.6-3.2-22.8-7.9-34.4-11.2-46.1-13-92.6,7.9-139,.7-13.5-2.1-26.2-7.1-39.1-11.2-6.3-2-12.7-3.8-19.4-4.3s-13.9,0-20.8,0c-2.9,0-2.9,4.5,0,4.5Z"/><path d="M-19,9.3C-8.9,9.1.6,7.7,10.3,11.5a138.5,138.5,0,0,0,28.4,7.9c19.6,3.1,39,.3,58.4-2.2,41.6-5.3,83.6-2,125.3.5,21.1,1.3,42.2,2.4,63.4,2.2s41.7-1.5,62.5-2.3,39.1-1.7,58.6-4.1,41-4.9,61.9-4.5c47.4.8,94.8.3,142.2.3,2.9,0,2.9-4.5,0-4.5H548.7c-21.1,0-42.1.6-63.2.2s-42.4-.9-63.6,2c-19.6,2.6-39.2,4.7-59,5.6-41.7,2-83.3,3.8-125,1.6S154.8,7.8,113.2,11c-22.9,1.7-45.6,7.4-68.6,4.7A130.1,130.1,0,0,1,12.3,7.5C1.9,3.4-8,4.6-19,4.8c-2.9,0-2.9,4.5,0,4.5Z"/><path d="M-9,468.3c43.5.1,87.2,2.7,130.4-4.1a249.7,249.7,0,0,0,61.7-18.3c10.2-4.5,22.1-9.8,33.5-6.9,9.8,2.5,17.4,11.4,25.9,16.5,31.4,18.7,71,20.7,105.3,9.3a149.9,149.9,0,0,0,24.7-10.9c10.8-5.9,21.2-11.1,33.9-10.8,22.8.5,43.3,13.8,64.8,19.9,24,6.8,48.9,5.3,73.6,5.3H627c2.9,0,2.9-4.5,0-4.5H516.8c-11.2,0-22.2-.2-33.2-2.4-21.7-4.3-40.9-15.7-62.3-20.7-10.2-2.4-21-3-31.2,0s-18.3,8.7-27.3,13.1c-34.3,16.8-77.1,18.8-111.6,1.4-8.5-4.3-15.5-10.1-23.2-15.5s-17.3-7-27-4.9-19.7,7.3-29.4,11.2a218.3,218.3,0,0,1-32.3,10.1C90.8,467.4,40.4,463.9-9,463.8c-2.9,0-2.9,4.5,0,4.5Z"/><path d="M-48,449.3c88,.1,185.7,14.4,263.9-35.9,4.2-2.7,8.6-6.1,13.7-7s10.6,3.2,13.3,8.4c4.2,7.9,4.6,17.3,11,24.1s13.3,8.6,21,10.2a239,239,0,0,0,30.7,4c19.9,1.5,41.3-.7,57.6-13.2,7.6-5.8,12.9-15.9,22.2-19s21-.6,30.3,2.2c20.9,6.2,39.6,18.5,60.9,23.6,24.4,5.8,50.5,2.9,75.3,2.8,2.9,0,2.9-4.5,0-4.5-23.2.1-47.2,2.5-70.2-1.8-19.2-3.6-36.2-13.8-54.3-20.8-14.9-5.8-36.9-12.6-51-1.6-7.9,6.2-13.1,14.5-22,19.6s-20.3,7.9-31.2,8.6-24.6-.7-36.8-2.4c-8.7-1.2-18.3-2.4-25.8-7.5s-9.2-16.3-13.4-25.1c-3.2-6.6-8.8-12.4-16.6-12.1-9.3.4-17.6,8.3-25.4,12.8a203.1,203.1,0,0,1-30.2,14.1,276.3,276.3,0,0,1-62.3,14.8C59.4,450,5.6,444.8-48,444.8c-2.9,0-2.9,4.5,0,4.5Z"/><path d="M-34,424.3c25.4.1,50.6,2.2,75.9,4.5a353.9,353.9,0,0,0,73.7-.7c20.9-2.4,40.1-8.9,58.8-18.3s35.4-19.8,53.7-28.5c20.3-9.6,41-14.9,63.5-14.7,12.1.1,24.4.9,36.5,2.2s23.8,3.9,32.7,11.8,13.2,18.8,8.3,29.3-15.6,15.5-26.1,17.6-24.6,2.1-36.6,1.5c-10.1-.5-22-.8-30.6-6.8-10.7-7.3-8.7-20.9-.5-29.3s23.2-9.9,35.4-9.1c6.6.4,14.4.4,20.4,3.6s8.8,11.8,2.4,17.2-13.3,5.6-20.1,5.6c-4.2,0-22.8-.5-17.5-8.7,1.6-2.5-2.3-4.7-3.9-2.3a8.6,8.6,0,0,0,1.1,10.5c3.7,4.1,10.1,4.4,15.1,4.7,10.6.8,23.8-.2,30.9-9.2s1.5-19-7.9-22.8c-5.6-2.2-12-2.5-18-3a88.1,88.1,0,0,0-19.6.2c-11.1,1.6-21.4,6.9-26.8,17.1-4.3,8-4.4,17.8,1.7,25s18.2,10.1,28.1,11c13.9,1.3,28.4,1.7,42.3-.1,11.8-1.6,23.6-5.8,31-15.6a27,27,0,0,0,2.6-28.5c-11.6-24.1-42.3-24.6-65.2-26-14.8-.9-29.6-1.1-44.2,1.8a153.6,153.6,0,0,0-32.9,10.9c-22.6,10.1-43.3,23.8-65.8,34.2-29.8,13.8-62.6,16.9-95.2,16.5-16.9-.2-33.7-2.6-50.5-3.9s-35-2.4-52.6-2.5c-2.9,0-2.9,4.5,0,4.5Z"/><path d="M388.3,388.1c16.2,2,31.6,7.2,46.2,14.3,13,6.3,25.8,13.4,39.8,17.2s30.7,4.7,46.1,4.9,32.4-.2,48.6-.2H627c2.9,0,2.9-4.5,0-4.5L527,420c-16.3.1-33-.3-48.9-4.1s-27.8-10.9-41.2-17.4c-15.4-7.5-31.4-12.8-48.5-14.9-2.9-.4-2.8,4.1,0,4.5Z"/><path d="M-131,487.3c45.7,0,91.4.2,137.1,1.2,22.8.5,45.6.7,68.4-.4,10.9-.5,21.7-1.7,32.6-2.2s21.4-2.1,32.3-3.7,22.7-2.2,34-3.5,22.7-1.9,34.2-.9,21.9,3.9,33,5.9,21.5,3.1,32,5.4c20.4,4.6,40.2,7.6,61.2,5.7a167.3,167.3,0,0,0,29.6-5.5c9.7-2.7,18.9-7,28.7-9.4s18-3.8,27.2-3.3a226.9,226.9,0,0,1,25.6,3.2c7.8,1.4,15.3,3.4,23,5.1a185.1,185.1,0,0,0,35.7,4.3c2.9.1,2.9-4.4,0-4.5a178.8,178.8,0,0,1-33.6-3.9c-7-1.5-13.8-3.4-20.8-4.7-12.9-2.4-27.3-5.4-40.4-3.8-20.5,2.4-38.7,11.7-58.8,15.7a161.2,161.2,0,0,1-64.7-.4c-10.3-2.2-20.4-4.6-30.9-6.2s-22.1-4.3-33.2-6.3c-21.7-3.8-42.7-1.3-64.3.6-11.2,1-22.1,3.2-33.2,4.5s-21.8,1.4-32.6,2.3c-22.4,1.8-44.9,2.1-67.3,1.8-25.7-.3-51.5-1.4-77.2-1.5s-51.7,0-77.5,0c-2.9,0-2.9,4.5,0,4.5Z"/><path d="M552,231.8c-43.9,0-87.9,1.2-131.7-2a494.1,494.1,0,0,1-67.2-9.2c-20.3-4.3-40.6-9.8-61.6-9.1s-42.6,6.9-64.2,5.8c-10.9-.6-21.2-4-31.6-7s-20.5-6-30.9-8.4c-19.1-4.4-39.2-6.8-58.7-2.9-9.3,1.8-38.9,12.4-28.5,26.7,5.2,7.1,17.8,9.4,25.8,10.7s18.7.4,25.1-6.6c9.4-10.2-9.9-11.6-15-14.2-2.6-1.3-4.9,2.6-2.3,3.9s6.8,1.9,10.2,2.9c1.1.3,4.6,1.1,4.9,2.5.6,3.1-7.9,6.3-9.8,6.9-8.7,2.4-19.1-.6-27.2-3.9-4.6-1.8-10.4-4.4-8.2-10.3,1.6-4.2,7.5-7.4,11.4-9.4,15.4-7.9,34.9-7.6,51.6-5.6,19.1,2.4,37.5,8.2,55.9,13.5,8.5,2.4,16.8,4.8,25.6,5.5s18.3-.1,27.3-1.3c18.8-2.3,37.3-5.7,56.4-3.7s37.7,7.5,56.6,10.9a528.7,528.7,0,0,0,56.4,6.8c43.2,3,86.5,1.9,129.8,1.9,2.9,0,2.9-4.5,0-4.5Z"/></svg>