<svg id="Layer_2" data-name="Layer 2" xmlns="http://www.w3.org/2000/svg" width="500" height="500" viewBox="0 0 500 500"><title>wood-grain</title><path d="M-34,34.5c8.4-.1,16.8-1.1,25.2-1.2s17.4,3,26.4,5.4a176.6,176.6,0,0,0,53.6,5.6c19.6-.8,39-3.8,58.6-5.3a309.7,309.7,0,0,1,59.2,1.5c19.8,2.3,39.5,5,59.5,5.9a553.1,553.1,0,0,0,60.9-.8c39.5-2.6,78.6-8.7,117.8-14.2,11.5-1.6,23.1-3.1,34.7-3s20.8,2.3,31.1,4.5c19.5,4.1,39.4,1.5,59.1,1.5a1.5,1.5,0,0,0,0-3c-9,0-17.9,0-26.9.5s-18.6.7-27.9-1.2-16.3-3.6-24.6-4.6-19.6-.6-29.3.4c-19.4,1.9-38.6,5.3-57.9,8s-40.8,5.3-61.3,7.1a580.3,580.3,0,0,1-120.5-2.2c-19.7-2.4-39.4-4.8-59.3-4.1S105,38.7,85.4,40.4C64.1,42.2,42.8,42,21.9,36.8c-9.3-2.3-17.8-6-27.5-6.4s-18.9,1-28.4,1.1a1.5,1.5,0,0,0,0,3Z"/><path d="M-33,82.5H-9.1c7.6,0,14.8-1,22.3-1.6,15.4-1.3,31.1,5.7,46.1,8.4a211.7,211.7,0,0,0,45.2,3.3c15.3-.5,30.2-3.3,45.3-5.8s32.7-3.6,49.3-.9,30.1,6.8,45.1,10.2c29.5,6.8,58.9,6.6,88.7,2.1s61.1-12.9,92-18.1c13.9-2.3,29.6-5.7,43.6-1.8,6.7,1.9,14.3,5.2,18,11.4s.3,12.2-3.5,17.5-7.6,9.1-11.4,13.7-7.7,9.6-12.3,13.6-12.6,7.3-20,9.1a168.9,168.9,0,0,1-25.1,4.3c-12.4,1.2-27.6,2.5-38.6-4.6-5.8-3.7-9.1-10.3-7.1-17.1s8.2-11.9,14.2-15.1,14.6-5.5,21.9-7.4a113.5,113.5,0,0,1,22.9-3.7c8.6-.5,18.5-1.8,26.8,1.1,12.4,4.3-5.8,14.1-10.5,16.4a88.7,88.7,0,0,1-29,8.8c-6.2.7-12.9.8-18.6-2.1-1.7-.9-3.2,1.7-1.5,2.6,10.8,5.5,25.1,2.6,36.2-.8,8.8-2.7,18.2-6.8,25.5-12.6,5.4-4.3,8.1-11.2.4-14.6s-19.7-2.3-28.8-1.8a118,118,0,0,0-23.1,3.6c-7.7,2-15.8,4-22.9,7.6-10.1,5.1-20.2,15.8-16,27.9,3.6,10.4,15.7,14.1,25.6,15.2,16.6,1.8,34.5-1.1,50.5-5.3,6.8-1.8,12.9-4,18.4-8.5s9.5-9.8,13.9-15.1c6.2-7.4,18.6-17.8,17-28.6s-17.6-18.1-28.1-19.6c-15.2-2.1-31.6,1.7-46.5,4.4C381.1,85.1,345.9,95.1,309.7,98A201.4,201.4,0,0,1,256,95.6c-17.6-3.3-34.7-8.7-52.4-11.9a148.2,148.2,0,0,0-49.9-.5c-18.3,2.8-36.2,6.4-54.8,6.6a213.8,213.8,0,0,1-55.1-7c-8-2.1-16.2-4.5-24.5-5S2.9,79.5-5.3,79.5H-33a1.5,1.5,0,0,0,0,3Z"/><path d="M-34,60.5c9.4.1,18.8.9,28.2.2a118.2,118.2,0,0,1,28.4,1c18.4,3,35.9,7,54.7,6.3s38.7-4.1,58-5.9,39.3-1.2,58.9,1.1,38.6,5.6,58.1,7.6A482.5,482.5,0,0,0,311,73.3a487.1,487.1,0,0,0,57-4.5c19.1-2.7,37.9-6.9,56.7-11,10.8-2.3,21.6-4.4,32.7-5,9.3-.5,20.9-1.1,29.3,3.3,2.5,1.3,4.8,2.8,7.6,3.5s7.9.6,11.8.6l31.8.3a1.5,1.5,0,0,0,0-3c-9.5,0-18.9.1-28.4-.2-4-.1-8.1.2-12-.2s-6.3-2-9.3-3.6c-6.2-3.4-13.8-3.7-20.7-3.9a141,141,0,0,0-26.2,1.9c-18.9,3-37.3,8.2-56.1,11.5a480.3,480.3,0,0,1-59.9,6.8,483.6,483.6,0,0,1-57.8-.6c-20.3-1.4-40.3-4.5-60.4-7.3s-38.3-4.7-57.6-3.9-38.7,4.3-58.1,6a196.8,196.8,0,0,1-32.2.6c-11-.8-21.6-3.4-32.4-5.3s-19.3-2.8-29.1-2-21.2.2-31.8.1a1.5,1.5,0,0,0,0,3Z"/><path d="M-34,129.5c9.9,0,19.7.2,29.6-.7s18.1,3,27.6,5.5a244.4,244.4,0,0,0,56.9,7.6c20,.3,39.4-3.2,59.3-4.8s40.1,2.2,60,6.4,37.5,6.9,57,6.4,40.3-2.8,60.4-.6c36.6,4,70.8,26.1,108.4,20.7a81.3,81.3,0,0,0,24.9-7.5c8.5-4.3,14.9-10.5,21-17.7s14.1-14.5,25.5-15.6c8.8-.9,17.7.2,26.5.3a1.5,1.5,0,0,0,0-3c-14.1-.1-31-3.5-43.4,5.3-6.7,4.8-11.2,12-16.9,17.8a57.1,57.1,0,0,1-23.3,14c-37.8,12.4-73.1-7.8-109.6-15.2-19.2-3.9-38.7-3-58.2-2s-40.4.5-60.7-3.5c-18.7-3.7-37.4-8.7-56.6-9.3s-39.5,4.2-59.4,5.1a243.5,243.5,0,0,1-67.5-6.4c-9.4-2.2-18.6-7.1-28.4-6.7-5.1.2-10.2.9-15.3.9H-34a1.5,1.5,0,0,0,0,3Z"/><path d="M-28,162.5c10.7,0,21.5-.3,32.2.4s19.6,2.8,29.2,5.1,18.5,4.3,28.1,4.8a154.9,154.9,0,0,0,27.7-1.5c19.3-2.5,38.3-7.2,57.7-8.3a107,107,0,0,1,29.8,2.1c10.2,2.3,20,6.1,30.3,8.4,20.2,4.4,40.8,1,61-1.4a208.9,208.9,0,0,1,62.6,2c20,3.6,39.7,9,59.8,12.6,18.3,3.3,37.7,5.9,56.1,1.7,21.7-5,37.4-23.5,60-25.7,11.2-1.1,22.6-.1,33.8-.1H578a1.5,1.5,0,0,0,0-3c-21.2,0-42.5-.5-63.7-.3-9.2.1-18.2,1.3-26.6,5.3s-16,9.4-24.2,13.8c-18.7,10.2-39.3,10.1-59.9,7.4s-41-8.2-61.5-12.5-39.1-6.9-59-5.7-41.8,6.3-62.9,4.8-38.6-11.2-58.9-12.4c-18.7-1.1-37.3,2.6-55.6,5.7-11.3,1.9-22.6,3.8-34.1,4.2s-22.2-1.1-33.2-3.7-20.3-4.9-30.8-5.9-23.9-.7-35.8-.7a1.5,1.5,0,0,0,0,3Z"/><path d="M-34,207.5c19.5,0,39.1,1.4,58.6.3s36-5.5,53.6-11.1,34.8-11.4,53-14,37.6.4,56.2,6.6,33.8,9.7,52.2,9.1,37.5-4.3,56.3-5.5,37.7,2.4,56.5,7.7a315.1,315.1,0,0,0,54.9,10.6c21.5,2.1,42.9,1.4,64.4-.9s44-2.9,66.3-2.9a1.5,1.5,0,0,0,0-3c-19.7,0-39.1.1-58.7,2.1s-38.4,3.7-57.8,2.8a286.4,286.4,0,0,1-58.5-8.9c-17.7-4.6-35-10.4-53.5-10.8s-37,3-55.4,4.8-37.9,1.1-56.6-4.9c-17.1-5.5-33.4-11.3-51.7-11s-35.2,4.9-52,10.1c-20.3,6.3-40.3,13.6-61.6,15.6s-44.1.3-66.1.3a1.5,1.5,0,0,0,0,3Z"/><path d="M-42,235.5c18.1,0,36.3.6,54.3-1.7,8.2-1,16.3-2.5,24.4-4.3s15.8-3,22.5-7.2c1.6-1,.1-3.6-1.5-2.6-6.7,4.2-15.1,5.4-22.7,7.1s-17.5,3.4-26.3,4.4c-16.8,1.9-33.7,1.2-50.6,1.2a1.5,1.5,0,0,0,0,3Z"/><path d="M-42,309.5c11.5,0,22.9-.4,34.4-1.1s21.8-2,32.7-1.5c20.4,1,39.8,8.1,59.5,12.7s37.7,5.2,56.8.6,38.7-13.8,57.7-21.5,40.5-14.5,61.9-13.1c10.7.7,21.1,3.9,31.8,5.2a322.1,322.1,0,0,1,34.5,5.6c21.8,5,43.4,10.4,65.5,13.7a497.6,497.6,0,0,0,64.6,5.4c11.8.2,23.3-.2,34.7-3.3,5.3-1.5,10.5-2.8,16.1-2.9s13.1,0,19.6,0H605a1.5,1.5,0,0,0,0-3H535.7c-10.7,0-21.9-1-32.5.3s-19.1,5-29.3,5.7c-22,1.4-44.6-.6-66.4-3.2s-44.9-7.4-67.1-12.7c-11-2.6-22.1-5.4-33.3-7s-21.1-2.2-31.5-4.6c-20-4.6-40.2-1.8-59.6,4.4s-38.2,15.7-57.7,22.6-40.7,10.6-62.1,7-42.5-12-64.5-14.5c-11.6-1.3-23.1,0-34.6.6-13.1.8-26.1,1.3-39.2,1.3a1.5,1.5,0,0,0,0,3Z"/><path d="M-42,284.5c10.3,0,20.5-.1,30.8,0,8.3.1,16.6.6,24.7-1.1,10.2-2.1,20.4-4.5,30.9-4.4s21.9,3,32.6,5.6,20.4,4.7,30.9,5.3a133.3,133.3,0,0,0,30.3-2.1c21-3.6,40.9-11.3,61.4-17.2,40.3-11.5,85-14,125-.2,9.8,3.4,19.6,6.9,29.8,8.8a207.8,207.8,0,0,0,31.5,3.2c22.2.8,44.4.7,66.5.9,50.8.6,101.7,1,152.5,1a1.5,1.5,0,0,0,0-3q-67.8,0-135.7-.8l-68.2-.8c-22-.3-43.6-1.5-64.6-8.5-9.7-3.2-19.3-7-29.3-9.4s-19.9-3-29.9-3.4c-20.3-.8-40.3.3-60.3,4.6s-40.7,12.2-61.3,17.6-43.7,8.1-66,3.5c-11.6-2.4-23-5.8-34.8-7.5s-20.5-.6-30.7,1.3c-5.7,1.1-11.5,2.8-17.3,3.2a140.8,140.8,0,0,1-14.5.2c-11.4-.2-22.9-.1-34.4-.1a1.5,1.5,0,0,0,0,3Z"/><path d="M-28,257.5q17.3,0,34.7-1c10.5-.6,21.4-.5,31.6-3.2,4.9-1.3,9.7-2.9,14.8-3.4a74,74,0,0,1,18.8,1c10.6,1.7,21,4.8,31.7,6.3a69.6,69.6,0,0,0,30-1.9c9.4-2.8,17.7-7.6,26.1-12.5,10.8-6.2,21.5-7,33.7-6.4a320.5,320.5,0,0,1,35.7,3.7c7.5,1.2,14.5,2.3,22.1,2.1s15.1-1,22.6-2,12.1-1.7,18.2-2.6a58.2,58.2,0,0,1,24.8,1.7c10.6,2.9,20.9,7.1,31.6,9.8a273.2,273.2,0,0,0,31.8,6.2c22.6,3.1,45.4,3.7,68.1,3.5,25.7-.2,51.3-1.3,77-1.3H605a1.5,1.5,0,0,0,0-3c-46.5,0-92.9,0-139.4,1s-91.9-.2-135.9-15.2c-9.7-3.3-19.8-6.8-30.2-6.6-4.9.1-9.8,1.2-14.6,1.9-14.3,2.2-29.5,4.7-44,3.3-10.1-1-20.1-3.3-30.3-4.3s-22.5-2.4-33.5-1.2-17.8,6.3-26.4,11.1-20,9.4-30.9,10.3c-24.4,1.9-47.7-12.2-72.1-7.2-5.5,1.2-10.8,3.2-16.4,4s-13.2,1.1-19.7,1.5q-19.7,1.2-39.5,1.2a1.5,1.5,0,0,0,0,3Z"/><path d="M-28,358.5c43.1.1,85.8,6.9,128.7,10.5,20.6,1.7,41.6,3.5,62.2,1.1,19-2.2,36.2-9.1,53.3-17.2s36.7-17.2,56.8-21.2a146.9,146.9,0,0,1,63,1c20.3,4.9,39.9,12.4,60.3,16.9a426.6,426.6,0,0,0,60.3,8.3c46.7,3.3,93.6.7,140.3.7a1.5,1.5,0,0,0,0-3c-41.7,0-83.5,2.1-125.2.2a469,469,0,0,1-63.4-6.8c-20.7-3.8-40.4-10.3-60.6-16.2s-38.8-8.2-58.9-6.4-37.5,7.2-55,14.9-35.6,18-54.9,22.9-42,4.3-62.9,2.9C68,364,20.3,355.6-28,355.5a1.5,1.5,0,0,0,0,3Z"/><path d="M-19,392.5c11,0,22.1-.5,33.1-.4s23.2,2.3,34.7,4.1a272.1,272.1,0,0,0,119.1-8c19.4-5.7,37.4-14.2,55.6-23s39.7-15.9,61.6-17.1,42.7,1.4,63.5,6c42.5,9.3,82.7,26.7,125.3,36a128,128,0,0,0,33.5,2.7c12.2-.5,24.5-.2,36.7-.2H619a1.5,1.5,0,0,0,0-3H519.5c-10.6,0-21.3,1.3-31.9.1-22.1-2.7-44-10.3-65.1-17s-40.8-13.4-61.6-18.7c-38.8-9.8-80.9-14.3-119.2.1-19.7,7.4-37.8,18.4-57.6,25.7a270.2,270.2,0,0,1-60.5,14.7,267.1,267.1,0,0,1-69.4-.4c-11.8-1.6-23.5-4-35.4-4.7-6.1-.3-12.1.2-18.2.3s-13.1-.1-19.6-.1a1.5,1.5,0,0,0,0,3Z"/><path d="M-19,335.5c40.3.1,79.9,8.5,119.9,12.3,19.3,1.8,38.8,2.4,58.1.3A186.1,186.1,0,0,0,211.3,334c18-7.6,35.5-15.8,55-18.9a189.1,189.1,0,0,1,62.8.7c19.6,3.6,38.3,11.3,57.8,15.5s38.5,7,57.9,9.2c10.7,1.2,21.5,1.8,32.3.4s19.9-5.6,30.7-5.8c23.4-.3,46.9.4,70.3.4a1.5,1.5,0,0,0,0-3c-20.6,0-41.3.4-61.8-.3-9.3-.3-17.9.1-26.9,2.8a92.6,92.6,0,0,1-29.3,3.6c-20.3-.6-40.9-4.4-60.9-8s-38.5-10.2-57.9-15.3a177.8,177.8,0,0,0-112.8,8.1c-17.5,7.4-34.6,15.3-53.4,19.2s-39.5,4.5-59.2,3.4C70.6,343.4,26.3,332.6-19,332.5a1.5,1.5,0,0,0,0,3Z"/><path d="M-19,100.5c6,0,12.1-.4,18.1-.2s13.5,2,20.2,4.1c11.9,3.7,23.5,8.3,35.7,10.7,23.1,4.5,46.7,1.4,69.9-1.4s48.2-5.4,71.7.9c12,3.2,23.4,8.1,35.3,11.5a171.1,171.1,0,0,0,35.9,5.9,317.2,317.2,0,0,0,42.5-.2c11.7-.8,23.3-2.9,33.4-9.3,1.6-1,.1-3.6-1.5-2.6-10.1,6.4-21.8,8.3-33.5,9a339.5,339.5,0,0,1-37.1.3,172.5,172.5,0,0,1-38-5.7c-11.6-3.2-22.8-7.9-34.4-11.2-46.1-13-92.6,7.9-139,.7-13.5-2.1-26.2-7.1-39.1-11.2-6.3-2-12.6-3.8-19.2-4.3s-13.9,0-20.8,0a1.5,1.5,0,0,0,0,3Z"/><path d="M-19,8.5C-8.8,8.4.7,7,10.5,10.8a138.5,138.5,0,0,0,28.4,7.9c19.5,3.1,38.8.2,58.2-2.2,41.6-5.3,83.6-2,125.3.5,21.1,1.3,42.2,2.4,63.4,2.2s41.7-1.5,62.5-2.3,39.1-1.7,58.6-4.1,41-4.9,61.9-4.5c47.4.8,94.8.3,142.2.3a1.5,1.5,0,0,0,0-3H548.7c-21.1,0-42.1.6-63.2.2s-42.4-.9-63.6,2c-19.6,2.6-39.2,4.7-59,5.6-41.7,2-83.3,3.8-125,1.6s-83.2-6.3-124.8-3.1c-22.9,1.7-45.6,7.4-68.6,4.7A130.7,130.7,0,0,1,12.1,8.2C1.7,4.2-8.1,5.4-19,5.5a1.5,1.5,0,0,0,0,3Z"/><path d="M-9,467.5c43.4.1,87.1,2.7,130.2-4.1a249,249,0,0,0,61.5-18.2c10.4-4.6,22.5-10,34-7,9.8,2.5,17.5,11.4,26.1,16.5,31.2,18.6,70.6,20.5,104.7,9.2A148.8,148.8,0,0,0,372,453.2c10.9-5.9,21.5-11.2,34.2-10.9,22.9.5,43.4,13.8,65,19.9,24,6.8,48.7,5.3,73.4,5.3H627a1.5,1.5,0,0,0,0-3H516.8c-11.3,0-22.3-.2-33.4-2.4-21.7-4.3-40.9-15.7-62.3-20.7-10.1-2.4-20.7-3-30.8,0s-18.1,8.6-27.1,13c-34.5,17-77.6,18.9-112.4,1.4-8.5-4.3-15.5-10.1-23.2-15.5s-17-6.8-26.4-4.8-19.7,7.3-29.4,11.2a218.5,218.5,0,0,1-32.3,10.1c-48.6,11.4-99,7.8-148.5,7.7a1.5,1.5,0,0,0,0,3Z"/><path d="M-48,448.5c87.8.1,185.4,14.4,263.5-35.8,4.3-2.8,8.7-6.2,13.9-7s11.2,3.3,14.1,8.7c4.2,7.8,4.6,17.2,10.9,23.9s13.1,8.4,20.6,10a237.4,237.4,0,0,0,30.5,4c19.7,1.4,40.9-.7,57.1-13,7.7-5.9,13-16,22.5-19.2s21.3-.6,30.7,2.2c20.9,6.2,39.6,18.5,60.9,23.6,24.4,5.8,50.4,2.8,75.1,2.8a1.5,1.5,0,0,0,0-3c-23.3.1-47.4,2.5-70.4-1.8-19.2-3.6-36.2-13.8-54.3-20.8-14.6-5.7-36.3-12.5-50.2-1.8-8,6.2-13.2,14.6-22.2,19.7s-20.6,8-31.5,8.7-24.7-.7-37-2.4c-8.8-1.2-18.4-2.4-25.9-7.6S251,423,246.7,414.1c-3-6.3-8.4-12-15.9-11.7-9.2.4-17.4,8.3-25,12.7a204.3,204.3,0,0,1-30.4,14.2,277.1,277.1,0,0,1-62.5,14.8C59.4,450.7,5.6,445.6-48,445.5a1.5,1.5,0,0,0,0,3Z"/><path d="M-34,423.5c25.4.1,50.6,2.2,75.9,4.5a353.9,353.9,0,0,0,73.7-.7c20.8-2.4,39.9-8.9,58.5-18.2s35.4-19.8,53.7-28.5c20.4-9.6,41.2-15,63.9-14.8,12.1.1,24.4.9,36.5,2.2s24.2,3.9,33.2,12.1,13.5,19.4,8.5,30.3-15.8,15.8-26.6,18-24.7,2.1-36.8,1.5c-10.3-.5-22.2-.9-31-6.9-11.1-7.6-9.2-21.7-.7-30.5s23.6-10.1,36-9.3c6.8.4,14.7.4,20.8,3.7,7.7,4,9.2,12.6,2.5,18.4s-13.6,5.8-20.7,5.8c-4.8,0-24-.6-18.2-9.8,1-1.6-1.6-3.1-2.6-1.5a7.8,7.8,0,0,0,1,9.6c3.5,4,9.7,4.2,14.6,4.5,10.3.7,23.3-.1,30.3-8.8s1.5-18.1-7.4-21.7c-5.5-2.2-11.9-2.5-17.8-3a87.9,87.9,0,0,0-19.4.1c-10.9,1.5-21.1,6.7-26.4,16.7-4.1,7.7-4.3,17.1,1.6,24.1s17.9,9.9,27.6,10.8c13.9,1.3,28.3,1.7,42.1-.1,11.6-1.5,23.2-5.6,30.5-15.2a26.2,26.2,0,0,0,2.6-27.8c-11.5-23.8-41.9-24.2-64.6-25.6-14.7-.9-29.5-1.1-44,1.7A152.7,152.7,0,0,0,230.5,376c-22.6,10.1-43.3,23.8-65.8,34.2-30,13.8-62.9,17-95.6,16.6-16.9-.2-33.7-2.6-50.5-3.9s-35-2.4-52.6-2.5a1.5,1.5,0,0,0,0,3Z"/><path d="M388.3,387.3c16.4,2,31.8,7.3,46.6,14.4,12.9,6.3,25.7,13.3,39.7,17.1s30.6,4.7,45.9,4.9,32.4-.2,48.6-.2H627a1.5,1.5,0,0,0,0-3l-100,.2c-16.4.1-33.1-.3-49.1-4.1s-27.9-10.9-41.4-17.4c-15.3-7.4-31.2-12.7-48.1-14.8-1.9-.2-1.9,2.8,0,3Z"/><path d="M-131,486.5c45.7,0,91.4.2,137.1,1.2,22.8.5,45.6.7,68.4-.4,10.9-.5,21.7-1.7,32.6-2.2s21.3-2.1,32.1-3.7,22.8-2.3,34.2-3.5,22.7-1.9,34.2-.9,22.1,4,33.2,5.9,21.5,3.1,32,5.4c20.4,4.6,40.1,7.6,61,5.6a166.1,166.1,0,0,0,29.4-5.4c9.7-2.7,18.9-7,28.7-9.4s18.1-3.9,27.4-3.3a228.7,228.7,0,0,1,25.8,3.3c7.8,1.4,15.3,3.4,23,5.1a184,184,0,0,0,35.5,4.3c1.9,0,1.9-3,0-3a179.8,179.8,0,0,1-33.8-4c-7-1.5-13.8-3.4-20.8-4.7-12.9-2.4-27.1-5.4-40.2-3.8-20.4,2.4-38.6,11.6-58.6,15.6a162.1,162.1,0,0,1-65.1-.4c-10.3-2.2-20.4-4.6-30.9-6.2s-22.1-4.3-33.2-6.3c-21.6-3.8-42.5-1.2-64.1.7-11.2,1-22.1,3.2-33.2,4.5s-21.8,1.4-32.6,2.3c-22.4,1.8-44.9,2.1-67.3,1.8-25.7-.3-51.5-1.4-77.2-1.5s-51.7,0-77.5,0a1.5,1.5,0,0,0,0,3Z"/><path d="M552,232.5c-43.9,0-87.9,1.2-131.7-2a495.6,495.6,0,0,1-67.4-9.2c-20.2-4.3-40.5-9.7-61.4-9s-42.6,6.9-64.2,5.8c-11-.6-21.3-4-31.8-7s-20.5-6-30.9-8.4c-19-4.4-39-6.7-58.3-2.9-8.7,1.7-38.2,12-28,25.6,5.1,6.8,17.6,9.1,25.4,10.4s18.2.4,24.4-6.4c8.6-9.4-10.2-10.7-14.8-13.1-1.7-.9-3.2,1.7-1.5,2.6s6.7,1.8,10,2.8c1.6.5,4.9,1.2,5.4,3.1.8,3.6-8,7.1-10.3,7.7-8.8,2.5-19.3-.6-27.6-3.9-5-2-11.1-4.8-8.7-11.3,1.6-4.4,7.7-7.7,11.7-9.7,15.5-7.9,35.1-7.8,52-5.7,19.1,2.4,37.6,8.2,56.1,13.5,8.4,2.4,16.7,4.8,25.4,5.4s18.3-.1,27.3-1.3c18.8-2.3,37.3-5.7,56.4-3.7s37.8,7.6,56.8,10.9a526.8,526.8,0,0,0,56.2,6.7c43.2,3,86.5,1.9,129.8,1.9a1.5,1.5,0,0,0,0-3Z"/></svg>