<svg id="Layer_2" data-name="Layer 2" xmlns="http://www.w3.org/2000/svg" width="500" height="500" viewBox="0 0 500 500"><title>wood-grain</title><path d="M-34,36c8.4-.1,16.8-1.1,25.2-1.2s17.1,2.9,26,5.4a178,178,0,0,0,54,5.6c19.6-.8,39-3.8,58.6-5.3a309.7,309.7,0,0,1,59.2,1.5c19.8,2.3,39.5,5,59.5,5.9a553.1,553.1,0,0,0,60.9-.8c39.7-2.6,78.9-8.8,118.2-14.3,11.3-1.6,22.9-3,34.3-3s20.5,2.3,30.7,4.4C512.1,38.5,532.1,36,552,36c3.9,0,3.9-6,0-6-9,0-17.9,0-26.9.5s-18.3.7-27.5-1.1-16.5-3.7-25-4.7-19.6-.6-29.3.4c-19.5,1.9-38.9,5.4-58.3,8.1s-40.6,5.3-60.9,7a580.3,580.3,0,0,1-120.5-2.2c-19.7-2.4-39.4-4.8-59.3-4.1S105,37.2,85.4,38.9C64.2,40.7,43,40.5,22.3,35.3,12.9,33,4.2,29.3-5.6,28.9S-24.5,29.9-34,30c-3.9,0-3.9,6,0,6Z"/><path d="M-33,84H-9.1c7.6,0,14.8-1,22.3-1.6C28.5,81.1,44,88,58.9,90.8a213.6,213.6,0,0,0,45.6,3.4c15.5-.5,30.5-3.3,45.7-5.9s32.2-3.6,48.5-.9,30.1,6.8,45.1,10.2c29.8,6.8,59.4,6.7,89.5,2.1s61.1-12.9,92-18.1c13.7-2.3,29.1-5.7,42.8-1.8,6.3,1.8,13.6,4.9,17.1,10.7s0,11.2-3.5,16-7.5,8.9-11.2,13.4-7.7,9.6-12.3,13.6-12.2,7-19.4,8.7a166.2,166.2,0,0,1-24.7,4.2c-12.1,1.1-27.1,2.5-37.9-4.4-5.3-3.4-8.2-9.2-6.4-15.5s7.9-11.2,13.5-14.2,14.4-5.4,21.6-7.3a111.5,111.5,0,0,1,22.5-3.7c8.4-.5,18.3-1.8,26.4,1,9.8,3.5-7.3,12-10.9,13.7a86.3,86.3,0,0,1-28.2,8.6c-5.9.7-12.4.9-17.9-1.9-3.4-1.7-6.5,3.4-3,5.2,11.2,5.7,25.8,2.8,37.3-.7,9.1-2.8,18.7-7,26.2-13s8.7-13.1.1-17-20.2-2.5-29.5-2a120.1,120.1,0,0,0-23.5,3.7c-7.8,2-16.1,4.1-23.3,7.8-10.7,5.4-21.1,16.8-16.7,29.6,3.8,11.1,16.5,15.2,27,16.3,16.7,1.8,34.8-1.1,50.9-5.3,7.1-1.9,13.3-4.2,19.1-8.9s9.5-9.8,13.9-15.1c6.5-7.8,19.1-18.5,17.5-29.9s-18-19.2-29.2-20.8c-15.4-2.2-32.1,1.6-47.3,4.4-35.6,6.5-70.6,16.5-106.8,19.4a200,200,0,0,1-53.3-2.4c-17.6-3.3-34.7-8.7-52.4-11.9a150.4,150.4,0,0,0-50.7-.5c-18.2,2.8-36,6.4-54.4,6.5a212.2,212.2,0,0,1-54.7-6.9c-8.2-2.1-16.5-4.5-24.9-5S2.9,78-5.3,78H-33c-3.9,0-3.9,6,0,6Z"/><path d="M-34,62c9.4.1,18.8.9,28.2.2a116.6,116.6,0,0,1,28,.9c18.5,3.1,36.2,7,55.1,6.4s38.7-4.1,58-5.9,39.3-1.2,58.9,1.1,38.6,5.6,58.1,7.6A482.5,482.5,0,0,0,311,74.8a490.1,490.1,0,0,0,57.4-4.6c19.1-2.7,37.9-6.9,56.7-11,10.6-2.3,21.4-4.3,32.3-5,9-.5,20.5-1.2,28.6,3.1,2.6,1.4,5.1,2.9,8,3.7s8.2.6,12.2.7L538,62c3.9,0,3.9-6,0-6-9.5,0-18.9.1-28.4-.2-3.9-.1-7.9.2-11.8-.2s-5.9-1.9-8.8-3.5c-6.4-3.5-14.3-3.9-21.5-4.1a143.2,143.2,0,0,0-26.6,2c-18.9,3-37.3,8.2-56.1,11.5a477,477,0,0,1-59.5,6.7,483.6,483.6,0,0,1-57.8-.6c-20.1-1.4-40-4.5-60-7.2s-38.6-4.8-58-3.9-38.7,4.3-58.1,6a196.8,196.8,0,0,1-32.2.6c-10.8-.8-21.4-3.3-32-5.3s-19.6-2.9-29.5-2-21.2.2-31.8.1c-3.9,0-3.9,6,0,6Z"/><path d="M-34,131c9.9,0,19.7.2,29.6-.7s17.8,3,27.2,5.4a246.2,246.2,0,0,0,57.3,7.7c20,.3,39.4-3.2,59.3-4.8s39.9,2.2,59.6,6.4,37.8,6.9,57.3,6.5,40.3-2.8,60.4-.6c36.7,4,70.9,26,108.6,20.6a82.8,82.8,0,0,0,25.4-7.7c8.6-4.3,15.1-10.7,21.3-18s13.4-14.1,24.4-15.2c8.8-.9,17.7.2,26.5.3,3.9,0,3.9-6,0-6-14.4-.1-31.5-3.4-44.1,5.5-6.8,4.9-11.4,12.1-17.2,18.1A55.5,55.5,0,0,1,439,162.2c-37.5,12.3-72.6-7.8-108.8-15.2-19.3-4-39-3-58.6-2.1s-40.2.5-60.3-3.5-37.7-8.8-57-9.3-39.5,4.2-59.4,5.1A242,242,0,0,1,28,130.9c-9.5-2.3-18.9-7.2-28.8-6.8-5.1.2-10.2.9-15.3.9H-34c-3.9,0-3.9,6,0,6Z"/><path d="M-28,164c10.7,0,21.5-.3,32.2.4s19.3,2.8,28.8,5,18.8,4.4,28.5,4.9a155.6,155.6,0,0,0,27.9-1.5c19.2-2.5,38.1-7.2,57.5-8.3a105.6,105.6,0,0,1,29.4,2.1c10.2,2.3,20,6.1,30.3,8.4,20.4,4.4,41,1,61.4-1.4a207.6,207.6,0,0,1,62.2,2c20,3.6,39.7,9,59.8,12.6,18.5,3.3,38.3,6,56.9,1.7,21.5-5,37.3-23.5,59.6-25.6,11.2-1.1,22.6-.1,33.8-.1H578c3.9,0,3.9-6,0-6-21.2,0-42.5-.5-63.7-.3-9.5.1-18.7,1.4-27.3,5.5s-16,9.4-24.2,13.8c-18.4,10-38.7,9.9-58.9,7.2S363,176,342.6,171.8s-39.4-7-59.4-5.8-41.8,6.3-62.9,4.8-38.6-11.2-58.9-12.4-37.5,2.6-56,5.8c-11.2,1.9-22.4,3.7-33.7,4.1s-21.9-1.1-32.8-3.7-20.6-4.9-31.2-6S-16.1,158-28,158c-3.9,0-3.9,6,0,6Z"/><path d="M-34,209c19.5,0,39.1,1.4,58.6.3s36.2-5.5,54-11.2,34.8-11.5,53-14,37,.5,55.4,6.6,34.1,9.8,52.6,9.2,37.5-4.3,56.3-5.5a131.4,131.4,0,0,1,28.2.9c9.5,1.5,18.7,4.1,27.9,6.7a317.4,317.4,0,0,0,55.3,10.7c21.5,2.1,42.9,1.4,64.4-.9s44-2.9,66.3-2.9c3.9,0,3.9-6,0-6-19.7,0-39.1.1-58.7,2.1s-38.4,3.7-57.8,2.8a284.4,284.4,0,0,1-58.1-8.8c-17.9-4.6-35.3-10.4-53.9-10.9s-37,3-55.4,4.8-37.6,1.1-56.2-4.8-33.7-11.4-52.1-11.1-35.4,4.9-52.4,10.1c-20.2,6.2-40.1,13.5-61.2,15.5S-12,203-34,203c-3.9,0-3.9,6,0,6Z"/><path d="M-42,237c18.1,0,36.3.6,54.3-1.7,8.3-1.1,16.6-2.5,24.8-4.3s16-3.1,22.9-7.3c3.3-2,.3-7.2-3-5.2-6.6,4.1-14.8,5.3-22.4,6.9s-17.2,3.4-25.9,4.3C-8.2,231.6-25.1,231-42,231c-3.9,0-3.9,6,0,6Z"/><path d="M-42,311c11.5,0,22.9-.4,34.4-1.1s21.8-2,32.7-1.5c20.2,1,39.5,8.1,59.1,12.6s38.3,5.3,57.6.6,38.7-13.8,57.7-21.5,40.3-14.4,61.5-13c10.7.7,21.1,3.9,31.8,5.2a318.4,318.4,0,0,1,34.1,5.6c21.8,5,43.4,10.4,65.5,13.7a500.7,500.7,0,0,0,65,5.5c11.9.2,23.6-.2,35.1-3.3,5.2-1.4,10.3-2.8,15.7-2.9s13.1,0,19.6,0H605c3.9,0,3.9-6,0-6H535.7c-10.7,0-21.9-1-32.5.3s-19.2,5-29.3,5.7c-22,1.4-44.6-.6-66.4-3.2s-44.6-7.4-66.7-12.6c-11-2.6-22.1-5.4-33.3-7s-21.1-2.2-31.5-4.6c-20.3-4.7-40.7-1.9-60.4,4.4s-38.2,15.7-57.7,22.6-40.2,10.6-61.3,7S54,305.5,31.8,303c-11.6-1.3-23.1,0-34.6.6-13.1.8-26.1,1.3-39.2,1.3-3.9,0-3.9,6,0,6Z"/><path d="M-42,286c10.3,0,20.5-.1,30.8,0,8.4.1,16.9.6,25.1-1.1,10.1-2.1,20.1-4.5,30.5-4.4s21.7,3,32.2,5.5,20.7,4.8,31.3,5.4a135.1,135.1,0,0,0,30.7-2.1c21-3.6,40.9-11.3,61.4-17.2,40.1-11.4,84.5-14,124.2-.2,9.8,3.4,19.6,6.9,29.8,8.8a210.4,210.4,0,0,0,31.9,3.3c22.2.8,44.4.7,66.5.9,50.8.6,101.7,1,152.5,1,3.9,0,3.9-6,0-6q-67.8,0-135.7-.8l-68.2-.8c-21.8-.3-43.3-1.5-64.2-8.4-9.7-3.2-19.3-7-29.3-9.4s-20.2-3.1-30.3-3.5c-20.5-.8-40.6.3-60.7,4.6s-40.7,12.2-61.3,17.6-43.2,8-65.2,3.5c-11.6-2.4-23-5.8-34.8-7.5s-21-.7-31.5,1.3c-5.6,1.1-11.2,2.7-16.9,3.2a141.2,141.2,0,0,1-14.5.2c-11.4-.2-22.9-.1-34.4-.1-3.9,0-3.9,6,0,6Z"/><path d="M-28,259q17.3,0,34.7-1c10.6-.6,21.7-.6,32-3.2,4.8-1.2,9.5-2.9,14.4-3.3a72,72,0,0,1,18.5.9c10.7,1.7,21.1,4.8,31.9,6.3a71.1,71.1,0,0,0,30.6-2c9.5-2.9,17.9-7.7,26.5-12.6,10.6-6.1,21-6.7,32.9-6.2a316.9,316.9,0,0,1,35.3,3.6c7.6,1.2,14.8,2.4,22.5,2.2s15.1-1,22.6-2,12.4-1.8,18.6-2.7a56.3,56.3,0,0,1,24,1.7c10.6,2.9,20.9,7.1,31.6,9.8a275,275,0,0,0,32.2,6.2c22.6,3.1,45.4,3.7,68.1,3.5,25.7-.2,51.3-1.3,77-1.3H605c3.9,0,3.9-6,0-6-46.5,0-92.9,0-139.4,1s-91.6-.2-135.5-15.2c-9.9-3.4-20.1-6.9-30.6-6.6-5,.1-10.1,1.2-15,1.9-14.2,2.2-29.2,4.7-43.6,3.3-10.1-1-20.1-3.3-30.3-4.3s-22.5-2.4-33.5-1.2-18.3,6.4-27.2,11.3-19.5,9.2-30.2,10.1c-24.5,1.9-47.9-12.2-72.5-7.1-5.5,1.1-10.7,3.2-16.2,3.9s-13,1.1-19.5,1.5Q-8.2,253-28,253c-3.9,0-3.9,6,0,6Z"/><path d="M-28,360c43.1.1,85.8,6.9,128.7,10.5,20.6,1.7,41.6,3.5,62.2,1.1s36.7-9.2,54.1-17.4,36.4-17.1,56.4-21.1a145.1,145.1,0,0,1,62.2,1C356,339,375.5,346.5,396,351a429.5,429.5,0,0,0,60.7,8.3c46.7,3.3,93.6.7,140.3.7,3.9,0,3.9-6,0-6-41.7,0-83.5,2.1-125.2.2a466,466,0,0,1-63-6.8c-20.7-3.8-40.4-10.3-60.6-16.2s-39.1-8.3-59.3-6.4-38,7.3-55.7,15.1-35.3,17.9-54.6,22.8-41.7,4.2-62.5,2.9C68,362.5,20.3,354.1-28,354c-3.9,0-3.9,6,0,6Z"/><path d="M-19,394c11,0,22.1-.5,33.1-.4s23,2.3,34.4,4a273.5,273.5,0,0,0,119.9-8c19.5-5.8,37.7-14.3,55.9-23.2s39.2-15.7,60.8-16.9,42.4,1.4,63.1,5.9c42.5,9.3,82.7,26.7,125.3,36a129.7,129.7,0,0,0,33.9,2.8c12.2-.5,24.5-.2,36.7-.2H619c3.9,0,3.9-6,0-6H519.5c-10.5,0-21.2,1.3-31.7.1-22-2.6-43.9-10.3-64.9-16.9s-40.8-13.4-61.6-18.7c-39-9.8-81.5-14.4-120,.1-19.7,7.4-37.8,18.4-57.6,25.7a268.7,268.7,0,0,1-60.1,14.7,266.1,266.1,0,0,1-69-.4c-11.9-1.6-23.7-4.1-35.7-4.7-6.1-.3-12.1.2-18.2.3S-12.5,388-19,388c-3.9,0-3.9,6,0,6Z"/><path d="M-19,337c40.3.1,79.9,8.5,119.9,12.3,19.3,1.8,38.8,2.4,58.1.3a188.5,188.5,0,0,0,53.1-14.3c17.9-7.6,35.3-15.7,54.6-18.8a187,187,0,0,1,62,.7c19.6,3.6,38.3,11.3,57.8,15.5s38.8,7,58.3,9.3c10.8,1.2,21.7,1.8,32.5.4s19.8-5.6,30.5-5.7c23.4-.3,46.9.4,70.3.4,3.9,0,3.9-6,0-6-20.6,0-41.3.4-61.8-.3-9.5-.3-18.2.2-27.3,2.8a91.2,91.2,0,0,1-28.9,3.6c-20.2-.6-40.7-4.4-60.5-8s-38.5-10.2-57.9-15.3A179.2,179.2,0,0,0,227.8,322c-17.5,7.4-34.6,15.3-53.4,19.2s-39.2,4.4-58.8,3.3C70.6,341.9,26.3,331.1-19,331c-3.9,0-3.9,6,0,6Z"/><path d="M-19,102c6,0,12.1-.4,18.1-.2s13.3,2,19.8,4c11.9,3.7,23.5,8.3,35.7,10.7,23.3,4.6,47,1.5,70.3-1.3s47.9-5.4,71.3.8c12,3.2,23.4,8.1,35.3,11.5a173,173,0,0,0,36.3,5.9,317.2,317.2,0,0,0,42.5-.2c12-.8,23.9-3,34.1-9.5,3.3-2.1.2-7.3-3-5.2-9.9,6.2-21.3,8.1-32.8,8.8a339.5,339.5,0,0,1-37.1.3,170.7,170.7,0,0,1-37.6-5.7c-11.6-3.2-22.8-7.9-34.4-11.2-46.1-13-92.6,7.9-139,.7-13.5-2.1-26.2-7.1-39.1-11.2C15,98.3,8.5,96.5,1.8,96S-12.1,96-19,96c-3.9,0-3.9,6,0,6Z"/><path d="M-19,10C-9,9.9.5,8.5,10.1,12.2a138.5,138.5,0,0,0,28.4,7.9c19.7,3.1,39.1.3,58.6-2.2,41.6-5.3,83.6-2,125.3.5,21.1,1.3,42.2,2.4,63.4,2.2s41.7-1.5,62.5-2.3,39.1-1.7,58.6-4.1,41-4.9,61.9-4.5c47.4.8,94.8.3,142.2.3,3.9,0,3.9-6,0-6H548.7c-21.1,0-42.1.6-63.2.2s-42.4-.8-63.6,2c-19.6,2.6-39.2,4.7-59,5.6-41.7,2-83.3,3.8-125,1.6s-83.2-6.3-124.8-3.1C90.4,12,67.6,17.6,44.6,15A129.4,129.4,0,0,1,12.5,6.8C2,2.7-8,3.9-19,4c-3.9,0-3.9,6,0,6Z"/><path d="M-9,469c43.5.1,87.4,2.7,130.6-4.2a250.4,250.4,0,0,0,61.9-18.3c10-4.4,21.7-9.7,32.9-6.8s17.2,11.3,25.7,16.4c31.5,18.8,71.4,20.8,105.9,9.4a151.1,151.1,0,0,0,24.8-11c10.7-5.8,21-11,33.5-10.7,22.7.5,43.2,13.8,64.6,19.9,24.1,6.8,49,5.4,73.8,5.4H627c3.9,0,3.9-6,0-6H516.8c-11.1,0-22.1-.2-33-2.4-21.7-4.3-40.9-15.7-62.3-20.7-10.4-2.5-21.3-3-31.6,0s-18.4,8.7-27.5,13.2c-34,16.7-76.6,18.7-110.8,1.4-8.5-4.3-15.5-10.1-23.2-15.5s-17.7-7.1-27.6-5-19.7,7.3-29.4,11.2a218.1,218.1,0,0,1-32.3,10.1C90.6,466.7,40.3,463.1-9,463c-3.9,0-3.9,6,0,6Z"/><path d="M-48,450c88.1.1,185.9,14.4,264.3-36,4.1-2.7,8.4-6.1,13.4-6.9s10,3.2,12.6,8c4.2,8,4.7,17.3,11.1,24.2s13.6,8.7,21.3,10.3a240.5,240.5,0,0,0,30.9,4c20.1,1.5,41.7-.8,58.2-13.5,7.4-5.7,12.7-15.8,21.9-18.9s20.8-.6,30,2.2c20.9,6.2,39.6,18.5,60.9,23.6,24.5,5.8,50.6,2.9,75.5,2.8,3.9,0,3.9-6,0-6-23.1.1-47.1,2.5-70-1.8-19.2-3.6-36.2-13.8-54.3-20.8-15.2-5.9-37.4-12.7-51.7-1.4-7.8,6.2-13,14.4-21.9,19.5s-20.1,7.8-30.8,8.5c-12.2.7-24.5-.7-36.6-2.4-8.7-1.2-18.2-2.3-25.6-7.4-13-9-9.6-38.1-30.4-37.3-9.5.4-17.9,8.4-25.7,12.9a201.9,201.9,0,0,1-30.1,14,275.5,275.5,0,0,1-62.1,14.7C59.4,449.2,5.6,444.1-48,444c-3.9,0-3.9,6,0,6Z"/><path d="M-34,425c25.4.1,50.6,2.2,75.9,4.5a353.9,353.9,0,0,0,73.7-.7c21-2.4,40.4-9,59.2-18.4s35.4-19.8,53.7-28.5c20.2-9.5,40.7-14.8,63.1-14.6,12.1.1,24.4.9,36.5,2.2s23.4,3.8,32.1,11.6,12.9,18.2,8.2,28.4-15.3,15.2-25.7,17.3-24.4,2.1-36.4,1.5c-10-.5-21.7-.8-30.3-6.7-10.3-7.1-8.2-20-.4-28.1s22.9-9.6,34.9-8.8c6.5.4,14.2.4,20.1,3.5s8.3,11,2.2,16.1-13,5.4-19.6,5.4c-3.6,0-21.5-.3-16.9-7.5,2.1-3.3-3.1-6.3-5.2-3a9.4,9.4,0,0,0,1.2,11.4c3.9,4.2,10.3,4.6,15.7,5,10.8.8,24.3-.3,31.6-9.5s1.5-20-8.3-23.9c-5.7-2.2-12.1-2.6-18.2-3a88.4,88.4,0,0,0-19.8.2c-11.3,1.6-21.8,7.1-27.3,17.4-4.4,8.3-4.5,18.5,1.8,25.9s18.5,10.3,28.6,11.2c14,1.3,28.5,1.7,42.5-.2,12-1.6,23.9-6,31.4-15.9a27.8,27.8,0,0,0,2.6-29.3c-11.8-24.3-42.6-24.9-65.9-26.3-14.8-.9-29.8-1.1-44.4,1.8a154.4,154.4,0,0,0-33.1,11c-22.6,10.1-43.3,23.8-65.8,34.2-29.7,13.7-62.4,16.8-94.8,16.4-16.9-.2-33.7-2.6-50.5-3.9S-16.4,419-34,419c-3.9,0-3.9,6,0,6Z"/><path d="M388.3,388.8c16.1,2,31.3,7.2,45.9,14.2s25.9,13.5,40,17.3,30.9,4.8,46.3,4.9,32.4-.2,48.6-.2H627c3.9,0,3.9-6,0-6l-100,.2c-16.2.1-32.9-.3-48.7-4.1s-27.7-10.8-41-17.3c-15.6-7.5-31.7-12.9-48.9-15-3.8-.5-3.8,5.5,0,6Z"/><path d="M-131,488c45.7,0,91.4.2,137.1,1.2,22.8.5,45.6.7,68.4-.4,10.9-.5,21.7-1.7,32.6-2.2s21.6-2.1,32.5-3.8,22.5-2.2,33.8-3.4,22.7-1.9,34.2-.9,21.8,3.9,32.8,5.9,21.5,3.1,32,5.4c20.5,4.6,40.3,7.7,61.4,5.7a168.4,168.4,0,0,0,29.8-5.5c9.7-2.7,18.9-7,28.7-9.4s17.8-3.8,27-3.3a225.1,225.1,0,0,1,25.4,3.2c7.8,1.4,15.3,3.4,23,5.1a186.2,186.2,0,0,0,35.9,4.3c3.9.1,3.9-5.9,0-6a177.7,177.7,0,0,1-33.4-3.9c-7-1.5-13.8-3.4-20.8-4.7-13-2.4-27.4-5.4-40.6-3.9-20.5,2.4-38.9,11.7-59,15.7a160.2,160.2,0,0,1-64.3-.4c-10.3-2.2-20.4-4.6-30.9-6.2s-22.1-4.3-33.2-6.3c-21.7-3.8-42.8-1.3-64.5.6-11.2,1-22.1,3.2-33.2,4.5s-21.8,1.4-32.6,2.3c-22.4,1.8-44.9,2.1-67.3,1.8-25.7-.3-51.5-1.4-77.2-1.5s-51.7,0-77.5,0c-3.9,0-3.9,6,0,6Z"/><path d="M552,231c-43.9,0-87.9,1.2-131.7-2a492.6,492.6,0,0,1-67-9.2c-20.3-4.3-40.8-9.8-61.8-9.1s-42.6,6.9-64.2,5.8c-10.8-.6-21.1-4-31.4-7s-20.5-6-30.9-8.4c-19.3-4.4-39.5-6.8-59.1-2.9-9.9,1.9-39.7,12.9-28.9,27.8,5.2,7.3,18.1,9.7,26.2,11s19.2.4,25.8-6.8c3.4-3.7,3.3-8.3-1.1-11s-9.7-2.2-14-4.4-6.5,3.4-3,5.2,6.9,1.9,10.3,3c.8.3,4.3,1.2,4.4,1.9.4,2.3-7.6,5.6-9.3,6.1-8.6,2.4-18.8-.7-26.8-3.9-4.1-1.6-9.8-3.9-7.8-9.3s7.4-7.1,11-9c15.2-7.8,34.7-7.5,51.2-5.4,19,2.4,37.4,8.2,55.7,13.5,8.5,2.5,16.9,4.9,25.8,5.5s18.3-.1,27.3-1.3c18.8-2.3,37.3-5.7,56.4-3.7s37.6,7.5,56.4,10.9a530.6,530.6,0,0,0,56.6,6.8c43.2,3,86.5,1.9,129.8,1.9,3.9,0,3.9-6,0-6Z"/></svg>