<svg id="Layer_2" data-name="Layer 2" xmlns="http://www.w3.org/2000/svg" width="500" height="500" viewBox="0 0 500 500"><title>wood-grain</title><path d="M-34,37.5c8.4-.1,16.8-1.1,25.2-1.2S8,39.3,16.8,41.7a179.4,179.4,0,0,0,54.4,5.7c19.6-.8,39-3.8,58.6-5.3a309.7,309.7,0,0,1,59.2,1.5c19.8,2.3,39.5,5,59.5,5.9a553.1,553.1,0,0,0,60.9-.8c39.8-2.6,79.1-8.8,118.6-14.3,11.2-1.6,22.6-3,33.9-2.9s20.3,2.3,30.3,4.4C511.9,40,532,37.5,552,37.5c5.8,0,5.8-9,0-9-9,0-17.9,0-26.9.5s-18.1.7-27.1-1.1-16.8-3.7-25.4-4.7-19.6-.6-29.3.4c-19.7,1.9-39.2,5.4-58.7,8.1s-40.3,5.3-60.5,7a580.3,580.3,0,0,1-120.5-2.2c-19.7-2.4-39.4-4.8-59.3-4.1S105,35.7,85.4,37.4,43.3,39,22.7,33.9c-9.5-2.4-18.3-6.1-28.3-6.5s-18.9,1-28.4,1.1c-5.8.1-5.8,9.1,0,9Z"/><path d="M-33,85.5H-9.1c7.6,0,14.8-1,22.3-1.6,15.2-1.3,30.5,5.6,45.3,8.3a215.5,215.5,0,0,0,46,3.4c15.6-.5,30.8-3.3,46.1-5.9s31.7-3.5,47.7-.9,30.1,6.8,45.1,10.2c30.1,6.9,59.9,6.7,90.3,2.1s61.1-12.9,92-18.1c13.4-2.3,28.6-5.6,42-1.8,5.9,1.7,12.9,4.5,16.3,10s-.4,10.2-3.5,14.4-7.3,8.7-10.9,13.1-7.7,9.6-12.3,13.6-11.8,6.6-18.7,8.3a163.5,163.5,0,0,1-24.3,4.2c-11.7,1.1-26.7,2.6-37.1-4.2-12.8-8.3-2.8-21.8,7.1-27,6.5-3.4,14.2-5.3,21.2-7.1a109.5,109.5,0,0,1,22.1-3.6c8.2-.5,18.1-1.9,26,1,3,1.1,2.8,1.3.4,3.6s-7.6,5.4-11.7,7.3a84.6,84.6,0,0,1-27.5,8.4c-5.6.7-11.9.9-17.1-1.7s-9.7,5.1-4.5,7.8c11.6,5.9,26.6,3.1,38.5-.5,9.3-2.9,19.2-7.2,26.8-13.4s9.2-15-.3-19.3-20.6-2.7-30.3-2.2a122.2,122.2,0,0,0-23.9,3.7c-7.9,2-16.3,4.2-23.6,7.9-11.3,5.7-21.9,17.8-17.4,31.3,4,11.8,17.2,16.2,28.5,17.4,16.8,1.8,35-1.1,51.3-5.4,7.3-1.9,13.8-4.4,19.7-9.3s9.5-9.8,13.9-15.1c6.9-8.3,19.6-19.1,17.9-31.2S475.9,73,464.1,71.3c-15.7-2.3-32.6,1.6-48.1,4.4C380.6,82.2,345.7,92.1,309.7,95a198.5,198.5,0,0,1-52.9-2.4c-17.6-3.3-34.7-8.7-52.4-11.9a152.6,152.6,0,0,0-51.5-.5c-18,2.8-35.7,6.3-54,6.5a210.5,210.5,0,0,1-54.3-6.9c-8.3-2.1-16.7-4.6-25.3-5.1S2.9,76.5-5.3,76.5H-33c-5.8,0-5.8,9,0,9Z"/><path d="M-34,63.5c9.4.1,18.8.9,28.2.2a115,115,0,0,1,27.6.8c18.7,3.1,36.4,7.1,55.5,6.4s38.7-4.1,58-5.9,39.3-1.2,58.9,1.1,38.6,5.6,58.1,7.6A482.5,482.5,0,0,0,311,76.3a493.1,493.1,0,0,0,57.8-4.6c19.1-2.7,37.9-6.9,56.7-11,10.5-2.3,21.1-4.3,31.9-4.9,8.7-.5,20-1.3,27.8,2.9,2.7,1.5,5.3,3.1,8.3,3.8s8.4.7,12.6.7l31.8.3c5.8,0,5.8-9,0-9-9.5,0-18.9.1-28.4-.2-3.8-.1-7.8.3-11.6-.1s-5.5-1.8-8.2-3.3c-6.7-3.6-14.8-4.1-22.2-4.3a145.3,145.3,0,0,0-27,2.1c-18.9,3-37.3,8.2-56.1,11.5a473.8,473.8,0,0,1-59.1,6.7,483.6,483.6,0,0,1-57.8-.6c-20-1.4-39.8-4.5-59.6-7.2s-38.9-4.8-58.4-4-38.7,4.3-58.1,6a196.8,196.8,0,0,1-32.2.6c-10.7-.8-21.1-3.3-31.6-5.2s-19.8-3-29.9-2.1-21.2.2-31.8.1c-5.8,0-5.8,9,0,9Z"/><path d="M-34,132.5c9.9,0,19.7.2,29.6-.7s17.5,3,26.8,5.3a248,248,0,0,0,57.7,7.7c20,.3,39.4-3.2,59.3-4.8s39.6,2.1,59.2,6.3,38.1,7,57.7,6.6,40.3-2.8,60.4-.6c36.8,4,70.9,26,108.8,20.6a84.4,84.4,0,0,0,26-7.8c8.7-4.4,15.3-10.8,21.6-18.2s12.8-13.6,23.4-14.7c8.8-.9,17.7.2,26.5.3,5.8,0,5.8-9,0-9-14.8-.1-31.9-3.4-44.9,5.7-7,4.9-11.6,12.3-17.5,18.3a53.9,53.9,0,0,1-22,13.2c-37.2,12.2-72.1-7.9-108-15.2-19.5-4-39.2-3.1-59-2.2s-39.9.6-59.9-3.4-37.9-8.8-57.4-9.4-39.5,4.2-59.4,5.1a240.5,240.5,0,0,1-66.7-6.3c-9.7-2.3-19.1-7.2-29.2-6.8-5.1.2-10.2.9-15.3.9H-34c-5.8,0-5.8,9,0,9Z"/><path d="M-28,165.5c10.7,0,21.5-.3,32.2.4s19.1,2.8,28.4,5,19,4.4,28.9,4.9a156.5,156.5,0,0,0,28.1-1.6c19.1-2.5,38-7.2,57.3-8.3a104.1,104.1,0,0,1,29,2c10.2,2.3,20,6.1,30.3,8.4,20.6,4.5,41.3,1.1,61.8-1.3a206.3,206.3,0,0,1,61.8,1.9c20,3.6,39.7,9,59.8,12.6s38.8,6.1,57.7,1.7c21.3-5,37.1-23.5,59.2-25.6,11.2-1.1,22.6-.1,33.8-.1H578c5.8,0,5.8-9,0-9-21.2,0-42.5-.5-63.7-.3-9.8.1-19.2,1.5-28.1,5.7s-16,9.4-24.2,13.8c-18,9.9-38.1,9.7-57.9,7s-40.7-8.2-61.1-12.4-39.7-7.1-59.8-5.8-41.8,6.3-62.9,4.8-38.6-11.2-58.9-12.4-37.8,2.6-56.4,5.8c-11,1.9-22.1,3.7-33.3,4.1s-21.6-1.1-32.4-3.6-20.9-5-31.6-6-23.9-.7-35.8-.7c-5.8,0-5.8,9,0,9Z"/><path d="M-34,210.5c19.5,0,39.1,1.4,58.6.3s36.5-5.6,54.4-11.2,34.8-11.5,53-14,36.5.6,54.6,6.6,34.4,9.9,53,9.2,37.5-4.3,56.3-5.5a129.7,129.7,0,0,1,27.8.9c9.5,1.5,18.7,4.1,27.9,6.7a319.6,319.6,0,0,0,55.7,10.7c21.5,2.1,42.9,1.4,64.4-.9s44-2.9,66.3-2.9c5.8,0,5.8-9,0-9-19.7,0-39.1.1-58.7,2.1s-38.4,3.7-57.8,2.8a282.4,282.4,0,0,1-57.7-8.7c-18-4.7-35.5-10.5-54.3-10.9s-37,3-55.4,4.8-37.3,1.1-55.8-4.8-34-11.4-52.5-11.1-35.7,4.9-52.8,10.2c-20.1,6.2-39.8,13.5-60.8,15.5s-44.1.3-66.1.3c-5.8,0-5.8,9,0,9Z"/><path d="M-42,238.5c18.1,0,36.3.6,54.3-1.7,8.5-1.1,16.8-2.6,25.2-4.4s16.2-3.1,23.2-7.5c4.9-3.1.4-10.8-4.5-7.8-6.5,4.1-14.6,5.2-22,6.8s-17,3.3-25.5,4.3c-16.8,1.9-33.7,1.2-50.6,1.2-5.8,0-5.8,9,0,9Z"/><path d="M-42,312.5c11.5,0,22.9-.4,34.4-1.1s21.8-2,32.7-1.5c20.1,1,39.3,8.1,58.7,12.6s38.8,5.4,58.4.6,38.7-13.8,57.7-21.5,40-14.3,61.1-13c10.7.7,21.1,3.9,31.8,5.2a314.6,314.6,0,0,1,33.7,5.5c21.8,5,43.4,10.4,65.5,13.7a503.7,503.7,0,0,0,65.4,5.5c12,.2,23.8-.2,35.5-3.4,5.1-1.4,10-2.7,15.3-2.8s13.1,0,19.6,0H605c5.8,0,5.8-9,0-9H535.7c-10.7,0-21.9-1-32.5.3s-19.2,5-29.3,5.7c-22,1.4-44.6-.6-66.4-3.2s-44.3-7.3-66.3-12.6c-11-2.6-22.1-5.4-33.3-7s-21.1-2.2-31.5-4.6c-20.6-4.8-41.3-1.9-61.2,4.4-39.2,12.5-75.3,36.8-118.1,29.6-22-3.7-43-12.1-65.3-14.6-11.6-1.3-23.1,0-34.6.6-13.1.8-26.1,1.3-39.2,1.3-5.8,0-5.8,9,0,9Z"/><path d="M-42,287.5c10.3,0,20.5-.1,30.8,0,8.5.1,17.1.6,25.5-1.2,10-2.1,19.9-4.4,30.1-4.3s21.4,2.9,31.8,5.5,20.9,4.8,31.7,5.5a136.9,136.9,0,0,0,31.1-2.2c21-3.6,40.9-11.3,61.4-17.2,39.9-11.4,83.9-13.9,123.4-.2,9.8,3.4,19.6,6.9,29.8,8.8a213.1,213.1,0,0,0,32.3,3.3c22.2.8,44.4.7,66.5.9,50.8.6,101.7,1,152.5,1,5.8,0,5.8-9,0-9q-67.8,0-135.7-.8l-68.2-.8c-21.7-.3-43-1.5-63.8-8.4-9.7-3.2-19.3-7-29.3-9.4s-20.4-3.1-30.7-3.5c-20.6-.8-40.9.4-61.1,4.7s-40.7,12.2-61.3,17.6-42.6,8-64.4,3.5c-11.6-2.4-23-5.8-34.8-7.5s-21.6-.7-32.3,1.3c-5.5,1-10.9,2.7-16.5,3.1a141.9,141.9,0,0,1-14.5.2c-11.4-.2-22.9-.1-34.4-.1-5.8,0-5.8,9,0,9Z"/><path d="M-28,260.5q17.3,0,34.7-1c10.7-.6,22-.6,32.4-3.3,4.7-1.2,9.2-2.8,14-3.3a70,70,0,0,1,18.1.9c10.8,1.7,21.3,4.9,32.1,6.4a72.6,72.6,0,0,0,31.2-2c9.7-2.9,18.2-7.8,26.8-12.8,10.3-6,20.5-6.5,32.2-6a313.3,313.3,0,0,1,34.9,3.6c7.7,1.3,15,2.4,22.9,2.2s15.1-1,22.6-2c15-1.9,27.4-5.2,42.2-1,10.6,2.9,20.9,7.1,31.6,9.8a277.3,277.3,0,0,0,32.6,6.3c22.6,3,45.4,3.7,68.1,3.5,25.7-.2,51.3-1.3,77-1.3H605c5.8,0,5.8-9,0-9-46.5,0-92.9,0-139.4,1s-91.4-.2-135.1-15.1c-10-3.4-20.3-6.9-31-6.7-5.2.1-10.3,1.2-15.4,2-14.1,2.1-28.9,4.7-43.2,3.2-10.1-1-20.1-3.3-30.3-4.3s-22.5-2.3-33.5-1.2-18.8,6.4-28,11.5-19,9-29.4,9.8c-24.7,2-48.1-12.2-72.9-7.1-5.4,1.1-10.6,3.2-16,3.9s-12.9,1.1-19.3,1.5q-19.7,1.2-39.5,1.2c-5.8,0-5.8,9,0,9Z"/><path d="M-28,361.5c43.1.1,85.8,6.9,128.7,10.5,20.6,1.7,41.6,3.5,62.2,1.1s37.2-9.3,54.8-17.6,36.2-16.9,56.1-20.9a143.3,143.3,0,0,1,61.4,1c20.3,4.9,39.9,12.4,60.3,16.9a432.4,432.4,0,0,0,61.1,8.4c46.7,3.3,93.6.7,140.3.7,5.8,0,5.8-9,0-9-41.7,0-83.5,2.1-125.2.2a463.1,463.1,0,0,1-62.6-6.7c-20.7-3.8-40.4-10.3-60.6-16.2s-39.4-8.3-59.7-6.5-38.5,7.3-56.5,15.3-35.1,17.8-54.2,22.6-41.4,4.2-62.1,2.8C68,361,20.3,352.6-28,352.5c-5.8,0-5.8,9,0,9Z"/><path d="M-19,395.5c11,0,22.1-.5,33.1-.4s22.7,2.3,34,4a274.9,274.9,0,0,0,120.7-8c19.7-5.8,37.9-14.4,56.3-23.3s38.7-15.5,60.1-16.7,42.2,1.4,62.7,5.9c42.5,9.3,82.7,26.7,125.3,36a131.4,131.4,0,0,0,34.3,2.8c12.2-.5,24.5-.2,36.7-.2H619c5.8,0,5.8-9,0-9H519.5c-10.4,0-21.1,1.3-31.5.1-21.9-2.6-43.8-10.3-64.7-16.9s-40.8-13.4-61.6-18.7c-39.3-9.9-82-14.5-120.8.1-19.7,7.4-37.8,18.4-57.6,25.7a267.2,267.2,0,0,1-59.7,14.6,265.2,265.2,0,0,1-68.6-.3c-12-1.7-24-4.1-36.1-4.8-6.1-.3-12.1.2-18.2.3s-13.1-.1-19.6-.1-5.8,9,0,9Z"/><path d="M-19,338.5c40.3.1,79.9,8.5,119.9,12.3,19.3,1.8,38.8,2.4,58.1.3a190.9,190.9,0,0,0,53.9-14.5c17.7-7.5,35-15.6,54.2-18.6a184.8,184.8,0,0,1,61.3.7c19.6,3.6,38.3,11.3,57.8,15.5s39,7.1,58.7,9.3c10.9,1.2,21.8,1.8,32.7.4s19.7-5.6,30.3-5.7c23.4-.3,46.9.4,70.3.4,5.8,0,5.8-9,0-9-20.6,0-41.3.4-61.8-.3-9.6-.3-18.5.2-27.7,2.9a89.8,89.8,0,0,1-28.5,3.5c-20-.6-40.4-4.3-60.1-7.9s-38.5-10.2-57.9-15.3a180.6,180.6,0,0,0-114.4,8.1c-17.6,7.4-34.6,15.3-53.4,19.2s-38.9,4.3-58.4,3.2C70.6,340.4,26.3,329.6-19,329.5c-5.8,0-5.8,9,0,9Z"/><path d="M-19,103.5c6,0,12.1-.4,18.1-.2s13,2,19.4,4C30.4,111,42,115.6,54.2,118c23.4,4.6,47.2,1.6,70.7-1.3s47.7-5.4,70.9.8c12,3.2,23.4,8.1,35.3,11.5a175,175,0,0,0,36.7,6,317.2,317.2,0,0,0,42.5-.2c12.2-.9,24.4-3.1,34.9-9.7,4.9-3.1.4-10.9-4.5-7.8-9.6,6.1-20.8,7.9-32,8.6a339.5,339.5,0,0,1-37.1.3,168.8,168.8,0,0,1-37.2-5.6c-11.6-3.2-22.8-7.9-34.4-11.2-46.2-13-92.6,7.9-139,.7C47.4,108,34.7,103,21.8,98.9c-6.5-2.1-13.1-3.9-20-4.4s-13.9,0-20.8,0-5.8,9,0,9Z"/><path d="M-19,11.5C-9.1,11.4.2,10,9.7,13.7a138.5,138.5,0,0,0,28.4,7.9c19.8,3.1,39.3.4,59-2.1,41.6-5.3,83.6-2,125.3.5,21.1,1.3,42.2,2.4,63.4,2.2s41.7-1.5,62.5-2.3,39.1-1.7,58.6-4.1,41-4.9,61.9-4.5c47.4.8,94.8.3,142.2.3,5.8,0,5.8-9,0-9H548.7c-21.1,0-42.1.6-63.2.2s-42.4-.8-63.6,2c-19.6,2.6-39.2,4.7-59,5.6-41.7,2-83.3,3.8-125,1.6S154.8,5.6,113.2,8.7c-22.9,1.7-45.6,7.4-68.6,4.7A128.1,128.1,0,0,1,12.9,5.3C2.3,1.2-7.8,2.4-19,2.5c-5.8.1-5.8,9.1,0,9Z"/><path d="M-9,470.5c43.7.1,87.6,2.6,131-4.2a251.8,251.8,0,0,0,62.2-18.5c9.6-4.2,21-9.4,31.7-6.7s17,11.3,25.4,16.2c31.8,19,72.2,21.1,107,9.5a153.3,153.3,0,0,0,25.2-11.2C384,450,394,445,406.3,445.3c22.5.5,42.9,13.8,64.2,19.8,24.2,6.9,49.3,5.4,74.2,5.4H627c5.8,0,5.8-9,0-9H516.8c-11,0-21.8-.2-32.6-2.3-21.7-4.3-40.9-15.7-62.3-20.7-10.6-2.5-21.8-3.1-32.4,0s-18.6,8.8-27.8,13.4c-33.5,16.5-75.6,18.4-109.3,1.4-8.5-4.3-15.5-10.1-23.2-15.5s-18.5-7.3-28.7-5.1-19.7,7.3-29.4,11.2a217.5,217.5,0,0,1-32.3,10.1C90.4,465.2,40.2,461.6-9,461.5c-5.8,0-5.8,9,0,9Z"/><path d="M-48,451.5c88.4.1,186.4,14.3,265-36.2,3.9-2.5,8.1-5.9,12.8-6.7s8.8,3,11.1,7.3c4.3,8.1,4.8,17.5,11.4,24.5s14,9.1,22,10.7a243.6,243.6,0,0,0,31.3,4.1c20.5,1.5,42.5-.9,59.2-13.9,7.2-5.5,12.4-15.5,21.2-18.5s20.3-.5,29.2,2.2c20.9,6.2,39.6,18.5,60.9,23.6,24.6,5.8,50.9,2.9,75.9,2.9,5.8,0,5.8-9,0-9-23,.1-46.9,2.6-69.6-1.7-19.2-3.6-36.2-13.8-54.3-20.8-15.8-6.1-38.4-12.8-53.2-1-7.7,6.1-12.8,14.3-21.6,19.2s-19.6,7.6-30,8.3c-12.1.7-24.2-.6-36.2-2.3-8.5-1.2-18-2.2-25.2-7.3s-8.6-16-12.6-24.3-10-13.4-18.5-13.2-18.4,8.4-26.5,13.1a199.5,199.5,0,0,1-29.7,13.9,273.9,273.9,0,0,1-61.7,14.7C59.4,447.7,5.6,442.6-48,442.5c-5.8,0-5.8,9,0,9Z"/><path d="M-34,426.5c25.4.1,50.6,2.2,75.9,4.5a353.9,353.9,0,0,0,73.7-.7c21.3-2.4,40.9-9.1,60-18.6s35.4-19.8,53.7-28.5c19.9-9.4,40.2-14.6,62.3-14.4,12.1.1,24.4.9,36.5,2.2s22.7,3.6,31.1,11.2,12.3,17,8,26.6-14.8,14.6-24.8,16.6c-11.7,2.3-24.2,2-36,1.4-9.7-.5-21.2-.7-29.5-6.5s-7.2-18.4-.1-25.8c8.6-8.9,22.3-9.2,33.8-8.4,6.2.4,13.6.4,19.3,3.3s7.3,9.3,1.9,13.7-12.3,4.9-18.5,4.9c-2.5,0-18.8-.3-15.6-5.3s-4.7-9.4-7.8-4.5a10.9,10.9,0,0,0,1.4,13.2c4.2,4.5,10.9,5,16.7,5.4,11.4.8,25.3-.5,32.9-10.3s1.5-21.9-9.2-26.1c-5.8-2.3-12.4-2.6-18.6-3.1a90.2,90.2,0,0,0-20.2.3c-11.6,1.7-22.5,7.5-28.2,18.1-4.7,8.9-4.8,19.8,2.1,27.7s19.2,10.7,29.7,11.7c14.1,1.4,28.8,1.7,42.9-.2,12.4-1.7,24.6-6.3,32.3-16.6s7.5-20.7,2.6-30.8c-12.1-24.9-43.3-25.6-67.2-27.1-15-.9-30-1.1-44.8,1.8a156.1,156.1,0,0,0-33.5,11.2c-22.6,10.1-43.3,23.8-65.8,34.2-62.3,28.8-131.6,10-197.2,9.8-5.8,0-5.8,9,0,9Z"/><path d="M388.3,390.3c15.8,2,30.8,7.1,45.1,14s26.2,13.6,40.4,17.4,31.2,4.8,46.7,5,32.4-.2,48.6-.2H627c5.8,0,5.8-9,0-9l-100,.2c-16.1.1-32.6-.3-48.3-4s-27.4-10.8-40.7-17.1c-15.8-7.6-32.2-13-49.6-15.2-5.7-.7-5.7,8.3,0,9Z"/><path d="M-131,489.5c45.7,0,91.4.2,137.1,1.2,22.8.5,45.6.7,68.4-.4,10.9-.5,21.7-1.7,32.6-2.2s21.8-2.2,32.9-3.8,22.3-2.2,33.4-3.4,22.7-1.9,34.2-.9,21.5,3.9,32.4,5.8,21.5,3.1,32,5.4c20.6,4.6,40.6,7.7,61.8,5.7a170.6,170.6,0,0,0,30.2-5.5c9.7-2.7,18.9-7,28.7-9.4s17.6-3.7,26.6-3.2a221.6,221.6,0,0,1,25,3.2c7.8,1.4,15.3,3.4,23,5.1a188.3,188.3,0,0,0,36.3,4.4c5.8.1,5.8-8.9,0-9a175.5,175.5,0,0,1-33-3.9c-7-1.5-13.8-3.4-20.8-4.7-13.1-2.4-27.7-5.5-41-3.9a131.2,131.2,0,0,0-29.4,6.7c-9.9,3.6-19.7,6.9-30,9a158.3,158.3,0,0,1-63.5-.4c-10.3-2.2-20.4-4.6-30.9-6.2s-22.1-4.3-33.2-6.3c-21.9-3.9-43-1.4-64.9.6-11.2,1-22.1,3.2-33.2,4.5s-21.8,1.4-32.6,2.3c-22.4,1.8-44.9,2.1-67.3,1.8-25.7-.3-51.5-1.4-77.2-1.5s-51.7,0-77.5,0c-5.8,0-5.8,9,0,9Z"/><path d="M552,229.5c-43.9,0-87.9,1.2-131.7-2a489.6,489.6,0,0,1-66.6-9.1c-20.5-4.4-41-9.8-62.2-9.2s-42.6,6.9-64.2,5.8c-10.7-.6-20.8-3.9-31-6.9s-20.5-6-30.9-8.4c-19.5-4.5-40-6.8-59.9-2.9-11.1,2.2-41.2,13.8-29.8,30,5.4,7.7,18.6,10.4,27.1,11.7s20.2.4,27.3-7.1c4.1-4.4,3.8-10.2-1.4-13.4a28.7,28.7,0,0,0-8-2.9c-1.8-.4-5.4-1.2-6-1.5-5.1-2.6-9.7,5.1-4.5,7.8,3.3,1.7,7.2,2,10.7,3.1.6.2,4.2,2,3.4.6s-.1-.2-1.3.7a20.8,20.8,0,0,1-7.1,3.8c-8.3,2.3-18.3-.8-26-3.9-3.1-1.2-8.5-3.1-6.8-7.3s7-6.6,10.4-8.3c15-7.7,34.2-7.3,50.5-5.2,18.8,2.4,37.1,8.2,55.3,13.4,8.7,2.5,17.2,4.9,26.2,5.6s18.3-.1,27.3-1.3c18.8-2.3,37.3-5.7,56.4-3.7s37.3,7.5,56,10.8a534.3,534.3,0,0,0,57,6.8c43.2,3,86.5,1.9,129.8,1.9,5.8,0,5.8-9,0-9Z"/></svg>