<?xml version="1.0" encoding="utf-8"?>
<!-- Generator: Adobe Illustrator 21.0.0, SVG Export Plug-In . SVG Version: 6.00 Build 0)  -->
<svg version="1.1" id="Layer_2" xmlns="http://www.w3.org/2000/svg" xmlns:xlink="http://www.w3.org/1999/xlink" x="0px" y="0px"
	 viewBox="0 0 500 500" style="enable-background:new 0 0 500 500;" xml:space="preserve">
<style type="text/css">
	.st0{filter:url(#Adobe_OpacityMaskFilter);}
	.st1{fill:#FFFFFF;}
	.st2{mask:url(#SVGID_1_);}
</style>
<title>wood-grain</title>
<defs>
	<filter id="Adobe_OpacityMaskFilter" filterUnits="userSpaceOnUse" x="-132.4" y="5.3" width="760.9" height="489.3">
		<feColorMatrix  type="matrix" values="1 0 0 0 0  0 1 0 0 0  0 0 1 0 0  0 0 0 1 0"/>
	</filter>
</defs>
<mask maskUnits="userSpaceOnUse" x="-132.4" y="5.3" width="760.9" height="489.3" id="SVGID_1_">
	<g class="st0">
		<rect class="st1" width="500" height="500"/>
	</g>
</mask>
<g class="st2">
	<path d="M-34,34.5c8.4-0.1,16.8-1.1,25.2-1.2s17.4,3,26.4,5.4c17.5,4.6,35.6,6.5,53.6,5.6c19.6-0.8,39-3.8,58.6-5.3
		c19.7-1.4,39.6-0.9,59.2,1.5c19.8,2.3,39.5,5,59.5,5.9c20.3,0.9,40.6,0.6,60.9-0.8c39.5-2.6,78.6-8.7,117.8-14.2
		c11.5-1.6,23.1-3.1,34.7-3s20.8,2.3,31.1,4.5c19.5,4.1,39.4,1.5,59.1,1.5c0.8,0,1.5-0.7,1.5-1.5s-0.7-1.5-1.5-1.5
		c-9,0-17.9,0-26.9,0.5s-18.6,0.7-27.9-1.2s-16.3-3.6-24.6-4.6s-19.6-0.6-29.3,0.4c-19.4,1.9-38.6,5.3-57.9,8s-40.8,5.3-61.3,7.1
		c-40.1,3.5-80.5,2.7-120.5-2.2c-19.7-2.4-39.4-4.8-59.3-4.1s-39.4,3.4-59,5.1c-21.3,1.8-42.6,1.6-63.5-3.6
		c-9.3-2.3-17.8-6-27.5-6.4s-18.9,1-28.4,1.1c-0.8,0-1.5,0.7-1.5,1.5S-34.8,34.5-34,34.5z"/>
	<path d="M-33,82.5h23.9c7.6,0,14.8-1,22.3-1.6c15.4-1.3,31.1,5.7,46.1,8.4c14.9,2.7,30.1,3.8,45.2,3.3c15.3-0.5,30.2-3.3,45.3-5.8
		s32.7-3.6,49.3-0.9s30.1,6.8,45.1,10.2c29.5,6.8,58.9,6.6,88.7,2.1s61.1-12.9,92-18.1c13.9-2.3,29.6-5.7,43.6-1.8
		c6.7,1.9,14.3,5.2,18,11.4s0.3,12.2-3.5,17.5s-7.6,9.1-11.4,13.7s-7.7,9.6-12.3,13.6s-12.6,7.3-20,9.1c-8.2,2.1-16.6,3.5-25.1,4.3
		c-12.4,1.2-27.6,2.5-38.6-4.6c-5.8-3.7-9.1-10.3-7.1-17.1s8.2-11.9,14.2-15.1s14.6-5.5,21.9-7.4c7.5-2,15.2-3.3,22.9-3.7
		c8.6-0.5,18.5-1.8,26.8,1.1c12.4,4.3-5.8,14.1-10.5,16.4c-9.1,4.6-18.9,7.6-29,8.8c-6.2,0.7-12.9,0.8-18.6-2.1
		c-1.7-0.9-3.2,1.7-1.5,2.6c10.8,5.5,25.1,2.6,36.2-0.8c8.8-2.7,18.2-6.8,25.5-12.6c5.4-4.3,8.1-11.2,0.4-14.6S437.1,96.5,428,97
		c-7.8,0.4-15.5,1.6-23.1,3.6c-7.7,2-15.8,4-22.9,7.6c-10.1,5.1-20.2,15.8-16,27.9c3.6,10.4,15.7,14.1,25.6,15.2
		c16.6,1.8,34.5-1.1,50.5-5.3c6.8-1.8,12.9-4,18.4-8.5s9.5-9.8,13.9-15.1c6.2-7.4,18.6-17.8,17-28.6s-17.6-18.1-28.1-19.6
		c-15.2-2.1-31.6,1.7-46.5,4.4c-35.7,6.5-70.9,16.5-107.1,19.4c-17.9,1.6-36,0.8-53.7-2.4c-17.6-3.3-34.7-8.7-52.4-11.9
		c-16.5-3-33.4-3.2-49.9-0.5c-18.3,2.8-36.2,6.4-54.8,6.6c-18.6,0.1-37.1-2.3-55.1-7c-8-2.1-16.2-4.5-24.5-5S2.9,79.5-5.3,79.5H-33
		c-0.8,0-1.5,0.7-1.5,1.5S-33.8,82.5-33,82.5z"/>
	<path d="M-34,60.5c9.4,0.1,18.8,0.9,28.2,0.2c9.5-0.8,19-0.5,28.4,1c18.4,3,35.9,7,54.7,6.3s38.7-4.1,58-5.9s39.3-1.2,58.9,1.1
		c19.6,2.3,38.6,5.6,58.1,7.6c19.5,2,39.1,2.9,58.7,2.5c19.1-0.4,38.1-1.9,57-4.5c19.1-2.7,37.9-6.9,56.7-11
		c10.8-2.3,21.6-4.4,32.7-5c9.3-0.5,20.9-1.1,29.3,3.3c2.5,1.3,4.8,2.8,7.6,3.5s7.9,0.6,11.8,0.6l31.8,0.3c0.8,0,1.5-0.7,1.5-1.5
		s-0.7-1.5-1.5-1.5c-9.5,0-18.9,0.1-28.4-0.2c-4-0.1-8.1,0.2-12-0.2s-6.3-2-9.3-3.6c-6.2-3.4-13.8-3.7-20.7-3.9
		c-8.8-0.2-17.5,0.5-26.2,1.9c-18.9,3-37.3,8.2-56.1,11.5c-19.8,3.5-39.8,5.8-59.9,6.8c-19.3,1-38.6,0.8-57.8-0.6
		c-20.3-1.4-40.3-4.5-60.4-7.3s-38.3-4.7-57.6-3.9s-38.7,4.3-58.1,6c-10.7,1.1-21.5,1.3-32.2,0.6c-11-0.8-21.6-3.4-32.4-5.3
		s-19.3-2.8-29.1-2s-21.2,0.2-31.8,0.1c-0.8,0-1.5,0.7-1.5,1.5s0.7,1.5,1.5,1.5L-34,60.5z"/>
	<path d="M-34,129.5c9.9,0,19.7,0.2,29.6-0.7s18.1,3,27.6,5.5c18.6,4.8,37.7,7.3,56.9,7.6c20,0.3,39.4-3.2,59.3-4.8s40.1,2.2,60,6.4
		s37.5,6.9,57,6.4s40.3-2.8,60.4-0.6c36.6,4,70.8,26.1,108.4,20.7c8.6-1.1,17.1-3.7,24.9-7.5c8.5-4.3,14.9-10.5,21-17.7
		s14.1-14.5,25.5-15.6c8.8-0.9,17.7,0.2,26.5,0.3c0.8,0,1.5-0.7,1.5-1.5s-0.7-1.5-1.5-1.5c-14.1-0.1-31-3.5-43.4,5.3
		c-6.7,4.8-11.2,12-16.9,17.8c-6.5,6.5-14.5,11.3-23.3,14c-37.8,12.4-73.1-7.8-109.6-15.2c-19.2-3.9-38.7-3-58.2-2
		s-40.4,0.5-60.7-3.5c-18.7-3.7-37.4-8.7-56.6-9.3s-39.5,4.2-59.4,5.1c-22.7,1-45.4-1.1-67.5-6.4c-9.4-2.2-18.6-7.1-28.4-6.7
		c-5.1,0.2-10.2,0.9-15.3,0.9H-34c-0.8,0-1.5,0.7-1.5,1.5C-35.5,128.8-34.8,129.5-34,129.5z"/>
	<path d="M-28,162.5c10.7,0,21.5-0.3,32.2,0.4s19.6,2.8,29.2,5.1s18.5,4.3,28.1,4.8c9.3,0.3,18.5-0.2,27.7-1.5
		c19.3-2.5,38.3-7.2,57.7-8.3c10-0.7,20,0,29.8,2.1c10.2,2.3,20,6.1,30.3,8.4c20.2,4.4,40.8,1,61-1.4c20.8-2.5,42-1.8,62.6,2
		c20,3.6,39.7,9,59.8,12.6c18.3,3.3,37.7,5.9,56.1,1.7c21.7-5,37.4-23.5,60-25.7c11.2-1.1,22.6-0.1,33.8-0.1H578
		c0.8,0,1.5-0.7,1.5-1.5s-0.7-1.5-1.5-1.5c-21.2,0-42.5-0.5-63.7-0.3c-9.2,0.1-18.2,1.3-26.6,5.3s-16,9.4-24.2,13.8
		c-18.7,10.2-39.3,10.1-59.9,7.4s-41-8.2-61.5-12.5s-39.1-6.9-59-5.7s-41.8,6.3-62.9,4.8s-38.6-11.2-58.9-12.4
		c-18.7-1.1-37.3,2.6-55.6,5.7c-11.3,1.9-22.6,3.8-34.1,4.2s-22.2-1.1-33.2-3.7s-20.3-4.9-30.8-5.9s-23.9-0.7-35.8-0.7
		c-0.8,0-1.5,0.7-1.5,1.5s0.7,1.5,1.5,1.5L-28,162.5z"/>
	<path d="M-34,207.5c19.5,0,39.1,1.4,58.6,0.3s36-5.5,53.6-11.1s34.8-11.4,53-14s37.6,0.4,56.2,6.6s33.8,9.7,52.2,9.1
		s37.5-4.3,56.3-5.5s37.7,2.4,56.5,7.7c17.9,5.2,36.3,8.7,54.9,10.6c21.5,2.1,42.9,1.4,64.4-0.9s44-2.9,66.3-2.9
		c0.8,0,1.5-0.7,1.5-1.5s-0.7-1.5-1.5-1.5c-19.7,0-39.1,0.1-58.7,2.1s-38.4,3.7-57.8,2.8c-19.8-0.9-39.4-3.9-58.5-8.9
		c-17.7-4.6-35-10.4-53.5-10.8s-37,3-55.4,4.8s-37.9,1.1-56.6-4.9c-17.1-5.5-33.4-11.3-51.7-11s-35.2,4.9-52,10.1
		c-20.3,6.3-40.3,13.6-61.6,15.6s-44.1,0.3-66.1,0.3c-0.8,0-1.5,0.7-1.5,1.5s0.7,1.5,1.5,1.5L-34,207.5z"/>
	<path d="M-42,235.5c18.1,0,36.3,0.6,54.3-1.7c8.2-1,16.3-2.5,24.4-4.3s15.8-3,22.5-7.2c1.6-1,0.1-3.6-1.5-2.6
		c-6.7,4.2-15.1,5.4-22.7,7.1s-17.5,3.4-26.3,4.4c-16.8,1.9-33.7,1.2-50.6,1.2c-0.8,0-1.5,0.7-1.5,1.5s0.7,1.5,1.5,1.5L-42,235.5z"
		/>
	<path d="M-42,309.5c11.5,0,22.9-0.4,34.4-1.1s21.8-2,32.7-1.5c20.4,1,39.8,8.1,59.5,12.7s37.7,5.2,56.8,0.6s38.7-13.8,57.7-21.5
		s40.5-14.5,61.9-13.1c10.7,0.7,21.1,3.9,31.8,5.2c11.6,1.2,23.1,3.1,34.5,5.6c21.8,5,43.4,10.4,65.5,13.7c21.4,3.2,43,5,64.6,5.4
		c11.8,0.2,23.3-0.2,34.7-3.3c5.3-1.5,10.5-2.8,16.1-2.9c5.6-0.1,13.1,0,19.6,0H605c0.8,0,1.5-0.7,1.5-1.5s-0.7-1.5-1.5-1.5h-69.3
		c-10.7,0-21.9-1-32.5,0.3s-19.1,5-29.3,5.7c-22,1.4-44.6-0.6-66.4-3.2s-44.9-7.4-67.1-12.7c-11-2.6-22.1-5.4-33.3-7
		s-21.1-2.2-31.5-4.6c-20-4.6-40.2-1.8-59.6,4.4s-38.2,15.7-57.7,22.6s-40.7,10.6-62.1,7s-42.5-12-64.5-14.5
		c-11.6-1.3-23.1,0-34.6,0.6c-13.1,0.8-26.1,1.3-39.2,1.3c-0.8,0-1.5,0.7-1.5,1.5s0.7,1.5,1.5,1.5L-42,309.5z"/>
	<path d="M-42,284.5c10.3,0,20.5-0.1,30.8,0c8.3,0.1,16.6,0.6,24.7-1.1c10.2-2.1,20.4-4.5,30.9-4.4s21.9,3,32.6,5.6
		s20.4,4.7,30.9,5.3c10.1,0.5,20.3-0.2,30.3-2.1c21-3.6,40.9-11.3,61.4-17.2c40.3-11.5,85-14,125-0.2c9.8,3.4,19.6,6.9,29.8,8.8
		c10.4,1.9,20.9,2.9,31.5,3.2c22.2,0.8,44.4,0.7,66.5,0.9c50.8,0.6,101.7,1,152.5,1c0.8,0,1.5-0.7,1.5-1.5s-0.7-1.5-1.5-1.5
		c-45.2,0-90.4-0.3-135.7-0.8l-68.2-0.8c-22-0.3-43.6-1.5-64.6-8.5c-9.7-3.2-19.3-7-29.3-9.4s-19.9-3-29.9-3.4
		c-20.3-0.8-40.3,0.3-60.3,4.6s-40.7,12.2-61.3,17.6s-43.7,8.1-66,3.5c-11.6-2.4-23-5.8-34.8-7.5s-20.5-0.6-30.7,1.3
		c-5.7,1.1-11.5,2.8-17.3,3.2c-4.8,0.3-9.7,0.4-14.5,0.2c-11.4-0.2-22.9-0.1-34.4-0.1c-0.8,0-1.5,0.7-1.5,1.5s0.7,1.5,1.5,1.5
		L-42,284.5z"/>
	<path d="M-28,257.5c11.5,0,23.1-0.3,34.7-1c10.5-0.6,21.4-0.5,31.6-3.2c4.9-1.3,9.7-2.9,14.8-3.4c6.3-0.5,12.6-0.1,18.8,1
		c10.6,1.7,21,4.8,31.7,6.3c10,1.6,20.3,0.9,30-1.9c9.4-2.8,17.7-7.6,26.1-12.5c10.8-6.2,21.5-7,33.7-6.4c12,0.6,23.9,1.8,35.7,3.7
		c7.5,1.2,14.5,2.3,22.1,2.1s15.1-1,22.6-2s12.1-1.7,18.2-2.6c8.3-1.2,16.8-0.6,24.8,1.7c10.6,2.9,20.9,7.1,31.6,9.8
		c10.5,2.7,21.1,4.8,31.8,6.2c22.6,3.1,45.4,3.7,68.1,3.5c25.7-0.2,51.3-1.3,77-1.3H605c0.8,0,1.5-0.7,1.5-1.5s-0.7-1.5-1.5-1.5
		c-46.5,0-92.9,0-139.4,1s-91.9-0.2-135.9-15.2c-9.7-3.3-19.8-6.8-30.2-6.6c-4.9,0.1-9.8,1.2-14.6,1.9c-14.3,2.2-29.5,4.7-44,3.3
		c-10.1-1-20.1-3.3-30.3-4.3s-22.5-2.4-33.5-1.2s-17.8,6.3-26.4,11.1s-20,9.4-30.9,10.3c-24.4,1.9-47.7-12.2-72.1-7.2
		c-5.5,1.2-10.8,3.2-16.4,4s-13.2,1.1-19.7,1.5c-13.1,0.8-26.3,1.2-39.5,1.2c-0.8,0-1.5,0.7-1.5,1.5c0,0.8,0.7,1.5,1.5,1.5l0,0
		L-28,257.5z"/>
	<path d="M-28,358.5c43.1,0.1,85.8,6.9,128.7,10.5c20.6,1.7,41.6,3.5,62.2,1.1c19-2.2,36.2-9.1,53.3-17.2s36.7-17.2,56.8-21.2
		c20.8-4.2,42.3-3.9,63,1c20.3,4.9,39.9,12.4,60.3,16.9c19.9,4.2,40,7,60.3,8.3c46.7,3.3,93.6,0.7,140.3,0.7c0.8,0,1.5-0.7,1.5-1.5
		s-0.7-1.5-1.5-1.5c-41.7,0-83.5,2.1-125.2,0.2c-21.3-0.8-42.4-3.1-63.4-6.8c-20.7-3.8-40.4-10.3-60.6-16.2s-38.8-8.2-58.9-6.4
		s-37.5,7.2-55,14.9s-35.6,18-54.9,22.9s-42,4.3-62.9,2.9c-48-3.1-95.7-11.5-144-11.6c-0.8,0-1.5,0.7-1.5,1.5S-28.8,358.5-28,358.5z
		"/>
	<path d="M-19,392.5c11,0,22.1-0.5,33.1-0.4s23.2,2.3,34.7,4.1c39.8,6.2,80.5,3.4,119.1-8c19.4-5.7,37.4-14.2,55.6-23
		s39.7-15.9,61.6-17.1s42.7,1.4,63.5,6c42.5,9.3,82.7,26.7,125.3,36c11,2.4,22.3,3.3,33.5,2.7c12.2-0.5,24.5-0.2,36.7-0.2H619
		c0.8,0,1.5-0.7,1.5-1.5s-0.7-1.5-1.5-1.5h-99.5c-10.6,0-21.3,1.3-31.9,0.1c-22.1-2.7-44-10.3-65.1-17s-40.8-13.4-61.6-18.7
		c-38.8-9.8-80.9-14.3-119.2,0.1c-19.7,7.4-37.8,18.4-57.6,25.7c-19.5,7.2-39.8,12.1-60.5,14.7c-23.1,2.9-46.4,2.8-69.4-0.4
		c-11.8-1.6-23.5-4-35.4-4.7c-6.1-0.3-12.1,0.2-18.2,0.3s-13.1-0.1-19.6-0.1c-0.8,0-1.5,0.7-1.5,1.5s0.7,1.5,1.5,1.5L-19,392.5z"/>
	<path d="M-19,335.5c40.3,0.1,79.9,8.5,119.9,12.3c19.3,1.8,38.8,2.4,58.1,0.3c18-2.1,35.6-6.9,52.3-14.1c18-7.6,35.5-15.8,55-18.9
		c20.8-3.3,42.1-3,62.8,0.7c19.6,3.6,38.3,11.3,57.8,15.5s38.5,7,57.9,9.2c10.7,1.2,21.5,1.8,32.3,0.4s19.9-5.6,30.7-5.8
		c23.4-0.3,46.9,0.4,70.3,0.4c0.8,0,1.5-0.7,1.5-1.5s-0.7-1.5-1.5-1.5c-20.6,0-41.3,0.4-61.8-0.3c-9.3-0.3-17.9,0.1-26.9,2.8
		c-9.5,2.8-19.4,4-29.3,3.6c-20.3-0.6-40.9-4.4-60.9-8s-38.5-10.2-57.9-15.3c-37.5-9.6-77.1-6.8-112.8,8.1
		c-17.5,7.4-34.6,15.3-53.4,19.2s-39.5,4.5-59.2,3.4c-45.3-2.6-89.6-13.4-134.9-13.5c-0.8,0-1.5,0.7-1.5,1.5S-19.8,335.5-19,335.5z"
		/>
	<path d="M-19,100.5c6,0,12.1-0.4,18.1-0.2s13.5,2,20.2,4.1c11.9,3.7,23.5,8.3,35.7,10.7c23.1,4.5,46.7,1.4,69.9-1.4
		s48.2-5.4,71.7,0.9c12,3.2,23.4,8.1,35.3,11.5c11.7,3.2,23.8,5.2,35.9,5.9c14.2,0.9,28.4,0.8,42.5-0.2c11.7-0.8,23.3-2.9,33.4-9.3
		c1.6-1,0.1-3.6-1.5-2.6c-10.1,6.4-21.8,8.3-33.5,9c-12.4,0.8-24.7,0.9-37.1,0.3c-12.8-0.5-25.6-2.4-38-5.7
		c-11.6-3.2-22.8-7.9-34.4-11.2c-46.1-13-92.6,7.9-139,0.7c-13.5-2.1-26.2-7.1-39.1-11.2c-6.3-2-12.6-3.8-19.2-4.3s-13.9,0-20.8,0
		c-0.8,0-1.5,0.7-1.5,1.5s0.7,1.5,1.5,1.5H-19z"/>
	<path d="M-19,8.5C-8.8,8.4,0.7,7,10.5,10.8c9.2,3.6,18.7,6.3,28.4,7.9c19.5,3.1,38.8,0.2,58.2-2.2c41.6-5.3,83.6-2,125.3,0.5
		c21.1,1.3,42.2,2.4,63.4,2.2s41.7-1.5,62.5-2.3s39.1-1.7,58.6-4.1s41-4.9,61.9-4.5c47.4,0.8,94.8,0.3,142.2,0.3
		c0.8,0,1.5-0.7,1.5-1.5s-0.7-1.5-1.5-1.5h-62.3c-21.1,0-42.1,0.6-63.2,0.2s-42.4-0.9-63.6,2c-19.6,2.6-39.2,4.7-59,5.6
		c-41.7,2-83.3,3.8-125,1.6s-83.2-6.3-124.8-3.1c-22.9,1.7-45.6,7.4-68.6,4.7c-11.1-1.4-22-4.2-32.4-8.4C1.7,4.2-8.1,5.4-19,5.5
		c-0.8,0-1.5,0.7-1.5,1.5S-19.8,8.5-19,8.5z"/>
	<path d="M-9,467.5c43.4,0.1,87.1,2.7,130.2-4.1c21.2-3.4,41.9-9.5,61.5-18.2c10.4-4.6,22.5-10,34-7c9.8,2.5,17.5,11.4,26.1,16.5
		c31.2,18.6,70.6,20.5,104.7,9.2c8.5-2.8,16.7-6.4,24.5-10.7c10.9-5.9,21.5-11.2,34.2-10.9c22.9,0.5,43.4,13.8,65,19.9
		c24,6.8,48.7,5.3,73.4,5.3H627c0.8,0,1.5-0.7,1.5-1.5s-0.7-1.5-1.5-1.5H516.8c-11.3,0-22.3-0.2-33.4-2.4
		c-21.7-4.3-40.9-15.7-62.3-20.7c-10.1-2.4-20.7-3-30.8,0s-18.1,8.6-27.1,13c-34.5,17-77.6,18.9-112.4,1.4
		c-8.5-4.3-15.5-10.1-23.2-15.5s-17-6.8-26.4-4.8s-19.7,7.3-29.4,11.2c-10.5,4.2-21.3,7.6-32.3,10.1c-48.6,11.4-99,7.8-148.5,7.7
		c-0.8,0-1.5,0.7-1.5,1.5S-9.8,467.5-9,467.5L-9,467.5z"/>
	<path d="M-48,448.5c87.8,0.1,185.4,14.4,263.5-35.8c4.3-2.8,8.7-6.2,13.9-7s11.2,3.3,14.1,8.7c4.2,7.8,4.6,17.2,10.9,23.9
		s13.1,8.4,20.6,10c10.1,2,20.3,3.3,30.5,4c19.7,1.4,40.9-0.7,57.1-13c7.7-5.9,13-16,22.5-19.2s21.3-0.6,30.7,2.2
		c20.9,6.2,39.6,18.5,60.9,23.6c24.4,5.8,50.4,2.8,75.1,2.8c0.8,0,1.5-0.7,1.5-1.5s-0.7-1.5-1.5-1.5c-23.3,0.1-47.4,2.5-70.4-1.8
		c-19.2-3.6-36.2-13.8-54.3-20.8c-14.6-5.7-36.3-12.5-50.2-1.8c-8,6.2-13.2,14.6-22.2,19.7s-20.6,8-31.5,8.7s-24.7-0.7-37-2.4
		c-8.8-1.2-18.4-2.4-25.9-7.6s-9.3-16.7-13.6-25.6c-3-6.3-8.4-12-15.9-11.7c-9.2,0.4-17.4,8.3-25,12.7c-9.7,5.6-19.9,10.3-30.4,14.2
		c-20.2,7.3-41.2,12.3-62.5,14.8c-53.5,6.6-107.3,1.5-160.9,1.4c-0.8,0-1.5,0.7-1.5,1.5S-48.8,448.5-48,448.5z"/>
	<path d="M-34,423.5c25.4,0.1,50.6,2.2,75.9,4.5c24.5,2.3,49.2,2.1,73.7-0.7c20.8-2.4,39.9-8.9,58.5-18.2s35.4-19.8,53.7-28.5
		c20.4-9.6,41.2-15,63.9-14.8c12.1,0.1,24.4,0.9,36.5,2.2s24.2,3.9,33.2,12.1s13.5,19.4,8.5,30.3s-15.8,15.8-26.6,18
		s-24.7,2.1-36.8,1.5c-10.3-0.5-22.2-0.9-31-6.9c-11.1-7.6-9.2-21.7-0.7-30.5s23.6-10.1,36-9.3c6.8,0.4,14.7,0.4,20.8,3.7
		c7.7,4,9.2,12.6,2.5,18.4s-13.6,5.8-20.7,5.8c-4.8,0-24-0.6-18.2-9.8c1-1.6-1.6-3.1-2.6-1.5c-1.9,3-1.5,7,1,9.6
		c3.5,4,9.7,4.2,14.6,4.5c10.3,0.7,23.3-0.1,30.3-8.8s1.5-18.1-7.4-21.7c-5.5-2.2-11.9-2.5-17.8-3c-6.5-0.7-13-0.6-19.4,0.1
		c-10.9,1.5-21.1,6.7-26.4,16.7c-4.1,7.7-4.3,17.1,1.6,24.1s17.9,9.9,27.6,10.8c13.9,1.3,28.3,1.7,42.1-0.1
		c11.6-1.5,23.2-5.6,30.5-15.2c6.1-8,7.2-18.8,2.6-27.8c-11.5-23.8-41.9-24.2-64.6-25.6c-14.7-0.9-29.5-1.1-44,1.7
		c-11.3,2.4-22.3,6-32.8,10.9c-22.6,10.1-43.3,23.8-65.8,34.2c-30,13.8-62.9,17-95.6,16.6c-16.9-0.2-33.7-2.6-50.5-3.9
		s-35-2.4-52.6-2.5c-0.8,0-1.5,0.7-1.5,1.5S-34.8,423.4-34,423.5L-34,423.5z"/>
	<path d="M388.3,387.3c16.4,2,31.8,7.3,46.6,14.4c12.9,6.3,25.7,13.3,39.7,17.1s30.6,4.7,45.9,4.9s32.4-0.2,48.6-0.2H627
		c0.8,0,1.5-0.7,1.5-1.5s-0.7-1.5-1.5-1.5l-100,0.2c-16.4,0.1-33.1-0.3-49.1-4.1s-27.9-10.9-41.4-17.4
		c-15.3-7.4-31.2-12.7-48.1-14.8c-1.9-0.2-1.9,2.8,0,3L388.3,387.3z"/>
	<path d="M-131,486.5c45.7,0,91.4,0.2,137.1,1.2c22.8,0.5,45.6,0.7,68.4-0.4c10.9-0.5,21.7-1.7,32.6-2.2s21.3-2.1,32.1-3.7
		s22.8-2.3,34.2-3.5s22.7-1.9,34.2-0.9s22.1,4,33.2,5.9s21.5,3.1,32,5.4c20.4,4.6,40.1,7.6,61,5.6c9.9-0.9,19.8-2.7,29.4-5.4
		c9.7-2.7,18.9-7,28.7-9.4s18.1-3.9,27.4-3.3c8.7,0.6,17.3,1.7,25.8,3.3c7.8,1.4,15.3,3.4,23,5.1c11.7,2.6,23.6,4,35.5,4.3
		c1.9,0,1.9-3,0-3c-11.4-0.3-22.7-1.6-33.8-4c-7-1.5-13.8-3.4-20.8-4.7c-12.9-2.4-27.1-5.4-40.2-3.8c-20.4,2.4-38.6,11.6-58.6,15.6
		c-21.5,4.3-43.7,4.1-65.1-0.4c-10.3-2.2-20.4-4.6-30.9-6.2s-22.1-4.3-33.2-6.3c-21.6-3.8-42.5-1.2-64.1,0.7
		c-11.2,1-22.1,3.2-33.2,4.5s-21.8,1.4-32.6,2.3c-22.4,1.8-44.9,2.1-67.3,1.8c-25.7-0.3-51.5-1.4-77.2-1.5s-51.7,0-77.5,0
		c-0.8,0-1.5,0.7-1.5,1.5s0.7,1.5,1.5,1.5H-131z"/>
	<path d="M552,232.5c-43.9,0-87.9,1.2-131.7-2c-22.7-1.5-45.2-4.6-67.4-9.2c-20.2-4.3-40.5-9.7-61.4-9s-42.6,6.9-64.2,5.8
		c-11-0.6-21.3-4-31.8-7s-20.5-6-30.9-8.4c-19-4.4-39-6.7-58.3-2.9c-8.7,1.7-38.2,12-28,25.6c5.1,6.8,17.6,9.1,25.4,10.4
		s18.2,0.4,24.4-6.4c8.6-9.4-10.2-10.7-14.8-13.1c-1.7-0.9-3.2,1.7-1.5,2.6s6.7,1.8,10,2.8c1.6,0.5,4.9,1.2,5.4,3.1
		c0.8,3.6-8,7.1-10.3,7.7c-8.8,2.5-19.3-0.6-27.6-3.9c-5-2-11.1-4.8-8.7-11.3c1.6-4.4,7.7-7.7,11.7-9.7c15.5-7.9,35.1-7.8,52-5.7
		c19.1,2.4,37.6,8.2,56.1,13.5c8.4,2.4,16.7,4.8,25.4,5.4s18.3-0.1,27.3-1.3c18.8-2.3,37.3-5.7,56.4-3.7s37.8,7.6,56.8,10.9
		c18.6,3.2,37.4,5.5,56.2,6.7c43.2,3,86.5,1.9,129.8,1.9c0.8,0,1.5-0.7,1.5-1.5s-0.7-1.5-1.5-1.5L552,232.5z"/>
</g>
</svg>
