<?xml version="1.0" encoding="utf-8"?>
<!-- Generator: Adobe Illustrator 21.0.0, SVG Export Plug-In . SVG Version: 6.00 Build 0)  -->
<svg version="1.1" id="Layer_2" xmlns="http://www.w3.org/2000/svg" xmlns:xlink="http://www.w3.org/1999/xlink" x="0px" y="0px"
	 viewBox="0 0 500 500" style="enable-background:new 0 0 500 500;" xml:space="preserve">
<style type="text/css">
	.st0{fill:#FFFFFF;}
</style>
<title>wood-grain</title>
<g>
	<path d="M500,31.2v2.9c-2.3-0.3-4.7-0.7-7-1.2c-10.3-2.2-19.5-4.4-31.1-4.5c-11.6-0.1-23.2,1.4-34.7,3
		C388,36.9,348.9,43,309.4,45.6c-20.3,1.4-40.6,1.7-60.9,0.8c-20-0.9-39.7-3.6-59.5-5.9c-19.6-2.4-39.5-2.9-59.2-1.5
		c-19.6,1.5-39,4.5-58.6,5.3c-18,0.9-36.1-1-53.6-5.6C11.7,37.1,5.8,35.2,0,34.2V31c7.5,1.2,14.4,4,21.9,5.8
		c20.9,5.2,42.2,5.4,63.5,3.6c19.6-1.7,39.1-4.4,59-5.1c19.9-0.7,39.6,1.7,59.3,4.1c40,4.9,80.4,5.7,120.5,2.2
		c20.5-1.8,42-4.4,61.3-7.1s38.5-6.1,57.9-8c9.7-1,21-1.4,29.3-0.4s15.3,2.7,24.6,4.6C498.2,30.9,499.1,31,500,31.2z"/>
	<path d="M474.4,122.4c-4.4,5.3-8.4,10.6-13.9,15.1s-11.6,6.7-18.4,8.5c-16,4.2-33.9,7.1-50.5,5.3c-9.9-1.1-22-4.8-25.6-15.2
		c-4.2-12.1,5.9-22.8,16-27.9c7.1-3.6,15.2-5.6,22.9-7.6c7.6-2,15.3-3.2,23.1-3.6c9.1-0.5,21.1-1.6,28.8,1.8
		c7.7,3.4,5,10.3-0.4,14.6c-7.3,5.8-16.7,9.9-25.5,12.6c-11.1,3.4-25.4,6.3-36.2,0.8c-1.7-0.9-0.2-3.5,1.5-2.6
		c5.7,2.9,12.4,2.8,18.6,2.1c10.1-1.2,19.9-4.2,29-8.8c4.7-2.3,22.9-12.1,10.5-16.4c-8.3-2.9-18.2-1.6-26.8-1.1
		c-7.7,0.4-15.4,1.7-22.9,3.7c-7.3,1.9-15.9,4.2-21.9,7.4c-6,3.2-12.2,8.3-14.2,15.1s1.3,13.4,7.1,17.1c11,7.1,26.2,5.8,38.6,4.6
		c8.5-0.8,16.9-2.2,25.1-4.3c7.4-1.8,15.4-5.1,20-9.1c4.6-4,8.5-9,12.3-13.6c3.8-4.6,7.6-8.4,11.4-13.7s7.2-11.3,3.5-17.5
		s-11.3-9.5-18-11.4c-14-3.9-29.7-0.5-43.6,1.8c-30.9,5.2-62.2,13.6-92,18.1c-29.8,4.5-59.2,4.7-88.7-2.1
		c-15-3.4-28.5-7.5-45.1-10.2c-16.6-2.7-34.2-1.6-49.3,0.9c-15.1,2.5-30,5.3-45.3,5.8c-15.1,0.5-30.3-0.6-45.2-3.3
		c-15-2.7-30.7-9.7-46.1-8.4C8.7,81.3,4.4,81.8,0,82.1v-2.9c6.4-0.6,12.8-1.8,19.3-1.4c8.3,0.5,16.5,2.9,24.5,5
		c18,4.7,36.5,7.1,55.1,7c18.6-0.2,36.5-3.8,54.8-6.6c16.5-2.7,33.4-2.5,49.9,0.5c17.7,3.2,34.8,8.6,52.4,11.9
		c17.7,3.2,35.8,4,53.7,2.4c36.2-2.9,71.4-12.9,107.1-19.4c14.9-2.7,31.3-6.5,46.5-4.4c10.5,1.5,26.5,8.8,28.1,19.6
		C493,104.6,480.6,115,474.4,122.4z"/>
	<path d="M500,57.3v2.9c-2.2,0-4.3-0.2-5.7-0.6c-2.8-0.7-5.1-2.2-7.6-3.5c-8.4-4.4-20-3.8-29.3-3.3c-11.1,0.6-21.9,2.7-32.7,5
		c-18.8,4.1-37.6,8.3-56.7,11c-18.9,2.6-37.9,4.1-57,4.5c-19.6,0.4-39.2-0.5-58.7-2.5s-38.5-5.3-58.1-7.6
		c-19.6-2.3-39.6-2.9-58.9-1.1c-19.3,1.8-39.2,5.2-58,5.9S41,64.7,22.6,61.7c-7.5-1.2-15-1.6-22.6-1.3v-3.2
		c8.9-0.5,16.8,0.4,26.8,2.1c10.8,1.9,21.4,4.5,32.4,5.3c10.7,0.7,21.5,0.5,32.2-0.6c19.4-1.7,38.8-5.2,58.1-6s37.5,1.1,57.6,3.9
		c20.1,2.8,40.1,5.9,60.4,7.3c19.2,1.4,38.5,1.6,57.8,0.6c20.1-1,40.1-3.3,59.9-6.8c18.8-3.3,37.2-8.5,56.1-11.5
		c8.7-1.4,17.4-2.1,26.2-1.9c6.9,0.2,14.5,0.5,20.7,3.9c3,1.6,5.4,3.2,9.3,3.6C498.3,57.2,499.2,57.2,500,57.3z"/>
	<path d="M500,125.8v3.1c-1.1,0-2.3,0.1-3.4,0.3c-11.4,1.1-19.4,8.4-25.5,15.6c-6.1,7.2-12.5,13.4-21,17.7
		c-7.8,3.8-16.3,6.4-24.9,7.5c-37.6,5.4-71.8-16.7-108.4-20.7c-20.1-2.2-40.9,0.1-60.4,0.6s-37.1-2.2-57-6.4
		c-19.9-4.2-40.1-8-60-6.4c-19.9,1.6-39.3,5.1-59.3,4.8c-19.2-0.3-38.3-2.8-56.9-7.6C15.1,132.2,8,129,0,128.7v-3.1
		c9.5-0.1,18.4,4.6,27.5,6.7c22.1,5.3,44.8,7.4,67.5,6.4c19.9-0.9,40.2-5.7,59.4-5.1c19.2,0.6,37.9,5.6,56.6,9.3
		c20.3,4,41.2,4.5,60.7,3.5s39-1.9,58.2,2c36.5,7.4,71.8,27.6,109.6,15.2c8.8-2.7,16.8-7.5,23.3-14c5.7-5.8,10.2-13,16.9-17.8
		C485.7,127.5,492.7,126.1,500,125.8z"/>
	<path d="M500,160.6v3.2c-19.3,4.6-33.9,20.1-53.5,24.6c-18.4,4.2-37.8,1.6-56.1-1.7c-20.1-3.6-39.8-9-59.8-12.6
		c-20.6-3.8-41.8-4.5-62.6-2c-20.2,2.4-40.8,5.8-61,1.4c-10.3-2.3-20.1-6.1-30.3-8.4c-9.8-2.1-19.8-2.8-29.8-2.1
		c-19.4,1.1-38.4,5.8-57.7,8.3c-9.2,1.3-18.4,1.8-27.7,1.5c-9.6-0.5-18.5-2.5-28.1-4.8c-9.6-2.3-18.5-4.4-29.2-5.1
		c-1.4-0.1-2.8-0.2-4.2-0.2v-2.9c2.7,0.1,5.2,0.3,7.6,0.5c10.5,1,19.8,3.3,30.8,5.9c11,2.6,21.7,4.1,33.2,3.7
		c11.5-0.4,22.8-2.3,34.1-4.2c18.3-3.1,36.9-6.8,55.6-5.7c20.3,1.2,37.8,10.9,58.9,12.4c21.1,1.5,43-3.6,62.9-4.8
		c19.9-1.2,38.5,1.4,59,5.7s40.9,9.8,61.5,12.5c20.6,2.7,41.2,2.8,59.9-7.4c8.2-4.4,15.8-9.8,24.2-13.8
		C491.7,162.7,495.8,161.4,500,160.6z"/>
	<path d="M500,205v3.2c-9.5,0.4-19,1.1-28.3,2.1c-21.5,2.3-42.9,3-64.4,0.9c-18.6-1.9-37-5.4-54.9-10.6c-18.8-5.3-37.7-8.9-56.5-7.7
		c-18.8,1.2-37.9,4.9-56.3,5.5c-18.4,0.6-33.6-2.9-52.2-9.1c-18.6-6.2-38-9.2-56.2-6.6c-18.2,2.6-35.4,8.4-53,14
		c-17.6,5.6-34.1,10-53.6,11.1c-8.2,0.5-16.4,0.5-24.6,0.4v-3.1c10.9,0.2,21.7,0.1,32.2-0.9c21.3-2,41.3-9.3,61.6-15.6
		c16.8-5.2,33.7-9.8,52-10.1s34.6,5.5,51.7,11c18.7,6,38.2,6.7,56.6,4.9c18.4-1.8,36.9-5.2,55.4-4.8c18.5,0.4,35.8,6.2,53.5,10.8
		c19.1,5,38.7,8,58.5,8.9c19.4,0.9,38.2-0.8,57.8-2.8C486.2,205.8,493.1,205.3,500,205z"/>
	<path d="M59.2,222.3c-6.7,4.2-14.4,5.4-22.5,7.2c-8.1,1.8-16.2,3.3-24.4,4.3c-4.1,0.5-8.2,0.9-12.3,1.2v-3c2.9-0.2,5.8-0.4,8.7-0.8
		c8.8-1,18.7-2.7,26.3-4.4s16-2.9,22.7-7.1C59.3,218.7,60.8,221.3,59.2,222.3z"/>
	<path d="M500,307.1v3.1c-2.7,0.5-5.3,1.2-7.9,2c-11.4,3.1-22.9,3.5-34.7,3.3c-21.6-0.4-43.2-2.2-64.6-5.4
		c-22.1-3.3-43.7-8.7-65.5-13.7c-11.4-2.5-22.9-4.4-34.5-5.6c-10.7-1.3-21.1-4.5-31.8-5.2c-21.4-1.4-42.9,5.4-61.9,13.1
		s-38.6,16.9-57.7,21.5c-19.1,4.6-37.1,4-56.8-0.6c-19.7-4.6-39.1-11.7-59.5-12.7c-8.4-0.4-16.5,0.3-25.1,1v-3.1
		c10.5-0.6,21.1-1.6,31.7-0.4c22,2.5,43.1,10.9,64.5,14.5c21.4,3.6,42.6-0.1,62.1-7c19.5-6.9,38.3-16.4,57.7-22.6s39.6-9,59.6-4.4
		c10.4,2.4,20.3,3,31.5,4.6c11.2,1.6,22.3,4.4,33.3,7c22.2,5.3,45.3,10.1,67.1,12.7c21.8,2.6,44.4,4.6,66.4,3.2
		C483,311.7,490.8,308.6,500,307.1z"/>
	<path d="M500,280.8v3c-15.9-0.1-31.7-0.3-47.6-0.5c-22.1-0.2-44.3-0.1-66.5-0.9c-10.6-0.3-21.1-1.3-31.5-3.2
		c-10.2-1.9-20-5.4-29.8-8.8c-40-13.8-84.7-11.3-125,0.2c-20.5,5.9-40.4,13.6-61.4,17.2c-10,1.9-20.2,2.6-30.3,2.1
		c-10.5-0.6-20.2-2.7-30.9-5.3c-10.7-2.6-22.1-5.5-32.6-5.6s-20.7,2.3-30.9,4.4c-4.4,0.9-9,1.2-13.5,1.2v-3.3c2.3,0,4.5-0.1,6.8-0.3
		c5.8-0.4,11.6-2.1,17.3-3.2c10.2-1.9,18.9-3,30.7-1.3c11.8,1.7,23.2,5.1,34.8,7.5c22.3,4.6,45.4,1.9,66-3.5
		c20.6-5.4,41.3-13.3,61.3-17.6s40-5.4,60.3-4.6c10,0.4,19.9,1,29.9,3.4c10,2.4,19.6,6.2,29.3,9.4c21,7,42.6,8.2,64.6,8.5l68.2,0.8
		C479.5,280.6,489.7,280.7,500,280.8z"/>
	<path d="M500,254.9v2.9c-17.2,0.3-34.4,0.9-51.7,1c-22.7,0.2-45.5-0.4-68.1-3.5c-10.7-1.4-21.3-3.5-31.8-6.2
		c-10.7-2.7-21-6.9-31.6-9.8c-8-2.3-16.5-2.9-24.8-1.7c-6.1,0.9-10.7,1.6-18.2,2.6s-15,1.8-22.6,2c-7.6,0.2-14.6-0.9-22.1-2.1
		c-11.8-1.9-23.7-3.1-35.7-3.7c-12.2-0.6-22.9,0.2-33.7,6.4c-8.4,4.9-16.7,9.7-26.1,12.5c-9.7,2.8-20,3.5-30,1.9
		c-10.7-1.5-21.1-4.6-31.7-6.3c-6.2-1.1-12.5-1.5-18.8-1c-5.1,0.5-9.9,2.1-14.8,3.4c-10.2,2.7-21.1,2.6-31.6,3.2
		c-2.2,0.1-4.5,0.3-6.7,0.3v-3.2c3.9-0.2,7.7-0.3,11.6-0.6c6.5-0.4,14.1-0.7,19.7-1.5c5.6-0.8,10.9-2.8,16.4-4
		c24.4-5,47.7,9.1,72.1,7.2c10.9-0.9,22.3-5.5,30.9-10.3c8.6-4.8,15.4-9.9,26.4-11.1c11-1.2,23.3,0.2,33.5,1.2
		c10.2,1,20.2,3.3,30.3,4.3c14.5,1.4,29.7-1.1,44-3.3c4.8-0.7,9.7-1.8,14.6-1.9c10.4-0.2,20.5,3.3,30.2,6.6
		c44,15,89.4,16.2,135.9,15.2C477.1,255.3,488.5,255.1,500,254.9z"/>
	<path d="M500,356.5v3c-14.5-0.1-29-0.6-43.4-1.6c-20.3-1.3-40.4-4.1-60.3-8.3c-20.4-4.5-40-12-60.3-16.9c-20.7-4.9-42.2-5.2-63-1
		c-20.1,4-39.7,13.1-56.8,21.2c-17.1,8.1-34.3,15-53.3,17.2c-20.6,2.4-41.6,0.6-62.2-1.1c-33.6-2.8-67.1-7.6-100.7-9.6v-3
		c38.8,2.3,77.3,8.2,116,10.7c20.9,1.4,43.6,2,62.9-2.9c19.3-4.9,37.4-15.2,54.9-22.9s34.9-13.1,55-14.9c20.1-1.8,38.7,0.5,58.9,6.4
		c20.2,5.9,39.9,12.4,60.6,16.2c21,3.7,42.1,6,63.4,6.8C481.1,356.2,490.6,356.5,500,356.5z"/>
	<path d="M500,390.2v2.8c-8.8,0-17.5-1-26.1-2.9c-42.6-9.3-82.8-26.7-125.3-36c-20.8-4.6-41.6-7.2-63.5-6
		c-21.9,1.2-43.4,8.3-61.6,17.1s-36.2,17.3-55.6,23c-38.6,11.4-79.3,14.2-119.1,8c-11.5-1.8-23.7-4-34.7-4.1c-4.7,0-9.4,0-14.1,0.1
		v-2.5c0.2,0,0.4,0,0.6,0c6.1-0.1,12.1-0.6,18.2-0.3c11.9,0.7,23.6,3.1,35.4,4.7c23,3.2,46.3,3.3,69.4,0.4
		c20.7-2.6,41-7.5,60.5-14.7c19.8-7.3,37.9-18.3,57.6-25.7c38.3-14.4,80.4-9.9,119.2-0.1c20.8,5.3,40.5,12,61.6,18.7
		s43,14.3,65.1,17C491.7,390.2,495.9,390.3,500,390.2z"/>
	<path d="M500,332.8v3.1c-7.6,1.3-14.8,4-22.9,5c-10.8,1.4-21.6,0.8-32.3-0.4c-19.4-2.2-38.4-5-57.9-9.2s-38.2-11.9-57.8-15.5
		c-20.7-3.7-42-4-62.8-0.7c-19.5,3.1-37,11.3-55,18.9c-16.7,7.2-34.3,12-52.3,14.1c-19.3,2.1-38.8,1.5-58.1-0.3
		c-33.7-3.2-67.1-9.7-100.9-11.7v-3c38.7,2.3,77,10.6,115.9,12.9c19.7,1.1,40.4,0.5,59.2-3.4c18.8-3.9,35.9-11.8,53.4-19.2
		c35.7-14.9,75.3-17.7,112.8-8.1c19.4,5.1,37.9,11.7,57.9,15.3c20,3.6,40.6,7.4,60.9,8c9.9,0.4,19.8-0.8,29.3-3.6
		C493,333.9,496.5,333.2,500,332.8z"/>
	<path d="M343.7,122.5c-10.1,6.4-21.7,8.5-33.4,9.3c-14.1,1-28.3,1.1-42.5,0.2c-12.1-0.7-24.2-2.7-35.9-5.9
		c-11.9-3.4-23.3-8.3-35.3-11.5c-23.5-6.3-48.5-3.7-71.7-0.9c-23.2,2.8-46.8,5.9-69.9,1.4c-12.2-2.4-23.8-7-35.7-10.7
		c-6.4-2-13.5-3.7-19.3-4.1v-3c0.6,0,1.3,0.1,1.9,0.1c6.6,0.5,12.9,2.3,19.2,4.3c12.9,4.1,25.6,9.1,39.1,11.2
		c46.4,7.2,92.9-13.7,139-0.7c11.6,3.3,22.8,8,34.4,11.2c12.4,3.3,25.2,5.2,38,5.7c12.4,0.6,24.7,0.5,37.1-0.3
		c11.7-0.7,23.4-2.6,33.5-9C343.8,118.9,345.3,121.5,343.7,122.5z"/>
	<path d="M500,5.9v2.7c-10.4-0.1-20.8-0.2-31.2-0.4c-20.9-0.4-42.4,2.1-61.9,4.5c-19.5,2.4-37.8,3.3-58.6,4.1
		c-20.8,0.8-41.3,2.1-62.5,2.3s-42.3-0.9-63.4-2.2c-41.7-2.5-83.7-5.8-125.3-0.5c-19.4,2.4-38.7,5.3-58.2,2.2
		c-9.7-1.6-19.2-4.3-28.4-7.9C7,9.4,3.5,8.7,0,8.4V5.5c4,0.3,8,1.1,12.1,2.7c10.4,4.2,21.3,7,32.4,8.4c23,2.7,45.7-3,68.6-4.7
		c41.6-3.2,83.1,0.9,124.8,3.1c41.7,2.2,83.3,0.4,125-1.6c19.8-0.9,39.4-3,59-5.6c21.2-2.9,42.5-2.4,63.6-2
		C490.3,5.9,495.2,5.9,500,5.9z"/>
	<path d="M500,464.1v2.9c-9.7-0.7-19.3-2.1-28.8-4.8c-21.6-6.1-42.1-19.4-65-19.9c-12.7-0.3-23.3,5-34.2,10.9
		c-7.8,4.3-16,7.9-24.5,10.7c-34.1,11.3-73.5,9.4-104.7-9.2c-8.6-5.1-16.3-14-26.1-16.5c-11.5-3-23.6,2.4-34,7
		c-19.6,8.7-40.3,14.8-61.5,18.2c-40.1,6.3-80.8,4.5-121.2,4.2v-3c46.6,0.4,93.8,3,139.5-7.8c11-2.5,21.8-5.9,32.3-10.1
		c9.7-3.9,20-9.2,29.4-11.2c9.4-2,18.7-0.6,26.4,4.8c7.7,5.4,14.7,11.2,23.2,15.5c34.8,17.5,77.9,15.6,112.4-1.4
		c9-4.4,17-10,27.1-13c10.1-3,20.7-2.4,30.8,0c21.4,5,40.6,16.4,62.3,20.7C488.9,463.2,494.5,463.8,500,464.1z"/>
	<path d="M500,446.1v3c-7.9-0.5-15.7-1.4-23.3-3.2c-21.3-5.1-40-17.4-60.9-23.6c-9.4-2.8-21.2-5.4-30.7-2.2
		c-9.5,3.2-14.8,13.3-22.5,19.2c-16.2,12.3-37.4,14.4-57.1,13c-10.2-0.7-20.4-2-30.5-4c-7.5-1.6-14.3-3.3-20.6-10
		c-6.3-6.7-6.7-16.1-10.9-23.9c-2.9-5.4-8.9-9.5-14.1-8.7c-5.2,0.8-9.6,4.2-13.9,7c-64.1,41.2-141.3,39-215.5,36.8v-3
		c37.7,1.1,75.4,2.3,112.9-2.4c21.3-2.5,42.3-7.5,62.5-14.8c10.5-3.9,20.7-8.6,30.4-14.2c7.6-4.4,15.8-12.3,25-12.7
		c7.5-0.3,12.9,5.4,15.9,11.7c4.3,8.9,6.1,20.4,13.6,25.6s17.1,6.4,25.9,7.6c12.3,1.7,26.1,3.1,37,2.4c10.9-0.7,22.5-3.6,31.5-8.7
		s14.2-13.5,22.2-19.7c13.9-10.7,35.6-3.9,50.2,1.8c18.1,7,35.1,17.2,54.3,20.8C487.5,445,493.7,445.7,500,446.1z"/>
	<path d="M369.3,416.8c-7.3,9.6-18.9,13.7-30.5,15.2c-13.8,1.8-28.2,1.4-42.1,0.1c-9.7-0.9-21.7-3.8-27.6-10.8
		c-5.9-7-5.7-16.4-1.6-24.1c5.3-10,15.5-15.2,26.4-16.7c6.4-0.7,12.9-0.8,19.4-0.1c5.9,0.5,12.3,0.8,17.8,3
		c8.9,3.6,14.4,13,7.4,21.7c-7,8.7-20,9.5-30.3,8.8c-4.9-0.3-11.1-0.5-14.6-4.5c-2.5-2.6-2.9-6.6-1-9.6c1-1.6,3.6-0.1,2.6,1.5
		c-5.8,9.2,13.4,9.8,18.2,9.8c7.1,0,14,0,20.7-5.8c6.7-5.8,5.2-14.4-2.5-18.4c-6.1-3.3-14-3.3-20.8-3.7c-12.4-0.8-27.5,0.5-36,9.3
		s-10.4,22.9,0.7,30.5c8.8,6,20.7,6.4,31,6.9c12.1,0.6,26,0.7,36.8-1.5c10.8-2.2,21.6-7.1,26.6-18c5-10.9,0.5-22.1-8.5-30.3
		c-9-8.2-21.1-10.8-33.2-12.1c-12.1-1.3-24.4-2.1-36.5-2.2c-22.7-0.2-43.5,5.2-63.9,14.8c-18.3,8.7-35.1,19.2-53.7,28.5
		c-18.6,9.3-37.7,15.8-58.5,18.2c-24.5,2.8-49.2,3-73.7,0.7c-14-1.3-27.9-2.5-41.9-3.3v-3.1c6.3,0.4,12.5,0.8,18.6,1.3
		c16.8,1.3,33.6,3.7,50.5,3.9c32.7,0.4,65.6-2.8,95.6-16.6c22.5-10.4,43.2-24.1,65.8-34.2c10.5-4.9,21.5-8.5,32.8-10.9
		c14.5-2.8,29.3-2.6,44-1.7c22.7,1.4,53.1,1.8,64.6,25.6C376.5,398,375.4,408.8,369.3,416.8z"/>
	<path d="M500,419.9v2.9c-8.8-0.7-17.5-1.9-25.4-4c-14-3.8-26.8-10.8-39.7-17.1c-14.8-7.1-30.2-12.4-46.6-14.4l0.1,0.1
		c-1.9-0.2-1.9-3.2,0-3c16.9,2.1,32.8,7.4,48.1,14.8c13.5,6.5,25.4,13.6,41.4,17.4C485.2,418.3,492.5,419.3,500,419.9z"/>
	<path d="M500,485.4c-10.2-0.5-20.3-1.7-30.2-3.9c-7-1.5-13.8-3.4-20.8-4.7c-12.9-2.4-27.1-5.4-40.2-3.8
		c-20.4,2.4-38.6,11.6-58.6,15.6c-21.5,4.3-43.7,4.1-65.1-0.4c-10.3-2.2-20.4-4.6-30.9-6.2c-10.5-1.6-22.1-4.3-33.2-6.3
		c-21.6-3.8-42.5-1.2-64.1,0.7c-11.2,1-22.1,3.2-33.2,4.5c-11.1,1.3-21.8,1.4-32.6,2.3c-22.4,1.8-44.9,2.1-67.3,1.8
		c-7.9-0.1-15.9-0.3-23.8-0.5v3c2,0,4.1,0.1,6.1,0.1c22.8,0.5,45.6,0.7,68.4-0.4c10.9-0.5,21.7-1.7,32.6-2.2s21.3-2.1,32.1-3.7
		s22.8-2.3,34.2-3.5c11.4-1.2,22.7-1.9,34.2-0.9s22.1,4,33.2,5.9c11.1,1.9,21.5,3.1,32,5.4c20.4,4.6,40.1,7.6,61,5.6
		c9.9-0.9,19.8-2.7,29.4-5.4c9.7-2.7,18.9-7,28.7-9.4c9.8-2.4,18.1-3.9,27.4-3.3c8.7,0.6,17.3,1.7,25.8,3.3c7.8,1.4,15.3,3.4,23,5.1
		c10.5,2.3,21.2,3.7,31.9,4.2V485.4z"/>
	<path d="M500,232.7v2.8c-25.8,0-51.7-0.3-77.5-2.1c-18.8-1.2-37.6-3.5-56.2-6.7c-19-3.3-37.7-8.9-56.8-10.9s-37.6,1.4-56.4,3.7
		c-9,1.2-18.6,1.9-27.3,1.3c-8.7-0.6-17-3-25.4-5.4c-18.5-5.3-37-11.1-56.1-13.5c-16.9-2.1-36.5-2.2-52,5.7c-4,2-10.1,5.3-11.7,9.7
		c-2.4,6.5,3.7,9.3,8.7,11.3c8.3,3.3,18.8,6.4,27.6,3.9c2.3-0.6,11.1-4.1,10.3-7.7c-0.5-1.9-3.8-2.6-5.4-3.1c-3.3-1-8.3-1.9-10-2.8
		c-1.7-0.9-0.2-3.5,1.5-2.6c4.6,2.4,23.4,3.7,14.8,13.1c-6.2,6.8-16.6,7.7-24.4,6.4s-20.3-3.6-25.4-10.4
		c-10.2-13.6,19.3-23.9,28-25.6c19.3-3.8,39.3-1.5,58.3,2.9c10.4,2.4,20.4,5.4,30.9,8.4s20.8,6.4,31.8,7c21.6,1.1,43.3-5.1,64.2-5.8
		s41.2,4.7,61.4,9c22.2,4.6,44.7,7.7,67.4,9.2C446.8,232.4,473.4,232.8,500,232.7z"/>
</g>
<g>
	<rect y="520" class="st0" width="500" height="500"/>
</g>
<g>
	<path d="M-34,554.5c8.4-0.1,16.8-1.1,25.2-1.2c8.4-0.1,17.4,3,26.4,5.4c17.5,4.6,35.6,6.5,53.6,5.6c19.6-0.8,39-3.8,58.6-5.3
		c19.7-1.4,39.6-0.9,59.2,1.5c19.8,2.3,39.5,5,59.5,5.9c20.3,0.9,40.6,0.6,60.9-0.8c39.5-2.6,78.6-8.7,117.8-14.2
		c11.5-1.6,23.1-3.1,34.7-3c11.6,0.1,20.8,2.3,31.1,4.5c19.5,4.1,39.4,1.5,59.1,1.5c0.8,0,1.5-0.7,1.5-1.5c0-0.8-0.7-1.5-1.5-1.5
		c-9,0-17.9,0-26.9,0.5s-18.6,0.7-27.9-1.2c-9.3-1.9-16.3-3.6-24.6-4.6s-19.6-0.6-29.3,0.4c-19.4,1.9-38.6,5.3-57.9,8
		s-40.8,5.3-61.3,7.1c-40.1,3.5-80.5,2.7-120.5-2.2c-19.7-2.4-39.4-4.8-59.3-4.1s-39.4,3.4-59,5.1c-21.3,1.8-42.6,1.6-63.5-3.6
		c-9.3-2.3-17.8-6-27.5-6.4c-9.7-0.4-18.9,1-28.4,1.1c-0.8,0-1.5,0.7-1.5,1.5S-34.8,554.5-34,554.5z"/>
	<path d="M-33,602.5h23.9c7.6,0,14.8-1,22.3-1.6c15.4-1.3,31.1,5.7,46.1,8.4c14.9,2.7,30.1,3.8,45.2,3.3c15.3-0.5,30.2-3.3,45.3-5.8
		s32.7-3.6,49.3-0.9c16.6,2.7,30.1,6.8,45.1,10.2c29.5,6.8,58.9,6.6,88.7,2.1s61.1-12.9,92-18.1c13.9-2.3,29.6-5.7,43.6-1.8
		c6.7,1.9,14.3,5.2,18,11.4s0.3,12.2-3.5,17.5s-7.6,9.1-11.4,13.7c-3.8,4.6-7.7,9.6-12.3,13.6s-12.6,7.3-20,9.1
		c-8.2,2.1-16.6,3.5-25.1,4.3c-12.4,1.2-27.6,2.5-38.6-4.6c-5.8-3.7-9.1-10.3-7.1-17.1s8.2-11.9,14.2-15.1c6-3.2,14.6-5.5,21.9-7.4
		c7.5-2,15.2-3.3,22.9-3.7c8.6-0.5,18.5-1.8,26.8,1.1c12.4,4.3-5.8,14.1-10.5,16.4c-9.1,4.6-18.9,7.6-29,8.8
		c-6.2,0.7-12.9,0.8-18.6-2.1c-1.7-0.9-3.2,1.7-1.5,2.6c10.8,5.5,25.1,2.6,36.2-0.8c8.8-2.7,18.2-6.8,25.5-12.6
		c5.4-4.3,8.1-11.2,0.4-14.6c-7.7-3.4-19.7-2.3-28.8-1.8c-7.8,0.4-15.5,1.6-23.1,3.6c-7.7,2-15.8,4-22.9,7.6
		c-10.1,5.1-20.2,15.8-16,27.9c3.6,10.4,15.7,14.1,25.6,15.2c16.6,1.8,34.5-1.1,50.5-5.3c6.8-1.8,12.9-4,18.4-8.5s9.5-9.8,13.9-15.1
		c6.2-7.4,18.6-17.8,17-28.6s-17.6-18.1-28.1-19.6c-15.2-2.1-31.6,1.7-46.5,4.4c-35.7,6.5-70.9,16.5-107.1,19.4
		c-17.9,1.6-36,0.8-53.7-2.4c-17.6-3.3-34.7-8.7-52.4-11.9c-16.5-3-33.4-3.2-49.9-0.5c-18.3,2.8-36.2,6.4-54.8,6.6
		c-18.6,0.1-37.1-2.3-55.1-7c-8-2.1-16.2-4.5-24.5-5s-16.4,1.7-24.6,1.7H-33c-0.8,0-1.5,0.7-1.5,1.5S-33.8,602.5-33,602.5z"/>
	<path d="M-34,580.5c9.4,0.1,18.8,0.9,28.2,0.2c9.5-0.8,19-0.5,28.4,1c18.4,3,35.9,7,54.7,6.3s38.7-4.1,58-5.9
		c19.3-1.8,39.3-1.2,58.9,1.1s38.6,5.6,58.1,7.6s39.1,2.9,58.7,2.5c19.1-0.4,38.1-1.9,57-4.5c19.1-2.7,37.9-6.9,56.7-11
		c10.8-2.3,21.6-4.4,32.7-5c9.3-0.5,20.9-1.1,29.3,3.3c2.5,1.3,4.8,2.8,7.6,3.5c2.8,0.7,7.9,0.6,11.8,0.6l31.8,0.3
		c0.8,0,1.5-0.7,1.5-1.5s-0.7-1.5-1.5-1.5c-9.5,0-18.9,0.1-28.4-0.2c-4-0.1-8.1,0.2-12-0.2c-3.9-0.4-6.3-2-9.3-3.6
		c-6.2-3.4-13.8-3.7-20.7-3.9c-8.8-0.2-17.5,0.5-26.2,1.9c-18.9,3-37.3,8.2-56.1,11.5c-19.8,3.5-39.8,5.8-59.9,6.8
		c-19.3,1-38.6,0.8-57.8-0.6c-20.3-1.4-40.3-4.5-60.4-7.3c-20.1-2.8-38.3-4.7-57.6-3.9s-38.7,4.3-58.1,6
		c-10.7,1.1-21.5,1.3-32.2,0.6c-11-0.8-21.6-3.4-32.4-5.3c-10.8-1.9-19.3-2.8-29.1-2s-21.2,0.2-31.8,0.1c-0.8,0-1.5,0.7-1.5,1.5
		C-35.6,579.7-34.9,580.4-34,580.5L-34,580.5z"/>
	<path d="M-34,649.5c9.9,0,19.7,0.2,29.6-0.7c9.9-0.9,18.1,3,27.6,5.5c18.6,4.8,37.7,7.3,56.9,7.6c20,0.3,39.4-3.2,59.3-4.8
		c19.9-1.6,40.1,2.2,60,6.4s37.5,6.9,57,6.4s40.3-2.8,60.4-0.6c36.6,4,70.8,26.1,108.4,20.7c8.6-1.1,17.1-3.7,24.9-7.5
		c8.5-4.3,14.9-10.5,21-17.7s14.1-14.5,25.5-15.6c8.8-0.9,17.7,0.2,26.5,0.3c0.8,0,1.5-0.7,1.5-1.5c0-0.8-0.7-1.5-1.5-1.5
		c-14.1-0.1-31-3.5-43.4,5.3c-6.7,4.8-11.2,12-16.9,17.8c-6.5,6.5-14.5,11.3-23.3,14c-37.8,12.4-73.1-7.8-109.6-15.2
		c-19.2-3.9-38.7-3-58.2-2s-40.4,0.5-60.7-3.5c-18.7-3.7-37.4-8.7-56.6-9.3c-19.2-0.6-39.5,4.2-59.4,5.1c-22.7,1-45.4-1.1-67.5-6.4
		c-9.4-2.2-18.6-7.1-28.4-6.7c-5.1,0.2-10.2,0.9-15.3,0.9H-34c-0.8,0-1.5,0.7-1.5,1.5S-34.8,649.5-34,649.5z"/>
	<path d="M-28,682.5c10.7,0,21.5-0.3,32.2,0.4c10.7,0.7,19.6,2.8,29.2,5.1s18.5,4.3,28.1,4.8c9.3,0.3,18.5-0.2,27.7-1.5
		c19.3-2.5,38.3-7.2,57.7-8.3c10-0.7,20,0,29.8,2.1c10.2,2.3,20,6.1,30.3,8.4c20.2,4.4,40.8,1,61-1.4c20.8-2.5,42-1.8,62.6,2
		c20,3.6,39.7,9,59.8,12.6c18.3,3.3,37.7,5.9,56.1,1.7c21.7-5,37.4-23.5,60-25.7c11.2-1.1,22.6-0.1,33.8-0.1H578
		c0.8,0,1.5-0.7,1.5-1.5c0-0.8-0.7-1.5-1.5-1.5c-21.2,0-42.5-0.5-63.7-0.3c-9.2,0.1-18.2,1.3-26.6,5.3s-16,9.4-24.2,13.8
		c-18.7,10.2-39.3,10.1-59.9,7.4s-41-8.2-61.5-12.5s-39.1-6.9-59-5.7c-19.9,1.2-41.8,6.3-62.9,4.8s-38.6-11.2-58.9-12.4
		c-18.7-1.1-37.3,2.6-55.6,5.7c-11.3,1.9-22.6,3.8-34.1,4.2c-11.5,0.4-22.2-1.1-33.2-3.7s-20.3-4.9-30.8-5.9s-23.9-0.7-35.8-0.7
		c-0.8,0-1.5,0.7-1.5,1.5s0.7,1.5,1.5,1.5L-28,682.5z"/>
	<path d="M-34,727.5c19.5,0,39.1,1.4,58.6,0.3c19.5-1.1,36-5.5,53.6-11.1c17.6-5.6,34.8-11.4,53-14c18.2-2.6,37.6,0.4,56.2,6.6
		s33.8,9.7,52.2,9.1s37.5-4.3,56.3-5.5c18.8-1.2,37.7,2.4,56.5,7.7c17.9,5.2,36.3,8.7,54.9,10.6c21.5,2.1,42.9,1.4,64.4-0.9
		c21.5-2.3,44-2.9,66.3-2.9c0.8,0,1.5-0.7,1.5-1.5s-0.7-1.5-1.5-1.5c-19.7,0-39.1,0.1-58.7,2.1s-38.4,3.7-57.8,2.8
		c-19.8-0.9-39.4-3.9-58.5-8.9c-17.7-4.6-35-10.4-53.5-10.8s-37,3-55.4,4.8c-18.4,1.8-37.9,1.1-56.6-4.9
		c-17.1-5.5-33.4-11.3-51.7-11s-35.2,4.9-52,10.1c-20.3,6.3-40.3,13.6-61.6,15.6s-44.1,0.3-66.1,0.3c-0.8,0-1.5,0.7-1.5,1.5
		s0.7,1.5,1.5,1.5L-34,727.5z"/>
	<path d="M-42,755.5c18.1,0,36.3,0.6,54.3-1.7c8.2-1,16.3-2.5,24.4-4.3s15.8-3,22.5-7.2c1.6-1,0.1-3.6-1.5-2.6
		c-6.7,4.2-15.1,5.4-22.7,7.1s-17.5,3.4-26.3,4.4c-16.8,1.9-33.7,1.2-50.6,1.2c-0.8,0-1.5,0.7-1.5,1.5
		C-43.4,754.7-42.7,755.4-42,755.5L-42,755.5z"/>
	<path d="M-42,829.5c11.5,0,22.9-0.4,34.4-1.1c11.5-0.7,21.8-2,32.7-1.5c20.4,1,39.8,8.1,59.5,12.7c19.7,4.6,37.7,5.2,56.8,0.6
		s38.7-13.8,57.7-21.5s40.5-14.5,61.9-13.1c10.7,0.7,21.1,3.9,31.8,5.2c11.6,1.2,23.1,3.1,34.5,5.6c21.8,5,43.4,10.4,65.5,13.7
		c21.4,3.2,43,5,64.6,5.4c11.8,0.2,23.3-0.2,34.7-3.3c5.3-1.5,10.5-2.8,16.1-2.9c5.6-0.1,13.1,0,19.6,0H605c0.8,0,1.5-0.7,1.5-1.5
		s-0.7-1.5-1.5-1.5h-69.3c-10.7,0-21.9-1-32.5,0.3s-19.1,5-29.3,5.7c-22,1.4-44.6-0.6-66.4-3.2s-44.9-7.4-67.1-12.7
		c-11-2.6-22.1-5.4-33.3-7s-21.1-2.2-31.5-4.6c-20-4.6-40.2-1.8-59.6,4.4s-38.2,15.7-57.7,22.6c-19.5,6.9-40.7,10.6-62.1,7
		c-21.4-3.6-42.5-12-64.5-14.5c-11.6-1.3-23.1,0-34.6,0.6c-13.1,0.8-26.1,1.3-39.2,1.3c-0.8,0-1.5,0.7-1.5,1.5s0.7,1.5,1.5,1.5
		L-42,829.5z"/>
	<path d="M-42,804.5c10.3,0,20.5-0.1,30.8,0c8.3,0.1,16.6,0.6,24.7-1.1c10.2-2.1,20.4-4.5,30.9-4.4s21.9,3,32.6,5.6
		c10.7,2.6,20.4,4.7,30.9,5.3c10.1,0.5,20.3-0.2,30.3-2.1c21-3.6,40.9-11.3,61.4-17.2c40.3-11.5,85-14,125-0.2
		c9.8,3.4,19.6,6.9,29.8,8.8c10.4,1.9,20.9,2.9,31.5,3.2c22.2,0.8,44.4,0.7,66.5,0.9c50.8,0.6,101.7,1,152.5,1
		c0.8,0,1.5-0.7,1.5-1.5c0-0.8-0.7-1.5-1.5-1.5c-45.2,0-90.4-0.3-135.7-0.8l-68.2-0.8c-22-0.3-43.6-1.5-64.6-8.5
		c-9.7-3.2-19.3-7-29.3-9.4s-19.9-3-29.9-3.4c-20.3-0.8-40.3,0.3-60.3,4.6s-40.7,12.2-61.3,17.6c-20.6,5.4-43.7,8.1-66,3.5
		c-11.6-2.4-23-5.8-34.8-7.5c-11.8-1.7-20.5-0.6-30.7,1.3c-5.7,1.1-11.5,2.8-17.3,3.2c-4.8,0.3-9.7,0.4-14.5,0.2
		c-11.4-0.2-22.9-0.1-34.4-0.1c-0.8,0-1.5,0.7-1.5,1.5s0.7,1.5,1.5,1.5L-42,804.5z"/>
	<path d="M-28,777.5c11.5,0,23.1-0.3,34.7-1c10.5-0.6,21.4-0.5,31.6-3.2c4.9-1.3,9.7-2.9,14.8-3.4c6.3-0.5,12.6-0.1,18.8,1
		c10.6,1.7,21,4.8,31.7,6.3c10,1.6,20.3,0.9,30-1.9c9.4-2.8,17.7-7.6,26.1-12.5c10.8-6.2,21.5-7,33.7-6.4c12,0.6,23.9,1.8,35.7,3.7
		c7.5,1.2,14.5,2.3,22.1,2.1s15.1-1,22.6-2s12.1-1.7,18.2-2.6c8.3-1.2,16.8-0.6,24.8,1.7c10.6,2.9,20.9,7.1,31.6,9.8
		c10.5,2.7,21.1,4.8,31.8,6.2c22.6,3.1,45.4,3.7,68.1,3.5c25.7-0.2,51.3-1.3,77-1.3H605c0.8,0,1.5-0.7,1.5-1.5
		c0-0.8-0.7-1.5-1.5-1.5c-46.5,0-92.9,0-139.4,1s-91.9-0.2-135.9-15.2c-9.7-3.3-19.8-6.8-30.2-6.6c-4.9,0.1-9.8,1.2-14.6,1.9
		c-14.3,2.2-29.5,4.7-44,3.3c-10.1-1-20.1-3.3-30.3-4.3s-22.5-2.4-33.5-1.2s-17.8,6.3-26.4,11.1c-8.6,4.8-20,9.4-30.9,10.3
		c-24.4,1.9-47.7-12.2-72.1-7.2c-5.5,1.2-10.8,3.2-16.4,4s-13.2,1.1-19.7,1.5c-13.1,0.8-26.3,1.2-39.5,1.2c-0.8,0-1.5,0.7-1.5,1.5
		c0,0.8,0.7,1.5,1.5,1.5l0,0L-28,777.5z"/>
	<path d="M-28,878.5c43.1,0.1,85.8,6.9,128.7,10.5c20.6,1.7,41.6,3.5,62.2,1.1c19-2.2,36.2-9.1,53.3-17.2
		c17.1-8.1,36.7-17.2,56.8-21.2c20.8-4.2,42.3-3.9,63,1c20.3,4.9,39.9,12.4,60.3,16.9c19.9,4.2,40,7,60.3,8.3
		c46.7,3.3,93.6,0.7,140.3,0.7c0.8,0,1.5-0.7,1.5-1.5s-0.7-1.5-1.5-1.5c-41.7,0-83.5,2.1-125.2,0.2c-21.3-0.8-42.4-3.1-63.4-6.8
		c-20.7-3.8-40.4-10.3-60.6-16.2s-38.8-8.2-58.9-6.4c-20.1,1.8-37.5,7.2-55,14.9s-35.6,18-54.9,22.9c-19.3,4.9-42,4.3-62.9,2.9
		c-48-3.1-95.7-11.5-144-11.6c-0.8,0-1.5,0.7-1.5,1.5C-29.5,877.8-28.8,878.5-28,878.5z"/>
	<path d="M-19,912.5c11,0,22.1-0.5,33.1-0.4c11,0.1,23.2,2.3,34.7,4.1c39.8,6.2,80.5,3.4,119.1-8c19.4-5.7,37.4-14.2,55.6-23
		s39.7-15.9,61.6-17.1c21.9-1.2,42.7,1.4,63.5,6c42.5,9.3,82.7,26.7,125.3,36c11,2.4,22.3,3.3,33.5,2.7c12.2-0.5,24.5-0.2,36.7-0.2
		H619c0.8,0,1.5-0.7,1.5-1.5c0-0.8-0.7-1.5-1.5-1.5h-99.5c-10.6,0-21.3,1.3-31.9,0.1c-22.1-2.7-44-10.3-65.1-17
		s-40.8-13.4-61.6-18.7c-38.8-9.8-80.9-14.3-119.2,0.1c-19.7,7.4-37.8,18.4-57.6,25.7c-19.5,7.2-39.8,12.1-60.5,14.7
		c-23.1,2.9-46.4,2.8-69.4-0.4c-11.8-1.6-23.5-4-35.4-4.7c-6.1-0.3-12.1,0.2-18.2,0.3s-13.1-0.1-19.6-0.1c-0.8,0-1.5,0.7-1.5,1.5
		C-20.5,911.9-19.8,912.6-19,912.5L-19,912.5z"/>
	<path d="M-19,855.5c40.3,0.1,79.9,8.5,119.9,12.3c19.3,1.8,38.8,2.4,58.1,0.3c18-2.1,35.6-6.9,52.3-14.1c18-7.6,35.5-15.8,55-18.9
		c20.8-3.3,42.1-3,62.8,0.7c19.6,3.6,38.3,11.3,57.8,15.5s38.5,7,57.9,9.2c10.7,1.2,21.5,1.8,32.3,0.4c10.8-1.4,19.9-5.6,30.7-5.8
		c23.4-0.3,46.9,0.4,70.3,0.4c0.8,0,1.5-0.7,1.5-1.5s-0.7-1.5-1.5-1.5c-20.6,0-41.3,0.4-61.8-0.3c-9.3-0.3-17.9,0.1-26.9,2.8
		c-9.5,2.8-19.4,4-29.3,3.6c-20.3-0.6-40.9-4.4-60.9-8c-20-3.6-38.5-10.2-57.9-15.3c-37.5-9.6-77.1-6.8-112.8,8.1
		c-17.5,7.4-34.6,15.3-53.4,19.2s-39.5,4.5-59.2,3.4c-45.3-2.6-89.6-13.4-134.9-13.5c-0.8,0-1.5,0.7-1.5,1.5
		C-20.5,854.8-19.8,855.5-19,855.5z"/>
	<path d="M-19,620.5c6,0,12.1-0.4,18.1-0.2s13.5,2,20.2,4.1c11.9,3.7,23.5,8.3,35.7,10.7c23.1,4.5,46.7,1.4,69.9-1.4
		s48.2-5.4,71.7,0.9c12,3.2,23.4,8.1,35.3,11.5c11.7,3.2,23.8,5.2,35.9,5.9c14.2,0.9,28.4,0.8,42.5-0.2c11.7-0.8,23.3-2.9,33.4-9.3
		c1.6-1,0.1-3.6-1.5-2.6c-10.1,6.4-21.8,8.3-33.5,9c-12.4,0.8-24.7,0.9-37.1,0.3c-12.8-0.5-25.6-2.4-38-5.7
		c-11.6-3.2-22.8-7.9-34.4-11.2c-46.1-13-92.6,7.9-139,0.7c-13.5-2.1-26.2-7.1-39.1-11.2c-6.3-2-12.6-3.8-19.2-4.3s-13.9,0-20.8,0
		c-0.8,0-1.5,0.7-1.5,1.5s0.7,1.5,1.5,1.5H-19z"/>
	<path d="M-19,528.5c10.2-0.1,19.7-1.5,29.5,2.3c9.2,3.6,18.7,6.3,28.4,7.9c19.5,3.1,38.8,0.2,58.2-2.2c41.6-5.3,83.6-2,125.3,0.5
		c21.1,1.3,42.2,2.4,63.4,2.2s41.7-1.5,62.5-2.3c20.8-0.8,39.1-1.7,58.6-4.1c19.5-2.4,41-4.9,61.9-4.5c47.4,0.8,94.8,0.3,142.2,0.3
		c0.8,0,1.5-0.7,1.5-1.5c0-0.8-0.7-1.5-1.5-1.5h-62.3c-21.1,0-42.1,0.6-63.2,0.2c-21.1-0.4-42.4-0.9-63.6,2
		c-19.6,2.6-39.2,4.7-59,5.6c-41.7,2-83.3,3.8-125,1.6s-83.2-6.3-124.8-3.1c-22.9,1.7-45.6,7.4-68.6,4.7c-11.1-1.4-22-4.2-32.4-8.4
		c-10.4-4-20.2-2.8-31.1-2.7c-0.8,0-1.5,0.7-1.5,1.5S-19.8,528.5-19,528.5z"/>
	<path d="M-9,987.5c43.4,0.1,87.1,2.7,130.2-4.1c21.2-3.4,41.9-9.5,61.5-18.2c10.4-4.6,22.5-10,34-7c9.8,2.5,17.5,11.4,26.1,16.5
		c31.2,18.6,70.6,20.5,104.7,9.2c8.5-2.8,16.7-6.4,24.5-10.7c10.9-5.9,21.5-11.2,34.2-10.9c22.9,0.5,43.4,13.8,65,19.9
		c24,6.8,48.7,5.3,73.4,5.3H627c0.8,0,1.5-0.7,1.5-1.5c0-0.8-0.7-1.5-1.5-1.5H516.8c-11.3,0-22.3-0.2-33.4-2.4
		c-21.7-4.3-40.9-15.7-62.3-20.7c-10.1-2.4-20.7-3-30.8,0s-18.1,8.6-27.1,13c-34.5,17-77.6,18.9-112.4,1.4
		c-8.5-4.3-15.5-10.1-23.2-15.5c-7.7-5.4-17-6.8-26.4-4.8s-19.7,7.3-29.4,11.2c-10.5,4.2-21.3,7.6-32.3,10.1
		c-48.6,11.4-99,7.8-148.5,7.7c-0.8,0-1.5,0.7-1.5,1.5S-9.8,987.5-9,987.5L-9,987.5z"/>
	<path d="M-48,968.5c87.8,0.1,185.4,14.4,263.5-35.8c4.3-2.8,8.7-6.2,13.9-7s11.2,3.3,14.1,8.7c4.2,7.8,4.6,17.2,10.9,23.9
		c6.3,6.7,13.1,8.4,20.6,10c10.1,2,20.3,3.3,30.5,4c19.7,1.4,40.9-0.7,57.1-13c7.7-5.9,13-16,22.5-19.2c9.5-3.2,21.3-0.6,30.7,2.2
		c20.9,6.2,39.6,18.5,60.9,23.6c24.4,5.8,50.4,2.8,75.1,2.8c0.8,0,1.5-0.7,1.5-1.5s-0.7-1.5-1.5-1.5c-23.3,0.1-47.4,2.5-70.4-1.8
		c-19.2-3.6-36.2-13.8-54.3-20.8c-14.6-5.7-36.3-12.5-50.2-1.8c-8,6.2-13.2,14.6-22.2,19.7s-20.6,8-31.5,8.7s-24.7-0.7-37-2.4
		c-8.8-1.2-18.4-2.4-25.9-7.6s-9.3-16.7-13.6-25.6c-3-6.3-8.4-12-15.9-11.7c-9.2,0.4-17.4,8.3-25,12.7c-9.7,5.6-19.9,10.3-30.4,14.2
		c-20.2,7.3-41.2,12.3-62.5,14.8c-53.5,6.6-107.3,1.5-160.9,1.4c-0.8,0-1.5,0.7-1.5,1.5S-48.8,968.5-48,968.5z"/>
	<path d="M-34,943.5c25.4,0.1,50.6,2.2,75.9,4.5c24.5,2.3,49.2,2.1,73.7-0.7c20.8-2.4,39.9-8.9,58.5-18.2s35.4-19.8,53.7-28.5
		c20.4-9.6,41.2-15,63.9-14.8c12.1,0.1,24.4,0.9,36.5,2.2s24.2,3.9,33.2,12.1c9,8.2,13.5,19.4,8.5,30.3c-5,10.9-15.8,15.8-26.6,18
		c-10.8,2.2-24.7,2.1-36.8,1.5c-10.3-0.5-22.2-0.9-31-6.9c-11.1-7.6-9.2-21.7-0.7-30.5s23.6-10.1,36-9.3c6.8,0.4,14.7,0.4,20.8,3.7
		c7.7,4,9.2,12.6,2.5,18.4c-6.7,5.8-13.6,5.8-20.7,5.8c-4.8,0-24-0.6-18.2-9.8c1-1.6-1.6-3.1-2.6-1.5c-1.9,3-1.5,7,1,9.6
		c3.5,4,9.7,4.2,14.6,4.5c10.3,0.7,23.3-0.1,30.3-8.8s1.5-18.1-7.4-21.7c-5.5-2.2-11.9-2.5-17.8-3c-6.5-0.7-13-0.6-19.4,0.1
		c-10.9,1.5-21.1,6.7-26.4,16.7c-4.1,7.7-4.3,17.1,1.6,24.1s17.9,9.9,27.6,10.8c13.9,1.3,28.3,1.7,42.1-0.1
		c11.6-1.5,23.2-5.6,30.5-15.2c6.1-8,7.2-18.8,2.6-27.8c-11.5-23.8-41.9-24.2-64.6-25.6c-14.7-0.9-29.5-1.1-44,1.7
		c-11.3,2.4-22.3,6-32.8,10.9c-22.6,10.1-43.3,23.8-65.8,34.2c-30,13.8-62.9,17-95.6,16.6c-16.9-0.2-33.7-2.6-50.5-3.9
		c-16.8-1.3-35-2.4-52.6-2.5c-0.8,0-1.5,0.7-1.5,1.5C-35.5,942.7-34.8,943.4-34,943.5L-34,943.5z"/>
	<path d="M388.3,907.3c16.4,2,31.8,7.3,46.6,14.4c12.9,6.3,25.7,13.3,39.7,17.1s30.6,4.7,45.9,4.9c15.3,0.2,32.4-0.2,48.6-0.2H627
		c0.8,0,1.5-0.7,1.5-1.5c0-0.8-0.7-1.5-1.5-1.5l-100,0.2c-16.4,0.1-33.1-0.3-49.1-4.1s-27.9-10.9-41.4-17.4
		c-15.3-7.4-31.2-12.7-48.1-14.8c-1.9-0.2-1.9,2.8,0,3L388.3,907.3z"/>
	<path d="M-131,1006.5c45.7,0,91.4,0.2,137.1,1.2c22.8,0.5,45.6,0.7,68.4-0.4c10.9-0.5,21.7-1.7,32.6-2.2s21.3-2.1,32.1-3.7
		c10.8-1.6,22.8-2.3,34.2-3.5c11.4-1.2,22.7-1.9,34.2-0.9s22.1,4,33.2,5.9c11.1,1.9,21.5,3.1,32,5.4c20.4,4.6,40.1,7.6,61,5.6
		c9.9-0.9,19.8-2.7,29.4-5.4c9.7-2.7,18.9-7,28.7-9.4c9.8-2.4,18.1-3.9,27.4-3.3c8.7,0.6,17.3,1.7,25.8,3.3c7.8,1.4,15.3,3.4,23,5.1
		c11.7,2.6,23.6,4,35.5,4.3c1.9,0,1.9-3,0-3c-11.4-0.3-22.7-1.6-33.8-4c-7-1.5-13.8-3.4-20.8-4.7c-12.9-2.4-27.1-5.4-40.2-3.8
		c-20.4,2.4-38.6,11.6-58.6,15.6c-21.5,4.3-43.7,4.1-65.1-0.4c-10.3-2.2-20.4-4.6-30.9-6.2s-22.1-4.3-33.2-6.3
		c-21.6-3.8-42.5-1.2-64.1,0.7c-11.2,1-22.1,3.2-33.2,4.5s-21.8,1.4-32.6,2.3c-22.4,1.8-44.9,2.1-67.3,1.8
		c-25.7-0.3-51.5-1.4-77.2-1.5s-51.7,0-77.5,0c-0.8,0-1.5,0.7-1.5,1.5s0.7,1.5,1.5,1.5H-131z"/>
	<path d="M552,752.5c-43.9,0-87.9,1.2-131.7-2c-22.7-1.5-45.2-4.6-67.4-9.2c-20.2-4.3-40.5-9.7-61.4-9s-42.6,6.9-64.2,5.8
		c-11-0.6-21.3-4-31.8-7s-20.5-6-30.9-8.4c-19-4.4-39-6.7-58.3-2.9c-8.7,1.7-38.2,12-28,25.6c5.1,6.8,17.6,9.1,25.4,10.4
		c7.8,1.3,18.2,0.4,24.4-6.4c8.6-9.4-10.2-10.7-14.8-13.1c-1.7-0.9-3.2,1.7-1.5,2.6s6.7,1.8,10,2.8c1.6,0.5,4.9,1.2,5.4,3.1
		c0.8,3.6-8,7.1-10.3,7.7c-8.8,2.5-19.3-0.6-27.6-3.9c-5-2-11.1-4.8-8.7-11.3c1.6-4.4,7.7-7.7,11.7-9.7c15.5-7.9,35.1-7.8,52-5.7
		c19.1,2.4,37.6,8.2,56.1,13.5c8.4,2.4,16.7,4.8,25.4,5.4s18.3-0.1,27.3-1.3c18.8-2.3,37.3-5.7,56.4-3.7s37.8,7.6,56.8,10.9
		c18.6,3.2,37.4,5.5,56.2,6.7c43.2,3,86.5,1.9,129.8,1.9c0.8,0,1.5-0.7,1.5-1.5c0-0.8-0.7-1.5-1.5-1.5L552,752.5z"/>
</g>
</svg>
