<svg id="Layer_1" data-name="Layer 1" xmlns="http://www.w3.org/2000/svg" width="400" height="400" viewBox="0 0 400 400"><title>wood grain</title><g opacity="0.3"><path d="M-21.88,41.94l27,4.76c4.5.75,9,1.43,13.49,2.08s9,1.15,13.5,1.61,9,.79,13.5,1c2.25.12,4.5.14,6.75.21s4.51,0,6.76,0c9-.14,18-.64,27.11-1.25,18.12-1.24,36.39-3,54.56-5.41,9.09-1.19,18.17-2.47,27.29-3.56,4.56-.55,9.14-1,13.72-1.49s9.19-.8,13.81-1l3.47-.16,3.47-.07c2.32-.07,4.64,0,7,0s4.65.15,7,.23,4.65.34,7,.57c4.64.47,9.27,1.2,13.87,2.09s9.1,2,13.57,3.2l13.29,3.59c4.4,1.2,8.76,2.35,13.16,3.32s8.81,1.9,13.23,2.8l6.66,1.19c2.21.43,4.46.68,6.69,1.06A392.19,392.19,0,0,0,358.06,61c2.27.07,4.54,0,6.82,0s4.55,0,6.82,0c4.55-.06,9.11-.21,13.67-.36,9.12-.39,18.24-1,27.4-1.59l.12.79a332.11,332.11,0,0,1-54.7,7.48c-9.22.53-18.48.54-27.74.23a263.89,263.89,0,0,1-27.71-2.38c-4.61-.6-9.18-1.43-13.75-2.27s-9.11-1.88-13.59-3.12c-9.05-2.24-17.8-5.17-26.5-7.75q-6.52-2-13.05-3.57c-4.35-1.06-8.76-1.86-13.19-2.64a205.23,205.23,0,0,0-27-2.54c-18.17-.6-36.44,1.34-54.49,4.22s-35.94,7.19-54.29,9.5a213.86,213.86,0,0,1-27.73,1.73,186,186,0,0,1-27.79-2.14C26.8,55.9,22.25,55,17.73,54.07s-9-2-13.46-3.21c-8.91-2.35-17.68-5.09-26.35-8.14Z"/></g><g opacity="0.3"><path d="M-16.94,32.85a201.23,201.23,0,0,0,53.77,5.33c2.25,0,4.5-.11,6.75-.23s4.5-.25,6.75-.4c4.5-.27,9-.69,13.5-1.09,9-.91,18-2,27-2.95,18.1-1.94,36.39-3.51,54.64-4.81,9.13-.61,18.29-1.1,27.46-1.11s18.35.22,27.51.78,18.3,1.36,27.39,2.41,18.14,2.28,27.16,3.44,18,2.22,27,3,18,1.4,27,1.73,18.12.53,27.24.78l13.7.38c4.57.16,9.15.39,13.73.62,18.29,1.07,36.76,3.15,54.38,8.34l-.17.78c-18.1-2.49-36.2-3-54.36-2.82q-6.81.07-13.64.22l-13.67.24c-9.13.17-18.29.22-27.49,0s-18.44-.87-27.59-2S263,43.16,254,41.69s-18-3-27-4.57S209.07,34,200.07,32.72A246.86,246.86,0,0,0,173,30.3a209.78,209.78,0,0,0-27.21,1c-18.12,1.78-35.91,5.87-54,8.85-9,1.49-18.13,2.69-27.31,3.42-4.59.37-9.19.65-13.8.8-2.31.08-4.61.12-6.92.11s-4.62,0-6.93-.07c-4.62-.07-9.24-.43-13.84-.85-2.3-.27-4.6-.49-6.89-.82S11.51,42,9.24,41.55A123.68,123.68,0,0,1-17.2,33.61Z"/></g><g opacity="0.3"><path d="M-2,23.75c6.32.43,12.56.67,18.79.65l4.67-.08,4.66-.16c1.55,0,3.11-.18,4.66-.26s3.1-.18,4.65-.32c6.2-.45,12.4-1.08,18.62-1.77s12.44-1.4,18.71-1.94S85.35,19,91.67,18.64s12.64-.64,18.95-1c3.15-.19,6.29-.51,9.44-.72s6.29-.49,9.44-.82c1.57-.17,3.15-.26,4.72-.4l4.72-.45c1.57-.15,3.15-.3,4.72-.48l4.73-.42c3.15-.27,6.31-.59,9.47-.83s6.32-.44,9.49-.61,6.33-.22,9.5-.33,6.34-.15,9.5-.13h9.51l9.51.22c3.17,0,6.34.23,9.5.4l4.75.29c1.58.1,3.16.19,4.74.36a390.21,390.21,0,0,1,74.72,13.53l-.15.79c-12.64-.9-25.15-2.14-37.68-3.13s-25-1.92-37.53-2.67-25-1.76-37.52-2.23c-3.13-.18-6.26-.23-9.4-.35l-9.41-.33q-4.71-.13-9.42-.35c-3.14-.12-6.28-.17-9.43-.25a272.16,272.16,0,0,0-37.69,1.47C104.6,20.81,98.39,22,92.19,23s-12.37,2.4-18.6,3.47S61.08,28.36,54.75,28.9s-12.7.92-19.09.92c-12.75,0-25.7-1.33-37.83-5.28Z"/></g><g opacity="0.3"><path d="M306.05,28a61.6,61.6,0,0,1,10.53-1.85,94.5,94.5,0,0,1,10.48-.5c1.74,0,3.48,0,5.22.19s3.47.45,5.2.77c3.46.68,6.91,1.57,10.38,2a57.72,57.72,0,0,0,10.45.24c3.5-.23,7-.71,10.39-1.19s6.72-.77,9.93-1.42,6.47-1.52,9.85-2.25c1.69-.37,3.41-.7,5.17-1l.68-.1.54-.08.47-.06c.51,0,1-.09,1.45-.12.93-.06,1.81-.1,2.7-.14,3.54-.15,7-.25,10.52-.34,7-.19,14-.28,20.93-.39q20.92-.29,41.82-.46l41.81-.2h41.81c27.86,0,55.76.3,83.6.5l0,.8c-7,.41-13.93.71-20.9,1l-20.89.83-41.78,1.48L514.67,27l-41.78,1.24-41.77,1.23-20.85.72c-3.47.13-6.94.27-10.36.46-.85,0-1.71.1-2.52.16l-1.15.1-.18,0H396l-.6.16c-1.65.42-3.33.86-5,1.23a64.75,64.75,0,0,1-21.62,1.27c-3.57-.5-7-1.28-10.5-1.76a57.72,57.72,0,0,0-10.44-.54c-3.49.15-7,.78-10.5,1.2-1.75.19-3.5.36-5.24.38s-3.48-.07-5.22-.2a94.5,94.5,0,0,1-10.41-1.28A61.6,61.6,0,0,1,306,28.81Z"/></g><g opacity="0.3"><path d="M-2.77,7.77A431.34,431.34,0,0,0,49.67,9.48l6.54-.17L62.76,9c4.36-.13,8.73-.47,13.09-.66Q89,7.47,102.1,6.79c17.54-.86,35.2-1.22,52.79-2.06s35.19-1.65,52.82-2.37c8.81-.32,17.64-.63,26.46-.63s17.64.14,26.46.41c17.63.53,35.25,1.35,52.81,2.77,4.39.37,8.78.71,13.16,1.15s8.77.82,13.14,1.3l13.13,1.39L366,10.26c8.76,1,17.44,2.31,26.06,2.78A85.91,85.91,0,0,0,405,12.84a55.72,55.72,0,0,0,12.69-2.72l.32.73a50.19,50.19,0,0,1-12.59,4.59A77.54,77.54,0,0,1,392,17.13c-4.48.23-8.95.17-13.37,0s-8.81-.35-13.21-.59l-13.18-.68-13.17-.77c-8.78-.5-17.54-1.08-26.31-1.65-17.52-1.17-35-2.63-52.53-3.74-8.76-.57-17.51-1-26.27-1.54s-17.52-1-26.3-1.4A440.12,440.12,0,0,0,155,7.31c-17.52,1.32-34.9,4.23-52.43,6.13-8.76,1-17.57,1.61-26.4,2s-17.69.53-26.56.24l-3.32-.07L43,15.43,36.38,15c-4.42-.42-8.84-.7-13.24-1.37-2.2-.3-4.4-.57-6.59-.91L10,11.56l-3.26-.63-3.23-.77Q.29,9.39-2.92,8.55Z"/></g><g opacity="0.3"><path d="M-13.79,64.19c9.08-.27,18.14-.28,27.19-.18,4.53,0,9.06.09,13.58.21s9.05.18,13.57.36l13.56.47,13.56.61c9,.42,18.06,1,27.08,1.76s18,1.73,27,2.67c4.5.48,9,.9,13.46,1.17a101.51,101.51,0,0,0,13.39-.09c8.88-.76,17.55-3.31,26.13-6.11s17.2-5.87,26.36-7.56a79.45,79.45,0,0,1,27.9,0c9.17,1.46,18,4,26.69,6l6.56,1.56,6.58,1.46c4.38,1,8.79,1.86,13.19,2.79,8.83,1.69,17.64,3.44,26.5,4.93,4.42.82,8.86,1.47,13.29,2.24l13.33,2c4.45.62,8.9,1.28,13.37,1.8s8.93,1.13,13.4,1.63c17.9,2.07,35.88,3.41,54,4.67v.8c-9,.71-18.12,1.19-27.21,1.26s-18.18,0-27.27-.45-18.17-1.1-27.22-2-18.09-2.08-27.08-3.55A488.21,488.21,0,0,1,253.8,70.88c-8.81-2.38-17.37-5.11-26-7s-17.31-3-26.07-2-17.5,3.31-26.19,5.82c-4.37,1.21-8.71,2.54-13.16,3.58a120.74,120.74,0,0,1-13.51,2.5,125.11,125.11,0,0,1-13.71.81c-4.57.09-9.12,0-13.65,0-9.06-.09-18.11-.18-27.16-.42s-18.08-.71-27.11-1.32l-13.54-.93L40.2,70.77c-4.51-.34-9-.77-13.52-1.18s-9-.85-13.52-1.33c-9-.93-18-2-27-3.27Z"/></g><g opacity="0.3"><path d="M-157.09,92.61a45.13,45.13,0,0,1,6.74-1.82q3.4-.67,6.81-1.16c4.55-.64,9.1-1.09,13.65-1.42s9.11-.55,13.66-.66,9.11-.12,13.66.13c9.1.49,18.19,1.79,27.28,2.07,4.54.16,9.09.15,13.63,0s9.09-.42,13.64-.73,9.1-.68,13.64-.87,9.09-.3,13.64-.4c9.09-.18,18.19-.37,27.27-.11s18.17.77,27.24,1.53,18.14,1.68,27.21,3V93c-4.55.71-9.11,1.16-13.66,1.54-2.28.2-4.55.38-6.83.51s-4.55.31-6.82.4c-9.1.49-18.19.7-27.27.71s-18.16-.46-27.24-.87c-4.54-.21-9.08-.39-13.62-.74s-9.08-.78-13.61-1.17-9.08-.78-13.62-1-9.08-.26-13.63-.14c-9.09.2-18.17,1.47-27.24,2-4.54.28-9.07.36-13.6.32s-9.07-.1-13.6-.23-9.06-.3-13.59-.53l-6.79-.33c-2.27-.12-4.51-.2-6.79-.19Z"/></g><g opacity="0.3"><path d="M90,88.43c6.83-.78,13.66-1.32,20.48-1.8q5.12-.39,10.23-.67c3.41-.2,6.82-.43,10.23-.59q10.23-.54,20.45-.93c6.82-.3,13.63-.47,20.46-.47,13.66,0,27.35.58,41,.06s27.31-1.55,41.06-2.19c6.87-.3,13.76-.55,20.64-.44s13.77.45,20.64,1a342.46,342.46,0,0,1,41,5.37,178.75,178.75,0,0,1,20.25,5.11q5,1.62,9.91,3.66c3.23,1.4,6.34,2.92,9.42,4.43,6.14,3,12.11,6.13,18.36,8.38A42.06,42.06,0,0,0,413.74,112l.18.78c-6.62,2.24-14.05,2.07-20.9.48a81.31,81.31,0,0,1-10.1-2.92c-3.28-1.15-6.52-2.37-9.69-3.63s-6.33-2.45-9.46-3.54-6.29-2-9.51-2.88c-6.44-1.66-13-3-19.67-4.16-13.32-2.39-26.68-4.63-40.14-6.24-6.73-.8-13.48-1.45-20.24-2.07s-13.54-1.22-20.34-1.59a301,301,0,0,0-40.9.39c-13.63,1-27.23,3-40.89,4-6.83.52-13.67.81-20.52.92s-13.69.14-20.54,0c-13.7-.28-27.39-.81-41.06-2.36Z"/></g><g opacity="0.3"><path d="M416.17,129.38c-19.37-3.78-38.49-8.39-57.72-12-4.8-.94-9.62-1.75-14.43-2.54-2.4-.43-4.81-.76-7.22-1.15l-7.24-1c-4.83-.58-9.66-1.12-14.5-1.59l-14.65-1.38c-4.91-.5-9.85-1.08-14.78-1.85s-9.86-1.77-14.67-3l-14.33-3.62a136.16,136.16,0,0,0-14.36-2.7c-9.65-1.15-19.45-.4-29.18.76l-7.31.92-7.34,1c-4.9.62-9.89,1.09-14.76,1.52a103.11,103.11,0,0,0-14.25,2.1,46.51,46.51,0,0,0-6.62,2.09,30.91,30.91,0,0,0-5.92,3.13,25.28,25.28,0,0,0-8.62,9.47,15.64,15.64,0,0,0-1,11.67,19.91,19.91,0,0,0,2.71,5.56,25.09,25.09,0,0,0,4.23,4.75,39.16,39.16,0,0,0,11.48,6.68,139.71,139.71,0,0,0,13.58,4.33q7,1.94,14.06,3.49A270.14,270.14,0,0,0,222,160.77q7.22.79,14.48,1.14a96.44,96.44,0,0,0,14.24-.12A43.33,43.33,0,0,0,264,158.55a27.18,27.18,0,0,0,5.81-3.44,18.21,18.21,0,0,0,4.46-4.84,22.55,22.55,0,0,0,3.52-13,16.31,16.31,0,0,0-1.69-6.66,13.35,13.35,0,0,0-4.65-5.19l.39-.7a14.31,14.31,0,0,1,5.8,5,18.13,18.13,0,0,1,2.78,7.28,25.13,25.13,0,0,1-2.6,15.36,22.68,22.68,0,0,1-4.94,6.43,31.42,31.42,0,0,1-6.53,4.57A46.14,46.14,0,0,1,251.48,168a99.58,99.58,0,0,1-15.22,1q-7.49,0-15-.55a219.68,219.68,0,0,1-29.72-4.08q-7.35-1.53-14.59-3.57A123.2,123.2,0,0,1,162.52,156a47.15,47.15,0,0,1-13.67-8.48,32.41,32.41,0,0,1-5.36-6.41,27.55,27.55,0,0,1-3.48-7.78,22.59,22.59,0,0,1-.66-8.71,23,23,0,0,1,2.63-8.26,30.79,30.79,0,0,1,11.49-11.65,37.13,37.13,0,0,1,7.31-3.34,51.34,51.34,0,0,1,7.59-1.81,107.74,107.74,0,0,1,15.06-1.12c5-.1,9.8-.15,14.69-.52l7.34-.56,7.36-.66c4.92-.39,9.85-.84,14.81-1a127.93,127.93,0,0,1,14.92.36c5,.44,9.88,1.2,14.75,2.06s9.71,1.77,14.54,2.5c9.62,1.58,19.27,2.05,29.08,2.51,4.9.27,9.83.46,14.78.88s9.91,1,14.83,1.71l7.36,1.16c2.44.44,4.9.83,7.33,1.31s4.87,1,7.28,1.52,4.84,1.07,7.25,1.65c4.83,1.1,9.6,2.4,14.37,3.69l7.13,2,7.09,2.15q14.15,4.35,28.05,9.41Z"/></g><g opacity="0.3"><path d="M391,138.15c-9.95-.28-19.85-.49-29.74-.45-4.94,0-9.88.13-14.82.26s-9.86.38-14.78.62-9.89.57-14.64,1.09a49,49,0,0,0-13.51,3.07,25.6,25.6,0,0,0-5.64,3.2,23.89,23.89,0,0,0-4.53,4.56c-2.71,3.56-5,7.92-7.76,12.3a38.71,38.71,0,0,1-5,6.34,32.52,32.52,0,0,1-6.39,5.06,39.48,39.48,0,0,1-7.17,3.43,58.65,58.65,0,0,1-7.44,2.19,135.89,135.89,0,0,1-15,2.33c-4.94.59-9.9,1.13-14.87,1.57s-9.94.85-14.94,1.07-10,.2-15,0A105.13,105.13,0,0,1,170,179.47a73.88,73.88,0,0,1-13.89-6.6,66.85,66.85,0,0,1-12.31-9.45,60.07,60.07,0,0,1-9.73-12.35,49.41,49.41,0,0,1-5.91-14.82,14.57,14.57,0,0,1-.39-2l-.31-2c-.23-1.33-.35-2.68-.45-3.87a16,16,0,0,0-1.24-5.77,5.78,5.78,0,0,0-1.37-1.72,11.25,11.25,0,0,0-2.26-1.48,26.82,26.82,0,0,0-3-1.26c-1.09-.39-2.24-.75-3.36-1.12A101.53,101.53,0,0,0,102,113.71a133.45,133.45,0,0,0-14.27-1.56c-4.8-.25-9.64-.23-14.48-.08s-9.7.57-14.57,1S49,114.25,44.1,115s-9.75,1.5-14.64,2.32-9.79,1.63-14.71,2.41-9.86,1.51-14.82,2.1A192.57,192.57,0,0,1-30,123.41l0-.8c19.77-2.06,38.86-7,58.26-11.49C33.1,110,38,108.93,42.88,108s9.87-1.85,14.87-2.54a168.78,168.78,0,0,1,30.39-1.79,125.56,125.56,0,0,1,15.33,1.63,96.52,96.52,0,0,1,15,3.88c1.23.44,2.44.86,3.67,1.33a34.73,34.73,0,0,1,3.84,1.76,19.21,19.21,0,0,1,3.87,2.72,13.88,13.88,0,0,1,3.1,4.18,22.93,22.93,0,0,1,1.82,8.71c.07,1.29.13,2.41.3,3.53l.21,1.69a10.9,10.9,0,0,0,.28,1.68,43.26,43.26,0,0,0,4.68,12.88,58.64,58.64,0,0,0,8.16,11.35,70.61,70.61,0,0,0,23.21,16.45,80.92,80.92,0,0,0,13.82,4.49c1.19.25,2.38.55,3.58.76l3.62.63,3.65.45c1.22.15,2.44.22,3.67.34a148.51,148.51,0,0,0,29.51-.94c4.9-.62,9.79-1.39,14.67-2.25a114.36,114.36,0,0,0,14.27-3.34,54.45,54.45,0,0,0,6.66-2.58,34.13,34.13,0,0,0,6-3.5,28.87,28.87,0,0,0,5-4.53,38.38,38.38,0,0,0,3.85-5.64c2.41-4.06,4.44-8.73,7.71-13.13a29.21,29.21,0,0,1,5.91-6,30.81,30.81,0,0,1,7.33-4,55.74,55.74,0,0,1,15.5-3.26c2.56-.22,5.1-.3,7.59-.37s5-.12,7.5-.15a312.78,312.78,0,0,1,59.63,5Z"/></g><g opacity="0.3"><path d="M184,107.66a92.51,92.51,0,0,1,19.51-4.31,75.56,75.56,0,0,1,10.12-.48,70.07,70.07,0,0,1,10.2.87,60.35,60.35,0,0,1,19.58,6.71,47.76,47.76,0,0,1,15.82,13.7q.76,1.09,1.48,2.2l1.33,2.29a17,17,0,0,1,2.12,5.51,10.18,10.18,0,0,1,0,3.37,10.83,10.83,0,0,1-1,3.05,13.85,13.85,0,0,1-3.8,4.51,21.76,21.76,0,0,1-10,4.08,49,49,0,0,1-10.18.35c-3.34-.18-6.6-.48-9.88-.67s-6.56-.39-9.84-.52c-6.56-.31-13.14-.4-19.72-.5l-9.87-.13a84.12,84.12,0,0,1-10.15-.52A30,30,0,0,1,169.16,144a21,21,0,0,1-8.47-8.17,16,16,0,0,1-2-6.08,11.63,11.63,0,0,1,1.29-7.17,8.66,8.66,0,0,1,3.2-3.21,10.64,10.64,0,0,1,3.78-1.24,27.8,27.8,0,0,1,2.89-.22l2.48-.1c6.61-.28,13.23-.31,19.85-.19s13.23.44,19.82.94a79.39,79.39,0,0,1,10.25,1.28,35.34,35.34,0,0,1,5.2,1.47,25.54,25.54,0,0,1,5.05,2.43,19,19,0,0,1,4.42,3.73,12.9,12.9,0,0,1,.91,1.14,11.34,11.34,0,0,1,.91,1.33,4.93,4.93,0,0,1,.69,2.7,4.29,4.29,0,0,1-1.37,2.88,5.55,5.55,0,0,1-1.92,1.14,8.83,8.83,0,0,1-1.67.42l-.69.08-.63.07c-.42,0-.84.09-1.26.12-1.68.14-3.35.23-5,.29A91.46,91.46,0,0,1,207,136.26l.06-.8a139.48,139.48,0,0,0,19.45-1.86c1.59-.27,3.18-.57,4.75-.92l1.18-.25.59-.13.52-.12a3.48,3.48,0,0,0,.69-.27c.18-.09.26-.2.16-.15a1.07,1.07,0,0,0-.35.7c0,.37.07.5,0,.39s-.35-.4-.58-.63a7.78,7.78,0,0,0-.71-.71,14.6,14.6,0,0,0-3.33-2.29,19.14,19.14,0,0,0-4-1.49,32.11,32.11,0,0,0-4.37-.84,72.44,72.44,0,0,0-9.36-.56c-6.53-.07-13.06-.14-19.58-.14h-22c-.83,0-1.51,0-2,.07a3.31,3.31,0,0,0-.91.19c-.09,0-.12,0-.26.22a3.93,3.93,0,0,0-.43,2.37,8.29,8.29,0,0,0,.9,3.27,14.14,14.14,0,0,0,5.3,5.56,26.06,26.06,0,0,0,8.09,3c3,.64,6.18,1,9.45,1.41l9.8,1.2c6.53.79,13.06,1.59,19.61,2.16,3.27.32,6.55.58,9.82.81s6.57.47,9.79.51a36,36,0,0,0,9.43-1,17,17,0,0,0,7.71-4.17,9.15,9.15,0,0,0,2.12-3.28,4.94,4.94,0,0,0,.11-3.19,13.13,13.13,0,0,0-1.87-3.44L255.39,130q-.73-.88-1.44-1.77a55,55,0,0,0-14.06-11.61,63.45,63.45,0,0,0-17.28-6.79,84,84,0,0,0-9.34-1.62q-4.74-.51-9.58-.63a184.27,184.27,0,0,0-19.53.84Z"/></g><g opacity="0.3"><path d="M266.22,118.08c3.59-.41,7.15-.52,10.69-.59s7.08,0,10.6.11,7,.29,10.55.56a104.2,104.2,0,0,1,10.49,1.15c3.48.53,7,1.29,10.43,2s7,1.31,10.47,1.7,7,.57,10.54.65,7.06-.07,10.59-.21c7.07-.38,14.13-.64,21.16-.53,3.52,0,7,0,10.55,0s7,.1,10.54.25,7,.37,10.53.66,7,.58,10.53.94c1.76.15,3.51.36,5.27.56s3.51.42,5.27.67c3.52.46,7,1,10.56,1.7v.8a187.46,187.46,0,0,1-21.2,2.57c-7.07.51-14.15.7-21.22.65s-14.12-.67-21.17-1.26c-3.52-.32-7-.6-10.56-1.06s-7-1.06-10.52-1.58a157.12,157.12,0,0,0-21.07-2.25c-7.05-.27-14.19.47-21.27.4a150.37,150.37,0,0,1-21.08-2.15,136.35,136.35,0,0,1-20.77-4.92Z"/></g><g opacity="0.3"><path d="M-21.24,143.47c9.41-2.52,18.86-4.79,28.34-7,4.74-1.09,9.47-2.17,14.23-3.17s9.55-2,14.39-2.84a159.46,159.46,0,0,1,29.54-2.66l3.76.08,3.76.28,1.88.16,1.88.26c1.25.18,2.51.33,3.75.56A69.22,69.22,0,0,1,87.7,131l1.83.55a16.35,16.35,0,0,1,1.81.62l3.57,1.38a64.21,64.21,0,0,1,13.19,7.68,100.31,100.31,0,0,1,11,10.12l10,10.67a102.84,102.84,0,0,0,10.59,9.7,74.81,74.81,0,0,0,12.23,7.42,95.34,95.34,0,0,0,13.44,5c2.33.6,4.63,1.26,7,1.74s4.72.91,7.08,1.33c4.75.75,9.54,1.26,14.34,1.67,9.6.77,19.32,1,29,1.47s19.2.54,28.56-.43A83.29,83.29,0,0,0,278,183c8.46-3.87,16.58-8.94,25-13.85,4.25-2.44,8.58-4.87,13.13-7,2.26-1.11,4.61-2,6.92-3,1.15-.51,2.35-.88,3.53-1.3l3.55-1.23c2.41-.69,4.79-1.45,7.21-2.05s4.84-1.23,7.28-1.66l3.66-.7c1.22-.21,2.45-.37,3.68-.56,2.45-.4,4.91-.66,7.36-.93a221.34,221.34,0,0,1,29.42-1c9.77.25,19.48.93,29.17,1.84l0,.8c-19.43,1-38.87,1.37-57.74,4.57-2.35.4-4.71.79-7,1.31-1.16.25-2.33.47-3.49.74l-3.45.85c-2.32.51-4.57,1.24-6.84,1.87s-4.47,1.49-6.71,2.22c-2.18.89-4.39,1.68-6.53,2.64s-4.29,1.87-6.37,3c-4.18,2.13-8.31,4.48-12.43,7-8.27,4.89-16.67,10.18-26,14.14a83.83,83.83,0,0,1-14.51,4.74,100.29,100.29,0,0,1-15,2.16,179.55,179.55,0,0,1-29.64-.7c-4.87-.45-9.7-1-14.54-1.57s-9.69-1.22-14.53-2-9.66-1.67-14.46-2.68c-2.39-.57-4.78-1.09-7.15-1.77s-4.72-1.34-7.08-2a122.21,122.21,0,0,1-13.7-5.45,98.32,98.32,0,0,1-12.71-7.55,123.67,123.67,0,0,1-11.34-9.43c-3.62-3.28-7.12-6.67-10.73-9.83a96.75,96.75,0,0,0-11.21-8.68,65,65,0,0,0-12.38-6.12l-3.27-1.11a13.69,13.69,0,0,0-1.66-.49l-1.68-.43c-2.22-.63-4.52-1-6.78-1.45-1.14-.19-2.31-.31-3.46-.48l-1.73-.24-1.75-.15-3.5-.31-3.52-.14c-1.17-.07-2.35-.07-3.53-.06l-3.54,0c-2.37.12-4.74.15-7.11.37-4.75.27-9.52.81-14.28,1.38s-9.55,1.27-14.34,2l-7.2,1.07-7.22,1c-9.63,1.34-19.27,2.57-29,3.55Z"/></g><g opacity="0.3"><path d="M-12.51,161.91a258.86,258.86,0,0,1,26.63-7.51q6.77-1.56,13.68-2.56c2.3-.38,4.62-.59,6.93-.9s4.66-.38,7-.56,4.69-.2,7-.19l3.53,0c1.18,0,2.36,0,3.53.15l3.53.25c1.18.08,2.35.27,3.53.4s2.35.28,3.52.47l3.5.66A89.27,89.27,0,0,1,83.67,156a93.83,93.83,0,0,1,12.87,6c8.22,4.61,15.67,10.13,23.11,15.5q5.56,4.06,11.25,7.83a131.94,131.94,0,0,0,11.77,6.89c2,1.07,4.09,2,6.15,2.95s4.18,1.8,6.33,2.56,4.27,1.57,6.45,2.25c1.09.34,2.16.73,3.25,1l3.29.91c2.19.63,4.42,1.11,6.62,1.68s4.46,1,6.7,1.36,4.48.82,6.74,1.13,4.51.65,6.77.92c9,1.14,18.14,1.7,27.25,2.24a232.11,232.11,0,0,0,27,.4A96.35,96.35,0,0,0,262.36,208a107.87,107.87,0,0,0,12.8-3.46c4.25-1.41,8.52-3,12.86-4.5s8.75-3,13.17-4.38c8.85-2.74,17.83-5.17,26.93-7.08l6.84-1.36,6.88-1.17c2.3-.34,4.62-.61,6.93-.92s4.64-.46,7-.7c18.53-1.54,37.49-.45,55.2,4.88l-.17.78a174.92,174.92,0,0,0-27.26-1.7c-1.13,0-2.26,0-3.4.06l-3.4.18-3.39.16-3.38.3c-2.25.2-4.51.38-6.75.7s-4.49.5-6.72.9-4.47.67-6.69,1.1l-6.66,1.29-6.63,1.44-6.59,1.62c-8.77,2.27-17.46,4.85-26.09,7.67-4.33,1.38-8.62,2.87-12.93,4.34s-8.69,3-13.19,4.37a115.94,115.94,0,0,1-13.85,3.36,102.21,102.21,0,0,1-14.22,1.35,194,194,0,0,1-27.93-1.56c-9.18-1-18.33-2.48-27.4-4.31-18.12-3.7-36-8.84-52.74-16.81s-32-18.78-48.09-26.63a122.57,122.57,0,0,0-12.23-5.22,105.29,105.29,0,0,0-12.72-3.59l-3.25-.67c-1.09-.19-2.19-.33-3.29-.51s-2.19-.37-3.3-.47l-3.32-.32c-2.21-.27-4.45-.31-6.68-.46s-4.48-.08-6.72-.12l-6.75.19c-2.25.14-4.51.19-6.77.41s-4.51.37-6.77.64-4.52.46-6.78.78c-9,1.16-18.08,2.67-27.17,4.1Z"/></g><g opacity="0.3"><path d="M342.07,175.38a55.45,55.45,0,0,1,12.84-4.89,59.62,59.62,0,0,1,13.35-2.05c2.27,0,4.56.2,6.83.35a52.57,52.57,0,0,0,6.79.24,51.56,51.56,0,0,0,6.7-.63c2.22-.31,4.44-.81,6.66-1.32s4.44-1,6.68-1.41,4.48-.6,6.73-.85,4.5-.44,6.75-.6,4.51-.19,6.77-.18,4.51.19,6.77.38,4.5.49,6.75.82A76,76,0,0,1,449,168.47l0,.8a63.52,63.52,0,0,1-6.75,1.36c-2.24.4-4.47.68-6.7.92s-4.45.48-6.67.63-4.43.32-6.65.38-4.43.1-6.65,0-4.44-.13-6.66-.22a125.36,125.36,0,0,1-13.39-.92c-2.24-.2-4.49-.38-6.73-.36a42.29,42.29,0,0,0-13.23,2.1c-2.17.66-4.32,1.39-6.5,1.88a41.57,41.57,0,0,1-6.57,1.08c-2.2.26-4.42.42-6.65.51s-4.47.16-6.74.09a47.68,47.68,0,0,1-6.89-.57Z"/></g><g opacity="0.3"><path d="M-14.44,172.14c5-1.63,10.12-3,15.27-4.19,2.58-.59,5.17-1.13,7.77-1.63s5.22-.91,7.83-1.31c5.24-.81,10.52-1.34,15.81-1.75,2.65-.21,5.3-.37,8-.45a72.2,72.2,0,0,1,8.22.06A28.45,28.45,0,0,1,57,164.78a30.76,30.76,0,0,1,7.56,4.53,48.43,48.43,0,0,1,6.09,5.89c.92,1,1.79,2.1,2.64,3.18l1.26,1.67,1.19,1.73a46.75,46.75,0,0,1,4.06,7.43,33.78,33.78,0,0,1,2.45,8.36,23.28,23.28,0,0,1-.28,9.07,20.24,20.24,0,0,1-4.17,8.22,22.89,22.89,0,0,1-7,5.46,37.63,37.63,0,0,1-7.84,3c-2.65.72-5.3,1.22-7.93,1.67s-5.22.84-7.85,1.17q-7.85,1.12-15.72,1.86c-1.31.15-2.62.26-3.94.36l-3.94.34c-2.63.16-5.26.39-7.89.53-21,1.1-42.29.62-63.3-2.71l-1-.15-.78-.89a42.53,42.53,0,0,1-4.16-5.59,29.49,29.49,0,0,1-3.09-6.52,20.29,20.29,0,0,1-1-7.67,16,16,0,0,1,2.71-7.77,19.56,19.56,0,0,1,5.77-5.4,40.42,40.42,0,0,1,6.32-3.18A98.16,98.16,0,0,1-30.09,185a137,137,0,0,1,26.22-4.28c4.39-.34,8.77-.44,13.13-.52s8.71,0,13,.11l3.24.09c1.12,0,2.25.09,3.38.16a51.7,51.7,0,0,1,6.92.89,30.93,30.93,0,0,1,7,2.28,18.8,18.8,0,0,1,6.41,4.82c.45.53.83,1.13,1.24,1.69s.68,1.22,1,1.83a12.31,12.31,0,0,1,1.16,4.36,9.19,9.19,0,0,1-1,5A8.86,8.86,0,0,1,48,205a13.69,13.69,0,0,1-4,1.32,30.12,30.12,0,0,1-3.56.39c-2.17.14-4.33.27-6.5.37a307.44,307.44,0,0,1-51.89-2l0-.8c8.62-.18,17.22-.44,25.78-1s17.1-1.24,25.59-2.22c2.12-.24,4.25-.48,6.37-.75a23.81,23.81,0,0,0,2.84-.48,7,7,0,0,0,2.06-.8,1.91,1.91,0,0,0,.83-.9,2.49,2.49,0,0,0,.09-1.23,5.26,5.26,0,0,0-.61-1.81c-.21-.32-.38-.66-.59-1s-.45-.61-.71-.88c-2-2.23-5.51-3.51-9.3-4.11a48.83,48.83,0,0,0-5.9-.56c-1,0-2-.05-3.07-.05H22.2c-8.57,0-17.07.09-25.48.63a143.22,143.22,0,0,0-24.78,3.52,96.63,96.63,0,0,0-11.82,3.7c-3.85,1.44-7.25,3.18-9,5.64a9.12,9.12,0,0,0-1.66,4.23,13.41,13.41,0,0,0,.5,5.07,30.85,30.85,0,0,0,5.43,10.21l-1.75-1a265,265,0,0,0,30.75,5.24,209.67,209.67,0,0,0,31.27,1,193.21,193.21,0,0,0,31.05-3.87c2.56-.52,5.09-1.16,7.63-1.73a68.6,68.6,0,0,0,7.32-2.2c4.69-1.71,9-4.21,11.59-7.79a15.55,15.55,0,0,0,2.32-12.45,38.32,38.32,0,0,0-5.76-13l-1-1.51-1.09-1.48c-.75-1-1.53-2-2.33-2.92a41.5,41.5,0,0,0-5.1-5.15A23.93,23.93,0,0,0,54.41,171a22,22,0,0,0-6.62-1.75,66.4,66.4,0,0,0-7.51-.37c-2.59,0-5.19,0-7.78,0-5.19,0-10.38.3-15.58.59-2.6.17-5.19.36-7.79.61s-5.2.46-7.79.77c-5.19.58-10.38,1.28-15.58,2.06Z"/></g><g opacity="0.3"><path d="M414.87,210.81c-10.29-.26-20.53-.78-30.74-.95-5.1-.1-10.2-.07-15.27,0s-10.13.45-15.16.82-10,1.08-14.94,2c-1.24.18-2.46.45-3.69.7s-2.46.47-3.67.78c-2.42.6-4.85,1.17-7.24,1.89-9.58,2.86-19,6.59-28.79,10-4.87,1.69-9.83,3.28-14.87,4.64-2.52.68-5.07,1.28-7.65,1.74l-3.85.75c-1.29.22-2.55.56-3.85.67l-7.75,1c-1.28.21-2.59.2-3.88.31l-3.89.24c-1.3,0-2.58.23-3.88.22l-3.88,0c-2.59,0-5.17.1-7.76-.05a231.76,231.76,0,0,1-30.82-2.83c-5.11-.72-10.17-1.76-15.25-2.69-5-1.14-10.11-2.13-15.1-3.46-10-2.51-20-5.38-29.72-8.76l-3.67-1.24-3.64-1.32c-2.42-.9-4.85-1.76-7.26-2.69l-7.21-2.79a66.55,66.55,0,0,0-6.88-2.4,20.42,20.42,0,0,0-6.38-.85,8.69,8.69,0,0,0-2.67.51,7.3,7.3,0,0,0-2.17,1.2,15,15,0,0,0-3.51,4.85l-1.74,3.41c-.64,1.22-1.4,2.43-2.11,3.64a51.09,51.09,0,0,1-11.26,12.32,62.43,62.43,0,0,1-14.13,8.37,77.29,77.29,0,0,1-15.48,4.84,103.37,103.37,0,0,1-15.87,1.83c-5.28.23-10.52.12-15.71-.11s-10.34-.7-15.46-1.13-10.2-.91-15.27-1.23-10.13-.51-15.19-.46a95.81,95.81,0,0,0-29.93,4.61l-.31-.74c9.28-4.63,19.67-7,30-8s20.8-.8,31-.51c5.13.15,10.23.28,15.29.29s10.09-.07,15-.49a109.34,109.34,0,0,0,14.62-2.16A74.52,74.52,0,0,0,67.16,233C76,229.17,83.77,223.27,89,215.6c.6-1,1.24-1.94,1.82-3l1.84-3.4A22.51,22.51,0,0,1,98.43,202a16,16,0,0,1,9.47-3.18,27.92,27.92,0,0,1,8.78,1.37,73.68,73.68,0,0,1,7.57,2.88l7,3c2.35,1,4.71,1.95,7.07,2.93s4.72,1.94,7.09,2.88c4.72,1.93,9.5,3.71,14.25,5.55s9.58,3.5,14.44,5,9.74,3,14.66,4.37l7.43,1.8,1.86.43,1.88.36,3.76.72A160.52,160.52,0,0,0,234.14,233a136.49,136.49,0,0,0,30.18-3.47c1.25-.21,2.44-.64,3.66-1l3.64-1c2.44-.64,4.83-1.41,7.2-2.26,4.76-1.66,9.47-3.55,14.19-5.46,9.46-3.81,19-7.83,29.2-10.57,2.54-.71,5.11-1.27,7.68-1.85,1.28-.3,2.58-.49,3.87-.75s2.58-.49,3.88-.66l3.9-.53c1.3-.15,2.61-.26,3.91-.39,2.6-.29,5.21-.37,7.82-.56q7.82-.33,15.6,0c2.59.09,5.18.24,7.76.41s5.16.42,7.72.69c10.28,1,20.45,2.58,30.57,4.4Z"/></g><g opacity="0.3"><path d="M-37,266.47c9.92-.66,19.81-1.24,29.68-1.94L7.47,263.4c4.93-.39,9.84-.88,14.76-1.3s9.82-1,14.73-1.5,9.83-1,14.69-1.66c9.68-1.28,19.17-2.85,27.5-6.9,4.15-2,8.25-4.82,12.88-7.2a41.8,41.8,0,0,1,7.34-3,43,43,0,0,1,7.7-1.53,71.16,71.16,0,0,1,15.29.19c5,.51,9.93,1.34,14.83,2.14a561.49,561.49,0,0,0,59.09,6c9.88.52,19.81.89,29.62,1.13a185.91,185.91,0,0,0,29.08-1.3c9.49-1.33,18.84-4,28.34-6.76a262.81,262.81,0,0,1,29.22-7.19,281.69,281.69,0,0,1,29.89-3.71c5-.38,10-.6,15-.8l7.49-.16,7.49,0c20,.15,39.79,1.43,59.57,3.36l0,.8c-19.86.8-39.69,1-59.39,2.14l-7.38.45-7.36.56c-4.9.39-9.8.82-14.67,1.39-9.75,1.12-19.44,2.52-29,4.39s-19,4.26-28.56,6.84-19.43,5.11-29.65,6.21a166.46,166.46,0,0,1-30.31.21c-5-.36-10-.87-14.9-1.43s-9.88-1.13-14.81-1.75c-19.73-2.5-39.39-5.19-59.07-7.77-4.92-.62-9.82-1.19-14.7-1.42a62.27,62.27,0,0,0-14.38.9,37.08,37.08,0,0,0-12.93,5.08c-4,2.46-7.92,5.6-12.57,8.17a60.55,60.55,0,0,1-14.67,5.56A113.13,113.13,0,0,1,52.48,266c-5,.54-9.93,1-14.9,1.39s-9.94.66-14.92.92-10,.4-14.93.48c-2.49.05-5,.07-7.47.09l-7.47-.07c-10-.13-19.9-.6-29.81-1.51Z"/></g><g opacity="0.3"><path d="M431.49,253.62a127.85,127.85,0,0,0-29.65-3.08l-7.43.26-7.41.55c-2.47.26-4.93.58-7.39.86l-7.37,1.07c-2.45.38-4.9.84-7.35,1.26s-4.89,1-7.34,1.42q-7.35,1.44-14.68,3.07c-9.78,2.19-19.64,4.29-29.62,6-20,3.4-40.26,4.56-60.37,5.63s-40.26,1.76-60.44,2.15c-10.08.17-20.2.24-30.24.08s-20-.21-29.67.85-19.05,3.56-28.49,6.69-18.92,6.68-28.89,9.27A210,210,0,0,1,45,295.32c-5.07.59-10.15,1-15.22,1.33s-10.15.43-15.22.5a542.23,542.23,0,0,1-60.47-3.3l0-.8c20.15-.66,40.26-.76,60.19-2.19q7.47-.52,14.89-1.32c4.95-.51,9.88-1.13,14.77-1.9a251.84,251.84,0,0,0,29-6.18c9.48-2.55,18.85-6,28.61-9,4.87-1.49,9.83-2.87,14.89-4a112.74,112.74,0,0,1,15.42-2.27,211.54,211.54,0,0,1,30.62.27l15,1c5,.33,10,.66,15,.92,10,.52,20.07.9,30.11.85s20.08-.4,30.08-1.2c2.5-.19,5-.43,7.49-.71s5-.49,7.48-.84l7.45-1,7.42-1.18c9.88-1.68,19.67-3.69,29.42-5.85s19.53-4.45,29.44-6.39q7.42-1.49,14.91-2.82c2.51-.41,5-.81,7.52-1.17s5-.69,7.56-1,5.06-.56,7.61-.74,5.1-.3,7.64-.41,5.11-.09,7.66-.08l7.66.37a100.1,100.1,0,0,1,29.74,6.57Z"/></g><g opacity="0.3"><path d="M425.19,278.14a137.07,137.07,0,0,0-28.68-3.7l-1.8-.07-1.8,0-3.6,0c-2.4,0-4.8.15-7.2.26s-4.79.32-7.19.55l-3.59.32-3.59.42-3.58.42-3.58.52c-2.39.35-4.77.7-7.15,1.11-4.77.73-9.54,1.59-14.3,2.48-9.52,1.83-19.1,3.64-28.76,5.18-19.36,3.13-39,4.41-58.5,5.49s-39.06,1.62-58.66,1.33c-9.81-.15-19.58-.65-29.23-.89a170.66,170.66,0,0,0-28.56,1.24,191.57,191.57,0,0,0-27.85,6.56c-9.24,2.79-18.53,5.82-28.09,8.37a214.47,214.47,0,0,1-29.18,5.63c-2.46.29-4.91.61-7.37.81s-4.91.47-7.37.63-4.92.32-7.38.41-4.92.21-7.37.26a534.27,534.27,0,0,1-58.66-2.37v-.8c19.52-1,39-1.44,58.3-3.12q3.62-.29,7.22-.67l3.6-.38,3.59-.43c2.4-.25,4.78-.59,7.17-.92s4.76-.72,7.13-1.09a262.89,262.89,0,0,0,28.06-6.2c9.26-2.55,18.52-5.57,28-8.16,4.75-1.3,9.54-2.54,14.41-3.59s9.81-1.88,14.8-2.44a154.41,154.41,0,0,1,29.84-.15c9.82.75,19.47,2.11,29.14,2.93a337.26,337.26,0,0,0,58.25.47q7.27-.65,14.5-1.56c4.82-.67,9.62-1.37,14.41-2.21,9.58-1.66,19.05-3.65,28.56-5.68s19.05-4,28.73-5.6c4.84-.8,9.68-1.57,14.56-2.23,2.43-.36,4.89-.58,7.34-.84l3.68-.37,3.69-.28,3.69-.28c1.23-.07,2.47-.09,3.71-.13,2.47-.07,4.94-.16,7.42-.09a130,130,0,0,1,14.83.87,103.76,103.76,0,0,1,28.63,7.19Z"/></g><g opacity="0.3"><path d="M422.63,309a192.13,192.13,0,0,0-20.05-5.22c-6.77-1.31-13.59-2.23-20.43-2.9-3.43-.24-6.85-.56-10.29-.65s-6.87-.24-10.31-.3c-6.88,0-13.75.19-20.63.54s-13.75.93-20.62,1.62-13.74,1.41-20.62,2.24-13.77,1.64-20.69,2.41-13.85,1.43-20.81,2a353.64,353.64,0,0,1-41.94.95l-2.62-.1-2.62-.17c-1.75-.13-3.5-.19-5.24-.35-3.49-.31-7-.59-10.44-1-6.92-.78-13.78-1.7-20.64-1.88a86.45,86.45,0,0,0-20.42,2c-6.73,1.43-13.38,3.37-20,5.43A391.26,391.26,0,0,1,93.74,324c-13.69,2.76-27.51,4.9-41.36,6.54s-27.7,2.87-41.54,4.13c-27.67,2.5-55.7,4.63-83.85,2.45a242.1,242.1,0,0,1-41.7-7c-6.79-1.78-13.49-3.73-20.15-5.64s-13.28-3.84-20-5.44S-168.18,316-175,315s-13.63-1.61-20.5-1.93-13.77-.33-20.67,0-13.79,1-20.66,2l-.15-.79a193.34,193.34,0,0,1,83.5-1.51c6.9,1.37,13.71,3,20.46,4.71s13.44,3.46,20.14,5c3.35.76,6.7,1.48,10,2.13,1.67.34,3.36.6,5,.91s3.35.61,5,.82l5.07.72,5.09.57L-80,328l2.56.21,5.11.41c6.83.44,13.67.8,20.54.87s13.74,0,20.64-.18,13.79-.49,20.69-.87,13.82-.83,20.74-1.29c13.85-1,27.7-1.88,41.5-3s27.57-2.39,41.23-4.47a299.75,299.75,0,0,0,40.51-8.78c6.7-1.84,13.4-3.82,20.27-5.2,3.44-.68,6.9-1.28,10.4-1.67a85,85,0,0,1,10.55-.51c7,0,14,.71,20.9,1.21,3.45.26,6.89.35,10.34.49,1.72.06,3.45,0,5.17.06h2.58l2.59-.06c6.89-.1,13.78-.53,20.65-1.1s13.74-1.3,20.61-2.07,13.73-1.67,20.63-2.44,13.78-1.67,20.71-2.37,13.87-1.4,20.83-2,14-.85,21-1a244.46,244.46,0,0,1,42,2.38A184,184,0,0,1,403.23,301a151.2,151.2,0,0,1,19.69,7.2Z"/></g><g opacity="0.3"><path d="M-19.74,342.56a275.55,275.55,0,0,0,29.34.67q7.31-.25,14.6-.78c4.86-.36,9.71-.86,14.56-1.36s9.69-1.15,14.53-1.82,9.68-1.33,14.52-2.09c9.67-1.54,19.37-3,29.11-4.35s19.52-2.47,29.3-3.62l14.65-1.81,14.63-2c9.76-1.35,19.52-2.73,29.37-3.63a272.61,272.61,0,0,1,29.69-1.15c9.91.16,19.8.71,29.62,1.55s19.59,1.85,29.32,2.57c4.87.39,9.72.64,14.59.82s9.74.28,14.61.4c9.76,0,19.53,0,29.33-.13s19.63-.27,29.48-.26c4.92,0,9.86,0,14.79.06l7.41.17c2.47,0,4.94.14,7.41.25s4.94.17,7.41.34l7.41.51c2.47.15,4.93.41,7.4.64s4.93.45,7.38.81l7.36,1c2.45.35,4.88.83,7.32,1.24,4.88.78,9.69,2,14.49,3.1l-.14.79c-9.8-1-19.56-1.75-29.34-2-2.44-.14-4.89-.1-7.34-.15s-4.88-.13-7.33-.09l-7.33,0-7.34.13c-19.56.38-39.16,1.55-58.88,2-9.86.24-19.76.24-29.66-.06s-19.84-1-29.7-2-19.62-2.37-29.34-3.72l-14.57-2c-4.85-.6-9.71-1.18-14.57-1.58s-9.74-.75-14.62-.81-9.76,0-14.64.3A277.93,277.93,0,0,0,155.89,328c-19.36,3.3-38.57,7.8-57.9,11.43-9.66,1.81-19.37,3.51-29.17,4.79q-7.34,1-14.72,1.82c-4.92.52-9.86.92-14.81,1.25s-9.91.5-14.87.55c-2.48.05-5,0-7.45,0s-5-.21-7.44-.31a164.88,164.88,0,0,1-29.41-4.14Z"/></g><g opacity="0.3"><path d="M864,316.4c-11.72.95-23.46,1.49-35.19,1.95-5.87.23-11.73.42-17.6.56s-11.73.34-17.6.41l-17.6.27-17.6.11c-11.73.1-23.46,0-35.19-.32-23.46-.61-46.91-2-70.37-2.37s-46.92-.16-70.38.43c-11.73.24-23.46.58-35.2.72s-23.46.2-35.19.24q-35.19.17-70.39-.33c-11.73-.31-23.46-.52-35.19-.92l-17.59-.63-17.59-.76c-5.86-.22-11.73-.6-17.59-.92s-11.72-.67-17.58-1.06l-17.58-1.39-4.39-.38-4.39-.51-8.76-1.08.09-.8c23.42.38,46.89-.15,70.34-.16l17.59-.08h17.59c11.73,0,23.45.1,35.18.14,23.45.22,46.9.75,70.35,1.3,11.72.27,23.45.54,35.17.9s23.45.88,35.17,1.32c23.45.91,46.9,1.51,70.36,1.35s46.92-1.29,70.38-1.69c11.73-.21,23.46-.28,35.18-.1l17.59.18,17.59.33c5.86.1,11.73.26,17.59.42s11.73.33,17.59.55q17.59.57,35.18,1.51Z"/></g><g opacity="0.3"><path d="M-38.17,363.45a95.44,95.44,0,0,1,9.87-2.54c3.35-.62,6.72-1.13,10.11-1.48,6.78-.66,13.59-.9,20.35-.93s13.49,0,20.19-.13,13.4-.38,20.1-.7,13.39-.76,20.09-1.27,13.39-1,20.08-1.66l40.19-3.82,20.11-1.76c6.67-.61,13.29-1.39,19.82-2.62s13-3.05,19.56-4.7c3.29-.82,6.59-1.66,9.94-2.31s6.75-1.12,10.14-1.49c13.6-1.39,27.2-.3,40.63.71l40.37,3.14c13.45,1.1,26.91,2.21,40.34,3.56s26.84,2.83,40.24,4.34l10,1.14,2.52.29c.9.11,1.8.23,2.71.38a42.2,42.2,0,0,1,5.44,1.28,26.2,26.2,0,0,1,5.46,2.35,16.14,16.14,0,0,1,5,4.42,12.72,12.72,0,0,1,2.39,7,12.85,12.85,0,0,1-1.84,7.09,17.92,17.92,0,0,1-4.41,4.88,27.72,27.72,0,0,1-5,3.11,39.66,39.66,0,0,1-5.25,2.09l-5,1.49a156.93,156.93,0,0,1-20.32,4.29A155.12,155.12,0,0,1,335,391a153.24,153.24,0,0,1-20.69-1.25,163.56,163.56,0,0,1-20.3-4c-3.35-.86-6.59-1.94-9.92-3a18,18,0,0,1-5.48-2.87,9.13,9.13,0,0,1-2.43-3,7.1,7.1,0,0,1-.67-1.94c-.07-.33-.13-.66-.18-1s0-.71,0-1.07a7.9,7.9,0,0,1,.37-2.11,8.62,8.62,0,0,1,.91-1.83,10.29,10.29,0,0,1,2.49-2.6,17.6,17.6,0,0,1,5.49-2.59,24.11,24.11,0,0,1,5.66-.93l5.09-.15q10.18-.26,20.34.06a354.86,354.86,0,0,1,40.44,3.46l-.07.8c-13.48-.54-26.93-.64-40.35-.16-6.71.24-13.4.64-20.09,1.14l-5,.42a18.45,18.45,0,0,0-4.25.94,12.55,12.55,0,0,0-3.54,1.85,4.1,4.1,0,0,0-1,1.07c-.14.16-.11.3-.2.43s-.07.23,0,.38a1.28,1.28,0,0,1,0,.2,1.46,1.46,0,0,1,.08.24,1.09,1.09,0,0,0,.17.43,2.8,2.8,0,0,0,.81.85,12,12,0,0,0,3.54,1.58c3.12.88,6.33,1.78,9.53,2.49A156.13,156.13,0,0,0,315.2,382a158.84,158.84,0,0,0,39.28-.93,161.62,161.62,0,0,0,19.23-4.05l4.7-1.38a31.2,31.2,0,0,0,4.14-1.64c2.6-1.25,4.95-2.92,6-4.64a4.48,4.48,0,0,0,.74-2.53,4.43,4.43,0,0,0-.79-2.47c-1-1.56-3.51-3-6.28-3.9a36.26,36.26,0,0,0-4.38-1.12c-.76-.15-1.52-.27-2.29-.38l-2.5-.34-10-1.36L323,351.82c-13.35-1.84-26.68-3.81-40-5.58s-26.73-3.46-40.14-4.79-26.85-2.42-40.11-.84A111.34,111.34,0,0,0,183.18,345c-6.41,2-12.83,4.15-19.48,5.85-13.31,3.36-26.83,4.89-40.16,6.69s-26.81,3.23-40.3,4.26c-6.74.52-13.49,1-20.26,1.38s-13.54.57-20.31.69c-13.54.27-27.18-.23-40.59-1.11-13.4-.73-26.82-1.18-40,1.47Z"/></g><g opacity="0.3"><path d="M276.29,353.86c-15.29-3.52-30.8-3.42-46-1.13-3.81.52-7.59,1.25-11.36,2s-7.53,1.65-11.28,2.58c-7.49,1.91-15,4-22.54,6-15.12,4-30.54,7.63-46.05,10.46a415.4,415.4,0,0,1-46.95,5.51c-7.87.5-15.75.89-23.61,1s-15.71.07-23.54,0c-15.68-.09-31.36-.15-47-.66-7.83-.26-15.67-.56-23.5-1l-11.75-.6-11.74-.7c-15.66-1-31.31-2.15-46.95-3.9l0-.8c15.7-1,31.4-1.35,47.08-1.6l11.76-.13,11.76,0c7.84,0,15.68.06,23.52.18,31.33.6,62.72,2.51,93.89,3.79,15.59.43,31.29-.32,46.53-3.66S168.31,362,183.2,357c7.46-2.5,15-4.76,22.78-6.54,3.87-.91,7.78-1.68,11.71-2.35s7.9-1.15,11.89-1.49a111.89,111.89,0,0,1,24,.29c1,.1,2,.25,3,.41s2,.31,3,.5c2,.45,3.92.79,5.84,1.36a73.89,73.89,0,0,1,11.23,4Z"/></g><g opacity="0.3"><path d="M-37.87,387.31c10-.23,19.93-.18,29.88-.11l29.8.25c5,.08,9.92,0,14.87.06s9.91,0,14.86-.05l14.84-.23L81.21,387c4.94-.16,9.89-.2,14.83-.44s9.89-.43,14.84-.71c2.48-.12,4.94-.37,7.41-.57s4.94-.4,7.4-.71c4.92-.59,9.84-1.18,14.73-2,19.59-3.25,38.79-8.44,58-13.64,4.81-1.27,9.61-2.62,14.58-3.71a74.94,74.94,0,0,1,15.35-2,41.45,41.45,0,0,1,15.89,2.66,52.19,52.19,0,0,1,13.58,8.4c4,3.25,7.63,6.6,11.38,9.48a55.58,55.58,0,0,0,11.94,7.08c8.57,3.68,18,5.68,27.59,6.8a234.44,234.44,0,0,0,29.18,1.49c2.44,0,4.88-.1,7.32-.21s4.88-.29,7.32-.47q7.32-.54,14.6-1.6a241.79,241.79,0,0,0,57-15.54l.35.72a189.5,189.5,0,0,1-56.23,21c-2.48.47-4.95,1-7.45,1.38s-5,.85-7.5,1.11-5,.62-7.55.8-5,.44-7.57.54a197.7,197.7,0,0,1-30.4-.75c-10.12-1.1-20.43-3.22-30.06-7.67A63.91,63.91,0,0,1,264.24,390c-4-3.3-7.62-6.82-11.26-10a46.45,46.45,0,0,0-11.43-7.65,37,37,0,0,0-13.26-2.79c-9.37-.33-19.11,1.71-28.87,3.57-19.53,3.73-39,8.14-58.55,11.91-2.45.47-4.89,1-7.35,1.41l-7.38,1.3c-2.45.49-4.92.85-7.39,1.25s-4.93.84-7.41,1.18q-14.84,2.23-29.82,3.41c-10,.67-20,1.08-30,.92-5,0-10-.15-15-.24s-10-.38-15-.65-10-.6-14.93-.95-9.94-.77-14.9-1.24c-9.92-.91-19.82-2-29.71-3.34Z"/></g><g opacity="0.3"><path d="M54,408.9c10.47-1.41,20.74-2.74,31-4.51,5.12-.81,10.22-1.79,15.33-2.68,2.55-.5,5.1-1,7.66-1.4s5.12-.91,7.7-1.28c10.3-1.59,20.79-2.7,31.05-4.84s20.38-4.89,30.54-7.69l3.81-1.05,3.84-1c2.56-.66,5.12-1.33,7.71-1.85s5.17-1.08,7.79-1.57a65.79,65.79,0,0,1,8.23-1,32.71,32.71,0,0,1,8.84.65,32.29,32.29,0,0,1,8.35,3.26c5.11,2.79,9.15,6.34,13.22,9.23s8.32,5.82,12.67,8.49c1.08.67,2.18,1.33,3.29,1.95s2.21,1.27,3.35,1.86c2.24,1.24,4.51,2.42,6.82,3.53a198,198,0,0,0,29,11.28l-.13.79a108.18,108.18,0,0,1-31.26-6.26c-2.52-.9-5-1.86-7.5-2.93-1.24-.52-2.45-1.1-3.67-1.67s-2.43-1.16-3.63-1.78A115.51,115.51,0,0,1,234,400.13c-4.49-3.12-8.4-6.5-12.4-8.93a24.2,24.2,0,0,0-6.12-2.74,25.43,25.43,0,0,0-6.75-.86c-4.75,0-10,.82-15.14,1.35-2.59.26-5.17.61-7.76.89l-3.89.44-3.89.52a246.68,246.68,0,0,0-30.83,5.91c-10.15,2.6-20.08,6.23-30.29,8.86-2.56.64-5.13,1.25-7.71,1.79s-5.2,1-7.8,1.38c-5.23.79-10.48,1.48-15.77,1.85A140,140,0,0,1,54,409.7Z"/></g></svg>