<svg xmlns="http://www.w3.org/2000/svg" xmlns:xlink="http://www.w3.org/1999/xlink" width="1100" height="1945" viewBox="0 0 1100 1945"><defs><linearGradient id="linear-gradient" x1="710.67" y1="976.09" x2="956.29" y2="1221.73" gradientTransform="matrix(1, 0, 0, -1, 0, 2546)" gradientUnits="userSpaceOnUse"><stop offset="0" stop-opacity="0"/><stop offset="1" stop-opacity="0.25"/></linearGradient><linearGradient id="linear-gradient-2" x1="471.7" y1="768.54" x2="800.53" y2="1097.36" xlink:href="#linear-gradient"/><linearGradient id="linear-gradient-3" x1="266.05" y1="481.18" x2="561.58" y2="185.65" gradientUnits="userSpaceOnUse"><stop offset="0" stop-opacity="0"/><stop offset="1" stop-opacity="0.1"/></linearGradient><linearGradient id="linear-gradient-4" x1="771.93" y1="1974.02" x2="1084.28" y2="2286.38" gradientTransform="matrix(1, 0, 0, -1, 0, 2546)" gradientUnits="userSpaceOnUse"><stop offset="0" stop-opacity="0"/><stop offset="0.59" stop-color="#231f20" stop-opacity="0.05"/><stop offset="1" stop-opacity="0.1"/></linearGradient><linearGradient id="linear-gradient-5" x1="507.52" y1="1476.61" x2="805.76" y2="1774.85" gradientTransform="matrix(1, 0, 0, -1, 0, 2546)" gradientUnits="userSpaceOnUse"><stop offset="0" stop-opacity="0"/><stop offset="1" stop-opacity="0.3"/></linearGradient></defs><title>works-stacked</title><g id="Layer_3" data-name="Layer 3"><g id="Layer_3-2" data-name="Layer 3"><path d="M1074.12,1535.65c0,8-1.62,13.49-4.94,15.5a2.86,2.86,0,0,1,0,.71l-6.58,6.58L880.91,1740.14,749.52,1608.74,609.3,1468.52l-5-5-33.71-33.71c.3-2,.61-3.83,1-5.73a6.05,6.05,0,0,1,.2-1,223,223,0,0,1,47.14-100.78c2.65-3.22,5.41-6.36,8.27-9.46l11.67-11.67c2.45-2.29,4.94-4.52,7.5-6.71l2.11-1.76c.91-.77,1.84-1.54,2.76-2.27,1.42-1.17,2.88-2.29,4.34-3.42A223.84,223.84,0,0,1,902.2,1270.4l52.71,52.69,9.36,9.36.28.3-.49.38,13.17,17.24h.16a6.85,6.85,0,0,1,5.31.53h0l3,2.78.69.67,6.46,6.48L997,1365l24.05,24.17h0l9.66,9.64.69.69h0A368.32,368.32,0,0,1,1053.1,1443c11,25.93,18.23,50.26,21,68.25C1075.79,1522,1075.83,1530.42,1074.12,1535.65Z" fill="url(#linear-gradient)"/></g><g id="Layer_4" data-name="Layer 4"><path d="M842,1699.85a15.5,15.5,0,0,1-1.68,3l-13.25,19a16.23,16.23,0,0,1-2.88,3.14,7.37,7.37,0,0,1,0,8.06l-2.17,3.1-18.29,18.29L626.24,1932,317.17,1622.92,646,1294.1l.39.39,26.33,26.33,13.57,13.57a211.87,211.87,0,0,0-67.94,95.07,182.4,182.4,0,0,0-10.11,52,154.58,154.58,0,0,0,23.7,91.1,5,5,0,0,1,2.69,1.78l2.21,2.9a5,5,0,0,1,1,3.79c.18.28.38.51.55.77l-1.13.85h0a5.33,5.33,0,0,1-1.28,1.48l-3,2.27,10.19,13.31,3.95-5.71a6.66,6.66,0,0,1,9.18-1.44,16.41,16.41,0,0,1,1.82-3.38l13.25-19c5.65-8.06,17.08-9.22,25.54-2.57l138.24,108.62a21.43,21.43,0,0,1,8,14A18.47,18.47,0,0,1,842,1699.85Z" fill="url(#linear-gradient-2)"/></g><g id="Layer_2" data-name="Layer 2"><path d="M929,1374.3l-3,1.09c-9.26,3.34-13.37,14.08-9.16,24l68.67,161.94c4.21,9.87,15.11,15.21,24.37,11.85l2-.67C987.54,1552.36,923.76,1401.69,929,1374.3Z" fill="#212121"/><path d="M1040.8,1541.32l-68.67-161.94c-4.21-9.87-15.11-15.21-24.37-11.85L929,1374.28c-5.29,27.39,58.48,178.06,82.71,198.16l19.87-7.17C1041,1562,1044.93,1551.21,1040.8,1541.32Z" fill="#242424"/><path d="M1063.39,1558.15l-.81.3-19.37,7a7.33,7.33,0,0,1-7.78-2.11,8.24,8.24,0,0,1-1.62-2.47l-82-193.42a4.8,4.8,0,0,1-.26-.75,6.64,6.64,0,0,1,3.79-8.49l6.54-2.35,15.29-5.53h.16v.14a14.48,14.48,0,0,0-1,2.15c-13.61,34.62,39.28,183.25,86.76,205.39Z" fill="#1a1a1a"/><path d="M1069.18,1551.15a2.86,2.86,0,0,1,0,.71,6.54,6.54,0,0,1-.71,2.69h0a6.14,6.14,0,0,1-3.4,3l-1.64.59-.34-.18c-47.4-22.18-100.37-170.81-86.76-205.39a14.48,14.48,0,0,1,1-2.15v-.14a6.85,6.85,0,0,1,5.31.53h0a8.12,8.12,0,0,1,3.12,2.84c.16.24.3.47.43.71l.24.53,3.5,8.2,3.5,8.06h0l68.71,161.94,3.46,8.18,2.94,6.89a7.9,7.9,0,0,1,.49,1.6A6.58,6.58,0,0,1,1069.18,1551.15Z" fill="#242424"/><path d="M665,1579.46l-6.79,9.72a16.41,16.41,0,0,0-1.82,3.38,20.48,20.48,0,0,0,6.89,23.24l25.38,20h0l87,68.31,25.93,20.34c7.21,5.65,16.53,5.67,22.63.57a16.23,16.23,0,0,0,2.88-3.14l8.39-12C800.73,1698.7,693.71,1613,665,1579.46Z" fill="#212121"/><path d="M842,1699.85a18.47,18.47,0,0,0,1.28-9.64,21.43,21.43,0,0,0-8-14L697,1567.61c-8.45-6.66-19.89-5.49-25.54,2.57l-6.46,9.24c28.75,33.57,135.78,119.25,170.52,130.35l4.86-7A15.5,15.5,0,0,0,842,1699.85Z" fill="#242424"/><path d="M634.24,1612.42l-.39.57h0a7.56,7.56,0,0,0,1,9.18h0a6.38,6.38,0,0,0,1,.95l7,5.49h0l7,5.47h0L788.19,1742.7h0l6.93,5.45h0l5.92,4.62a7.64,7.64,0,0,0,2.57,1.34h0a6.44,6.44,0,0,0,7.15-2.39l.91-1.28C807.11,1714.76,687.31,1608.53,634.24,1612.42Z" fill="#1a1a1a"/><path d="M824.21,1724.95a8.2,8.2,0,0,0-2-2.19L657,1593a3.54,3.54,0,0,0-.65-.45,6.66,6.66,0,0,0-9.18,1.44l-3.95,5.71-8.93,12.72c53.07-3.95,172.87,102.3,177.59,138.24L822.08,1736l2.17-3.1A7.37,7.37,0,0,0,824.21,1724.95Z" fill="#242424"/><polygon points="646.92 1604.6 634.54 1614.06 633.79 1613.09 620.61 1595.85 620.36 1595.53 617.79 1592.17 630.17 1582.71 632.74 1586.07 632.98 1586.39 643.17 1599.7 646.92 1604.6" fill="#1a1a1a"/><path d="M734.11,1667c46.65,36.62,78.15,75.34,70.35,86.5s-51.94-9.5-98.59-46.13-78.15-75.34-70.35-86.5S687.46,1630.33,734.11,1667Z" fill="#121212"/><path d="M730.3,1672.42c42.6,33.44,71.1,69.12,63.75,79.69s-47.93-7.9-90.53-41.47-71.1-69.12-63.75-79.69S687.7,1639,730.3,1672.42Z" fill="#696969"/><path d="M643.85,1634.76c-.22.2-1.42,1.43-1.59,1.67-6.4,9.14,21.11,42.22,61.46,73.88,39.81,31.26,78.22,48.37,85.33,40.1-14.36-.85-46.45-18.47-80.38-45C672.67,1677.32,646.52,1648.29,643.85,1634.76Z" fill="#121212"/><path d="M727,1677.23c-39.26-30.83-76.19-48.94-84-41.47,2.67,13.43,28.91,42.46,64.84,70.62,33.91,26.58,66,44.2,80.38,45,0-.1.2-.2.28-.32C794.72,1742.05,767.21,1709,727,1677.23Z" fill="#1c1c1c"/><polygon points="977.98 1351.25 976.3 1352.54 965.59 1360.73 961.84 1355.83 951.65 1342.52 951.41 1342.21 948.85 1338.85 961.25 1329.37 963.8 1332.71 963.82 1332.71 964.05 1333.02 977.23 1350.27 977.3 1350.38 977.98 1351.25" fill="#1a1a1a"/><path d="M1074.12,1535.65c0,8-1.62,13.49-4.94,15.5a.87.87,0,0,1-.32.2,4.38,4.38,0,0,1-.75.36c-8.43,3-23.92-13.47-40.15-40.66h0a418.47,418.47,0,0,1-24.9-49.79,408.82,408.82,0,0,1-18.29-52.06h0c-8.12-30.2-8.91-52.08-.45-55.12a5,5,0,0,1,1.32-.3h.26c3.95-.3,8.91,2.71,14.63,8.37h0c1.18,1.18,2.39,2.47,3.61,3.83h0a177.88,177.88,0,0,1,16.89,23.23h0a403.36,403.36,0,0,1,28.3,55.3c12.42,29.31,20.6,56.72,23.52,76.55.51,3.4.87,6.58,1,9.48h0C1074.06,1532.35,1074.12,1534.07,1074.12,1535.65Z" fill="#121212"/><path d="M1074.12,1535.65a8.65,8.65,0,0,1-3.95,5.31l-.71.34a6.85,6.85,0,0,1-3.95.14c-13.37-3-37.23-37.52-56.36-82.49s-26.9-85.32-19.26-95.86a5.93,5.93,0,0,1,2.73-2.25h.22a9.18,9.18,0,0,1,7.52,1.28h0c8.35,4.56,19.51,18.23,30.89,37.52h0a368.32,368.32,0,0,1,21.72,43.59c11,25.93,18.23,50.26,21,68.25C1075.79,1522,1075.83,1530.42,1074.12,1535.65Z" fill="#696969"/><path d="M1014.87,1456.91c20,47.22,44.77,82.41,55.3,78.62s2.76-45.13-17.24-92.35-44.77-82.41-55.3-78.62S994.86,1409.71,1014.87,1456.91Z" fill="#1c1c1c"/><path d="M624,1377.78a159,159,0,0,0-18.58,50,126.28,126.28,0,0,0-2,17.2c0,2.25-.14,4.46,0,6.68a9.19,9.19,0,0,0,0,1v2.19a1,1,0,0,0,0,.41v1.78a2.43,2.43,0,0,0,0,.39,6.42,6.42,0,0,0,.12,1.5c.12.49.12,1.54.2,2.29s.14,1.2.22,1.82q.36,3,.89,5.92a7.73,7.73,0,0,0,.28,1.5c.1.49.32,1.54.49,2.29s.26,1.18.39,1.76c.55,2.33,1.2,4.62,2,6.89a182.4,182.4,0,0,1,10.31-52,122.74,122.74,0,0,1,23.17-39C632.82,1390.45,626.87,1385.66,624,1377.78Z" fill="#242424"/><path d="M678.14,1316.49c-1.84,1.4-3.65,2.84-5.43,4.33a204.11,204.11,0,0,0-48.68,57c2.84,7.9,8.79,12.68,17.48,12.66,14.61-17.24,33.32-32.59,52.69-48.15,1.42-1.17,2.84-2.29,4.31-3.4,49.37-37.78,100.9-59.13,153.14-49.25C806.08,1263.19,735.81,1272.37,678.14,1316.49Z" fill="#242424"/><path d="M575.09,1408.43c-1.26,4.92-2.39,9.87-3.34,14.85a6.05,6.05,0,0,1-.2,1c-.36,2-.67,3.81-1,5.73-.85,5.29-1.48,10.64-2,16a223,223,0,0,0,38.53,145.2c1.84,2.69,3.73,5.29,5.73,7.9.32.45.65.89,1,1.32l1.68-1.28,4.76-3.65,2.65-2C582.79,1540.17,564.39,1473.2,575.09,1408.43Z" fill="#242424"/><path d="M968.81,1328.44q-3.73-4.9-7.7-9.5a223.54,223.54,0,0,0-305.5-31.9q-4.74,3.61-9.22,7.45c-2.57,2.19-5.06,4.42-7.5,6.71-4.07,3.75-7.9,7.66-11.67,11.67-2.86,3.1-5.63,6.24-8.27,9.46a222.69,222.69,0,0,0-43.84,86.09c-10.7,64.78,7.7,131.75,47.93,185.07l9.74-7.45,4.44-3.4h0l1.13-.85c-.18-.26-.38-.49-.55-.77q-3.12-4.15-5.92-8.47a154.58,154.58,0,0,1-23.7-91.1c-.73-2.27-1.38-4.56-2-6.89-.14-.57-.28-1.17-.39-1.76s-.34-1.52-.49-2.29-.18-1-.28-1.5q-.53-2.92-.89-5.92a14.25,14.25,0,0,0-.22-1.82c-.08-.61-.16-1.52-.2-2.29a7.4,7.4,0,0,0-.12-1.5,2.43,2.43,0,0,1,0-.39v-1.78a1,1,0,0,1,0-.41v-2.19a9.19,9.19,0,0,1,0-1V1445a126.27,126.27,0,0,1,2-17.2c6.75-37.52,30.2-76.73,67.27-106.94,1.78-1.48,3.59-2.92,5.43-4.33,57.67-44.14,127.94-53.32,173.48-26.86,33.22,6.26,63.51,22,86.46,46.81,2.88,3.08,5.61,6.32,8.22,9.68l5.12-3.95,12.38-9.5h0l.45-.36,4.21-3.2h0l.53-.41Z" fill="#1f1f1f"/><path d="M968.81,1328.44a5.38,5.38,0,0,1-.32.69h0a4.74,4.74,0,0,1-1.28,1.46l-2.65,2-.49.38-12.4,9.5-3.95,3a4.94,4.94,0,0,1-6.92-.92h0l-2.21-2.88a4.92,4.92,0,0,1-.45-5.31,5.06,5.06,0,0,1,1.36-1.62l15.46-11.85,4-3.12a5.25,5.25,0,0,1,2.13-.93,4.92,4.92,0,0,1,4.8,1.86l2.21,3A4.86,4.86,0,0,1,968.81,1328.44Z" fill="#121212"/><path d="M637.78,1581a5.29,5.29,0,0,1-.57,1.62h0a5.33,5.33,0,0,1-1.28,1.48l-2.94,2.27-12.36,9.46-3.26,2.39a4.95,4.95,0,0,1-6.91-.93l-2.23-2.9a4.88,4.88,0,0,1,1-6.91l18.52-14.18a4.9,4.9,0,0,1,4.25-.87,5,5,0,0,1,2.69,1.78l2.21,2.9A5,5,0,0,1,637.78,1581Z" fill="#121212"/></g></g><g id="Layer_4-2" data-name="Layer 4"><path d="M-486.7,1087.92,107.43,1587a29,29,0,0,1,5.87,37.63l-181.12,297.5a29,29,0,0,1-43.13,6.73L-785.75,1362a29,29,0,0,1-.81-43.65l261.78-229.74A29,29,0,0,1-486.7,1087.92Z" fill="#0a0a0a" stroke="#e6e6e6" stroke-miterlimit="10"/><path d="M-491.38,1045.64l337.89-402.22a40.38,40.38,0,0,1,56.9-4.95l579.41,486.74a40.38,40.38,0,0,1,4.95,56.9L149.88,1584.33a40.37,40.37,0,0,1-56.9,4.95l-11.26-9.46,17.72-21.09-556.89-467.81L-475.17,1112l-11.26-9.46A40.37,40.37,0,0,1-491.38,1045.64Z" fill="#e6e6e6"/><rect x="-44.93" y="872.08" width="316.62" height="209.38" rx="1.56" ry="1.56" transform="translate(-428.08 1797.58) rotate(-139.97)" fill="#e6e6e6" stroke="#9e9e9e" stroke-miterlimit="10" stroke-width="0.5"/><rect x="-426.04" y="1038.46" width="727.3" height="286.51" rx="1.56" ry="1.56" transform="translate(-870.25 2046.41) rotate(-139.97)" fill="#e6e6e6" stroke="#9e9e9e" stroke-miterlimit="10" stroke-width="0.5"/><line x1="-475.17" y1="1112.01" x2="81.72" y2="1579.82" fill="none"/><rect x="-556.83" y="1325.16" width="727.3" height="33.06" transform="translate(-1204.09 2244.75) rotate(-139.97)" fill="#1a1a1a"/><polygon points="-508.64 1119.86 79.76 1614.15 -97.34 1904.33 -763.92 1344.38 -508.64 1119.86" fill="#1a1a1a"/><rect x="-118.87" y="1087.36" width="292.02" height="44.08" rx="0.46" ry="0.46" transform="translate(-665.66 1976.32) rotate(-139.97)" fill="#1a1a1a"/><rect x="162.92" y="1307.85" width="99.18" height="44.08" rx="0.46" ry="0.46" transform="translate(-480.17 2484.86) rotate(-139.97)" fill="#1a1a1a"/><rect x="131.41" y="1258.23" width="44.08" height="44.08" rx="0.46" ry="0.46" transform="translate(-552.55 2359.26) rotate(-139.97)" fill="#1a1a1a"/><rect x="93.44" y="1226.34" width="44.08" height="44.08" rx="0.46" ry="0.46" transform="translate(-599.07 2278.52) rotate(-139.97)" fill="#1a1a1a"/><rect x="55.47" y="1194.44" width="44.08" height="44.08" rx="0.46" ry="0.46" transform="translate(-645.6 2197.78) rotate(-139.97)" fill="#1a1a1a"/><rect x="17.5" y="1162.55" width="44.08" height="44.08" rx="0.46" ry="0.46" transform="translate(-692.13 2117.04) rotate(-139.97)" fill="#1a1a1a"/><rect x="-20.47" y="1130.65" width="44.08" height="44.08" rx="0.46" ry="0.46" transform="translate(-738.65 2036.3) rotate(-139.97)" fill="#1a1a1a"/><rect x="155.35" y="1354.68" width="71.63" height="44.08" rx="0.46" ry="0.46" transform="translate(-547.99 2553.82) rotate(-139.97)" fill="#1a1a1a"/><rect x="120.61" y="1313.92" width="44.08" height="44.08" rx="0.46" ry="0.46" transform="translate(-607.44 2450.65) rotate(-139.97)" fill="#1a1a1a"/><rect x="82.64" y="1282.03" width="44.08" height="44.08" rx="0.46" ry="0.46" transform="translate(-653.97 2369.9) rotate(-139.97)" fill="#1a1a1a"/><rect x="44.67" y="1250.13" width="44.08" height="44.08" rx="0.46" ry="0.46" transform="translate(-700.49 2289.16) rotate(-139.97)" fill="#1a1a1a"/><rect x="6.7" y="1218.24" width="44.08" height="44.08" rx="0.46" ry="0.46" transform="translate(-747.02 2208.42) rotate(-139.97)" fill="#1a1a1a"/><rect x="-31.27" y="1186.34" width="44.08" height="44.08" rx="0.46" ry="0.46" transform="translate(-793.54 2127.68) rotate(-139.97)" fill="#1a1a1a"/><rect x="128.32" y="1394.42" width="66.12" height="44.08" rx="0.46" ry="0.46" transform="translate(-626.15 2604.83) rotate(-139.97)" fill="#1a1a1a"/><rect x="92.93" y="1355.44" width="44.08" height="44.08" rx="0.46" ry="0.46" transform="translate(-683.01 2506.14) rotate(-139.97)" fill="#1a1a1a"/><rect x="54.96" y="1323.54" width="44.08" height="44.08" rx="0.46" ry="0.46" transform="translate(-729.54 2425.4) rotate(-139.97)" fill="#1a1a1a"/><rect x="16.99" y="1291.65" width="44.08" height="44.08" rx="0.46" ry="0.46" transform="translate(-776.06 2344.66) rotate(-139.97)" fill="#1a1a1a"/><rect x="-20.98" y="1259.75" width="44.08" height="44.08" rx="0.46" ry="0.46" transform="translate(-822.59 2263.92) rotate(-139.97)" fill="#1a1a1a"/><rect x="115.88" y="1439.48" width="44.08" height="44.08" rx="0.46" ry="0.46" transform="translate(-696.55 2669.3) rotate(-139.97)" fill="#1a1a1a"/><rect x="77.91" y="1407.58" width="44.08" height="44.08" rx="0.46" ry="0.46" transform="translate(-743.07 2588.55) rotate(-139.97)" fill="#1a1a1a"/><rect x="39.94" y="1375.69" width="44.08" height="44.08" rx="0.46" ry="0.46" transform="translate(-789.6 2507.81) rotate(-139.97)" fill="#1a1a1a"/><rect x="1.97" y="1343.79" width="44.08" height="44.08" rx="0.46" ry="0.46" transform="translate(-836.13 2427.07) rotate(-139.97)" fill="#1a1a1a"/><rect x="-36" y="1311.89" width="44.08" height="44.08" rx="0.46" ry="0.46" transform="translate(-882.65 2346.33) rotate(-139.97)" fill="#1a1a1a"/><rect x="137.35" y="1200.77" width="49.59" height="44.08" rx="0.46" ry="0.46" transform="translate(-500.24 2263.4) rotate(-139.97)" fill="#1a1a1a"/><rect x="180.83" y="1232.67" width="38.57" height="44.08" rx="0.46" ry="0.46" transform="translate(-453.71 2344.14) rotate(-139.97)" fill="#1a1a1a"/><rect x="214.58" y="1261.02" width="38.57" height="44.08" rx="0.46" ry="0.46" transform="translate(-412.36 2415.91) rotate(-139.97)" fill="#1a1a1a"/><rect x="248.33" y="1289.37" width="38.57" height="44.08" rx="0.46" ry="0.46" transform="translate(-371 2487.68) rotate(-139.97)" fill="#1a1a1a"/><rect x="89.83" y="1479.58" width="45.49" height="22.04" rx="0.46" ry="0.46" transform="translate(-760.01 2704.33) rotate(-139.97)" fill="#1a1a1a"/><rect x="50.64" y="1446.66" width="45.49" height="22.04" rx="0.46" ry="0.46" transform="translate(-808.02 2621.01) rotate(-139.97)" fill="#1a1a1a"/><rect x="11.46" y="1413.74" width="45.49" height="22.04" rx="0.46" ry="0.46" transform="matrix(-0.77, -0.64, 0.64, -0.77, -856.04, 2537.68)" fill="#1a1a1a"/><rect x="-27.73" y="1380.83" width="45.49" height="22.04" rx="0.46" ry="0.46" transform="translate(-904.05 2454.36) rotate(-139.97)" fill="#1a1a1a"/></g><g id="Layer_5" data-name="Layer 5"><path d="M740.18,420.64,472.85,688l-258-258-3.21-3.21L59.25,274.39,174.53,159.11l19.79-3.4-2.41-14,5-5a1.21,1.21,0,0,1,.08.3l3,17.7,5.72-1-3-17.7a2.9,2.9,0,0,1,2.36-3.36,4.12,4.12,0,0,1,.49,0,2.94,2.94,0,0,1,2.87,2.41l3,17.7,24.29-4.18-3.06-17.7a2.93,2.93,0,0,1,2.38-3.36,4.11,4.11,0,0,1,.49,0,2.93,2.93,0,0,1,2.85,2.41l3.06,17.7,5.72-1-3.06-17.7a2.9,2.9,0,0,1,2.36-3.36,4.12,4.12,0,0,1,.51,0,2.91,2.91,0,0,1,2.85,2.41l3,17.7,24.29-4.18-3-17.7a2.9,2.9,0,0,1,2.36-3.36,4.09,4.09,0,0,1,.51,0,2.91,2.91,0,0,1,2.85,2.41l3,17.7,5.72-1-3-17.7a2.9,2.9,0,0,1,2.36-3.36,3.45,3.45,0,0,1,.46,0,2.91,2.91,0,0,1,2.87,2.43l3.06,17.7,24.29-4.2-3.06-17.7a2.91,2.91,0,0,1,2.36-3.36,4.11,4.11,0,0,1,.49,0,2.94,2.94,0,0,1,2.87,2.41l3.06,17.73,5.7-1-3-17.7a2.9,2.9,0,0,1,2.36-3.36,4.09,4.09,0,0,1,.51,0,2.91,2.91,0,0,1,2.85,2.41l3,17.7,24.29-4.18-3-17.7a2.9,2.9,0,0,1,2.36-3.36,4.1,4.1,0,0,1,.51,0,2.91,2.91,0,0,1,2.85,2.41l3,17.7,5.72-1-3.06-17.73a2.89,2.89,0,0,1,2.36-3.33,4.09,4.09,0,0,1,.51,0,2.91,2.91,0,0,1,2.85,2.41l3.06,17.7L401.5,120l-3.06-17.7a2.9,2.9,0,0,1,2.36-3.36,3.45,3.45,0,0,1,.46,0,2.92,2.92,0,0,1,2.89,2.43l3,17.7,5.72-1-3-17.7A2.9,2.9,0,0,1,412.24,97a4.09,4.09,0,0,1,.51,0,2.91,2.91,0,0,1,2.85,2.41l3,17.7,24.29-4.18-3-17.7a2.9,2.9,0,0,1,2.36-3.36,4.11,4.11,0,0,1,.49,0,2.91,2.91,0,0,1,2.85,2.41l3.06,17.7,5.72-1L451.3,93.16a2.89,2.89,0,0,1,2.36-3.33,4.1,4.1,0,0,1,.51,0A2.91,2.91,0,0,1,457,92.19l3,17.7,22-3.78,2.26,2.26.61.61,1.65,1.65L492,116.1l5.82,5.82,97.34,97.34.08.08L728.45,352.52Z" fill="url(#linear-gradient-3)"/><polygon points="741.07 425.73 733.85 426.97 288.59 503.72 226.74 514.38 211.63 426.76 167.48 170.63 170.08 170.19 172.63 169.74 175.21 169.3 196.06 165.71 201.77 164.72 207.49 163.73 213.21 162.76 213.21 162.74 237.5 158.56 243.22 157.57 248.94 156.59 254.63 155.6 278.92 151.43 284.64 150.43 290.36 149.44 296.06 148.47 296.08 148.47 320.35 144.27 320.37 144.27 326.08 143.3 331.78 142.31 337.5 141.32 361.79 137.14 367.51 136.15 373.23 135.18 378.92 134.19 378.94 134.19 403.21 130.01 403.23 129.99 408.93 129.01 414.65 128.02 420.37 127.03 444.65 122.85 450.37 121.86 456.09 120.89 461.79 119.9 486.08 115.72 490.82 114.9 491.8 114.73 497.51 113.74 503.21 112.77 503.23 112.77 527.5 108.57 527.52 108.57 533.24 107.6 538.94 106.61 544.66 105.61 568.94 101.44 574.66 100.44 580.38 99.47 586.08 98.48 586.1 98.48 610.37 94.3 610.39 94.28 616.09 93.31 621.8 92.32 627.52 91.33 671.54 83.75 674.09 83.31 676.67 82.87 681.82 81.98 728.45 352.52 740.18 420.64 741.07 425.73" fill="#99713d"/><rect x="195.23" y="119.57" width="508.86" height="349.68" transform="translate(-43.48 80.66) rotate(-9.78)" fill="#a39c83"/><rect x="199.93" y="116.11" width="508.86" height="349.68" transform="translate(-42.82 81.41) rotate(-9.78)" fill="#d4caaa"/><polygon points="731.76 417.9 729.21 418.34 280.55 495.68 232.88 503.91 230.3 504.35 218.04 433.18 172.63 169.74 171.79 164.89 171.34 162.29 170.9 159.74 174.53 159.11 194.32 155.71 200.04 154.72 205.76 153.72 211.48 152.73 235.77 148.56 241.49 147.56 247.21 146.59 252.9 145.6 277.19 141.42 282.91 140.43 288.63 139.44 294.35 138.47 318.63 134.27 324.35 133.3 330.05 132.31 335.77 131.31 360.06 127.14 365.78 126.14 371.5 125.17 377.21 124.18 401.5 119.98 407.2 119.01 412.92 118.02 418.64 117.03 442.93 112.85 448.64 111.86 454.36 110.89 460.06 109.9 482.05 106.12 484.35 105.72 490.07 104.73 495.78 103.73 501.5 102.77 525.79 98.56 531.51 97.59 537.21 96.6 542.93 95.61 567.21 91.43 572.93 90.44 578.65 89.45 584.37 88.48 608.66 84.28 614.36 83.31 620.07 82.32 625.79 81.33 672.36 73.31 672.81 75.88 674.09 83.31 718.83 342.9 731.76 417.9" fill="#fffae8"/><path d="M292.92,246.23l-4.78.82-2.56-9.9a17.67,17.67,0,0,0-8.06-4,28,28,0,0,0-11-.05q-8.77,1.51-13,6.15a11.72,11.72,0,0,0-3.27,10.3,11.24,11.24,0,0,0,5.95,8.19q5,2.82,16.36,3.69,12,1,18.78,4.9a16.46,16.46,0,0,1,8.22,12.08,16.07,16.07,0,0,1-4.6,14.69q-6.06,6.21-16.83,8.06a37.24,37.24,0,0,1-14.57-.26,27.35,27.35,0,0,1-12-5.82l-2.13-12.43,4.78-.82,2.61,10.24a20.63,20.63,0,0,0,9.19,4.14,31,31,0,0,0,11.24,0q8.38-1.44,12.94-6a11.65,11.65,0,0,0,3.51-10.69,12,12,0,0,0-6-8.73q-5-2.94-16.23-3.91-12.15-.92-19-4.57a15.4,15.4,0,0,1-8.16-11.59A16.09,16.09,0,0,1,249,236.32q5.94-6.29,16.72-8.14a34.37,34.37,0,0,1,14.28.31,24.29,24.29,0,0,1,10.82,5.62Z" fill="#2e2e2e"/><path d="M335.55,291.35a21.5,21.5,0,0,1-17.73-4.46q-7.78-6.17-9.72-17.43l-.46-2.68q-1.94-11.31,3.28-19.88t14.44-10.16q9.7-1.67,16.31,3.52T350,255.69l.86,5-37.24,6.4.24,1.41q1.52,8.87,7.31,14.07a15.33,15.33,0,0,0,13.49,3.88,25.72,25.72,0,0,0,9-3.1,18.57,18.57,0,0,0,5.84-5.47l3.17,3.57a21.45,21.45,0,0,1-6.66,6.24A29.39,29.39,0,0,1,335.55,291.35Zm-9.33-49.63a14.18,14.18,0,0,0-10,6.81,21.51,21.51,0,0,0-3,13.29l.14.23,30.9-5.31-.25-1.46a17.1,17.1,0,0,0-6-10.81Q333.14,240.53,326.22,241.72Z" fill="#2e2e2e"/><path d="M352.35,213.59l-.75-4.34,13.75-2.36L377.57,278l8.06-.73.74,4.29-21.69,3.73-.74-4.29,7.83-2L360.4,212.86Z" fill="#2e2e2e"/><path d="M419,277a21.48,21.48,0,0,1-17.73-4.46q-7.78-6.16-9.72-17.42l-.46-2.68q-1.94-11.31,3.28-19.88t14.44-10.16q9.7-1.67,16.31,3.52t8.37,15.42l.85,5-37.24,6.4.24,1.41q1.52,8.87,7.31,14.07a15.33,15.33,0,0,0,13.49,3.88,25.72,25.72,0,0,0,9-3.1,18.59,18.59,0,0,0,5.84-5.47l3.17,3.57a21.41,21.41,0,0,1-6.66,6.24A29.3,29.3,0,0,1,419,277Zm-9.33-49.63a14.17,14.17,0,0,0-10,6.81,21.51,21.51,0,0,0-3,13.29l.14.22,30.9-5.31-.25-1.46a17.1,17.1,0,0,0-6-10.81Q416.59,226.19,409.67,227.38Z" fill="#2e2e2e"/><path d="M471.14,263a16.88,16.88,0,0,0,9.67-5.07,11,11,0,0,0,2.85-10l5.16-.89.15.28a14.7,14.7,0,0,1-3.72,13.24A22.06,22.06,0,0,1,472,267.91q-10.72,1.84-17.89-4.53t-9.16-18l-.35-2q-2-11.5,2.65-19.93t15.3-10.26a27.19,27.19,0,0,1,11.56.38,22.23,22.23,0,0,1,9.31,4.82l2.22,11.46-5,.86-2.53-9.2a16.92,16.92,0,0,0-6.54-3.17,19.73,19.73,0,0,0-8.19-.18q-8.48,1.46-11.51,8.22t-1.44,16l.35,2q1.61,9.36,6.69,14.71T471.14,263Z" fill="#2e2e2e"/><path d="M504.64,193l2.32,13.5,11.6-2,.82,4.78-11.6,2,5.9,34.36q.89,5.17,3.14,7a6.36,6.36,0,0,0,5.37,1.31q1.41-.24,2.73-.59t3-.95l1.62,4.19a15.17,15.17,0,0,1-3.39,1.59,26.45,26.45,0,0,1-4.13,1.06q-5.56,1-9.25-2t-5-10.58l-5.9-34.36-9.07,1.56-.82-4.78,9.07-1.56-2.32-13.5Z" fill="#2e2e2e"/><path d="M561.77,252.48A21.49,21.49,0,0,1,544,248q-7.78-6.17-9.72-17.43l-.46-2.68q-1.94-11.31,3.28-19.88t14.44-10.16q9.7-1.67,16.31,3.52t8.37,15.42l.85,5-37.24,6.4.24,1.41q1.53,8.87,7.31,14.07a15.33,15.33,0,0,0,13.49,3.88,25.71,25.71,0,0,0,9-3.1,18.59,18.59,0,0,0,5.83-5.47l3.17,3.57a21.38,21.38,0,0,1-6.66,6.24A29.31,29.31,0,0,1,561.77,252.48Zm-9.33-49.63a14.18,14.18,0,0,0-10,6.81,21.51,21.51,0,0,0-3,13.29l.14.23,30.9-5.31-.25-1.46a17.11,17.11,0,0,0-6-10.81Q559.36,201.66,552.44,202.85Z" fill="#2e2e2e"/><path d="M627.4,232.32a18.49,18.49,0,0,1-5.68,7.55,20.49,20.49,0,0,1-9.36,3.92q-9.45,1.62-16-4.53t-8.58-17.95l-.18-1q-2.17-12.62,1.87-21.12A17.44,17.44,0,0,1,603.06,189a18.37,18.37,0,0,1,17.81,6.12l-4.52-26.27-8.05.73-.75-4.34,7.95-1.37,5.85-1L633.57,234l8.05-.73.74,4.29-13.16,2.26Zm-33.73-12q1.64,9.55,6.44,14.55t12.5,3.67a16.7,16.7,0,0,0,8.95-4.15,17.11,17.11,0,0,0,4.68-8l-4.29-25a18.43,18.43,0,0,0-6.89-6.34,15.42,15.42,0,0,0-10-1.19,12.9,12.9,0,0,0-10.49,8.3q-2.79,7-1.06,17.07Z" fill="#2e2e2e"/><path d="M328.84,346.18,321.72,348,340.83,392l4,10.45.29,0,.77-11.27,6.85-53.57,5.51-.95,24.29,48.21L387,395.39l.28-.1.41-11.31,3.16-47.91-7.31.7-.75-4.34,18.52-3.18.74,4.34-5.25,1.3L391.71,404l-5.51.95-25.88-51.61-3.13-7.14-.29,0-.47,7.76-7.32,57.31-5.51.95-27.9-63.4-5.38.52-.75-4.34,18.52-3.18Z" fill="#2e2e2e"/><path d="M412.63,372.43q-2-11.65,3.1-20.21t15.63-10.36q10.58-1.82,18.24,4.54t9.67,18l.28,1.61q2,11.7-3.07,20.22t-15.61,10.33q-10.63,1.83-18.29-4.51t-9.68-18Zm6.13.6q1.57,9.17,7.28,14.61t14,4a15.24,15.24,0,0,0,11.7-8.43q3.56-7,2-16.2l-.28-1.61a25.35,25.35,0,0,0-7.28-14.51,16.47,16.47,0,0,0-25.66,4.41,25.45,25.45,0,0,0-2,16.1Z" fill="#2e2e2e"/><path d="M477,335l2.24,8.65.11.63a19,19,0,0,1,4.81-8.68,15.68,15.68,0,0,1,8.71-4.33,13.76,13.76,0,0,1,2.2-.2,15.42,15.42,0,0,1,1.79.07l.16,5.59-4.39.45a13.41,13.41,0,0,0-8.51,4.65,17.32,17.32,0,0,0-3.58,9.37L486,382.71,494,382l.74,4.29L473.06,390l-.74-4.29,7.83-2-7.36-42.85-8.05.73-.75-4.34,7.95-1.36Z" fill="#2e2e2e"/><path d="M498.57,311.8l-.75-4.34,13.74-2.36,7.79,45.33,6.19-1.06,13.1-19.86-.14-.23-4.88.49-.74-4.34,18.57-3.19.74,4.34-6,1.64-14.74,22.26L556,370.77l5.94-.47.74,4.29-18.52,3.18-.74-4.29,5.5-1.3L527,354.28l-6.78,1.16,3.57,20.76,8.06-.73.74,4.29-21.69,3.73-.74-4.29,7.84-2-11.36-66.14Z" fill="#2e2e2e"/><path d="M602.79,330.17,598,331l-2-7.34a15,15,0,0,0-6.14-2.61,21.85,21.85,0,0,0-7.9.05q-6.39,1.09-9.1,4.4a8.42,8.42,0,0,0-2.08,7,7.77,7.77,0,0,0,3.79,5.57q3.17,1.92,11.71,2.3,9.77.48,15.07,3.31a12,12,0,0,1,6.38,9.07,13,13,0,0,1-3.51,11.57q-4.64,5-13.41,6.49a33.44,33.44,0,0,1-10.93.2,25.66,25.66,0,0,1-9.1-3.18L569,357.2l4.73-.81,2.12,7.36a13.81,13.81,0,0,0,6.51,2.37,27,27,0,0,0,7.66-.24q6.34-1.09,9.52-4.49A8.35,8.35,0,0,0,602,354a8.65,8.65,0,0,0-4.16-6q-3.52-2.25-11.77-2.64-9.76-.43-14.9-3a11.3,11.3,0,0,1-6.19-8.7,12.9,12.9,0,0,1,3.36-11.09q4.4-5,12.79-6.49a30.75,30.75,0,0,1,10.91,0,21.7,21.7,0,0,1,8.65,3.46Z" fill="#2e2e2e"/><rect x="196.46" y="162.16" width="17.4" height="10.15" transform="translate(-25.43 37.28) rotate(-9.78)" fill="#616161"/><path d="M200.34,173.2s0,0,0,0h-.06A2.88,2.88,0,0,1,197,171s0,0,0,0a.08.08,0,0,1,0-.06l-.89-5.15-.34-2-.51-2.85-.44-2.57-.44-2.57-2.41-14-.63-3.74a2.89,2.89,0,0,1,2.36-3.33,4.09,4.09,0,0,1,.51,0,2.86,2.86,0,0,1,2.76,2.11,1.21,1.21,0,0,1,.08.3l3,17.7.44,2.57.44,2.57.51,2.85.34,2,.89,5.15A2.87,2.87,0,0,1,200.34,173.2Z" fill="#616161"/><path d="M211.73,171.24a2.9,2.9,0,0,1-3.36-2.36l-.89-5.15-.34-2-.51-2.87-.44-2.57-.44-2.57-3-17.7a2.9,2.9,0,0,1,2.36-3.36,4.12,4.12,0,0,1,.49,0,2.94,2.94,0,0,1,2.87,2.41l3,17.7.44,2.6.44,2.57.51,2.85.34,2v0l.89,5.15v0A2.87,2.87,0,0,1,211.73,171.24Z" fill="#616161"/><rect x="237.89" y="155.02" width="17.4" height="10.15" transform="translate(-23.61 44.21) rotate(-9.78)" fill="#616161"/><path d="M241.74,166.07a2.9,2.9,0,0,1-3.36-2.36l-.89-5.15-.34-2-.51-2.87-.44-2.57-.44-2.57-3.06-17.7a2.93,2.93,0,0,1,2.38-3.36,4.11,4.11,0,0,1,.49,0,2.93,2.93,0,0,1,2.85,2.41l3.06,17.7.44,2.57.44,2.6.51,2.85.34,2,.89,5.17A2.9,2.9,0,0,1,241.74,166.07Z" fill="#616161"/><path d="M253.16,164.11a2.87,2.87,0,0,1-3.33-2.36l-.89-5.15-.34-2-.51-2.87-.44-2.57-.44-2.57-3.06-17.7a2.9,2.9,0,0,1,2.36-3.36,4.12,4.12,0,0,1,.51,0,2.91,2.91,0,0,1,2.85,2.41l3,17.7.44,2.57.44,2.57.51,2.87.34,2,.89,5.15A2.9,2.9,0,0,1,253.16,164.11Z" fill="#616161"/><rect x="279.32" y="147.87" width="17.4" height="10.15" transform="translate(-21.8 51.15) rotate(-9.78)" fill="#616161"/><path d="M283.21,158.92s0,0,0,0h-.06a2.86,2.86,0,0,1-3.25-2.26s0-.06,0-.11l-.89-5.15-.34-2-.51-2.85-.44-2.57-.44-2.57-3-17.7a2.9,2.9,0,0,1,2.36-3.36,4.09,4.09,0,0,1,.51,0,2.91,2.91,0,0,1,2.85,2.41l3,17.7.44,2.57.44,2.57.51,2.85.34,2,.89,5.15A2.87,2.87,0,0,1,283.21,158.92Z" fill="#616161"/><path d="M294.6,157a2.9,2.9,0,0,1-3.36-2.36l-.89-5.15-.34-2-.51-2.87-.44-2.57-.44-2.57-3-17.7a2.9,2.9,0,0,1,2.36-3.36,3.45,3.45,0,0,1,.46,0,2.91,2.91,0,0,1,2.87,2.43l3.06,17.7.44,2.57.44,2.57.49,2.85.36,2,.89,5.15v.08A2.87,2.87,0,0,1,294.6,157Z" fill="#616161"/><rect x="320.75" y="140.73" width="17.4" height="10.15" transform="translate(-19.98 58.08) rotate(-9.78)" fill="#616161"/><path d="M324.59,151.78a2.89,2.89,0,0,1-3.33-2.36l-.89-5.15-.34-2-.51-2.87-.44-2.57-.44-2.57-3.06-17.7a2.91,2.91,0,0,1,2.36-3.36,4.11,4.11,0,0,1,.49,0,2.94,2.94,0,0,1,2.87,2.41l3.06,17.73.44,2.57.44,2.57.51,2.85.34,2,.89,5.15A2.92,2.92,0,0,1,324.59,151.78Z" fill="#616161"/><path d="M336,149.82a2.9,2.9,0,0,1-3.36-2.36l-.89-5.15-.34-2-.51-2.87-.44-2.57-.44-2.57-3-17.7a2.9,2.9,0,0,1,2.36-3.36,4.09,4.09,0,0,1,.51,0,2.91,2.91,0,0,1,2.85,2.41l3,17.7.44,2.57.44,2.57.51,2.87.34,2,.89,5.15A2.9,2.9,0,0,1,336,149.82Z" fill="#616161"/><rect x="362.18" y="133.59" width="17.4" height="10.15" transform="matrix(0.99, -0.17, 0.17, 0.99, -18.16, 65.02)" fill="#616161"/><path d="M366.11,144.63l-.08,0h-.11a2.88,2.88,0,0,1-3.25-2.36l-.89-5.15-.34-2-.51-2.85-.44-2.57-.44-2.57-3-17.7a2.9,2.9,0,0,1,2.36-3.36,4.1,4.1,0,0,1,.51,0,2.91,2.91,0,0,1,2.85,2.41l3,17.7.44,2.57.44,2.57.51,2.85.34,2,.89,5.15A2.88,2.88,0,0,1,366.11,144.63Z" fill="#616161"/><path d="M379.83,139.33v.08a2.9,2.9,0,0,1-2.24,3.23.3.3,0,0,1-.13,0l-.19,0a2.91,2.91,0,0,1-3.17-2.38l-.89-5.15-.36-2-.49-2.85-.44-2.57-.44-2.57-3.06-17.73a2.89,2.89,0,0,1,2.36-3.33,4.09,4.09,0,0,1,.51,0,2.91,2.91,0,0,1,2.85,2.41l3.06,17.7.44,2.57.44,2.57.49,2.85.36,2Z" fill="#616161"/><rect x="403.61" y="126.45" width="17.4" height="10.15" transform="matrix(0.99, -0.17, 0.17, 0.99, -16.35, 71.95)" fill="#616161"/><path d="M407.45,137.5a2.88,2.88,0,0,1-3.33-2.36l-.89-5.15-.34-2-.51-2.85-.44-2.6L401.5,120l-3.06-17.7a2.9,2.9,0,0,1,2.36-3.36,3.45,3.45,0,0,1,.46,0,2.92,2.92,0,0,1,2.89,2.43l3,17.7.44,2.57.44,2.57.51,2.85.34,2,.89,5.15A2.87,2.87,0,0,1,407.45,137.5Z" fill="#616161"/><path d="M418.89,135.54a2.9,2.9,0,0,1-3.36-2.36l-.89-5.15-.34-2-.51-2.87-.44-2.57-.44-2.57-3-17.7A2.9,2.9,0,0,1,412.24,97a4.09,4.09,0,0,1,.51,0,2.91,2.91,0,0,1,2.85,2.41l3,17.7.44,2.57.46,2.6L420,125l.34,2,.89,5.15v.06A2.88,2.88,0,0,1,418.89,135.54Z" fill="#616161"/><rect x="445.04" y="119.31" width="17.4" height="10.15" transform="translate(-14.53 78.88) rotate(-9.78)" fill="#616161"/><path d="M449,130.34l-.08,0h-.11a2.88,2.88,0,0,1-3.25-2.36l-.89-5.15-.34-2-.51-2.85-.44-2.57-.44-2.57-3-17.7a2.9,2.9,0,0,1,2.36-3.36,4.11,4.11,0,0,1,.49,0,2.91,2.91,0,0,1,2.85,2.41l3.06,17.7.44,2.57.44,2.57.49,2.85.36,2,.89,5.15A2.9,2.9,0,0,1,449,130.34Z" fill="#616161"/><path d="M460.42,128.38l-.11,0-.15,0A2.88,2.88,0,0,1,457,126l-.89-5.15-.36-2-.49-2.85-.44-2.57-.44-2.57L451.3,93.16a2.89,2.89,0,0,1,2.36-3.33,4.1,4.1,0,0,1,.51,0A2.91,2.91,0,0,1,457,92.19l3,17.7.44,2.57.44,2.57.51,2.85.34,2,.89,5.15A2.9,2.9,0,0,1,460.42,128.38Z" fill="#616161"/><rect x="486.48" y="112.17" width="17.4" height="10.15" transform="translate(-12.72 85.82) rotate(-9.78)" fill="#616161"/><rect x="484.1" y="84.37" width="5.8" height="39.14" rx="1.37" ry="1.37" transform="translate(-10.58 84.24) rotate(-9.78)" fill="#616161"/><rect x="495.53" y="82.4" width="5.8" height="39.14" rx="1.37" ry="1.37" transform="translate(-10.08 86.15) rotate(-9.78)" fill="#616161"/><rect x="527.91" y="105.02" width="17.4" height="10.15" transform="translate(-10.9 92.75) rotate(-9.78)" fill="#616161"/><rect x="525.53" y="77.23" width="5.8" height="39.14" rx="1.37" ry="1.37" transform="translate(-8.76 91.17) rotate(-9.78)" fill="#616161"/><rect x="536.96" y="75.25" width="5.8" height="39.14" rx="1.37" ry="1.37" transform="translate(-8.26 93.08) rotate(-9.78)" fill="#616161"/><rect x="569.34" y="97.88" width="17.4" height="10.15" transform="translate(-9.09 99.69) rotate(-9.78)" fill="#616161"/><rect x="566.96" y="70.08" width="5.8" height="39.14" rx="1.37" ry="1.37" transform="translate(-6.95 98.1) rotate(-9.78)" fill="#616161"/><rect x="578.39" y="68.11" width="5.8" height="39.14" rx="1.37" ry="1.37" transform="translate(-6.45 100.02) rotate(-9.78)" fill="#616161"/><rect x="610.77" y="90.74" width="17.4" height="10.15" transform="translate(-7.27 106.62) rotate(-9.78)" fill="#616161"/><rect x="608.39" y="62.94" width="5.8" height="39.14" rx="1.37" ry="1.37" transform="matrix(0.99, -0.17, 0.17, 0.99, -5.13, 105.04)" fill="#616161"/><rect x="619.82" y="60.97" width="5.8" height="39.14" rx="1.37" ry="1.37" transform="translate(-4.63 106.95) rotate(-9.78)" fill="#616161"/></g><g id="Layer_7" data-name="Layer 7"><polygon points="1008.74 184.09 1007.45 197.89 1007.29 197.85 1003.57 234 901.6 563.43 899.97 568.69 898.2 574.42 896.42 580.16 894.64 585.89 893.02 591.15 888.19 606.77 880.66 614.3 847.46 647.5 696.4 496.44 1005.54 187.29 1005.71 187.12 1008.74 184.09" fill="url(#linear-gradient-4)"/><rect x="770.18" y="391.64" width="344.84" height="7.97" transform="translate(285.93 1179.08) rotate(-72.8)" fill="#85ad40"/><rect x="763.52" y="390.09" width="344.84" height="6.97" transform="translate(283.21 1171.27) rotate(-72.8)" fill="#6c8c34"/><polygon points="1003.57 234 901.6 563.43 895.42 561.51 894.95 561.36 996.91 231.95 996.91 231.94 997.39 232.09 1003.57 234" fill="#9bc74d"/><line x1="880" y1="562.5" x2="899.97" y2="568.69" fill="none" stroke="#ababab" stroke-miterlimit="10"/><line x1="878.23" y1="568.24" x2="898.2" y2="574.42" fill="none" stroke="#ababab" stroke-miterlimit="10"/><line x1="876.45" y1="573.98" x2="896.42" y2="580.16" fill="none" stroke="#ababab" stroke-miterlimit="10"/><line x1="874.67" y1="579.72" x2="894.64" y2="585.89" fill="none" stroke="#ababab" stroke-miterlimit="10"/><path d="M888.68,557.52c-1,2.89-19.85,55.94-15.09,56.89" fill="none"/><path d="M888.12,559.25l-.3-.09-6.19-1.92L880,562.5l-1.78,5.81L876.45,574l-1.78,5.74L873,585l6.37,2C883,575.33,886.74,563.57,888.12,559.25Z" fill="#b3b3b3"/><path d="M895.42,561.51l-.48-.15-6.65-2.06h-.17c-1.38,4.31-5.13,16.08-8.7,27.69l13.6,4.19,1.63-5.26,1.78-5.74,1.78-5.74,1.78-5.74,1.63-5.26Z" fill="#bababa"/><line x1="880" y1="562.5" x2="899.97" y2="568.69" fill="none" stroke="#ababab" stroke-miterlimit="10"/><line x1="878.23" y1="568.24" x2="898.2" y2="574.42" fill="none" stroke="#ababab" stroke-miterlimit="10"/><line x1="876.45" y1="573.98" x2="896.42" y2="580.16" fill="none" stroke="#ababab" stroke-miterlimit="10"/><line x1="874.67" y1="579.72" x2="894.64" y2="585.89" fill="none" stroke="#ababab" stroke-miterlimit="10"/><path d="M873.72,606.1c1.46-5.21,3.55-12.16,5.7-19.15L873,585l-5.27,17a9,9,0,0,0,5.9,11.2l1.16.35A11.18,11.18,0,0,1,873.72,606.1Z" fill="#ed8190"/><path d="M873.72,606.1a11.18,11.18,0,0,0,1.16,7.38l1.72.53a8.94,8.94,0,0,0,11.2-5.87v0l.42-1.35,4.8-15.58-13.63-4.24C877.26,594,875.18,600.88,873.72,606.1Z" fill="#ff8c9c"/><path d="M888.68,557.52s-10.45,32.51-15,48.58c-.66,4.9-1.25,8.13-.14,8.31" fill="none"/><path d="M888.68,557.52l-15,48.58s-2.46,7.15,2.18,8.31" fill="none"/><polygon points="1000.95 195.87 983.61 227.83 989.78 229.73 989.78 229.74 990.21 229.87 1002.88 196.48 1000.95 195.87" fill="#e6c686"/><polygon points="990.21 229.87 990.26 229.88 996.91 231.95 997.39 232.09 1003.57 234 1007.29 197.85 1002.88 196.48 990.21 229.87" fill="#ffdc96"/><polygon points="1008.09 182.73 1008.14 182.6 1005.54 187.29 1000.8 195.83 1000.95 195.87 1005.71 187.12 1008.09 182.73" fill="#303030"/><polygon points="1009.03 181 1008.14 182.6 1008.09 182.73 1009.03 181" fill="#303030"/><polygon points="1008.71 184.12 1007.29 197.85 1007.45 197.89 1008.74 184.09 1009.03 181 1008.71 184.12" fill="#303030"/><polygon points="1009.03 181 1008.09 182.73 1002.88 196.48 1007.29 197.85 1008.71 184.12 1009.03 181" fill="#303030"/><polygon points="1008.09 182.73 1005.71 187.12 1000.95 195.87 1002.88 196.48 1008.09 182.73" fill="#303030"/></g><g id="Layer_8" data-name="Layer 8"><path d="M841,879.07a133.71,133.71,0,0,1-27.28,81.17L606,1167.91l-197-197L687.28,692.58a14.28,14.28,0,0,1,6-1.31h26.48a14.7,14.7,0,0,1,14.7,14.7h0v41.56A134.49,134.49,0,0,1,841,879.07Z" fill="url(#linear-gradient-5)"/><path d="M841,879.07A134.36,134.36,0,1,1,734.49,747.54,134.36,134.36,0,0,1,841,879.07Z" fill="#d4b842"/><path d="M734.49,706v41.91a6.53,6.53,0,0,1-6.53,6.53H685.15a6.53,6.53,0,0,1-6.53-6.53h0V706a14.28,14.28,0,0,1,1.26-6,14.61,14.61,0,0,1,7.36-7.36,14.28,14.28,0,0,1,6-1.31h26.48A14.7,14.7,0,0,1,734.49,706Z" fill="#d4b842"/><ellipse cx="706.55" cy="879.07" rx="119.21" ry="120.27" fill="#87762a"/><circle cx="706.55" cy="879.07" r="111.59" fill="#1a0e00"/><path d="M712,976a103.25,103.25,0,0,1-93-147.93A110.28,110.28,0,0,0,790.38,939.88,103,103,0,0,1,712,976Z" fill="#3d290f"/></g></svg>