<svg xmlns="http://www.w3.org/2000/svg" xmlns:xlink="http://www.w3.org/1999/xlink" width="1233" height="2173" viewBox="0 0 1233 2173"><defs><linearGradient id="linear-gradient" x1="356" y1="2193.36" x2="576.03" y2="2413.4" gradientTransform="matrix(1, 0, 0, -1, 0, 2546)" gradientUnits="userSpaceOnUse"><stop offset="0" stop-opacity="0"/><stop offset="1" stop-opacity="0.25"/></linearGradient><linearGradient id="linear-gradient-2" x1="141.94" y1="2007.44" x2="436.5" y2="2302" xlink:href="#linear-gradient"/><linearGradient id="linear-gradient-3" x1="412.81" y1="1515.82" x2="716.98" y2="1819.99" gradientTransform="matrix(1, 0, 0, -1, 0, 2546)" gradientUnits="userSpaceOnUse"><stop offset="0" stop-opacity="0"/><stop offset="1" stop-opacity="0.1"/></linearGradient><linearGradient id="linear-gradient-4" x1="906.93" y1="1733.02" x2="1219.28" y2="2045.38" gradientTransform="matrix(1, 0, 0, -1, 0, 2546)" gradientUnits="userSpaceOnUse"><stop offset="0" stop-opacity="0"/><stop offset="0.59" stop-color="#231f20" stop-opacity="0.05"/><stop offset="1" stop-opacity="0.1"/></linearGradient></defs><title>work</title><g id="Layer_3" data-name="Layer 3"><g id="Layer_3-2" data-name="Layer 3"><path d="M681.58,321.95c0,7.18-1.45,12.08-4.42,13.89a2.57,2.57,0,0,1,0,.64l-5.89,5.89L508.5,505.13,390.8,387.43,265.19,261.82l-4.44-4.44-30.2-30.2c.27-1.77.55-3.43.87-5.13a5.42,5.42,0,0,1,.18-.9,199.81,199.81,0,0,1,42.23-90.28c2.37-2.88,4.85-5.7,7.41-8.47l10.46-10.46c2.19-2.05,4.42-4.05,6.72-6l1.89-1.57c.81-.69,1.65-1.38,2.48-2,1.27-1,2.58-2.05,3.89-3.06a200.52,200.52,0,0,1,220.9-14.91l47.22,47.2,8.39,8.39.25.27-.44.34L594.78,156h.14a6.14,6.14,0,0,1,4.76.48h0l2.67,2.49.62.6,5.79,5.8,3.72,3.7L634,190.7h0l8.65,8.63.62.62h0a329.94,329.94,0,0,1,19.46,39c9.84,23.23,16.33,45,18.77,61.14C683.08,309.73,683.12,317.26,681.58,321.95Z" fill="url(#linear-gradient)"/></g><g id="Layer_4" data-name="Layer 4"><path d="M473.67,469a13.89,13.89,0,0,1-1.5,2.69l-11.87,17a14.54,14.54,0,0,1-2.58,2.81,6.6,6.6,0,0,1,0,7.22l-1.95,2.78L439.38,517.9,280.37,677,3.5,400.13,298.06,105.57l.35.35L322,129.5l12.15,12.15a189.79,189.79,0,0,0-60.86,85.17,163.4,163.4,0,0,0-9.06,46.56A138.47,138.47,0,0,0,285.47,355a4.44,4.44,0,0,1,2.41,1.59l2,2.6a4.49,4.49,0,0,1,.87,3.4c.16.25.34.46.5.69l-1,.76h0a4.78,4.78,0,0,1-1.15,1.33l-2.65,2,9.13,11.92,3.54-5.11a6,6,0,0,1,8.23-1.29,14.7,14.7,0,0,1,1.63-3l11.87-17c5.06-7.22,15.3-8.26,22.88-2.3l123.84,97.3a19.2,19.2,0,0,1,7.2,12.53A16.54,16.54,0,0,1,473.67,469Z" fill="url(#linear-gradient-2)"/></g><g id="Layer_2" data-name="Layer 2"><path d="M551.62,177.41l-2.72,1c-8.3,3-12,12.61-8.21,21.48L602.2,344.93c3.77,8.85,13.53,13.62,21.83,10.61l1.77-.6C604,336.92,546.89,201.95,551.62,177.41Z" fill="#453017"/><path d="M651.73,327,590.22,182c-3.77-8.85-13.53-13.62-21.83-10.61l-16.77,6.05C546.88,201.93,604,336.9,625.71,354.91l17.8-6.42C651.89,345.51,655.43,335.89,651.73,327Z" fill="#4f3515"/><path d="M672,342.1l-.73.27-17.36,6.26a6.56,6.56,0,0,1-7-1.89,7.38,7.38,0,0,1-1.45-2.21L572,171.25a4.3,4.3,0,0,1-.23-.67,5.94,5.94,0,0,1,3.4-7.61l5.86-2.11,13.69-5h.14V156a13,13,0,0,0-.9,1.93c-12.19,31,35.19,164.16,77.72,184Z" fill="#baa37b"/><path d="M677.16,335.84a2.57,2.57,0,0,1,0,.64,5.86,5.86,0,0,1-.64,2.41h0a5.5,5.5,0,0,1-3,2.65l-1.47.53-.3-.16c-42.46-19.87-89.91-153-77.72-184a13,13,0,0,1,.9-1.93v-.12a6.14,6.14,0,0,1,4.76.48h0a7.27,7.27,0,0,1,2.8,2.55c.14.21.27.42.39.64l.21.48,3.13,7.34,3.13,7.22h0l61.55,145.07L674,327l2.64,6.17a7.08,7.08,0,0,1,.44,1.43A5.89,5.89,0,0,1,677.16,335.84Z" fill="#dbc191"/><path d="M315,361.19l-6.09,8.7a14.7,14.7,0,0,0-1.63,3,18.35,18.35,0,0,0,6.17,20.82l22.73,17.89h0l77.95,61.19L437.42,491c6.46,5.06,14.81,5.08,20.27.51a14.54,14.54,0,0,0,2.58-2.81L467.8,478C436.68,468,340.81,391.19,315,361.19Z" fill="#453017"/><path d="M473.67,469a16.54,16.54,0,0,0,1.15-8.63,19.2,19.2,0,0,0-7.2-12.53l-123.84-97.3c-7.57-6-17.82-4.92-22.88,2.3l-5.79,8.28C340.88,391.23,436.75,468,467.87,477.92l4.35-6.23A13.89,13.89,0,0,0,473.67,469Z" fill="#4f3515"/><path d="M287.54,390.72l-.35.51h0a6.78,6.78,0,0,0,.88,8.23h0a5.71,5.71,0,0,0,.88.85l6.25,4.92h0l6.25,4.9h0l124,97.3h0l6.21,4.88h0l5.31,4.14a6.85,6.85,0,0,0,2.3,1.2h0a5.77,5.77,0,0,0,6.4-2.14l.81-1.15C442.39,482.39,335.07,387.23,287.54,390.72Z" fill="#baa37b"/><path d="M457.71,491.52a7.34,7.34,0,0,0-1.77-2l-148-116.23a3.17,3.17,0,0,0-.58-.41,6,6,0,0,0-8.23,1.29l-3.54,5.11-8,11.39c47.54-3.54,154.85,91.64,159.08,123.84l9.16-13.09,1.95-2.78A6.6,6.6,0,0,0,457.71,491.52Z" fill="#dbc191"/><polygon points="298.89 383.71 287.8 392.19 287.13 391.32 275.33 375.87 275.1 375.59 272.8 372.58 283.89 364.11 286.19 367.12 286.4 367.4 295.53 379.32 298.89 383.71" fill="#b8a27a"/><path d="M377,439.58c41.79,32.8,70,67.49,63,77.49s-46.53-8.51-88.32-41.33-70-67.49-63-77.49S335.22,406.76,377,439.58Z" fill="#382100"/><path d="M373.59,444.46c38.16,30,63.69,61.92,57.11,71.39s-42.94-7.08-81.1-37.15-63.69-61.92-57.11-71.39S335.43,414.49,373.59,444.46Z" fill="#999"/><path d="M295.25,411.63a4,4,0,0,0-.53.6c-5.73,8.19,18.91,37.82,55.06,66.18,35.67,28,69.17,44.23,75.54,36.82-12.86-.76-41.61-16.54-72-40.35C321.06,449.75,297.64,423.75,295.25,411.63Z" fill="#242424"/><path d="M370.6,448.78c-35.17-27.62-68.25-43.84-75.28-37.15,2.39,12,25.9,38,58.08,63.26,30.38,23.81,59.14,39.59,72,40.35,0-.09.18-.18.25-.28C431.3,506.84,406.65,477.21,370.6,448.78Z" fill="#363636"/><polygon points="595.46 156.76 593.95 157.91 584.36 165.26 581 160.87 571.87 148.94 571.66 148.66 569.36 145.65 580.47 137.16 582.75 140.15 582.77 140.15 582.98 140.44 594.78 155.88 594.86 155.99 595.46 156.76" fill="#dbc191"/><path d="M681.58,321.95c0,7.18-1.45,12.08-4.42,13.89a.78.78,0,0,1-.28.18,3.93,3.93,0,0,1-.67.32c-7.55,2.72-21.42-12.07-36-36.43h0a374.86,374.86,0,0,1-22.31-44.6,366.22,366.22,0,0,1-16.38-46.63h0c-7.27-27.05-8-46.65-.41-49.38a4.44,4.44,0,0,1,1.19-.27h.23c3.54-.27,8,2.42,13.11,7.5h0c1.06,1.06,2.14,2.21,3.24,3.43h0A159.35,159.35,0,0,1,634,190.77h0a361.33,361.33,0,0,1,25.35,49.54c11.13,26.25,18.45,50.81,21.07,68.57.46,3,.78,5.89.94,8.49h0C681.53,319,681.58,320.53,681.58,321.95Z" fill="#382100"/><path d="M681.58,321.95a7.75,7.75,0,0,1-3.54,4.76l-.64.3a6.14,6.14,0,0,1-3.54.12c-12-2.65-33.35-33.61-50.49-73.9s-24.1-76.43-17.25-85.87a5.31,5.31,0,0,1,2.44-2h.19a8.23,8.23,0,0,1,6.74,1.15h0c7.48,4.09,17.48,16.33,27.67,33.61h0a329.94,329.94,0,0,1,19.46,39c9.84,23.23,16.33,45,18.77,61.14C683.08,309.73,683.12,317.26,681.58,321.95Z" fill="#999"/><path d="M628.5,251.41c17.94,42.3,40.11,73.83,49.54,70.43s2.48-40.43-15.44-82.73-40.11-73.83-49.54-70.43S610.58,209.13,628.5,251.41Z" fill="#363636"/><path d="M278.39,180.52a142.4,142.4,0,0,0-16.65,44.78A113.12,113.12,0,0,0,260,240.71c0,2-.12,4,0,6a8.23,8.23,0,0,0,0,.94v2a.88.88,0,0,0,0,.37v1.59a2.17,2.17,0,0,0,0,.35,5.75,5.75,0,0,0,.11,1.34c.11.44.11,1.38.18,2.05s.12,1.08.19,1.63q.32,2.69.8,5.31a6.92,6.92,0,0,0,.25,1.34c.09.44.28,1.38.44,2.05s.23,1.06.35,1.57c.5,2.09,1.08,4.14,1.77,6.17a163.4,163.4,0,0,1,9.23-46.56,110,110,0,0,1,20.75-35C286.26,191.88,280.94,187.58,278.39,180.52Z" fill="#c9b793"/><path d="M326.86,125.63c-1.65,1.26-3.27,2.55-4.87,3.87a182.84,182.84,0,0,0-43.61,51c2.55,7.08,7.87,11.36,15.66,11.34,13.09-15.44,29.85-29.19,47.2-43.13,1.27-1,2.55-2.05,3.86-3,44.23-33.84,90.39-53,137.18-44.12C441.47,77.88,378.52,86.1,326.86,125.63Z" fill="#c9b793"/><path d="M234.55,208c-1.13,4.41-2.14,8.85-3,13.3a5.42,5.42,0,0,1-.18.9c-.32,1.77-.6,3.41-.87,5.13-.76,4.74-1.33,9.54-1.77,14.35a199.75,199.75,0,0,0,34.52,130.07c1.65,2.41,3.34,4.74,5.13,7.08.28.41.58.8.88,1.19l1.5-1.15,4.26-3.27,2.37-1.77C241.45,326,225,266,234.55,208Z" fill="#dbc191"/><path d="M587.25,136.33q-3.34-4.39-6.9-8.51A200.25,200.25,0,0,0,306.68,99.25q-4.25,3.24-8.26,6.67c-2.3,2-4.53,4-6.72,6-3.64,3.36-7.08,6.86-10.46,10.46-2.57,2.78-5,5.59-7.41,8.47A199.49,199.49,0,0,0,234.55,208c-9.59,58,6.9,118,42.94,165.79l8.72-6.67,4-3h0l1-.76c-.16-.23-.34-.44-.5-.69q-2.8-3.72-5.31-7.59a138.47,138.47,0,0,1-21.23-81.61c-.65-2-1.24-4.09-1.77-6.17-.12-.51-.25-1-.35-1.57s-.3-1.36-.44-2.05-.16-.88-.25-1.34q-.48-2.62-.8-5.31a12.76,12.76,0,0,0-.19-1.63c-.07-.55-.14-1.36-.18-2.05a6.63,6.63,0,0,0-.11-1.34,2.17,2.17,0,0,1,0-.35V250a.88.88,0,0,1,0-.37v-2a8.23,8.23,0,0,1,0-.94v-6a113.12,113.12,0,0,1,1.77-15.41c6.05-33.61,27.05-68.73,60.26-95.8,1.59-1.33,3.22-2.62,4.87-3.87,51.66-39.54,114.61-47.77,155.4-24.06,29.76,5.61,56.9,19.67,77.45,41.93,2.58,2.76,5,5.66,7.36,8.67l4.58-3.54,11.09-8.51h0l.41-.32L587,137h0l.48-.37Z" fill="#dbc191"/><path d="M587.25,136.33a4.82,4.82,0,0,1-.28.62h0a4.25,4.25,0,0,1-1.15,1.31L583.44,140l-.44.34-11.11,8.51-3.54,2.72a4.42,4.42,0,0,1-6.2-.82h0l-2-2.58a4.41,4.41,0,0,1-.41-4.76A4.53,4.53,0,0,1,561,142l13.85-10.61,3.61-2.8a4.71,4.71,0,0,1,1.91-.83,4.41,4.41,0,0,1,4.3,1.66l2,2.71A4.35,4.35,0,0,1,587.25,136.33Z" fill="#382100"/><path d="M290.7,362.59a4.74,4.74,0,0,1-.51,1.45h0a4.78,4.78,0,0,1-1.15,1.33l-2.64,2-11.07,8.47L272.41,378a4.43,4.43,0,0,1-6.19-.83l-2-2.6a4.38,4.38,0,0,1,.87-6.19l16.59-12.7a4.39,4.39,0,0,1,3.8-.78,4.44,4.44,0,0,1,2.41,1.59l2,2.6A4.49,4.49,0,0,1,290.7,362.59Z" fill="#382100"/></g></g><g id="Layer_4-2" data-name="Layer 4"><g id="Layer_1" data-name="Layer 1"><rect x="170.46" y="1342.85" width="529.98" height="732.34" rx="35.32" ry="35.32" transform="translate(-902.4 559.87) rotate(-35.04)" fill="#e6e6e6"/><rect x="472.1" y="1480.69" width="183.08" height="276.84" rx="7.52" ry="7.52" transform="translate(-827.53 617.18) rotate(-35.04)" fill="#e6e6e6" stroke="#b3b3b3" stroke-miterlimit="10" stroke-width="0.5"/><rect x="243.71" y="1434.71" width="250.54" height="635.98" rx="7.52" ry="7.52" transform="translate(-939.52 529.62) rotate(-35.04)" fill="#e6e6e6" stroke="#b3b3b3" stroke-miterlimit="10" stroke-width="0.5"/></g><g id="Layer_2-2" data-name="Layer 2"><rect x="441.64" y="1584.09" width="38.54" height="255.35" rx="2.22" ry="2.22" transform="translate(-899.35 574.99) rotate(-35.04)" fill="#1a1a1a"/><rect x="548.62" y="1896.44" width="38.54" height="86.72" rx="2.22" ry="2.22" transform="translate(-1010.9 677.76) rotate(-35.04)" fill="#1a1a1a"/><rect x="244.29" y="1457.73" width="38.54" height="96.36" rx="2.22" ry="2.22" transform="translate(-816.92 424.35) rotate(-35.04)" fill="#1a1a1a"/><rect x="509.88" y="1865.31" width="38.54" height="38.54" rx="2.22" ry="2.22" transform="translate(-986.22 645.51) rotate(-35.04)" fill="#1a1a1a"/><rect x="484.98" y="1829.81" width="38.54" height="38.54" rx="2.22" ry="2.22" transform="translate(-970.34 624.77) rotate(-35.04)" fill="#1a1a1a"/><rect x="460.09" y="1794.31" width="38.54" height="38.54" rx="2.22" ry="2.22" transform="translate(-954.47 604.04) rotate(-35.04)" fill="#1a1a1a"/><rect x="435.19" y="1758.81" width="38.54" height="38.54" rx="2.22" ry="2.22" transform="translate(-938.6 583.31) rotate(-35.04)" fill="#1a1a1a"/><rect x="410.29" y="1723.31" width="38.54" height="38.54" rx="2.22" ry="2.22" transform="translate(-922.73 562.57) rotate(-35.04)" fill="#1a1a1a"/><rect x="385.39" y="1687.81" width="38.54" height="38.54" rx="2.22" ry="2.22" transform="translate(-906.86 541.84) rotate(-35.04)" fill="#1a1a1a"/><rect x="360.49" y="1652.3" width="38.54" height="38.54" rx="2.22" ry="2.22" transform="translate(-890.99 521.11) rotate(-35.04)" fill="#1a1a1a"/><rect x="335.59" y="1616.8" width="38.54" height="38.54" rx="2.22" ry="2.22" transform="translate(-875.12 500.37) rotate(-35.04)" fill="#1a1a1a"/><rect x="310.69" y="1581.3" width="38.54" height="38.54" rx="2.22" ry="2.22" transform="translate(-859.25 479.64) rotate(-35.04)" fill="#1a1a1a"/><rect x="285.79" y="1545.8" width="38.54" height="38.54" rx="2.22" ry="2.22" transform="translate(-843.38 458.91) rotate(-35.04)" fill="#1a1a1a"/><rect x="520.03" y="1943.25" width="38.54" height="62.63" rx="2.22" ry="2.22" transform="translate(-1036.05 667.65) rotate(-35.04)" fill="#1a1a1a"/><rect x="203.26" y="1484.37" width="38.54" height="77.09" rx="2.22" ry="2.22" transform="translate(-834.13 403.87) rotate(-35.04)" fill="#1a1a1a"/><rect x="488.22" y="1909.93" width="38.54" height="38.54" rx="2.22" ry="2.22" transform="translate(-1015.77 641.15) rotate(-35.04)" fill="#1a1a1a"/><rect x="463.32" y="1874.43" width="38.54" height="38.54" rx="2.22" ry="2.22" transform="translate(-999.89 620.42) rotate(-35.04)" fill="#1a1a1a"/><rect x="438.42" y="1838.93" width="38.54" height="38.54" rx="2.22" ry="2.22" transform="translate(-984.02 599.69) rotate(-35.04)" fill="#1a1a1a"/><rect x="413.52" y="1803.43" width="38.54" height="38.54" rx="2.22" ry="2.22" transform="translate(-968.15 578.95) rotate(-35.04)" fill="#1a1a1a"/><rect x="388.62" y="1767.93" width="38.54" height="38.54" rx="2.22" ry="2.22" transform="translate(-952.28 558.22) rotate(-35.04)" fill="#1a1a1a"/><rect x="363.72" y="1732.43" width="38.54" height="38.54" rx="2.22" ry="2.22" transform="translate(-936.41 537.49) rotate(-35.04)" fill="#1a1a1a"/><rect x="338.82" y="1696.93" width="38.54" height="38.54" rx="2.22" ry="2.22" transform="translate(-920.54 516.75) rotate(-35.04)" fill="#1a1a1a"/><rect x="313.92" y="1661.43" width="38.54" height="38.54" rx="2.22" ry="2.22" transform="translate(-904.67 496.02) rotate(-35.04)" fill="#1a1a1a"/><rect x="289.02" y="1625.92" width="38.54" height="38.54" rx="2.22" ry="2.22" transform="translate(-888.8 475.29) rotate(-35.04)" fill="#1a1a1a"/><rect x="264.12" y="1590.42" width="38.54" height="38.54" rx="2.22" ry="2.22" transform="translate(-872.93 454.55) rotate(-35.04)" fill="#1a1a1a"/><rect x="239.23" y="1554.92" width="38.54" height="38.54" rx="2.22" ry="2.22" transform="translate(-857.06 433.82) rotate(-35.04)" fill="#1a1a1a"/><rect x="485.91" y="1972.53" width="38.54" height="57.82" rx="2.22" ry="2.22" transform="translate(-1057.66 652.93) rotate(-35.04)" fill="#1a1a1a"/><rect x="126.73" y="1535.92" width="38.54" height="57.82" rx="2.22" ry="2.22" transform="translate(-872.07 367.52) rotate(-35.04)" fill="#1a1a1a"/><rect x="455.48" y="1938.78" width="38.54" height="38.54" rx="2.22" ry="2.22" transform="translate(-1038.26 627.59) rotate(-35.04)" fill="#1a1a1a"/><rect x="430.58" y="1903.27" width="38.54" height="38.54" rx="2.22" ry="2.22" transform="translate(-1022.39 606.85) rotate(-35.04)" fill="#1a1a1a"/><rect x="405.68" y="1867.77" width="38.54" height="38.54" rx="2.22" ry="2.22" transform="translate(-1006.52 586.12) rotate(-35.04)" fill="#1a1a1a"/><rect x="380.78" y="1832.27" width="38.54" height="38.54" rx="2.22" ry="2.22" transform="matrix(0.82, -0.57, 0.57, 0.82, -990.65, 565.39)" fill="#1a1a1a"/><rect x="355.88" y="1796.77" width="38.54" height="38.54" rx="2.22" ry="2.22" transform="translate(-974.78 544.65) rotate(-35.04)" fill="#1a1a1a"/><rect x="330.99" y="1761.27" width="38.54" height="38.54" rx="2.22" ry="2.22" transform="translate(-958.91 523.92) rotate(-35.04)" fill="#1a1a1a"/><rect x="306.09" y="1725.77" width="38.54" height="38.54" rx="2.22" ry="2.22" transform="translate(-943.04 503.19) rotate(-35.04)" fill="#1a1a1a"/><rect x="281.19" y="1690.27" width="38.54" height="38.54" rx="2.22" ry="2.22" transform="translate(-927.17 482.45) rotate(-35.04)" fill="#1a1a1a"/><rect x="256.29" y="1654.77" width="38.54" height="38.54" rx="2.22" ry="2.22" transform="translate(-911.29 461.72) rotate(-35.04)" fill="#1a1a1a"/><rect x="231.39" y="1619.27" width="38.54" height="38.54" rx="2.22" ry="2.22" transform="matrix(0.82, -0.57, 0.57, 0.82, -895.42, 440.99)" fill="#1a1a1a"/><rect x="206.49" y="1583.77" width="38.54" height="38.54" rx="2.22" ry="2.22" transform="translate(-879.55 420.25) rotate(-35.04)" fill="#1a1a1a"/><rect x="181.59" y="1548.27" width="38.54" height="38.54" rx="2.22" ry="2.22" transform="translate(-863.68 399.52) rotate(-35.04)" fill="#1a1a1a"/><rect x="156.69" y="1512.76" width="38.54" height="38.54" rx="2.22" ry="2.22" transform="translate(-847.81 378.79) rotate(-35.04)" fill="#1a1a1a"/><rect x="455.95" y="2014.95" width="38.54" height="38.54" rx="2.22" ry="2.22" transform="translate(-1081.92 641.66) rotate(-35.04)" fill="#1a1a1a"/><rect x="431.05" y="1979.45" width="38.54" height="38.54" rx="2.22" ry="2.22" transform="translate(-1066.05 620.93) rotate(-35.04)" fill="#1a1a1a"/><rect x="406.15" y="1943.95" width="38.54" height="38.54" rx="2.22" ry="2.22" transform="translate(-1050.18 600.2) rotate(-35.04)" fill="#1a1a1a"/><rect x="381.25" y="1908.45" width="38.54" height="38.54" rx="2.22" ry="2.22" transform="translate(-1034.31 579.46) rotate(-35.04)" fill="#1a1a1a"/><rect x="356.35" y="1872.95" width="38.54" height="38.54" rx="2.22" ry="2.22" transform="translate(-1018.44 558.73) rotate(-35.04)" fill="#1a1a1a"/><rect x="331.45" y="1837.45" width="38.54" height="38.54" rx="2.22" ry="2.22" transform="translate(-1002.57 538) rotate(-35.04)" fill="#1a1a1a"/><rect x="306.55" y="1801.95" width="38.54" height="38.54" rx="2.22" ry="2.22" transform="translate(-986.69 517.26) rotate(-35.04)" fill="#1a1a1a"/><rect x="281.65" y="1766.45" width="38.54" height="38.54" rx="2.22" ry="2.22" transform="translate(-970.82 496.53) rotate(-35.04)" fill="#1a1a1a"/><rect x="256.75" y="1730.95" width="38.54" height="38.54" rx="2.22" ry="2.22" transform="translate(-954.95 475.8) rotate(-35.04)" fill="#1a1a1a"/><rect x="231.85" y="1695.45" width="38.54" height="38.54" rx="2.22" ry="2.22" transform="translate(-939.08 455.06) rotate(-35.04)" fill="#1a1a1a"/><rect x="206.96" y="1659.94" width="38.54" height="38.54" rx="2.22" ry="2.22" transform="translate(-923.21 434.33) rotate(-35.04)" fill="#1a1a1a"/><rect x="182.06" y="1624.44" width="38.54" height="38.54" rx="2.22" ry="2.22" transform="translate(-907.34 413.6) rotate(-35.04)" fill="#1a1a1a"/><rect x="157.16" y="1588.94" width="38.54" height="38.54" rx="2.22" ry="2.22" transform="translate(-891.47 392.86) rotate(-35.04)" fill="#1a1a1a"/><rect x="353.11" y="1563.86" width="38.54" height="43.36" rx="2.22" ry="2.22" transform="translate(-842.92 501.27) rotate(-35.04)" fill="#1a1a1a"/><rect x="530.17" y="1816.31" width="38.54" height="43.36" rx="2.22" ry="2.22" transform="translate(-955.78 648.71) rotate(-35.04)" fill="#1a1a1a"/><rect x="328.21" y="1533.17" width="38.54" height="33.73" rx="2.22" ry="2.22" transform="translate(-827.05 480.54) rotate(-35.04)" fill="#1a1a1a"/><rect x="555.07" y="1856.63" width="38.54" height="33.73" rx="2.22" ry="2.22" transform="translate(-971.65 669.44) rotate(-35.04)" fill="#1a1a1a"/><rect x="577.2" y="1888.18" width="38.54" height="33.73" rx="2.22" ry="2.22" transform="translate(-985.76 687.87) rotate(-35.04)" fill="#1a1a1a"/><rect x="599.33" y="1919.74" width="38.54" height="33.73" rx="2.22" ry="2.22" transform="translate(-999.87 706.3) rotate(-35.04)" fill="#1a1a1a"/><rect x="283.94" y="1470.06" width="38.54" height="33.73" rx="2.22" ry="2.22" transform="translate(-798.84 443.68) rotate(-35.04)" fill="#1a1a1a"/><rect x="323.6" y="1496.08" width="19.27" height="33.73" rx="2.22" ry="2.22" transform="translate(-808.34 465.63) rotate(-35.04)" fill="#1a1a1a"/><rect x="437.61" y="2033.18" width="19.27" height="39.8" rx="2.22" ry="2.22" transform="translate(-1097.82 629.02) rotate(-35.04)" fill="#1a1a1a"/><rect x="411.91" y="1996.54" width="19.27" height="39.8" rx="2.22" ry="2.22" transform="translate(-1081.43 607.62) rotate(-35.04)" fill="#1a1a1a"/><rect x="386.21" y="1959.89" width="19.27" height="39.8" rx="2.22" ry="2.22" transform="translate(-1065.05 586.22) rotate(-35.04)" fill="#1a1a1a"/><rect x="360.53" y="1923.28" width="19.27" height="39.8" rx="2.22" ry="2.22" transform="translate(-1048.69 564.84) rotate(-35.04)" fill="#1a1a1a"/><rect x="334.83" y="1886.64" width="19.27" height="39.8" rx="2.22" ry="2.22" transform="translate(-1032.31 543.44) rotate(-35.04)" fill="#1a1a1a"/><rect x="309.13" y="1850" width="19.27" height="39.8" rx="2.22" ry="2.22" transform="translate(-1015.92 522.04) rotate(-35.04)" fill="#1a1a1a"/><rect x="283.43" y="1813.35" width="19.27" height="39.8" rx="2.22" ry="2.22" transform="translate(-999.54 500.64) rotate(-35.04)" fill="#1a1a1a"/><rect x="257.73" y="1776.71" width="19.27" height="39.8" rx="2.22" ry="2.22" transform="translate(-983.16 479.23) rotate(-35.04)" fill="#1a1a1a"/><rect x="232.05" y="1740.1" width="19.27" height="39.8" rx="2.22" ry="2.22" transform="translate(-966.79 457.86) rotate(-35.04)" fill="#1a1a1a"/><rect x="206.35" y="1703.46" width="19.27" height="39.8" rx="2.22" ry="2.22" transform="translate(-950.41 436.45) rotate(-35.04)" fill="#1a1a1a"/><rect x="180.65" y="1666.81" width="19.27" height="39.8" rx="2.22" ry="2.22" transform="translate(-934.03 415.05) rotate(-35.04)" fill="#1a1a1a"/><rect x="154.95" y="1630.17" width="19.27" height="39.8" rx="2.22" ry="2.22" transform="translate(-917.65 393.65) rotate(-35.04)" fill="#1a1a1a"/><rect x="129.25" y="1593.52" width="19.27" height="39.8" rx="2.22" ry="2.22" transform="translate(-901.26 372.25) rotate(-35.04)" fill="#1a1a1a"/><rect x="103.58" y="1556.92" width="19.27" height="39.8" rx="2.22" ry="2.22" transform="translate(-884.9 350.87) rotate(-35.04)" fill="#1a1a1a"/><rect x="279.34" y="1432.97" width="19.27" height="33.73" rx="2.22" ry="2.22" transform="translate(-780.12 428.78) rotate(-35.04)" fill="#1a1a1a"/><line x1="312.9" y1="1500.73" x2="293.53" y2="1473.12" fill="none" stroke="#e6e6e6" stroke-miterlimit="10" stroke-width="0.25"/></g></g><g id="Layer_5" data-name="Layer 5"><g id="Layer_5-2" data-name="Layer 5"><path d="M900.73,967.89,625.62,1243,360.11,977.49l-3.3-3.3L200,817.38,318.63,698.75l20.35-3.5-2.48-14.4,5.15-5.15a1.24,1.24,0,0,1,0,.3l3.13,18.22,5.88-1-3-18.22a3,3,0,0,1,2.41-3.45h.52a3,3,0,0,1,2.93,2.52l3.13,18.22,25-4.34-3.15-18.22a3,3,0,0,1,2.45-3.45h.5a3,3,0,0,1,2.93,2.48L387.53,687l5.88-1-3.15-18.41a3,3,0,0,1,2.41-3.45h.54a3,3,0,0,1,2.93,2.48l3.13,18.35,25-4.34-3.13-18.22a3,3,0,0,1,2.38-3.47l.14,0h.52a3,3,0,0,1,2.93,2.48l3.06,18.2L436,678.4l-3.13-18.22a3,3,0,0,1,2.41-3.45h.5a3,3,0,0,1,3,2.56L442,677.51l25-4.34-3.15-18.22a3,3,0,0,1,2.43-3.45h.5a3,3,0,0,1,3,2.48l3.15,18.24,5.86-1L475.63,653A3,3,0,0,1,478,649.5h.52a3,3,0,0,1,2.93,2.48l3.06,18.18,25-4.34-3.13-18.22a3,3,0,0,1,2.41-3.45h.54a3,3,0,0,1,2.93,2.48l3.13,18.22,5.88-1-3.15-18.24a3,3,0,0,1,2.43-3.43H521a3,3,0,0,1,2.93,2.48l3.15,18.22,25-4.34L549,640.29a3,3,0,0,1,2.41-3.45h.5a3,3,0,0,1,3.06,2.48l3.13,18.22,5.88-1-3.13-18.22a3,3,0,0,1,2.41-3.45h.54a3,3,0,0,1,2.93,2.3l3.13,18.22,25-4.34L591.7,632.8a3,3,0,0,1,2.41-3.45h.52a3,3,0,0,1,2.93,2.48l3.15,18.35,5.88-1-3.15-18.24a3,3,0,0,1,2.43-3.43h.52a3,3,0,0,1,2.93,2.48l3.13,18,22.63-3.89,2.32,2.32.63.63,1.69,1.69,5.62,5.75,6,6L751.57,760.66h0L888.66,897.73Z" fill="url(#linear-gradient-3)"/></g><g id="Layer_1-2" data-name="Layer 1"><polygon points="901.64 973.12 894.22 974.4 436 1053.38 372.36 1064.35 356.81 974.19 311.38 710.61 314.05 710.15 316.68 709.69 319.33 709.24 340.78 705.54 346.67 704.52 352.55 703.5 358.44 702.5 358.44 702.48 383.43 698.18 389.31 697.16 395.2 696.16 401.06 695.14 426.06 690.84 431.94 689.82 437.83 688.8 443.69 687.8 443.71 687.8 468.68 683.48 468.71 683.48 474.59 682.48 480.45 681.46 486.34 680.44 511.33 676.14 517.22 675.12 523.1 674.12 528.97 673.1 528.99 673.1 553.96 668.8 553.98 668.78 559.85 667.78 565.73 666.76 571.62 665.74 596.61 661.44 602.49 660.42 608.38 659.42 614.24 658.4 639.24 654.1 644.12 653.25 645.12 653.08 651.01 652.06 656.87 651.06 656.89 651.06 681.86 646.74 681.88 646.74 687.77 645.74 693.63 644.72 699.52 643.7 724.51 639.4 730.4 638.38 736.28 637.38 742.15 636.36 742.17 636.36 767.14 632.06 767.16 632.04 773.02 631.04 778.91 630.02 784.79 629 830.09 621.2 832.72 620.75 835.37 620.29 840.67 619.38 888.66 897.79 900.73 967.89 901.64 973.12" fill="#99713d"/><rect x="339.93" y="658.07" width="523.67" height="359.85" transform="translate(-133.6 114.4) rotate(-9.78)" fill="#a39c83"/><rect x="344.77" y="654.52" width="523.67" height="359.85" transform="translate(-132.93 115.17) rotate(-9.78)" fill="#d4caaa"/><polygon points="892.07 965.07 889.44 965.52 427.73 1045.11 378.67 1053.58 376.02 1054.03 363.41 980.79 316.68 709.69 315.81 704.7 315.35 702.03 314.9 699.4 318.63 698.75 339 695.25 344.88 694.23 350.77 693.21 356.65 692.19 381.65 687.89 387.53 686.87 393.42 685.87 399.28 684.85 424.28 680.55 430.16 679.53 436.05 678.51 441.93 677.51 466.93 673.19 472.81 672.19 478.67 671.17 484.56 670.15 509.55 665.85 515.44 664.83 521.32 663.83 527.21 662.81 552.2 658.49 558.06 657.49 563.95 656.47 569.83 655.45 594.83 651.15 600.71 650.13 606.6 649.13 612.46 648.11 635.09 644.22 637.46 643.81 643.34 642.79 649.23 641.77 655.11 640.77 680.11 636.45 685.99 635.45 691.85 634.43 697.74 633.41 722.73 629.11 728.62 628.09 734.5 627.07 740.39 626.07 765.38 621.75 771.24 620.75 777.13 619.73 783.01 618.71 830.94 610.45 831.4 613.1 832.72 620.75 878.76 887.89 892.07 965.07" fill="#fffae8"/></g><g id="Layer_2-3" data-name="Layer 2"><polygon points="876.54 922.94 841.75 972.04 841.71 972.1 831.63 934.47 836.3 933.03 851.85 928.28 876.54 922.94" fill="#aba489"/><polygon points="885.49 921 842.1 974.53 841.75 972.04 836.3 933.03 836.11 931.69 851.85 928.28 876.54 922.94 885.49 921" fill="#d9d0ae"/><path d="M460.32,804.35c-2.32-15.66-14.7-28.45-28.38-35.22-3.84-1.91-7.9-3.54-11.88-5.21a26.67,26.67,0,0,1-5.47-2.17c-3.58-2.69-2.93,0-1.3-4.34,1.19-3.21,19.07-16.74,19.26-16.22a1.52,1.52,0,0,0,3-.39v-1.3a1.72,1.72,0,0,0-.87-1.5c-8.27-4.08-18.87,8-23.76,13-7.19,7.6-6.84,12.62,3,16.79,19.07,8.08,40.59,18.33,40.46,42.56,0,11.86-4.67,24.43-16.57,28.82-10.86,4-20.72.91-31.49-1a1.94,1.94,0,0,0-1,3.74c14,4.86,29.9,9.27,43.08-1.15C458.56,832.8,462.17,816.79,460.32,804.35Z" fill="#383838"/><path d="M501,820.9c-5.91,3.54-15.35,10.14-19.54.93-2.39-5.17-1.82-12.38-1.17-17.85v-.26a23.13,23.13,0,0,0,10.53-7.95c2.35-3.76,4.73-8.69,1.32-12.75-2.74-3.24-6.51-2.3-9.6.28-4.21,3.6-6.51,9.38-7.73,15.7a5.58,5.58,0,0,1-.87-1.61c-.54-1.54-3.06-1.41-3,.41.13,3.58,1.39,5.49,3.24,6.25a55.42,55.42,0,0,0,1.89,19.22c4.54,14.9,18.78,7.17,26.82,0C504.32,822.18,502.56,820,501,820.9Zm-12.59-33.33c.91.48-2.45,6.21-2.78,6.69a22.28,22.28,0,0,1-4.34,4.34C482.41,793.06,484.75,785.57,488.45,787.56Z" fill="#383838"/><path d="M530.51,820.51c-1.39-9.49-3.24-19-4.93-28.47-4-22.13-6.32-44.65-11-66.62-.35-1.65-2.87-1.06-2.78.37h0c-1.19,9.53.91,20,2.17,29.49,1.3,9.86,3,19.74,4.76,29.53,1.54,8.69,2.41,17.37,4.17,26.06,1.56,7.62,4.34,16.63,4.15,24.49a1.93,1.93,0,0,0,3.28,1.35C533.87,833.23,531.09,824.48,530.51,820.51Z" fill="#383838"/><path d="M578.72,810.65c-6.51,5.45-19.35,10.29-24.76.39a28.75,28.75,0,0,1-2.48-16.57,28.06,28.06,0,0,0,8.3-3.93c5-3.47,11.44-9.45,10.64-16.26a8.86,8.86,0,0,0-10.25-7.2l-.19,0c-7.21,1.39-11.14,11.29-13,17.37-.39,1.32-.74,2.65-1,4-1.76.15-3.08.15-2.87-.22a1.32,1.32,0,0,0-1.8-1.8c-2.93,2-2.8,4.06-.46,6.38a8,8,0,0,0,4.06,2.17,36.92,36.92,0,0,0,2,16.33c6.51,17.59,25.15,14,34.74,1.67C583,811.1,580.19,809.43,578.72,810.65ZM556,779.31c1-1.32,4.52-5.36,6.69-5.36,4,2,2.17,4.34,0,6.51a37.28,37.28,0,0,1-9.51,6.86h-.26A33.64,33.64,0,0,1,556,779.31Z" fill="#383838"/><path d="M620.73,789.78c-1.15,5.78-2.28,14.55-7.23,18.46-9.53,7.54-20.26-5.65-21.54-13.68a32.57,32.57,0,0,1,4.34-21.85c1.35-2.17,4.34-7.67,7.12-7.38h.5c2.76.28,2.8-4.17,0-4.34-8.08-.56-13.81,8.69-16.13,15.4-3.47,10-4.34,22.91,3,31.47,5.45,6.36,15.46,11.66,23.63,7.6,8.84-4.34,9.73-16.68,9.71-25.28C624.06,788.39,621.13,787.87,620.73,789.78Z" fill="#383838"/><path d="M657.8,751.71c-2.17,1.19-5.41,1.32-7.82,2.3l-2.71,1.13c-.43-6.86-.85-13.81-1.76-20.59A141.56,141.56,0,0,0,643,720c-.78-3.19,0-4.69-3-10.66-.59-1.13-1.8-1.78-2.41-.65-2.93,5.52-.2,13.75.63,19.54,1.19,8.27,1.82,16.53,2.43,24.84.11,1.56.24,3.13.37,4.67l-1.48.54a31.05,31.05,0,0,1-10.21,1.78c-2.32,0-3.84-.59-5.88.54a2.41,2.41,0,0,0-1.19,2.17c0,1.45.43,1.93,1.65,2.71a1.32,1.32,0,0,0,1.24,0,3.41,3.41,0,0,0,1.52.33l1.87.28a24.52,24.52,0,0,0,5.3,0,33.42,33.42,0,0,0,7.73-1.76c1.22,14.83,2.61,29.6,4.06,44.41a1.82,1.82,0,0,0,3.54.48c2.93-7.75.91-17.59.26-25.71-.59-7.19-1.11-14.31-1.61-21.5,4.58-1.67,11.05-4,12.79-8.16C661.19,752.23,659.08,751,657.8,751.71Z" fill="#383838"/><path d="M716.63,780.81c-5.43,4.93-9.92,11-16.66,14.38-11.25,5.67-20.28-1.26-21.3-13.16a33.77,33.77,0,0,1,0-4c5.58-3.54,10.53-8.38,12-11.53,5.21-11-9.75-15.44-14.92-5.62a35.59,35.59,0,0,0-3.56,12.49c-4.1,1.54-7.86,3-8.3,5.32a1.37,1.37,0,0,0-2.17-1.3L661,778a1.69,1.69,0,0,0,0,2.37c2.58,2.74,6.73,2.58,11.14,1,.63,8.16,3.69,16,9.92,19.93,15.4,9.84,28.73-7.36,37.29-17.87a1.9,1.9,0,0,0-2.76-2.61Zm-34.55-17.72c3.87-1.32,4.34-2.17,2.17,2.17-2.17,2.17-2.82,3.71-4.8,4.89C679.63,768.61,681.67,764.59,682.08,763.09Z" fill="#383838"/><path d="M752.11,764.35c-.8-6.64-1.45-13.31-1.82-19.89-.46-8.12-1.19-16.22-1.65-24.34-.43-7.51-2.41-17.16-.56-24.49.39-1.54-1.91-2.65-2.65-1.11-6.71,13.66-1.76,33.9-1.13,48.53q.13,3.17.35,6.41c-.39-.46-.76-.93-1.17-1.37-8.1-8.51-15.85-6.64-21.22,2.8-5.69,10-2.32,26.93,4,36.18,5.71,8.32,16.55,14.81,24.78,6.51a1.48,1.48,0,0,0,.43-1.41,2.71,2.71,0,0,0,4.34-2.06A103.28,103.28,0,0,0,752.11,764.35Zm-2.61,26.51c-9,1.61-16.66-1.63-20.67-10.38-2.93-6.41-6-21.26-2.32-27.12,8.16-13,16.33.39,19.26,8.86a235,235,0,0,0,4.84,28.58,2.33,2.33,0,0,0,.15.35A1.74,1.74,0,0,0,749.51,790.86Z" fill="#383838"/><path d="M580.43,870.15c1.11-2.17-1.91-5.08-3.74-2.89-8.69,10.53-12.36,24.47-15.46,37.59a138.28,138.28,0,0,0-3.63,45.82,11.9,11.9,0,0,0,.33,2.17c-1.54-3-3.45-6-4.6-8.36a286,286,0,0,1-17.22-45.25,3,3,0,0,0-5.8.78,304.71,304.71,0,0,1-6.67,42.11c-1.54,6.91-3.56,14.09-5.08,21.24-5.45-14.61-11-29-17.85-43.24a269.27,269.27,0,0,0-15.2-27.43c-3.65-5.78-8.21-14.09-14.18-17.63a1.78,1.78,0,0,0-2.58,2c.72,2.17-1.32,1.74.52,3.3.35.28,1.8,2.17,2.17,2.17,4.71,5.41,7.67,11.68,10.86,17.37,4.91,8.69,8.84,16.92,13,26.06,7.32,16,15.42,32.88,21.54,49.23a2.89,2.89,0,0,0,5.67-.76c1.22-12,5.54-24.6,8.27-36.37a218.26,218.26,0,0,0,4-23.52c3,8.53,6.28,16.87,10,25.32,3.47,7.82,6.84,20.41,13.81,26.06a2.93,2.93,0,0,0,3.45.46c3-2.17,2.54-5.62,2.28-9.06a194.55,194.55,0,0,1-1.28-23A158.72,158.72,0,0,1,580.43,870.15Z" fill="#383838"/><path d="M616.17,907.52c-2.41-4.1-7.6-9.08-12.62-9.64s-6.41,3.45-8.69,7.19c-.91,1.54,1.3,3.37,2.54,2,2.58-3,2.69-5.28,8.12-2.63a15.48,15.48,0,0,1,7.54,10.23,19.26,19.26,0,0,1-6.91,19c-8.84,7.23-14.64-3-16.87-10.4a33.83,33.83,0,0,1-1.32-9.9c0,.22,1.45-9.77,2.3-9.21s2-.65,1.63-1.63l-.52-1.22a1.56,1.56,0,0,0-1.78-.72c-8.93,3.3-6.08,21.26-3.54,27.86,3.69,9.58,12,17.61,22.26,10.23C617.93,931.82,622.39,918.05,616.17,907.52Z" fill="#383838"/><path d="M645.36,893c-5.65,7.56-7.23,17-8.69,26.34-.8-3.08-1.8-6.12-2.48-9.23-1-4.47-2-9-5.19-12.4-1.13-1.19-3.54,0-2.89,1.67l.52,1.32.11.13c2.32,5.32,3,11.57,4.34,17.11,1.28,4.91,1,10.62,3.6,15a2.54,2.54,0,0,0,4.6-.61c1.74-6.82,1.91-13.94,4-20.72.59-1.91,7.69-19.78,10.51-14,.54,1.11,4.15,1.26,4.34,0C659.41,890.08,649.79,887.11,645.36,893Z" fill="#383838"/><path d="M710.31,916.05c-5.69-8.84-15.55-12.4-22.28-19.78a2.84,2.84,0,0,0-1.15-.72,130.55,130.55,0,0,1,7.34-11.7c3.06-4.67,5-10.27,8.12-14.77h0c.89-1.59-.93-4.08-2.71-2.76-4.34,3.26-7.1,10.18-10.16,14.72a105.86,105.86,0,0,0-9.06,14.4c-.41-1.87-.76-3.63-1-5.21-2.48-14.57-4.67-29.49-10.47-43.21-.59-1.39-3-.67-2.82.76,1.09,13.29,5.21,26.36,7.08,39.63,1.78,12.49,5.78,26.43,5.73,39.09,0,1.63,2.45,2.48,3.21.87,3.13-6.51,1.54-16.55-.33-25.54h.48a8.69,8.69,0,0,0,2.65,0,96.88,96.88,0,0,0,8.19,6c4.76,3.74,8.84,8.21,14,11.4a2.43,2.43,0,0,0,3.21-3.19Z" fill="#383838"/><path d="M740.58,901.94c-3.45-5-12.9-5.65-15.46-10-3.74-6.34,7.6-15.68,11.44-20.63a1.82,1.82,0,0,0-2.17-2.84c-6.71,3.67-18.59,14.07-16.89,23.06.74,3.87,3.74,5.6,6.88,7.54,6.82,4.17,17.89,5.12,7.56,18.87-1.72,2.28-5.15,4.08-7.23,6.12a1.91,1.91,0,0,0,2.32,3C736.52,922.2,749,914.27,740.58,901.94Z" fill="#383838"/></g><g id="Layer_3-3" data-name="Layer 3"><rect x="341.2" y="701.89" width="17.89" height="10.45" transform="translate(-115.03 69.75) rotate(-9.78)" fill="#616161"/><path d="M345.19,713.15h0a3,3,0,0,1-3.45-2.17h0l-.91-5.3-.35-2.17-.52-2.93-.5-2.63-.48-2.69-2.48-14.4-.65-3.84a3,3,0,0,1,2.43-3.43h.52a3,3,0,0,1,2.84,2.17,1.24,1.24,0,0,1,0,.3l3.13,18.22.46,2.65.46,2.65.52,2.93.35,2.17,1.11,5.15A3,3,0,0,1,345.19,713.15Z" fill="#616161"/><path d="M356.92,711.23a3,3,0,0,1-3.45-2.41v0l-.91-5.3-.35-2-.52-3-.46-2.74-.46-2.65L347.66,675a3,3,0,0,1,2.41-3.45h.52a3,3,0,0,1,2.93,2.52l3.13,18.22.46,2.67.46,2.65.52,2.93.35,2h0l.91,5.3h0A3,3,0,0,1,356.92,711.23Z" fill="#616161"/><rect x="383.83" y="694.54" width="17.89" height="10.45" transform="translate(-113.16 76.89) rotate(-9.78)" fill="#616161"/><path d="M387.79,705.91a3,3,0,0,1-3.45-2.41v0l-.91-5.3-.35-2-.52-3-.46-2.65-.46-2.65-3.15-18.18a3,3,0,0,1,2.45-3.45h.5a3,3,0,0,1,2.93,2.48L387.53,687l.46,2.65.46,2.67.48,2.84.35,2,.91,5.32A3,3,0,0,1,387.79,705.91Z" fill="#616161"/><path d="M399.54,703.89a3,3,0,0,1-3.42-2.39v0l-.91-5.3-.35-2-.52-3-.46-2.65-.46-2.65-3.15-18.33a3,3,0,0,1,2.41-3.45h.54a3,3,0,0,1,2.93,2.48l3.13,18.35.5,2.58.46,2.65.52,3,.35,2,.91,5.3a3,3,0,0,1-2.42,3.44Z" fill="#616161"/><rect x="426.48" y="687.2" width="17.89" height="10.45" transform="translate(-111.29 84.03) rotate(-9.78)" fill="#616161"/><path d="M430.47,698.55h0a3,3,0,0,1-3.34-2.32h0l-.91-5.3-.35-2.17-.52-2.93-.46-2.65-.61-2.61-3.13-18.22a3,3,0,0,1,2.38-3.47l.14,0h.52a3,3,0,0,1,2.93,2.48l3.06,18.2.46,2.65.46,2.65.52,2.93.35,2.17.91,5.3A3,3,0,0,1,430.47,698.55Z" fill="#616161"/><path d="M442.19,696.53a3,3,0,0,1-3.45-2.41v0l-.91-5.3-.35-2-.52-3-.46-2.65L436,678.4l-3.13-18.22a3,3,0,0,1,2.41-3.45h.5a3,3,0,0,1,3,2.56L442,677.51l.46,2.65.46,2.65.5,2.93.37,2.06.91,5.3h0a3,3,0,0,1-2.41,3.41Z" fill="#616161"/><rect x="469.1" y="679.83" width="17.89" height="10.45" transform="translate(-109.42 91.16) rotate(-9.78)" fill="#616161"/><path d="M473,691.21a3,3,0,0,1-3.43-2.43l-.91-5.3-.35-2-.52-3-.46-2.65-.46-2.65-3.15-18.22a3,3,0,0,1,2.43-3.45h.5a3,3,0,0,1,3,2.48l3.15,18.24.46,2.65.46,2.65.52,2.93.35,2.17.91,5.3A3,3,0,0,1,473,691.21Z" fill="#616161"/><path d="M484.82,689.26a3,3,0,0,1-3.45-2.41v0l-.91-5.3-.35-2-.52-3-.46-2.65-.46-2.65L475.55,653a3,3,0,0,1,2.33-3.5h.6a3,3,0,0,1,2.93,2.48l3.06,18.18.46,2.65.46,2.65.61,3,.35,2,.91,5.3a3,3,0,0,1-2.33,3.5Z" fill="#616161"/><rect x="511.75" y="672.5" width="17.89" height="10.45" transform="translate(-107.55 98.3) rotate(-9.78)" fill="#616161"/><path d="M515.78,683.85h-.2a3,3,0,0,1-3.34-2.43l-.91-5.19-.35-2.06-.46-3-.46-2.65-.46-2.65-3.13-18.22a3,3,0,0,1,2.41-3.45h.54a3,3,0,0,1,2.93,2.48l3.13,18.22.46,2.65.46,2.65.52,2.93.35,2.17.91,5.3A3,3,0,0,1,515.78,683.85Z" fill="#616161"/><path d="M529.9,678.4h0a3,3,0,0,1-2.3,3.32h-.33a3,3,0,0,1-3.26-2.45l-.91-5.21-.37-2.17-.5-2.93-.46-2.65-.39-2.48-3.15-18.24a3,3,0,0,1,2.43-3.43h.52a3,3,0,0,1,2.93,2.48l3.15,18.22.46,2.65.46,2.65.5,2.93.37,2.17Z" fill="#616161"/><rect x="554.38" y="665.15" width="17.89" height="10.45" transform="translate(-105.69 105.43) rotate(-9.78)" fill="#616161"/><path d="M558.3,676.51a3,3,0,0,1-3.4-2.42v0l-.93-5.28-.35-2-.52-2.93-.43-2.78-.46-2.65-3.15-18.22a3,3,0,0,1,2.41-3.45h.5a3,3,0,0,1,3,2.61l3.13,18.22.46,2.65.46,2.65.52,2.93.35,2.17.91,5.3A3,3,0,0,1,558.3,676.51Z" fill="#616161"/><path d="M570.09,674.49a3,3,0,0,1-3.45-2.41v0l-.91-5.3-.35-2-.56-3-.46-2.65-.46-2.65-3.13-18.22a3,3,0,0,1,2.41-3.45h.54a3,3,0,0,1,3,2.35l3.13,18.22.46,2.65.48,2.67.5,2.93.35,2,.91,5.3h0a3,3,0,0,1-2.27,3.51Z" fill="#616161"/><rect x="597" y="657.79" width="17.89" height="10.45" transform="translate(-103.82 112.57) rotate(-9.78)" fill="#616161"/><path d="M601.06,669.15h-.2a3,3,0,0,1-3.34-2.43l-.91-5.3-.35-2.17-.52-2.93-.52-2.52-.46-2.65-3.13-18.22a3,3,0,0,1,2.41-3.45h.52A3,3,0,0,1,597.5,632l3.21,18.22.46,2.65.46,2.65.5,2.93.37,2.17.91,5.3A3,3,0,0,1,601.06,669.15Z" fill="#616161"/><path d="M612.83,667.13h-.24a3,3,0,0,1-3.28-2.45l-.91-5.3-.37-2.17-.52-2.69-.46-2.65-.46-2.65L603.45,631a3,3,0,0,1,2.43-3.43h.52a3,3,0,0,1,2.93,2.48l3.13,18,.46,2.65.46,2.65.52,2.93.35,2.17.91,5.3A3,3,0,0,1,612.83,667.13Z" fill="#616161"/><rect x="639.65" y="650.46" width="17.89" height="10.45" transform="translate(-101.95 119.7) rotate(-9.78)" fill="#616161"/><rect x="639.25" y="621.98" width="6" height="40.46" rx="2.99" ry="2.99" transform="translate(-99.42 117.96) rotate(-9.74)" fill="#616161"/><path d="M651.94,619.81h0a3,3,0,0,1,3,3v34.33a3,3,0,0,1-3,3h0a3,3,0,0,1-3-3V622.78a3,3,0,0,1,3-3Z" transform="translate(-99.23 120.04) rotate(-9.78)" fill="#616161"/><rect x="682.28" y="643.09" width="17.89" height="10.45" transform="translate(-100.08 126.84) rotate(-9.78)" fill="#616161"/><path d="M682.81,614.49h0a3,3,0,0,1,3,3v34.33a3,3,0,0,1-3,3h0a3,3,0,0,1-3-3V617.46a3,3,0,0,1,3-3Z" transform="translate(-97.88 125.21) rotate(-9.78)" fill="#616161"/><rect x="691.59" y="612.45" width="5.97" height="40.28" rx="2.97" ry="2.97" transform="translate(-97.36 127.18) rotate(-9.78)" fill="#616161"/><rect x="724.93" y="635.76" width="17.89" height="10.45" transform="translate(-98.21 133.98) rotate(-9.78)" fill="#616161"/><path d="M725.44,607.13h0a3,3,0,0,1,3,3v34.33a3,3,0,0,1-3,3h0a3,3,0,0,1-3-3V610.11a3,3,0,0,1,3-3Z" transform="translate(-96.01 132.34) rotate(-9.78)" fill="#616161"/><path d="M737.21,605.12h0a3,3,0,0,1,3,3v34.33a3,3,0,0,1-3,3h0a3,3,0,0,1-3-3V608.1a3,3,0,0,1,3-3Z" transform="translate(-95.5 134.32) rotate(-9.78)" fill="#616161"/><rect x="767.55" y="628.4" width="17.89" height="10.45" transform="translate(-96.35 141.11) rotate(-9.78)" fill="#616161"/><rect x="767.73" y="599.82" width="6" height="40.46" rx="2.99" ry="2.99" transform="translate(-93.82 139.38) rotate(-9.74)" fill="#616161"/><path d="M779.84,597.75h0a3,3,0,0,1,3,3v34.33a3,3,0,0,1-3,3h0a3,3,0,0,1-3-3V600.72A3,3,0,0,1,779.84,597.75Z" transform="translate(-93.62 141.45) rotate(-9.78)" fill="#616161"/></g></g><g id="Layer_7" data-name="Layer 7"><polygon points="1143.74 425.09 1142.45 438.89 1142.29 438.85 1138.57 475 1036.6 804.43 1034.97 809.69 1033.2 815.42 1031.42 821.16 1029.64 826.89 1028.02 832.15 1023.19 847.77 1015.66 855.3 982.46 888.5 831.4 737.44 1140.54 428.29 1140.71 428.12 1143.74 425.09" fill="url(#linear-gradient-4)"/><rect x="905.18" y="632.64" width="344.84" height="7.97" transform="translate(150.79 1477.78) rotate(-72.8)" fill="#a6d750"/><rect x="898.52" y="631.09" width="344.84" height="6.97" transform="translate(148.07 1469.97) rotate(-72.8)" fill="#8ab342"/><polygon points="1138.57 475 1036.6 804.43 1030.42 802.51 1029.94 802.36 1131.91 472.95 1131.91 472.94 1132.39 473.09 1138.57 475" fill="#bdf25e"/><line x1="1015" y1="803.5" x2="1034.97" y2="809.69" fill="none" stroke="#ababab" stroke-miterlimit="10"/><line x1="1013.23" y1="809.24" x2="1033.2" y2="815.42" fill="none" stroke="#ababab" stroke-miterlimit="10"/><line x1="1011.45" y1="814.98" x2="1031.42" y2="821.16" fill="none" stroke="#ababab" stroke-miterlimit="10"/><line x1="1009.67" y1="820.72" x2="1029.64" y2="826.89" fill="none" stroke="#ababab" stroke-miterlimit="10"/><path d="M1023.68,798.52c-1,2.89-19.85,55.94-15.09,56.89" fill="none"/><path d="M1023.12,800.25l-.3-.09-6.19-1.92L1015,803.5l-1.78,5.81-1.78,5.74-1.78,5.74L1008,826l6.37,2C1018,816.33,1021.74,804.57,1023.12,800.25Z" fill="#b3b3b3"/><path d="M1030.42,802.51l-.48-.15-6.65-2.06h-.17c-1.38,4.31-5.13,16.08-8.7,27.69l13.6,4.19,1.63-5.26,1.78-5.74,1.78-5.74,1.78-5.74,1.63-5.26Z" fill="#bababa"/><line x1="1015" y1="803.5" x2="1034.97" y2="809.69" fill="none" stroke="#ababab" stroke-miterlimit="10"/><line x1="1013.23" y1="809.24" x2="1033.2" y2="815.42" fill="none" stroke="#ababab" stroke-miterlimit="10"/><line x1="1011.45" y1="814.98" x2="1031.42" y2="821.16" fill="none" stroke="#ababab" stroke-miterlimit="10"/><line x1="1009.67" y1="820.72" x2="1029.64" y2="826.89" fill="none" stroke="#ababab" stroke-miterlimit="10"/><path d="M1008.72,847.1c1.46-5.21,3.55-12.16,5.7-19.15l-6.37-2-5.27,17a9,9,0,0,0,5.9,11.2l1.16.35A11.18,11.18,0,0,1,1008.72,847.1Z" fill="#ed8190"/><path d="M1008.72,847.1a11.18,11.18,0,0,0,1.16,7.38l1.72.53a8.94,8.94,0,0,0,11.2-5.87v0l.42-1.35,4.8-15.58-13.63-4.24C1012.26,835,1010.18,841.88,1008.72,847.1Z" fill="#ff8c9c"/><path d="M1023.68,798.52s-10.45,32.51-15,48.58c-.66,4.9-1.25,8.13-.14,8.31" fill="none"/><path d="M1023.68,798.52l-15,48.58s-2.46,7.15,2.18,8.31" fill="none"/><polygon points="1135.95 436.87 1118.61 468.83 1124.78 470.73 1124.78 470.74 1125.21 470.87 1137.88 437.48 1135.95 436.87" fill="#e6c686"/><polygon points="1125.21 470.87 1125.26 470.88 1131.91 472.95 1132.39 473.09 1138.57 475 1142.29 438.85 1137.88 437.48 1125.21 470.87" fill="#ffdc96"/><polygon points="1143.09 423.73 1143.14 423.6 1140.54 428.29 1135.8 436.83 1135.95 436.87 1140.71 428.12 1143.09 423.73" fill="#303030"/><polygon points="1144.03 422 1143.14 423.6 1143.09 423.73 1144.03 422" fill="#303030"/><polygon points="1143.71 425.12 1142.29 438.85 1142.45 438.89 1143.74 425.09 1144.03 422 1143.71 425.12" fill="#303030"/><polygon points="1144.03 422 1143.09 423.73 1137.88 437.48 1142.29 438.85 1143.71 425.12 1144.03 422" fill="#303030"/><polygon points="1143.09 423.73 1140.71 428.12 1135.95 436.87 1137.88 437.48 1143.09 423.73" fill="#303030"/></g></svg>