<svg xmlns="http://www.w3.org/2000/svg" xmlns:xlink="http://www.w3.org/1999/xlink" width="1100" height="1945" viewBox="0 0 1100 1945"><defs><linearGradient id="linear-gradient" x1="720.67" y1="977.09" x2="966.29" y2="1222.73" gradientTransform="matrix(1, 0, 0, -1, 0, 2546)" gradientUnits="userSpaceOnUse"><stop offset="0" stop-opacity="0"/><stop offset="1" stop-opacity="0.25"/></linearGradient><linearGradient id="linear-gradient-2" x1="481.7" y1="769.54" x2="810.53" y2="1098.36" xlink:href="#linear-gradient"/><linearGradient id="linear-gradient-3" x1="-224.38" y1="1311.33" x2="205.39" y2="881.56" gradientUnits="userSpaceOnUse"><stop offset="0" stop-opacity="0"/><stop offset="1"/></linearGradient><linearGradient id="linear-gradient-4" x1="299.81" y1="2042.82" x2="603.98" y2="2346.99" gradientTransform="matrix(1, 0, 0, -1, 0, 2546)" gradientUnits="userSpaceOnUse"><stop offset="0" stop-opacity="0"/><stop offset="1" stop-opacity="0.1"/></linearGradient><linearGradient id="linear-gradient-5" x1="771.93" y1="1974.02" x2="1084.28" y2="2286.38" gradientTransform="matrix(1, 0, 0, -1, 0, 2546)" gradientUnits="userSpaceOnUse"><stop offset="0" stop-opacity="0"/><stop offset="0.59" stop-color="#231f20" stop-opacity="0.05"/><stop offset="1" stop-opacity="0.1"/></linearGradient><linearGradient id="linear-gradient-6" x1="507.52" y1="1476.61" x2="805.76" y2="1774.85" gradientTransform="matrix(1, 0, 0, -1, 0, 2546)" gradientUnits="userSpaceOnUse"><stop offset="0" stop-opacity="0"/><stop offset="1" stop-opacity="0.3"/></linearGradient></defs><title>works-stacked</title><g id="Layer_3" data-name="Layer 3"><g id="Layer_3-2" data-name="Layer 3"><path d="M1084.12,1534.65c0,8-1.62,13.49-4.94,15.5a2.86,2.86,0,0,1,0,.71l-6.58,6.58L890.91,1739.14,759.52,1607.74,619.3,1467.52l-5-5-33.71-33.71c.3-2,.61-3.83,1-5.73a6.05,6.05,0,0,1,.2-1,223,223,0,0,1,47.14-100.78c2.65-3.22,5.41-6.36,8.27-9.46l11.67-11.67c2.45-2.29,4.94-4.52,7.5-6.71l2.11-1.76c.91-.77,1.84-1.54,2.76-2.27,1.42-1.17,2.88-2.29,4.34-3.42A223.84,223.84,0,0,1,912.2,1269.4l52.71,52.69,9.36,9.36.28.3-.49.38,13.17,17.24h.16a6.85,6.85,0,0,1,5.31.53h0l3,2.78.69.67,6.46,6.48L1007,1364l24.05,24.17h0l9.66,9.64.69.69h0A368.32,368.32,0,0,1,1063.1,1442c11,25.93,18.23,50.26,21,68.25C1085.79,1521,1085.83,1529.42,1084.12,1534.65Z" fill="url(#linear-gradient)"/></g><g id="Layer_4" data-name="Layer 4"><path d="M852,1698.85a15.5,15.5,0,0,1-1.68,3l-13.25,19a16.23,16.23,0,0,1-2.88,3.14,7.37,7.37,0,0,1,0,8.06l-2.17,3.1-18.29,18.29L636.24,1931,327.17,1621.92,656,1293.1l.39.39,26.33,26.33,13.57,13.57a211.87,211.87,0,0,0-67.94,95.07,182.4,182.4,0,0,0-10.11,52,154.58,154.58,0,0,0,23.7,91.1,5,5,0,0,1,2.69,1.78l2.21,2.9a5,5,0,0,1,1,3.79c.18.28.38.51.55.77l-1.13.85h0a5.33,5.33,0,0,1-1.28,1.48l-3,2.27,10.19,13.31,3.95-5.71a6.66,6.66,0,0,1,9.18-1.44,16.41,16.41,0,0,1,1.82-3.38l13.25-19c5.65-8.06,17.08-9.22,25.54-2.57l138.24,108.62a21.43,21.43,0,0,1,8,14A18.47,18.47,0,0,1,852,1698.85Z" fill="url(#linear-gradient-2)"/></g><g id="Layer_2" data-name="Layer 2"><path d="M939,1373.3l-3,1.09c-9.26,3.34-13.37,14.08-9.16,24l68.67,161.94c4.21,9.87,15.11,15.21,24.37,11.85l2-.67C997.54,1551.36,933.76,1400.69,939,1373.3Z" fill="#453017"/><path d="M1050.8,1540.32l-68.67-161.94c-4.21-9.87-15.11-15.21-24.37-11.85L939,1373.28c-5.29,27.39,58.48,178.06,82.71,198.16l19.87-7.17C1051,1561,1054.93,1550.21,1050.8,1540.32Z" fill="#4f3515"/><path d="M1073.39,1557.15l-.81.3-19.37,7a7.33,7.33,0,0,1-7.78-2.11,8.24,8.24,0,0,1-1.62-2.47l-82-193.42a4.8,4.8,0,0,1-.26-.75,6.64,6.64,0,0,1,3.79-8.49l6.54-2.35,15.29-5.53h.16v.14a14.48,14.48,0,0,0-1,2.15c-13.61,34.62,39.28,183.25,86.76,205.39Z" fill="#baa37b"/><path d="M1079.18,1550.15a2.86,2.86,0,0,1,0,.71,6.54,6.54,0,0,1-.71,2.69h0a6.14,6.14,0,0,1-3.4,3l-1.64.59-.34-.18c-47.4-22.18-100.37-170.81-86.76-205.39a14.48,14.48,0,0,1,1-2.15v-.14a6.85,6.85,0,0,1,5.31.53h0a8.12,8.12,0,0,1,3.12,2.84c.16.24.3.47.43.71l.24.53,3.5,8.2,3.5,8.06h0l68.71,161.94,3.46,8.18,2.94,6.89a7.9,7.9,0,0,1,.49,1.6A6.58,6.58,0,0,1,1079.18,1550.15Z" fill="#dbc191"/><path d="M675,1578.46l-6.79,9.72a16.41,16.41,0,0,0-1.82,3.38,20.48,20.48,0,0,0,6.89,23.24l25.38,20h0l87,68.31,25.93,20.34c7.21,5.65,16.53,5.67,22.63.57a16.23,16.23,0,0,0,2.88-3.14l8.39-12C810.73,1697.7,703.71,1612,675,1578.46Z" fill="#453017"/><path d="M852,1698.85a18.47,18.47,0,0,0,1.28-9.64,21.43,21.43,0,0,0-8-14L707,1566.61c-8.45-6.66-19.89-5.49-25.54,2.57l-6.46,9.24c28.75,33.57,135.78,119.25,170.52,130.35l4.86-7A15.5,15.5,0,0,0,852,1698.85Z" fill="#4f3515"/><path d="M644.24,1611.42l-.39.57h0a7.56,7.56,0,0,0,1,9.18h0a6.38,6.38,0,0,0,1,.95l7,5.49h0l7,5.47h0L798.19,1741.7h0l6.93,5.45h0l5.92,4.62a7.64,7.64,0,0,0,2.57,1.34h0a6.44,6.44,0,0,0,7.15-2.39l.91-1.28C817.11,1713.76,697.31,1607.53,644.24,1611.42Z" fill="#baa37b"/><path d="M834.21,1723.95a8.2,8.2,0,0,0-2-2.19L667,1592a3.54,3.54,0,0,0-.65-.45,6.66,6.66,0,0,0-9.18,1.44l-3.95,5.71-8.93,12.72c53.07-3.95,172.87,102.3,177.59,138.24L832.08,1735l2.17-3.1A7.37,7.37,0,0,0,834.21,1723.95Z" fill="#dbc191"/><polygon points="656.92 1603.6 644.54 1613.06 643.79 1612.09 630.61 1594.85 630.36 1594.53 627.79 1591.17 640.17 1581.71 642.74 1585.07 642.98 1585.39 653.17 1598.7 656.92 1603.6" fill="#b8a27a"/><path d="M744.11,1666c46.65,36.62,78.15,75.34,70.35,86.5s-51.94-9.5-98.59-46.13-78.15-75.34-70.35-86.5S697.46,1629.33,744.11,1666Z" fill="#382100"/><path d="M740.3,1671.42c42.6,33.44,71.1,69.12,63.75,79.69s-47.93-7.9-90.53-41.47-71.1-69.12-63.75-79.69S697.7,1638,740.3,1671.42Z" fill="#999"/><path d="M652.85,1634.76a4.46,4.46,0,0,0-.59.67c-6.4,9.14,21.11,42.22,61.46,73.88,39.81,31.26,77.22,49.37,84.33,41.1-14.36-.85-46.45-18.47-80.38-45C681.67,1677.32,655.52,1648.29,652.85,1634.76Z" fill="#242424"/><path d="M737,1676.23c-39.26-30.83-76.19-48.94-84-41.47,2.67,13.43,28.91,42.46,64.84,70.62,33.91,26.58,66,44.2,80.38,45,0-.1.2-.2.28-.32C804.72,1741.05,777.21,1708,737,1676.23Z" fill="#363636"/><polygon points="987.98 1350.25 986.3 1351.54 975.59 1359.73 971.84 1354.83 961.65 1341.52 961.41 1341.21 958.85 1337.85 971.25 1328.37 973.8 1331.71 973.82 1331.71 974.05 1332.02 987.23 1349.27 987.3 1349.38 987.98 1350.25" fill="#dbc191"/><path d="M1084.12,1534.65c0,8-1.62,13.49-4.94,15.5a.87.87,0,0,1-.32.2,4.38,4.38,0,0,1-.75.36c-8.43,3-23.92-13.47-40.15-40.66h0a418.47,418.47,0,0,1-24.9-49.79,408.82,408.82,0,0,1-18.29-52.06h0c-8.12-30.2-8.91-52.08-.45-55.12a5,5,0,0,1,1.32-.3h.26c3.95-.3,8.91,2.71,14.63,8.37h0c1.18,1.18,2.39,2.47,3.61,3.83h0a177.88,177.88,0,0,1,16.89,23.23h0a403.36,403.36,0,0,1,28.3,55.3c12.42,29.31,20.6,56.72,23.52,76.55.51,3.4.87,6.58,1,9.48h0C1084.06,1531.35,1084.12,1533.07,1084.12,1534.65Z" fill="#382100"/><path d="M1084.12,1534.65a8.65,8.65,0,0,1-3.95,5.31l-.71.34a6.85,6.85,0,0,1-3.95.14c-13.37-3-37.23-37.52-56.36-82.49s-26.9-85.32-19.26-95.86a5.93,5.93,0,0,1,2.73-2.25h.22a9.18,9.18,0,0,1,7.52,1.28h0c8.35,4.56,19.51,18.23,30.89,37.52h0a368.32,368.32,0,0,1,21.72,43.59c11,25.93,18.23,50.26,21,68.25C1085.79,1521,1085.83,1529.42,1084.12,1534.65Z" fill="#999"/><path d="M1024.87,1455.91c20,47.22,44.77,82.41,55.3,78.62s2.76-45.13-17.24-92.35-44.77-82.41-55.3-78.62S1004.86,1408.71,1024.87,1455.91Z" fill="#363636"/><path d="M634,1376.78a159,159,0,0,0-18.58,50,126.28,126.28,0,0,0-2,17.2c0,2.25-.14,4.46,0,6.68a9.19,9.19,0,0,0,0,1v2.19a1,1,0,0,0,0,.41v1.78a2.43,2.43,0,0,0,0,.39,6.42,6.42,0,0,0,.12,1.5c.12.49.12,1.54.2,2.29s.14,1.2.22,1.82q.36,3,.89,5.92a7.73,7.73,0,0,0,.28,1.5c.1.49.32,1.54.49,2.29s.26,1.18.39,1.76c.55,2.33,1.2,4.62,2,6.89a182.4,182.4,0,0,1,10.31-52,122.74,122.74,0,0,1,23.17-39C642.82,1389.45,636.87,1384.66,634,1376.78Z" fill="#c9b793"/><path d="M688.14,1315.49c-1.84,1.4-3.65,2.84-5.43,4.33a204.11,204.11,0,0,0-48.68,57c2.84,7.9,8.79,12.68,17.48,12.66,14.61-17.24,33.32-32.59,52.69-48.15,1.42-1.17,2.84-2.29,4.31-3.4,49.37-37.78,100.9-59.13,153.14-49.25C816.08,1262.19,745.81,1271.37,688.14,1315.49Z" fill="#c9b793"/><path d="M585.09,1407.43c-1.26,4.92-2.39,9.87-3.34,14.85a6.05,6.05,0,0,1-.2,1c-.36,2-.67,3.81-1,5.73-.85,5.29-1.48,10.64-2,16a223,223,0,0,0,38.53,145.2c1.84,2.69,3.73,5.29,5.73,7.9.32.45.65.89,1,1.32l1.68-1.28,4.76-3.65,2.65-2C592.79,1539.17,574.39,1472.2,585.09,1407.43Z" fill="#dbc191"/><path d="M978.81,1327.44q-3.73-4.9-7.7-9.5a223.54,223.54,0,0,0-305.5-31.9q-4.74,3.61-9.22,7.45c-2.57,2.19-5.06,4.42-7.5,6.71-4.07,3.75-7.9,7.66-11.67,11.67-2.86,3.1-5.63,6.24-8.27,9.46a222.69,222.69,0,0,0-43.84,86.09c-10.7,64.78,7.7,131.75,47.93,185.07l9.74-7.45,4.44-3.4h0l1.13-.85c-.18-.26-.38-.49-.55-.77q-3.12-4.15-5.92-8.47a154.58,154.58,0,0,1-23.7-91.1c-.73-2.27-1.38-4.56-2-6.89-.14-.57-.28-1.17-.39-1.76s-.34-1.52-.49-2.29-.18-1-.28-1.5q-.53-2.92-.89-5.92a14.25,14.25,0,0,0-.22-1.82c-.08-.61-.16-1.52-.2-2.29a7.4,7.4,0,0,0-.12-1.5,2.43,2.43,0,0,1,0-.39v-1.78a1,1,0,0,1,0-.41v-2.19a9.19,9.19,0,0,1,0-1V1444a126.27,126.27,0,0,1,2-17.2c6.75-37.52,30.2-76.73,67.27-106.94,1.78-1.48,3.59-2.92,5.43-4.33,57.67-44.14,127.94-53.32,173.48-26.86,33.22,6.26,63.51,22,86.46,46.81,2.88,3.08,5.61,6.32,8.22,9.68l5.12-3.95,12.38-9.5h0l.45-.36,4.21-3.2h0l.53-.41Z" fill="#dbc191"/><path d="M978.81,1327.44a5.38,5.38,0,0,1-.32.69h0a4.74,4.74,0,0,1-1.28,1.46l-2.65,2-.49.38-12.4,9.5-3.95,3a4.94,4.94,0,0,1-6.92-.92h0l-2.21-2.88a4.92,4.92,0,0,1-.45-5.31,5.06,5.06,0,0,1,1.36-1.62l15.46-11.85,4-3.12a5.25,5.25,0,0,1,2.13-.93,4.92,4.92,0,0,1,4.8,1.86l2.21,3A4.86,4.86,0,0,1,978.81,1327.44Z" fill="#382100"/><path d="M647.78,1580a5.29,5.29,0,0,1-.57,1.62h0a5.33,5.33,0,0,1-1.28,1.48l-2.94,2.27-12.36,9.46-3.26,2.39a4.95,4.95,0,0,1-6.91-.93l-2.23-2.9a4.88,4.88,0,0,1,1-6.91l18.52-14.18a4.9,4.9,0,0,1,4.25-.87,5,5,0,0,1,2.69,1.78l2.21,2.9A5,5,0,0,1,647.78,1580Z" fill="#382100"/></g></g><g id="Layer_4-2" data-name="Layer 4"><path d="M535,1211.18l-9.28,9.28,0,0-7.2,7.19L105.23,1640.95-554,981.72l206.66-206.66,13.94-13.94.88-.51L-64.16,612,532,1208.22Z" opacity="0.15" fill="url(#linear-gradient-3)"/><g id="Layer_1" data-name="Layer 1"><path d="M532,1208.22a39,39,0,0,1-6.32,12.23l0,0a38.59,38.59,0,0,1-7.2,7.19,37.71,37.71,0,0,1-4.9,3.22L65.29,1479.12a39.49,39.49,0,0,1-53.65-15.57l-359.46-649.2a39.62,39.62,0,0,1,.47-39.28,38.94,38.94,0,0,1,13.94-13.94l.88-.51L-64.16,612,115.76,512.4A39.5,39.5,0,0,1,169.4,528l359.46,649.2A39.59,39.59,0,0,1,532,1208.22Z" fill="#e6e6e6"/><path d="M225.12,1089,82.89,832.18a8.41,8.41,0,0,1,3.25-11.44l164-90.81a8.41,8.41,0,0,1,11.42,3.31L403.79,990.12a8.41,8.41,0,0,1-3.25,11.44l-164,90.81A8.41,8.41,0,0,1,225.12,1089Z" fill="#e6e6e6" stroke="#9e9e9e" stroke-miterlimit="10" stroke-width="0.5"/><path d="M58,1408.65-279.27,799.43A8.41,8.41,0,0,1-276,788L-46.19,660.74a8.41,8.41,0,0,1,11.42,3.31l337.31,609.21a8.41,8.41,0,0,1-3.25,11.44L69.46,1412A8.41,8.41,0,0,1,58,1408.65Z" fill="#e6e6e6" stroke="#9e9e9e" stroke-miterlimit="10" stroke-width="0.5"/></g><g id="Layer_2-2" data-name="Layer 2"><path d="M167.84,1135.4,31.53,889.21a2.48,2.48,0,0,1,1-3.37l33.29-18.43a2.48,2.48,0,0,1,3.37,1l136.31,246.18a2.48,2.48,0,0,1-1,3.37l-33.29,18.43A2.48,2.48,0,0,1,167.84,1135.4Z" fill="#1a1a1a"/><path d="M214.51,1319.54l-44.7-80.74a2.48,2.48,0,0,1,1-3.37L204.06,1217a2.48,2.48,0,0,1,3.37,1l44.7,80.74a2.48,2.48,0,0,1-1,3.37l-33.29,18.43A2.48,2.48,0,0,1,214.51,1319.54Z" fill="#1a1a1a"/><path d="M164.78,1229.73l-18.53-33.47a2.48,2.48,0,0,1,1-3.37l33.29-18.43a2.48,2.48,0,0,1,3.37,1l18.53,33.47a2.48,2.48,0,0,1-1,3.37l-33.29,18.43A2.48,2.48,0,0,1,164.78,1229.73Z" fill="#1a1a1a"/><path d="M141.23,1187.19l-18.53-33.47a2.48,2.48,0,0,1,1-3.37l33.29-18.43a2.48,2.48,0,0,1,3.37,1l18.53,33.47a2.48,2.48,0,0,1-1,3.37l-33.29,18.43A2.48,2.48,0,0,1,141.23,1187.19Z" fill="#1a1a1a"/><path d="M117.67,1144.65l-18.53-33.47a2.48,2.48,0,0,1,1-3.37l33.29-18.43a2.48,2.48,0,0,1,3.37,1l18.53,33.47a2.48,2.48,0,0,1-1,3.37L121,1145.62A2.48,2.48,0,0,1,117.67,1144.65Z" fill="#1a1a1a"/><path d="M94.12,1102.1l-18.53-33.47a2.48,2.48,0,0,1,1-3.37l33.29-18.43a2.48,2.48,0,0,1,3.37,1l18.53,33.47a2.48,2.48,0,0,1-1,3.37l-33.29,18.43A2.48,2.48,0,0,1,94.12,1102.1Z" fill="#1a1a1a"/><path d="M70.56,1059.56,52,1026.09a2.48,2.48,0,0,1,1-3.37l33.29-18.43a2.48,2.48,0,0,1,3.37,1l18.53,33.47a2.48,2.48,0,0,1-1,3.37l-33.29,18.43A2.48,2.48,0,0,1,70.56,1059.56Z" fill="#1a1a1a"/><rect x="35.05" y="968.26" width="43" height="43.23" rx="2.47" ry="2.47" transform="translate(-472.41 151.27) rotate(-28.97)" fill="#1a1a1a"/><path d="M23.45,974.47,4.92,941a2.48,2.48,0,0,1,1-3.37L39.17,919.2a2.48,2.48,0,0,1,3.37,1l18.53,33.47a2.48,2.48,0,0,1-1,3.37L26.82,975.45A2.48,2.48,0,0,1,23.45,974.47Z" fill="#1a1a1a"/><path d="M-.1,931.93l-18.53-33.47a2.48,2.48,0,0,1,1-3.37l33.29-18.43a2.48,2.48,0,0,1,3.37,1L37.51,911.1a2.48,2.48,0,0,1-1,3.37L3.26,932.91A2.48,2.48,0,0,1-.1,931.93Z" fill="#1a1a1a"/><path d="M-23.66,889.39l-18.53-33.47a2.48,2.48,0,0,1,1-3.37l33.29-18.43a2.48,2.48,0,0,1,3.37,1L14,868.56a2.48,2.48,0,0,1-1,3.37l-33.29,18.43A2.48,2.48,0,0,1-23.66,889.39Z" fill="#1a1a1a"/><path d="M172.19,1343l-31.62-57.1a2.48,2.48,0,0,1,1-3.37l33.29-18.43a2.48,2.48,0,0,1,3.37,1l31.62,57.1a2.48,2.48,0,0,1-1,3.37L175.56,1344A2.48,2.48,0,0,1,172.19,1343Z" fill="#1a1a1a"/><path d="M135.55,1276.8,117,1243.33a2.48,2.48,0,0,1,1-3.37l33.29-18.43a2.48,2.48,0,0,1,3.37,1L173.17,1256a2.48,2.48,0,0,1-1,3.37l-33.29,18.43A2.48,2.48,0,0,1,135.55,1276.8Z" fill="#1a1a1a"/><path d="M112,1234.25l-18.53-33.47a2.48,2.48,0,0,1,1-3.37L127.72,1179a2.48,2.48,0,0,1,3.37,1l18.53,33.47a2.48,2.48,0,0,1-1,3.37l-33.29,18.43A2.48,2.48,0,0,1,112,1234.25Z" fill="#1a1a1a"/><path d="M88.44,1191.71l-18.53-33.47a2.48,2.48,0,0,1,1-3.37l33.29-18.43a2.48,2.48,0,0,1,3.37,1l18.53,33.47a2.48,2.48,0,0,1-1,3.37l-33.29,18.43A2.48,2.48,0,0,1,88.44,1191.71Z" fill="#1a1a1a"/><path d="M64.89,1149.17,46.36,1115.7a2.48,2.48,0,0,1,1-3.37L80.6,1093.9a2.48,2.48,0,0,1,3.37,1l18.53,33.47a2.48,2.48,0,0,1-1,3.37l-33.29,18.43A2.48,2.48,0,0,1,64.89,1149.17Z" fill="#1a1a1a"/><path d="M41.33,1106.62,22.8,1073.16a2.48,2.48,0,0,1,1-3.37L57,1051.35a2.48,2.48,0,0,1,3.37,1l18.53,33.47a2.48,2.48,0,0,1-1,3.37L44.7,1107.6A2.48,2.48,0,0,1,41.33,1106.62Z" fill="#1a1a1a"/><path d="M17.78,1064.08-.75,1030.61a2.48,2.48,0,0,1,1-3.37l33.29-18.43a2.48,2.48,0,0,1,3.37,1l18.53,33.47a2.48,2.48,0,0,1-1,3.37l-33.29,18.43A2.48,2.48,0,0,1,17.78,1064.08Z" fill="#1a1a1a"/><path d="M-5.78,1021.54l-18.53-33.47a2.48,2.48,0,0,1,1-3.37L9.94,966.27a2.48,2.48,0,0,1,3.37,1l18.53,33.47a2.48,2.48,0,0,1-1,3.37l-33.29,18.43A2.48,2.48,0,0,1-5.78,1021.54Z" fill="#1a1a1a"/><path d="M-29.34,979l-18.53-33.47a2.48,2.48,0,0,1,1-3.37l33.29-18.43a2.48,2.48,0,0,1,3.37,1L8.28,958.17a2.48,2.48,0,0,1-1,3.37L-26,980A2.48,2.48,0,0,1-29.34,979Z" fill="#1a1a1a"/><path d="M129.88,1366.41l-29-52.38a2.48,2.48,0,0,1,1-3.37l33.29-18.43a2.48,2.48,0,0,1,3.37,1l29,52.38a2.48,2.48,0,0,1-1,3.37l-33.29,18.43A2.48,2.48,0,0,1,129.88,1366.41Z" fill="#1a1a1a"/><path d="M95.85,1305l-18.53-33.47a2.48,2.48,0,0,1,1-3.37l33.29-18.43a2.48,2.48,0,0,1,3.37,1l18.53,33.47a2.48,2.48,0,0,1-1,3.37l-33.29,18.43A2.48,2.48,0,0,1,95.85,1305Z" fill="#1a1a1a"/><rect x="60.34" y="1213.65" width="43" height="43.23" rx="2.49" ry="2.49" transform="translate(-588.11 194.24) rotate(-28.97)" fill="#1a1a1a"/><path d="M48.74,1219.87,30.21,1186.4a2.48,2.48,0,0,1,1-3.37l33.29-18.43a2.48,2.48,0,0,1,3.37,1L86.36,1199a2.48,2.48,0,0,1-1,3.37l-33.29,18.43A2.48,2.48,0,0,1,48.74,1219.87Z" fill="#1a1a1a"/><path d="M25.19,1177.33,6.66,1143.86a2.48,2.48,0,0,1,1-3.37l33.29-18.43a2.48,2.48,0,0,1,3.37,1L62.8,1156.5a2.48,2.48,0,0,1-1,3.37L28.55,1178.3A2.48,2.48,0,0,1,25.19,1177.33Z" fill="#1a1a1a"/><rect x="-10.33" y="1086.02" width="43" height="43.23" rx="2.47" ry="2.47" transform="translate(-535.13 144.03) rotate(-28.97)" fill="#1a1a1a"/><path d="M-21.93,1092.24l-18.53-33.47a2.48,2.48,0,0,1,1-3.37L-6.21,1037a2.48,2.48,0,0,1,3.37,1l18.53,33.47a2.48,2.48,0,0,1-1,3.37l-33.29,18.43A2.48,2.48,0,0,1-21.93,1092.24Z" fill="#1a1a1a"/><path d="M87.56,1389.84,69,1356.37a2.48,2.48,0,0,1,1-3.37l33.29-18.43a2.48,2.48,0,0,1,3.37,1L125.17,1369a2.48,2.48,0,0,1-1,3.37l-33.29,18.43A2.48,2.48,0,0,1,87.56,1389.84Z" fill="#1a1a1a"/><path d="M64,1347.29l-18.53-33.47a2.48,2.48,0,0,1,1-3.37L79.72,1292a2.48,2.48,0,0,1,3.37,1l18.53,33.47a2.48,2.48,0,0,1-1,3.37l-33.29,18.43A2.48,2.48,0,0,1,64,1347.29Z" fill="#1a1a1a"/><path d="M40.45,1304.75l-18.53-33.47a2.48,2.48,0,0,1,1-3.37l33.29-18.43a2.48,2.48,0,0,1,3.37,1l18.53,33.47a2.48,2.48,0,0,1-1,3.37l-33.29,18.43A2.48,2.48,0,0,1,40.45,1304.75Z" fill="#1a1a1a"/><rect x="4.94" y="1213.45" width="43" height="43.23" rx="2.49" ry="2.49" transform="translate(-594.95 167.37) rotate(-28.97)" fill="#1a1a1a"/><path d="M-6.66,1219.66l-18.53-33.47a2.48,2.48,0,0,1,1-3.37l33.29-18.43a2.48,2.48,0,0,1,3.37,1L31,1198.84a2.48,2.48,0,0,1-1,3.37L-3.3,1220.64A2.48,2.48,0,0,1-6.66,1219.66Z" fill="#1a1a1a"/><path d="M-30.22,1177.12l-18.53-33.47a2.48,2.48,0,0,1,1-3.37l33.29-18.43a2.48,2.48,0,0,1,3.37,1L7.4,1156.29a2.48,2.48,0,0,1-1,3.37l-33.29,18.43A2.48,2.48,0,0,1-30.22,1177.12Z" fill="#1a1a1a"/><path d="M26.51,880.14,5.36,841.94a2.48,2.48,0,0,1,1-3.37l33.29-18.43a2.48,2.48,0,0,1,3.37,1l21.15,38.19a2.48,2.48,0,0,1-1,3.37L29.88,881.11A2.48,2.48,0,0,1,26.51,880.14Z" fill="#1a1a1a"/><rect x="180.75" y="1128.84" width="43" height="48.63" rx="2.47" ry="2.47" transform="translate(-533.27 242.28) rotate(-28.97)" fill="#1a1a1a"/><path d="M.34,832.87l-15.91-28.74a2.48,2.48,0,0,1,1-3.37l33.29-18.43a2.48,2.48,0,0,1,3.37,1L38,812a2.48,2.48,0,0,1-1,3.37L3.7,833.84A2.48,2.48,0,0,1,.34,832.87Z" fill="#1a1a1a"/><path d="M215,1220.48,199,1191.74a2.48,2.48,0,0,1,1-3.37l33.29-18.43a2.48,2.48,0,0,1,3.37,1l15.91,28.74a2.48,2.48,0,0,1-1,3.37l-33.29,18.43A2.48,2.48,0,0,1,215,1220.48Z" fill="#1a1a1a"/><path d="M235.89,1258.3,220,1229.56a2.48,2.48,0,0,1,1-3.37l33.29-18.43a2.48,2.48,0,0,1,3.37,1l15.91,28.74a2.48,2.48,0,0,1-1,3.37l-33.29,18.43A2.48,2.48,0,0,1,235.89,1258.3Z" fill="#1a1a1a"/><path d="M256.83,1296.11l-15.91-28.74a2.48,2.48,0,0,1,1-3.37l33.29-18.43a2.48,2.48,0,0,1,3.37,1l15.91,28.74a2.48,2.48,0,0,1-1,3.37l-33.29,18.43A2.48,2.48,0,0,1,256.83,1296.11Z" fill="#1a1a1a"/><path d="M-1.79,784.64-17.71,755.9a2.48,2.48,0,0,1,1-3.37l14.48-8a2.48,2.48,0,0,1,3.37,1L17,774.22a2.48,2.48,0,0,1-1,3.37l-14.48,8A2.48,2.48,0,0,1-1.79,784.64Z" fill="#1a1a1a"/><path d="M64,1402.85l-19.21-34.7a2.48,2.48,0,0,1,1-3.37l14.48-8a2.48,2.48,0,0,1,3.37,1l19.21,34.7a2.48,2.48,0,0,1-1,3.37l-14.48,8A2.48,2.48,0,0,1,64,1402.85Z" fill="#1a1a1a"/><path d="M39.73,1358.94l-19.21-34.7a2.48,2.48,0,0,1,1-3.37l14.48-8a2.48,2.48,0,0,1,3.37,1l19.21,34.7a2.48,2.48,0,0,1-1,3.37l-14.48,8A2.48,2.48,0,0,1,39.73,1358.94Z" fill="#1a1a1a"/><path d="M15.42,1315l-19.21-34.7a2.48,2.48,0,0,1,1-3.37l14.48-8a2.48,2.48,0,0,1,3.37,1l19.21,34.7a2.48,2.48,0,0,1-1,3.37l-14.48,8A2.48,2.48,0,0,1,15.42,1315Z" fill="#1a1a1a"/><rect x="-19.82" y="1226.29" width="21.5" height="44.63" rx="2.47" ry="2.47" transform="translate(-605.95 151.87) rotate(-28.97)" fill="#1a1a1a"/></g></g><g id="Layer_5" data-name="Layer 5"><g id="Layer_5-2" data-name="Layer 5"><path d="M787.73,440.89,512.62,716,247.11,450.49l-3.3-3.3L87,290.38,205.63,171.75l20.35-3.5-2.48-14.4,5.15-5.15a1.24,1.24,0,0,1,0,.3l3.13,18.22,5.88-1-3-18.22a3,3,0,0,1,2.41-3.45h.52a3,3,0,0,1,2.93,2.52l3.13,18.22,25-4.34-3.15-18.22a3,3,0,0,1,2.45-3.45h.5a3,3,0,0,1,2.93,2.48L274.53,160l5.88-1-3.15-18.41a3,3,0,0,1,2.41-3.45h.54a3,3,0,0,1,2.93,2.48l3.13,18.35,25-4.34-3.13-18.22a3,3,0,0,1,2.38-3.47l.14,0h.52a3,3,0,0,1,2.93,2.48l3.06,18.2L323,151.4l-3.13-18.22a3,3,0,0,1,2.41-3.45h.5a3,3,0,0,1,3,2.56L329,150.51l25-4.34-3.15-18.22a3,3,0,0,1,2.43-3.45h.5a3,3,0,0,1,3,2.48l3.15,18.24,5.86-1L362.63,126A3,3,0,0,1,365,122.5h.52a3,3,0,0,1,2.93,2.48l3.06,18.18,25-4.34-3.13-18.22a3,3,0,0,1,2.41-3.45h.54a3,3,0,0,1,2.93,2.48l3.13,18.22,5.88-1-3.15-18.24a3,3,0,0,1,2.43-3.43H408a3,3,0,0,1,2.93,2.48l3.15,18.22,25-4.34L436,113.29a3,3,0,0,1,2.41-3.45h.5a3,3,0,0,1,3.06,2.48l3.13,18.22,5.88-1-3.13-18.22a3,3,0,0,1,2.41-3.45h.54a3,3,0,0,1,2.93,2.3l3.13,18.22,25-4.34L478.7,105.8a3,3,0,0,1,2.41-3.45h.52a3,3,0,0,1,2.93,2.48l3.15,18.35,5.88-1-3.15-18.24a3,3,0,0,1,2.43-3.43h.52a3,3,0,0,1,2.93,2.48l3.13,18,22.63-3.89,2.32,2.32.63.63,1.69,1.69,5.62,5.75,6,6L638.57,233.66h0L775.66,370.73Z" fill="url(#linear-gradient-4)"/></g><g id="Layer_1-2" data-name="Layer 1"><polygon points="788.64 446.12 781.22 447.4 323 526.38 259.36 537.35 243.81 447.19 198.38 183.6 201.05 183.15 203.68 182.69 206.33 182.24 227.78 178.54 233.66 177.52 239.55 176.5 245.44 175.5 245.44 175.48 270.43 171.18 276.31 170.16 282.2 169.16 288.06 168.14 313.06 163.84 318.94 162.82 324.83 161.8 330.69 160.8 330.71 160.8 355.68 156.48 355.71 156.48 361.59 155.48 367.45 154.46 373.34 153.44 398.33 149.14 404.22 148.12 410.1 147.12 415.97 146.1 415.99 146.1 440.96 141.8 440.98 141.78 446.85 140.78 452.73 139.76 458.62 138.74 483.61 134.44 489.49 133.42 495.38 132.42 501.24 131.4 526.24 127.1 531.12 126.25 532.12 126.08 538.01 125.06 543.87 124.06 543.89 124.06 568.86 119.74 568.88 119.74 574.77 118.74 580.63 117.72 586.52 116.7 611.51 112.4 617.4 111.38 623.28 110.38 629.15 109.36 629.17 109.36 654.14 105.06 654.16 105.04 660.02 104.04 665.91 103.02 671.79 102 717.09 94.2 719.72 93.75 722.37 93.29 727.67 92.38 775.66 370.79 787.73 440.89 788.64 446.12" fill="#99713d"/><rect x="226.93" y="131.07" width="523.67" height="359.85" transform="translate(-45.72 87.54) rotate(-9.78)" fill="#a39c83"/><rect x="231.77" y="127.52" width="523.67" height="359.85" transform="translate(-45.05 88.31) rotate(-9.78)" fill="#d4caaa"/><polygon points="779.07 438.06 776.44 438.52 314.73 518.11 265.67 526.58 263.02 527.03 250.41 453.79 203.68 182.69 202.81 177.7 202.35 175.03 201.9 172.4 205.63 171.75 226 168.25 231.88 167.23 237.77 166.21 243.66 165.19 268.65 160.89 274.53 159.87 280.42 158.87 286.28 157.85 311.28 153.55 317.16 152.53 323.05 151.51 328.93 150.51 353.93 146.19 359.81 145.19 365.67 144.17 371.56 143.15 396.55 138.85 402.44 137.83 408.32 136.83 414.21 135.81 439.2 131.49 445.06 130.49 450.95 129.47 456.83 128.45 481.83 124.15 487.71 123.13 493.6 122.13 499.46 121.11 522.09 117.22 524.46 116.81 530.34 115.79 536.23 114.77 542.11 113.77 567.11 109.45 572.99 108.45 578.85 107.43 584.74 106.41 609.73 102.11 615.62 101.09 621.5 100.07 627.39 99.07 652.38 94.75 658.24 93.75 664.13 92.73 670.01 91.7 717.94 83.45 718.4 86.1 719.72 93.75 765.76 360.89 779.07 438.06" fill="#fffae8"/></g><g id="Layer_2-3" data-name="Layer 2"><polygon points="763.54 395.94 728.75 445.04 728.71 445.1 718.63 407.47 723.3 406.04 738.85 401.28 763.54 395.94" fill="#aba489"/><polygon points="772.49 394 729.1 447.53 728.75 445.04 723.3 406.04 723.11 404.69 738.85 401.28 763.54 395.94 772.49 394" fill="#d9d0ae"/><path d="M347.32,277.35c-2.32-15.66-14.7-28.45-28.38-35.22-3.84-1.91-7.9-3.54-11.88-5.21a26.67,26.67,0,0,1-5.47-2.17c-3.58-2.69-2.93,0-1.3-4.34,1.19-3.21,19.07-16.74,19.26-16.22a1.52,1.52,0,0,0,3-.39v-1.3a1.72,1.72,0,0,0-.87-1.5c-8.27-4.08-18.87,8-23.76,13-7.19,7.6-6.84,12.62,3,16.79,19.07,8.08,40.59,18.33,40.46,42.56,0,11.86-4.67,24.43-16.57,28.82-10.86,4-20.72.91-31.49-1a1.94,1.94,0,0,0-1,3.74c14,4.86,29.9,9.27,43.08-1.15C345.56,305.8,349.17,289.79,347.32,277.35Z" fill="#383838"/><path d="M388,293.9c-5.91,3.54-15.35,10.14-19.54.93-2.39-5.17-1.82-12.38-1.17-17.85v-.26a23.13,23.13,0,0,0,10.53-7.95c2.35-3.76,4.73-8.69,1.32-12.75-2.74-3.24-6.51-2.3-9.6.28-4.21,3.6-6.51,9.38-7.73,15.7a5.58,5.58,0,0,1-.87-1.61c-.54-1.54-3.06-1.41-3,.41.13,3.58,1.39,5.49,3.24,6.25a55.42,55.42,0,0,0,1.89,19.22c4.54,14.9,18.78,7.17,26.82,0C391.32,295.18,389.56,293,388,293.9Zm-12.59-33.33c.91.48-2.45,6.21-2.78,6.69a22.28,22.28,0,0,1-4.34,4.34C369.41,266.06,371.75,258.57,375.45,260.56Z" fill="#383838"/><path d="M417.51,293.51c-1.39-9.49-3.24-19-4.93-28.47-4-22.13-6.32-44.65-11-66.62-.35-1.65-2.87-1.06-2.78.37h0c-1.19,9.53.91,20,2.17,29.49,1.3,9.86,3,19.74,4.76,29.53,1.54,8.69,2.41,17.37,4.17,26.06,1.56,7.62,4.34,16.63,4.15,24.49a1.93,1.93,0,0,0,3.28,1.35C420.87,306.23,418.09,297.48,417.51,293.51Z" fill="#383838"/><path d="M465.72,283.65c-6.51,5.45-19.35,10.29-24.76.39a28.75,28.75,0,0,1-2.48-16.57,28.06,28.06,0,0,0,8.3-3.93c5-3.47,11.44-9.45,10.64-16.26a8.86,8.86,0,0,0-10.25-7.2l-.19,0c-7.21,1.39-11.14,11.29-13,17.37-.39,1.32-.74,2.65-1,4-1.76.15-3.08.15-2.87-.22a1.32,1.32,0,0,0-1.8-1.8c-2.93,2-2.8,4.06-.46,6.38a8,8,0,0,0,4.06,2.17,36.92,36.92,0,0,0,2,16.33c6.51,17.59,25.15,14,34.74,1.67C470,284.1,467.19,282.43,465.72,283.65ZM443,252.31c1-1.32,4.52-5.36,6.69-5.36,4,2,2.17,4.34,0,6.51a37.28,37.28,0,0,1-9.51,6.86h-.26A33.64,33.64,0,0,1,443,252.31Z" fill="#383838"/><path d="M507.73,262.78c-1.15,5.78-2.28,14.55-7.23,18.46-9.53,7.54-20.26-5.65-21.54-13.68a32.57,32.57,0,0,1,4.34-21.85c1.35-2.17,4.34-7.67,7.12-7.38h.5c2.76.28,2.8-4.17,0-4.34-8.08-.56-13.81,8.69-16.13,15.4-3.47,10-4.34,22.91,3,31.47,5.45,6.36,15.46,11.66,23.63,7.6,8.84-4.34,9.73-16.68,9.71-25.28C511.06,261.39,508.13,260.87,507.73,262.78Z" fill="#383838"/><path d="M544.8,224.71c-2.17,1.19-5.41,1.32-7.82,2.3l-2.71,1.13c-.43-6.86-.85-13.81-1.76-20.59A141.56,141.56,0,0,0,530,193c-.78-3.19,0-4.69-3-10.66-.59-1.13-1.8-1.78-2.41-.65-2.93,5.52-.2,13.75.63,19.54,1.19,8.27,1.82,16.53,2.43,24.84.11,1.56.24,3.13.37,4.67l-1.48.54a31.05,31.05,0,0,1-10.21,1.78c-2.32,0-3.84-.59-5.88.54a2.41,2.41,0,0,0-1.19,2.17c0,1.45.43,1.93,1.65,2.71a1.32,1.32,0,0,0,1.24,0,3.41,3.41,0,0,0,1.52.33l1.87.28a24.52,24.52,0,0,0,5.3,0,33.42,33.42,0,0,0,7.73-1.76c1.22,14.83,2.61,29.6,4.06,44.41a1.82,1.82,0,0,0,3.54.48c2.93-7.75.91-17.59.26-25.71-.59-7.19-1.11-14.31-1.61-21.5,4.58-1.67,11.05-4,12.79-8.16C548.19,225.23,546.08,224,544.8,224.71Z" fill="#383838"/><path d="M603.63,253.81c-5.43,4.93-9.92,11-16.66,14.38-11.25,5.67-20.28-1.26-21.3-13.16a33.77,33.77,0,0,1,0-4c5.58-3.54,10.53-8.38,12-11.53,5.21-11-9.75-15.44-14.92-5.62a35.59,35.59,0,0,0-3.56,12.49c-4.1,1.54-7.86,3-8.3,5.32a1.37,1.37,0,0,0-2.17-1.3L548,251a1.69,1.69,0,0,0,0,2.37c2.58,2.74,6.73,2.58,11.14,1,.63,8.16,3.69,16,9.92,19.93,15.4,9.84,28.73-7.36,37.29-17.87a1.9,1.9,0,0,0-2.76-2.61Zm-34.55-17.72c3.87-1.32,4.34-2.17,2.17,2.17-2.17,2.17-2.82,3.71-4.8,4.89C566.63,241.61,568.67,237.59,569.08,236.09Z" fill="#383838"/><path d="M639.11,237.35c-.8-6.64-1.45-13.31-1.82-19.89-.46-8.12-1.19-16.22-1.65-24.34-.43-7.51-2.41-17.16-.56-24.49.39-1.54-1.91-2.65-2.65-1.11-6.71,13.66-1.76,33.9-1.13,48.53q.13,3.17.35,6.41c-.39-.46-.76-.93-1.17-1.37-8.1-8.51-15.85-6.64-21.22,2.8-5.69,10-2.32,26.93,4,36.18,5.71,8.32,16.55,14.81,24.78,6.51a1.48,1.48,0,0,0,.43-1.41,2.71,2.71,0,0,0,4.34-2.06A103.28,103.28,0,0,0,639.11,237.35Zm-2.61,26.51c-9,1.61-16.66-1.63-20.67-10.38-2.93-6.41-6-21.26-2.32-27.12,8.16-13,16.33.39,19.26,8.86a235,235,0,0,0,4.84,28.58,2.33,2.33,0,0,0,.15.35A1.74,1.74,0,0,0,636.51,263.86Z" fill="#383838"/><path d="M467.43,343.15c1.11-2.17-1.91-5.08-3.74-2.89-8.69,10.53-12.36,24.47-15.46,37.59a138.28,138.28,0,0,0-3.63,45.82,11.9,11.9,0,0,0,.33,2.17c-1.54-3-3.45-6-4.6-8.36a286,286,0,0,1-17.22-45.25,3,3,0,0,0-5.8.78,304.71,304.71,0,0,1-6.67,42.11c-1.54,6.91-3.56,14.09-5.08,21.24-5.45-14.61-11-29-17.85-43.24a269.27,269.27,0,0,0-15.2-27.43c-3.65-5.78-8.21-14.09-14.18-17.63a1.78,1.78,0,0,0-2.58,2c.72,2.17-1.32,1.74.52,3.3.35.28,1.8,2.17,2.17,2.17,4.71,5.41,7.67,11.68,10.86,17.37,4.91,8.69,8.84,16.92,13,26.06,7.32,16,15.42,32.88,21.54,49.23a2.89,2.89,0,0,0,5.67-.76c1.22-12,5.54-24.6,8.27-36.37a218.26,218.26,0,0,0,4-23.52c3,8.53,6.28,16.87,10,25.32,3.47,7.82,6.84,20.41,13.81,26.06a2.93,2.93,0,0,0,3.45.46c3-2.17,2.54-5.62,2.28-9.06a194.55,194.55,0,0,1-1.28-23A158.72,158.72,0,0,1,467.43,343.15Z" fill="#383838"/><path d="M503.17,380.52c-2.41-4.1-7.6-9.08-12.62-9.64s-6.41,3.45-8.69,7.19c-.91,1.54,1.3,3.37,2.54,2,2.58-3,2.69-5.28,8.12-2.63a15.48,15.48,0,0,1,7.54,10.23,19.26,19.26,0,0,1-6.91,19c-8.84,7.23-14.64-3-16.87-10.4a33.83,33.83,0,0,1-1.32-9.9c0,.22,1.45-9.77,2.3-9.21s2-.65,1.63-1.63l-.52-1.22a1.56,1.56,0,0,0-1.78-.72c-8.93,3.3-6.08,21.26-3.54,27.86,3.69,9.58,12,17.61,22.26,10.23C504.93,404.82,509.39,391.05,503.17,380.52Z" fill="#383838"/><path d="M532.36,366c-5.65,7.56-7.23,17-8.69,26.34-.8-3.08-1.8-6.12-2.48-9.23-1-4.47-2-9-5.19-12.4-1.13-1.19-3.54,0-2.89,1.67l.52,1.32.11.13c2.32,5.32,3,11.57,4.34,17.11,1.28,4.91,1,10.62,3.6,15a2.54,2.54,0,0,0,4.6-.61c1.74-6.82,1.91-13.94,4-20.72.59-1.91,7.69-19.78,10.51-14,.54,1.11,4.15,1.26,4.34,0C546.41,363.08,536.79,360.11,532.36,366Z" fill="#383838"/><path d="M597.31,389.05c-5.69-8.84-15.55-12.4-22.28-19.78a2.84,2.84,0,0,0-1.15-.72,130.55,130.55,0,0,1,7.34-11.7c3.06-4.67,5-10.27,8.12-14.77h0c.89-1.59-.93-4.08-2.71-2.76-4.34,3.26-7.1,10.18-10.16,14.72a105.86,105.86,0,0,0-9.06,14.4c-.41-1.87-.76-3.63-1-5.21-2.48-14.57-4.67-29.49-10.47-43.21-.59-1.39-3-.67-2.82.76,1.09,13.29,5.21,26.36,7.08,39.63,1.78,12.49,5.78,26.43,5.73,39.09,0,1.63,2.45,2.48,3.21.87,3.13-6.51,1.54-16.55-.33-25.54h.48a8.69,8.69,0,0,0,2.65,0,96.88,96.88,0,0,0,8.19,6c4.76,3.74,8.84,8.21,14,11.4a2.43,2.43,0,0,0,3.21-3.19Z" fill="#383838"/><path d="M627.58,374.94c-3.45-5-12.9-5.65-15.46-10-3.74-6.34,7.6-15.68,11.44-20.63a1.82,1.82,0,0,0-2.17-2.84c-6.71,3.67-18.59,14.07-16.89,23.06.74,3.87,3.74,5.6,6.88,7.54,6.82,4.17,17.89,5.12,7.56,18.87-1.72,2.28-5.15,4.08-7.23,6.12a1.91,1.91,0,0,0,2.32,3C623.52,395.2,636,387.27,627.58,374.94Z" fill="#383838"/></g><g id="Layer_3-3" data-name="Layer 3"><rect x="228.2" y="174.89" width="17.89" height="10.45" transform="translate(-27.15 42.9) rotate(-9.78)" fill="#616161"/><path d="M232.19,186.15h0a3,3,0,0,1-3.45-2.17h0l-.91-5.3-.35-2.17-.52-2.93-.5-2.63-.48-2.69-2.48-14.4-.65-3.84a3,3,0,0,1,2.43-3.43h.52a3,3,0,0,1,2.84,2.17,1.24,1.24,0,0,1,0,.3l3.13,18.22.46,2.65.46,2.65.52,2.93.35,2.17,1.11,5.15A3,3,0,0,1,232.19,186.15Z" fill="#616161"/><path d="M243.92,184.23a3,3,0,0,1-3.45-2.41v0l-.91-5.3-.35-2-.52-3-.46-2.74-.46-2.65L234.66,148a3,3,0,0,1,2.41-3.45h.52a3,3,0,0,1,2.93,2.52l3.13,18.22.46,2.67.46,2.65.52,2.93.35,2h0l.91,5.3h0A3,3,0,0,1,243.92,184.23Z" fill="#616161"/><rect x="270.83" y="167.54" width="17.89" height="10.45" transform="translate(-25.28 50.03) rotate(-9.78)" fill="#616161"/><path d="M274.79,178.91a3,3,0,0,1-3.45-2.41v0l-.91-5.3-.35-2-.52-3-.46-2.65-.46-2.65-3.15-18.18a3,3,0,0,1,2.45-3.45h.5a3,3,0,0,1,2.93,2.48L274.53,160l.46,2.65.46,2.67.48,2.84.35,2,.91,5.32A3,3,0,0,1,274.79,178.91Z" fill="#616161"/><path d="M286.54,176.89a3,3,0,0,1-3.42-2.39v0l-.91-5.3-.35-2-.52-3-.46-2.65-.46-2.65-3.15-18.33a3,3,0,0,1,2.41-3.45h.54a3,3,0,0,1,2.93,2.48l3.13,18.35.5,2.58.46,2.65.52,3,.35,2,.91,5.3a3,3,0,0,1-2.42,3.44Z" fill="#616161"/><rect x="313.48" y="160.2" width="17.89" height="10.45" transform="translate(-23.41 57.17) rotate(-9.78)" fill="#616161"/><path d="M317.47,171.55h0a3,3,0,0,1-3.34-2.32h0l-.91-5.3-.35-2.17-.52-2.93-.46-2.65-.61-2.61-3.13-18.22a3,3,0,0,1,2.38-3.47l.14,0h.52a3,3,0,0,1,2.93,2.48l3.06,18.2.46,2.65.46,2.65.52,2.93.35,2.17.91,5.3A3,3,0,0,1,317.47,171.55Z" fill="#616161"/><path d="M329.19,169.53a3,3,0,0,1-3.45-2.41v0l-.91-5.3-.35-2-.52-3-.46-2.65L323,151.4l-3.13-18.22a3,3,0,0,1,2.41-3.45h.5a3,3,0,0,1,3,2.56L329,150.51l.46,2.65.46,2.65.5,2.93.37,2.06.91,5.3h0a3,3,0,0,1-2.41,3.41Z" fill="#616161"/><rect x="356.1" y="152.83" width="17.89" height="10.45" transform="translate(-21.54 64.31) rotate(-9.78)" fill="#616161"/><path d="M360,164.21a3,3,0,0,1-3.43-2.43l-.91-5.3-.35-2-.52-3-.46-2.65-.46-2.65-3.15-18.22a3,3,0,0,1,2.43-3.45h.5a3,3,0,0,1,3,2.48l3.15,18.24.46,2.65.46,2.65.52,2.93.35,2.17.91,5.3A3,3,0,0,1,360,164.21Z" fill="#616161"/><path d="M371.82,162.26a3,3,0,0,1-3.45-2.41v0l-.91-5.3-.35-2-.52-3-.46-2.65-.46-2.65L362.55,126a3,3,0,0,1,2.33-3.5h.6a3,3,0,0,1,2.93,2.48l3.06,18.18.46,2.65.46,2.65.61,3,.35,2,.91,5.3a3,3,0,0,1-2.33,3.5Z" fill="#616161"/><rect x="398.75" y="145.5" width="17.89" height="10.45" transform="translate(-19.68 71.44) rotate(-9.78)" fill="#616161"/><path d="M402.78,156.85h-.2a3,3,0,0,1-3.34-2.43l-.91-5.19-.35-2.06-.46-3-.46-2.65-.46-2.65-3.13-18.22a3,3,0,0,1,2.41-3.45h.54a3,3,0,0,1,2.93,2.48l3.13,18.22.46,2.65.46,2.65.52,2.93.35,2.17.91,5.3A3,3,0,0,1,402.78,156.85Z" fill="#616161"/><path d="M416.9,151.4h0a3,3,0,0,1-2.3,3.32h-.33a3,3,0,0,1-3.26-2.45l-.91-5.21-.37-2.17-.5-2.93-.46-2.65-.39-2.48-3.15-18.24a3,3,0,0,1,2.43-3.43h.52a3,3,0,0,1,2.93,2.48l3.15,18.22.46,2.65.46,2.65.5,2.93.37,2.17Z" fill="#616161"/><rect x="441.38" y="138.15" width="17.89" height="10.45" transform="translate(-17.81 78.58) rotate(-9.78)" fill="#616161"/><path d="M445.3,149.51a3,3,0,0,1-3.4-2.42v0l-.93-5.28-.35-2-.52-2.93-.43-2.78-.46-2.65-3.15-18.22a3,3,0,0,1,2.41-3.45h.5a3,3,0,0,1,3,2.61l3.13,18.22.46,2.65.46,2.65.52,2.93.35,2.17.91,5.3A3,3,0,0,1,445.3,149.51Z" fill="#616161"/><path d="M457.09,147.49a3,3,0,0,1-3.45-2.41v0l-.91-5.3-.35-2-.56-3-.46-2.65-.46-2.65-3.13-18.22a3,3,0,0,1,2.41-3.45h.54a3,3,0,0,1,3,2.35l3.13,18.22.46,2.65.48,2.67.5,2.93.35,2,.91,5.3h0a3,3,0,0,1-2.27,3.51Z" fill="#616161"/><rect x="484" y="130.79" width="17.89" height="10.45" transform="translate(-15.94 85.71) rotate(-9.78)" fill="#616161"/><path d="M488.06,142.15h-.2a3,3,0,0,1-3.34-2.43l-.91-5.3-.35-2.17-.52-2.93-.52-2.52-.46-2.65-3.13-18.22a3,3,0,0,1,2.41-3.45h.52A3,3,0,0,1,484.5,105l3.21,18.22.46,2.65.46,2.65.5,2.93.37,2.17.91,5.3A3,3,0,0,1,488.06,142.15Z" fill="#616161"/><path d="M499.83,140.13h-.24a3,3,0,0,1-3.28-2.45l-.91-5.3-.37-2.17-.52-2.69-.46-2.65-.46-2.65L490.45,104a3,3,0,0,1,2.43-3.43h.52a3,3,0,0,1,2.93,2.48l3.13,18,.46,2.65.46,2.65.52,2.93.35,2.17.91,5.3A3,3,0,0,1,499.83,140.13Z" fill="#616161"/><rect x="526.65" y="123.46" width="17.89" height="10.45" transform="translate(-14.08 92.85) rotate(-9.78)" fill="#616161"/><rect x="524.25" y="93.98" width="6" height="40.46" rx="2.99" ry="2.99" transform="translate(-11.72 90.88) rotate(-9.74)" fill="#616161"/><path d="M538.94,92.81h0a3,3,0,0,1,3,3v34.33a3,3,0,0,1-3,3h0a3,3,0,0,1-3-3V95.78A3,3,0,0,1,538.94,92.81Z" transform="translate(-11.35 93.19) rotate(-9.78)" fill="#616161"/><rect x="569.28" y="116.09" width="17.89" height="10.45" transform="translate(-12.2 99.98) rotate(-9.78)" fill="#616161"/><rect x="566.84" y="87.49" width="5.97" height="40.28" rx="2.98" ry="2.98" transform="matrix(0.99, -0.17, 0.17, 0.99, -10, 98.36)" fill="#616161"/><rect x="578.59" y="85.45" width="5.97" height="40.28" rx="2.98" ry="2.98" transform="translate(-9.49 100.32) rotate(-9.78)" fill="#616161"/><rect x="611.93" y="108.76" width="17.89" height="10.45" transform="translate(-10.34 107.12) rotate(-9.78)" fill="#616161"/><rect x="609.46" y="80.13" width="5.97" height="40.28" rx="2.98" ry="2.98" transform="translate(-8.13 105.49) rotate(-9.78)" fill="#616161"/><path d="M624.21,78.12h0a3,3,0,0,1,3,3v34.33a3,3,0,0,1-3,3h0a3,3,0,0,1-3-3V81.1a3,3,0,0,1,3-3Z" transform="translate(-7.62 107.46) rotate(-9.78)" fill="#616161"/><rect x="655.55" y="101.4" width="17.89" height="10.45" transform="translate(-8.46 114.43) rotate(-9.78)" fill="#616161"/><rect x="652.73" y="71.82" width="6" height="40.46" rx="2.99" ry="2.99" transform="translate(-6.12 112.3) rotate(-9.74)" fill="#616161"/><rect x="664.86" y="70.75" width="5.97" height="40.28" rx="2.97" ry="2.97" transform="translate(-5.73 114.77) rotate(-9.78)" fill="#616161"/></g></g><g id="Layer_7" data-name="Layer 7"><polygon points="1008.74 184.09 1007.45 197.89 1007.29 197.85 1003.57 234 901.6 563.43 899.97 568.69 898.2 574.42 896.42 580.16 894.64 585.89 893.02 591.15 888.19 606.77 880.66 614.3 847.46 647.5 696.4 496.44 1005.54 187.29 1005.71 187.12 1008.74 184.09" fill="url(#linear-gradient-5)"/><rect x="770.18" y="391.64" width="344.84" height="7.97" transform="translate(285.93 1179.08) rotate(-72.8)" fill="#85ad40"/><rect x="763.52" y="390.09" width="344.84" height="6.97" transform="translate(283.21 1171.27) rotate(-72.8)" fill="#6c8c34"/><polygon points="1003.57 234 901.6 563.43 895.42 561.51 894.95 561.36 996.91 231.95 996.91 231.94 997.39 232.09 1003.57 234" fill="#9bc74d"/><line x1="880" y1="562.5" x2="899.97" y2="568.69" fill="none" stroke="#ababab" stroke-miterlimit="10"/><line x1="878.23" y1="568.24" x2="898.2" y2="574.42" fill="none" stroke="#ababab" stroke-miterlimit="10"/><line x1="876.45" y1="573.98" x2="896.42" y2="580.16" fill="none" stroke="#ababab" stroke-miterlimit="10"/><line x1="874.67" y1="579.72" x2="894.64" y2="585.89" fill="none" stroke="#ababab" stroke-miterlimit="10"/><path d="M888.68,557.52c-1,2.89-19.85,55.94-15.09,56.89" fill="none"/><path d="M888.12,559.25l-.3-.09-6.19-1.92L880,562.5l-1.78,5.81L876.45,574l-1.78,5.74L873,585l6.37,2C883,575.33,886.74,563.57,888.12,559.25Z" fill="#b3b3b3"/><path d="M895.42,561.51l-.48-.15-6.65-2.06h-.17c-1.38,4.31-5.13,16.08-8.7,27.69l13.6,4.19,1.63-5.26,1.78-5.74,1.78-5.74,1.78-5.74,1.63-5.26Z" fill="#bababa"/><line x1="880" y1="562.5" x2="899.97" y2="568.69" fill="none" stroke="#ababab" stroke-miterlimit="10"/><line x1="878.23" y1="568.24" x2="898.2" y2="574.42" fill="none" stroke="#ababab" stroke-miterlimit="10"/><line x1="876.45" y1="573.98" x2="896.42" y2="580.16" fill="none" stroke="#ababab" stroke-miterlimit="10"/><line x1="874.67" y1="579.72" x2="894.64" y2="585.89" fill="none" stroke="#ababab" stroke-miterlimit="10"/><path d="M873.72,606.1c1.46-5.21,3.55-12.16,5.7-19.15L873,585l-5.27,17a9,9,0,0,0,5.9,11.2l1.16.35A11.18,11.18,0,0,1,873.72,606.1Z" fill="#ed8190"/><path d="M873.72,606.1a11.18,11.18,0,0,0,1.16,7.38l1.72.53a8.94,8.94,0,0,0,11.2-5.87v0l.42-1.35,4.8-15.58-13.63-4.24C877.26,594,875.18,600.88,873.72,606.1Z" fill="#ff8c9c"/><path d="M888.68,557.52s-10.45,32.51-15,48.58c-.66,4.9-1.25,8.13-.14,8.31" fill="none"/><path d="M888.68,557.52l-15,48.58s-2.46,7.15,2.18,8.31" fill="none"/><polygon points="1000.95 195.87 983.61 227.83 989.78 229.73 989.78 229.74 990.21 229.87 1002.88 196.48 1000.95 195.87" fill="#e6c686"/><polygon points="990.21 229.87 990.26 229.88 996.91 231.95 997.39 232.09 1003.57 234 1007.29 197.85 1002.88 196.48 990.21 229.87" fill="#ffdc96"/><polygon points="1008.09 182.73 1008.14 182.6 1005.54 187.29 1000.8 195.83 1000.95 195.87 1005.71 187.12 1008.09 182.73" fill="#303030"/><polygon points="1009.03 181 1008.14 182.6 1008.09 182.73 1009.03 181" fill="#303030"/><polygon points="1008.71 184.12 1007.29 197.85 1007.45 197.89 1008.74 184.09 1009.03 181 1008.71 184.12" fill="#303030"/><polygon points="1009.03 181 1008.09 182.73 1002.88 196.48 1007.29 197.85 1008.71 184.12 1009.03 181" fill="#303030"/><polygon points="1008.09 182.73 1005.71 187.12 1000.95 195.87 1002.88 196.48 1008.09 182.73" fill="#303030"/></g><g id="Layer_8" data-name="Layer 8"><path d="M841,879.07a133.71,133.71,0,0,1-27.28,81.17L606,1167.91l-197-197L687.28,692.58a14.28,14.28,0,0,1,6-1.31h26.48a14.7,14.7,0,0,1,14.7,14.7h0v41.56A134.49,134.49,0,0,1,841,879.07Z" fill="url(#linear-gradient-6)"/><path d="M841,879.07A134.36,134.36,0,1,1,734.49,747.54,134.36,134.36,0,0,1,841,879.07Z" fill="#d4b842"/><path d="M734.49,706v41.91a6.53,6.53,0,0,1-6.53,6.53H685.15a6.53,6.53,0,0,1-6.53-6.53h0V706a14.28,14.28,0,0,1,1.26-6,14.61,14.61,0,0,1,7.36-7.36,14.28,14.28,0,0,1,6-1.31h26.48A14.7,14.7,0,0,1,734.49,706Z" fill="#d4b842"/><ellipse cx="706.55" cy="879.07" rx="119.21" ry="120.27" fill="#87762a"/><circle cx="706.55" cy="879.07" r="111.59" fill="#1a0e00"/><path d="M712,976a103.25,103.25,0,0,1-93-147.93A110.28,110.28,0,0,0,790.38,939.88,103,103,0,0,1,712,976Z" fill="#3d290f"/></g></svg>