<svg xmlns="http://www.w3.org/2000/svg" viewBox="0 0 960 1000"><defs><style>.cls-1{fill:#777;}.cls-2{fill:#141a26;}.cls-3{fill:#3d3731;}.cls-13,.cls-4{fill:none;}.cls-4{stroke:#5b534b;}.cls-5{fill:#5b534b;}.cls-6{fill:#545454;}.cls-7{fill:#0a0a0a;}.cls-8{fill:#212121;}.cls-9{fill:#1a1a1a;}.cls-10{fill:#121212;}.cls-11{fill:#0d0d0d;}.cls-12{fill:#383838;}.cls-14{fill:#756534;}.cls-15{fill:#8a773e;}.cls-16{fill:#8f7051;}.cls-17{fill:#080808;}.cls-18{fill:#1f1f1f;}.cls-19{fill:#262626;}.cls-20{fill:#424242;}.cls-21{fill:#52161d;}.cls-22{fill:#471319;}.cls-23{fill:#191621;}.cls-24{fill:#100e14;}</style></defs><title>about-bottom</title><g id="window"><polyline class="cls-1" points="210 734.32 210 333.68 750 333.68 750 734.32"/><polyline class="cls-2" points="219.95 726.86 219.95 346.12 737.56 346.12 737.56 726.86"/><path class="cls-3" d="M221.14,374.74H741.29l-6.15,7.47H216.22Z"/><path class="cls-3" d="M221.14,383.45H741.29l-6.15,8.71H216.22Z"/><path class="cls-3" d="M221.14,393.4H741.29l-6.15,7.47H216.22Z"/><path class="cls-3" d="M221.14,402.11H741.29l-6.15,8.71H216.22Z"/><path class="cls-3" d="M221.14,412.06H741.29l-6.15,7.47H216.22Z"/><line class="cls-4" x1="231.77" y1="363.54" x2="231.77" y2="699.48"/><rect class="cls-3" x="216.22" y="346.12" width="525.07" height="23.64"/><rect class="cls-5" x="229.91" y="695.75" width="3.73" height="6.22"/></g><g id="desk"><rect class="cls-6" x="173.7" y="943.26" width="16.01" height="271.74"/><rect class="cls-6" x="768.95" y="943.26" width="16.01" height="271.74"/><rect class="cls-7" x="158" y="925" width="644" height="22.56"/><rect class="cls-7" x="335" y="681" width="290" height="169"/><path class="cls-8" d="M232.56,915.45c7.45,5.15,15,8.38,22.14,9.55H258V821H187.09v8.18a141.6,141.6,0,0,0,15.06,50.58,24.22,24.22,0,1,1,30.41,35.69Zm1.8-70.22A12.41,12.41,0,1,1,222,832.82,12.4,12.4,0,0,1,234.36,845.23Z"/><path class="cls-9" d="M187.09,829.18a141.6,141.6,0,0,0,15.06,50.58,24.22,24.22,0,0,0,29.54,36.11c.3-.13.58-.28.87-.42,7.45,5.15,15,8.38,22.14,9.55H187.09Z"/><path class="cls-10" d="M210.52,840.41a12.45,12.45,0,0,1,6.36-6.5c9,2.57,13.18,7.42,14.84,19a12.41,12.41,0,0,1-21.2-12.46Z"/><path class="cls-11" d="M216.88,833.91a12.4,12.4,0,0,1,14.84,19C230.06,841.33,225.85,836.48,216.88,833.91Z"/><path class="cls-11" d="M209.65,872.82a24.21,24.21,0,0,1,31.67,35.38C239.58,887.35,228.85,875,209.65,872.82Z"/><path class="cls-10" d="M199.78,883.91a24.47,24.47,0,0,1,9.87-11.09c19.2,2.22,29.93,14.53,31.67,35.38a24.37,24.37,0,0,1-8.76,7.24c-.29.14-.58.29-.87.42a24.23,24.23,0,0,1-31.91-32Z"/><rect class="cls-12" x="346" y="691" width="268" height="149"/><path class="cls-13" d="M306.76,882.54c-1.32-4.31-4.69-6.25-10.77-2.5l-.34,13.61-.41,16.7C303.81,909.39,309.42,891.19,306.76,882.54Z"/><path class="cls-14" d="M246.37,866c0,.07-.06.13-.09.2a3.06,3.06,0,0,0-.17,1.11l1.14,46.18a11.51,11.51,0,0,0,10.45,11.47c.35,0,.71.06,1.07.06h24.87a11.52,11.52,0,0,0,11.45-10.25c0-.07,0-.13,0-.2C271.38,910.07,252.06,885,246.37,866Z"/><path class="cls-15" d="M304.75,874.88c-2.21-.62-5.07-.37-8.65,1l.21-8.63a3.14,3.14,0,0,0-3.14-3.22H249.24a3.13,3.13,0,0,0-2.87,1.91c5.7,19,25,44.08,48.74,48.56,0-.09,0-.18,0-.28C308.93,910.83,317.51,878.45,304.75,874.88Zm-9.09,18.77L296,880c6.08-3.75,9.45-1.81,10.77,2.5,2.66,8.65-2.95,26.85-11.52,27.81Z"/><path class="cls-8" d="M707.91,893.68a24.22,24.22,0,0,1,44-13.93A141.6,141.6,0,0,0,767,829.18V821H696.09V925h3.3c7.1-1.17,14.69-4.4,22.14-9.55A24.21,24.21,0,0,1,707.91,893.68Zm24.23-60.86a12.4,12.4,0,1,1-12.41,12.41A12.41,12.41,0,0,1,732.14,832.82Z"/><path class="cls-9" d="M767,829.18a141.6,141.6,0,0,1-15.06,50.58,24.22,24.22,0,0,1-29.54,36.11c-.3-.13-.58-.28-.87-.42-7.45,5.15-15,8.38-22.14,9.55H767Z"/><path class="cls-10" d="M743.58,840.41a12.45,12.45,0,0,0-6.36-6.5c-9,2.57-13.18,7.42-14.84,19a12.41,12.41,0,0,0,21.2-12.46Z"/><path class="cls-11" d="M737.21,833.91a12.4,12.4,0,0,0-14.84,19C724,841.33,728.24,836.48,737.21,833.91Z"/><path class="cls-11" d="M744.44,872.82a24.21,24.21,0,0,0-31.67,35.38C714.51,887.35,725.24,875,744.44,872.82Z"/><path class="cls-10" d="M754.31,883.91a24.47,24.47,0,0,0-9.87-11.09c-19.2,2.22-29.93,14.53-31.67,35.38a24.37,24.37,0,0,0,8.76,7.24c.29.14.58.29.87.42a24.23,24.23,0,0,0,31.91-32Z"/></g><g id="me"><path class="cls-16" d="M507.8,785.86c-.65-4.37-.35-9.1-.47-13.64C507,761.34,515.85,755.68,521,745l.61-1.28c5.24-11,8.56-20.65,7.37-35.44-1-12-3-24.21-9.56-34.31-3.15-4.81-7.23-9.17-12.39-11.7-6.39-3.12-13.83-3.17-20.91-2.5-10.39,1-20.92,3.52-29.44,9.54-13.48,9.52-20.05,26.78-19.76,43.28.19,10.64,2.89,21,6.95,30.9a146.24,146.24,0,0,0,7.73,15.87l.77,2.28c2.93,6.59,2.79,4.56,3.46,9.91a53.71,53.71,0,0,1-.13,15.05c-1.44,8.47-5.87,16.4-17.27,16.4h20.46l45.4,0,24.18,0C513.18,800.4,509,793.69,507.8,785.86Z"/><path class="cls-17" d="M413,768.21c16.54-1.1,32.25-10.23,40.66-23.65a22.63,22.63,0,0,1-.75,2.3c3.93-1.74,6.72-3.47,9.15-7.16a57.28,57.28,0,0,0,5.31-10.62c2.69-6.8,5-13.69,8-20.38,5-11.2,11.47-21.68,20.86-29.94.1-.78.19-1.56.27-2.34.08-2.62.22-5.26.45-7.88a31.61,31.61,0,0,0-2.39-13.11c-7.46-1.51-15.73-2.22-21-1.7-18.16,1.47-27.4,4.94-33.17,10.1-2.77,2.47-9.72,17.17-10.84,26.84s-.79,19.48-2.49,29.07-5.77,19.31-13.87,25.38a38.62,38.62,0,0,0,20.43-9.56A52.68,52.68,0,0,1,413,768.21Z"/><path class="cls-18" d="M449,715.83a9.89,9.89,0,0,0-9,8.59c-1.39-1.91-2.25-2.89-2.19-2.38,1.67,14.46,7.95,27,11.56,34,.73,1.41,1.37,2.6,1.82,3.5,1,2,10.17,11,11.37,11.37.3.1,37.47,0,37.47,0,1.63-.62,6-4.64,9.26-8C479.66,761.15,454.22,731.65,449,715.83Z"/><path class="cls-19" d="M529.61,709.07c-.06-.79.16-3.15-.41-3.78l-3.08,2.65c.54.29,2.19,3,1.28,3.1a2,2,0,0,0-1.93,2.08l.06,1.5a2,2,0,0,0,.45,1.17c.11,5-9.63-7.68-10.65-5.31-.21.48.09,3.94.34,7a8.49,8.49,0,0,0-6.69-2.73c-5,.54-10.29.18-15.36.16-5.23,0-10.48.09-15.71.42-9.46.6-18.88.47-28.34.47l-.6,0c5.25,15.83,30.69,45.32,60.26,47.08,1.7-1.72,3.12-3.26,3.74-4,1-1.25,1.72-2.3,2.36-3.26,1.32-2,2.14-3.59,3.44-5.68a67.39,67.39,0,0,0,8.58-21.08c1-4.59,2.54-9.28,2.55-14C529.91,712.93,529.75,711,529.61,709.07Z"/><path class="cls-20" d="M526,708.09l.17-.14C526,707.89,525.95,707.91,526,708.09Z"/><path class="cls-17" d="M435.07,718.7c-1.56-6.75-4.68-14.1-4.18-21,.82-11.41,7.52-21.9,16.56-28.9S467.67,658,479,656.18c6.84-1.09,13.88-1.49,20.65-.06s14.05,4.55,18.33,10h0c7.55,3.12,9.53,12.29,11.24,20.28,2.33,10.9,4.28,22.44,1.31,33.18-3.09,11.16-8.44,25.18-15.13,30.53A30,30,0,0,0,512.68,739C509,749,504,752,497.3,756.12a25.16,25.16,0,0,0-1.34-12.4c-3,7.28-8,9.28-14.05,13.74C481,750,479,748,476.55,743.72a32.42,32.42,0,0,0-8.7,13.07,95,95,0,0,1-9.9-14.27c-4,3.48-5,6.48-5.49,10.93C443.1,747.43,439.09,736.09,435.07,718.7Z"/><path class="cls-21" d="M454.64,790h50.73c30.73,0,55.64,17.23,55.64,38.49v43c0,21.26-24.91,38.49-55.64,38.49H454.64C423.91,910,399,892.77,399,871.51v-43C399,807.23,423.91,790,454.64,790Z"/><path class="cls-22" d="M454.64,796h50.73c30.73,0,55.64,16.37,55.64,36.57v40.87c0,20.19-24.91,36.57-55.64,36.57H454.64C423.91,910,399,893.63,399,873.43V832.57C399,812.37,423.91,796,454.64,796Z"/><path class="cls-10" d="M442.25,713.21a45.9,45.9,0,0,1,1.4-19.44,73.56,73.56,0,0,0,7.2,25,45.07,45.07,0,0,1,5.07-20.38C458.41,704.46,461,712,465,718c.64-4.45.3-14.81,2-19,.29-.72,4.67,19.7,5,19,.78-1.65,3-16.47,4-18,.3,2.11,2.35,14.09,5.48,18.92,1.83-7.05,4.69-11.87,6.52-18.92,1.59,7.41,3.41,11.59,5,19,2.06-3.79,5.5-14.82,7-18,.65-1.38,3.28,19.43,4,18,2-4,.86-16.27,1-18,1.89,6.88,4.11,12.12,6,19,2.92-5.78,3-13,4-18.59.62,6.62,1.34,10,2,16.59,3.08-6.37,4.85-10,5.41-16.92C525,708,523.5,707.55,524,714c6.57-13,2.7-28.86-5.58-41,.23,5.37,4.58,16,3.37,22.35-1.53-5.22-4.87-14.62-7.71-19.35.87,6.09,2.85,16.53,3.72,22.62C515.79,691.16,511,683,507,678c.53,5.63-2,13.24-1.46,18.87C503,690,502,684,498,678c-.93,6.09-3.52,11.8-4.45,17.88a94.65,94.65,0,0,0-8.4-15.8l-2.79,16.19c-1.55-6.86-3.81-11.42-5.36-18.27-1.9,5.51-1.53,10.18-5,15-2-5-1.55-10.57-3-15a36.82,36.82,0,0,0-1.09,16.28l-5.29-15.58-2.43,15C457,688,457,680,457,675c-3.43,6.06-5,13.82-5.94,19.37a54.27,54.27,0,0,1-2.75-17.92l-1.57,16.16C443,685.2,444,677,445,672c-3,4.18-5,12.59-5.17,17.58.08-2.69-1.08-8.9-.83-11.58C438.41,689,438.26,702.49,442.25,713.21Z"/></g><g id="chair"><path class="cls-23" d="M597,870.08V994.92A65.08,65.08,0,0,1,531.92,1060H428.08A65.08,65.08,0,0,1,363,994.92V870.08a62.72,62.72,0,0,1,.4-7.16A65.08,65.08,0,0,1,428.08,805H531.92a65.08,65.08,0,0,1,64.68,57.92A62.72,62.72,0,0,1,597,870.08Z"/><path class="cls-24" d="M597,870.08V994.92A65.08,65.08,0,0,1,531.92,1060H428.08A65.08,65.08,0,0,1,363,994.92V870.08a62.72,62.72,0,0,1,.4-7.16A65.08,65.08,0,0,1,422.08,826H537.92a65.08,65.08,0,0,1,58.68,36.92A62.72,62.72,0,0,1,597,870.08Z"/></g></svg>