<svg xmlns="http://www.w3.org/2000/svg" xmlns:xlink="http://www.w3.org/1999/xlink" viewBox="0 0 394 359"><defs><style>.cls-1{fill:url(#linear-gradient);}.cls-2{fill:url(#linear-gradient-2);}.cls-3{fill:#453017;}.cls-4{fill:#4f3515;}.cls-5{fill:#baa37b;}.cls-6{fill:#dbc191;}.cls-7{fill:#b8a27a;}.cls-8{fill:#382100;}.cls-9{fill:#999;}.cls-10{fill:#242424;}.cls-11{fill:#363636;}.cls-12{fill:#c9b793;}</style><linearGradient id="linear-gradient" x1="84.74" y1="276.74" x2="251.24" y2="110.24" gradientUnits="userSpaceOnUse"><stop offset="0" stop-opacity="0"/><stop offset="1" stop-opacity="0.25"/></linearGradient><linearGradient id="linear-gradient-2" x1="205.7" y1="171.7" x2="330.09" y2="47.3" xlink:href="#linear-gradient"/></defs><title>headphones</title><g id="Layer_4" data-name="Layer 4"><path class="cls-1" d="M272.26,237.45a7.85,7.85,0,0,1-.85,1.52l-6.71,9.6a8.22,8.22,0,0,1-1.46,1.59,3.73,3.73,0,0,1,0,4.08l-1.1,1.57-9.26,9.26L163,355,6.5,198.5,173,32l.2.2,13.33,13.33,6.87,6.87A107.28,107.28,0,0,0,159,100.54a92.36,92.36,0,0,0-5.12,26.32,78.27,78.27,0,0,0,12,46.13,2.51,2.51,0,0,1,1.36.9l1.12,1.47a2.54,2.54,0,0,1,.49,1.92c.09.14.19.26.28.39l-.57.43s0,0,0,0a2.7,2.7,0,0,1-.65.75L166.41,180l5.16,6.74,2-2.89a3.37,3.37,0,0,1,4.65-.73,8.31,8.31,0,0,1,.92-1.71l6.71-9.6c2.86-4.08,8.65-4.67,12.93-1.3l70,55a10.85,10.85,0,0,1,4.07,7.08A9.35,9.35,0,0,1,272.26,237.45Z"/></g><g id="Layer_3" data-name="Layer 3"><path class="cls-2" d="M389.78,154.31c0,4.06-.82,6.83-2.5,7.85a1.45,1.45,0,0,1,0,.36l-3.33,3.33-92,92-66.53-66.53-71-71-2.51-2.51-17.07-17.07c.15-1,.31-1.94.49-2.9,0-.17.07-.34.1-.51A112.94,112.94,0,0,1,159.3,46.3c1.34-1.63,2.74-3.22,4.19-4.79l5.91-5.91c1.24-1.16,2.5-2.29,3.8-3.4l1.07-.89c.46-.39.93-.78,1.4-1.15.72-.59,1.46-1.16,2.2-1.73A113.34,113.34,0,0,1,302.73,20l26.69,26.68,4.74,4.74.14.15-.25.19,6.67,8.73h.08a3.47,3.47,0,0,1,2.69.27h0L345,62.17l.35.34,3.27,3.28,2.1,2.09L362.9,80.12s0,0,0,0L367.79,85l.35.35h0a186.5,186.5,0,0,1,11,22.07c5.56,13.13,9.23,25.45,10.61,34.56C390.63,147.4,390.65,151.66,389.78,154.31Z"/></g><g id="Layer_2" data-name="Layer 2"><path class="cls-3" d="M316.32,72.61l-1.54.55c-4.69,1.69-6.77,7.13-4.64,12.14l34.77,82c2.13,5,7.65,7.7,12.34,6l1-.34C345.94,162.77,313.65,86.48,316.32,72.61Z"/><path class="cls-4" d="M372.91,157.18l-34.77-82c-2.13-5-7.65-7.7-12.34-6l-9.48,3.42c-2.68,13.87,29.61,90.16,41.88,100.34l10.06-3.63C373,167.63,375,162.19,372.91,157.18Z"/><path class="cls-5" d="M384.35,165.7l-.41.15-9.81,3.54a3.71,3.71,0,0,1-3.94-1.07,4.17,4.17,0,0,1-.82-1.25L327.83,69.13a2.43,2.43,0,0,1-.13-.38,3.36,3.36,0,0,1,1.92-4.3l3.31-1.19,7.74-2.8,0,0h.08l0,.07a7.33,7.33,0,0,0-.51,1.09c-6.89,17.53,19.89,92.79,43.93,104Z"/><path class="cls-6" d="M387.28,162.16a1.45,1.45,0,0,1,0,.36,3.31,3.31,0,0,1-.36,1.36,0,0,0,0,1,0,0,3.11,3.11,0,0,1-1.72,1.5l-.83.3-.17-.09c-24-11.23-50.82-86.49-43.93-104a7.33,7.33,0,0,1,.51-1.09l0-.07a3.47,3.47,0,0,1,2.69.27h0a4.11,4.11,0,0,1,1.58,1.44c.08.12.15.24.22.36l.12.27,1.77,4.15L348.93,71v0l34.79,82,1.75,4.14,1.49,3.49a4,4,0,0,1,.25.81A3.33,3.33,0,0,1,387.28,162.16Z"/><path class="cls-3" d="M182.6,176.49l-3.44,4.92a8.31,8.31,0,0,0-.92,1.71,10.37,10.37,0,0,0,3.49,11.77L194.58,205h0l44.06,34.59,13.13,10.3c3.65,2.86,8.37,2.87,11.46.29a8.22,8.22,0,0,0,1.46-1.59l4.25-6.08C251.35,236.87,197.16,193.45,182.6,176.49Z"/><path class="cls-4" d="M272.26,237.45a9.35,9.35,0,0,0,.65-4.88,10.85,10.85,0,0,0-4.07-7.08l-70-55c-4.28-3.37-10.07-2.78-12.93,1.3l-3.27,4.68c14.56,17,68.75,60.38,86.34,66l2.46-3.52A7.85,7.85,0,0,0,272.26,237.45Z"/><path class="cls-5" d="M167.05,193.18l-.2.29,0,0a3.83,3.83,0,0,0,.5,4.65l0,0a3.23,3.23,0,0,0,.5.48l3.53,2.78h0l3.53,2.77h0l70.09,55h0l3.51,2.76h0l3,2.34a3.87,3.87,0,0,0,1.3.68h0l0,0a3.26,3.26,0,0,0,3.62-1.21l.46-.65C254.58,245,193.92,191.21,167.05,193.18Z"/><path class="cls-6" d="M263.24,250.16a4.15,4.15,0,0,0-1-1.11l-83.68-65.7a1.79,1.79,0,0,0-.33-.23,3.37,3.37,0,0,0-4.65.73l-2,2.89-4.52,6.44c26.87-2,87.53,51.8,89.92,70l5.18-7.4,1.1-1.57A3.73,3.73,0,0,0,263.24,250.16Z"/><polygon class="cls-7" points="173.47 189.22 167.2 194.01 166.82 193.52 160.15 184.79 160.02 184.63 158.72 182.93 164.99 178.14 166.29 179.84 166.41 180 171.57 186.74 173.47 189.22"/><path class="cls-8" d="M217.62,220.8c23.62,18.54,39.57,38.15,35.62,43.8s-26.3-4.81-49.92-23.36-39.57-38.15-35.62-43.8S194,202.25,217.62,220.8Z"/><path class="cls-9" d="M215.69,223.56c21.57,16.93,36,35,32.28,40.35s-24.27-4-45.84-21-36-35-32.28-40.35S194.12,206.62,215.69,223.56Z"/><path class="cls-10" d="M171.41,205a2.26,2.26,0,0,0-.3.34c-3.24,4.63,10.69,21.38,31.12,37.41,20.16,15.83,39.1,25,42.7,20.81-7.27-.43-23.52-9.35-40.7-22.81C186,226.55,172.76,211.85,171.41,205Z"/><path class="cls-11" d="M214,226c-19.88-15.61-38.58-24.78-42.55-21,1.35,6.8,14.64,21.5,32.83,35.76,17.17,13.46,33.43,22.38,40.7,22.81,0-.05.1-.1.14-.16C248.31,258.82,234.38,242.07,214,226Z"/><polygon class="cls-6" points="341.1 60.94 340.25 61.59 334.83 65.74 332.93 63.26 327.77 56.52 327.65 56.36 326.35 54.66 332.63 49.86 333.92 51.55 333.93 51.55 334.05 51.71 340.72 60.44 340.76 60.5 341.1 60.94"/><path class="cls-8" d="M389.78,154.31c0,4.06-.82,6.83-2.5,7.85a.44.44,0,0,1-.16.1,2.22,2.22,0,0,1-.38.18c-4.27,1.54-12.11-6.82-20.33-20.59l0,0a211.89,211.89,0,0,1-12.61-25.21,207,207,0,0,1-9.26-26.36s0,0,0,0c-4.11-15.29-4.51-26.37-.23-27.91a2.51,2.51,0,0,1,.67-.15l.13,0c2-.15,4.51,1.37,7.41,4.24h0c.6.6,1.21,1.25,1.83,1.94l0,0a90.07,90.07,0,0,1,8.55,11.76s0,0,0,0a204.24,204.24,0,0,1,14.33,28c6.29,14.84,10.43,28.72,11.91,38.76.26,1.72.44,3.33.53,4.8v0C389.75,152.64,389.78,153.51,389.78,154.31Z"/><path class="cls-9" d="M389.78,154.31a4.38,4.38,0,0,1-2,2.69l-.36.17a3.47,3.47,0,0,1-2,.07c-6.77-1.5-18.85-19-28.54-41.77s-13.62-43.2-9.75-48.54a3,3,0,0,1,1.38-1.14l.11,0a4.65,4.65,0,0,1,3.81.65h0c4.23,2.31,9.88,9.23,15.64,19h0a186.5,186.5,0,0,1,11,22.07c5.56,13.13,9.23,25.45,10.61,34.56C390.63,147.4,390.65,151.66,389.78,154.31Z"/><path class="cls-11" d="M359.78,114.44c10.14,23.91,22.67,41.73,28,39.81s1.4-22.85-8.73-46.76-22.67-41.73-28-39.81S349.65,90.54,359.78,114.44Z"/><path class="cls-12" d="M161.88,74.37a80.49,80.49,0,0,0-9.41,25.31,63.94,63.94,0,0,0-1,8.71c0,1.14-.07,2.26,0,3.38a4.65,4.65,0,0,0,0,.53c0,.37,0,.74,0,1.11a.5.5,0,0,0,0,.21c0,.3,0,.6,0,.9a1.23,1.23,0,0,0,0,.2c0,.25,0,.51.06.76s.06.78.1,1.16.07.61.11.92q.18,1.52.45,3c0,.26.09.51.14.76s.16.78.25,1.16.13.6.2.89c.28,1.18.61,2.34,1,3.49A92.36,92.36,0,0,1,159,100.54a62.15,62.15,0,0,1,11.73-19.76C166.33,80.79,163.32,78.36,161.88,74.37Z"/><path class="cls-12" d="M189.28,43.34c-.93.71-1.85,1.44-2.75,2.19a103.35,103.35,0,0,0-24.65,28.84c1.44,4,4.45,6.42,8.85,6.41,7.4-8.73,16.87-16.5,26.68-24.38.72-.59,1.44-1.16,2.18-1.72,25-19.13,51.09-29.94,77.54-24.94C254.06,16.35,218.48,21,189.28,43.34Z"/><path class="cls-6" d="M137.1,89.89c-.64,2.49-1.21,5-1.69,7.52,0,.17-.07.34-.1.51-.18,1-.34,1.93-.49,2.9-.43,2.68-.75,5.39-1,8.11a112.91,112.91,0,0,0,19.51,73.52c.93,1.36,1.89,2.68,2.9,4,.16.23.33.45.5.67l.85-.65,2.41-1.85,1.34-1C141,156.6,131.68,122.69,137.1,89.89Z"/><path class="cls-6" d="M336.46,49.39q-1.89-2.48-3.9-4.81A113.19,113.19,0,0,0,177.87,28.43q-2.4,1.83-4.67,3.77c-1.3,1.11-2.56,2.24-3.8,3.4-2.06,1.9-4,3.88-5.91,5.91-1.45,1.57-2.85,3.16-4.19,4.79a112.76,112.76,0,0,0-22.2,43.59c-5.42,32.8,3.9,66.71,24.27,93.71l4.93-3.77,2.25-1.72s0,0,0,0l.57-.43c-.09-.13-.19-.25-.28-.39q-1.58-2.1-3-4.29a78.27,78.27,0,0,1-12-46.13c-.37-1.15-.7-2.31-1-3.49-.07-.29-.14-.59-.2-.89s-.17-.77-.25-1.16-.09-.5-.14-.76q-.27-1.48-.45-3c0-.31-.07-.61-.11-.92s-.08-.77-.1-1.16,0-.51-.06-.76a1.23,1.23,0,0,1,0-.2c0-.3,0-.6,0-.9a.5.5,0,0,1,0-.21c0-.37,0-.74,0-1.11a4.65,4.65,0,0,1,0-.53c0-1.12,0-2.25,0-3.38a63.94,63.94,0,0,1,1-8.71c3.42-19,15.29-38.85,34.06-54.15.9-.75,1.82-1.48,2.75-2.19,29.2-22.35,64.78-27,87.84-13.6,16.82,3.17,32.16,11.12,43.78,23.7,1.46,1.56,2.84,3.2,4.16,4.9l2.59-2,6.27-4.81h0l.23-.18,2.13-1.62a0,0,0,0,1,0,0l.27-.21Z"/><path class="cls-8" d="M336.46,49.39a2.72,2.72,0,0,1-.16.35,0,0,0,0,0,0,0,2.4,2.4,0,0,1-.65.74l-1.34,1-.25.19-6.28,4.81-2,1.54a2.5,2.5,0,0,1-3.51-.47l-1.12-1.46a2.49,2.49,0,0,1-.23-2.69,2.56,2.56,0,0,1,.69-.82l7.83-6L331.48,45a2.66,2.66,0,0,1,1.08-.47,2.49,2.49,0,0,1,2.43.94L336.11,47A2.46,2.46,0,0,1,336.46,49.39Z"/><path class="cls-8" d="M168.84,177.28a2.68,2.68,0,0,1-.29.82s0,0,0,0a2.7,2.7,0,0,1-.65.75L166.41,180l-6.26,4.79L158.5,186a2.45,2.45,0,0,1-.89.43,2.46,2.46,0,0,1-2.61-.9l-1.13-1.47a2.46,2.46,0,0,1-.51-1.66,2.44,2.44,0,0,1,1-1.84l9.38-7.18a2.48,2.48,0,0,1,2.15-.44,2.51,2.51,0,0,1,1.36.9l1.12,1.47A2.54,2.54,0,0,1,168.84,177.28Z"/></g></svg>