<svg xmlns="http://www.w3.org/2000/svg" viewBox="0 0 156 113"><defs><style>.cls-1,.cls-2,.cls-4{fill:#e6e6e6;}.cls-2{stroke:#b3b3b3;stroke-width:0.5px;}.cls-2,.cls-4{stroke-miterlimit:10;}.cls-3{fill:#1a1a1a;}.cls-4{stroke:#e6e6e6;stroke-width:0.25px;}</style></defs><title>laptop</title><g id="Layer_1" data-name="Layer 1"><rect class="cls-1" x="2" y="2" width="152" height="110" rx="7.33" ry="7.33"/><rect class="cls-2" x="49.27" y="70.5" width="57.46" height="38" rx="1.56" ry="1.56"/><rect class="cls-2" x="12.5" y="14.5" width="132" height="52" rx="1.56" ry="1.56"/></g><g id="Layer_2" data-name="Layer 2"><rect class="cls-3" x="48" y="57" width="53" height="8" rx="0.46" ry="0.46"/><rect class="cls-3" x="14" y="48" width="18" height="8" rx="0.46" ry="0.46"/><rect class="cls-3" x="123" y="48" width="20" height="8" rx="0.46" ry="0.46"/><rect class="cls-3" x="33" y="48" width="8" height="8" rx="0.46" ry="0.46"/><rect class="cls-3" x="42" y="48" width="8" height="8" rx="0.46" ry="0.46"/><rect class="cls-3" x="51" y="48" width="8" height="8" rx="0.46" ry="0.46"/><rect class="cls-3" x="60" y="48" width="8" height="8" rx="0.46" ry="0.46"/><rect class="cls-3" x="69" y="48" width="8" height="8" rx="0.46" ry="0.46"/><rect class="cls-3" x="78" y="48" width="8" height="8" rx="0.46" ry="0.46"/><rect class="cls-3" x="87" y="48" width="8" height="8" rx="0.46" ry="0.46"/><rect class="cls-3" x="96" y="48" width="8" height="8" rx="0.46" ry="0.46"/><rect class="cls-3" x="105" y="48" width="8" height="8" rx="0.46" ry="0.46"/><rect class="cls-3" x="114" y="48" width="8" height="8" rx="0.46" ry="0.46"/><rect class="cls-3" x="14" y="39" width="13" height="8" rx="0.46" ry="0.46"/><rect class="cls-3" x="127" y="39" width="16" height="8" rx="0.46" ry="0.46"/><rect class="cls-3" x="28" y="39" width="8" height="8" rx="0.46" ry="0.46"/><rect class="cls-3" x="37" y="39" width="8" height="8" rx="0.46" ry="0.46"/><rect class="cls-3" x="46" y="39" width="8" height="8" rx="0.46" ry="0.46"/><rect class="cls-3" x="55" y="39" width="8" height="8" rx="0.46" ry="0.46"/><rect class="cls-3" x="64" y="39" width="8" height="8" rx="0.46" ry="0.46"/><rect class="cls-3" x="73" y="39" width="8" height="8" rx="0.46" ry="0.46"/><rect class="cls-3" x="82" y="39" width="8" height="8" rx="0.46" ry="0.46"/><rect class="cls-3" x="91" y="39" width="8" height="8" rx="0.46" ry="0.46"/><rect class="cls-3" x="100" y="39" width="8" height="8" rx="0.46" ry="0.46"/><rect class="cls-3" x="109" y="39" width="8" height="8" rx="0.46" ry="0.46"/><rect class="cls-3" x="118" y="39" width="8" height="8" rx="0.46" ry="0.46"/><rect class="cls-3" x="14" y="30" width="12" height="8" rx="0.46" ry="0.46"/><rect class="cls-3" x="131" y="21" width="12" height="8" rx="0.46" ry="0.46"/><rect class="cls-3" x="27" y="30" width="8" height="8" rx="0.46" ry="0.46"/><rect class="cls-3" x="36" y="30" width="8" height="8" rx="0.46" ry="0.46"/><rect class="cls-3" x="45" y="30" width="8" height="8" rx="0.46" ry="0.46"/><rect class="cls-3" x="54" y="30" width="8" height="8" rx="0.46" ry="0.46"/><rect class="cls-3" x="63" y="30" width="8" height="8" rx="0.46" ry="0.46"/><rect class="cls-3" x="72" y="30" width="8" height="8" rx="0.46" ry="0.46"/><rect class="cls-3" x="81" y="30" width="8" height="8" rx="0.46" ry="0.46"/><rect class="cls-3" x="90" y="30" width="8" height="8" rx="0.46" ry="0.46"/><rect class="cls-3" x="99" y="30" width="8" height="8" rx="0.46" ry="0.46"/><rect class="cls-3" x="108" y="30" width="8" height="8" rx="0.46" ry="0.46"/><rect class="cls-3" x="117" y="30" width="8" height="8" rx="0.46" ry="0.46"/><rect class="cls-3" x="126" y="30" width="8" height="8" rx="0.46" ry="0.46"/><rect class="cls-3" x="135" y="30" width="8" height="8" rx="0.46" ry="0.46"/><rect class="cls-3" x="14" y="21" width="8" height="8" rx="0.46" ry="0.46"/><rect class="cls-3" x="23" y="21" width="8" height="8" rx="0.46" ry="0.46"/><rect class="cls-3" x="32" y="21" width="8" height="8" rx="0.46" ry="0.46"/><rect class="cls-3" x="41" y="21" width="8" height="8" rx="0.46" ry="0.46"/><rect class="cls-3" x="50" y="21" width="8" height="8" rx="0.46" ry="0.46"/><rect class="cls-3" x="59" y="21" width="8" height="8" rx="0.46" ry="0.46"/><rect class="cls-3" x="68" y="21" width="8" height="8" rx="0.46" ry="0.46"/><rect class="cls-3" x="77" y="21" width="8" height="8" rx="0.46" ry="0.46"/><rect class="cls-3" x="86" y="21" width="8" height="8" rx="0.46" ry="0.46"/><rect class="cls-3" x="95" y="21" width="8" height="8" rx="0.46" ry="0.46"/><rect class="cls-3" x="104" y="21" width="8" height="8" rx="0.46" ry="0.46"/><rect class="cls-3" x="113" y="21" width="8" height="8" rx="0.46" ry="0.46"/><rect class="cls-3" x="122" y="21" width="8" height="8" rx="0.46" ry="0.46"/><rect class="cls-3" x="102" y="57" width="9" height="8" rx="0.46" ry="0.46"/><rect class="cls-3" x="38" y="57" width="9" height="8" rx="0.46" ry="0.46"/><rect class="cls-3" x="112" y="57" width="7" height="8" rx="0.46" ry="0.46"/><rect class="cls-3" x="30" y="57" width="7" height="8" rx="0.46" ry="0.46"/><rect class="cls-3" x="22" y="57" width="7" height="8" rx="0.46" ry="0.46"/><rect class="cls-3" x="14" y="57" width="7" height="8" rx="0.46" ry="0.46"/><rect class="cls-3" x="128" y="57" width="7" height="8" rx="0.46" ry="0.46"/><rect class="cls-3" x="120" y="61" width="7" height="4" rx="0.46" ry="0.46"/><rect class="cls-3" x="14" y="16" width="8.26" height="4" rx="0.46" ry="0.46"/><rect class="cls-3" x="23.29" y="16" width="8.26" height="4" rx="0.46" ry="0.46"/><rect class="cls-3" x="32.58" y="16" width="8.26" height="4" rx="0.46" ry="0.46"/><rect class="cls-3" x="41.86" y="16" width="8.26" height="4" rx="0.46" ry="0.46"/><rect class="cls-3" x="51.15" y="16" width="8.26" height="4" rx="0.46" ry="0.46"/><rect class="cls-3" x="60.44" y="16" width="8.26" height="4" rx="0.46" ry="0.46"/><rect class="cls-3" x="69.73" y="16" width="8.26" height="4" rx="0.46" ry="0.46"/><rect class="cls-3" x="79.02" y="16" width="8.26" height="4" rx="0.46" ry="0.46"/><rect class="cls-3" x="88.3" y="16" width="8.26" height="4" rx="0.46" ry="0.46"/><rect class="cls-3" x="97.59" y="16" width="8.26" height="4" rx="0.46" ry="0.46"/><rect class="cls-3" x="106.88" y="16" width="8.26" height="4" rx="0.46" ry="0.46"/><rect class="cls-3" x="116.17" y="16" width="8.26" height="4" rx="0.46" ry="0.46"/><rect class="cls-3" x="125.46" y="16" width="8.26" height="4" rx="0.46" ry="0.46"/><rect class="cls-3" x="134.74" y="16" width="8.26" height="4" rx="0.46" ry="0.46"/><rect class="cls-3" x="136" y="61" width="7" height="4" rx="0.46" ry="0.46"/><line class="cls-4" x1="128" y1="61" x2="135" y2="61"/></g></svg>