<svg xmlns="http://www.w3.org/2000/svg" xmlns:xlink="http://www.w3.org/1999/xlink" viewBox="0 0 400 400"><defs><style>.cls-1{fill:url(#linear-gradient);}.cls-2{fill:#171717;}.cls-3{fill:#2e2e2e;}.cls-4{fill:#424242;}.cls-5{fill:#404040;}.cls-6{fill:url(#linear-gradient-2);}.cls-7{font-size:8.74px;fill:#d1d1d1;font-family:MyriadPro-Regular, Myriad Pro;}.cls-8{letter-spacing:0.01em;}.cls-9{letter-spacing:-0.01em;}.cls-10{font-size:16.68px;fill:#f2f2f2;font-family:DroidSans-Bold, Droid Sans;font-weight:700;}.cls-11{fill:#f23838;}.cls-12{fill:#e6e6e6;}.cls-13{fill:#25c25e;}</style><linearGradient id="linear-gradient" x1="178" y1="291" x2="360.01" y2="108.99" gradientUnits="userSpaceOnUse"><stop offset="0" stop-opacity="0"/><stop offset="1" stop-opacity="0.3"/></linearGradient><linearGradient id="linear-gradient-2" x1="230.84" y1="238.5" x2="412.73" y2="56.61" gradientUnits="userSpaceOnUse"><stop offset="0" stop-color="#37435b"/><stop offset="1" stop-color="#4b717c"/></linearGradient></defs><title>phone</title><g id="Layer_4" data-name="Layer 4"><path class="cls-1" d="M398.14,147.12V271.27a20.78,20.78,0,0,1-1.73,8.32l-10.79,10.79L281.5,394.5l-207-207,182-182Z"/></g><g id="Layer_1" data-name="Layer 1"><path class="cls-2" d="M398.14,23.84V271.27a20.83,20.83,0,0,1-20.84,20.84h-111a20.84,20.84,0,0,1-20.83-20.84V23.84A20.83,20.83,0,0,1,266.27,3h111A20.84,20.84,0,0,1,398.14,23.84Z"/><rect class="cls-3" x="252.69" y="34.77" width="138.2" height="225.57"/><path class="cls-4" d="M331.76,279.76a10.72,10.72,0,1,1-13.91-13.91,10.33,10.33,0,1,0,13.91,13.91Z"/><rect class="cls-5" x="302.33" y="18.89" width="38.92" height="2.38" rx="1.19" ry="1.19"/><circle class="cls-4" cx="290.81" cy="20.47" r="2.38"/></g><g id="Layer_3" data-name="Layer 3"><rect class="cls-6" x="252.69" y="34.77" width="138.2" height="225.57"/><text class="cls-7" transform="translate(262.61 51.05)"><tspan class="cls-8">I</tspan><tspan x="2.18" y="0">n</tspan><tspan class="cls-9" x="7.02" y="0">c</tspan><tspan x="10.89" y="0">oming call</tspan></text><text class="cls-10" transform="translate(277.59 120.15)">New Client</text><circle class="cls-11" cx="280.88" cy="232.14" r="12.31"/><path class="cls-12" d="M275.75,234.79a7.85,7.85,0,0,1,2-1.44.67.67,0,0,0,.37-.61l-.19-1.72a10.42,10.42,0,0,1,6.66,0l-.14,1.75a.7.7,0,0,0,.38.61,7.66,7.66,0,0,1,2,1.44.69.69,0,0,0,1,0l1.68-1.68a.71.71,0,0,0,.1-1.06,11.77,11.77,0,0,0-16.51,0,.72.72,0,0,0,.09,1.05l1.67,1.67A.69.69,0,0,0,275.75,234.79Z"/><circle class="cls-13" cx="360.31" cy="232.14" r="12.31"/><path class="cls-12" d="M366.36,234.93a8.08,8.08,0,0,1-2.49-.4.69.69,0,0,0-.71.17L362,236.09a10.72,10.72,0,0,1-4.86-4.82l1.38-1.17a.72.72,0,0,0,.17-.72,7.87,7.87,0,0,1-.4-2.49.71.71,0,0,0-.7-.7h-2.44c-.38,0-.84.17-.84.7a12.11,12.11,0,0,0,12,12,.74.74,0,0,0,.7-.83v-2.44A.71.71,0,0,0,366.36,234.93Z"/></g></svg>